<?xml version="1.0" encoding="utf-8"?>
<!-- Generated by IcoMoon.io -->
<!DOCTYPE svg PUBLIC "-//W3C//DTD SVG 1.1//EN" "http://www.w3.org/Graphics/SVG/1.1/DTD/svg11.dtd">
<svg version="1.1" xmlns="http://www.w3.org/2000/svg" xmlns:xlink="http://www.w3.org/1999/xlink" width="791" height="1024" viewBox="0 0 791 1024">
<g id="icomoon-ignore">
</g>
<path d="M407.84 17.656c-2.29 6.361-5.089 11.449-5.852 11.449s-14.247-2.799-29.513-6.361c-15.52-3.307-34.347-6.615-41.98-6.869l-13.993-0.764-3.053 31.803c-1.526 17.556-3.307 36.891-3.817 42.998l-0.764 11.195 27.732 4.834c145.275 24.424 260.528 142.477 282.663 289.533 15.774 103.804-18.573 211.679-91.593 288.515-9.16 9.668-15.774 18.318-14.757 19.336s20.863 15.774 44.015 33.075c23.153 17.3 43.252 32.312 44.778 33.584 2.035 1.272 7.378-3.053 16.283-13.23l13.23-15.265-7.887-9.922c-4.325-5.343-7.887-10.686-7.887-11.449s5.089-8.142 11.195-16.028c6.106-8.142 16.538-23.661 23.153-34.602 6.361-10.686 12.213-19.591 12.467-19.591 0.508 0 5.852 1.781 11.703 3.817s11.703 3.817 12.721 3.817c3.307 0 30.531-64.623 30.531-72.256 0-1.781-5.343-5.597-11.703-8.65-8.65-4.325-11.195-6.869-10.177-9.922 2.799-7.124 14.247-65.895 14.247-73.019 0-6.361 0.508-6.615 13.739-6.615h13.739l1.781-21.625c1.018-11.958 0.764-30.531-0.254-41.471l-2.29-19.591-26.206-1.526-1.526-14.502c-1.018-7.887-4.579-26.206-8.142-40.707-3.307-14.502-6.106-27.223-6.106-28.241 0-1.272 5.089-4.071 11.449-6.361 6.361-2.544 11.449-5.597 11.449-6.869 0-4.071-16.792-46.051-23.916-60.298-3.817-7.378-7.887-13.23-9.16-13.23s-7.124 1.781-12.721 4.071c-5.852 2.29-10.686 3.817-10.94 3.307-0.508-0.508-5.089-8.396-10.686-17.556-5.343-9.16-16.028-24.934-23.661-35.11l-13.993-18.573 19.082-19.591-22.389-23.407c-12.467-12.975-25.952-25.696-29.767-28.495l-7.378-5.089-8.142 7.887c-4.325 4.325-9.16 7.887-10.686 7.887-1.272 0-10.431-5.852-20.099-12.975-9.922-7.124-25.442-17.556-34.856-22.898l-17.046-9.922 3.562-10.431c2.035-5.852 3.817-11.958 3.817-13.739 0-4.071-64.369-31.803-74.037-31.803-1.018 0-3.817 5.089-6.361 11.449z"></path>
<path d="M260.021 181.759l-18.064 54.701-116.017 2.544 9.922 7.887c5.597 4.071 26.46 19.336 46.559 33.838 19.845 14.247 36.128 26.46 36.128 26.968s-7.887 25.188-17.556 54.955c-9.922 29.767-17.556 54.446-17.3 54.701 0.254 0 21.625-15.011 47.323-33.584l46.559-34.092 8.142 5.852c4.325 3.053 24.934 18.064 46.051 33.075 20.863 15.265 38.417 26.714 38.673 25.442 0.508-1.018-6.615-24.424-15.774-51.648s-16.538-51.139-16.283-53.429c0-2.035 20.863-18.827 46.305-36.891l46.051-33.075-58.517-0.764-58.517-0.508-18.064-55.464-17.81-55.21-17.81 54.701z"></path>
<path d="M126.703 391.912c-3.817 6.869-10.177 21.117-13.993 31.549-6.615 17.3-7.124 22.135-7.124 52.156-0.254 27.223 0.764 36.382 5.343 50.884 12.975 40.962 42.743 75.818 92.61 107.621 27.732 18.064 397.153 238.903 403.514 241.447 2.544 1.018 21.117-16.538 23.153-22.135 0.508-1.018-62.079-47.068-138.66-102.023-169.955-121.868-208.88-150.873-239.157-177.587-21.881-19.336-26.714-25.952-21.625-29.004 1.018-0.764 12.721 8.396 25.952 20.354s41.471 34.602 62.334 50.121c38.673 29.004 303.017 219.058 313.448 225.672 5.089 3.053 6.361 2.799 11.195-1.781l5.089-5.343-42.743-31.803c-23.407-17.556-73.019-53.938-110.165-80.906-171.481-125.176-222.619-166.138-287.752-231.27-50.121-50.121-69.966-77.344-73.273-100.497l-1.526-9.922-6.615 12.467z"></path>
<path d="M30.277 743.27c-13.23 16.283-25.696 31.549-27.478 34.092-2.799 4.071-1.272 5.852 11.703 15.774 7.887 6.361 23.661 16.792 34.856 23.661 11.195 6.615 20.863 12.467 21.371 12.721 0.508 0.508-1.018 6.106-3.307 12.467-2.544 6.106-3.817 12.467-3.053 13.739 1.272 2.035 56.737 25.442 69.203 29.259 4.325 1.272 6.106-0.508 10.94-10.94l5.852-12.213 17.81 4.579c9.922 2.29 25.952 5.852 36.128 7.378 30.785 4.834 29.004 3.562 31.294 18.318l2.035 13.485 34.347 0.764c18.827 0.254 36.637 0 39.69-0.508 3.817-1.018 5.597-4.579 7.632-14.757l2.29-13.23 20.354-3.053c20.099-2.799 49.358-9.16 57.754-12.467 3.307-1.272 5.343 1.018 9.414 10.177 5.089 11.449 5.852 11.958 13.23 10.431 7.887-1.526 58.517-22.135 65.641-26.714 3.053-2.035 2.799-4.325-1.272-15.52l-4.834-13.485-91.083-53.429-28.495 6.869c-55.719 12.975-102.278 14.247-154.435 3.817-47.068-9.414-95.662-30.277-133.572-57.499-10.431-7.378-19.082-13.485-19.336-13.485s-11.449 13.485-24.679 29.767z"></path>
<path d="M635.548 856.488c-25.188 29.259-23.661 26.968-20.099 31.294 1.781 2.035 10.686 6.106 19.591 8.904 9.16 2.799 22.643 8.142 29.767 12.213 18.573 9.922 52.156 44.015 62.079 63.351 17.3 33.075 40.962 45.542 57.499 30.021 5.852-5.343 6.615-8.142 6.615-22.135 0-14.247-1.018-17.81-9.16-30.021-11.449-17.556-25.188-31.803-62.079-64.623-37.4-33.075-56.481-47.323-62.842-47.323-3.307 0-11.195 6.615-21.371 18.318z"></path>
</svg>
