<svg xmlns="http://www.w3.org/2000/svg" width="1024" height="1024" viewBox="0 0 1024 1024"><path d="M485.62 126.697c-17.704 94.07-24.994 125.31-27.77 122.186-2.083-2.43-34.712-51.374-72.548-109.342-37.836-57.62-69.424-104.48-70.118-103.786-.347.694 10.76 57.97 24.993 127.393 14.58 69.077 25.687 126.35 24.993 127.045s-45.472-28.81-99.97-65.604c-54.15-37.142-103.094-70.118-108.995-73.936l-10.414-6.595 6.597 10.414c3.818 5.554 36.795 54.845 73.936 108.995 36.795 54.498 66.3 99.276 65.605 99.97s-57.97-10.414-127.045-24.993C95.458 324.21 38.183 313.1 37.49 313.45c-.695.694 46.166 32.282 103.787 70.118 57.97 37.836 106.912 70.465 109.342 72.548 3.122 2.777-28.466 10.066-123.23 28.117L0 508.53l255.825 1.04c140.93.347 371.417.347 512 0L1024 508.53l-127.394-24.3c-94.763-18.05-126.35-25.34-123.227-28.116 2.43-2.083 51.372-34.712 109.34-72.548 57.622-37.836 104.483-69.424 103.79-70.118-.696-.347-57.97 10.76-127.395 24.993-69.077 14.58-126.35 25.69-127.045 24.995s29.16-46.167 66.3-100.664c37.143-54.844 70.12-103.787 73.59-108.994l6.248-9.72-10.414 6.596c-5.554 3.82-54.845 36.796-108.995 73.937-54.5 36.794-99.278 66.3-99.97 65.604s10.412-57.97 24.643-127.393c14.58-69.077 25.687-126.35 24.993-127.045-.347-.694-31.935 46.167-69.77 103.788-37.837 57.97-70.466 107.26-72.55 109.342-2.776 3.124-10.065-28.117-28.116-122.186C524.84 56.927 513.04 0 511.998 0s-12.844 56.927-26.38 126.698z"/></svg>