<svg xmlns="http://www.w3.org/2000/svg" width="1024" height="1024" viewBox="0 0 1024 1024"><path d="M38.687 7.965c0 6.372-.91 7.964-4.55 7.964-3.87 0-4.552 1.59-4.552 9.1s-.683 9.102-4.55 9.102c-3.642 0-4.552 1.593-4.552 7.964 0 7.054-.683 7.964-5.69 7.964s-5.688.91-5.688 7.965c0 6.372-.91 7.964-4.55 7.964-3.87 0-4.552 1.59-4.552 9.1s.683 9.102 4.55 9.102c3.642 0 4.552 1.593 4.552 7.964 0 7.054.683 7.964 5.69 7.964 5.233 0 5.688.91 5.688 9.103 0 7.51.683 9.102 4.55 9.102 3.642 0 4.552 1.593 4.552 7.964s.91 7.962 4.55 7.962 4.552 1.593 4.552 7.737c0 6.37.91 7.963 5.234 8.646 4.098.455 5.236 2.276 5.69 9.102.684 6.826 1.594 8.646 5.235 8.646s4.324-1.593 4.324-9.102.682-9.102 4.55-9.102c3.64 0 4.55-1.593 4.55-7.964 0-7.054.684-7.964 5.69-7.964s5.69-.91 5.69-7.964c0-6.372.91-7.964 4.55-7.964 3.87 0 4.55-1.593 4.55-9.102s.684-9.102 4.55-9.102c3.643 0 4.553-1.593 4.553-7.964 0-7.054.683-7.964 5.916-7.964s5.69-.683 5.005-8.647c-.455-6.827-1.593-8.647-5.69-9.102-4.323-.683-5.233-2.276-5.233-8.647 0-6.144-.91-7.737-4.55-7.737s-4.55-1.593-4.55-7.964-.91-7.964-4.325-7.964c-3.64 0-4.55-1.82-5.234-8.647-.454-6.827-1.592-8.647-5.688-9.102-4.324-.683-5.234-2.276-5.234-8.647V0H38.687v7.964zM59.167 42.1c0 6.37.91 7.963 4.324 7.963 3.643 0 4.553 1.82 5.236 8.42.455 7.054 1.593 8.875 5.916 9.33 4.097.683 5.007 2.276 5.007 8.647 0 6.827-.684 7.737-5.69 7.737s-5.69.91-5.69 7.964c0 6.374-.91 7.966-4.55 7.966-3.87 0-4.55 1.593-4.55 9.102s-.685 9.102-4.553 9.102-4.55-1.594-4.55-9.103c0-8.192-.456-9.102-5.69-9.102-5.006 0-5.69-.91-5.69-7.964 0-6.37-.91-7.962-4.55-7.962s-4.55-1.593-4.55-7.964.91-7.964 4.55-7.964c3.868 0 4.55-1.594 4.55-9.103 0-8.192.684-9.102 5.69-9.102s5.69-.91 5.69-7.964c0-6.37.91-7.962 4.55-7.962s4.55 1.593 4.55 7.964zM159.292 7.737c0 6.372-.91 7.964-5.006 8.647-4.324.455-5.46 2.276-5.916 9.102-.683 6.827-1.593 8.647-5.234 8.647-3.413 0-4.324 1.593-4.324 7.964s-.91 7.964-4.55 7.964-4.552 1.594-4.552 7.738c0 6.37-.91 7.963-5.006 8.646-4.324.455-5.46 2.276-5.916 9.102-.683 7.964-.228 8.647 5.006 8.647s5.916.91 5.916 7.964c0 6.37.91 7.963 4.55 7.963 3.87 0 4.552 1.593 4.552 9.102s.683 9.102 4.55 9.102c3.642 0 4.552 1.593 4.552 7.964 0 7.055.683 7.965 5.69 7.965s5.688.91 5.688 7.964c0 6.37.91 7.963 4.55 7.963 3.87 0 4.552 1.593 4.552 9.102s.683 9.102 4.324 9.102c3.64 0 4.55-1.82 5.234-8.647.455-6.827 1.593-8.647 5.916-9.102 4.096-.683 5.006-2.276 5.006-8.647 0-6.143.91-7.736 4.55-7.736s4.552-1.593 4.552-7.964.91-7.964 4.55-7.964c3.87 0 4.552-1.593 4.552-9.102 0-8.192.683-9.102 5.69-9.102s5.688-.91 5.688-7.964c0-6.372.91-7.964 4.55-7.964s4.552-1.593 4.552-8.192c0-6.144-1.138-8.42-4.55-9.33s-4.552-3.186-4.552-8.875c0-6.827-.683-7.737-5.69-7.737s-5.688-.91-5.688-7.964c0-6.372-.91-7.964-4.55-7.964-3.87 0-4.552-1.593-4.552-9.102s-.683-9.102-4.55-9.102c-3.642 0-4.552-1.593-4.552-7.964V0h-29.582v7.737zm18.204 34.36c0 7.055.683 7.965 5.69 7.965 5.233 0 5.688.91 5.688 9.102 0 7.51.683 9.102 4.55 9.102 3.642 0 4.552 1.593 4.552 7.964s-.91 7.965-4.55 7.965-4.552 1.593-4.552 7.964c0 7.052-.683 7.962-5.69 7.962s-5.688.91-5.688 9.102c0 7.51-.683 9.102-4.55 9.102s-4.552-1.593-4.552-9.102-.683-9.102-4.55-9.102c-3.642 0-4.552-1.593-4.552-7.964 0-7.055-.683-7.965-5.69-7.965s-5.688-.91-5.688-7.737c0-6.372.91-7.964 5.234-8.647 4.096-.455 5.234-2.276 5.69-9.33.682-6.6 1.592-8.42 5.233-8.42 3.415 0 4.326-1.593 4.326-7.964s.91-7.964 4.55-7.964 4.552 1.593 4.552 7.964zM20.483 159.29c0 8.192-.455 9.102-5.69 9.102-5.005 0-5.688.91-5.688 7.964 0 6.372-.91 7.964-4.55 7.964-3.87 0-4.552 1.593-4.552 9.102s.683 9.102 4.55 9.102c3.642 0 4.552 1.593 4.552 7.964 0 7.054.683 7.964 5.69 7.964s5.688.91 5.688 7.964c0 6.372.91 7.964 4.55 7.964s4.552-1.593 4.552-7.964.91-7.964 4.55-7.964 4.552-1.593 4.552-7.737c0-6.372.91-7.964 5.234-8.647 4.098-.455 5.236-2.276 5.69-9.33.684-7.737.23-8.42-5.005-8.42s-5.916-.91-5.916-7.964c0-6.372-.91-7.964-4.55-7.964-3.87 0-4.553-1.593-4.553-9.102s-.683-9.102-4.55-9.102-4.552 1.593-4.552 9.102zm59.164 0c0 8.192-.455 9.102-5.69 9.102-5.005 0-5.688.91-5.688 7.964 0 6.372-.91 7.964-4.553 7.964s-4.55 1.593-4.55 8.192c0 6.144 1.137 8.42 4.55 9.33s4.55 3.186 4.55 8.875c0 6.827.684 7.737 5.69 7.737s5.69.91 5.69 7.964c0 6.372.91 7.964 4.55 7.964s4.55-1.593 4.55-7.964.91-7.964 4.552-7.964 4.55-1.593 4.55-7.737c0-6.372.91-7.964 5.234-8.647 4.096-.455 5.234-2.276 5.69-9.33.682-7.737.227-8.42-5.007-8.42s-5.916-.91-5.916-7.964c0-6.372-.91-7.964-4.55-7.964-3.87 0-4.55-1.593-4.55-9.102s-.684-9.102-4.55-9.102-4.553 1.593-4.553 9.102zm59.165 0c0 7.51-.683 9.102-4.55 9.102-3.642 0-4.552 1.593-4.552 7.964 0 7.054-.683 7.964-5.916 7.964s-5.69.683-5.006 8.42c.455 7.054 1.593 8.875 5.916 9.33 4.096.683 5.006 2.276 5.006 8.647 0 6.144.91 7.737 4.55 7.737s4.552 1.593 4.552 7.964.91 7.964 4.55 7.964 4.552-1.593 4.552-7.964c0-7.054.683-7.964 5.69-7.964s5.688-.91 5.688-7.737c0-5.69 1.138-7.964 4.55-8.875s4.552-3.186 4.552-9.33c0-6.6-.91-8.192-4.55-8.192s-4.552-1.593-4.552-7.964c0-7.054-.683-7.964-5.69-7.964s-5.688-.91-5.688-9.102c0-7.51-.683-9.102-4.55-9.102s-4.552 1.593-4.552 9.102zm59.164 0c0 7.51-.683 9.102-4.55 9.102-3.642 0-4.552 1.593-4.552 7.964 0 7.054-.683 7.964-5.916 7.964s-5.69.683-5.006 8.42c.455 7.054 1.593 8.875 5.916 9.33 4.096.683 5.006 2.276 5.006 8.647 0 6.144.91 7.737 4.55 7.737s4.552 1.593 4.552 7.964.91 7.964 4.55 7.964 4.552-1.593 4.552-7.964c0-7.054.683-7.964 5.69-7.964s5.688-.91 5.688-7.964c0-6.372.91-7.964 4.55-7.964 3.87 0 4.552-1.593 4.552-9.102s-.683-9.102-4.55-9.102c-3.642 0-4.552-1.593-4.552-7.964 0-7.054-.683-7.964-5.69-7.964s-5.688-.91-5.688-9.102c0-7.51-.683-9.102-4.55-9.102s-4.552 1.593-4.552 9.102z"/><path d="M50.065 226.19c0 6.373-.91 7.965-5.006 8.648-4.326.455-5.463 2.276-5.918 9.102-.683 6.827-1.593 8.647-5.234 8.647-3.414 0-4.325 1.593-4.325 7.964s-.91 7.966-4.55 7.966-4.552 1.593-4.552 7.737c0 6.372-.91 7.964-5.005 8.647-4.324.454-5.46 2.275-5.916 9.1-.683 6.828-1.593 8.648-5.234 8.648-3.868 0-4.324 1.593-4.324 17.067s.455 17.067 4.55 17.067c3.642 0 4.552 1.593 4.552 7.964 0 7.054.683 7.964 5.69 7.964s5.688.91 5.688 7.964c0 6.372.91 7.964 4.55 7.964 3.87 0 4.552 1.593 4.552 9.102s.683 9.102 4.324 9.102c3.64 0 4.55-1.82 5.233-8.647.456-6.827 1.594-8.647 5.917-9.102 4.095-.683 5.005-2.276 5.005-8.647 0-6.144.91-7.737 4.55-7.737s4.552-1.595 4.552-7.74c0-7.736-.228-7.963-9.557-8.646-9.557-.683-9.785-.91-10.468-9.33l-.684-8.42h29.58l.684 8.42c.455 7.054 1.593 8.875 5.916 9.33 4.096.683 5.006 2.276 5.006 8.647 0 6.145.91 7.738 4.55 7.738s4.552 1.592 4.552 7.963-.91 7.965-4.55 7.965c-3.87 0-4.552 1.593-4.552 9.102 0 8.19-.455 9.1-5.69 9.1-5.005 0-5.688.91-5.688 7.965 0 6.372-.91 7.964-4.55 7.964s-4.552 1.592-4.552 7.963-.91 7.963-4.55 7.963c-3.87 0-4.552 1.593-4.552 9.102 0 8.19-.455 9.1-5.69 9.1-5.005 0-5.688.91-5.688 7.965 0 6.372-.91 7.964-4.55 7.964s-4.552-1.594-4.552-7.965-.91-7.965-4.324-7.965c-3.64 0-4.55-1.82-5.234-8.646-.455-6.828-1.593-8.648-5.69-9.103-4.323-.683-5.233-2.276-5.233-8.647 0-6.144-.91-7.737-4.55-7.737-4.326 0-4.553 1.593-4.553 25.03 0 23.212.23 25.032 4.325 25.032 3.64 0 4.55 1.82 5.234 8.42.454 7.054 1.592 8.875 5.915 9.33 4.097.683 5.007 2.276 5.007 8.647 0 6.144.91 7.737 4.552 7.737s4.55 1.592 4.55 7.963.91 7.964 4.55 7.964c3.87 0 4.55 1.593 4.55 9.102s-.68 9.1-4.55 9.1c-3.64 0-4.55 1.594-4.55 7.965s-.91 7.964-4.55 7.964-4.55 1.592-4.55 7.736c0 6.373-.91 7.965-5.236 8.648-4.096.455-5.234 2.276-5.69 9.102-.682 6.827-1.592 8.647-5.233 8.647-4.095 0-4.323 1.82-4.323 25.03 0 23.44.228 25.032 4.55 25.032 3.642 0 4.552-1.594 4.552-7.738 0-6.372.91-7.964 5.233-8.647 4.096-.455 5.234-2.276 5.69-9.33.682-6.6 1.592-8.42 5.233-8.42 3.412 0 4.323-1.593 4.323-7.964s.91-7.963 4.55-7.963 4.55 1.593 4.55 7.964c0 7.055.684 7.965 5.69 7.965 5.234 0 5.69.91 5.69 9.102 0 7.51.682 9.102 4.55 9.102 3.64 0 4.55 1.592 4.55 7.963s.91 7.963 4.55 7.963 4.553 1.593 4.553 7.964c0 7.055.683 7.965 5.69 7.965 5.233 0 5.688.91 5.688 9.102 0 7.51.684 9.102 4.55 9.102 3.643 0 4.553 1.592 4.553 7.963s-.91 7.963-4.55 7.963-4.552 1.593-4.552 7.737c0 6.372-.91 7.964-5.005 8.647-4.325.456-5.462 2.277-5.917 9.103l-.683 8.647H38.458l.683-8.647c.685-8.192.91-8.42 10.47-9.102 9.33-.682 9.557-.91 9.557-8.646 0-6.144-.91-7.737-4.55-7.737s-4.552-1.593-4.552-7.737c0-6.372-.91-7.964-5.006-8.647-4.325-.454-5.46-2.275-5.917-9.33-.683-6.6-1.593-8.42-5.234-8.42s-4.325 1.594-4.325 9.103-.683 9.102-4.55 9.102c-3.642 0-4.552 1.593-4.552 7.964 0 7.054-.683 7.964-5.69 7.964s-5.688.91-5.688 7.964c0 6.37-.91 7.963-4.55 7.963-4.1.003-4.555 1.596-4.555 17.07s.455 17.067 4.324 17.067c3.64 0 4.55 1.82 5.234 8.42.455 7.054 1.593 8.875 5.916 9.33 4.096.683 5.006 2.276 5.006 8.647 0 6.144.91 7.737 4.55 7.737s4.552 1.595 4.552 7.966.91 7.964 4.324 7.964c3.64 0 4.55 1.82 5.234 8.42.455 7.053 1.593 8.874 5.916 9.33 4.096.682 5.006 2.275 5.006 8.646 0 6.144.91 7.737 4.55 7.737s4.552-1.593 4.552-7.964.91-7.966 4.324-7.966c3.64 0 4.55-1.82 5.234-8.647.455-6.827 1.593-8.647 5.916-9.102 4.096-.683 5.006-2.276 5.006-8.647 0-6.145.91-7.738 4.55-7.738s4.552-1.593 4.552-7.964.91-7.964 4.324-7.964c3.64 0 4.55-1.82 5.234-8.647.455-6.827 1.593-8.647 5.916-9.102 4.096-.683 5.006-2.276 5.006-8.647 0-6.144.91-7.737 4.55-7.737s4.552 1.593 4.552 7.737c0 6.372.91 7.964 5.234 8.647 4.096.455 5.234 2.276 5.69 9.102.682 6.827 1.592 8.647 5.233 8.647 3.413 0 4.324 1.593 4.324 7.964s.91 7.964 4.55 7.964 4.55 1.594 4.55 7.738c0 6.37.91 7.963 5.236 8.646 4.096.455 5.234 2.276 5.69 9.102.682 6.827 1.592 8.647 5.233 8.647 3.412 0 4.323 1.593 4.323 7.964s.91 7.963 4.55 7.963 4.552-1.593 4.552-7.737c0-6.372.91-7.964 5.234-8.647 4.095-.456 5.233-2.277 5.69-9.33.68-6.6 1.59-8.42 5.232-8.42 3.413 0 4.324-1.594 4.324-7.965s.91-7.963 4.55-7.963 4.552-1.592 4.552-7.736c0-6.37.91-7.963 5.233-8.646 4.097-.455 5.235-2.276 5.69-9.33.683-6.6 1.593-8.42 5.234-8.42 3.868 0 4.324-1.593 4.324-17.067s-.455-17.067-4.55-17.067c-3.642 0-4.552-1.593-4.552-7.964 0-7.055-.683-7.965-5.69-7.965s-5.688-.91-5.688-7.963c0-6.37-.91-7.963-4.55-7.963-3.87 0-4.552-1.593-4.552-9.102s-.683-9.102-4.324-9.102c-3.64 0-4.55 1.82-5.234 8.42-.455 7.054-1.593 8.875-5.69 9.33-4.323.683-5.233 2.276-5.233 8.647 0 6.144-.91 7.737-4.55 7.737s-4.552 1.593-4.552 7.737c0 7.738.228 7.965 9.785 8.648 9.33.684 9.557.91 9.557 8.648v7.964l-28.217 1.365-.683-8.647c-.455-7.054-1.593-8.875-5.69-9.33-4.323-.683-5.233-2.276-5.233-8.647 0-6.143-.91-7.736-4.55-7.736s-4.552-1.593-4.552-7.964.91-7.964 4.55-7.964c3.87 0 4.552-1.593 4.552-9.102 0-8.192.683-9.102 5.69-9.102s5.688-.91 5.688-7.964c0-6.372.91-7.964 4.55-7.964s4.552-1.593 4.552-7.964.91-7.964 4.55-7.964c3.87 0 4.552-1.593 4.552-9.102 0-8.192.683-9.102 5.69-9.102s5.688-.91 5.688-7.964c0-6.372.91-7.964 4.55-7.964s4.552 1.593 4.552 7.964.91 7.964 4.324 7.964c3.64 0 4.55 1.82 5.234 8.42.455 7.054 1.593 8.875 5.916 9.33 4.096.683 5.006 2.276 5.006 8.647 0 6.144.91 7.737 4.55 7.737 4.325 0 4.552-1.593 4.552-25.03 0-23.212-.228-25.032-4.324-25.032-3.64 0-4.55-1.82-5.234-8.647-.455-6.828-1.593-8.648-5.69-9.103-4.323-.683-5.233-2.276-5.233-8.647 0-6.144-.91-7.737-4.55-7.737s-4.552-1.592-4.552-7.963-.91-7.965-4.55-7.965c-3.87 0-4.552-1.593-4.552-9.102s.684-9.102 4.55-9.102c3.643 0 4.553-1.592 4.553-7.963s.91-7.964 4.55-7.964 4.552-1.592 4.552-7.736c0-6.372.91-7.964 5.234-8.647 4.096-.456 5.234-2.277 5.69-9.33.682-6.6 1.592-8.42 5.233-8.42 4.096 0 4.324-1.82 4.324-25.032 0-23.438-.228-25.03-4.55-25.03-3.642 0-4.552 1.592-4.552 7.736 0 6.373-.91 7.965-5.006 8.648-4.325.456-5.46 2.277-5.917 9.103-.683 6.828-1.593 8.648-5.234 8.648-3.414 0-4.325 1.593-4.325 7.964s-.91 7.964-4.55 7.964-4.552-1.593-4.552-7.964c0-7.054-.683-7.964-5.69-7.964s-5.688-.91-5.688-9.102c0-7.51-.683-9.102-4.55-9.102-3.642 0-4.552-1.593-4.552-7.964s-.91-7.964-4.55-7.964-4.552-1.593-4.552-7.964c0-7.054-.682-7.964-5.69-7.964s-5.687-.91-5.687-9.102c0-7.51-.683-9.102-4.55-9.102-3.642 0-4.552-1.593-4.552-7.964s.91-7.964 4.55-7.964 4.553-1.593 4.553-7.737c0-6.37.91-7.964 5.234-8.647 4.096-.455 5.234-2.276 5.69-9.33l.682-8.42h29.58l-.682 8.42c-.684 8.42-.91 8.647-10.24 9.33-9.558.683-9.786.91-9.786 8.647 0 6.145.91 7.738 4.55 7.738s4.552 1.593 4.552 7.737c0 6.372.91 7.964 5.234 8.647 4.096.455 5.234 2.276 5.69 9.102.682 6.827 1.592 8.647 5.233 8.647s4.325-1.59 4.325-9.1.683-9.102 4.55-9.102c3.642 0 4.552-1.593 4.552-7.964 0-7.054.682-7.964 5.688-7.964s5.69-.91 5.69-7.965c0-6.372.91-7.964 4.55-7.964 4.096 0 4.55-1.59 4.55-17.065s-.454-17.067-4.323-17.067c-3.64 0-4.55-1.82-5.234-8.647-.454-6.826-1.592-8.646-5.688-9.1-4.324-.684-5.234-2.277-5.234-8.648 0-6.143-.91-7.736-4.55-7.736s-4.552-1.593-4.552-7.964-.91-7.964-4.324-7.964c-3.64 0-4.55-1.82-5.234-8.647-.455-6.827-1.593-8.647-5.69-9.102-4.323-.683-5.233-2.276-5.233-8.647 0-6.143-.91-7.736-4.55-7.736s-4.552 1.593-4.552 7.964-.91 7.964-4.323 7.964c-3.642 0-4.552 1.82-5.235 8.42-.455 7.055-1.593 8.876-5.69 9.33-4.323.684-5.233 2.277-5.233 8.648 0 6.144-.91 7.737-4.55 7.737s-4.553 1.593-4.553 7.964-.91 7.964-4.324 7.964c-3.64 0-4.55 1.82-5.234 8.42-.456 7.054-1.594 8.875-5.69 9.33-4.324.683-5.234 2.276-5.234 8.647 0 6.145-.91 7.738-4.552 7.738s-4.55-1.593-4.55-7.737c0-6.37-.91-7.963-5.007-8.646-4.323-.455-5.46-2.276-5.915-9.33-.683-6.6-1.593-8.42-5.234-8.42-3.412 0-4.323-1.593-4.323-7.964s-.91-7.965-4.55-7.965-4.552-1.593-4.552-7.737c0-6.372-.91-7.964-5.006-8.647-4.325-.453-5.462-2.274-5.917-9.33-.683-6.597-1.593-8.42-5.234-8.42-3.414 0-4.325-1.59-4.325-7.962s-.91-7.964-4.55-7.964-4.55 1.593-4.55 7.737zm68.267 168.393c0 6.372.91 7.964 5.234 8.647 3.868.455 5.234 2.503 5.69 7.737.454 5.006 2.047 7.737 5.233 8.42 3.184.91 4.322 3.186 4.322 9.33 0 6.6.91 8.192 4.55 8.192s4.552 1.59 4.552 7.735c0 6.372.91 7.964 5.234 8.647 4.095.455 5.233 2.276 5.688 9.102.683 6.827 1.593 8.647 5.234 8.647 4.096 0 4.324 2.05 4.324 40.96s-.228 40.96-4.324 40.96c-3.64 0-4.55 1.82-5.234 8.42-.455 7.055-1.593 8.876-5.69 9.33-4.323.684-5.233 2.277-5.233 8.648 0 6.143-.91 7.736-4.55 7.736s-4.552 1.593-4.552 8.192c0 6.144-1.137 8.42-4.323 9.33-3.187.683-4.78 3.413-5.235 8.42-.455 5.234-1.82 7.282-5.69 7.737-4.323.683-5.233 2.276-5.233 8.647 0 6.144-.91 7.737-4.55 7.737s-4.553-1.594-4.553-7.738c0-6.373-.91-7.965-5.006-8.648-4.095-.455-5.46-2.503-5.915-7.737-.455-5.006-2.048-7.737-5.234-8.42-3.185-.91-4.323-3.186-4.323-9.33 0-6.6-.91-8.192-4.55-8.192s-4.552-1.593-4.552-7.737c0-6.373-.91-7.965-5.006-8.648-4.325-.455-5.46-2.276-5.917-9.33-.683-6.6-1.593-8.42-5.234-8.42-4.097 0-4.325-2.048-4.325-40.96s.228-40.96 4.324-40.96c3.64 0 4.55-1.82 5.233-8.647.455-6.826 1.593-8.646 5.916-9.1 4.095-.684 5.005-2.277 5.005-8.648 0-6.144.91-7.737 4.55-7.737 3.87 0 4.552-1.594 4.552-9.103s.683-9.102 4.55-9.102c3.642 0 4.552-1.593 4.552-7.964 0-7.053.682-7.963 5.69-7.963s5.687-.91 5.687-7.964c0-6.373.91-7.965 4.55-7.965s4.552 1.592 4.552 7.736z"/><path d="M88.75 469.904c0 15.474.455 17.067 4.55 17.067 3.642 0 4.552 1.595 4.552 7.966 0 7.054.683 7.964 5.69 7.964 5.233 0 5.688.91 5.688 9.1s-.455 9.103-5.69 9.103c-5.005 0-5.688.91-5.688 7.964 0 6.372-.91 7.964-4.55 7.964-4.097 0-4.552 1.595-4.552 17.07s.455 17.066 4.324 17.066c3.64 0 4.55-1.82 5.234-8.647.455-6.828 1.593-8.648 5.916-9.103 4.096-.683 5.006-2.276 5.006-8.647 0-6.145.91-7.738 4.55-7.738s4.552 1.593 4.552 7.737c0 6.37.91 7.962 5.234 8.645 4.096.455 5.234 2.276 5.69 9.102.682 6.827 1.592 8.647 5.233 8.647 3.866 0 4.322-1.593 4.322-17.067s-.455-17.067-4.55-17.067c-3.642 0-4.552-1.592-4.552-7.963 0-7.054-.682-7.964-5.688-7.964s-5.69-.91-5.69-9.102.684-9.1 5.69-9.1 5.69-.91 5.69-7.964c0-6.372.91-7.964 4.55-7.964 4.096 0 4.55-1.592 4.55-17.066s-.454-17.067-4.323-17.067c-3.643 0-4.553 1.82-5.236 8.42-.455 7.053-1.593 8.874-5.69 9.33-4.323.682-5.233 2.275-5.233 8.646 0 6.144-.91 7.737-4.55 7.737s-4.55-1.592-4.55-7.736c0-6.372-.91-7.964-5.007-8.647-4.324-.455-5.46-2.276-5.916-9.33-.683-6.6-1.593-8.42-5.234-8.42-3.868 0-4.324 1.593-4.324 17.067zm-68.267 327.68c0 7.055-.683 7.965-5.69 7.965s-5.688.91-5.688 7.962c0 6.372-.91 7.964-4.55 7.964-3.87 0-4.552 1.593-4.552 9.102s.683 9.1 4.55 9.1c3.642 0 4.552 1.594 4.552 7.965 0 7.054.683 7.964 5.69 7.964 5.233 0 5.688.91 5.688 9.1 0 7.51.683 9.103 4.55 9.103s4.552-1.593 4.552-9.102.683-9.1 4.55-9.1c3.642 0 4.552-1.594 4.552-7.965 0-7.054.683-7.964 5.916-7.964s5.69-.683 5.006-8.647c-.457-6.827-1.595-8.647-5.69-9.102-4.325-.682-5.235-2.275-5.235-8.646 0-6.144-.91-7.737-4.55-7.737s-4.552-1.593-4.552-7.964-.91-7.964-4.55-7.964-4.552 1.592-4.552 7.963zm59.164 0c0 7.055-.683 7.965-5.69 7.965s-5.688.91-5.688 7.735c0 5.69-1.14 7.964-4.553 8.875s-4.55 3.187-4.55 9.33c0 6.6.91 8.193 4.55 8.193s4.55 1.593 4.55 7.964c0 7.054.684 7.964 5.69 7.964 5.234 0 5.69.91 5.69 9.104 0 7.51.682 9.102 4.55 9.102s4.55-1.593 4.55-9.102.684-9.102 4.552-9.102c3.64 0 4.55-1.592 4.55-7.963 0-7.055.683-7.965 5.916-7.965s5.69-.683 5.006-8.647c-.455-6.827-1.593-8.647-5.69-9.102-4.323-.683-5.233-2.276-5.233-8.647 0-6.145-.91-7.738-4.55-7.738s-4.553-1.593-4.553-7.964-.91-7.964-4.55-7.964-4.552 1.593-4.552 7.964zm59.165 0c0 6.373-.91 7.965-4.55 7.965s-4.552 1.59-4.552 7.735c0 6.372-.91 7.964-5.006 8.647-4.324.455-5.46 2.276-5.916 9.102-.683 7.964-.228 8.647 5.006 8.647s5.916.91 5.916 7.965c0 6.372.91 7.964 4.55 7.964 3.87 0 4.552 1.592 4.552 9.1s.683 9.103 4.55 9.103 4.552-1.593 4.552-9.102c0-8.19.683-9.1 5.69-9.1s5.688-.91 5.688-7.965c0-6.372.91-7.964 4.55-7.964s4.552-1.592 4.552-8.19c0-6.145-1.138-8.42-4.55-9.33s-4.552-3.187-4.552-8.876c0-6.827-.683-7.737-5.69-7.737s-5.688-.91-5.688-7.964c0-6.372-.91-7.964-4.55-7.964s-4.552 1.592-4.552 7.963zm59.164 0c0 6.373-.91 7.965-4.55 7.965s-4.552 1.59-4.552 7.735c0 6.372-.91 7.964-5.006 8.647-4.324.455-5.46 2.276-5.916 9.102-.683 7.964-.228 8.647 5.006 8.647s5.916.91 5.916 7.965c0 6.372.91 7.964 4.55 7.964 3.87 0 4.552 1.592 4.552 9.1s.683 9.103 4.55 9.103 4.552-1.593 4.552-9.102c0-8.19.683-9.1 5.69-9.1s5.688-.91 5.688-7.965c0-6.372.91-7.964 4.55-7.964 3.87 0 4.552-1.592 4.552-9.1s-.683-9.103-4.55-9.103c-3.642 0-4.552-1.593-4.552-7.964 0-7.054-.683-7.964-5.69-7.964s-5.688-.91-5.688-7.965c0-6.372-.91-7.964-4.55-7.964s-4.552 1.594-4.552 7.965zM49.61 864.032c-.455 7.055-1.593 8.876-5.69 9.33-4.323.684-5.233 2.277-5.233 8.648 0 6.144-.91 7.737-4.55 7.737s-4.552 1.593-4.552 7.964-.91 7.964-4.55 7.964c-3.87 0-4.552 1.593-4.552 9.102 0 8.192-.455 9.102-5.69 9.102-5.005 0-5.688.91-5.688 7.964 0 6.373-.91 7.965-4.55 7.965s-4.553 1.59-4.553 7.963.91 7.963 4.55 7.963c3.87 0 4.552 1.593 4.552 9.102 0 8.192.683 9.102 5.69 9.102s5.688.91 5.688 7.964c0 6.374.91 7.966 4.55 7.966 3.87 0 4.552 1.593 4.552 9.102s.683 9.102 4.55 9.102c3.642 0 4.552 1.592 4.552 7.963v7.964H68.27v-7.737c0-6.372.91-7.964 5.233-8.647 4.096-.455 5.234-2.276 5.69-9.33.682-6.6 1.592-8.42 5.233-8.42 3.413 0 4.324-1.593 4.324-7.964s.91-7.966 4.324-7.966c3.64 0 4.55-1.82 5.234-8.42.455-7.054 1.593-8.875 5.916-9.33 4.096-.683 5.006-2.276 5.006-8.647 0-6.827-.683-7.737-5.69-7.737s-5.688-.91-5.688-7.963c0-6.372-.91-7.964-4.55-7.964-3.87 0-4.552-1.593-4.552-9.102s-.683-9.1-4.55-9.1c-3.642 0-4.552-1.593-4.552-7.964 0-7.054-.683-7.964-5.69-7.964s-5.688-.91-5.688-7.963c0-6.373-.91-7.965-4.55-7.965-3.87 0-4.552-1.593-4.552-9.102s-.683-9.1-4.324-9.1c-3.64 0-4.55 1.82-5.234 8.42zm9.557 50.746c0 7.51.683 9.102 4.55 9.102 3.642 0 4.552 1.593 4.552 7.964 0 7.054.68 7.964 5.687 7.964s5.69.91 5.69 7.737c0 6.372-.91 7.964-5.007 8.647-4.323.455-5.46 2.276-5.915 9.102-.683 6.827-1.593 8.647-5.234 8.647-3.41 0-4.322 1.593-4.322 7.964s-.91 7.964-4.55 7.964-4.552-1.593-4.552-7.964c0-7.054-.683-7.964-5.69-7.964s-5.688-.91-5.688-9.103c0-7.51-.683-9.102-4.55-9.102-3.642 0-4.552-1.593-4.552-7.964s.91-7.962 4.55-7.962 4.552-1.593 4.552-7.964c0-7.054.683-7.964 5.69-7.964 5.233 0 5.688-.91 5.688-9.103 0-7.51.683-9.102 4.55-9.102s4.552 1.593 4.552 9.102zm109.227-50.062c0 7.51-.683 9.102-4.55 9.102-3.642 0-4.552 1.593-4.552 7.964 0 7.054-.683 7.964-5.69 7.964s-5.688.91-5.688 7.964c0 6.372-.91 7.964-4.55 7.964-3.87 0-4.552 1.593-4.552 9.102s-.683 9.102-4.55 9.102c-3.642 0-4.552 1.593-4.552 7.964 0 7.054-.683 7.964-5.69 7.964s-5.688.91-5.688 7.737c0 6.373.91 7.965 5.234 8.648 4.096.456 5.234 2.277 5.69 9.33.682 6.6 1.592 8.42 5.233 8.42 3.41 0 4.322 1.594 4.322 7.965s.91 7.964 4.324 7.964c3.64 0 4.55 1.82 5.234 8.42.456 7.053 1.594 8.874 5.917 9.33 4.096.682 5.006 2.275 5.006 8.646V1024h29.582v-7.964c0-6.372.91-7.964 4.55-7.964 3.87 0 4.552-1.593 4.552-9.102s.683-9.102 4.55-9.102c3.642 0 4.552-1.593 4.552-7.964 0-7.054.68-7.964 5.687-7.964 5.234 0 5.69-.91 5.69-9.102 0-7.51.682-9.102 4.55-9.102 3.64 0 4.55-1.593 4.55-7.964s-.91-7.964-4.55-7.964-4.55-1.593-4.55-7.964c0-7.054-.684-7.964-5.69-7.964s-5.69-.91-5.69-9.102c0-7.51-.682-9.102-4.55-9.102-3.64 0-4.55-1.593-4.55-7.964s-.91-7.964-4.552-7.964-4.55-1.593-4.55-7.737c0-6.37-.91-7.962-5.007-8.645-4.325-.455-5.462-2.276-5.917-9.33-.682-6.6-1.592-8.42-5.233-8.42s-4.325 1.593-4.325 9.102zm9.102 50.062c0 8.192.683 9.102 5.69 9.102s5.688.91 5.688 7.964c0 6.372.91 7.964 4.55 7.964s4.552 1.593 4.552 7.964-.91 7.964-4.55 7.964c-3.87 0-4.552 1.593-4.552 9.102 0 8.192-.455 9.102-5.69 9.102-5.005 0-5.688.91-5.688 7.964 0 6.372-.91 7.964-4.55 7.964s-4.552-1.593-4.552-7.964-.91-7.964-4.324-7.964c-3.64 0-4.55-1.82-5.234-8.647-.455-6.826-1.593-8.646-5.69-9.1-4.323-.684-5.233-2.277-5.233-8.648 0-6.827.683-7.737 5.69-7.737s5.688-.91 5.688-7.964c0-6.37.91-7.963 4.553-7.963 3.868 0 4.55-1.592 4.55-9.1s.684-9.103 4.552-9.103 4.55 1.593 4.55 9.102z"/></svg>