<svg xmlns="http://www.w3.org/2000/svg" width="1024" height="1024" viewBox="0 0 1024 1024"><path d="M483.89 42.667l-23.592 42.165-28.11 6.024c-145.57 29.616-272.063 137.537-321.255 273.57-8.03 22.085-17.067 52.203-20.078 67.764L84.83 460.3l-42.164 23.592C19.074 496.942 0 509.994 0 512.002s19.074 15.06 42.666 28.11l42.165 23.592 6.026 28.11c29.616 145.067 138.04 272.063 273.57 321.255 22.085 8.03 52.203 17.065 67.764 20.076l28.11 6.024 23.59 42.166c13.052 23.592 26.103 42.667 28.11 42.667s14.558-19.075 27.61-42.165l24.093-42.165 34.635-8.03c83.325-19.076 153.098-57.726 214.337-118.966s99.89-131.012 118.965-214.337l8.03-34.635 42.166-24.094c23.09-13.05 42.165-25.6 42.165-27.606s-19.073-15.06-42.665-28.11L939.17 460.3l-6.025-28.11c-29.616-145.066-138.04-272.062-273.57-321.254-22.085-8.03-52.203-17.067-67.764-20.078l-28.11-6.024-23.59-42.165C527.058 19.075 514.007 0 512 0s-15.06 19.075-28.11 42.667zm143.56 112.94c62.746 21.083 100.393 44.675 148.58 92.864 39.154 39.155 49.193 52.206 68.77 92.865 28.11 59.23 38.65 104.91 38.65 170.667S872.91 623.437 844.8 682.67c-19.576 40.66-29.616 54.212-68.77 93.365s-52.705 49.192-93.364 68.77c-59.23 28.11-104.91 38.65-170.667 38.65s-111.437-10.54-170.67-38.65c-40.66-19.577-53.71-29.617-92.862-68.77-48.69-49.192-72.283-86.84-93.868-151.09-10.04-30.62-11.545-44.674-11.545-112.94s1.506-82.323 11.545-112.942c21.584-64.752 44.674-101.897 93.867-150.587 48.69-48.69 87.842-73.286 148.077-92.36 47.184-14.558 50.698-15.06 128-13.052 56.22 1.005 76.8 3.515 102.902 12.55z"/></svg>