<svg xmlns="http://www.w3.org/2000/svg" width="1024" height="1024" viewBox="0 0 1024 1024"><path d="M503.735 19.718c-40.706 111.94-74.838 175.33-124.66 232.36-5.725 6.57-8.48 11.024-6.36 10.175 9.33-3.39 47.277-10.176 64.873-11.45l19.292-1.27-.424 198.016-.636 197.8-55.122 8.27c-52.153 7.844-55.122 8.055-57.666 4.45-1.484-2.12-2.756-7.63-2.756-12.51 0-12.51-5.725-56.605-11.872-93.282-15.9-92.86-50.246-216.673-73.143-264.16-9.114-18.87-12.507-28.198-11.447-31.378 1.696-5.725 3.816-5.725 26.5 1.91 26.926 8.904 28.41 8.48 14.842-5.512-14.63-14.84-46.217-39.01-70.598-53.637-37.526-22.684-86.923-42.19-128.9-51.092-24.17-5.09-27.35-5.09-27.35-.85 0 1.91 9.965 19.293 21.836 38.587 116.393 187.627 174.27 357.232 183.81 538.71 1.06 21.625 2.12 41.13 2.12 43.462 0 3.39 1.272 3.604 15.477 2.33 8.268-.85 43.885-6.15 78.866-11.872 34.98-5.936 71.022-11.236 80.138-11.872l16.325-1.27V1024H567.12V745.635l16.536 1.27c8.904.637 44.945 5.937 79.926 11.873 34.98 5.725 70.387 11.025 78.654 11.872l15.265 1.484 1.27-27.35c3.392-69.114 9.117-115.755 21.626-173.635 26.5-124.66 79.927-250.38 163.457-385.007 11.872-19.292 21.836-36.677 21.836-38.586 0-4.24-3.18-4.24-27.35.85-41.977 8.904-91.374 28.41-128.9 51.092-24.38 14.63-55.97 38.796-70.598 53.636-13.57 13.992-12.085 14.416 14.84 5.51 22.686-7.63 24.806-7.63 26.502-1.908 1.06 3.18-2.12 11.87-10.6 29.256-22.685 46.217-59.15 177.237-73.99 266.28-6.36 37.526-11.873 81.198-11.873 93.283 0 4.875-1.27 10.388-2.756 12.508-2.546 3.605-5.512 3.39-57.667-4.45l-55.12-8.27-.636-197.802-.424-198.016 19.293 1.27c17.596 1.272 55.546 8.057 64.873 11.45 2.12.85-.636-3.605-6.36-10.176-49.822-57.03-83.954-120.42-124.66-232.36-4.03-10.805-7.63-19.71-8.27-19.71s-4.24 8.904-8.268 19.715z"/></svg>