<svg xmlns="http://www.w3.org/2000/svg" width="1024" height="1024" viewBox="0 0 1024 1024"><path d="M508.38 65.625c-4.05 2.983-4.05 3.196-.426 7.03 3.196 3.623 3.622 9.802 3.622 54.546v50.5h12.784v-49.005l21.52 10.866c11.93 5.753 21.945 10.44 22.158 10.013.425-.425-4.475-7.67-10.866-15.98-6.393-8.524-11.506-15.767-11.506-16.407 0-.425 7.883-3.622 17.47-6.818l17.472-5.753-28.764-14.488c-20.88-10.44-27.486-14.7-24.716-15.766 5.113-2.13 4.475-8.947-1.065-10.44-7.883-1.917-13.423-1.49-17.684 1.706z"/><path d="M472.584 170.24c-11.293 3.836-11.93 4.9-5.327 10.654 8.31 7.245 26.42 10.228 54.97 9.163 20.882-.64 26.422-1.705 36.86-6.605 7.46-3.41 12.146-6.818 11.72-8.31-1.28-3.835-15.767-7.67-29.83-7.883l-12.145-.215-.64 6.818c-.64 6.818-1.065 7.03-10.653 7.67l-10.23.64v-15.128H494.1c-7.458.213-17.046 1.492-21.52 3.196z"/><path d="M564.842 184.516c-27.06 13.21-77.77 13.423-97.585.425-2.77-1.916-5.54-2.98-5.966-2.34-.423.424-1.916 6.392-3.194 13.422-2.343 14.064-9.375 37.075-14.276 46.663l-2.984 6.393 7.03-6.393c4.05-3.622 9.59-8.31 12.146-10.653l5.113-4.26 7.883 9.374 8.096 9.375 8.096-8.736c4.26-4.9 9.163-8.948 10.44-8.948 1.492 0 5.753 3.41 9.8 7.458l7.246 7.458 17.684-17.257 17.898 20.028 16.62-16.192 10.227 7.46c5.54 4.047 11.293 7.882 12.784 8.735s-1.28-6.393-5.755-16.193c-4.9-10.44-9.588-24.717-11.08-33.665l-2.77-15.766-7.458 3.62z"/><path d="M507.314 267.4v23.65l-8.736-7.882c-13.636-12.358-25.57-16.62-48.58-17.684-32.387-1.492-50.07 4.048-80.965 24.93-40.27 27.27-59.02 33.45-96.733 31.533l-25.142-1.278 4.9 8.52c6.818 12.36 21.094 24.717 30.256 26.635 16.406 2.983 31.107-.213 56.676-11.93 15.128-7.032 28.34-11.72 34.942-12.36 12.784-1.277 11.93 2.558-1.065 4.69-4.9.85-20.028 6.604-33.664 12.783s-28.764 12.357-33.664 13.848c-10.44 2.77-10.868 3.835-4.9 11.506 10.65 13.636 30.467 12.57 53.69-2.557 20.03-13.21 25.78-15.98 40.91-20.454 16.62-4.9 20.454-1.064 4.048 4.05-16.194 5.113-30.683 12.57-46.876 24.076-14.488 10.44-15.128 12.784-3.835 19.816 13.848 8.523 30.893 4.688 49.857-11.506 17.258-14.488 35.157-25.354 40.057-24.29 2.984.64 1.706 1.92-4.687 5.328-10.013 5.327-28.34 18.75-39.844 29.404-7.03 6.604-7.884 8.31-5.754 11.93 3.834 7.458 15.98 11.08 27.058 8.31 15.766-3.835 24.076-9.375 45.81-30.042 21.306-20.028 27.912-23.864 16.406-9.375-11.08 14.064-7.245 26.42 7.458 23.65 8.523-1.703 8.948-.423 4.048 10.23-4.9 10.013-2.557 20.668 5.966 27.91l6.605 5.755 5.114-6.605c6.394-8.096 11.72-8.31 17.47-1.065 5.33 6.818 11.508 5.327 17.473-4.048 5.113-8.737 5.113-15.767-.213-24.504-5.753-9.163-5.54-9.588 3.41-7.883 5.753 1.065 8.736.425 11.718-2.343 5.754-5.113 5.114-11.718-2.342-21.094-11.93-14.915-6.393-12.358 13.423 6.605 22.8 21.734 37.287 30.47 53.27 32.175 10.01 1.065 11.93.425 18.11-4.688 3.834-3.196 6.817-6.818 6.604-8.096 0-4.26-43.68-36.86-53.693-40.48-1.49-.427-1.704-1.707-.85-2.77 2.556-2.77 21.732 8.094 39.843 22.584 18.324 14.7 26.42 17.898 39.844 16.406 9.163-1.064 19.816-8.095 19.816-12.997 0-2.557-27.7-21.733-39.844-27.7-3.836-1.917-11.507-4.687-17.26-6.177-11.08-2.77-13.85-7.245-3.834-6.178 8.31.64 40.057 15.766 50.07 23.65 14.915 11.72 37.074 12.785 48.366 2.13 7.883-7.244 6.605-11.292-4.475-14.275-5.113-1.278-19.176-6.818-30.894-12.145s-25.994-10.866-31.534-12.145c-14.7-3.622-16.407-6.818-2.984-5.327 7.245.852 20.24 5.54 35.157 12.358 37.712 17.47 56.888 16.833 75.212-2.77 7.245-7.458 14.7-20.668 12.998-22.372-.64-.64-6.818.213-13.636 1.492-18.324 3.835-44.318 1.278-64.133-6.393-9.163-3.41-26.634-12.996-38.992-21.092-26.634-17.684-37.712-22.372-60.51-25.78-28.125-4.262-52.842 1.277-67.33 14.7l-8.31 8.096v-22.16c0-11.93-.64-21.945-1.492-21.945-1.064 0-3.62 1.49-5.752 3.195-3.622 2.77-4.688 2.77-9.163 0l-4.9-3.196v23.65z"/><path d="M747.654 392.257c12.784 25.142 21.733 68.394 21.733 105.68 0 79.475-24.93 139.986-79.047 192.4-32.6 31.535-65.838 49.86-116.334 63.922-49.218 13.847-92.045 11.93-143.395-5.968-100.78-35.157-171.517-132.315-176.205-241.618-1.705-37.074 6.605-81.392 20.028-108.45l3.196-6.394-6.82 6.394c-3.62 3.41-11.08 12.998-16.405 20.88-38.992 58.594-47.727 153.835-21.733 238.85 28.125 91.83 98.012 163.208 188.78 192.825 33.876 10.864 55.822 13.634 99.29 12.356 41.334-1.278 62.64-4.688 94.174-15.128C686.72 823.93 749.148 766.402 783.24 692.68c39.205-84.8 37.712-190.482-3.622-263.137-12.358-21.306-26.207-40.057-31.96-43.253-4.048-2.13-4.048-1.918 0 5.966zm-744.67 1.705c-2.984 8.096 5.54 65.624 13.635 91.62 7.03 21.946 9.373 25.354 37.925 53.268 18.75 18.324 24.503 25.354 26.42 31.96 1.493 5.327 2.344 31.32 2.344 68.608v59.87l14.7 5.754c12.784 5.113 17.046 5.753 30.682 4.9 9.163-.64 19.176-2.77 24.076-5.113l8.31-4.05.64-30.894c.424-17.046 0-57.315-.64-89.488l-1.493-58.594-14.915-13.85c-23.437-21.732-38.14-36.434-48.793-48.58-7.246-8.31-11.08-11.08-15.555-11.08-9.588 0-9.375 5.754 1.705 26.208 9.588 17.684 16.193 36.86 16.193 46.235 0 5.965-1.492 5.326-10.44-3.623-4.26-4.26-14.915-11.718-23.65-16.62-13.637-7.67-16.407-10.227-18.752-17.257-1.704-4.688-4.474-12.358-6.177-17.47-1.704-4.9-6.392-13.85-10.44-19.603-5.965-8.736-7.244-12.358-7.244-22.16 0-13.422-2.557-21.518-8.948-28.55-5.327-5.54-7.67-5.966-9.588-1.492zm1012.07 1.49c-6.605 7.03-9.163 15.13-9.163 28.55 0 9.803-1.276 13.425-7.243 22.16-4.048 5.754-8.736 14.7-10.44 19.603-1.705 5.113-4.475 12.784-6.178 17.47-2.344 7.032-5.114 9.59-18.75 17.26-8.738 4.9-19.39 12.357-23.653 16.618-8.948 8.948-10.44 9.588-10.44 3.622 0-9.375 6.605-28.55 16.193-46.235 11.08-20.454 11.292-26.207 1.704-26.207-4.475 0-8.31 2.77-15.554 11.08-5.327 6.178-16.406 17.47-24.29 25.142-8.095 7.67-20.24 19.176-27.058 25.57L867.824 521.8l-1.492 54.333c-.64 29.83-1.065 70.1-.64 89.488l.64 35.158 8.31 4.048c4.9 2.343 14.915 4.475 24.076 5.113 13.636.852 17.898.213 30.682-4.9l14.7-5.753v-59.87c0-36.86.853-63.282 2.344-68.61 1.918-6.604 7.67-13.635 26.42-31.96 13.212-12.997 25.995-26.42 28.34-30.04 9.588-14.064 21.52-67.117 22.372-99.077.425-18.962-1.278-21.945-8.523-14.275z"/><path d="M23.864 394.815c-2.13 1.278-2.557 3.835-1.492 7.883.852 3.41 2.343 12.358 3.196 20.028 1.278 10.866 3.196 16.406 9.163 25.142 4.263 6.393 9.377 17.684 11.508 25.354 3.41 12.784 4.688 14.488 13.21 19.602 5.328 2.983 15.13 9.163 21.734 13.423l12.36 7.67-1.92-6.393c-2.342-8.31-9.374-15.98-19.388-21.094-4.688-2.343-8.096-5.753-8.096-7.883 0-5.113-11.93-28.124-17.898-34.517-3.835-4.048-5.327-8.948-6.393-20.24-1.492-14.49-6.605-28.978-10.866-30.257-1.065-.213-3.41.213-5.113 1.278zm970.522 2.768c-4.048 6.178-7.458 21.52-7.67 32.812 0 6.393-1.278 10.013-5.113 13.423-5.54 5.327-18.324 29.617-18.324 35.157 0 1.705-3.624 5.113-7.885 7.458-10.228 5.113-17.258 12.784-19.602 21.094l-1.918 6.393 12.358-7.67c6.605-4.26 16.406-10.44 21.733-13.423 8.736-5.113 9.8-6.818 13.21-20.028 2.344-7.67 7.67-19.818 12.146-26.636 6.818-10.013 8.31-14.063 8.31-22.586 0-5.54 1.065-13.212 2.557-17.047 1.917-5.54 1.917-7.67-.214-10.227-3.835-4.688-5.966-4.26-9.588 1.278z"/><path d="M41.975 401.206c-.852 1.065-.425 6.178.852 11.293 1.065 5.11 2.13 12.356 2.13 16.404 0 4.475 2.13 9.375 5.753 13.85 5.54 6.392 17.684 30.04 17.684 34.303 0 1.065 4.048 4.475 8.948 7.245l8.948 5.113-4.9-7.245c-2.557-4.047-8.523-15.127-12.998-24.715-6.605-13.636-8.523-20.24-8.523-28.764 0-7.67-1.494-14.06-4.9-19.814-4.69-8.31-10.44-11.718-13-7.67zm934.727.64c-5.753 7.03-9.163 17.258-9.163 27.06 0 8.095-2.13 14.914-9.165 29.403-4.9 10.226-10.866 21.517-13.21 24.927l-4.05 6.178 8.95-5.113c4.9-2.77 8.947-6.178 8.947-7.245 0-4.048 12.145-27.7 17.47-34.09 4.9-5.967 6.82-14.064 8.737-37.288.424-5.754-4.9-8.31-8.524-3.836zM511.79 440.41c-1.28 1.705-2.984 5.966-3.623 9.588-1.705 8.096-4.9 8.523-11.293 1.705-4.688-5.113-15.98-8.736-19.602-6.393-1.065.64.852 4.475 4.26 8.523 16.407 18.536 17.9 30.47 7.46 61.576-6.606 19.814-7.46 25.352-6.606 36.433 1.065 13.21 5.327 22.8 11.718 25.354 2.343.852 5.753-1.278 10.653-7.245 4.048-4.9 8.523-8.736 10.228-8.736s6.178 4.26 9.8 9.588c3.836 5.327 7.46 9.588 8.097 9.588s4.048-2.983 7.67-6.605c5.753-5.966 6.178-7.883 7.03-24.503.64-15.554-.212-20.668-6.177-38.565-8.096-24.93-7.458-33.665 3.41-49.86 4.048-5.965 7.245-11.717 7.245-12.783 0-4.475-13.85-1.705-19.39 3.622-7.244 6.817-12.57 5.54-12.57-2.984 0-7.883-4.688-12.57-8.31-8.31z"/><path d="M508.593 574.43c-1.705 2.77-3.622 7.03-4.475 9.588-1.705 6.178-2.77 6.178-11.718-.425-7.03-5.113-17.046-7.245-17.046-3.622 0 1.067 1.918 3.624 4.048 5.54 5.54 5.115 8.523 20.03 6.393 32.6-.852 5.54-4.688 18.325-8.523 28.34-5.753 15.128-6.818 21.306-7.03 37.5-.214 17.898.212 20.028 6.177 29.83 6.603 10.44 13.847 14.914 13.847 8.31 0-7.03 20.88-39.418 25.354-39.418 3.197 0 17.685 23.012 21.52 33.878l3.62 10.653 6.395-6.817c3.622-3.835 7.458-8.736 8.736-11.08 7.03-14.063 4.476-38.352-7.03-66.264-3.835-9.376-7.67-20.455-8.523-24.717-1.918-10.228 2.13-23.864 9.8-32.6l6.606-7.457h-5.327c-2.77 0-9.375 3.196-14.488 7.245-10.23 8.097-12.572 8.097-12.572-.424 0-6.82-5.327-15.34-9.588-15.34-1.705 0-4.475 2.13-6.178 4.686z"/><path d="M508.806 698.01c-11.718 15.765-12.784 18.323-11.293 28.338 2.13 13.21-3.41 12.57-20.88-2.557-4.69-3.833-10.014-7.03-11.932-7.03-2.13 0-8.094-2.342-13.634-5.326-11.718-6.178-12.145-4.26-3.622 10.866 7.67 13.422 18.75 23.223 34.304 30.468 10.228 4.9 14.276 5.54 34.09 5.54 20.242-.213 23.438-.64 33.665-5.966 6.178-3.196 14.915-9.588 19.39-14.063 8.31-8.31 20.667-27.274 18.962-28.98s-28.55 10.014-35.795 15.767c-4.05 3.41-10.654 7.67-14.702 9.588l-7.245 3.835 1.492-9.8c1.278-8.31.64-11.506-4.26-20.454-3.197-5.753-7.46-12.145-9.376-13.85-3.624-3.195-4.263-2.982-9.165 3.623zM78.41 705.467c-6.178 5.966 5.54 17.898 22.372 23.01 21.094 6.18 49.858 2.13 60.51-8.522 11.294-11.293 4.05-16.62-12.57-9.375-16.406 7.245-37.287 6.818-51.988-.852-11.293-5.753-15.766-6.818-18.324-4.26zm851.842 4.473c-14.063 7.458-35.157 7.883-51.563.64-11.72-5.113-17.686-4.9-17.686.852 0 9.8 22.586 20.24 43.68 20.24 22.37 0 46.874-11.93 45.382-22.158-.852-6.393-7.458-6.393-19.816.425z"/><path d="M71.592 726.134c-5.327 3.835-3.196 10.013 5.113 15.554 11.293 7.67 23.01 10.228 46.023 10.228 25.142-.213 44.318-6.178 48.366-15.128 4.26-9.375-.425-10.866-16.833-5.54-28.55 8.948-47.725 8.096-71.162-3.835-6.393-3.41-8.31-3.622-11.506-1.278zm874.64.426c-2.982 1.493-11.93 4.9-19.815 7.46-17.046 5.326-30.042 4.687-53.268-2.77-10.44-3.41-14.917-4.05-16.62-2.344-4.69 4.688.424 11.718 12.57 17.258 10.653 4.9 14.915 5.753 34.517 5.753 12.358 0 26.207-1.278 31.107-2.557 18.75-5.753 30.042-18.75 20.668-23.65-2.77-1.493-5.54-1.28-9.163.85z"/><path d="M62.43 749.997c-2.984 5.966-1.066 8.948 8.735 14.063 14.488 7.245 28.977 10.228 51.775 10.228 31.32 0 58.38-8.948 58.38-19.39 0-6.392-5.112-7.03-19.6-1.917-8.524 2.985-20.882 5.115-33.665 5.755-18.11 1.065-21.946.64-36.222-4.688-23.01-8.096-26.846-8.736-29.404-4.048zm878.477 2.558c-11.293 5.113-15.554 5.753-36.222 5.753-19.176 0-26.207-.852-37.927-4.9-15.34-5.327-20.668-5.113-20.668 1.278 0 10.866 26.207 19.602 58.38 19.602 23.012 0 37.288-2.983 51.99-10.44 7.882-4.048 9.162-5.54 8.522-10.44-.852-7.883-7.883-8.096-24.076-.852zM249.93 771.517c-11.507 5.54-16.407 14.488-16.407 29.617 0 10.44 1.065 14.488 5.966 21.733 7.88 11.93 7.243 13.636-2.985 10.013-18.324-6.605-40.482-2.983-50.07 7.67-6.818 7.458-7.883 13.423-4.048 22.16 1.705 4.474 3.196 9.162 3.196 10.44s-4.9 4.474-10.653 7.244c-5.965 2.77-12.144 7.245-14.062 10.013-3.622 5.753-6.605 22.372-4.048 22.372 1.065 0 7.67-2.345 14.915-5.33 33.452-13.21 62.856-7.03 100.568 21.734 25.994 19.602 47.94 24.93 62.64 14.915 5.967-3.836 7.67-6.82 9.164-15.34 1.065-5.968 2.343-11.08 2.557-11.508.425-.425 4.475 1.705 8.948 4.688 23.437 15.342 55.398 27.7 91.193 34.943 25.57 5.113 88.85 5.113 119.104-.213 46.873-7.883 78.833-18.75 104.4-35.582 8.95-5.753 16.62-10.44 17.47-10.44.64 0 .64 3.835-.21 8.523-2.558 16.835 7.457 25.996 28.34 25.996 12.143-.213 20.452-4.048 34.302-15.34 24.716-20.242 43.253-27.7 69.674-27.7 13.85 0 21.733 1.278 34.09 5.54 8.737 2.983 16.407 4.9 17.047 4.26s.425-5.326-.213-10.652c-1.917-12.145-9.162-20.028-20.453-21.733-4.688-.85-9.163-2.342-9.8-3.195-.64-1.065.85-5.113 3.195-9.163 5.327-8.522 5.753-19.815 1.065-26.42-8.096-11.718-30.894-16.406-50.07-10.653-4.688 1.277-8.948 1.704-9.588 1.064-.854-.64.64-4.475 3.194-8.523 13.21-21.306-2.13-50.497-26.42-50.497-10.23 0-18.752 5.113-42.4 25.78-42.188 36.648-95.03 63.282-148.935 74.575-29.405 6.393-85.654 7.03-112.075 1.278-57.954-12.57-103.338-35.795-148.934-76.492-33.876-30.042-43.04-34.09-59.66-25.78z"/></svg>