<svg xmlns="http://www.w3.org/2000/svg" width="1024" height="1024" viewBox="0 0 1024 1024"><path d="M841.42 79.024c-2.885 2.163-5.052 11.547-5.052 20.204 0 7.94-9.38 25.98-20.927 39.69-20.202 24.535-21.647 24.535-31.75 11.547-16.595-22.37-33.917-10.102-33.917 25.257 0 27.42-4.33 33.918-46.184 74.327-75.77 73.606-185.46 119.79-283.6 119.79-33.92 0-46.907-2.886-49.793-10.824-5.772-13.71-49.07-25.98-75.05-20.927-36.08 7.94-77.934-25.258-137.11-107.524l-25.256-35.36-15.876 19.486C92.368 242.836 95.976 261.6 132.78 297.68c32.473 31.752 37.526 47.63 28.143 85.152-2.886 10.824-11.547 18.04-24.535 20.927-22.37 4.33-36.082 27.42-36.082 60.614 0 23.812-18.763 45.46-56.286 65.67-32.473 17.317-44.02 44.742-26.702 63.5 19.485 21.65 34.637 18.042 60.616-14.432l23.094-28.865h165.976l23.812 25.257c24.535 25.98 62.783 34.637 72.886 17.318 6.494-9.38 46.184-1.445 62.783 12.988 6.494 5.773 35.36 13.71 64.947 17.32 55.567 6.493 82.265 20.926 97.42 50.513 14.433 28.143 10.824 145.05-7.216 255.457-2.163 9.38 67.833 23.812 119.792 24.535l41.134.722V889.41c0-52.678 2.886-71.44 15.155-95.976 23.094-44.02 33.918-108.967 30.31-172.47l-4.33-55.567 25.256-10.102c18.04-7.216 31.75-21.65 46.906-49.07 26.7-46.184 42.574-62.06 98.863-95.976 23.094-13.71 48.35-36.084 56.286-48.353 7.215-12.27 12.987-23.094 11.546-23.812s-14.433-6.494-29.588-13.71c-26.703-11.547-27.422-13.71-21.65-36.082 6.494-25.98 5.772-78.657-1.445-151.543-4.33-40.41-7.216-48.35-18.763-48.35-7.94 0-13.71 2.886-13.71 7.216 0 3.608-12.988 7.216-28.865 7.216-20.927 0-30.31-3.608-36.082-14.433-7.94-14.435-22.37-18.765-31.03-9.38z"/></svg>