<svg xmlns="http://www.w3.org/2000/svg" width="1024" height="1024" viewBox="0 0 1024 1024"><path d="M566.958 94.44c-6.95 6.95-4.105 17.056 15.477 57.486 12.002 24.636 20.214 45.8 21.163 54.958s4.422 18.32 9.16 24.005c8.212 10.106 23.056 37.584 23.056 42.954 0 8.53 27.795 49.274 49.274 72.646 24.005 25.902 24.636 27.48 24.005 55.275-.632 18.95-8.213 73.28-11.055 76.437-5.37 6.95-22.426 4.738-30.638-3.79-11.37-12.003-50.853-38.536-78.017-52.117-39.166-19.584-80.227-31.585-195.83-57.486-18.635-4.424-32.532-.318-32.532 9.157 0 7.896 61.594 67.276 97.917 94.44 28.427 21.163 49.59 34.428 110.233 68.856 28.742 16.425 64.75 44.22 91.28 70.435 15.16 15.476 16.426 17.687 16.426 31.584 0 19.584-4.422 35.06-17.056 62.54-5.685 12-12.95 28.11-16.11 35.375-7.263 17.055-18.003 26.847-60.01 53.694-103.286 66.33-172.774 94.757-259.948 107.075-47.378 6.633-184.142 4.105-253.316-4.422-25.268-3.475-47.694-5.37-49.904-4.422-20.53 7.265 61.592 31.903 138.344 41.694 38.22 4.422 125.395 3.79 163.297-1.58 60.012-8.528 120.025-27.163 163.612-50.536 16.11-8.842 36.956-16.424 57.486-21.476 26.533-6.633 38.22-11.687 67.91-29.374 77.385-46.115 115.288-63.487 190.46-88.44 39.48-12.95 78.964-26.847 87.807-30.952 9.16-4.422 24.636-9.16 34.744-11.055 24.953-4.42 34.43-9.475 40.115-21.476 3.475-6.95 8.213-10.74 16.425-13.266 6.316-1.895 14.212-6.95 17.37-11.055 3.16-3.79 9.793-8.213 14.53-9.476 10.74-2.527 11.372-12.32.948-21.795-29.374-26.848-66.962-36.956-94.124-24.952-11.687 5.054-17.056 5.685-29.06 3.475-7.895-1.58-17.37-4.105-20.53-6-22.426-11.688-35.06-56.54-46.115-162.666-10.425-98.863-13.9-111.18-45.17-153.19-30.637-41.06-144.03-150.347-185.09-178.14-13.266-8.844-20.847-10.11-26.53-4.423z"/></svg>