<svg xmlns="http://www.w3.org/2000/svg" width="1024" height="1024" viewBox="0 0 1024 1024"><path d="M643.99 29.547c4.624 33.445 16.366 55.862 43.408 82.9 14.232 14.233 24.906 25.974 23.483 25.974-5.335 0-25.26-14.942-49.454-36.645-34.514-30.955-43.41-33.8-76.14-23.84-24.55 7.473-55.863 9.963-63.333 5.338-8.895-5.337 1.78 9.607 12.81 17.79 6.76 4.98 12.096 10.674 12.096 12.81 0 4.98-18.858 3.913-33.446-2.136-17.078-7.116-16.367-1.78 2.135 13.876 30.242 26.33 40.56 28.82 101.046 27.752 50.168-1.067 55.505-.712 79.7 7.828 14.23 4.98 27.396 10.318 29.175 12.097 4.98 4.98-35.935 8.894-58.35 6.048l-18.857-2.49 9.962 10.673c27.04 28.466 65.467 37.717 108.876 25.975 14.233-3.558 28.11-6.05 30.6-5.337 5.693 2.49 26.33 29.887 47.677 64.4 16.367 26.33 17.434 29.532 10.674 29.532-12.81 0-20.28-6.76-32.377-29.177-14.588-27.397-37.003-51.947-42.34-46.61-6.404 6.404-7.828 31.31-3.202 50.525 5.694 24.194 27.753 57.64 55.506 83.97 22.06 20.992 22.77 22.06 22.77 39.494 0 26.685 11.742 67.246 29.177 101.047 13.876 27.75 15.3 32.733 16.367 60.484l1.066 30.243-11.03-12.453c-18.502-20.992-34.868-78.276-29.53-103.895 2.134-9.963 1.778-10.675-5.338-6.76-12.097 6.403-21.348 20.99-25.973 41.272-3.914 17.79-3.558 21.348 4.98 46.967 12.454 36.292 12.81 61.91.713 81.12-6.404 10.675-8.54 19.214-8.895 34.158 0 23.482-7.472 47.32-19.57 61.908l-8.894 10.674 4.27-53.37-28.82 30.243c-27.754 29.176-39.14 47.32-51.95 82.9-7.115 20.282-19.924 36.294-34.867 43.764-6.05 3.2-31.666 11.03-57.285 17.433s-60.844 17.434-78.277 24.55c-17.79 7.116-33.444 12.81-35.223 12.81-4.626 0 0-43.41 6.76-66.18 8.894-28.82 17.79-37.36 39.85-39.14 34.514-2.49 70.094-24.193 81.122-50.167 5.336-12.097 6.05-37.715 1.78-48.746-2.137-6.05-3.204-5.693-7.118 3.914-5.337 12.81-23.84 31.31-34.868 34.87-4.625 1.066-8.183 1.422-8.183.355 0-.712 7.473-9.962 16.368-20.636 20.637-23.484 33.446-50.17 33.446-68.67 0-22.77-4.625-25.618-15.3-9.25-11.03 16.366-31.31 37.36-41.983 43.05-6.76 3.915-7.115 3.56-2.134-6.05 18.146-35.58 6.404-55.86-20.28-35.222-16.724 12.454-29.888 40.206-39.14 81.123-4.27 19.926-9.25 34.515-10.317 32.38-1.067-1.78-5.693-22.415-9.607-45.898-4.27-23.127-10.674-51.947-14.232-63.332-12.452-37.358-7.827-54.792 16.368-62.62 9.606-3.203 17.79-3.203 35.935 0 59.774 11.385 104.25-10.32 104.25-50.526v-14.232l-10.675 9.25c-6.05 4.982-16.723 10.675-24.194 12.81-16.01 4.27-49.456 4.625-51.947.712-1.068-1.78 3.2-7.828 8.894-13.52 38.073-35.936 47.678-77.564 23.484-100.337l-8.183-7.828-3.913 15.297c-6.05 21.348-23.127 46.61-40.56 59.42-14.233 9.962-15.656 10.318-18.858 4.625-2.136-3.558-3.56-22.06-3.56-40.917 0-27.752-.71-33.8-4.624-30.955-4.982 4.626-23.484 51.236-29.888 75.432-2.135 9.25-4.625 16.367-5.337 15.655-2.49-2.135 6.05-64.044 11.74-86.815 7.83-31.31 14.234-35.58 43.054-28.108 40.917 10.674 72.94 5.693 94.288-14.944 11.386-10.674 19.213-35.224 13.52-40.917-2.49-2.49-3.914-2.49-3.914-.356 0 7.116-28.108 19.57-40.917 18.502l-12.81-1.07 20.994-15.3c24.906-17.79 36.293-36.29 36.293-57.993 0-14.232-4.98-28.82-7.827-24.55-17.79 24.194-23.483 29.887-33.445 34.157-6.404 2.846-13.52 4.98-15.3 4.98-6.048 0 10.675-42.34 21.35-53.725 5.692-6.05 10.317-12.098 10.317-12.81 0-4.98-37.715 3.202-48.033 9.962-13.166 9.25-32.38 35.936-35.937 50.168-3.558 15.3-6.76 9.608-13.876-23.838l-6.404-30.6 9.607-18.5c18.857-37.716 6.404-74.72-28.82-85.75-6.76-2.135-8.54-.712-10.318 7.116-1.423 5.693-1.067 19.213.712 30.6 2.135 11.385 3.202 20.635 2.846 20.635s-7.472-3.202-16.01-7.116c-19.214-8.54-45.9-9.25-62.266-1.423-12.097 5.693-12.097 6.05-6.05 12.81 14.59 16.01 37.36 21.703 61.91 15.654 18.857-4.98 20.28-4.27 12.097 7.472-7.47 10.318-21.347 12.81-43.41 7.116-10.316-2.846-18.855-4.27-18.855-3.202s4.27 7.472 9.25 13.876c13.877 18.146 28.82 25.973 49.813 25.973 17.79 0 18.147 0 22.06 13.876 8.54 27.395 5.694 50.523-9.96 81.476-7.83 15.655-16.724 30.243-19.57 32.735-4.625 3.915-5.337 1.424-5.337-18.145 0-16.367-2.49-27.752-8.54-40.56-10.672-22.416-29.174-41.63-39.136-40.206-10.674 1.422-11.74 22.77-2.135 41.983 4.27 8.183 6.76 15.655 6.05 16.723-3.203 3.202-31.667-35.936-41.63-56.928-7.117-14.233-10.675-18.858-12.098-14.59-6.404 17.08 2.846 78.634 15.655 99.982 8.895 15.3 8.895 18.857.356 18.857-3.914 0-13.52-7.473-21.348-17.08l-14.588-16.722 2.135 12.453c11.03 66.537 32.378 92.153 74.006 87.885 9.96-1.067 20.99-2.846 24.55-4.27 5.336-2.135 6.048.356 6.048 28.82 0 17.434 1.067 54.793 2.135 83.257l2.136 51.59-9.962-12.452c-28.82-36.647-80.056-79.343-86.815-72.583-5.693 5.693 4.625 34.514 19.213 54.793 7.116 9.607 12.81 18.502 12.81 19.57 0 3.2-28.82-12.454-50.526-27.398-18.857-12.453-20.636-13.165-20.636-6.404 0 22.77 25.263 54.437 61.91 78.633 19.57 12.81 20.28 13.876 10.674 13.876-13.876-.356-38.782-11.74-57.285-27.04l-15.3-12.454v13.52c0 18.146 15.3 48.746 30.6 60.13 23.84 18.502 63.33 23.84 101.046 14.232 10.674-2.846 20.28-4.625 21.704-3.914 2.492 1.78 12.098 179.325 9.252 181.816-1.067 1.067-12.453-2.135-24.906-7.472-12.81-4.98-33.445-10.674-45.898-12.81-61.91-9.606-117.06-59.063-155.486-138.406-8.183-16.367-14.588-32.378-14.588-35.224 0-12.453-6.76 2.49-7.828 17.434l-1.067 16.01-4.983-10.673c-19.925-42.696-36.647-76.14-42.696-83.614l-7.115-8.893 2.135 39.138c2.136 41.984-.71 45.542-11.03 14.588-7.827-24.55-7.115-44.475 2.847-66.536 14.588-32.378 14.588-39.85.712-92.865-7.118-26.684-12.81-51.946-12.81-56.215 0-14.232-3.203-6.05-13.877 36.293-5.693 22.415-12.81 45.542-16.01 51.235-3.915 6.404-5.338 7.472-4.27 3.202.71-3.914 2.845-17.434 3.913-30.243 3.558-34.868 8.183-51.947 20.992-81.835 13.52-30.956 17.79-50.526 13.52-65.824l-3.203-10.674-7.472 17.078c-4.27 9.25-10.674 21.348-14.944 26.33l-7.116 9.25v-11.386c0-25.618 32.735-68.67 72.227-95.71 29.888-19.925 47.678-59.42 38.073-83.97l-3.914-10.318-10.675 10.318c-6.05 5.693-20.992 23.127-32.735 38.426-11.74 15.655-22.06 26.685-22.77 24.55-2.135-6.05 15.655-43.052 28.108-58.707 25.618-32.377 59.064-47.676 116.348-52.657 41.273-3.914 63.332-10.318 73.652-21.704 6.76-7.473 6.404-7.473-5.693-5.338-27.397 4.625-56.928 3.914-56.928-1.423 0-9.25 24.194-15.655 70.094-18.146 53.016-2.846 73.298-9.607 87.174-28.82l7.828-11.03-10.673 2.846c-33.09 8.894-70.805 11.03-90.374 5.692-8.895-2.49-8.895-2.49-1.423-6.76 3.915-2.135 32.736-11.386 63.69-20.28 31.31-8.896 64.4-20.637 73.65-25.62 15.656-8.538 16.724-9.96 11.742-14.943-4.27-4.627-13.52-5.695-41.984-5.695-43.762 0-76.14 9.607-134.137 39.494l-37.36 19.57 16.368-17.08c21.705-22.77 42.34-48.033 42.34-51.59 0-4.98-15.3-2.847-30.242 3.913-32.022 14.588-86.46 69.38-122.04 123.108-8.894 13.52-24.193 32.023-33.8 40.918-9.607 8.538-22.415 23.126-28.108 32.02s-9.607 12.81-8.54 9.252c4.982-14.588 27.398-131.29 25.62-132.714-2.492-2.49-24.195 11.386-32.736 20.992-27.04 30.243-36.292 66.89-40.916 164.736-4.27 88.238-9.607 116.702-9.962 55.15-.712-51.236-12.453-110.3-22.06-110.3-5.693 0-13.52 16.367-19.57 40.917-7.827 33.09-7.827 127.734 0 179.68 10.32 67.247 10.675 64.758-3.557 35.58-7.117-14.587-14.59-34.513-17.08-44.12-4.98-19.567-6.05-18.855-14.23 8.185-17.435 59.42 9.25 132.36 85.75 232.338 8.537 11.03 15.297 20.992 15.297 22.415 0 1.067-7.472-3.202-16.723-9.25-24.194-16.724-66.18-57.642-88.95-87.885C10.32 605.223 1.067 594.193.712 594.55c-.712.71.356 10.317 2.135 21.703 4.27 25.618 16.723 57.285 30.955 77.92 16.723 24.55 56.928 59.774 92.51 81.122 59.773 35.936 76.14 46.61 74.717 48.033-.713.712-15.656-3.914-33.09-10.674-38.78-14.944-73.65-17.078-87.528-5.693l-8.54 6.76 16.012 4.27c56.216 14.234 84.68 27.754 111.365 51.95 46.61 41.983 111.364 62.264 228.425 71.16 24.55 2.134 29.887 3.2 23.127 5.692-21.348 7.83-42.34 31.667-47.677 53.37l-2.135 9.963h192.134l-2.135-9.607c-5.34-22.77-25.975-46.61-44.833-53.014l-8.183-2.846 8.895-2.49c4.98-1.424 16.722-2.492 25.972-2.847 29.887-.712 95-11.386 143.388-23.483 78.634-19.925 149.438-51.59 179.68-80.412l12.098-11.74-11.74-2.492c-6.405-1.067-24.55 0-40.562 2.49-15.655 2.847-29.53 4.626-30.243 3.915-.712-1.067 9.607-8.183 23.127-16.01 59.064-35.225 115.28-84.68 142.677-125.6 20.636-30.598 28.82-55.504 28.82-86.104v-25.618l-10.674 20.636c-14.232 28.11-30.955 50.526-55.862 74.007-19.567 18.5-40.915 35.223-45.186 35.223-1.067 0 13.52-22.77 32.378-50.878 69.382-102.47 83.258-157.62 51.948-203.52l-9.607-13.876-6.403 25.972c-6.76 28.107-18.502 51.234-31.666 62.62-7.115 6.405-7.827 6.405-5.692.713 8.183-22.06 24.55-79.343 29.176-101.404 16.01-77.564 7.828-141.965-24.194-186.44l-11.386-16.367V269.7c0 37.714-1.423 50.524-5.693 58.706l-5.692 10.318-2.49-28.108c-6.405-72.227-21.35-131.29-40.918-158.688-8.54-12.097-37.36-30.955-41.63-27.04-.712 1.066 2.49 8.894 7.116 17.433 9.963 18.147 19.926 62.266 19.926 89.308v18.857l-12.808-21.704c-13.165-22.414-30.243-42.695-49.456-58.35-5.693-4.98-17.79-20.28-26.685-33.8C755.73 106.74 703.784 53.73 671.05 30.6c-13.166-9.25-24.907-16.722-26.33-16.722s-1.78 7.116-.71 15.655z"/></svg>