<svg xmlns="http://www.w3.org/2000/svg" width="1024" height="1024" viewBox="0 0 1024 1024"><path d="M504.184 30.18l-9.163 29.64 43.12 134.2c24.252 73.835 45.27 137.97 46.89 142.82 2.692 7.008-4.853 8.086-58.747 8.086h-61.98l-5.928 16.708c-3.234 9.7-5.93 19.402-5.93 21.558 0 2.694 89.467 4.85 199.41 4.85h199.41l28.026-20.48 28.026-19.94-137.43-1.615-137.432-1.078-56.05-172.465C545.684 77.61 519.274.003 517.118.003c-1.616 0-7.545 13.474-12.935 30.18zm-296.42 60.9c-4.313 6.466 158.45 227.974 165.455 225.28 3.77-1.078 5.927-5.93 5.927-10.78C378.07 292.646 226.087 86.23 218 86.23c-4.31 0-8.622 2.155-10.24 4.85z"/><path d="M730.543 194.56c-71.68 97.548-85.693 123.42-68.446 123.42 5.93 0 161.684-211.81 163.84-222.048.538-3.772-2.694-7.007-7.545-8.085-6.467-1.616-32.876 30.72-87.848 106.712zM481.01 102.398c-3.234 7.545-22.096 65.213-42.04 127.73l-36.647 114.797-189.17 1.078L24.52 347.62l29.64 19.94 29.102 20.48h149.83c128.807 0 149.288 1.076 149.288 8.083 0 4.312-7.544 31.26-16.707 59.823l-16.708 52.278 15.63 12.395c8.085 7.006 16.168 12.394 17.786 12.934 1.618 0 30.72-85.153 64.675-188.633l61.44-188.632-11.316-33.955c-10.24-31.26-11.318-32.338-16.17-19.94zM821.625 429c-61.98 46.35-117.49 85.694-122.342 88.927-8.085 4.312-11.317-2.694-28.025-52.818L652.934 406.9l-22.096-1.616c-12.395-1.078-22.096 0-22.096 2.156s27.487 87.31 60.363 189.71l60.9 185.936 26.41 21.017c14.552 11.317 27.487 19.94 28.565 18.324 1.078-1.078-16.168-58.745-38.804-127.73-32.876-100.78-39.342-126.65-33.954-131.5 3.772-3.772 70.064-51.74 147.132-107.79 77.07-55.512 142.282-103.478 145.516-105.634 2.694-2.694-11.317-4.85-32.338-4.312l-37.726.538L821.626 429z"/><path d="M112.91 407.982c.537 2.694 47.966 38.266 105.633 79.765s106.174 77.07 107.25 78.687c1.616 2.156-23.175 81.92-53.894 177.314-31.26 95.933-55.514 175.158-54.974 176.236 1.078.538 14.014-7.545 28.565-18.324l26.948-19.94 45.27-139.588c24.79-76.53 46.89-140.128 49.584-141.744 2.156-1.616 25.33 12.935 51.2 32.338 34.492 25.33 49.584 33.416 55.512 29.64 14.552-8.622 29.103-21.017 26.41-23.174-1.08-1.078-74.375-54.434-162.225-118.57L177.585 404.21h-32.338c-17.786 0-32.338 1.616-32.338 3.772z"/><path d="M478.315 678.535L318.247 794.948l-11.317 31.798c-5.93 17.786-9.7 32.876-9.163 33.954 1.078.538 49.043-32.876 106.174-74.374 57.67-42.04 106.714-77.07 109.948-78.147s72.758 46.347 153.6 105.632c81.382 58.745 148.752 106.712 149.83 105.634s-3.772-16.708-10.24-34.492l-12.394-32.876-113.18-81.922c-61.978-44.733-116.412-84.615-120.184-87.848-4.852-4.85 3.77-14.014 42.038-40.96 26.41-18.865 48.505-38.267 48.505-43.118-.538-4.312-3.234-14.552-7.007-22.096l-6.467-14.014-160.07 116.413zm-319.597-67.37C11.046 659.67 20.748 655.358 24.518 665.6c1.617 4.31 5.93 8.084 8.624 8.084 3.234 0 62.52-18.324 131.503-41.5 104.018-33.953 126.114-42.576 126.114-51.2 0-5.388-3.236-9.7-6.47-9.162-3.77 0-60.362 17.786-125.575 39.342zm584.762-30.18c0 8.622 22.095 17.245 126.113 51.2 68.986 23.174 128.27 41.5 131.503 41.5 11.857 0 11.317-16.71-.538-21.02-19.94-7.545-250.072-81.38-253.844-81.38-1.616 0-3.234 4.31-3.234 9.7z"/><path d="M506.34 883.873c0 136.353.538 140.128 10.78 140.128s10.778-3.77 10.778-140.126c0-136.353-.538-140.128-10.78-140.128s-10.778 3.772-10.778 140.128z"/></svg>