<svg xmlns="http://www.w3.org/2000/svg" width="1024" height="1024" viewBox="0 0 1024 1024"><path d="M540.338 6.896c-113.044 20.39-201.2 105.25-225.79 217.994-5.996 26.686-6.597 81.56-1.5 105.55 15.594 71.964 61.17 132.235 131.936 175.113l16.192 9.895-14.693-15.293c-19.49-20.39-35.682-47.376-45.28-76.763-6.895-20.69-7.795-29.385-8.095-62.97-.3-32.982.9-42.58 6.896-61.47 10.196-32.983 22.19-55.472 27.586-52.175 1.5.9-1.5 9.595-6.597 19.79-27.886 55.174-27.586 132.536.6 185.31 9.894 18.89 34.78 51.275 40.78 53.074 1.8.9-.9-6.595-5.996-16.19-8.996-16.192-9.595-19.19-9.595-47.376 0-26.388.9-32.084 8.096-47.376 11.095-23.69 33.883-46.477 59.97-60.87 50.975-27.287 79.16-77.362 76.763-135.533-.9-24.288-1.797-28.187-15.89-55.773-13.493-26.986-14.992-32.083-16.192-53.374-.9-20.69 0-25.488 6.896-39.58 7.497-15.294 20.69-29.687 37.782-41.38C611.402 2.4 611.102 2.4 587.713 2.4c-13.193.3-34.484 2.1-47.376 4.498zm-61.17 177.813c15.892-6.3 17.092-4.5 8.096 12.29l-5.397 10.495 21.59 26.388-16.792-2.1-16.493-2.1-9.296 14.093-8.996 14.093-2.1-13.494c-2.7-17.99-3.598-18.89-20.69-23.69l-14.992-4.196 28.187-14.99v-32.686l11.394 10.795 11.093 10.793 14.393-5.698zM20.09 266.57C0 331.637 2.4 400.903 26.988 461.174c17.392 43.48 57.572 93.855 96.253 121.44 25.19 17.992 63.87 35.983 93.856 43.48 21.29 5.397 31.485 6.297 65.968 5.097 36.283-1.2 44.08-2.397 70.466-11.393 31.183-10.494 70.764-33.584 96.553-56.073l14.693-12.894-19.49 8.696c-28.486 12.293-48.576 16.493-82.46 16.192-48.275 0-89.655-14.093-128.937-43.778-23.69-17.69-35.984-30.886-31.787-33.584 1.8-.9 12.293 6.297 23.69 16.493 35.382 32.683 90.855 53.972 139.13 53.972 25.49 0 56.373-6.896 79.463-17.69 18.59-8.997 26.087-14.993 11.095-9.297-13.192 5.097-50.675 3.598-67.166-2.7-41.68-15.89-69.865-53.073-77.663-102.55-4.497-27.286-16.492-49.174-39.58-72.264-34.782-35.082-75.263-49.475-116.643-41.38-62.97 12.595-102.85-6.296-121.44-57.87l-6.897-18.59-5.995 20.09zm155.026 159.22l6.896 7.797 14.693-5.698c8.096-3.3 14.693-5.4 14.693-4.8 0 .9-2.7 7.497-5.698 14.992l-5.996 13.493 8.996 11.095c4.798 5.997 8.695 11.695 8.695 12.595 0 .6-6.597.6-14.992-.6l-14.992-2.1-17.39 28.188-3.6-16.79c-3.296-15.893-3.596-16.792-14.39-18.59-19.19-3-20.09-5.997-5.098-13.795l14.094-7.196-1.5-15.593c-1.498-14.095-1.2-15.595 3.3-13.195 2.698 1.5 8.395 6.297 12.292 10.196zm517.548-152.624c-56.672 12.894-112.445 47.376-144.53 89.357-23.087 29.986-45.877 79.16-53.374 116.344-2.1 8.996-.3 7.497 13.193-12.894 26.087-38.68 63.87-67.167 109.747-82.16 20.69-6.897 29.086-8.097 62.97-8.097 39.58-.3 55.47 1.8 55.47 7.497 0 2.1-6.296 2.1-18.59.6-69.566-8.997-130.435 10.493-176.614 56.072-19.19 18.89-41.68 50.676-41.68 58.472 0 1.2 5.996-4.197 13.493-11.995 7.495-7.497 21.287-17.392 30.884-21.89 14.992-7.196 20.69-8.096 47.078-8.096 27.586 0 31.785.9 50.075 9.595 11.694 5.4 28.187 17.094 39.28 27.29 27.287 25.487 48.276 35.082 84.258 39.58 24.887 3 56.073-1.5 76.463-10.494 10.493-4.798 25.187-15.892 39.28-29.686 27.286-26.39 33.882-30.586 56.972-36.583 26.686-6.896 51.275-.6 77.062 18.89l9.895 7.498-4.8-15.892c-7.496-26.686-29.985-68.667-49.775-93.554-34.484-43.78-88.157-79.464-143.33-95.356-28.787-8.096-105.55-10.795-133.437-4.498zm103.75 105.55c6.895-2.7 13.192-4.197 14.092-3.298s-.6 6.297-3.298 11.995c-6.597 13.794-6.297 17.392 1.2 24.288 3.298 3 7.497 7.798 8.695 10.496 2.398 3.9.6 4.498-13.193 3.298-15.593-1.2-15.593-1.2-24.288 11.694l-8.996 13.193-2.7-15.592c-2.397-14.693-3.297-15.892-13.492-18.89-5.996-1.5-12.594-3-14.393-3-7.194 0-3.897-4.498 8.098-11.394 11.694-6.597 11.995-7.196 11.995-23.69v-17.09l23.69 23.087 12.593-5.096zm-265.67 141.53c-3.9.9.6 2.7 12.893 5.396 54.274 11.095 107.647 53.974 137.034 109.446 15.595 29.986 28.19 83.66 19.49 83.66-1.497 0-3.596-3-4.195-6.897-.9-3.596-3-15.29-5.097-26.085s-9.895-31.785-17.092-46.477c-28.486-56.973-89.357-101.95-145.43-107.947l-15.592-1.5 11.095 4.2c48.575 18.89 76.762 69.864 68.366 123.84-1.8 11.093-7.796 30.283-13.493 42.277-19.19 40.78-20.09 78.86-3 120.842 14.094 35.382 32.984 54.273 68.368 69.864 49.176 21.59 72.266 68.966 56.373 114.843-3 8.695-4.498 15.892-3.598 15.892 5.097 0 44.38-32.984 59.672-49.777 95.654-106.148 95.654-271.668-.3-374.817-48.276-51.874-114.843-79.462-189.507-78.86-16.494.3-32.686 1.2-35.983 2.1zM710.655 741.24c7.497-2.7 14.693-4.5 15.293-3.6.9.9-1.2 7.197-4.8 14.094l-6.297 12.293 9.296 11.394c4.797 6.6 8.995 11.997 8.995 12.596s-7.196.9-15.593.3c-15.593-.9-15.892-.9-23.39 11.095-7.795 13.194-9.894 12.294-13.192-6.296-1.798-10.494-3.297-11.694-15.592-14.693-7.196-1.8-13.794-4.497-14.693-5.396-.6-1.2 5.097-5.097 12.594-8.996l13.49-6.597-4.196-34.182 12.293 11.694 11.995 11.695 13.794-5.397zM490.562 564.925c-.6 48.877-44.978 95.354-98.052 102.55-10.494 1.5-29.086 1.2-45.28-.6-20.99-2.397-31.484-2.1-44.078.6-41.38 9.296-85.458 41.98-101.65 75.263-4.498 9.595-9.296 26.686-11.394 40.48-8.396 61.47-35.982 90.856-87.257 93.855l-23.387 1.5 15.593 11.693c21.59 16.192 71.366 39.88 96.852 45.878 95.953 23.39 194.904-3.298 264.772-71.366 35.68-34.782 54.872-66.267 68.065-112.145 14.393-49.776 12.594-104.65-5.698-156.824-11.995-34.185-13.193-34.185-13.193-1.2 0 78.56-42.88 150.225-111.846 187.107-17.69 9.296-23.69 11.095-23.69 6.297 0-1.8 9.896-8.096 21.89-14.393 14.694-7.496 29.386-18.89 45.88-35.382 19.79-19.79 26.685-29.087 38.08-52.476 17.093-35.083 24.59-69.266 22.19-100.45-1.2-11.995-3.298-24.887-4.798-28.786-2.398-5.996-3-4.798-3 8.396zm-175.114 202.4l10.196 9.896 13.794-5.095c7.796-2.7 14.693-4.498 15.293-3.9.6.3-1.797 6.598-5.395 13.494l-6.297 12.593 10.795 13.193 11.095 13.193-16.493-1.8-16.493-2.1-8.395 12.594c-8.996 13.794-11.095 12.894-14.393-5.996-1.8-10.196-3-11.095-17.69-14.992l-15.594-4.197 14.693-8.696 14.694-8.396-1.8-14.693c-.9-8.096-.9-14.693 0-14.693 1.2 0 6.598 4.5 11.996 9.596z"/></svg>