<svg xmlns="http://www.w3.org/2000/svg" width="1024" height="1024" viewBox="0 0 1024 1024"><path d="M452.842 4.25C381.34 15.317 332.822 30.64 274.94 60.433 140.022 129.38 42.56 257.913 9.788 410.276c-5.96 26.387-7.66 54.052-7.66 102.146 0 94.485 13.62 153.217 56.18 235.358 68.948 134.918 197.48 232.38 349.844 265.152 50.222 11.065 154.07 11.065 204.288 0 201.31-43.41 354.954-197.48 398.364-398.364 11.065-50.222 11.065-154.07 0-204.288C967.816 211.524 817.58 58.734 620.954 14.044 585.624 5.957 481.78-.002 452.84 4.254zm96.613 74.06c8.936 15.32 22.13 16.596 36.176 3.403l9.79-8.936 30.644 8.087c27.24 7.66 31.07 9.79 33.62 20.854 5.533 19.152 23.836 25.537 37.88 12.767 5.958-5.532 9.788-4.257 35.326 11.065 26.386 15.748 28.514 18.3 28.514 31.92 0 18.298 16.175 28.514 30.643 19.15 8.087-5.105 11.065-2.977 33.198 18.727 22.556 22.13 24.258 25.537 20.428 34.474-7.66 16.6 1.702 31.498 19.58 31.498 13.62 0 16.174 2.128 31.918 28.515 15.324 25.537 16.6 29.368 11.067 35.327-12.767 14.045-6.385 32.344 12.767 37.877 11.065 2.555 13.193 6.385 20.854 33.62l8.087 31.07-9.363 8.515c-12.766 11.918-10.637 29.79 5.107 37.03 11.064 5.53 11.49 6.807 11.49 38.303 0 31.92-.426 32.772-12.767 40.006-15.32 8.516-17.023 25.113-4.256 36.178 10.638 8.936 10.638 11.065 0 44.69-7.234 24.258-9.79 27.666-22.13 31.07-11.065 3.404-14.47 6.808-15.322 16.175-.853 6.808 1.276 15.322 5.106 19.58 5.96 6.384 5.107 9.788-10.637 35.748-15.748 26.388-18.3 28.516-31.92 28.516-17.876 0-27.238 14.895-19.578 31.496 3.83 8.937 2.128 12.345-19.58 33.622-21.706 20.854-25.536 22.983-34.046 18.726-15.75-7.234-30.644 2.128-30.644 20.005 0 13.62-2.128 16.175-28.515 31.92-25.96 15.747-29.367 16.596-35.75 10.637-4.255-3.83-12.765-5.96-19.577-5.106-9.363.853-12.767 4.257-16.175 15.322-3.404 12.344-6.808 14.895-31.07 22.13-33.62 10.638-35.75 10.638-44.69 0-11.065-12.767-27.666-11.065-36.176 4.257-7.235 12.344-8.088 12.767-40.007 12.767-31.496 0-32.772-.426-38.304-11.918-7.234-15.322-25.11-17.45-37.03-4.683l-8.513 9.363-31.07-8.087c-27.24-7.66-31.07-9.79-33.62-20.854-5.533-19.15-23.836-25.536-37.88-12.766-5.958 5.532-9.788 4.257-35.326-11.065-26.386-15.75-28.514-18.3-28.514-31.92 0-17.876-14.895-27.24-31.496-19.58-8.937 3.83-12.345 2.13-34.475-20.426-21.707-22.13-23.835-25.11-18.726-33.198 8.934-14.47-.428-29.79-20.007-31.496-14.046-1.277-17.024-3.83-31.92-28.516s-15.747-28.09-10.215-34.474c12.766-14.046 6.384-32.345-12.768-37.878-11.065-2.555-13.193-6.385-20.854-33.62l-8.087-30.644 8.936-9.79c13.193-14.045 11.918-27.238-3.404-36.175-12.344-7.234-12.767-8.087-12.767-40.006 0-31.496.426-32.772 11.918-38.304 15.322-7.234 17.45-25.11 4.683-37.03l-9.363-8.513 8.087-31.07c7.662-27.24 9.79-31.07 20.855-33.62 19.152-5.533 25.537-23.836 12.767-37.88-5.532-6.384-4.683-9.788 10.216-34.473 14.47-23.835 18.3-27.666 32.345-29.79 21.28-3.405 28.515-15.75 19.58-33.2-3.405-5.958.425-12.343 20.004-31.495 18.3-18.3 25.96-22.983 30.643-20.005 16.175 10.216 30.217 2.128 33.62-19.152 2.13-14.046 5.96-17.877 29.792-32.345 24.685-14.895 28.09-15.748 34.474-10.216 14.046 12.767 32.345 6.385 37.878-12.767 2.555-11.065 6.385-13.193 33.62-20.854l31.07-8.087 8.515 9.363c11.916 12.765 29.79 10.636 37.027-5.108 5.532-11.065 6.808-11.49 38.304-11.49 31.92 0 32.773.425 40.007 12.766z"/><path d="M401.344 112.356c1.276 5.96 12.767 61.287 25.537 123.427 17.026 81.715 27.668 122.574 38.733 148.534 14.046 33.62 16.175 47.24 7.234 47.24-2.128 0-11.49-17.876-20.428-39.58-10.64-25.536-39.158-74.053-81.716-139.17-36.176-54.902-67.246-102.146-69.8-104.274-2.13-2.555 20.004 44.69 49.795 104.274 36.6 73.205 62.99 120.445 81.714 145.556 24.258 32.772 29.79 45.965 19.152 45.965-1.702 0-15.322-15.748-30.643-35.327-23.41-30.215-87.673-91.075-197.054-185.987l-22.13-19.152 19.15 22.13c94.91 109.38 155.773 173.646 186.416 197.055 19.152 15.322 34.9 28.94 34.9 30.643 0 10.638-13.193 5.106-45.965-19.152-25.11-18.726-72.35-45.112-145.555-81.715-59.585-29.79-106.4-51.923-104.274-49.795 2.556 2.555 49.37 33.62 104.275 69.8C315.8 415.387 364.32 443.902 390.28 454.54c21.282 8.936 39.158 18.3 39.158 20.428 0 8.936-13.62 6.808-47.24-7.234-25.96-11.065-66.82-21.707-148.535-38.73-62.14-12.768-117.468-24.26-123.427-25.538-5.96-.853 42.135 16.175 106.826 38.304 92.783 31.496 126.404 40.86 160.452 45.112 37.03 4.683 43.41 6.808 43.41 13.193 0 8.514 3.83 8.514-61.713.426-27.237-3.402-257.49 7.236-257.49 11.92 0 1.7 52.35 5.53 116.188 8.936 94.908 5.106 123 5.106 156.195.853 22.13-2.98 41.708-5.107 43.837-5.533 1.7 0 2.977 3.404 2.977 7.66 0 6.81-5.96 8.937-43.41 13.62-34.047 4.258-67.672 13.62-160.452 45.113-64.69 22.13-112.784 39.156-106.826 37.877 126.402-23.41 228.97-47.667 266.852-62.14 39.58-15.748 52.35-17.877 52.35-8.514 0 2.128-17.877 11.065-39.157 20.005-25.96 10.638-74.48 39.157-139.597 81.715-54.903 36.176-101.72 67.246-104.275 69.8-2.128 2.13 44.69-20.004 104.274-49.795 73.204-36.602 120.444-62.99 145.555-81.715 32.345-23.835 45.965-29.79 45.965-19.152 0 1.704-15.748 15.324-35.327 30.22-30.217 23.834-91.077 88.525-185.99 197.48l-19.15 22.13 22.13-19.153c111.934-97.463 173.22-155.772 197.053-186.415 15.322-19.15 28.94-34.9 30.643-34.9 10.637 0 5.105 13.194-19.153 45.966-18.726 25.11-45.112 72.352-81.715 145.556-29.79 59.585-51.924 106.4-49.796 104.274 2.555-2.555 33.62-49.37 69.8-104.274 42.562-65.117 71.077-113.637 81.716-139.597 8.936-21.28 18.3-39.157 20.428-39.157 8.936 0 6.808 12.767-7.234 46.392-12.767 30.643-45.965 170.24-64.264 272.813-.853 5.96 16.175-42.135 38.304-106.826 31.496-92.784 40.86-126.405 45.112-160.453 4.683-37.03 6.808-43.41 13.193-43.41 8.515 0 8.515-3.83.427 61.713-3.4 27.238 7.236 257.49 11.92 257.49 1.703 0 5.533-52.35 8.937-116.188 5.108-94.908 5.108-123 .855-156.195-2.978-22.13-5.106-41.708-5.532-43.837 0-1.702 3.404-2.978 7.66-2.978 6.81 0 8.937 5.96 13.62 43.41 4.258 34.047 13.62 67.672 45.113 160.452 22.13 64.69 39.157 112.784 37.878 106.826-23.41-126.404-47.667-228.973-62.14-266.854-15.748-39.58-17.877-52.35-8.514-52.35 2.127 0 11.064 17.877 20.004 39.157 10.638 25.96 39.157 74.48 81.715 139.597 36.174 54.902 67.244 101.72 69.8 104.274 2.127 2.128-20.006-44.69-49.797-104.274-36.602-73.205-62.99-120.445-81.715-145.556-23.836-32.345-29.792-45.965-19.153-45.965 1.702 0 15.322 15.746 30.217 35.325 23.835 30.217 88.526 91.077 197.48 185.99l22.13 19.15-19.152-22.13C702.24 687.35 643.93 625.213 613.712 601.377c-19.578-14.894-35.326-28.514-35.326-30.216 0-10.637 13.62-4.682 45.965 19.153 25.113 18.726 72.354 45.112 145.558 81.715 59.585 29.79 106.826 51.924 104.274 49.796-2.127-2.555-49.368-33.62-104.273-69.8-65.118-42.562-113.638-71.077-139.17-81.716-21.71-8.936-39.58-17.877-39.58-20.005 0-9.363 12.765-7.234 52.35 8.514 37.876 14.47 140.45 38.73 266.852 62.14 5.96 1.276-42.135-15.748-106.826-37.878-92.783-31.497-126.404-40.86-160.452-45.113-37.45-4.683-43.41-6.808-43.41-13.62 0-4.257 1.276-7.66 3.404-7.66 1.702.425 21.28 2.554 43.41 5.53 33.198 4.258 61.287 4.258 156.62-.852 63.416-3.404 115.767-7.234 115.767-8.936 0-4.684-230.252-15.323-257.492-11.92-65.543 8.088-61.712 8.088-61.712-.425 0-6.385 6.386-8.514 43.41-13.193 34.048-4.256 67.673-13.62 160.453-45.11 64.69-22.13 112.784-39.158 106.826-38.305-102.57 18.3-242.17 51.498-272.814 64.264-33.62 14.046-46.392 16.175-46.392 7.234 0-2.128 17.878-11.49 39.158-20.428 25.96-10.638 74.48-39.157 139.597-81.715 54.9-36.175 102.145-67.245 104.273-69.8 2.554-2.13-44.69 20.005-104.275 49.796-73.205 36.602-120.445 62.99-145.556 81.715-32.773 24.26-45.966 29.79-45.966 19.153 0-1.702 15.748-15.322 35.327-30.643 30.218-23.836 88.527-85.123 185.99-197.055l19.152-22.13-22.13 19.152C687.77 317.925 623.08 378.79 599.245 409.007c-14.895 19.578-28.515 35.326-30.217 35.326-10.638 0-4.683-13.62 19.152-45.965 18.726-25.11 45.112-72.352 81.715-145.556 29.79-59.585 51.924-106.826 49.796-104.274-2.554 2.128-33.62 49.37-69.8 104.274-42.56 65.117-71.076 113.637-81.715 139.17-8.936 21.708-17.877 39.58-20.005 39.58-9.363 0-7.234-12.766 8.514-52.35 14.47-37.877 38.732-140.45 62.14-266.853 1.277-5.96-15.747 42.133-37.877 106.824-31.496 92.783-40.86 126.404-45.112 160.452-4.682 37.45-6.807 43.41-13.62 43.41-4.256 0-7.66-1.276-7.66-3.404.426-1.702 2.555-21.28 5.532-43.41 4.257-33.198 4.257-61.287-.853-156.62-3.405-63.416-7.235-115.767-8.937-115.767-4.683 0-15.322 230.252-11.918 257.492 8.086 65.544 8.086 61.713-.427 61.713-6.386 0-8.515-6.384-13.194-43.41-4.258-34.046-13.62-67.67-45.113-160.45-22.13-64.692-39.157-112.785-38.304-106.827z"/></svg>