<svg xmlns="http://www.w3.org/2000/svg" width="1024" height="1024" viewBox="0 0 1024 1024"><path d="M0 350.815v28.444h483.556v-56.89H0v28.443zm540.444 0v28.444H1024v-56.89H540.443v28.443zM0 455.11v28.445h701.63v-56.89H0v28.445z"/><path d="M755.673 432.355c-3.792 3.792-6.637 29.392-6.637 57.837v50.252H540.444V701.63H701.63v-28.445c0-28.444-.95-28.444-52.15-28.444-49.302 0-52.147-.946-52.147-23.702 0-23.704.948-23.704 75.852-23.704h75.852V701.63H1024V426.665h-56.89V644.74h-47.406V426.666h-56.89V644.74H839.11c-22.754 0-22.754 0-25.6-107.14-2.842-106.193-2.842-106.193-26.546-109.038-13.274-1.896-27.496 0-31.29 3.792zM0 621.037v80.592h28.445c28.444 0 28.444-.95 28.444-52.15V597.33h151.7V701.63h274.963V540.443H322.37v28.444c0 28.444.948 28.444 52.148 28.444 49.303 0 52.148.95 52.148 23.705 0 23.704-.948 23.704-75.852 23.704h-75.852V540.443H0v80.592z"/></svg>