<svg xmlns="http://www.w3.org/2000/svg" width="1024" height="1024" viewBox="0 0 1024 1024"><path d="M18.117 13.25c3.084 10.022 3.084 18.116-.385 30.835-6.167 22.74-5.782 32.762 1.54 43.17 3.085 4.624 3.855 8.478 1.93 8.478-2.314 0-4.24 2.698-4.24 5.782s1.927 5.782 3.853 5.782c2.313 0 1.156 4.24-2.313 10.022-5.782 8.477-6.167 12.332-1.54 37 3.853 20.042 4.24 29.68 1.155 38.16-2.313 6.165-3.084 11.176-1.54 11.176 5.395 0 15.802-13.876 15.802-20.43 0-3.468 1.926-6.552 3.852-6.552 2.313 0 3.854-2.313 3.47-5.01-1.157-10.022.77-13.876 8.093-16.188 9.636-3.084 14.26-19.272 7.71-26.98-9.637-11.563-25.055-4.625-20.43 8.865 1.54 3.855 3.084 3.855 7.323.386 7.322-6.167 11.562-1.54 5.395 6.167-7.323 8.865-20.042.385-18.5-12.334s10.406-18.5 23.51-15.033c17.73 4.24 13.876 21.585-18.5 87.495-30.836 63.212-34.305 79.014-21.2 92.12 4.24 4.24 9.25 7.71 11.178 7.71s-1.54 5.01-7.71 11.177c-6.936 7.322-11.176 15.416-11.176 22.354 0 5.782 13.104 38.543 28.908 72.076s28.908 65.91 28.908 71.692c0 14.647-9.25 21.585-22.355 16.96-8.48-3.084-10.407-6.167-10.407-16.96 0-10.022 1.928-13.876 7.323-14.647 8.48-1.928 15.804 4.625 11.95 10.792-1.928 3.084-3.854 3.084-7.71 0-3.47-3.084-5.395-2.698-6.552.77-3.855 9.637.77 13.877 11.562 11.18 13.876-3.855 15.032-23.512 1.928-29.294-7.71-3.47-10.792-9.25-9.25-18.5 0-1.542-1.156-2.7-3.084-2.7s-4.24-5.01-5.396-11.177c-1.54-6.553-5.782-13.49-10.022-15.417-6.938-3.856-6.938-3.47-3.084 6.936 3.084 8.48 2.698 18.116-1.156 38.158-2.698 15.803-3.47 30.064-1.54 34.304 4.624 10.79 5.01 28.907.384 38.542-2.698 6.553-2.698 16.573 1.156 36.23 3.854 20.43 4.24 30.065 1.156 38.544-3.854 10.407-3.854 10.792 3.084 6.938 4.24-1.928 8.48-8.865 10.022-15.417 1.156-6.167 3.47-11.178 5.396-11.178s3.084-1.157 3.084-3.085c-1.54-8.865 1.54-14.647 9.25-18.116 13.104-5.783 11.948-25.44-1.928-29.294-10.407-2.698-15.032 1.54-11.948 11.178 1.54 3.47 3.084 3.854 6.938.77 3.47-3.083 5.782-3.083 7.71 0 3.468 5.783-1.157 11.564-9.637 11.564-8.094 0-14.26-15.032-10.407-25.054 3.084-7.71 20.814-11.563 27.75-5.782 10.408 8.865 6.168 25.054-23.125 87.108-15.8 33.537-28.905 66.3-28.905 72.08 0 7.323 3.854 15.032 11.948 22.355s10.022 11.18 6.167 11.18c-8.865 0-18.116 15.03-18.116 28.908 0 6.938 11.948 36.617 28.908 70.92 28.523 57.816 33.533 75.16 24.283 84.41-5.782 5.783-19.657 5.783-25.44 0-6.552-6.552-5.78-20.428 1.542-26.21 4.625-4.24 6.938-3.853 11.948 1.157 7.71 7.323 3.854 13.49-4.24 6.938-3.854-3.47-5.782-3.47-6.938.385-5.01 13.49 10.407 20.43 20.042 8.865 6.55-7.71 1.926-23.897-7.71-26.98-7.324-2.313-9.25-6.167-8.095-16.573.385-2.314-1.156-4.626-3.47-4.626-1.927 0-3.853-3.47-3.853-7.323 0-7.707-9.25-19.655-15.417-19.655-1.54 0-1.156 5.01 1.156 11.178 3.085 8.48 2.7 18.116-1.155 38.158-4.625 24.67-4.24 28.524 1.54 37.003 3.47 5.782 4.626 10.022 2.314 10.022-1.93 0-3.855 2.698-3.855 5.782s1.928 5.782 3.854 5.782c2.312 0 1.155 4.24-2.314 10.02-5.782 8.48-6.167 12.72-1.54 35.847 3.468 19.657 3.853 29.68.77 38.543-2.313 6.552-2.698 11.947-.77 11.947 5.78 0 15.416-11.948 15.416-19.657 0-3.854 1.54-7.323 3.854-7.323 1.928 0 2.698-2.313 1.54-5.396s.772-7.707 4.24-10.405c15.418-13.49 17.73-16.573 16.574-23.897-1.54-10.792-18.885-20.042-23.125-12.334-4.24 7.323.77 20.042 5.01 12.72 2.313-3.855 4.24-3.855 7.71-.386 3.853 3.854 3.468 5.396-1.542 7.323-10.022 3.855-18.116-1.155-18.116-11.177 0-12.334 8.48-18.886 21.97-17.345 15.032 1.54 16.188 17.73 3.084 46.637-10.79 24.668-11.946 31.605-5.01 35.846s42.4 5.01 50.495.77c8.865-4.623 8.48-10.405-3.084-36.615-13.103-28.908-11.947-45.096 3.085-46.637 13.49-1.54 21.97 5.01 21.97 17.345 0 10.022-8.094 15.032-18.116 11.178-5.01-1.927-5.397-3.47-1.54-7.322 3.467-3.47 5.394-3.47 7.707.385 4.24 7.323 9.25-5.396 5.01-12.72-4.24-7.708-21.585 1.542-23.126 12.335-1.155 7.323 1.157 10.407 16.574 23.897 3.47 2.698 5.396 7.323 4.24 10.407s-.385 5.397 1.54 5.397c2.314 0 3.855 3.47 3.855 7.322 0 7.71 9.635 19.657 15.416 19.657 1.928 0 1.54-5.397-.77-11.95-3.085-8.865-2.7-18.886.77-38.543 4.625-23.126 4.24-27.366-1.54-35.846-3.47-5.78-4.626-10.02-2.314-10.02 1.93 0 3.855-2.7 3.855-5.783s-1.928-5.782-3.854-5.782c-2.312 0-1.155-4.24 2.314-10.022 5.782-8.48 6.167-12.334 1.54-37.002-3.853-20.04-4.24-29.68-1.155-38.157 2.312-6.167 2.697-11.178 1.155-11.178-6.167 0-15.417 11.948-15.417 19.657 0 3.855-1.928 7.324-3.854 7.324-2.313 0-3.854 2.313-3.47 4.625 1.157 10.407-.77 14.26-8.093 16.573-9.635 3.084-14.26 19.272-7.708 26.98 9.636 11.563 26.98 3.084 19.272-9.25-1.928-3.47-3.854-3.854-5.396-.77-3.853 6.166-10.02 5.395-10.02-1.157 0-7.323 11.562-11.178 17.73-5.782 11.947 9.636 3.853 30.45-11.95 30.45-26.21-.386-24.282-16.19 11.18-88.652 16.572-33.532 29.292-64.752 29.292-71.305 0-13.876-9.25-28.908-18.117-28.908-3.854 0-1.928-3.855 6.167-11.18s11.948-14.647 11.948-22.355c0-5.782-12.334-37.002-27.366-68.607-34.304-72.848-35.46-76.702-26.98-87.108 5.396-6.554 9.25-7.71 17.345-5.783 11.947 3.084 15.802 10.022 12.333 23.51-2.312 9.637-15.03 13.492-19.656 5.783-3.854-6.553 1.928-12.72 7.71-7.71 3.468 3.085 5.395 2.7 6.937-1.155 3.855-10.022-2.697-15.032-14.26-10.407-8.48 3.084-10.407 5.782-9.25 14.647.77 6.167 4.625 11.948 9.636 14.26 7.71 3.47 10.792 9.25 9.25 18.117 0 1.928 1.156 3.084 3.084 3.084s4.24 4.625 5.01 10.022c.77 5.782 5.396 13.104 10.407 16.573 8.866 5.784 9.25 5.784 5.01-2.31-5.78-10.408-5.78-26.21-.384-50.494 2.698-11.178 3.084-22.355 1.54-26.21-5.01-11.178-5.395-29.293-.77-39.315 2.698-6.166 2.698-13.875-.385-28.136-5.78-24.668-5.78-40.086 0-50.878 4.24-8.094 3.855-8.094-5.01-2.313-5.01 3.47-9.635 10.792-10.406 16.573-.77 5.396-3.084 10.022-5.01 10.022-2.313 0-2.698 1.928-1.54 3.854 1.155 2.314-3.085 8.866-9.637 15.033-15.032 13.49-14.647 27.366.77 31.605 10.408 2.698 15.033-1.54 11.95-11.178-1.542-3.47-3.085-3.854-6.94-.77-5.78 4.624-11.562-1.157-7.708-7.71 4.24-6.553 16.572-4.24 19.27 3.854 6.554 20.814-16.187 35.846-29.292 19.657-8.865-10.79-7.323-14.646 26.98-87.107 15.032-31.992 27.366-62.826 27.366-68.607 0-6.94-4.24-15.033-11.178-22.356-6.167-6.166-9.636-11.177-7.71-11.177s6.94-3.47 11.18-7.71c13.49-13.49 9.635-28.907-21.586-92.504C79.4 131.19 77.473 115.387 104.068 115c16.188 0 23.897 23.127 10.407 30.065-8.478 4.625-16.572 1.928-16.572-5.396 0-6.554 6.167-7.324 10.022-1.157 1.54 3.084 3.47 2.698 5.396-.77 7.71-12.335-9.635-20.815-19.27-9.25-6.554 7.708-1.93 23.896 7.71 26.98 7.32 2.312 9.25 6.166 8.092 16.187-.385 2.698 1.156 5.01 3.47 5.01 1.927 0 3.853 3.084 3.853 6.938 0 6.553 11.178 20.042 16.188 20.042 1.54 0 .385-5.01-1.928-11.178-3.084-8.48-2.698-18.117 1.156-38.16 4.626-24.667 4.24-28.522-1.54-37-3.47-5.783-4.625-10.023-2.313-10.023 1.928 0 3.854-2.7 3.854-5.783s-1.927-5.782-3.853-5.782c-2.313 0-1.156-4.24 2.313-10.022 5.782-8.478 6.167-12.718 1.54-35.845-3.468-19.657-3.853-29.68-.77-38.543 2.313-6.553 2.698-11.948.77-11.948-5.78 0-15.416 11.948-15.416 19.657 0 3.855-1.542 7.324-3.855 7.324-1.93 0-2.7 2.313-1.54 5.396 1.926 5.396-7.71 17.73-14.263 17.73-5.782 0-8.48 18.886-3.47 25.054 5.397 6.553 17.73 7.71 20.815 2.313 1.54-1.927 1.156-6.552 0-10.02-1.928-5.01-3.084-5.397-5.782-1.157-2.313 3.853-4.24 3.853-7.71.384-3.853-3.854-3.468-5.396 1.542-7.323 10.022-3.853 18.116 1.157 18.116 11.18 0 12.333-8.48 18.885-21.97 17.344-15.032-1.54-16.188-17.73-3.084-46.637 5.396-12.333 9.636-24.667 9.636-27.75C105.61 4.38 94.432.527 71.306.91c-28.908.387-31.992 6.17-18.116 38.16 13.49 31.605 12.334 46.637-2.698 48.18-13.49 1.54-21.97-5.01-21.97-17.345 0-10.02 8.094-15.03 18.116-11.177 5.01 1.928 5.396 3.47 1.54 7.323-3.468 3.47-5.395 3.47-7.708-.384-5.01-8.093-9.25 5.783-4.24 13.877 1.928 3.854 3.854 4.625 3.854 1.928s2.313-3.853 5.01-2.697c8.094 3.084 15.417-8.48 12.72-19.657-1.542-5.396-3.855-9.636-5.783-9.636-6.552 0-16.187-12.334-14.26-17.73 1.156-3.084.385-5.396-1.54-5.396-2.314 0-3.855-3.47-3.855-7.323 0-7.71-9.25-19.656-15.416-19.656-1.54 0-1.157 6.167 1.155 13.876zM103.3 209.437c26.594 56.66 29.678 72.462 17.344 80.17-9.25 5.782-26.595 0-26.595-8.865 0-10.022 8.092-13.876 13.49-6.553 3.853 5.394 5.01 5.394 10.79-1.543 6.168-6.938 6.168-7.71 0-15.032-3.853-4.24-7.71-5.782-8.864-3.854-1.54 2.314-8.094 5.783-15.032 7.71L82.1 264.94l1.157-18.116c1.156-15.417 2.313-18.116 10.022-19.272 11.176-1.54 10.79-7.71-.387-12.72-6.553-3.083-8.865-6.552-7.71-12.333.772-4.627-1.155-11.95-4.24-16.19l-6.166-7.71-6.167 7.71c-3.083 4.24-5.01 11.563-4.24 16.188 1.157 5.78-1.155 9.25-7.708 12.333-11.178 5.01-11.563 11.18 0 12.72 7.323 1.156 8.48 3.854 9.636 19.27l1.156 18.118-12.334-3.47c-6.938-1.927-13.49-5.395-15.032-7.708-1.156-1.928-5.01-.385-8.865 3.854-6.167 7.323-6.167 8.094 0 15.032 5.782 6.938 6.938 6.938 10.792 1.54 5.396-7.322 13.49-3.468 13.49 6.554 0 8.865-17.344 14.647-26.594 8.865-12.717-8.094-9.25-23.897 17.347-80.557 14.26-30.45 27.366-55.503 28.523-55.503s14.26 25.055 28.52 55.89zM48.18 323.14c8.865 5.01 10.022 19.273 1.54 19.273-3.468 0-6.937-2.698-8.093-5.782-1.93-4.623-3.47-4.24-9.25 2.7-6.168 7.71-6.168 9.25-1.157 17.345 5.01 7.323 6.553 8.094 10.407 3.47 2.313-2.7 8.865-6.168 15.032-7.71 10.02-2.313 10.406-1.928 10.406 14.647 0 16.96-6.94 25.055-16.19 19.273-2.312-1.54-3.468-.385-2.312 2.698s5.01 6.94 9.25 9.25c4.24 2.314 6.938 6.94 6.167 11.564-.384 4.24 1.54 11.178 5.01 15.417 5.783 7.71 5.783 7.71 11.564 0 3.47-4.24 5.396-11.177 5.01-15.416-.77-4.625 1.928-9.25 6.167-11.563s8.095-6.166 9.25-9.25c1.157-3.083 0-4.24-2.312-2.697-9.25 5.782-16.188-2.313-16.188-19.272 0-16.572.385-16.96 10.792-14.646 5.782 1.54 12.334 5.01 14.647 7.71 3.853 4.624 5.395 3.853 10.406-3.47 5.01-8.094 5.01-9.636-1.156-17.345-5.782-6.94-7.323-7.324-9.25-2.7-3.084 8.48-13.876 6.94-13.876-1.927 0-4.625 3.854-9.636 9.25-11.948 13.104-6.167 25.44 1.156 25.44 15.417 0 10.407-49.337 123.34-53.963 123.725-4.24 0-53.96-113.318-53.96-123.34 0-15.803 12.72-23.126 27.365-15.417zM102.912 618c28.138 60.9 31.22 76.703 16.574 83.255-11.563 5.396-25.44-1.156-25.44-11.948 0-8.865 10.793-10.407 13.877-1.928 1.928 4.623 3.47 4.24 9.25-2.7 6.167-7.71 6.167-9.25 1.156-17.345-5.01-7.323-6.555-8.094-10.41-3.47-2.312 2.7-8.864 6.168-14.646 7.71-10.407 2.313-10.792 1.928-10.792-14.647 0-16.96 6.938-25.055 16.188-19.273 2.314 1.54 3.47.385 2.314-2.698s-5.01-7.324-9.25-9.25c-4.24-2.314-6.938-6.94-6.167-11.564.385-4.24-1.54-11.178-5.01-15.417-5.782-7.71-5.782-7.71-11.563 0-3.47 4.24-5.396 11.177-5.01 15.416.77 4.625-1.928 9.25-6.167 11.563-4.24 1.927-8.094 6.166-9.25 9.25s0 4.24 2.313 2.697c9.25-5.782 16.188 2.313 16.188 19.272 0 16.572-.385 16.96-10.407 14.646-6.165-1.54-12.717-5.01-15.03-7.71-3.854-4.624-5.396-3.853-10.407 3.47-5.01 8.094-5.01 9.636 1.156 17.345 5.78 6.94 7.322 7.324 9.25 2.7 3.083-8.48 13.875-6.94 13.875 1.927 0 10.792-13.876 17.345-25.44 11.948-6.552-3.084-9.25-7.323-9.25-15.417 0-10.407 49.337-123.725 53.963-123.725 1.156.385 13.49 25.44 28.137 55.888zM49.34 734.018c6.553 2.698 8.48 15.032 2.698 18.886-1.928 1.156-6.167-.385-9.25-3.47-4.625-4.624-6.167-4.624-11.563 1.93-6.167 6.937-6.167 7.708 0 15.03 3.854 4.24 7.71 5.783 8.865 3.855 1.54-2.314 8.094-5.783 15.032-7.71l12.334-3.47-1.156 18.117c-1.156 15.417-2.313 18.116-9.636 19.272-11.563 1.54-11.178 7.71 0 12.72 6.553 3.082 8.865 6.55 7.71 12.332-.772 4.626 1.155 11.95 4.24 16.19l6.166 7.708 6.167-7.71c3.084-4.24 5.01-11.562 4.24-16.187-1.156-5.78 1.156-9.25 7.71-12.333 11.177-5.01 11.562-11.178.384-12.72-7.71-1.155-8.865-3.853-10.022-19.27L82.1 759.07l12.335 3.47c6.938 1.927 13.49 5.395 15.032 7.708 1.156 1.928 5.01.385 8.865-3.854 6.167-7.323 6.167-8.48-.385-15.803-6.553-6.55-8.094-6.936-12.334-1.54-5.782 6.94-11.563 4.24-11.563-5.78 0-8.866 17.345-14.648 26.595-8.866 12.334 7.71 9.25 23.51-17.345 80.17-14.26 30.835-27.366 55.888-28.523 55.888-4.625 0-53.962-109.848-53.962-119.87 0-15.803 11.948-22.74 28.523-16.573z"/></svg>