<svg xmlns="http://www.w3.org/2000/svg" width="1024" height="1024" viewBox="0 0 1024 1024"><path d="M513.19 19.008c2.14 25.66-1.9 58.21-13.304 109.052-5.227 23.284-10.217 48.943-10.93 57.02l-1.662 14.494-2.85-16.63c-1.664-9.266-4.753-33.738-6.89-54.646-4.278-43.24-9.504-65.81-21.146-88.62C448.805 24.71 429.323 0 432.174 9.028c9.265 29.462 11.167 65.1 7.603 145.404l-2.138 49.893-6.89-20.195c-3.804-11.167-10.22-33.5-14.02-49.656-8.077-32.074-16.87-55.358-27.084-71.513-7.127-11.402-31.6-38.012-34.687-38.012-.95 0 .95 6.177 4.276 13.542 10.217 23.283 16.87 55.12 22.095 106.676 2.85 27.322 5.94 53.932 7.128 59.16s2.137 10.453 2.137 11.878c0 5.227-17.107-28.035-29.7-57.733-21.144-49.654-37.063-72.937-63.197-92.18-17.107-12.356-20.907-13.306-14.017-2.85 17.583 26.845 28.036 53.692 43.24 111.9 6.417 24.473 13.307 48.47 15.207 53.22s3.087 9.028 2.612 9.503c-1.426 1.425-26.61-33.737-42.53-59.87-23.52-38.252-52.743-65.812-83.392-78.404l-9.027-3.803 6.416 7.84c25.66 31.6 38.727 54.407 60.822 105.488 6.415 15.443 16.156 36.113 21.145 45.854l9.265 17.82-16.63-16.633c-9.266-9.028-25.423-26.372-36.114-38.727-32.312-37.302-60.11-57.26-91.946-65.575-7.127-1.9-13.067-3.088-13.305-2.85-.475.237 5.227 5.464 12.355 11.166 7.127 5.94 18.77 17.584 26.134 26.136 12.592 14.968 18.294 22.81 56.308 80.78 9.98 14.968 19.957 29.936 22.333 33.262 5.465 7.365-15.68-7.127-43.48-29.7-31.36-26.133-46.566-37.063-61.297-44.428-15.443-7.84-45.38-16.157-58.21-16.157h-8.314l13.305 8.078c30.173 18.06 50.13 36.59 96.46 89.57 13.304 15.207 27.084 29.463 30.41 31.84 3.327 2.137 5.702 4.513 4.99 4.99-1.663 1.662-31.837-13.78-61.535-31.6-30.41-18.294-53.22-28.27-75.078-32.787-18.294-4.04-40.39-4.514-45.616-1.188-3.087 1.9-3.087 2.375 0 2.375 6.416 0 46.568 21.144 64.15 33.736 9.74 6.89 31.123 23.76 47.516 37.54 16.394 13.54 34.45 27.56 40.152 31.36 5.94 3.565 9.98 6.653 9.028 6.653-4.277 0-44.19-13.78-69.613-23.998-15.917-6.415-36.112-13.305-45.14-15.443-19.72-4.753-55.12-5.228-69.85-.95l-10.692 3.087 20.907 5.465c25.184 6.89 47.517 16.394 73.65 31.6 50.132 28.985 70.09 40.15 77.217 43.002 4.277 1.663 7.365 3.327 6.89 3.802-1.425 1.425-53.694-7.84-75.315-13.305-28.036-7.126-70.09-9.027-89.57-4.04-8.08 2.14-18.77 5.704-23.76 7.84l-9.028 4.04 19.243 1.9c29.7 2.85 56.783 10.218 100.262 27.323 21.858 8.79 47.28 18.294 56.308 21.382l16.63 5.702-43.953-1.9c-24.234-.95-54.407-1.425-67-1.188-32.073.474-65.097 9.98-81.49 23.283-4.515 3.564-3.565 3.564 14.254 2.375 25.184-2.14 58.21 1.9 104.538 12.354 20.907 4.752 46.567 9.742 57.02 11.167l19.008 2.85-27.322 4.04c-14.967 2.138-39.676 4.99-54.644 6.415-32.55 3.088-56.308 9.028-77.928 19.957C24.71 575.196 0 594.678 9.028 591.827c29.462-9.265 65.1-11.167 145.404-7.603l49.893 2.138-20.195 6.89c-11.167 3.802-33.5 10.217-49.656 14.017-32.074 8.076-55.358 16.867-71.513 27.083-11.402 7.127-38.012 31.6-38.012 34.687 0 .95 6.177-.95 13.78-4.276 23.046-10.217 54.883-16.87 106.44-22.095 27.32-2.853 53.93-5.94 59.158-7.13s10.692-2.374 11.88-2.374c5.226 0-25.66 16.156-57.972 30.174-52.27 22.81-72.464 36.59-92.183 63.2-12.116 16.868-12.83 20.43-2.374 13.78 26.61-17.583 53.457-28.036 111.665-43.242 24.473-6.415 48.47-13.305 53.22-15.205s9.028-3.088 9.503-2.613c1.425 1.425-33.737 26.61-59.87 42.528-38.252 23.52-65.812 52.744-78.404 83.393l-3.803 9.03 7.84-6.415c31.6-25.66 54.407-38.727 105.488-60.822 15.443-6.415 36.113-16.156 45.854-21.145l17.82-9.265-16.633 16.63c-9.028 9.266-26.372 25.423-38.727 36.114-37.302 32.312-57.26 60.11-65.575 91.946-1.9 7.127-3.088 13.067-2.85 13.305.237.475 5.464-5.227 11.166-12.355 5.94-7.127 17.584-18.77 26.136-26.134 14.968-12.593 22.81-18.295 80.78-56.31 14.968-9.98 29.936-19.956 33.262-22.332 7.365-5.465-7.127 15.68-29.7 43.48-26.133 31.36-37.063 46.566-44.428 61.297-7.84 15.443-16.157 45.38-16.157 58.21v8.314l8.553-14.256c17.582-29.46 31.6-44.666 80.78-87.907 19.72-17.344 37.776-34.45 39.914-37.776 2.375-3.563 4.752-5.94 5.227-5.226 1.663 1.663-13.78 31.837-29.936 58.684-18.53 30.65-24.707 43.48-30.647 62.96-5.702 18.295-8.79 47.043-6.415 57.26 1.663 5.94 2.375 5.226 9.503-11.405 13.543-30.886 25.898-49.18 66.525-98.123 13.067-15.68 26.61-33.263 30.41-38.965 3.565-5.94 6.653-9.98 6.653-9.265 0 4.277-11.642 38.25-22.81 66.286-6.89 17.82-14.492 39.677-16.63 48.706-4.752 19.72-5.227 55.12-.95 69.85l3.088 10.692 5.465-20.907c6.89-25.184 16.395-47.517 31.6-73.65 28.986-50.132 40.15-70.09 43.003-77.217 1.663-4.277 3.327-7.365 3.802-6.89 1.425 1.425-7.84 53.694-13.305 75.315-7.128 28.035-9.03 70.088-4.04 89.57 2.138 8.078 5.702 18.77 7.84 23.76l4.04 9.027 1.9-19.244c2.85-29.7 10.216-56.783 27.32-100.262 8.79-21.858 18.295-47.28 21.383-56.308l5.702-16.63-1.9 43.953c-.95 24.236-1.425 54.41-1.188 67 .475 32.075 9.98 65.1 23.284 81.493 3.566 4.514 3.566 3.564 2.377-14.255-2.138-25.184 1.9-58.21 12.355-104.538 4.753-20.908 9.743-46.568 11.168-57.022l2.85-19.007 4.04 27.324c2.138 14.968 4.99 39.677 6.415 54.645 3.088 32.55 9.028 56.307 19.957 77.927 7.603 14.968 27.085 39.677 24.234 30.65-9.265-29.462-11.167-65.1-7.603-145.404l2.14-49.893 6.89 20.194c3.8 11.167 10.216 33.5 14.016 49.656 8.077 32.074 16.87 55.358 27.084 71.513 7.128 11.404 31.6 38.014 34.688 38.014.95 0-.95-6.177-4.277-13.78-10.216-23.046-16.868-54.883-22.094-106.44-2.85-27.32-5.94-53.93-7.126-59.158s-2.14-10.694-2.14-11.88c0-5.228 17.108 28.034 29.7 57.732 21.145 49.656 37.064 72.94 63.198 92.183 17.107 12.355 20.907 13.305 14.017 2.613-17.583-26.61-28.036-53.458-43.24-111.666-6.417-24.472-13.307-48.468-15.207-53.22s-3.09-9.027-2.614-9.502c1.424-1.425 26.61 33.737 42.527 59.87 23.52 38.252 52.744 65.812 83.393 78.404l9.028 3.802-6.415-7.84c-25.66-31.6-38.727-54.407-60.822-105.488-6.414-15.443-16.155-36.113-21.144-45.854l-9.265-17.82 16.63 16.632c9.267 9.028 25.424 26.372 36.115 38.727 32.312 37.3 60.11 57.258 91.946 65.574 7.128 1.9 13.068 3.087 13.306 2.85.475-.238-5.227-5.465-12.355-11.167-7.126-5.94-18.77-17.582-26.133-26.134-12.592-14.97-18.294-22.81-56.308-80.78-9.98-14.97-19.958-29.937-22.334-33.263-5.465-7.365 15.68 7.127 43.48 29.7 31.36 26.133 46.566 37.063 61.297 44.428 15.443 7.84 45.38 16.157 58.21 16.157h8.314l-13.305-8.077c-30.175-18.057-50.132-36.59-96.46-89.57-13.306-15.205-27.086-29.46-30.412-31.837-3.327-2.138-5.702-4.514-4.99-4.99 1.663-1.663 31.837 13.78 58.684 29.936 30.65 18.53 43.48 24.71 62.96 30.65 18.295 5.7 47.043 8.79 57.26 6.413 5.94-1.663 5.226-2.375-11.405-9.503-30.887-13.542-49.18-25.897-98.124-66.524-15.68-13.068-33.262-26.61-38.964-30.412-5.94-3.564-9.98-6.652-9.265-6.652 4.277 0 38.25 11.642 66.286 22.81 17.82 6.89 39.678 14.492 48.707 16.63 19.72 4.752 55.12 5.227 69.85.95l10.692-3.088-20.908-5.465c-25.184-6.89-47.517-16.395-73.65-31.6-50.132-28.986-70.09-40.15-77.217-43.003-4.277-1.662-7.365-3.326-6.89-3.8 1.425-1.426 53.694 7.84 75.315 13.304 28.035 7.128 70.088 9.03 89.57 4.04 8.078-2.14 18.77-5.702 23.76-7.84l9.027-4.04-19.245-1.9c-29.7-2.85-56.783-10.216-100.262-27.32-21.857-8.79-47.04-18.295-56.307-21.383l-16.63-5.702 43.953 1.9c24.233.95 54.406 1.425 67 1.188 32.072-.475 65.096-9.98 81.49-23.284 4.514-3.565 3.564-3.565-14.255-2.376-25.66 2.138-58.21-1.9-109.052-13.305-23.284-5.228-48.943-10.218-57.02-10.93l-14.494-1.663 16.63-2.85c9.265-1.664 33.737-4.753 54.645-6.89 43.24-4.278 65.81-9.504 88.62-21.146 14.968-7.602 39.677-27.084 30.65-24.233-29.462 9.265-65.1 11.167-145.404 7.603l-49.892-2.138 20.195-6.89c11.167-3.802 33.5-10.217 49.656-14.017 32.073-8.078 55.357-16.87 71.512-27.085 11.403-7.127 38.013-31.6 38.013-34.687 0-.95-6.177.95-13.542 4.277-23.283 10.217-55.12 16.87-106.676 22.095-27.322 2.85-53.932 5.94-59.16 7.127s-10.453 2.375-11.878 2.375c-5.228 0 25.66-16.156 57.97-30.174 52.27-22.81 72.464-36.59 92.183-63.198 12.117-16.87 12.83-20.432 2.613-13.78-26.847 17.582-53.694 28.035-111.903 43.24-24.472 6.416-48.468 13.306-53.22 15.206s-9.027 3.09-9.502 2.614c-1.424-1.425 33.738-26.61 59.87-42.528 38.253-23.522 65.813-52.745 78.405-83.394l3.802-9.028-7.84 6.415c-31.6 25.66-54.407 38.726-105.488 60.82-15.444 6.416-36.114 16.157-45.855 21.146l-17.82 9.265 16.632-16.63c9.028-9.265 26.372-25.422 38.727-36.113 37.302-32.31 57.26-60.108 65.575-91.945 1.9-7.127 3.087-13.067 2.85-13.305-.238-.475-5.465 5.227-11.167 12.355-5.94 7.127-17.583 18.77-26.135 26.134-14.968 12.59-22.81 18.293-80.78 56.307-14.968 9.98-29.936 19.957-33.262 22.333-7.365 5.465 7.127-15.68 29.7-43.48 26.133-31.36 37.063-46.566 44.428-61.297 7.84-15.444 16.157-45.38 16.157-58.21v-8.31l-8.077 13.304c-18.058 30.174-36.59 50.13-89.57 96.46-15.206 13.305-29.462 27.085-31.838 30.41-2.138 3.328-4.514 5.703-4.99 4.99-1.663-1.662 13.78-31.836 31.6-61.534 18.293-30.41 28.27-53.22 32.786-75.078 4.04-18.294 4.515-40.39 1.19-45.616-1.9-3.088-2.376-3.088-2.376 0 0 6.415-21.144 46.567-33.736 64.148-6.89 9.742-23.76 31.124-37.54 47.517-13.54 16.396-27.56 34.45-31.36 40.154-3.565 5.94-6.653 9.98-6.653 9.028 0-4.276 13.78-44.19 23.997-69.612 6.415-15.918 13.305-36.113 15.443-45.14 4.752-19.72 5.227-55.12.95-69.85l-3.088-10.693-5.465 20.907c-6.89 25.184-16.394 47.517-31.6 73.65-28.985 50.132-40.15 70.09-43.002 77.217-1.663 4.277-3.327 7.365-3.802 6.89-1.425-1.425 7.84-53.694 13.305-75.315 7.127-28.035 9.028-70.088 4.04-89.57-2.14-8.078-5.703-18.77-7.84-23.76l-4.04-9.027-1.9 19.244c-2.85 29.7-10.217 56.784-27.322 100.263-8.79 21.858-18.293 47.042-21.38 56.308l-5.703 16.632 1.9-43.954c.95-24.233 1.425-54.406 1.188-67-.475-32.072-9.98-65.096-23.284-81.49-3.563-4.514-3.563-3.564-2.374 14.255zm61.774 192.445c120.694 26.847 211.69 118.318 238.06 239.25 5.94 27.796 5.94 94.796 0 122.593-16.868 76.503-61.297 144.69-123.306 188.88-33.024 23.522-80.305 43.717-121.882 51.795-24.947 4.99-92.183 4.28-117.13-.95-76.265-16.63-144.69-61.296-188.88-123.305-23.522-33.024-43.717-80.305-51.795-121.882-4.275-22.095-4.275-89.57 0-111.665C235.455 326.445 337.38 228.56 468.05 207.89c20.194-3.09 86.956-.95 106.913 3.563z"/><path d="M462.11 243.527c-29.46 6.177-58.446 17.582-81.017 31.6l-19.957 12.116 26.134 2.85c42.528 4.515 96.698 17.583 117.842 28.51 5.702 2.852 8.553 2.376 28.986-4.99 38.727-13.78 91.946-24.946 120.694-24.946h10.454l-5.94-4.752c-9.742-7.84-46.804-26.134-64.86-32.312-38.728-13.305-93.135-16.63-132.337-8.078zm-125.445 64.86c-2.85 3.09-5.227 6.178-5.227 6.89s9.265 1.9 20.907 2.85c27.085 2.14 59.87 9.03 89.333 19.01l23.76 8.314 9.264-5.463 9.265-5.702-19.957-7.127c-31.837-11.404-68.188-19.244-107.864-23.046-12.83-1.187-14.73-.712-19.482 4.278zm317.89-2.85c-27.322 3.09-53.22 9.03-80.78 17.82-33.024 10.69-33.737 11.167-22.333 17.107l9.265 4.752 27.56-9.265c28.747-9.5 75.078-18.767 95.035-18.767 13.067 0 14.017-1.663 6.177-9.028-5.94-5.702-7.605-5.702-34.927-2.613zM311.718 335.71c-4.514 4.753-4.277 4.99 4.752 6.416 33.024 4.99 64.623 12.117 85.768 19.244l24.472 8.315 7.365-4.514c8.078-5.225 9.742-4.275-21.382-14.966-23.76-8.078-57.258-15.443-80.066-17.582-14.968-1.424-17.107-1.187-20.907 3.09zm361.842-.712c-31.598 5.465-80.304 19.482-86.242 24.947-.95.95.95 3.564 4.514 5.94 6.415 4.04 6.89 4.04 31.837-4.514 26.37-8.79 66.522-18.055 79.35-18.055 10.693 0 14.97-3.327 11.168-8.078-3.803-4.514-15.444-4.514-40.628-.238zm47.52 21.858c-27.086 3.564-93.61 22.333-99.074 27.797-.713.713 9.98 12.117 23.52 25.66 46.33 45.615 84.344 104.537 104.3 161.557 1.664 4.99 3.803 8.315 4.753 7.127 5.463-5.465 12.115-42.053 13.303-72.464 1.9-49.18-5.227-84.818-26.134-127.11-10.693-21.857-12.356-23.52-20.67-22.57zm-430.983 10.69c-28.986 49.657-40.864 118.556-29.7 172.964 4.515 21.858 9.98 40.627 11.643 38.727.95-.95 4.04-8.315 7.127-16.156 22.57-58.444 60.584-114.752 106.202-157.993 11.165-10.454 19.955-19.482 19.48-19.957-1.425-1.19-32.55-12.356-46.09-16.632-14.73-4.752-46.806-10.93-55.835-10.93-5.702 0-8.078 1.9-12.83 9.98zm123.07 52.27c-50.13 48.47-84.342 103.113-105.25 167.26-14.016 43.005-14.016 42.768-2.137 59.16l9.98 14.018 5.464-26.134c15.443-74.127 50.368-139.463 104.063-195.533l27.085-28.035-9.503-5.227-9.505-5.465-20.195 19.957zm168.45-14.493c-4.278 2.85-7.84 5.227-7.84 5.702s7.126 7.603 15.68 15.918c57.257 54.645 99.55 130.672 114.99 206.225 2.614 12.83 4.753 23.996 4.753 24.947 0 1.9 8.79-8.553 16.156-19.244l4.99-7.363-5.702-21.62c-15.68-58.684-43.716-112.38-83.63-160.133-14.493-17.344-47.042-49.418-50.368-49.418-.713 0-4.99 2.375-9.028 4.99zM468.523 436.21c-4.752 3.802-16.87 16.87-26.847 28.986-51.794 61.773-82.68 132.81-90.758 209.076l-1.9 18.532 9.5 6.89c5.228 4.04 10.218 7.127 10.93 7.127.95 0 2.375-9.026 3.327-20.193 6.177-82.68 43.003-166.31 99.31-225.707 16.395-17.345 18.533-20.67 15.92-23.997-6.653-7.84-10.455-8.078-19.483-.713zm71.514-1.663l-6.415 5.702 4.99 4.275c10.692 9.503 39.44 43.954 50.606 60.347 35.874 53.694 56.306 110.952 63.196 176.29 1.188 13.54 2.85 24.708 3.327 25.183s5.227-2.138 10.454-5.702c11.167-8.078 11.642-11.404 6.415-43.954-12.83-78.167-47.517-148.967-100.737-204.325-12.355-13.067-23.046-23.52-23.996-23.52-.714 0-4.278 2.612-7.84 5.7z"/><path d="M501.31 471.848c-57.257 61.06-89.807 139.7-95.27 229.984l-1.664 25.422 11.88 5.227c34.45 14.73 81.966 21.86 119.98 17.584 26.61-2.85 54.17-9.503 71.75-16.87l10.93-4.75V705.16c0-81.018-35.876-170.113-94.085-233.31l-11.64-12.59-11.88 12.59z"/></svg>