<?xml version="1.0" encoding="utf-8"?>
<!-- Generated by IcoMoon.io -->
<!DOCTYPE svg PUBLIC "-//W3C//DTD SVG 1.1//EN" "http://www.w3.org/Graphics/SVG/1.1/DTD/svg11.dtd">
<svg version="1.1" xmlns="http://www.w3.org/2000/svg" xmlns:xlink="http://www.w3.org/1999/xlink" width="1024" height="1024" viewBox="0 0 1024 1024"><g id="icomoon-ignore">
</g>
<path d="M67.774 216.615l-67.774 101.743 17.066 11.323 17.066 11.487 68.103-102.4 68.266-102.236-16.411-10.831c-8.862-5.908-16.738-10.831-17.395-10.831-0.82 0-31.836 45.785-68.923 101.743z"></path>
<path d="M869.415 125.866l-15.918 10.666 62.359 93.538 4.431-2.954c2.462-1.641 10.174-6.728 17.066-11.323l12.636-8.369-30.687-46.277c-16.903-25.436-31.343-46.112-32.328-46.112-0.82 0-8.862 4.923-17.559 10.831z"></path>
<path d="M119.303 250.257l-68.266 102.236 16.411 10.831c8.862 5.908 16.738 10.831 17.395 10.831 0.985-0.164 119.138-175.262 133.908-198.564l2.954-4.759-17.066-11.487-17.231-11.487-68.103 102.4z"></path>
<path d="M819.2 159.508l-16.903 11.323 2.789 4.431c30.359 46.605 132.923 198.892 133.908 198.892 0.657 0 8.697-4.923 17.559-10.831l16.411-10.831-67.446-101.251c-37.087-55.631-67.774-101.58-68.431-102.072-0.492-0.657-8.534 3.938-17.887 10.338z"></path>
<path d="M171.488 283.405c-36.923 55.466-67.446 101.58-67.774 102.4-0.82 2.134 32.328 23.631 33.969 21.826 2.297-2.297 133.251-199.385 134.072-201.354 0.492-1.641-6.892-7.057-28.718-21.169l-4.266-2.626-67.282 100.923z"></path>
<path d="M768.328 193.313c-9.189 6.072-16.738 11.323-16.738 11.815s13.949 21.662 30.851 47.097l30.851 46.277 16.738-10.995c9.189-6.072 16.738-11.323 16.738-11.815s-13.949-21.662-30.851-47.097l-30.851-46.277-16.738 10.995z"></path>
<path d="M945.231 235.488c-8.534 5.58-15.754 11.159-16.082 11.98-0.328 0.985 13.292 22.318 30.195 47.754l30.523 45.949 17.066-11.487 17.066-11.323-31.18-46.769c-17.231-25.764-31.343-46.769-31.672-46.605-0.164 0-7.385 4.759-15.918 10.503z"></path>
<path d="M841.354 304.411c-8.697 5.908-15.918 11.159-15.918 11.487 0 0.985 58.749 89.436 60.882 91.734 1.149 1.312 31.508-17.231 33.641-20.512 0.82-1.312-59.897-93.374-61.538-93.374-0.492 0-8.205 4.759-17.066 10.666z"></path>
<path d="M119.303 626.051c-8.697 5.908-15.918 10.995-15.918 11.487s30.523 46.605 67.774 102.564l67.774 101.58 16.411-10.831c8.862-5.908 16.574-10.995 16.903-11.323 0.82-0.82-134.564-204.143-135.877-204.143-0.492 0-8.205 4.759-17.066 10.666z"></path>
<path d="M855.959 661.497c-16.903 25.436-30.195 46.769-29.374 47.426 5.743 5.251 32.328 21.334 33.312 20.185 2.134-2.297 60.718-90.585 60.718-91.569 0-0.82-28.554-20.185-31.672-21.497-1.477-0.492-13.292 15.918-32.985 45.457z"></path>
<path d="M66.954 660.841l-15.918 10.666 31.18 46.605c20.841 31.343 31.836 46.277 33.149 45.62 2.134-1.312 31.015-20.512 32-21.334 1.149-0.82-61.211-92.554-62.851-92.389-0.82 0-8.862 4.923-17.559 10.831z"></path>
<path d="M906.831 695.959c-16.903 25.436-30.523 46.277-30.195 46.605 0.985 0.657 30.031 20.020 32 21.169 1.312 0.657 12.308-14.277 33.149-45.62l31.18-46.605-16.411-10.831c-8.862-5.908-16.903-10.831-17.559-10.831-0.82 0-15.262 20.677-32.164 46.112z"></path>
<path d="M16.903 694.318l-16.903 11.323 67.774 101.743c37.087 55.959 68.103 101.743 68.923 101.743 0.657 0 8.534-4.923 17.395-10.831l16.411-10.831-67.446-101.251c-37.087-55.631-67.774-101.58-68.431-102.072-0.492-0.657-8.534 3.938-17.723 10.174z"></path>
<path d="M959.343 728.78c-16.738 25.108-30.523 46.441-30.523 47.097 0 0.82 7.385 6.4 16.411 12.308l16.411 10.995 62.359-93.538-17.066-11.323-17.066-11.487-30.523 45.949z"></path>
<path d="M782.112 772.103c-17.066 25.764-30.687 47.097-30.359 47.426s8.041 5.415 16.903 11.323l16.411 10.831 30.851-46.277c16.903-25.436 30.851-46.605 30.851-47.097-0.164-0.82-30.359-21.826-32.657-22.482-0.492-0.164-14.934 20.677-32 46.277z"></path>
<path d="M142.277 770.626c-8.697 5.908-15.918 11.487-15.918 12.308s13.785 22.154 30.523 47.262l30.523 45.949 17.231-11.487 17.066-11.487-2.954-4.595c-13.62-21.497-58.912-88.78-59.734-88.78-0.492 0-8.041 4.923-16.738 10.831z"></path>
<path d="M836.103 801.805c-15.262 23.138-29.211 44.143-30.851 46.769l-2.954 4.595 17.066 11.487 17.231 11.487 30.523-45.949c16.738-25.108 30.523-46.441 30.523-47.097 0-1.149-31.836-23.466-33.149-23.303-0.328 0-12.964 19.036-28.389 42.011z"></path>
<path d="M884.677 840.697l-31.18 46.769 16.411 10.831c8.862 5.908 16.738 10.831 17.395 10.831 0.82 0 15.097-20.841 32-46.277l30.687-46.277-12.636-8.369c-6.892-4.595-14.605-9.682-17.066-11.323l-4.431-2.954-31.18 46.769z"></path>
</svg>
