<svg xmlns="http://www.w3.org/2000/svg" width="1024" height="1024" viewBox="0 0 1024 1024"><path d="M504.54 12.93c-1.407 2.814-3.377 8.444-4.222 12.385-1.126 4.222-6.474 10.977-11.822 14.92-6.193 4.784-12.947 14.354-18.014 25.05-6.756 15.482-21.955 32.933-28.147 32.933-1.407 0-5.63 4.785-9.57 10.696-5.348 8.444-10.696 12.103-23.643 16.89-21.673 7.88-37.718 24.77-32.088 34.058 1.407 2.252 5.067 1.407 13.51-3.096 9.852-5.348 12.947-5.91 27.585-3.377l16.605 2.53 4.785 22.52c6.757 32.087 3.097 35.465-23.08 21.11-8.443-4.504-16.888-8.445-18.858-8.445s-12.103 5.067-22.236 11.26l-18.577 11.258 12.383 5.348 12.103 5.63-13.792 6.194c-7.88 3.377-17.452 6.193-21.673 6.474-9.006.28-9.57 2.25-3.376 11.54 4.222 6.473 4.222 7.036-.563 8.725-16.325 5.91-40.53 18.014-40.53 20.266 0 1.69 10.413 4.222 23.36 6.193 19.704 2.814 25.615 2.814 39.97-.844 9.29-2.534 23.643-5.35 31.525-6.475 14.355-1.69 14.92-1.69 17.733 5.91 4.502 11.54 9.85 48.977 7.318 51.23-.844 1.125-5.63-.282-9.852-2.815-9.007-5.347-24.207-6.473-27.022-1.97-3.096 4.786-18.296 3.097-29.836-3.376-13.51-7.6-22.8-4.222-29.836 10.414-5.348 11.26-9.852 12.103-21.955 4.222-11.54-7.6-20.83-7.037-29.836 1.69-4.22 3.94-13.79 10.413-21.39 14.072-9.01 4.222-11.54 6.474-7.6 6.756 9.57 0 23.923 5.91 22.797 9.57-1.407 4.222-18.014 9.852-30.68 9.852-7.6.28-19.422 5.348-42.784 18.577-37.718 21.673-41.376 25.052-33.777 30.962 8.163 6.19 12.385 5.065 14.355-4.505 1.97-10.414 7.6-13.23 14.638-7.037 6.192 5.63 11.258 5.63 18.295.28 3.096-2.533 11.54-4.222 19.14-4.222 8.444 0 18.296-2.252 25.333-5.91 10.977-5.63 12.103-5.63 23.08-1.408 10.977 4.503 11.822 4.222 19.422-1.407 5.067-3.66 10.414-5.347 14.073-4.22 35.748 9.007 40.814 11.26 42.503 18.86.844 4.22 2.252 10.976 3.377 15.2 1.97 7.88 1.69 7.88-8.726 6.192-9.007-1.407-11.26-.563-18.296 6.756-7.6 8.443-8.163 8.443-14.92 4.22-9.288-6.192-18.576-3.658-35.184 9.853-7.037 6.194-15.2 10.978-17.452 10.978-2.533 0-10.414-3.66-17.733-8.444l-13.23-8.444-3.376 7.037-3.096 7.036-4.223-5.91c-3.94-5.912-4.222-5.63-17.452 7.318l-13.23 13.23-5.63-7.6-5.347-7.6-10.414 16.044c-11.26 16.89-17.17 21.11-22.518 15.763-5.63-5.63-10.696-3.377-30.4 12.666-16.888 13.792-24.77 21.673-16.888 16.607 2.814-1.69 60.798-12.666 67.272-12.666 5.91 0-36.03 34.06-48.695 39.688l-11.26 5.067 12.104 1.97c14.918 2.25 16.325 4.784 9.288 14.636-4.503 6.473-7.32 7.88-14.355 6.755-5.91-.843-11.822.845-19.14 5.91-5.63 3.94-15.48 7.883-21.673 9.01-18.296 3.095-26.74 8.725-26.74 18.295 0 11.258 9.29 14.072 19.422 5.91 3.94-3.377 12.665-8.726 19.14-11.54 9.57-4.503 13.23-5.067 19.702-2.533 4.503 1.69 12.666 2.252 19.14 1.126 6.193-1.126 16.326-2.533 22.236-3.096 6.194-.563 16.608-3.096 23.363-5.63 12.667-5.067 20.548-2.533 20.548 6.474 0 3.097 3.66 3.378 19.14 1.97 15.763-1.688 19.985-3.095 24.77-9.288 5.91-6.756 6.756-7.037 16.326-3.66 9.007 3.378 11.26 3.097 17.17-.562 3.66-2.533 7.6-4.503 8.444-4.503.563 0 7.32 8.726 14.355 19.422 12.385 18.858 12.666 19.984 8.444 26.176-2.534 3.378-4.504 10.134-4.504 14.92 0 9.57-4.222 15.48-11.54 15.48-2.533 0-10.696 2.534-18.014 5.91-11.26 5.07-15.2 5.35-25.053 3.098-21.392-5.63-24.77-5.91-31.525-3.377-3.94 1.69-6.756 5.068-6.756 8.164 0 7.318-7.6 13.51-11.823 9.288-5.348-5.348-7.6-3.94-10.133 5.63-2.533 10.133-9.007 14.637-28.43 19.422-6.755 1.69-15.2 6.193-18.576 9.852-3.94 4.222-7.32 5.91-8.444 3.94-.844-1.407-11.822-2.814-25.333-2.814-23.36 0-23.924.28-33.494 9.852-11.26 11.26-14.637 10.977-30.68-3.377-5.63-5.067-11.54-9.29-12.947-9.29-3.66 0-14.356 13.793-14.356 18.297 0 1.97 4.222 4.222 9.29 5.067 4.784.564 16.888 4.223 26.458 7.88 14.637 5.63 18.296 6.195 23.925 3.098 6.193-3.377 8.444-2.533 25.896 9.007 24.206 16.327 31.242 16.608 45.035 1.69 11.82-12.947 14.636-13.51 29.835-5.63s21.11 7.037 36.873-4.503c12.385-9.007 14.355-9.57 23.362-7.037 9.007 2.252 11.26 1.69 21.673-6.193 6.474-5.067 14.073-10.696 16.607-12.666 4.503-3.095 5.348-2.25 8.163 9.853 4.785 18.295 14.355 34.06 29.273 48.13 16.327 14.638 44.756 29.274 53.48 27.304 3.378-1.126 10.134.28 14.638 2.533 4.785 2.534 11.822 4.504 15.763 4.504 10.697 0 20.548 9.008 27.867 25.615 5.067 12.385 5.91 18.577 5.067 39.125-.845 21.392-1.69 25.333-8.445 33.213-3.94 4.785-8.164 12.666-9.29 17.452-1.407 6.193-3.94 9.007-9.85 10.414-4.224 1.406-12.668 8.162-18.58 15.762-10.695 13.51-19.702 18.577-56.012 32.088-13.51 5.067-18.296 8.726-18.296 14.355 0 3.377 4.503 3.94 31.806 1.97 20.547-1.126 32.932-3.377 36.03-5.91 5.91-5.35 9.288-5.068 15.2 1.688 6.755 7.32 36.31 8.163 44.19 1.126 3.94-3.94 5.63-4.223 9.29-1.127s5.63 2.533 11.26-2.814l7.036-6.475 5.91 7.32c7.32 9.57 12.948 9.57 17.17.843l3.097-7.036 4.786 5.91c3.94 5.068 5.63 5.35 10.977 2.534 4.784-2.533 8.443-2.814 14.918-.563 16.045 5.63 48.977 1.407 56.014-7.037 5.912-7.037 23.08-4.785 31.526 3.94 7.32 7.6 8.726 7.88 22.8 5.91 8.162-1.125 17.732-3.376 21.39-5.347 4.786-2.533 7.882-2.25 15.764 1.407 5.348 2.533 17.733 4.503 28.43 4.785 29.272.844 36.59-3.377 31.524-17.17-2.252-5.348-3.377-5.91-6.756-3.096-4.785 3.94-13.51-1.126-40.25-23.925-11.823-10.132-16.327-12.384-21.956-10.976-8.726 2.252-18.014-5.348-18.014-14.92 0-6.755-9.57-27.865-21.673-47.005-6.475-10.134-7.038-12.667-5.068-32.37 3.66-38.843 13.792-54.888 45.036-71.494 21.11-11.26 46.725-32.088 50.102-41.376 1.407-3.658 2.252-3.658 5.348.564 1.97 2.533 5.63 8.444 8.444 12.947 7.037 12.95 15.48 16.89 41.376 19.705 22.518 2.252 23.925 1.97 31.806-4.503l7.88-6.755 18.297 9.29c15.48 8.162 18.86 9.006 23.08 5.91 13.793-9.57 17.734-10.133 31.244-5.067 40.532 15.763 84.724 20.547 106.116 11.822 5.067-2.252 11.822-3.377 14.637-2.814s9.57-1.407 14.92-4.785l9.85-6.192-9.006-3.095c-4.784-1.69-9.85-3.94-10.976-5.348-1.126-1.126-8.163-1.97-15.48-1.97-16.327 0-27.023-3.66-36.593-12.947l-7.036-6.756-9.29 11.26c-4.784 6.193-10.132 11.26-11.258 11.26-1.407 0-5.067-7.882-8.726-17.17l-6.193-17.453-15.763 1.69c-13.51 1.407-16.89.844-21.955-3.94s-7.32-5.35-11.823-2.814c-9.57 5.067-13.792 3.66-22.236-8.163-6.755-9.57-9.006-10.978-15.48-9.57-6.474 1.125-9.852-.564-19.14-10.134-8.163-8.445-12.947-11.26-16.326-9.853-9.57 3.94-12.947 2.533-22.236-10.696l-9.852-13.23h7.32c3.94 0 11.54 1.97 16.888 4.505 7.32 3.66 11.54 3.94 17.733 1.97 6.474-2.533 9.29-1.97 14.637 2.252 5.067 4.222 7.6 4.785 10.414 2.252 5.63-4.504 24.77-1.408 43.63 7.32 8.725 3.94 33.494 11.54 54.605 17.17 34.058 8.724 40.25 9.57 50.945 7.035 6.756-1.69 20.83-3.096 31.525-3.096 12.103 0 21.11-1.408 24.77-3.94 8.726-6.757 1.126-10.697-24.77-12.948-12.947-1.127-28.992-4.223-36.03-6.475-7.036-2.533-19.702-6.474-28.146-8.726-8.444-2.533-17.452-5.91-19.703-7.32-6.192-4.22 1.408-9.29 26.178-16.89 11.26-3.657 21.392-7.317 22.518-8.442s-7.88-5.348-20.547-9.57l-22.8-7.32-10.977 8.727c-10.696 8.444-11.54 8.726-16.326 4.503-6.474-5.91-18.296-6.193-23.08-.844-2.533 3.377-4.785 3.66-10.133 1.126-7.037-3.378-10.133-1.69-13.23 7.318-1.688 5.067-7.318-1.407-14.072-16.326-8.444-18.014-22.236-28.43-42.784-32.37-9.29-1.688-16.043-5.066-20.265-9.85-9.29-10.978-26.46-10.415-34.622 1.406-5.63 7.88-7.32 8.444-17.17 6.756-11.26-1.97-13.51-1.126-39.97 14.073-7.318 4.222-14.072 7.037-14.918 6.193-1.97-1.69 10.133-81.346 12.666-84.16 1.127-1.408 9.57-3.097 18.86-3.94 15.2-1.69 18.577-.845 34.06 7.036 9.57 4.785 18.013 9.852 19.14 11.54 2.813 4.785 6.473 3.096 8.162-3.94 2.813-10.977 9.57-10.977 27.302-.563 17.17 10.133 19.422 9.57 19.422-5.067 0-6.193.563-6.474 16.326-3.94 8.726 1.126 21.955 4.222 29.273 6.474s21.11 4.222 30.962 4.222c11.54 0 21.955 1.97 29.836 5.63 14.074 6.193 14.074 5.91.564-11.822-9.29-12.666-10.696-13.23-23.362-13.51-15.2 0-19.422-1.97-38-16.044-11.54-8.726-14.354-9.57-25.05-8.163-11.54 1.407-12.386 1.126-18.578-8.163-4.785-7.6-7.6-9.29-12.666-7.88-9.57 2.25-18.576-1.127-31.524-11.823s-18.577-12.103-27.022-5.63c-8.725 6.756-15.2 5.348-15.48-3.66 0-7.6-.28-7.6-3.096-1.406-4.222 8.728-12.385 8.165-18.014-1.405-2.533-4.222-8.444-13.23-12.947-19.985s-7.6-12.667-7.037-13.51c.844-.564 10.696 3.376 21.955 9.006 19.14 9.852 21.11 10.133 30.963 7.037 5.91-1.97 14.637-2.814 19.703-1.69 7.32 1.408 9.853.564 13.23-4.22 3.94-5.63 5.91-5.912 26.46-4.504 17.17 1.405 21.954 1.124 21.954-1.97 0-2.535 4.502-3.66 15.48-3.66 12.385 0 16.326 1.125 21.392 6.473 7.037 7.6 10.977 8.726 10.977 2.814 0-4.503-16.327-19.422-27.586-25.333-4.222-1.97-13.51-4.503-20.83-5.63s-13.79-3.66-14.636-5.91c-.843-2.253-5.066-4.223-9.29-4.223-10.975 0-14.635-3.095-23.08-18.576-8.442-15.763-16.605-18.577-31.24-10.977-11.54 5.91-20.83 3.66-28.71-7.037-6.194-8.443-14.356-10.976-17.734-5.63-3.096 5.068-9.852 2.815-11.54-3.94-.844-3.94-3.94-9.006-6.756-11.54-4.785-4.502-5.91-4.502-14.355-.28-5.067 2.533-9.852 4.503-10.977 4.503-1.407 0 18.577-63.332 21.11-66.99.28-.282 11.26 1.97 24.207 5.066 49.54 11.82 78.53 2.53 43.91-14.357-8.726-4.222-15.2-10.696-22.8-22.518-5.91-9.29-12.102-17.452-13.51-18.296-1.406-1.127-12.946 3.095-25.05 8.725-12.386 5.91-23.363 9.852-24.208 8.726-2.533-2.532 3.377-13.79 13.23-25.05 9.288-10.697 9.288-16.045 0-16.045-2.815 0-7.038-2.252-9.008-5.067-5.63-7.882-10.134-9.57-16.045-6.475-3.94 2.252-6.193 1.97-9.007-1.407-8.163-9.852-13.23-10.133-34.06-1.126-21.39 9.007-28.99 10.133-31.805 5.63-1.69-2.814 2.252-29.273 7.32-48.132l2.532-10.133 14.637 3.66c8.162 2.25 23.924 3.94 34.902 3.94h20.266L609.816 133.7c-9.29-9.852-21.673-20.266-27.022-22.8-5.348-2.813-12.666-7.6-16.044-10.695-7.6-6.756-23.643-38.28-31.806-62.488-8.726-25.334-23.925-37.72-30.4-24.77zm24.207 154.53l-.844 27.302-12.666 3.66c-6.756 1.97-12.947 3.095-13.51 2.532-.844-.563 1.407-13.23 4.785-27.585 4.785-21.11 7.32-27.024 12.385-29.557 3.377-1.69 7.32-3.096 8.444-3.096 1.128-.28 1.69 11.822 1.41 26.74zm-47.287-19.986c9.29 4.785 9.57 6.756 6.474 38.562-1.407 17.733-2.252 19.14-8.163 19.14-3.657 0-7.88-2.252-9.287-5.067-4.503-8.446-14.637-51.23-12.947-54.045 2.533-4.222 14.637-3.377 23.925 1.407zm38.843 135.67c-.844 12.103-1.97 24.49-1.97 27.585-.28 5.065-1.97 5.63-13.51 5.63l-13.51-.283-1.97-15.48c-4.503-38-4.222-38.28 20.266-38.844l12.945-.28-2.252 21.672zm-53.198.563c3.096 9.007 5.91 20.547 5.91 25.614 0 8.165-.562 9.01-6.755 7.32-5.067-1.125-9.29.28-15.48 5.63l-8.727 7.32v-9.57c0-5.067-2.252-17.733-5.067-28.147l-5.348-18.577 11.54-2.814c6.474-1.406 12.947-2.813 14.637-3.095 1.69 0 5.91 7.037 9.29 16.326zm108.367.563c-.28 3.66-2.252 16.607-4.222 28.43-4.222 24.206-7.037 26.458-21.11 17.17-7.037-4.504-7.32-5.35-5.348-23.08.844-10.134 2.252-22.52 3.096-27.304l1.69-8.726 12.946 3.377c11.26 3.096 13.23 4.503 12.947 10.133zm58.828-3.377c1.97 1.97-15.2 54.888-18.86 58.546-.562.56-5.066-.846-9.85-3.38-10.134-5.066-10.978-12.102-5.63-43.064l3.095-18.014 14.637 1.69c7.88 1.125 15.48 3.095 16.607 4.22zM460.35 408.4c.843 5.067 1.97 16.89 2.25 26.177l.564 16.89-14.92-.282c-8.443-.28-16.043-1.69-17.45-2.814-1.127-1.405-3.097-9.57-3.94-18.012l-1.69-15.48 11.822-7.6c16.326-10.415 21.392-10.134 23.362 1.125zm49.257 1.97c6.756 5.067 8.726 10.696 12.666 37.718l1.69 13.51-12.948-10.133c-7.32-5.348-15.48-9.852-18.577-9.852-6.474 0-7.037-1.69-9.29-23.643l-1.688-16.326 10.414 1.69c5.91 1.125 13.792 4.22 17.733 7.036zm58.546 6.474c8.726 5.348 9.007 6.193 9.007 23.643V458.5l-11.26 5.63c-16.043 8.164-18.858 7.32-20.828-6.473-6.474-46.725-5.91-51.51 6.193-48.413 4.222.844 11.822 4.503 16.89 7.6zm60.517 6.755c22.518 5.63 22.518 5.63 15.2 13.51-3.377 3.657-9.007 9.85-12.666 14.07-3.66 3.94-11.26 8.445-16.89 10.134-18.576 5.067-18.858 4.785-19.42-17.17-.282-11.26 0-21.392.843-22.518 2.252-3.66 13.792-3.096 32.932 1.97zm4.786 138.202c0 15.763-4.222 50.946-7.037 60.235-1.128 3.377-4.787 4.503-14.357 4.222l-12.947-.28 1.69-12.387c.843-6.756 1.688-24.207 1.688-38.562v-26.176l13.51-1.126c7.32-.564 14.073-1.127 15.48-1.408 1.127-.28 1.97 6.756 1.97 15.48zm-55.45 14.073c1.97 36.03-.282 49.82-8.445 50.946-3.375.564-9.85-1.125-14.635-3.66-10.133-5.065-10.414-8.724-4.222-35.183 9.007-39.406 9.007-39.406 17.733-39.406h7.88l1.69 27.304zM523.4 559.55c6.19 4.786 6.754 6.475 4.783 21.674-3.096 26.46-4.222 28.71-17.452 35.466-6.755 3.378-12.946 5.35-13.79 4.786-2.534-2.533-9.853-34.903-9.853-43.347.28-6.758 2.533-9.854 12.103-16.046 14.074-9.29 15.482-9.29 24.208-2.533zm-79.66 11.26c1.407 1.407 6.193 3.096 10.696 3.66 8.163.843 8.444 1.406 13.23 26.176 7.6 38.843 3.94 44.192-21.956 32.65-13.23-6.192-16.326-13.51-19.422-46.16l-1.97-18.86h8.444c4.503 0 9.29 1.126 10.977 2.533zm-105.834 3.94c0 1.127 14.355 1.127 31.806.282l32.088-1.97 1.69 13.51c1.125 7.32 1.97 20.547 1.97 29.555 0 15.763 0 15.763-7.6 14.92-4.504-.564-12.386 1.406-17.734 4.22-9.57 5.35-9.852 5.35-22.236-1.125-14.073-7.6-19.985-8.444-25.333-3.377-3.097 2.814-3.94 2.814-5.068.28-.564-1.97-8.727-15.2-17.734-29.554-9.57-15.48-15.2-27.02-13.51-27.864 4.22-2.533 41.657-1.69 41.657 1.126zm263.178 151.152c1.97 3.377-12.666 53.48-15.763 53.48-4.22 0-17.17-25.333-18.576-36.03-1.407-10.413-1.126-11.258 9.29-15.48 12.665-5.067 22.517-5.91 25.05-1.97zm57.984 21.392c2.252 2.814 0 7.037-9.007 16.607-12.102 13.23-27.302 25.335-29.272 23.645-1.126-1.407 3.66-47.006 5.91-54.043 1.408-4.502 2.815-4.22 15.482 2.534 7.6 4.222 15.2 9.29 16.89 11.26zm-278.66-1.69c7.038 0 7.6 1.127 9.29 16.045.844 9.005 2.533 22.516 3.377 30.397 1.69 13.792 1.69 14.073-3.66 9.007-3.095-2.533-8.162-4.785-11.54-4.785-7.88 0-10.695-6.194-13.228-26.74-1.127-9.29-2.534-19.423-3.378-22.237-1.127-4.503-.28-5.067 5.066-3.66 3.658 1.127 10.132 1.97 14.072 1.97z"/></svg>