<?xml version="1.0" encoding="utf-8"?>
<!-- Generated by IcoMoon.io -->
<!DOCTYPE svg PUBLIC "-//W3C//DTD SVG 1.1//EN" "http://www.w3.org/Graphics/SVG/1.1/DTD/svg11.dtd">
<svg version="1.1" xmlns="http://www.w3.org/2000/svg" xmlns:xlink="http://www.w3.org/1999/xlink" width="1018" height="1024" viewBox="0 0 1018 1024">
<g id="icomoon-ignore">
</g>
<path d="M506.691 21.955c-0.576 12.681-4.612 80.125-9.222 149.875s-8.647 135.463-8.647 146.417c0 10.952-1.153 18.447-3.459 16.717-1.729-1.729-18.447-43.233-36.892-91.654-19.023-48.997-34.011-85.313-34.586-81.854 0 4.035 6.341 46.692 14.41 95.113 8.071 47.845 13.259 88.195 12.105 89.349s-27.093-32.857-58.221-76.090c-30.552-42.657-56.492-77.82-57.644-77.82s13.259 34.586 32.857 76.090c44.962 100.301 46.692 104.335 37.469 99.147-3.459-2.305-34.011-26.516-67.444-53.033-90.501-73.785-85.313-69.749-74.361-55.914 4.612 6.341 31.128 38.621 58.221 72.056 26.516 33.433 50.726 63.985 53.033 67.444 5.188 9.222 1.153 7.493-98.571-37.469-42.080-19.598-76.666-34.011-76.666-32.857s35.162 27.093 77.82 57.644c43.233 31.128 77.244 57.068 76.090 58.221s-41.504-4.035-89.349-12.105c-48.421-8.071-91.078-14.41-95.113-14.41-3.459 0.576 32.857 15.564 81.854 34.586 48.421 18.447 89.925 35.162 91.654 36.892 1.729 2.305-5.764 3.459-16.717 3.459s-76.666 4.035-146.417 8.647c-69.749 4.612-137.192 8.647-149.875 9.222s-19.023 1.729-14.41 2.883c9.222 2.305 280.726 19.598 312.432 19.598l19.023 0.576-14.41 7.493c-8.071 4.035-47.268 20.176-88.195 35.162-40.35 14.988-72.632 28.823-71.478 29.974s42.080-4.612 91.078-12.105c48.421-8.071 89.349-13.835 90.501-12.681 0.576 1.153-33.433 27.093-76.666 58.221-42.657 30.552-77.82 57.068-77.82 58.221 0 0.576 13.835-4.612 30.552-12.105 124.511-55.914 145.263-64.561 147.568-63.409 0.576 1.153-16.14 23.635-38.045 50.15-62.831 76.090-85.89 106.065-73.785 96.266 6.341-4.612 38.621-31.128 72.056-57.644 33.433-27.093 63.985-51.304 67.444-53.609 9.222-5.188 6.917 0.576-37.469 98.571-19.598 42.080-34.011 76.666-32.857 76.666s27.093-35.162 58.221-77.82c30.552-42.657 57.068-77.244 58.221-76.090 0.576 1.153-4.612 41.504-12.681 89.349-8.071 48.421-14.41 91.078-14.41 95.113 0.576 3.459 15.564-32.857 34.586-81.854 18.447-48.421 35.162-89.925 36.892-91.654 2.305-1.729 3.459 5.764 3.459 16.717s4.035 76.666 8.647 146.417c4.612 69.749 8.647 137.192 9.222 149.875s1.729 19.023 2.883 14.41c2.305-9.8 19.598-283.609 19.598-311.854 0-10.376 1.729-17.293 3.459-15.564 1.729 2.305 18.447 43.233 36.892 92.23 19.023 48.421 34.011 84.161 34.011 79.549s-5.764-47.268-13.835-95.113c-7.493-47.268-13.259-87.042-12.105-87.62 1.153-1.153 27.093 32.857 58.221 76.090 30.552 42.657 56.492 77.82 57.644 77.82s-12.105-31.704-29.974-70.902c-46.692-103.759-48.421-108.947-40.35-104.335 4.035 2.305 34.011 26.516 67.444 53.033 90.501 73.785 85.313 69.749 74.361 55.914-4.612-6.341-31.128-38.621-58.221-72.056-26.516-33.433-50.726-63.409-53.033-67.444-4.612-8.071 0.576-6.341 104.913 40.35 38.621 17.869 70.326 31.128 70.326 29.974s-35.162-27.093-77.82-57.644c-43.233-31.128-77.244-57.068-76.090-58.221 0.576-1.153 40.35 4.612 87.62 12.105 47.845 8.071 90.501 13.835 95.113 13.835s-31.128-14.988-79.549-34.011c-48.997-18.447-89.925-35.162-92.23-36.892-1.729-1.729 5.188-3.459 15.564-3.459 28.245 0 302.056-17.293 311.854-19.598 4.612-1.153-1.729-2.305-14.41-2.883s-80.125-4.612-149.875-9.222c-69.749-4.612-135.463-8.647-146.417-8.647s-18.447-1.153-16.717-3.459c1.729-1.729 43.233-18.447 91.654-36.892 48.997-19.023 85.313-34.011 81.854-34.586-4.035 0-46.692 6.341-95.113 14.41-47.845 8.071-88.195 13.259-89.349 12.681-1.153-1.153 33.433-27.669 76.090-58.221 42.657-31.128 77.82-57.068 77.82-58.221s-34.586 13.259-76.090 32.857c-98.571 44.387-104.335 46.692-99.147 37.469 2.305-3.459 26.516-34.011 53.609-67.444 26.516-33.433 53.033-65.714 57.644-72.056 9.8-12.105-20.176 10.952-96.266 73.785-26.516 21.905-48.997 38.621-50.15 38.045-1.153-2.305 7.493-23.057 63.409-148.146 7.493-16.14 12.681-29.974 12.105-29.974-1.153 0-27.669 35.162-58.221 77.82-31.128 43.233-57.068 77.244-58.221 76.666-1.153-1.153 4.612-42.080 12.681-90.501 7.493-48.997 13.259-89.925 12.105-91.078s-14.988 31.128-29.974 71.478c-14.988 40.928-31.128 80.125-35.162 88.195l-7.493 14.41-0.576-19.023c0-31.704-17.293-303.207-19.598-312.432-1.153-4.612-2.305 1.729-2.883 14.41z"></path>
</svg>
