<?xml version="1.0" encoding="utf-8"?>
<!-- Generated by IcoMoon.io -->
<!DOCTYPE svg PUBLIC "-//W3C//DTD SVG 1.1//EN" "http://www.w3.org/Graphics/SVG/1.1/DTD/svg11.dtd">
<svg version="1.1" xmlns="http://www.w3.org/2000/svg" xmlns:xlink="http://www.w3.org/1999/xlink" width="1023" height="1024" viewBox="0 0 1023 1024">
<g id="icomoon-ignore">
</g>
<path d="M503.095 42.361c-10.968 2.925-29.25 10.238-40.584 16.453-27.056 14.259-62.155 45.337-62.155 55.209 0 6.581-1.828 6.947-20.84 5.85-11.7-1.097-32.174-4.753-45.337-8.409-14.991-4.387-26.325-5.85-31.078-3.656-5.85 2.194-4.022 3.656 8.775 6.215 17.184 3.656 17.184 8.409-0.732 16.087-9.872 4.387-10.238 4.753-2.925 5.119 4.753 0 13.528-2.559 19.744-5.85 9.872-5.119 14.259-5.119 32.54-1.462 15.356 3.291 24.131 3.656 32.54 0.732 9.872-3.656 13.162-2.925 27.421 6.215 9.14 5.85 23.765 12.431 32.54 14.991 18.646 5.119 59.23 3.291 91.039-4.022 15.356-3.656 23.034-3.656 27.421-1.097 20.109 12.797 28.152 59.23 25.227 142.225-2.194 63.983-9.872 98.352-39.122 180.981-47.896 134.182-62.155 191.949-62.155 253.373v29.98l-19.378 12.431c-10.238 6.947-42.412 30.712-71.296 53.015-28.518 22.303-66.177 48.993-83.361 59.596-69.102 42.046-93.964 45.337-282.989 35.831l-38.39-1.828 23.765 11.334c31.809 14.991 111.514 41.315 149.904 49.358 43.143 9.14 121.751 9.506 151.732 0.366 65.080-19.378 130.526-51.552 174.765-85.189 11.334-8.775 21.572-16.087 22.303-16.087s5.85 7.312 10.968 16.087c29.98 51.552 120.654 95.061 207.306 99.814 61.79 3.656 145.882-15.356 191.949-43.143 28.884-17.55 57.402-49.358 67.274-75.317 23.034-61.424-12.065-131.257-86.286-170.012-82.63-43.509-204.746-49.724-301.269-15.721l-15.721 5.485 2.194-19.012c3.291-27.421 13.162-62.887 42.777-154.657 32.54-100.545 38.756-126.87 44.239-183.906 8.409-88.48-0.366-172.937-23.034-220.102-12.065-24.497-45.703-56.305-70.564-65.445-24.131-9.14-59.596-9.872-89.21-1.828zM801.805 773.231c27.787 6.581 56.671 20.84 64.349 31.809 14.991 21.572-0.732 46.068-39.852 61.79-19.744 7.678-27.421 8.775-74.951 8.409-46.433 0-55.574-1.097-74.221-8.409-31.443-12.431-57.402-38.024-57.402-56.305 0-7.678 39.122-27.421 70.198-35.465 32.54-8.409 80.070-9.14 111.879-1.828z"></path>
</svg>
