<?xml version="1.0" encoding="utf-8"?>
<!-- Generated by IcoMoon.io -->
<!DOCTYPE svg PUBLIC "-//W3C//DTD SVG 1.1//EN" "http://www.w3.org/Graphics/SVG/1.1/DTD/svg11.dtd">
<svg version="1.1" xmlns="http://www.w3.org/2000/svg" xmlns:xlink="http://www.w3.org/1999/xlink" width="1025" height="1024" viewBox="0 0 1025 1024"><g id="icomoon-ignore">
</g>
<path d="M499.776 8.38c-6.984 8.847-8.614 24.444-5.354 53.312 2.794 26.074 12.804 84.275 16.296 94.519 1.63 5.122 2.095 4.423 4.656-6.984 8.614-39.111 14.667-82.646 15.132-106.392 0.233-23.048-0.233-26.772-4.656-32.592-6.984-9.312-19.556-10.243-26.074-1.862z"></path>
<path d="M455.775 11.174c-5.82 9.080-5.354 39.81 1.397 68.211 9.778 41.439 21.884 81.947 23.513 78.688 2.794-5.122 7.217-47.492 8.614-84.741 2.095-51.217-3.492-68.444-21.418-68.444-6.286 0-9.080 1.397-12.106 6.286z"></path>
<path d="M544.008 9.777c-8.148 8.614-10.476 25.376-9.080 63.556 1.397 37.249 5.82 79.619 8.614 84.741 0.931 1.862 5.122-9.312 10.010-26.772 25.376-91.027 26.307-124.085 3.492-125.947-6.286-0.466-9.545 0.466-13.037 4.423z"></path>
<path d="M413.172 15.83c-4.656 5.82-5.122 8.381-3.958 23.979 0.699 9.545 4.656 28.402 8.614 41.672 8.847 29.101 27.471 79.619 30.73 82.878 3.492 3.492 0.931-121.058-2.794-133.164-6.053-20.72-22.349-28.402-32.592-15.365z"></path>
<path d="M586.844 15.364c-3.027 3.259-6.751 10.243-8.381 15.831-3.725 12.106-6.286 136.656-2.794 133.164 3.259-3.259 21.884-53.778 30.73-82.878 3.958-13.27 7.915-32.127 8.614-41.672 1.164-15.598 0.699-18.159-3.958-23.979-6.519-8.381-16.762-8.381-24.211-0.466z"></path>
<path d="M371.267 23.513c-6.519 6.519-6.053 23.28 1.397 46.561 6.519 20.952 35.619 87.534 41.672 95.915 3.725 5.122 3.958 3.725 2.561-27.238-1.63-37.481-6.519-76.127-11.873-93.587-6.984-23.28-22.349-33.058-33.757-21.651z"></path>
<path d="M628.749 25.841c-11.408 13.735-18.857 52.847-21.418 112.91-1.397 30.963-1.164 32.36 2.561 27.238 6.053-8.381 35.153-74.963 41.672-95.915 7.45-23.28 7.915-40.042 1.397-46.561-6.984-6.984-16.995-6.053-24.211 2.328z"></path>
<path d="M330.527 36.317c-7.217 6.984-7.45 17.228-0.931 36.783 7.682 23.28 54.243 108.72 57.27 105.461 3.259-3.259-11.408-87.767-20.487-116.635-5.354-17.46-16.529-31.429-25.143-31.429-2.794 0-7.682 2.561-10.709 5.82z"></path>
<path d="M670.421 38.179c-9.080 9.080-15.132 26.772-23.28 67.979-6.519 33.757-11.64 70.54-9.778 72.402 3.027 3.259 49.587-82.18 57.27-105.461 6.519-19.556 6.286-29.799-0.931-36.783-7.682-7.915-14.201-7.217-23.28 1.862z"></path>
<path d="M290.252 50.518c-6.984 4.889-6.751 20.952 0.233 38.18 10.010 23.979 64.952 106.392 66.349 99.408 0.931-4.889-9.778-49.587-19.789-83.111-14.9-49.354-29.566-66.582-46.794-54.476z"></path>
<path d="M713.024 51.216c-8.614 6.751-16.995 24.211-25.841 53.778-10.010 33.524-20.72 78.222-19.789 83.111 1.397 6.984 56.339-75.429 66.349-99.408 6.984-17.228 7.217-33.291 0.233-38.18s-13.968-4.656-20.952 0.699z"></path>
<path d="M251.839 70.073c-11.408 9.080-7.45 26.54 12.339 55.873 11.64 17.228 53.312 69.376 60.063 75.429 6.519 5.587 6.519 4.423-1.63-20.72-29.799-94.053-50.519-126.413-70.772-110.582z"></path>
<path d="M756.326 67.745c-6.286 2.561-16.296 14.434-22.815 27.704-9.080 17.926-38.413 100.571-38.646 108.254 0 3.958 10.243-6.984 32.825-35.153 38.413-48.191 50.751-68.677 50.984-84.973 0-6.519-1.397-9.778-6.053-13.27-6.751-5.354-8.847-5.587-16.296-2.561z"></path>
<path d="M213.193 93.587c-8.381 7.915-5.82 21.884 7.682 41.206 10.942 16.063 55.408 64.952 73.101 80.783l10.010 8.847-4.889-12.571c-17.693-44.931-37.481-86.138-49.587-103.132-13.968-19.323-26.307-24.444-36.318-15.132z"></path>
<path d="M789.617 93.121c-15.598 10.243-38.413 52.381-64.487 118.73l-4.889 12.571 10.010-8.847c17.693-15.831 62.159-64.72 73.101-80.783 13.503-19.323 16.063-33.291 7.682-41.206-6.519-6.053-12.804-6.286-21.418-0.466z"></path>
<path d="M178.040 118.962c-11.873 11.873-3.027 30.265 30.265 62.857 22.582 22.349 59.598 54.709 67.281 59.365 3.492 2.095-20.254-45.164-37.016-73.101-28.402-47.725-47.027-62.624-60.529-49.122z"></path>
<path d="M823.606 118.73c-8.847 5.587-22.116 22.582-37.947 49.354-16.762 27.937-40.508 75.196-37.016 73.101 7.682-4.656 44.699-37.016 67.281-59.365 33.291-32.592 42.138-50.984 30.265-62.857-5.82-5.82-13.037-5.82-22.582-0.233z"></path>
<path d="M148.707 144.804c-2.794 1.397-6.286 5.122-7.682 8.381-3.958 8.381 3.725 23.979 19.323 38.878 22.349 21.418 92.191 74.032 92.191 69.376 0-1.164-7.915-14.667-17.693-29.799-46.095-72.17-69.143-95.217-86.138-86.836z"></path>
<path d="M858.294 146.2c-14.434 6.984-38.18 36.783-71.238 89.164-8.381 13.27-15.365 24.91-15.365 26.307 0 4.423 70.074-48.423 92.191-69.609 15.598-14.9 23.28-30.497 19.323-38.878-2.328-5.122-10.942-10.942-15.598-10.942-0.931 0-5.122 1.862-9.312 3.958z"></path>
<path d="M112.855 181.121c-8.148 10.476-2.561 22.582 19.323 40.973 13.037 10.942 44.699 32.592 69.143 47.027 8.381 4.889 18.857 10.942 23.28 13.735l8.148 4.889-4.423-6.984c-8.381-13.27-32.825-44.233-52.847-67.746-31.196-36.318-50.984-46.561-62.624-31.894z"></path>
<path d="M880.178 182.052c-14.667 9.778-64.72 68.211-84.275 98.709l-4.423 6.984 8.148-4.889c4.423-2.794 14.9-8.847 23.28-13.735 50.984-30.265 88.233-60.296 91.725-74.265 2.328-9.545-4.656-18.624-15.132-19.556-5.82-0.466-10.942 1.397-19.323 6.751z"></path>
<path d="M479.522 200.444c-40.741 4.423-84.508 17.228-120.825 35.386-64.952 32.592-122.222 91.492-153.884 158.307-5.82 12.106-10.476 22.815-10.476 23.746 0 0.699 142.942 1.397 317.778 1.397s317.778-0.699 317.778-1.397c0-0.931-4.656-11.64-10.476-23.746-32.127-67.513-88.699-125.482-155.513-159.238-24.444-12.106-67.513-26.307-93.587-30.73-27.238-4.656-67.281-6.286-90.794-3.725z"></path>
<path d="M87.013 211.618c-12.804 10.476-3.259 28.17 25.143 46.794 19.323 12.804 95.915 52.614 97.545 50.751 1.63-1.63-35.619-42.603-62.391-68.211-32.36-31.196-48.191-38.878-60.296-29.333z"></path>
<path d="M911.606 212.55c-5.82 2.794-21.418 15.598-34.921 28.635-26.54 25.376-63.789 66.349-62.159 67.979 1.63 1.862 78.222-37.947 97.545-50.751 28.402-18.624 37.947-36.318 25.143-46.794-6.984-5.587-13.037-5.354-25.609 0.931z"></path>
<path d="M68.622 243.978c-7.217 2.561-11.64 8.614-11.64 16.063 0 15.598 32.825 36.55 97.778 62.159 41.206 16.063 41.206 16.063 17.46-6.984-51.217-50.053-89.397-76.127-103.598-71.238z"></path>
<path d="M940.94 245.841c-4.889 1.63-14.434 6.751-20.952 11.175-20.72 13.735-92.423 78.455-87.069 78.455 3.725 0 47.027-16.995 71.937-28.17 43.767-19.789 62.391-33.99 62.391-47.725 0-12.804-11.873-19.090-26.307-13.735z"></path>
<path d="M38.59 287.978c-2.794 3.492-4.889 7.45-4.889 9.080 0 6.519 11.408 18.857 24.444 25.841 12.339 6.984 93.587 35.386 111.746 39.111 6.984 1.397 6.751 1.397-3.492-8.148-14.201-13.037-60.529-47.492-77.757-57.968-26.074-15.831-41.905-18.159-50.053-7.915z"></path>
<path d="M956.771 284.719c-16.063 5.82-74.032 46.328-98.942 69.143-10.243 9.545-10.476 9.545-3.492 8.148 18.159-3.725 99.408-32.127 111.746-39.111 13.037-6.984 24.444-19.323 24.444-25.841 0-1.63-2.095-5.587-4.889-9.080-5.354-6.751-15.831-7.915-28.868-3.259z"></path>
<path d="M27.648 321.968c-4.889 1.164-8.381 4.19-10.243 8.614-6.519 16.296 12.571 29.799 60.995 43.069 32.825 9.080 77.524 18.391 81.481 17.228 4.889-1.63-74.73-52.847-97.545-62.624-15.365-6.519-26.307-8.614-34.688-6.286z"></path>
<path d="M964.919 326.857c-24.211 10.243-105.926 62.159-100.571 64.021 3.958 1.164 48.656-8.148 81.481-17.228 35.619-9.778 55.408-19.789 60.529-30.497 3.492-7.217 3.492-8.148-1.164-14.201-6.519-8.614-22.349-9.545-40.275-2.095z"></path>
<path d="M8.558 363.873c-6.053 3.027-8.614 10.709-6.519 19.323 1.63 6.751 16.063 15.598 33.99 20.72 16.762 4.889 75.196 14.667 98.942 16.529l18.624 1.63-13.968-8.614c-20.72-12.804-80.085-42.138-96.381-47.725-15.365-5.122-26.54-5.82-34.688-1.862z"></path>
<path d="M978.887 366.666c-16.995 6.053-72.868 33.757-94.286 46.561-16.529 10.010-15.365 10.243 25.609 4.889 60.529-7.915 94.984-16.995 106.857-27.937 8.148-7.45 8.148-17.926 0-24.211s-19.090-6.053-38.18 0.699z"></path>
</svg>
