<?xml version="1.0" encoding="utf-8"?>
<!-- Generated by IcoMoon.io -->
<!DOCTYPE svg PUBLIC "-//W3C//DTD SVG 1.1//EN" "http://www.w3.org/Graphics/SVG/1.1/DTD/svg11.dtd">
<svg version="1.1" xmlns="http://www.w3.org/2000/svg" xmlns:xlink="http://www.w3.org/1999/xlink" width="1024" height="1024" viewBox="0 0 1024 1024">
<g id="icomoon-ignore">
</g>
<path d="M482.019 104.705c-15.222 57.197-28.138 106.551-29.059 109.781-0.922 3.689 15.684 5.073 59.041 5.073 41.976 0 59.965-1.846 59.041-5.535-17.068-68.268-57.197-214.024-59.041-214.024-1.384 0-14.759 47.049-29.981 104.705zM255.078 71.495c1.384 5.073 15.684 57.197 31.365 116.238l28.597 107.014 18.911-15.684c18.911-15.222 71.495-43.819 80.722-43.819 2.768 0 5.073-1.384 5.073-3.689 0-1.846-37.362-40.592-83.489-86.257s-82.565-78.876-81.181-73.803zM685.895 146.681c-44.743 44.743-81.643 83.489-81.643 85.332s2.305 3.23 5.073 3.23c9.224 0 55.814 23.986 76.108 40.13 11.532 8.765 22.141 14.759 23.524 13.838 2.768-2.768 61.349-221.405 59.965-223.251-0.922-0.462-38.284 35.516-83.027 80.722zM145.297 336.259c45.665 46.127 84.411 83.489 86.257 83.489 2.305 0 3.689-2.305 3.689-5.073 0-9.686 28.597-61.808 44.281-81.181 9.224-11.070 14.759-19.835 13.376-19.835-2.305 0-167.438-43.359-221.405-58.119-5.073-1.384 28.138 34.595 73.803 80.722zM447.424 261.073c-91.33 23.986-163.287 96.403-186.811 188.657-34.595 136.073 51.2 278.603 189.116 313.657 135.611 34.595 278.603-51.662 313.657-189.116 34.595-136.073-51.2-278.141-189.116-313.657-34.132-8.765-93.176-8.303-126.846 0.462zM845.030 283.676c-59.041 16.143-108.857 29.981-109.781 31.365-1.384 1.384 4.614 11.992 13.376 23.524 16.143 20.295 40.13 66.884 40.13 76.108 0 2.768 1.384 5.073 3.689 5.073 1.846 0 40.592-37.362 86.257-83.027s80.722-83.027 78.414-82.565c-2.768 0-53.046 13.376-112.086 29.522zM105.168 481.557c-58.119 15.222-105.168 29.059-105.168 30.443 0 1.846 150.832 43.359 214.487 59.041 3.689 0.922 5.073-15.684 5.073-59.041 0-39.668-1.384-59.965-4.614-59.503-2.768 0.462-52.122 13.376-109.781 29.059zM804.441 512c0 43.359 1.384 59.965 5.073 59.041 63.654-15.684 214.487-57.197 214.487-59.041s-150.832-43.359-214.487-59.041c-3.689-0.922-5.073 15.684-5.073 59.041zM145.297 687.741c-45.665 46.127-78.876 82.565-73.803 80.722 5.073-1.384 57.197-15.222 116.238-30.905l106.551-28.597-17.068-21.219c-9.224-11.992-23.062-35.516-30.443-52.584-7.841-16.605-14.759-30.905-16.143-30.905s-39.668 37.362-85.332 83.489zM788.757 609.327c0 9.224-27.676 60.886-42.435 79.338-7.381 9.686-12.916 18.911-11.532 19.835 1.846 2.305 219.1 61.808 224.635 61.808 1.384 0-35.057-37.362-80.722-83.027s-84.411-83.027-86.257-83.027c-2.305 0-3.689 2.305-3.689 5.073zM286.443 836.268c-15.684 59.041-29.981 111.165-31.365 116.238s35.057-28.138 81.181-73.803c46.127-45.665 83.489-83.949 83.489-85.332s-14.3-8.303-30.905-16.143c-17.068-7.381-40.592-21.219-52.584-30.905l-21.219-16.605-28.597 106.551zM696.505 740.324c-7.841 9.686-53.968 36.441-75.646 44.281-9.224 3.23-16.605 7.381-16.605 8.765s37.362 39.668 83.489 85.332c46.127 45.665 82.565 78.876 81.181 73.803s-14.3-53.046-28.597-106.089c-32.289-120.389-29.981-113.008-34.132-113.008-2.305 0-6.457 3.23-9.686 6.919zM452.959 809.514c15.684 63.654 57.197 214.487 59.041 214.487s43.359-150.832 59.041-214.487c0.922-3.689-15.684-5.073-59.041-5.073s-59.965 1.384-59.041 5.073z"></path>
</svg>
