<?xml version="1.0" encoding="utf-8"?>
<!-- Generated by IcoMoon.io -->
<!DOCTYPE svg PUBLIC "-//W3C//DTD SVG 1.1//EN" "http://www.w3.org/Graphics/SVG/1.1/DTD/svg11.dtd">
<svg version="1.1" xmlns="http://www.w3.org/2000/svg" xmlns:xlink="http://www.w3.org/1999/xlink" width="325" height="1024" viewBox="0 0 325 1024">
<g id="icomoon-ignore">
</g>
<path d="M159.47 11.691c-0.649 5.629-1.299 29.876-1.299 53.906v43.731l-12.556 3.464c-6.711 1.948-15.804 5.629-19.917 8.443-6.711 4.546-7.794 6.495-8.66 16.886-0.649 6.495-2.814 14.938-4.763 18.618-6.928 12.773 3.68 15.154 25.329 6.062 21.649-9.309 20.567-9.526 20.567 3.68 0 24.247-1.082 26.195-16.67 34.422-17.319 8.876-34.855 25.546-41.566 39.618-4.33 8.876-4.979 12.989-4.113 27.061 1.515 25.762 12.556 43.515 34.638 55.855 10.392 5.629 13.422 6.278 32.041 6.278s21.649-0.649 32.041-6.278c22.082-12.34 33.123-30.092 34.638-55.855 0.866-14.072 0.216-18.185-4.113-27.061-6.711-14.072-24.247-30.742-41.566-39.618-16.020-8.443-16.67-9.742-16.67-38.102 0-14.505 0.433-15.804 6.062-19.484 11.907-7.794 24.68-19.484 33.34-30.742 4.763-6.278 8.443-11.69 8.010-12.123-0.433-0.649-11.041 0.866-23.597 3.247-12.556 2.165-22.948 4.113-23.164 4.113-0.433 0-0.649-19.268-0.649-43.082 0-42.865-1.299-62.999-4.33-62.999-0.866 0-2.165 4.546-3.031 9.959z"></path>
<path d="M68.328 290.747c-1.082 5.845-1.948 20.35-1.948 31.824-0.216 17.969 0.433 21.866 4.33 27.061 10.175 14.072 29.876 17.969 91.792 17.969s81.617-3.897 91.792-17.969c4.113-5.629 4.546-8.876 4.113-31.391-0.216-13.855-1.299-28.144-2.381-31.608-1.515-5.845-1.948-4.979-4.546 8.66-1.299 8.227-4.763 19.268-7.577 24.68-9.959 19.917-25.546 24.68-81.4 24.68-67.978 0-79.668-6.495-88.978-48.494l-3.464-16.237-1.732 10.825z"></path>
<path d="M119.419 394.229c-26.412 5.845-38.319 9.526-35.721 10.392 2.381 0.866 21 5.196 41.566 9.742l37.236 8.010 37.453-8.010c20.35-4.546 38.968-8.876 41.35-9.742 2.598-0.866-10.608-4.546-37.886-10.608-23.164-4.979-42.432-8.876-43.082-8.876-0.649 0.216-19.051 4.33-40.917 9.093z"></path>
<path d="M149.728 434.929c-21.866 4.33-39.834 18.618-48.927 39.401-5.196 11.474-5.845 14.938-4.979 30.525 1.082 20.35 5.845 31.391 19.268 44.814 13.639 13.639 25.546 18.185 47.411 18.185s33.773-4.546 47.411-18.185c13.422-13.422 18.185-24.463 19.268-44.814 0.866-15.804 0.216-19.051-4.763-30.309-3.247-7.144-8.443-15.587-11.69-19.051-15.804-16.67-41.133-25.113-62.999-20.567z"></path>
<path d="M123.533 595.782c-17.319 3.897-34.205 7.794-37.886 8.66-5.412 1.515 0.649 3.464 35.288 11.041l41.566 9.093 41.783-9.093c25.329-5.629 39.834-9.526 37.236-10.392-11.69-3.68-75.122-16.67-80.534-16.453-3.247 0-20.134 3.247-37.453 7.144z"></path>
<path d="M100.152 644.925c-16.237 2.814-27.278 9.093-30.958 17.536-3.247 7.794-3.68 38.968-0.866 57.153l1.732 10.608 3.897-17.752c7.361-33.989 15.804-41.783 49.793-46.112 35.721-4.33 88.112-1.515 102.4 5.845 14.938 7.577 19.268 14.505 24.896 40.267l3.897 17.752 1.732-10.608c2.814-18.185 2.381-49.36-0.866-57.153-3.68-8.876-14.505-14.721-32.907-17.752-16.453-2.598-106.513-2.381-122.75 0.216z"></path>
<path d="M149.728 679.564c-21.433 4.113-38.319 17.536-48.061 37.669-5.196 10.825-6.278 15.804-6.278 29.659 0 20.567 4.763 33.989 19.917 57.37 13.422 20.567 18.185 30.958 20.134 44.381l1.515 10.392h51.092l1.515-9.742c1.948-13.422 6.062-22.732 18.835-42.865 16.67-25.762 21-38.319 21.216-58.885 0-14.721-0.866-19.268-6.278-30.309-9.959-21-26.412-33.34-49.793-37.886-6.495-1.082-12.123-2.165-12.989-1.948-0.649 0.216-5.629 1.082-10.825 2.165z"></path>
<path d="M128.945 870.725c-59.318 13.855-105.214 54.556-124.699 111.060-2.165 6.711-4.113 12.989-4.113 14.072 0 4.113 38.752 14.505 80.101 21.866 22.948 3.897 35.288 4.546 82.266 4.546s59.318-0.649 82.266-4.546c41.35-7.361 80.101-17.752 80.101-21.866 0-1.082-1.948-7.361-4.113-14.072-17.752-51.308-56.937-89.627-109.544-106.73-21.433-7.144-61.483-9.093-82.266-4.33z"></path>
</svg>
