<?xml version="1.0" encoding="utf-8"?>
<!-- Generated by IcoMoon.io -->
<!DOCTYPE svg PUBLIC "-//W3C//DTD SVG 1.1//EN" "http://www.w3.org/Graphics/SVG/1.1/DTD/svg11.dtd">
<svg version="1.1" xmlns="http://www.w3.org/2000/svg" xmlns:xlink="http://www.w3.org/1999/xlink" width="630" height="1024" viewBox="0 0 630 1024">
<g id="icomoon-ignore">
</g>
<path d="M320.647 4.703l-2.175 2.089v66.132l-3.655-1.306c-5.221-1.827-14.705-2.524-17.056-1.306-4.438 2.349-0.87 8.093 8.963 14.445 8.005 5.221 11.225 8.702 9.049 10.094-2.089 1.306-5.395 0.87-10.355-1.48-4.612-2.175-10.877-3.046-12.878-1.74-0.609 0.348-1.044 2.698-1.044 5.221v4.525l8.702 5.917c8.354 5.656 13.052 10.006 13.052 12.095-0.087 1.392-2.61 4.438-4.699 5.569-1.131 0.609-2.784 0.348-6.526-1.131-3.307-1.392-6.613-2.089-10.268-2.089-5.482 0-5.482 0-5.482 2.437 0 4.699 4.264 9.049 13.836 14.010 9.572 5.047 12.53 7.831 14.096 13.139 1.218 4.176 0.522 5.308-4.35 6.962-3.133 1.044-3.655 0.957-6.787-0.957-1.74-1.131-6.613-4.786-10.703-8.18-14.445-12.009-20.275-14.879-28.541-14.096-6.526 0.522-11.486 2.958-11.486 5.482 0 2.958 3.393 6.526 8.528 8.789 2.61 1.131 5.83 3.22 7.048 4.525s4.176 3.133 6.439 4.003c2.349 0.87 6.265 3.046 8.789 4.786 4.003 2.784 5.656 3.307 12.618 4.264 8.093 1.044 13.487 2.958 15.75 5.743 1.566 1.827 0.261 2.784-5.134 3.567-5.743 0.87-14.793-1.48-26.627-6.874-17.056-7.745-23.233-8.963-32.457-6.265-4.090 1.218-4.525 1.653-4.525 3.829 0 2.089 0.435 2.61 2.872 3.046 1.48 0.261 8.093 2.698 14.532 5.395 19.752 8.093 23.059 9.049 35.502 10.355 11.4 1.218 16.446 2.784 17.403 5.482 0.609 1.827-10.006 1.218-27.41-1.653-26.627-4.35-38.026-3.046-43.247 5.134-1.131 1.74-2.349 4.35-2.61 5.656l-0.609 2.524 5.917-0.522c3.22-0.261 11.225-0.697 17.665-1.044 22.45-0.957 42.725 4.176 47.337 11.921 2.263 3.916 1.827 4.264-4.873 4.264-5.047 0-8.093-0.609-15.054-3.133-4.786-1.74-12.618-4.525-17.403-6.265-7.136-2.524-9.92-3.046-15.663-3.133-7.831 0-12.009 1.566-16.968 6.613-2.958 2.872-5.743 8.266-4.786 9.223 0.261 0.261 6.265 0.348 13.313 0.174 31.935-1.044 40.463-0.261 48.033 4.438l3.046 1.915-2.175 0.957c-3.133 1.392-55.865 1.218-64.218-0.174-3.567-0.609-8.789-2.263-11.747-3.829-6.962-3.481-9.92-4.264-13.401-3.655-2.263 0.435-2.958 1.131-3.829 3.567-1.48 4.699-0.522 10.355 2.349 13.401 5.395 5.656 9.485 6.091 47.337 5.134 16.881-0.348 20.535 0.348 25.408 5.221 3.22 3.22 3.307 3.22 12.443 3.829 10.964 0.783 17.403 2.437 19.057 5.134 1.653 2.437 2.524 9.398 1.48 10.964-1.48 2.263-8.005 1.392-14.705-2.001-3.481-1.74-8.614-3.741-11.573-4.35-2.872-0.697-6.178-1.827-7.222-2.61-7.745-5.047-24.278-9.485-35.764-9.572-7.745-0.087-9.223 0.174-13.052 2.175-4.176 2.089-8.789 7.919-7.745 9.659 0.609 0.957 21.667 0.783 29.846-0.087 4.959-0.609 6.874-0.522 8.266 0.348 1.044 0.697 5.395 2.437 9.659 3.916 4.35 1.566 9.223 3.655 10.877 4.786 2.263 1.48 5.221 2.263 11.66 2.958 9.398 1.131 15.488 3.22 16.968 6.091 0.87 1.566 0.697 1.827-2.263 2.349-2.349 0.435-5.569-0.087-12.53-2.175-7.657-2.175-10.877-2.698-17.925-2.698-7.483 0-9.572-0.348-17.229-3.046-16.62-5.917-50.73-7.571-62.652-3.046-9.223 3.481-16.968 13.661-16.968 22.189 0 2.349 2.175 3.22 11.486 4.873 6.439 1.044 6.962 2.089 1.566 2.958-3.046 0.522-5.221 2.349-5.221 4.35 0 0.87 3.655 2.001 28.541 8.789 25.757 6.962 30.020 8.354 44.987 14.619 6.962 2.872 10.79 4.003 13.836 4.003 4.003 0 4.525 0.261 8.963 4.873 4.525 4.612 7.048 6.091 16.011 9.398 4.699 1.653 6.613 3.567 7.745 7.396 1.044 3.741-0.609 4.438-10.094 4.438-7.136 0-7.657-0.174-10.529-2.61-6.787-6.004-13.401-8.18-37.069-12.183-18.448-3.133-22.363-4.35-34.893-11.66-21.319-12.269-28.28-14.879-38.809-14.27-5.134 0.261-7.571 0.957-11.225 2.958l-4.699 2.524 0.522 6.439c0.261 3.481 0.783 6.7 1.218 7.136 1.044 1.044 12.618 3.741 23.581 5.656 8.44 1.48 10.442 2.872 4.003 2.958-1.48 0-3.22 0.609-3.829 1.306-0.957 1.131-0.697 1.827 1.392 4.003 5.395 5.743 12.792 7.919 33.415 9.832 13.227 1.306 15.228 1.74 26.105 5.569 11.921 4.35 17.665 6.874 21.929 9.92 1.306 0.87 4.438 1.827 6.962 2.175 3.567 0.348 5.308 1.131 7.657 3.307 5.047 4.612 7.136 5.656 11.312 5.656 6.091 0 7.919 2.524 3.481 4.786-3.393 1.74-6.787 1.653-16.185-0.435-4.264-0.957-8.876-1.74-10.268-1.74-1.306 0-3.567-0.957-4.873-2.089-1.392-1.131-4.612-2.524-7.136-3.133-5.569-1.306-10.181-3.567-15.663-7.483-4.873-3.567-7.136-4.438-14.793-5.482-4.35-0.609-7.222-1.653-11.138-4.090-6.265-3.829-10.006-4.612-24.19-4.612-15.75-0.087-28.106 2.784-37.069 8.702-4.35 2.958-8.354 8.005-8.354 10.615 0 2.175 4.35 3.741 12.618 4.525 3.829 0.348 8.093 1.218 9.485 1.915 2.437 1.218 2.437 1.392 0.87 2.263-0.87 0.522-5.917 2.263-11.225 3.829-5.221 1.566-10.529 3.567-11.66 4.438-2.698 2.001-5.134 5.308-5.482 7.483-0.261 1.48 0.957 1.827 12.356 3.655 22.102 3.481 38.113 8.005 57.866 16.272 9.049 3.829 11.225 5.134 16.098 9.832 6.962 6.7 10.615 8.354 23.059 10.79 14.879 2.784 20.449 4.264 25.235 6.613 2.349 1.218 8.005 2.958 12.53 3.916 4.438 0.957 9.659 2.524 11.4 3.393 3.741 1.915 6.962 5.569 6.962 7.831 0 3.567-19.666 3.046-30.717-0.783-7.745-2.698-15.315-6.874-30.195-16.881-7.919-5.308-17.577-11.138-21.58-12.966-7.571-3.567-19.752-7.136-22.972-6.613-1.74 0.261-2.001 0.697-1.74 3.655l0.261 3.393-3.567-0.609c-4.438-0.697-9.223-3.046-16.185-8.005-7.571-5.395-14.010-8.18-20.797-8.789-4.873-0.435-6.265-0.261-8.963 1.218-1.74 1.044-6.439 2.263-10.442 2.784-3.916 0.522-8.354 1.566-9.746 2.263-2.61 1.306-4.090 4.525-3.22 6.874 0.957 2.524 11.4 6.526 22.798 8.789 14.793 2.872 22.015 5.134 25.235 7.831l2.61 2.175-3.22 2.698c-1.827 1.48-3.307 3.393-3.307 4.264s3.307 4.873 7.396 8.789c4.35 4.176 7.396 7.919 7.396 8.876 0 1.566-0.435 1.653-4.264 1.218-5.395-0.609-8.18-2.089-14.096-7.136-5.047-4.35-7.745-6.004-11.4-6.874-2.349-0.522-2.437-0.435-2.437 2.524 0 1.74 0.609 4.525 1.306 6.265 1.653 3.916 1.74 3.741-0.957 3.741-3.741 0-8.18-2.61-11.051-6.613-3.307-4.35-4.525-4.699-17.751-4.699-9.659 0-10.006 0.087-12.183 2.349-8.44 9.137-10.442 13.139-8.963 18.708 1.131 4.090 2.001 4.525 11.747 6.353 8.614 1.566 12.009 3.133 13.401 6.265 1.131 2.437 0.697 2.698-5.482 3.046-2.524 0.174-4.438 0.697-4.699 1.392-0.522 1.74 5.308 6.874 9.049 7.919 1.827 0.522 8.093 1.306 13.749 1.827 11.747 1.131 16.098 2.524 19.231 6.265 2.524 3.046 2.872 5.395 0.697 4.699-4.612-1.306-15.576-2.61-22.015-2.61-6.178 0-8.005 0.348-11.051 2.089-4.264 2.349-6.353 6.091-6.353 11.225 0 2.958 0.348 3.567 2.001 3.916 4.003 0.87 46.728 5.743 58.214 6.7 11.66 0.957 12.009 1.044 14.879 3.741 4.264 4.003 8.18 4.959 23.146 5.482 12.095 0.435 13.749 0.697 16.359 2.524 4.264 2.872 10.181 3.829 24.104 3.829 14.184 0 19.752 1.218 23.495 5.134 2.001 2.089 3.393 2.61 8.093 3.133 9.572 1.044 13.052 6.526 6.353 10.006-5.221 2.61-10.006 2.263-20.449-1.74-5.047-1.915-11.051-3.567-13.313-3.741-4.003-0.174-4.090-0.087-4.35 2.61-0.522 5.221-1.566 5.047-15.054-2.349-19.84-10.964-26.627-12.792-37.243-10.094l-5.482 1.392-8.702-5.308c-11.573-7.048-18.883-9.746-24.799-9.311-5.047 0.435-9.832 3.481-12.009 7.657l-1.306 2.61-3.393-3.393c-5.917-5.917-16.446-7.745-28.802-4.873-6.613 1.566-22.276 8.963-24.799 11.747l-1.74 1.915 3.22 2.872c5.743 5.308 10.181 6.004 36.808 6.091 23.146 0.087 23.581 0.087 29.76 2.349 19.84 7.31 31.238 16.881 33.762 28.454l0.609 2.872-2.872-0.609c-4.699-0.957-9.572-3.567-16.533-8.876-7.745-5.83-12.443-8.093-18.534-8.702-4.525-0.435-4.612-0.435-5.569 2.263-0.522 1.48-1.48 2.698-2.089 2.698s-4.612-2.001-8.963-4.438c-11.312-6.353-15.488-7.831-23.755-8.354-6.439-0.435-7.396-0.348-9.137 1.306-1.044 0.957-5.047 2.872-8.876 4.176-8.005 2.784-11.747 5.917-11.747 9.746 0 2.263 0.522 2.784 5.482 4.959 9.223 4.176 16.533 5.656 32.457 6.526 15.141 0.87 20.101 1.827 38.461 7.31 3.916 1.218 11.747 2.784 17.403 3.481 44.378 5.743 40.724 5.047 46.38 8.963 3.393 2.263 5.917 3.307 10.268 3.916 10.529 1.48 13.487 2.524 23.581 8.093 12.183 6.787 16.185 8.266 22.624 8.266 6.265 0 10.094 1.306 10.703 3.655 0.783 3.046-0.87 4.786-5.221 5.83-6.962 1.48-8.354 1.392-13.139-1.306-2.61-1.392-5.917-3.22-7.396-4.003-4.003-2.175-11.573-3.916-25.408-5.917-12.966-1.827-14.184-2.263-33.588-12.878-3.567-2.001-8.18-3.829-10.181-4.176-3.481-0.522-3.655-0.435-5.482 2.698l-1.915 3.22-5.482-0.435c-4.525-0.348-7.396-1.392-15.837-5.656-9.746-4.959-19.84-8.005-22.015-6.613-1.392 0.87-0.783 6.004 0.957 8.614 2.349 3.481 2.175 3.916-1.044 3.916-3.916-0.087-11.138-3.133-19.926-8.528-12.53-7.657-17.751-8.614-31.064-5.395-4.003 0.957-9.485 2.001-12.183 2.263-2.698 0.348-5.221 1.044-5.569 1.566-1.131 1.653-0.783 9.92 0.609 13.313l1.306 3.307h6.787c5.134 0 8.614 0.697 14.967 2.784 11.747 3.829 10.703 3.655 32.196 4.612 20.623 0.87 27.062 1.653 34.371 4.438 4.35 1.653 10.877 6.7 10.877 8.44 0 1.48-6.962-0.522-14.27-4.176-5.482-2.784-7.831-3.481-11.312-3.393-7.483 0.087-8.005 0.522-7.657 7.048 0.261 4.264 0 5.83-1.044 6.7-2.349 1.915-10.964-0.435-22.712-6.265-18.969-9.311-27.845-11.138-38.722-7.745l-4.786 1.566-0.261 5.134c-0.261 6.004 1.827 10.355 5.569 11.834 2.175 0.783 2.263 0.957 0.87 2.437-2.524 2.784-1.74 5.221 2.263 7.048 4.612 2.089 8.005 2.175 19.231 0.348 11.747-1.915 19.317-1.392 23.233 1.392l3.046 2.175h27.585c27.41 0 27.497 0 29.586 2.001 2.089 1.827 5.221 2.698 16.533 4.090 4.699 0.609 8.18 2.958 7.396 5.047-0.87 2.437-12.095 11.051-15.054 11.573-3.829 0.697-5.134 0.174-13.922-5.743-10.703-7.222-13.227-7.919-27.845-7.657l-12.095 0.261-2.001 3.655c-1.74 3.22-4.786 5.482-5.917 4.35-0.261-0.261-0.87-2.349-1.48-4.612-1.044-4.176-1.131-4.264-4.525-4.525-1.915-0.087-6.353-1.653-9.832-3.393-7.657-3.829-8.614-3.567-10.877 3.307-2.349 7.048-3.22 7.571-6.787 4.003-1.653-1.566-4.873-3.655-7.31-4.525-2.349-0.87-5.482-2.349-6.787-3.307-1.392-0.87-4.090-1.74-6.091-1.915s-6.7-1.48-10.442-2.958c-7.745-3.046-12.53-3.481-13.487-1.218-0.261 0.87-0.609 3.22-0.609 5.221 0 4.786 2.872 7.745 11.834 12.443 3.741 1.915 7.483 4.438 8.354 5.482 1.392 1.74 2.349 2.001 8.614 1.915 6.7 0 7.31 0.174 16.098 4.612l9.137 4.612 11.66 0.783c12.356 0.783 19.84 2.349 12.183 2.61-6.613 0.261-15.663 2.175-16.533 3.481-0.435 0.697-0.87 3.046-0.87 5.134v3.916l-2.872-2.698c-5.569-5.308-13.227-8.266-31.847-12.009l-10.703-2.175-2.437 2.61c-2.175 2.349-2.958 2.61-7.831 2.61-4.612 0-5.743-0.348-8.614-2.698-6.178-4.959-16.185-6.439-25.148-3.829l-4.525 1.392v4.959c0 2.698 0.261 6.353 0.522 8.093l0.522 3.046 11.921 2.872c6.526 1.653 16.707 4.525 22.712 6.439 9.92 3.22 11.225 3.916 14.793 7.657 2.175 2.263 6.091 5.482 8.702 7.136 2.698 1.653 5.395 3.655 6.004 4.35 0.957 1.218 0.609 1.48-2.263 1.915-5.221 0.87-5.482 1.131-5.482 3.916 0 2.349 0.348 2.698 3.916 3.567 6.439 1.653 6.004 4.264-0.697 4.264-4.612 0-8.005-1.653-14.532-6.962-9.223-7.483-13.401-8.963-25.67-9.398-6.7-0.174-14.010 0.174-20.275 1.044-5.395 0.783-13.661 1.392-18.448 1.392h-8.614l-2.175 2.784c-6.613 8.789-2.958 16.272 14.010 28.454 4.176 3.046 8.963 7.222 10.529 9.311 3.655 4.959 6.178 6.091 16.011 7.745 9.92 1.566 42.29 3.393 47.423 2.61 2.089-0.261 7.571-1.827 12.269-3.481 12.704-4.438 31.935-6.787 63.261-7.919 13.836-0.435 16.707-0.261 24.799 1.306 5.047 1.044 11.834 2.089 15.141 2.437 5.656 0.522 6.353 0.783 12.356 5.656 3.567 2.872 6.439 5.482 6.439 5.917 0 1.044-5.047 2.61-8.44 2.61-4.176 0-11.573-2.698-22.885-8.18-12.443-6.178-14.967-6.7-18.099-3.741-1.306 1.131-6.004 4.35-10.442 7.136-5.569 3.393-8.789 6.091-10.442 8.44l-2.263 3.567-6.613-0.522c-3.655-0.261-10.964-1.566-16.185-2.872-5.395-1.306-12.269-2.349-16.098-2.437-5.569-0.087-7.222 0.261-11.225 2.349s-5.395 2.349-8.876 1.915c-4.176-0.609-4.176-0.609-4.176 2.001 0 3.481 2.784 6.787 7.919 9.398 5.743 2.872 7.745 5.047 7.745 8.266s-0.522 3.133-7.919-1.915c-2.872-1.915-7.483-4.612-10.181-5.83-4.699-2.263-5.569-2.349-18.012-2.263-11.834 0.087-14.184 0.348-24.799 3.046l-11.747 3.046-0.261 5.917c-0.348 7.31-0.174 7.483 11.573 15.228l8.702 5.743h8.702c4.786 0 12.792-0.522 17.751-1.131 6.091-0.697 14.010-0.87 24.364-0.522 18.186 0.697 21.145 0.174 37.069-5.917 10.094-3.916 13.052-4.612 28.715-6.874 16.446-2.349 26.191-4.35 29.151-6.004 0.87-0.522 2.001-0.174 3.307 1.131 1.653 1.566 3.393 2.001 10.006 2.349l7.919 0.435 0.697 2.784c0.348 1.48 2.001 3.741 3.481 5.047 4.176 3.481 9.746 2.784 20.101-2.524 7.31-3.741 8.093-3.916 8.876-2.524 0.522 0.87 2.175 2.784 3.741 4.35 4.35 4.264 8.44 4.525 22.276 1.218 7.483-1.74 13.575-2.698 17.839-2.698h6.439l-0.609 10.703c-1.48 25.408-3.393 44.9-9.659 97.632-2.089 17.665-4.35 36.982-5.047 42.812l-1.131 10.703h71.615l-0.348-2.349c-0.957-8.266-6.874-58.823-9.398-80.75-3.046-26.714-5.134-50.469-6.178-70.309l-0.609-11.051h4.264c5.308 0 9.049-2.175 15.228-9.049l4.612-5.134 6.265 0.522c4.525 0.348 8.528 1.392 14.010 3.655 17.056 7.136 21.232 8.44 28.454 8.528l6.962 0.174 1.044-3.916c0.609-2.175 1.566-5.569 2.089-7.571 1.566-6.004 2.524-6.526 11.225-5.917l7.571 0.609 3.22-5.221c3.481-5.656 7.048-8.354 11.921-9.311 4.003-0.697 7.222 0.609 12.618 5.134 9.92 8.528 15.576 9.92 43.073 10.877 19.231 0.697 21.841 0.957 26.54 2.872 4.699 1.74 6.526 2.001 17.403 1.915 18.448-0.174 32.718-4.003 51.34-13.661l8.702-4.525 0.261-6.265 0.261-6.178-4.959-0.697c-8.266-0.957-23.495 0.261-37.243 3.046-13.836 2.872-17.056 3.22-17.056 1.827 0-1.653-5.656-4.35-9.223-4.35-1.915 0-6.787 0.957-10.877 2.175-4.003 1.131-8.789 2.175-10.529 2.175-1.827 0-7.657-1.48-13.052-3.307-7.745-2.698-11.66-3.481-18.274-3.916-4.612-0.261-9.659-1.044-11.312-1.827-1.915-0.87-6.178-1.392-12.618-1.566-8.789-0.261-9.92-0.435-11.834-2.263-1.218-1.131-2.349-2.784-2.61-3.741-1.044-4.003 13.487-3.22 32.457 1.74 17.925 4.786 24.799 5.221 44.378 2.698 16.533-2.089 20.623-2.001 59.519 0.522l18.969 1.218 1.915-2.349c0.957-1.218 2.263-3.133 2.872-4.090 1.218-2.001 1.48-5.743 0.522-5.743-0.435 0-3.829-2.349-7.657-5.221-11.138-8.266-15.837-8.528-32.109-1.74-4.35 1.827-9.311 3.567-10.964 3.916-1.653 0.261-3.741 0.783-4.525 0.957-1.044 0.348-1.827-0.435-2.698-2.437-3.567-8.44-8.44-9.485-20.275-4.612-7.657 3.22-13.575 3.916-17.142 2.089-1.044-0.609-3.916-2.958-6.439-5.221-3.655-3.393-5.134-4.264-7.831-4.438-5.83-0.261-10.964 0.261-19.317 2.001-10.442 2.089-17.316 2.089-24.887-0.087-3.393-0.957-10.094-2.349-15.054-2.958-9.049-1.218-12.443-2.61-14.096-5.743-0.783-1.48-0.609-1.74 1.218-2.263 1.218-0.261 4.176 0.174 6.787 1.044 4.090 1.306 7.136 1.392 31.674 0.87 29.411-0.609 35.328-0.174 43.073 3.307 9.049 4.090 27.41 4.959 58.475 2.61 10.094-0.783 25.235-1.392 33.415-1.48 8.266-0.087 15.054-0.348 15.054-0.609 0-1.915-2.263-7.831-4.090-10.529-4.003-6.091-12.878-10.268-25.408-12.009-7.222-0.957-7.831-0.783-16.62 5.134-9.659 6.439-13.836 6.787-19.926 1.392-6.787-6.091-11.834-6.353-29.237-1.392-5.221 1.392-11.051 2.61-13.139 2.61-3.481 0-3.741-0.174-5.569-4.003-2.349-5.047-1.827-6.962 2.524-10.529 5.917-4.873 16.446-5.308 36.025-1.566 3.741 0.697 10.094 1.306 14.096 1.306 7.31 0 7.31 0 18.534-5.743 9.572-4.873 12.183-5.83 16.968-6.178 5.482-0.435 5.656-0.609 6.178-3.133 1.044-5.134 0.697-6.439-1.827-7.136-1.392-0.261-5.134-1.915-8.528-3.567-8.354-4.090-13.139-4.699-32.196-4.438-15.228 0.174-17.056 0-23.581-1.915l-7.048-2.089-18.099 8.528-21.319-0.174c-15.924-0.174-23.059 0.087-28.194 1.044-9.832 1.915-20.535 1.653-20.535-0.522 0-0.435 1.306-1.392 2.872-2.263 2.089-1.131 5.917-1.566 15.924-2.001l13.139-0.522 5.047-3.393c4.699-3.22 5.308-3.481 9.92-3.046 13.487 1.044 20.014 0.348 39.244-4.264 32.196-7.657 35.851-8.702 42.377-11.921 6.874-3.393 14.096-10.355 15.75-15.054 1.044-2.958 1.48-2.872-14.967-4.525-16.881-1.653-27.845 0-34.633 5.395l-3.133 2.524-3.829-2.175c-5.134-2.958-10.877-2.784-23.321 0.522-13.313 3.567-12.618 3.133-15.837 8.614-3.133 5.134-6.526 7.222-9.223 5.569-0.783-0.522-2.349-2.61-3.481-4.525-1.306-2.349-2.872-3.829-4.264-4.176-2.001-0.522-3.046 0.261-8.44 6.091-4.35 4.699-7.222 7.048-9.659 7.919-4.003 1.306-4.786 1.044-4.786-1.566 0.087-5.743 6.439-13.487 14.705-17.925 11.747-6.178 23.581-7.831 44.465-6.265 12.618 0.957 12.618 0.957 16.707-1.218 3.133-1.653 5.482-2.175 9.746-2.175 4.176 0 6.439-0.522 9.311-2.089 2.349-1.306 7.048-2.61 12.183-3.393 9.92-1.566 14.096-3.133 16.011-6.178 3.481-5.221-0.087-7.048-16.359-8.266-5.83-0.435-11.747-1.218-13.052-1.74-3.393-1.306-3.481-1.306-5.308 1.74-1.915 3.22-6.526 5.395-9.832 4.612-1.306-0.348-5.221-1.915-8.614-3.567-7.571-3.481-11.225-3.655-15.228-0.697-5.047 3.741-8.702 4.959-16.881 5.656-4.35 0.435-8.528 1.044-9.311 1.306-1.48 0.609-4.176-2.872-4.176-5.569 0-1.392 0.957-1.827 5.917-2.61 3.22-0.435 9.746-1.131 14.532-1.392 11.051-0.697 15.141-1.653 21.667-4.786 6.439-3.133 7.657-3.22 14.967-0.435 7.483 2.784 11.573 2.698 23.842-0.435 5.482-1.48 11.225-2.61 12.792-2.61 3.481 0 3.567-0.522 0.348-4.873-7.919-10.79-18.186-14.967-38.809-15.75-11.834-0.435-12.356-0.522-18.622-3.655-6.178-2.958-6.962-3.133-15.228-3.133-8.789 0-8.789 0-19.231 4.699-8.354 3.829-11.573 4.873-16.098 5.134-4.786 0.261-6.004 0.087-8.005-1.566-2.784-2.175-3.133-4.176-0.87-4.873 0.783-0.261 6.004-2.698 11.486-5.395l10.006-4.959 18.012-0.174 5.308-3.829c4.612-3.22 6.091-3.829 10.615-4.090 2.872-0.174 8.789 0.261 13.052 1.044 15.837 2.784 23.755 1.306 26.627-5.047 0.87-2.001 1.653-5.047 1.653-6.787 0-3.046-0.261-3.307-4.959-5.569-6.787-3.393-16.446-3.741-31.326-1.392-6.178 0.957-16.011 2.001-21.929 2.263-12.53 0.609-16.62 1.653-20.362 5.134-1.827 1.74-3.829 2.61-5.83 2.698-1.653 0.087-4.612 1.218-6.526 2.437-1.915 1.306-4.525 2.61-5.83 2.872-2.437 0.609-2.437 0.609-2.437-3.741 0-3.829 0.348-4.612 2.872-6.787 6.004-5.134 16.533-8.963 41.072-15.141 31.413-7.919 40.463-11.747 48.381-20.797 4.525-5.047 6.526-9.049 8.18-15.924 2.001-8.528 2.001-8.528-3.22-8.528-6.004 0.087-10.181 2.001-18.012 8.614-7.048 5.917-9.485 7.483-10.355 6.613-0.348-0.348-1.044-2.437-1.48-4.612l-0.87-4.090-4.35 0.087c-2.437 0-7.571 0.261-11.573 0.609-6.439 0.435-7.571 0.783-10.268 3.133-1.653 1.48-3.741 2.698-4.612 2.698-0.957 0-7.31 2.001-14.184 4.438-14.358 5.134-21.406 5.917-26.801 3.046-2.784-1.48-2.872-1.74-1.306-2.349 0.957-0.348 2.784-0.697 4.003-0.697 7.745-0.261 26.366-7.831 36.46-14.967 4.959-3.481 5.221-3.829 5.221-7.222 0-4.35 1.392-7.136 4.612-9.572 2.263-1.653 4.003-1.827 18.274-2.263 13.836-0.348 16.272-0.697 19.317-2.263 4.438-2.349 5.83-5.569 3.393-8.266-0.87-1.044-3.741-3.22-6.178-4.786-2.524-1.653-4.612-3.22-4.612-3.567s1.915-2.61 4.35-5.047c4.176-4.176 4.264-4.525 3.481-7.396-0.522-1.653-2.437-4.699-4.264-6.787l-3.22-3.741-17.839-0.174c-11.225-0.087-18.969 0.261-21.058 0.87-2.958 0.957-3.655 0.783-6.353-1.044-5.047-3.393-9.572-3.655-28.194-1.653-5.308 0.609-5.569 0.522-4.438-0.87 1.74-2.001 6.962-4.612 11.573-5.743 2.001-0.435 11.225-1.218 20.275-1.74 19.492-1.044 27.585-2.524 32.544-6.091 3.916-2.872 7.048-8.18 7.048-12.095 0-3.741-4.438-5.134-19.143-6.178-14.705-0.957-18.622-1.915-22.102-5.482l-2.698-2.784-18.274-0.522c-10.006-0.261-18.448-0.609-18.708-0.697-1.218-0.435 36.46-13.661 44.813-15.75 6.787-1.653 9.659-2.784 9.832-3.741 0.174-0.783-0.522-3.22-1.48-5.482-1.827-4.003-1.74-5.569 0.087-5.569 2.175 0 6.787-4.525 7.571-7.396 1.915-6.962-2.437-12.618-10.964-14.358-11.486-2.437-41.767-0.174-49.077 3.567-4.35 2.175-6.091 2.089-16.707-0.609-4.959-1.218-9.92-2.001-11.312-1.74-1.306 0.261-3.829 1.827-5.482 3.481-4.525 4.438-9.311 5.656-26.888 7.048-10.355 0.783-18.883 2.001-25.148 3.481-9.659 2.349-13.661 2.437-18.36 0.261-1.218-0.522-2.175-1.218-2.175-1.566 0-0.697 8.44-4.525 13.052-5.917 5.395-1.653 14.010-2.872 25.148-3.655 9.223-0.609 12.356-1.218 19.752-3.829 11.138-3.916 24.887-6.265 50.818-8.702l20.449-1.827-0.174-4.176c-0.261-7.919-5.83-14.27-17.229-19.752-15.75-7.483-33.588-11.4-52.645-11.486-13.836-0.087-19.057 0.87-30.195 5.482-11.747 4.959-17.665 6.353-21.841 5.221-6.874-1.915-8.093-7.136-2.524-10.615 2.524-1.653 3.829-1.74 15.837-1.392 22.972 0.609 75.53-2.175 78.924-4.264 1.306-0.783 0.783-6.787-0.87-9.92-1.566-2.784-1.827-2.958-5.917-2.698-2.784 0.087-7.136-0.697-12.878-2.437-9.137-2.872-16.446-3.393-22.712-1.74-1.915 0.522-7.396 2.784-12.183 4.959-8.005 3.741-9.223 4.090-15.228 4.003-4.959 0-7.396-0.435-10.268-2.001-4.090-2.089-5.482-4.176-3.567-5.395 1.48-0.87 4.176-0.261 10.181 2.437 7.136 3.133 8.528 2.872 19.492-3.829 4.612-2.872 5.656-3.133 15.488-3.829 11.138-0.87 14.879-2.089 16.62-5.308 0.87-1.653 0.697-2.175-1.218-3.829-3.307-2.784-11.225-5.569-18.969-6.526-11.573-1.392-31.413 1.74-47.598 7.571-3.393 1.218-3.916 1.218-5.83 0-4.786-3.133-4.612-7.136 0.435-9.223 2.263-0.957 4.090-0.957 10.006 0 7.483 1.131 10.615 1.044 25.235-1.218 4.786-0.783 13.139-1.392 18.534-1.392h9.92l11.138-9.746v-7.31c0-14.184-2.784-19.926-12.009-24.452-4.786-2.349-5.395-2.437-18.012-2.437-10.877 0.087-15.576 0.522-28.019 2.872-15.924 2.958-20.101 3.393-17.49 1.827 0.783-0.435 5.395-2.349 10.181-4.264 14.967-5.917 29.672-9.659 45.771-11.66l7.831-0.957 0.522-10.79-4.612-2.349c-6.091-3.133-15.576-3.829-22.972-1.653-2.784 0.783-12.009 4.699-20.362 8.702-8.354 3.916-16.185 7.396-17.403 7.657-5.395 1.306-8.44-11.051-3.916-15.576 2.175-2.175 2.175-2.175 13.749-1.566 11.4 0.609 11.573 0.522 16.272-1.827 4.35-2.263 5.917-2.524 17.403-3.046 13.487-0.609 16.533-1.48 16.533-4.959 0-2.872-4.612-7.657-8.528-8.789-6.265-1.915-14.705-1.218-28.106 2.089-13.487 3.393-22.102 4.090-26.714 2.175-2.349-1.044-2.784-1.653-2.784-4.176 0-2.784 0.174-3.046 2.001-2.524 5.743 1.827 9.311 1.566 18.448-1.218l9.398-2.872 10.529 1.044c11.66 1.131 14.010 1.306 19.492 1.044l3.655-0.087v-3.741c0-6.004-1.827-7.048-14.096-8.354-4.786-0.435-8.528-1.306-10.006-2.349l-2.437-1.566 9.137-1.827c14.967-3.046 13.922-2.524 13.922-6.962 0-2.089-0.435-4.873-1.044-6.091-0.87-1.915-1.48-2.175-5.656-2.175-13.661 0-31.761 3.393-43.595 8.18l-7.136 2.872-0.522-2.089c-0.87-3.22 0.174-8.528 1.915-10.964 0.957-1.131 4.090-4.003 7.136-6.265 6.874-5.134 8.093-7.396 5.656-10.703-1.306-1.74-2.872-2.524-6.004-2.958-2.349-0.435-5.569-0.87-7.136-1.131-1.653-0.348-3.393-1.392-4.176-2.61-1.218-1.915-1.218-2.349 0.261-4.786 0.87-1.48 4.35-4.959 7.745-7.745 6.178-5.134 9.049-9.398 9.049-13.401 0-2.437-1.392-3.22-5.917-3.307-3.916 0-9.049-1.74-9.485-3.133-0.174-0.522 1.131-2.089 2.872-3.481 8.614-6.526 10.094-8.44 10.529-13.052 0.435-4.438 0.435-4.438-2.349-5.047-2.524-0.522-7.222-0.261-13.227 0.957l-2.437 0.522v-65.523l-2.175-2.089c-1.131-1.218-3.133-2.175-4.35-2.175s-3.22 0.957-4.35 2.175zM361.545 169.599c-4.264 4.699-19.143 9.223-24.713 7.396-3.22-0.957-1.827-6.7 1.915-8.266 1.044-0.435 6.962-0.783 13.139-0.783 11.138-0.087 11.225-0.087 9.659 1.653zM281.49 299.253c4.699 1.48 10.615 2.872 13.139 3.133 4.873 0.609 5.482 1.915 1.566 3.741-3.481 1.566-7.483 1.131-11.66-1.306-3.393-1.915-4.786-2.175-10.442-2.089-9.398 0.348-10.268 0.174-12.183-1.74-2.263-2.263-2.175-3.307 0.261-3.741 5.482-1.044 11.4-0.435 19.317 2.001zM293.411 324.4c2.175 1.827 4.176 2.61 8.093 3.046 5.221 0.609 9.137 2.958 9.137 5.482s-9.572 0.348-20.188-4.699c-7.745-3.655-8.528-4.176-7.136-5.221 2.698-1.915 6.962-1.392 10.094 1.392zM369.985 349.374c7.483 1.306-0.522 5.917-13.487 7.831-11.921 1.74-14.705 2.61-17.49 5.134l-2.263 2.089v-14.619l5.917-0.348c11.138-0.522 24.104-0.609 27.323-0.087zM257.995 397.059c1.74 1.218 8.614 4.003 15.315 6.178 12.878 4.35 18.883 7.745 21.841 12.356l1.74 2.872h-3.829c-8.876 0-17.056-3.046-33.327-12.269-5.743-3.22-12.009-6.091-13.922-6.439-4.090-0.783-8.266-2.784-8.266-3.916 0-0.522 3.655-0.87 8.702-0.87 7.657 0 8.963 0.261 11.747 2.089zM232.673 413.678c4.438 3.133 6.526 3.916 14.705 5.656 3.393 0.697 6.962 2.263 10.615 4.873 7.745 5.221 10.268 6.178 25.235 9.137 7.136 1.392 15.576 3.393 18.622 4.438l5.656 1.827-2.001 1.566c-4.176 3.393-18.883 1.131-26.366-4.003-1.74-1.218-3.741-2.175-4.264-2.175-2.958 0-13.313-3.133-19.926-6.091-4.090-1.827-9.659-3.655-12.443-4.176-6.787-1.306-13.487-4.438-18.012-8.528-3.393-3.046-3.481-3.393-2.089-4.438 2.61-1.915 5.743-1.306 10.268 1.915zM385.822 458.579c-0.87 1.044-3.307 2.784-5.221 3.916-3.046 1.827-4.003 2.001-6.091 1.131-3.481-1.306-7.396-0.522-15.75 3.133-8.963 3.916-12.618 4.003-16.011 0.348-1.392-1.48-2.524-3.22-2.524-3.829s1.566-1.74 3.567-2.524c2.958-1.218 6.353-1.392 19.752-1.218 14.010 0.261 16.62 0.087 18.883-1.218 3.829-2.175 5.482-2.001 3.393 0.261zM263.478 483.118c1.827 1.827 5.656 4.264 8.528 5.395l5.134 2.175h-4.959c-4.264 0-5.047-0.261-5.482-1.827-0.783-2.349-5.482-4.264-10.615-4.264-5.656 0-14.27-1.48-15.402-2.61-1.915-1.915 1.653-2.698 10.529-2.437l8.963 0.261 3.307 3.307zM288.886 492.864c10.094 2.089 14.793 3.829 14.793 5.569 0 0.783 0.522 2.263 1.218 3.22 1.653 2.175 0.261 3.829-3.046 3.829-1.653 0-3.655-1.044-5.917-3.046-2.437-2.175-4.176-3.046-6.265-3.046-3.741 0-7.745-2.437-9.746-6.004l-1.653-2.784 2.089 0.522c1.131 0.261 4.959 1.044 8.528 1.74zM383.299 511.92c0 1.218-1.218 1.915-5.656 3.133-3.133 0.783-10.529 2.958-16.533 4.699-7.657 2.263-12.095 3.133-15.228 2.958l-4.35-0.261 3.133-2.437c4.35-3.307 11.66-5.743 20.71-6.874 4.090-0.522 8.702-1.48 10.094-2.089 3.741-1.653 7.831-1.218 7.831 0.87zM273.659 532.456c15.141 2.089 22.537 4.264 26.975 8.18 3.046 2.524 3.307 3.046 2.263 4.35-1.653 2.001-4.786 1.74-7.657-0.697-1.827-1.566-4.264-2.263-9.832-3.046-5.569-0.697-8.44-1.653-11.573-3.567-3.481-2.175-5.134-2.61-9.659-2.61-5.569 0-7.483-0.957-7.483-3.655 0-1.218 0.522-1.392 2.437-1.131 1.306 0.261 7.831 1.218 14.532 2.175zM362.067 540.809c1.48 0.697 2.524 1.74 2.263 2.349-0.174 0.522-2.349 2.089-4.873 3.393-3.481 1.827-5.83 2.437-9.572 2.437-5.482 0-6.526-0.522-7.222-3.22-0.522-2.089 1.044-4.003 4.525-5.395 3.393-1.306 11.921-1.131 14.879 0.435zM364.329 570.916c4.003 0.609 7.222 1.306 7.222 1.653 0 0.261-2.089 1.48-4.525 2.61-3.655 1.653-6.178 2.001-12.183 2.089-4.090 0-7.745-0.261-8.093-0.522-1.044-1.044 1.566-5.047 3.829-5.917 3.133-1.131 5.395-1.131 13.749 0.087zM425.501 575.703c0 1.566-3.567 6.353-6.265 8.44-5.221 3.916-16.011 8.354-26.191 10.615-21.58 4.959-27.149 6.526-32.544 9.049-4.35 2.001-6.004 2.349-7.31 1.74-0.87-0.522-2.61-0.697-3.829-0.348-1.218 0.261-3.133 0.261-4.35 0-2.089-0.522-2.175-0.87-1.653-3.829 1.392-7.919 5.482-10.094 21.667-11.486 13.139-1.044 22.189-3.133 36.111-8.18 14.358-5.308 24.364-7.745 24.364-6.004zM383.212 637.832c3.829 1.827 3.393 3.22-1.392 4.264-2.437 0.522-8.44 2.524-13.227 4.438-5.134 2.089-10.877 3.741-13.836 4.090l-5.134 0.435 0.348-2.524c0.348-3.22 3.22-4.699 9.659-4.699 3.916 0 6.265-0.609 10.442-2.698 4.786-2.437 8.528-4.003 10.355-4.176 0.348-0.087 1.566 0.348 2.784 0.87zM430.288 652.538c-9.398 9.485-16.794 12.183-25.67 9.485-1.653-0.435-6.353-0.87-10.442-0.87-11.834-0.087-20.623 3.393-29.325 11.66-2.524 2.349-3.133 2.524-6.874 2.001-4.959-0.609-8.18-2.524-8.18-4.786 0-1.306 0.957-1.653 5.395-2.175 7.571-0.783 16.707-3.481 28.977-8.528 24.887-10.268 33.241-12.618 45.248-12.792l6.874-0.087-6.004 6.091zM275.573 686.561c1.306 0.522 4.35 2.437 6.787 4.264 2.349 1.827 6.265 3.829 8.528 4.438 3.655 0.87 9.311 4.612 9.311 6.091 0 0.87-4.35 2.524-6.7 2.524-1.306 0-3.22-0.87-4.35-1.827-1.218-1.218-3.481-2.089-6.178-2.349-3.916-0.348-4.525-0.697-6.178-3.741-1.566-2.698-2.437-3.393-4.438-3.393-3.046 0-6.962-1.653-6.962-2.958 0.087-3.481 5.134-4.959 10.181-3.046zM276.094 743.905c15.228 1.306 26.714 4.699 26.714 7.919 0 2.61-3.481 5.917-7.222 6.962-6.439 1.74-16.707-0.697-22.363-5.221-2.524-2.001-4.176-2.524-9.832-2.958-7.222-0.522-15.576-3.741-16.62-6.265-0.348-1.131 1.044-1.306 9.311-1.306 5.395 0 14.358 0.435 20.014 0.87zM376.947 744.514c0.957 0.87 1.566 2.61 1.566 4.525 0 4.959-0.957 5.743-7.571 5.917-3.393 0.087-8.702 1.044-12.53 2.263l-6.613 2.089-1.566-2.958c-1.566-2.872-1.566-2.958 0.174-4.786 1.827-1.74 2.001-1.74 5.395-0.348 7.571 2.958 15.228 0.522 17.056-5.395 0.87-3.133 1.74-3.393 4.090-1.306zM298.458 778.363l3.481 0.609v10.094l-4.873 0.957c-7.136 1.48-14.793-0.783-21.58-6.439-3.046-2.524-2.524-3.567 2.784-5.308 4.003-1.306 11.747-1.218 20.188 0.087zM378.513 783.671c0 0.783-0.435 2.784-1.044 4.35-0.783 2.175-1.74 3.133-4.176 3.741-7.048 2.001-18.274 0.435-23.059-3.133-1.48-1.131-1.566-1.392-0.435-2.089 2.524-1.653 7.571-2.61 17.49-3.307 5.482-0.435 10.181-0.87 10.615-0.957 0.348 0 0.609 0.609 0.609 1.392z"></path>
</svg>
