<?xml version="1.0" encoding="utf-8"?>
<!-- Generated by IcoMoon.io -->
<!DOCTYPE svg PUBLIC "-//W3C//DTD SVG 1.1//EN" "http://www.w3.org/Graphics/SVG/1.1/DTD/svg11.dtd">
<svg version="1.1" xmlns="http://www.w3.org/2000/svg" xmlns:xlink="http://www.w3.org/1999/xlink" width="1024" height="1024" viewBox="0 0 1024 1024">
<g id="icomoon-ignore">
</g>
<path d="M475.428 130.612l-30.303 126.43-192.258-192.258 35.525 124.343c19.852 67.919 35.525 126.43 35.525 130.612s-55.38-9.404-122.252-28.212c-67.919-19.852-125.387-35.525-127.477-35.525-3.135 0 36.572 41.794 87.771 94.040 63.737 63.737 87.771 95.084 77.323 98.218-8.36 3.135-63.737 17.764-124.343 32.39-60.602 15.673-110.757 29.256-112.848 31.347-2.091 1.044 50.155 15.673 114.939 31.347s122.252 31.347 127.477 34.481c4.179 2.091-33.437 45.976-83.592 97.175-51.198 51.198-89.861 92.996-86.727 92.996 2.091 0 59.559-15.673 127.477-35.525 66.872-18.808 122.252-32.39 122.252-28.212s-15.673 62.693-35.525 130.612l-35.525 124.343 192.258-192.258 30.303 126.43c16.717 68.963 33.437 125.387 36.572 125.387s19.852-56.424 36.572-125.387l30.303-126.43 192.258 192.258-35.525-124.343c-19.852-67.919-35.525-126.43-35.525-130.612s55.38 9.404 122.252 28.212c67.919 19.852 125.387 35.525 127.477 35.525 3.135 0-36.572-41.794-87.771-94.040-63.737-63.737-87.771-95.084-77.323-98.218 8.36-3.135 63.737-17.764 124.343-32.39 60.602-15.673 110.757-29.256 112.848-31.347 2.091-1.044-50.155-15.673-114.939-31.347s-122.252-31.347-127.477-34.481c-4.179-2.091 33.437-45.976 83.592-97.175 51.198-51.198 89.861-92.996 86.727-92.996-2.091 0-59.559 15.673-127.477 35.525-66.872 18.808-122.252 32.39-122.252 28.212s15.673-62.693 35.525-130.612l35.525-124.343-192.258 192.258-30.303-126.43c-16.717-68.963-33.437-125.387-36.572-125.387s-19.852 56.424-36.572 125.387z"></path>
</svg>
