<svg xmlns="http://www.w3.org/2000/svg" width="1024" height="1024" viewBox="0 0 1024 1024"><path d="M495.592 16.14l-13.99 14.528 7.535 113c9.686 137.75 9.686 126.453.54 126.453-8.61 0-9.148-2.15-25.29-126.45-5.92-47.353-11.84-86.633-12.378-87.17-.54-1.078-6.46 3.765-12.915 10.76l-11.838 12.377 18.832 93.63c10.224 51.118 18.83 95.24 18.83 97.395s-6.457 5.383-14.53 7.535c-8.07 1.615-27.98 9.686-43.584 17.22-17.756 8.61-30.672 11.838-32.824 8.61-1.615-3.228-25.83-39.82-53.81-81.79-48.428-72.642-51.12-75.87-68.876-75.87H233l65.65 86.096c45.736 59.73 64.032 88.248 60.265 92.015s-29.596-22.062-82.867-83.404c-76.947-88.785-77.486-88.785-100.086-89.322h-23.138v22.6c.54 23.137.54 23.674 89.323 100.623 61.34 53.272 87.17 79.1 83.403 82.868s-32.285-14.53-92.014-60.266L147.44 231.93v18.294c0 17.755 3.228 20.446 75.87 68.875 41.97 27.98 78.56 52.194 81.79 53.81 3.227 2.15 0 15.067-8.61 32.823-7.535 15.603-15.605 35.514-17.22 43.585-2.153 8.07-5.383 14.53-7.535 14.53s-46.278-8.61-97.397-18.833l-93.63-18.832-12.376 11.838c-6.995 6.46-11.838 12.378-10.762 12.914.54.54 39.82 6.46 87.17 12.378 125.915 16.68 126.454 16.68 126.454 25.29 0 9.147 11.3 9.147-126.454-.54l-113-7.533-15.604 15.603c-16.144 15.603-16.144 15.603-5.92 27.44 5.92 5.92 14.53 13.454 18.833 15.605 4.842 2.69 55.422 1.076 113-2.69 131.832-9.687 129.14-9.687 129.14-.54 0 8.61-.54 8.61-126.452 25.29-47.352 5.92-86.632 11.838-87.17 12.377-1.077.54 3.766 6.458 10.76 12.913l12.378 11.838 93.63-18.832c51.118-10.224 95.24-18.83 97.395-18.83s5.383 6.457 7.535 14.528c1.616 8.07 9.687 27.98 17.22 43.586 8.61 17.756 11.84 30.672 8.61 32.824-3.227 1.615-39.818 25.83-81.788 53.81-72.643 48.428-75.87 51.12-75.87 68.876v18.295l86.095-65.65c59.73-45.736 88.247-64.032 92.014-60.265s-22.06 29.596-83.403 82.867c-88.786 76.946-88.786 77.485-89.323 100.085v23.138h23.138c22.6-.54 23.138-.54 100.085-89.323 53.27-61.342 79.1-87.17 82.867-83.404s-11.838 27.98-50.58 78.56c-30.672 40.36-60.266 79.1-65.648 86.634l-10.225 12.914h18.833c17.756 0 20.447-2.69 68.876-75.87 27.98-41.97 52.194-78.56 53.81-81.79 2.15-3.227 15.067 0 32.823 8.61 15.603 7.535 35.514 15.605 43.585 17.22 8.07 2.153 14.528 5.383 14.528 7.535s-8.61 46.276-18.832 97.395l-18.83 93.63 11.837 12.376c6.458 6.996 12.377 11.84 12.913 10.763.54-.54 6.458-39.82 12.377-87.17 16.144-124.3 16.68-126.454 25.29-126.454 9.147 0 9.147-7.535-.54 126.452-3.766 59.19-5.38 110.846-2.69 115.69 2.152 4.303 9.147 12.376 14.53 17.22 9.685 9.146 11.3 8.61 27.44-8.072l16.68-17.22-7.533-104.927c-9.687-131.833-9.687-129.142-.54-129.142 8.61 0 8.61.54 25.29 126.454 5.92 47.352 11.838 86.632 12.377 87.17.54 1.077 6.46-3.766 12.914-10.76l11.838-12.378-18.832-93.63c-10.225-51.118-18.832-95.24-18.832-97.395s6.458-5.38 14.53-7.533c8.07-1.615 27.98-9.686 43.585-17.22 17.755-8.61 30.67-11.838 32.823-8.61 1.615 3.228 25.83 39.82 53.81 81.79 48.428 72.642 51.12 75.87 68.876 75.87h18.294l-65.648-86.096c-45.737-59.728-64.033-88.246-60.266-92.013s29.596 22.062 82.867 83.404c76.945 88.787 77.484 88.787 100.623 89.324h22.6v-23.137c-.54-22.6-.54-23.138-89.323-100.085-61.342-53.27-87.17-79.1-83.404-82.866s32.285 14.53 92.014 60.266l86.095 65.648V774.33c0-17.755-3.228-20.446-75.87-68.875-41.97-27.98-78.56-52.195-81.79-53.81-3.227-2.152 0-15.068 8.61-32.824 7.535-15.603 15.605-35.514 17.22-43.585 2.153-8.07 5.383-14.53 7.535-14.53s46.277 8.61 97.396 18.833l93.63 18.832 12.376-11.838c6.994-6.458 11.837-12.377 10.76-12.913-.538-.54-39.818-6.458-87.17-12.377-125.914-16.68-126.453-16.68-126.453-25.29 0-9.147-2.69-9.147 129.14.54l104.927 7.533 17.22-16.68c16.68-16.144 17.22-17.756 8.07-27.442-4.842-5.382-12.912-12.377-17.22-14.53-4.842-2.69-56.498-1.075-115.688 2.692-133.985 9.686-126.454 9.686-126.454.54 0-8.61 2.152-9.148 126.453-25.29 47.35-5.92 86.63-11.84 87.17-12.378 1.076-.54-3.767-6.46-10.76-12.914l-12.38-11.838-93.63 18.832c-51.117 10.225-95.24 18.832-97.394 18.832s-5.382-6.458-7.534-14.53c-1.614-8.07-9.685-27.98-17.22-43.585-8.61-17.756-11.837-30.672-8.61-32.824 3.23-1.614 39.82-25.83 81.79-53.81 73.182-48.427 75.87-51.12 75.87-68.875v-18.832l-12.913 10.225c-7.535 5.382-46.278 34.976-86.633 65.648-50.58 38.743-74.794 54.347-78.56 50.58s22.06-29.596 83.403-82.867c88.786-76.946 88.786-77.485 89.323-100.624v-22.6h-22.598c-23.138.54-23.675.54-100.624 89.324-53.27 61.343-79.1 87.172-82.866 83.405s14.53-32.285 60.267-92.014l65.65-86.093H775.4c-17.756 0-20.447 3.228-68.876 75.87-27.98 41.97-52.195 78.56-53.81 81.79-2.152 3.227-15.068 0-32.824-8.61-15.604-7.535-35.515-15.605-43.586-17.22-8.07-2.153-14.53-5.383-14.53-7.535s8.61-46.276 18.833-97.395l18.832-93.63L587.6 67.26c-6.457-6.996-12.376-11.84-12.912-10.763-.54.54-6.458 39.82-12.377 87.17-16.68 125.915-16.68 126.454-25.29 126.454-4.302 0-7.532-4.302-7.532-9.684 0-11.838 9.686-149.59 13.453-193.174 2.69-29.595 1.616-34.438-11.3-49.503-7.534-9.148-15.604-16.68-17.756-16.68S503.66 7.536 495.59 16.146z"/></svg>