<?xml version="1.0" encoding="utf-8"?>
<!-- Generated by IcoMoon.io -->
<!DOCTYPE svg PUBLIC "-//W3C//DTD SVG 1.1//EN" "http://www.w3.org/Graphics/SVG/1.1/DTD/svg11.dtd">
<svg version="1.1" xmlns="http://www.w3.org/2000/svg" xmlns:xlink="http://www.w3.org/1999/xlink" width="1024" height="1024" viewBox="0 0 1024 1024">
<g id="icomoon-ignore">
</g>
<path d="M510.245 21.296c-3.073 86.505-16.686 324.941-18.442 326.697-1.317 1.317-25.908-69.38-54.449-157.64-28.543-87.822-52.693-159.396-53.571-158.518s14.491 75.088 33.811 165.105c19.76 90.017 35.129 164.226 34.251 165.105-0.878 0.439-43.91-63.67-95.726-143.149s-95.286-143.589-96.165-142.711c-0.878 1.317 0.439 4.391 2.635 7.465 2.635 3.073 38.642 72.893 80.357 155.005 57.962 114.168 72.893 146.662 63.232 137.88-7.026-6.148-61.036-54.449-120.316-107.142s-114.608-101.874-122.951-109.338c-17.564-15.807 13.174 18.882 135.245 153.249 48.302 53.132 86.944 97.483 86.505 97.921-0.878 0.878-70.258-32.933-154.127-75.526-84.309-42.155-153.249-76.405-153.688-75.966-0.878 0.439 64.988 43.472 145.346 95.286 80.796 51.815 146.223 94.408 145.784 94.848s-75.088-14.491-165.544-33.811c-90.457-18.882-165.983-33.811-168.179-33.372-1.756 0.439 67.623 23.273 153.688 50.936 86.505 27.664 160.275 51.815 163.788 53.571 4.83 2.635 2.635 3.513-6.586 3.952-7.026 0-81.235 3.952-164.666 8.782s-158.080 8.782-166.422 8.782c-8.343 0-14.052 0.878-13.174 1.756s75.966 5.269 166.422 9.221c90.457 3.952 169.496 8.782 174.765 10.539 7.904 2.195-30.738 16.247-150.175 55.328-88.26 28.543-159.836 52.693-158.958 53.571s75.088-14.491 165.105-33.811c90.017-19.76 164.226-35.129 164.666-34.251 0.878 0.878-63.232 43.91-142.711 95.726s-143.589 95.286-142.711 96.165c1.317 0.878 4.391-0.439 7.465-2.635 3.073-2.635 72.893-38.642 155.005-80.357 114.168-57.962 146.662-72.893 137.88-63.232-6.148 7.026-54.449 61.036-107.142 120.316s-101.874 114.608-109.338 122.951c-15.807 17.564 18.882-13.174 153.249-135.245 53.132-48.302 97.483-86.944 97.921-86.505 0.878 0.878-32.933 70.258-75.526 154.127-42.155 84.309-76.405 153.249-75.966 153.688 0.439 0.878 43.472-64.988 95.286-145.346 51.815-80.796 94.408-146.223 94.848-145.784s-14.491 75.088-33.811 165.544c-18.882 90.457-33.811 165.983-33.372 168.179 0.439 1.756 23.273-67.623 50.936-153.688 27.664-86.505 51.815-160.275 53.571-163.788 2.635-4.83 3.513-2.635 3.952 6.586 0 7.026 3.952 81.235 8.782 164.666s8.782 158.080 8.782 166.422c0 8.343 0.878 14.052 1.756 13.174s5.269-75.966 9.221-166.422c3.952-90.457 8.782-169.496 10.539-174.765 2.195-7.904 16.247 30.738 55.328 150.175 28.543 88.26 52.693 159.836 53.571 158.958s-14.491-75.088-33.811-165.105c-19.76-90.017-35.129-164.226-34.251-164.666 0.878-0.878 43.91 63.232 95.726 142.711s95.286 143.589 96.165 142.711c0.878-1.317-0.439-4.391-2.635-7.465-2.635-3.073-38.642-72.893-80.357-155.005-57.962-114.168-72.893-146.662-63.232-137.88 7.026 6.148 61.036 54.449 120.316 107.142s114.608 101.874 122.951 109.338c17.564 15.807-13.174-18.882-135.245-153.249-48.302-53.132-86.944-97.483-86.505-97.921 0.878-0.878 70.258 32.933 154.127 75.526 84.309 42.155 153.249 76.405 153.688 75.966 0.878-0.439-64.988-43.472-145.346-95.286-80.796-51.815-146.223-94.408-145.784-94.848s75.088 14.491 165.544 33.811c90.457 18.882 165.983 33.811 168.179 33.372 1.756-0.439-67.623-23.273-153.688-50.936-86.505-27.664-160.275-51.815-163.788-53.571-4.83-2.635-2.635-3.513 6.586-3.952 7.465 0 81.235-3.952 164.666-8.782s158.080-8.782 166.422-8.782c8.343 0 14.052-0.878 13.174-1.756s-75.966-5.269-166.422-9.221c-90.457-3.952-169.496-8.782-174.765-10.539-7.904-2.195 30.738-16.247 150.175-55.328 88.26-28.543 159.836-52.693 158.958-53.571s-75.088 14.491-165.105 33.811c-90.017 19.76-164.226 35.129-164.666 34.251-0.878-0.878 63.232-43.91 142.711-95.726s143.589-95.286 142.711-96.165c-1.317-0.878-4.391 0.439-7.465 2.635-3.073 2.635-72.893 38.642-155.005 80.357-114.168 57.962-146.662 72.893-137.88 63.232 6.148-7.026 54.449-61.036 107.142-120.316s101.874-114.608 109.338-122.951c15.807-17.564-18.882 13.174-153.249 135.245-53.132 48.302-97.483 86.944-97.921 86.505-0.878-0.878 32.933-70.258 75.526-154.127 42.155-84.309 76.405-153.249 75.966-153.688-0.439-0.878-43.472 64.988-95.286 145.346-51.815 80.796-94.408 146.223-94.848 145.784s14.491-75.088 33.811-165.544c18.882-90.457 33.811-166.422 33.372-168.179s-23.273 67.183-50.936 153.688c-53.132 166.861-57.084 177.839-57.524 158.518 0-22.833-17.564-330.649-19.32-339.431-0.878-4.83-1.756 2.195-2.195 15.369zM571.72 380.048c71.136 31.176 104.069 117.681 72.014 188.817-50.936 114.168-212.529 114.168-263.465 0-31.176-68.501-1.756-151.492 65.427-186.183 40.398-20.638 82.992-21.517 126.024-2.635z"></path>
<path d="M472.042 381.366c-37.764 11.856-79.039 54.011-89.578 91.335-12.734 46.107 1.317 99.239 35.129 132.61 63.232 63.67 169.057 47.863 212.968-31.176 11.856-21.517 13.174-27.664 13.174-63.232 0-32.494-1.756-42.594-10.099-57.962-25.468-47.863-63.232-72.453-115.046-74.209-18.004-0.878-39.081 0.439-46.545 2.635z"></path>
</svg>
