<?xml version="1.0" encoding="utf-8"?>
<!-- Generated by IcoMoon.io -->
<!DOCTYPE svg PUBLIC "-//W3C//DTD SVG 1.1//EN" "http://www.w3.org/Graphics/SVG/1.1/DTD/svg11.dtd">
<svg version="1.1" xmlns="http://www.w3.org/2000/svg" xmlns:xlink="http://www.w3.org/1999/xlink" width="1028" height="1024" viewBox="0 0 1028 1024">
<g id="icomoon-ignore">
</g>
<path d="M959.376 179.848c-8.196 5.909-15.44 10.865-16.202 11.056-0.953 0.19-3.621-3.431-6.291-8.196-5.338-10.103-8.387-11.056-15.249-5.718-4.765 3.813-5.146 4.956-5.146 19.633v15.63l-23.065 18.68c-12.771 10.293-23.446 18.49-23.827 18.108s-1.335-6.863-2.288-14.296c-1.525-13.152-1.525-13.534 2.097-11.627 2.86 1.335 4.193 1.335 5.338-0.572 4.575-7.053-11.056-49.37-18.108-49.37-1.335 0-4.956 1.906-7.816 4.193l-5.338 4.193 1.335 24.59 1.335 24.78-9.341-8.387c-10.674-9.531-27.449-20.015-35.074-21.73-4.575-1.143-5.338-0.572-6.481 4.003-1.335 5.338-1.525 5.146-4.575-4.003-1.906-5.338-5.146-13.344-7.434-17.727-3.621-6.863-4.956-8.196-9.149-7.624-2.668 0.381-6.671 2.86-8.578 5.528-3.813 4.956-3.813 5.528 0.19 52.42 2.288 26.114 4.575 51.276 5.146 56.042 1.143 8.196 0.953 8.578-4.003 8.768-10.293 0.763-67.669 31.452-67.669 36.408 0 1.335 0.953 2.478 2.288 2.478 4.003 0 67.86-32.214 68.813-34.692s2.478 4.765 4.003 18.871l0.763 8.196-20.777 18.299c-11.819 10.103-22.111 17.727-23.446 17.347-4.003-1.525-60.426-48.989-61.188-51.467-0.381-1.335-2.097-18.68-3.813-38.505-1.525-20.015-3.431-40.411-4.193-45.558-1.143-8.768-0.953-9.149 2.668-7.053 4.956 2.478 6.291 1.143 6.291-6.481 0-10.674-13.152-42.889-17.347-42.889-0.953 0-3.621 0.953-6.291 2.097-8.578 4.003-8.959 8.196-5.146 63.666 1.906 28.211 3.24 51.848 2.668 52.42-0.953 0.953-18.49-17.727-25.543-27.258l-3.813-5.146h5.718c8.196 0 7.624-4.003-1.906-14.296-9.721-10.484-24.208-19.824-32.977-21.349-5.909-0.953-6.863-0.572-7.816 3.813-3.050 11.437 13.344 35.836 47.273 71.1l21.921 22.874 2.097 26.496c6.1 74.913 10.293 116.468 11.819 118.183 3.24 3.24 7.053-4.193 9.341-18.49 1.525-8.578 2.097-29.546 1.715-58.71-0.763-40.792-0.381-44.986 2.288-43.080 7.053 5.146 39.839 34.311 39.839 35.455 0 0.572-2.86 4.003-6.481 7.434-14.868 14.296-25.543 50.132-17.727 58.901 1.906 2.097 2.86 7.053 2.86 14.868 0 27.068 22.111 51.657 42.889 47.654 10.484-1.906 14.868-8.006 24.399-34.311 7.624-21.158 16.774-32.024 27.258-32.405 7.243-0.19 7.434 0 10.865 10.103 8.006 23.065 15.63 28.783 38.505 29.355 14.106 0.381 16.584-0.19 24.59-4.956 10.293-5.909 17.155-16.202 20.777-30.88 2.478-9.912 0.381-61.951-4.765-116.276-1.335-13.724-2.097-25.161-1.715-25.543 0.19-0.381 6.291 4.765 13.344 11.437 7.243 6.671 18.49 17.155 25.161 23.255l12.39 10.865 4.193 52.039c4.765 57.185 5.718 64.238 8.578 64.238 6.671 0 12.39-43.461 10.103-77.963l-1.335-20.015 8.006 6.291c15.821 12.581 34.12 37.552 41.364 56.804l3.24 8.387-5.528 5.718c-12.199 13.152-55.851 37.933-83.109 47.654-8.196 2.86-9.149 4.575-3.24 6.1 9.341 2.478 42.317-5.718 63.857-15.63 25.733-12.199 39.648-27.83 49.751-56.804 5.146-14.296 5.338-16.393 5.146-50.132 0-19.443-1.143-45.939-2.478-59.091-2.668-27.258-9.341-85.969-10.674-93.975-0.763-4.765-0.572-5.146 3.050-3.050 5.146 2.668 6.291 1.335 5.909-7.624-0.572-13.344-13.152-42.126-18.49-42.126-1.335 0-4.575 1.715-7.434 4.003-4.384 3.431-4.956 5.146-4.956 15.63 0 13.724 3.050 47.273 12.581 138.198 4.956 47.464 6.481 69.004 5.528 77.963l-1.335 12.581-3.24-9.341c-5.528-16.393-21.158-35.455-50.132-61.379-8.387-7.434-9.149-8.768-9.149-16.774 0-9.531-7.053-97.787-8.578-106.174-0.763-4.765-0.572-5.146 3.050-3.050 5.338 2.668 7.816-0.763 6.291-8.959-0.953-5.146-0.19-6.671 4.765-10.103 11.056-8.006 28.974-34.502 23.255-34.502-0.953 0-8.387 4.765-16.393 10.484zM820.606 249.805c12.199 12.199 21.921 22.683 21.54 23.255-0.572 0.381-11.246 9.531-23.827 20.015l-22.874 19.443-1.335-8.196c-0.763-4.575-2.668-21.54-4.384-37.742s-3.621-32.786-4.193-36.789c-1.143-7.053-0.953-7.243 4.003-5.909 4.193 0.953 4.956 0.572 5.146-3.24 0.19-4.003 0.381-4.003 1.906 1.143 0.953 3.24 10.865 14.868 24.018 28.021zM921.443 275.918c1.715 23.255 2.478 42.889 1.906 43.461-0.953 1.143-19.633-14.868-41.936-36.027-7.243-7.053-10.865-11.627-9.721-12.771 4.956-4.575 45.748-37.933 46.129-37.552 0.19 0.19 1.906 19.443 3.621 42.889zM855.298 319.951c1.335 14.106 4.956 48.036 7.816 75.103 3.813 34.883 4.956 50.514 3.621 52.992-3.621 6.863-13.344 11.056-25.543 11.056-16.774 0-21.921-3.813-31.261-23.446-8.387-17.727-11.056-19.443-23.636-16.774-14.868 3.431-27.068 18.299-39.458 48.036-6.1 14.677-14.677 24.59-20.777 24.59-8.768 0-20.205-16.202-24.018-33.93-1.143-5.909-1.143-6.1 5.146-6.1 9.912 0 28.402-5.338 36.408-10.674 18.68-12.199 21.54-35.836 6.481-54.898l-5.909-7.434 7.624-6.481c4.003-3.621 11.437-9.721 16.202-13.915l8.768-7.434 3.050 26.114c1.906 14.296 4.003 26.686 4.956 27.639 2.668 2.668 7.624-6.291 9.721-17.537 0.953-5.718 1.906-19.824 1.906-31.642v-21.54l27.258-22.874c21.349-18.108 27.258-22.302 28.211-19.824 0.572 1.906 2.097 14.868 3.431 28.974zM734.829 396.579c10.484 11.627 9.912 18.68-1.906 24.59-9.721 5.146-29.927 7.243-29.927 3.431 0-5.146 21.73-32.214 25.733-32.214 1.143 0 4.003 1.906 6.1 4.193z"></path>
<path d="M825.371 360.362c-2.86 2.86-2.86 11.056-0.19 18.108 1.906 4.956 1.335 5.909-6.671 13.344-4.956 4.384-13.915 9.912-20.587 12.39-15.821 6.1-17.155 10.103-2.86 8.578 12.771-1.335 28.211-8.578 37.552-17.727 3.813-3.621 8.768-6.481 11.056-6.481 6.1 0 12.39-6.863 10.674-12.009-2.478-8.006-16.202-18.49-24.399-18.49-1.143 0-3.24 0.953-4.575 2.288z"></path>
<path d="M207.392 174.13c-4.003 4.956-4.384 17.155-0.953 27.83 1.906 5.718 8.006 19.633 13.724 31.071 11.056 22.683 12.581 31.071 6.291 37.361-6.1 6.1-21.73 5.338-32.595-1.525-12.962-8.387-18.871-20.968-20.777-43.842-2.097-27.068-8.196-48.036-13.724-48.036-2.86 0-11.056 9.912-11.056 13.534 0 1.906 2.097 9.912 4.765 17.727 6.481 19.252 6.481 36.598 0 49.751-6.291 12.962-12.962 20.205-21.158 22.683-3.813 1.143-4.003 0.19-6.291-21.158-1.143-12.39-2.668-26.114-3.24-30.308-1.143-7.624-0.953-7.816 3.813-7.053 4.575 0.953 4.956 0.572 4.956-5.528 0-7.434-4.956-23.255-11.246-35.645-3.621-6.671-4.956-8.006-9.149-7.434-2.668 0.381-6.671 2.86-8.578 5.528-3.621 4.765-3.621 5.528 0.19 53.373 2.097 26.496 3.431 48.607 3.050 48.989s-3.813-0.763-7.624-2.478c-14.487-7.053-16.584-24.018-7.624-59.091 2.86-11.246 4.765-20.587 4.193-21.158-1.715-1.715-12.009 3.431-18.108 9.341-8.578 8.196-13.534 18.299-24.208 50.514-7.816 23.636-9.531 27.449-14.296 29.927-7.434 3.813-11.819 3.621-17.727-0.953-9.341-7.243-12.199-42.698-4.193-51.467 4.193-4.575 1.715-4.956-4.575-0.763-6.481 4.575-9.721 14.106-9.721 28.783 0 17.347 2.86 26.686 10.484 34.311 5.528 5.528 7.434 6.291 16.774 6.291 17.918 0 22.683-6.481 36.217-49.751 3.813-12.199 8.196-23.255 9.721-24.399 2.288-2.097 2.288-1.143 0 6.671-3.813 12.962-3.431 36.027 0.953 45.558 4.384 9.912 13.534 17.727 24.018 20.396l8.196 2.288 1.143 10.484c0.572 5.909 3.24 32.977 6.1 60.235 2.668 27.258 5.528 50.323 6.481 51.276 2.478 2.478 7.434-6.863 9.721-19.062 2.097-11.056 1.143-90.734-1.335-101.981-0.953-4.193-0.19-5.338 4.765-7.434 8.196-3.24 19.824-16.965 25.161-29.546 2.478-5.718 5.146-10.484 5.718-10.484s2.097 3.431 3.431 7.816c4.765 16.012 22.111 26.877 42.317 26.877 18.108-0.19 30.689-10.484 33.93-27.639 2.478-14.106-0.763-27.639-10.865-44.414-3.050-5.146-6.1-11.627-6.863-14.677-1.143-4.575-0.763-5.146 3.621-5.146 6.863 0 5.909-3.621-4.765-17.918-9.721-12.771-14.487-15.249-19.062-9.721z"></path>
<path d="M587.291 176.989c-15.63 11.627-20.205 26.305-10.865 35.455 5.909 6.1 12.771 5.146 20.396-3.24 6.291-6.671 7.053-12.39 1.525-9.341-2.097 0.953-5.909 1.906-8.578 1.906-6.863 0-6.481-6.291 0.763-17.918 3.24-5.146 5.718-9.912 5.338-10.865s-4.193 0.763-8.578 4.003z"></path>
<path d="M251.615 175.083c-6.1 2.478-8.387 10.484-7.053 23.827 1.335 12.581 15.44 126.189 17.347 140.485 1.335 8.959 1.143 9.149-3.621 9.149-7.434 0-12.771-6.863-12.771-16.584 0-5.338-0.763-8.196-2.478-8.196-2.478 0-12.199 6.291-25.733 16.584-4.575 3.431-9.341 6.291-10.674 6.291s-4.956-3.813-7.816-8.387c-6.671-10.674-16.774-16.393-28.783-16.393-12.962 0-20.777 5.338-26.496 17.727-6.671 14.106-6.481 26.114 0.763 34.12 4.765 5.338 6.671 6.1 17.727 6.863 8.006 0.572 16.202-0.381 23.065-2.288 13.344-3.813 12.771-4.003 12.771 2.668 0 11.819-20.968 28.593-60.235 48.226-21.54 10.865-60.616 28.021-63.666 28.021-0.763 0-2.668-6.291-3.813-13.724-4.384-25.733 0.572-54.326 12.581-72.816l5.146-7.816-6.1 5.718c-8.768 8.196-16.774 21.349-22.493 37.361-4.193 12.009-4.956 17.347-5.146 36.408l-0.19 22.493-5.718 2.097c-3.050 1.143-13.534 4.384-23.255 7.243s-18.299 5.718-19.062 6.671c-0.763 0.763 11.627 1.143 27.449 1.143l28.783-0.381 8.006 5.909c16.965 12.199 42.126 14.677 76.247 7.816 62.904-12.771 109.224-43.461 127.523-84.253 5.718-12.771 9.721-28.211 9.721-38.123 0-3.24 2.288-10.484 4.956-16.012l4.956-10.103 5.718 6.481c7.624 8.768 15.821 10.293 27.068 4.765 4.765-2.288 10.865-6.671 13.344-9.721 5.718-6.671 9.721-23.446 8.006-32.977-1.335-7.243-6.481-13.915-8.768-11.246-2.097 2.478-5.718 19.062-4.765 21.921 1.906 5.146-6.481 11.056-15.821 11.056-8.006 0-12.581-5.909-11.246-14.296 0.763-5.146 0.381-6.671-1.715-6.671-5.146 0-9.912 3.621-16.584 12.39l-6.481 8.387-2.097-17.537c-1.143-9.721-1.525-17.727-0.763-18.108s12.581-6.291 26.114-13.344c16.584-8.578 24.971-13.915 25.352-16.393 1.143-5.338-6.1-3.050-32.024 10.103l-22.111 11.056-4.193-28.783c-2.288-15.821-4.765-32.214-5.528-36.408-1.143-6.863-0.953-7.434 1.906-5.146 8.006 6.671 9.341-5.528 2.478-24.78-4.384-12.199-11.437-24.59-14.106-24.208-0.763 0-3.24 0.763-5.718 1.715zM244.752 368.558c3.431 1.525 9.912 3.050 14.106 3.431l8.006 0.381-0.763 10.484c-0.953 14.487-7.816 27.449-21.349 41.173-25.924 25.924-69.766 43.651-119.517 48.226-33.549 3.24-33.549 3.24-5.909-10.293 67.86-32.977 93.403-55.66 94.737-84.253 0.381-9.149 0.953-10.674 8.768-17.537l8.387-7.434 3.621 6.481c2.097 3.431 6.481 7.624 9.912 9.341z"></path>
<path d="M484.929 182.898c-6.291 7.434-6.291 13.152 0.381 24.208 4.575 8.196 5.146 10.674 5.146 27.068-0.19 20.587-3.24 28.974-15.44 40.792-8.768 8.578-17.347 11.246-31.452 10.293-12.009-0.953-18.49-4.384-25.352-13.724-5.909-7.624-4.956-24.208 2.478-47.654 4.575-14.296 5.338-19.443 3.813-21.349-3.050-3.813-4.575-3.431-11.819 3.050-7.434 6.481-17.155 25.543-25.733 49.942-10.674 29.927-15.059 35.836-26.496 35.836-14.106-0.19-21.158-17.918-18.108-45.367 0.953-7.624 0.953-13.152 0.19-12.39-2.86 3.050-7.624 20.777-8.768 32.024-1.906 21.921 6.291 36.408 22.111 38.505 18.108 2.478 27.258-7.816 38.314-43.080 4.193-13.152 9.341-26.686 11.627-29.736l4.003-5.718-1.335 5.718c-7.816 33.93-8.196 40.411-3.050 51.467 4.384 9.531 8.196 12.962 20.205 18.299 18.108 8.006 42.889 2.668 55.279-12.009 6.1-7.243 14.296-23.065 14.296-27.639 0-1.906 2.668 1.906 5.909 8.387 8.196 17.155 20.968 25.352 38.695 25.352 30.117-0.19 43.842-29.927 28.783-62.523-2.86-5.909-6.671-15.44-8.578-20.968l-3.621-9.912h5.718c3.050 0 5.528-0.953 5.528-1.906 0-1.143-4.575-6.671-10.103-12.39-11.437-11.819-17.537-13.534-20.587-5.338s1.335 24.018 13.724 49.179c12.009 24.59 13.915 34.12 8.006 39.458-8.959 7.816-25.543 6.481-36.217-2.86-12.009-10.674-15.821-22.111-21.54-64.81-1.906-14.487-6.1-26.114-9.341-26.114-0.953 0-4.003 2.668-6.671 5.909z"></path>
<path d="M712.527 180.801c-2.097 2.097-3.813 5.528-3.813 7.816 0 3.621-0.572 3.431-5.718-2.097-3.813-4.003-7.053-5.718-9.912-5.338-7.053 0.953-6.481 7.053 1.335 13.534 4.003 3.24 8.387 8.959 10.103 12.581l2.86 6.863 3.621-11.437c3.813-12.009 8.768-19.252 10.484-14.868 1.335 3.621 8.196 3.050 9.531-0.763 1.335-3.621-5.528-10.103-11.056-10.103-1.906 0-5.338 1.715-7.434 3.813z"></path>
<path d="M12.961 187.854c-8.006 7.624-9.912 10.674-10.865 17.155-1.525 11.056 2.86 17.727 11.437 17.727 7.053 0 15.63-6.481 17.537-13.152 1.143-4.003 0.953-4.384-2.097-3.24-2.097 0.763-5.909 1.906-8.768 2.478-4.765 0.953-5.338 0.572-5.338-4.384 0-3.050 2.668-9.341 5.718-14.106 9.721-14.677 6.671-15.63-7.624-2.478z"></path>
<path d="M343.11 183.089c-3.621 3.621-2.668 7.434 2.668 13.152l4.956 5.338-4.193 6.863c-3.813 6.1-14.677 15.44-29.736 25.161-3.24 2.097-2.86 2.288 2.097 1.335 9.721-2.097 23.636-10.484 32.595-20.205 10.293-11.056 12.581-8.578 5.528 6.291-7.243 15.63-5.909 24.59 3.813 24.59 2.288 0 4.956-0.953 6.291-2.288 2.86-2.86 3.050-11.056 0.381-11.056-0.953 0-1.906 0.763-1.906 1.906 0 0.953-0.763 1.906-1.906 1.906-3.24 0-2.097-4.956 2.86-14.487 2.668-4.956 4.765-10.103 4.765-11.437 0-3.431-11.437-26.114-14.106-27.83-3.24-2.288-11.627-1.715-14.106 0.763z"></path>
<path d="M732.542 205.963c-22.493 7.816-50.132 19.443-53.182 22.493-3.431 3.431-3.431 3.813-0.381 8.387 1.906 3.050 4.956 4.956 7.816 4.956 4.956 0 6.671-4.765 2.478-6.291-4.765-1.715 1.335-4.956 28.974-15.63 15.059-5.718 28.783-11.819 30.308-13.344 2.668-2.478 2.097-2.86-3.621-2.668-3.621 0-9.149 0.953-12.39 2.097z"></path>
<path d="M459.005 217.972c-1.715 2.097-1.715 4.193 0.19 9.531 1.906 5.146 1.906 7.243 0.19 8.959-3.813 3.813-8.959-2.86-8.959-11.819 0-7.816-0.381-8.387-5.528-6.481-2.097 0.763-3.050 3.621-3.050 8.196 0 4.003-1.143 8.578-2.478 10.484-2.478 3.24-2.668 3.24-5.718 0.19-3.621-3.621-4.003-6.291-1.335-13.152 2.478-6.481-0.572-6.291-5.718 0.19-4.765 6.1-4.193 15.821 1.143 21.73 4.003 4.384 13.534 4.765 17.918 0.763 2.86-2.668 3.431-2.668 5.718 0 3.621 4.384 14.487 3.621 17.918-1.335 4.003-5.528 3.813-8.768-0.763-17.155-2.097-4.003-3.24-8.387-2.668-10.103 1.525-3.621-3.621-3.813-6.863 0z"></path>
<path d="M732.542 257.048c-0.763 1.143-0.763 6.291 0 11.437 1.335 10.103-0.19 11.819-5.528 6.481-1.715-1.715-3.050-6.1-3.050-10.484 0-4.765-0.953-7.434-2.478-7.434-4.384 0-7.053 4.384-7.053 11.627 0 7.624-3.431 12.009-7.434 9.341-1.906-0.953-2.288-4.003-1.715-10.293 1.143-9.721 0-10.674-5.146-4.956-4.575 4.956-4.575 15.059-0.381 21.73 2.478 3.621 4.956 4.956 9.721 4.956 3.431 0 7.434-1.335 8.768-2.86 2.097-2.478 2.86-2.478 6.291 0 12.962 9.149 25.543-4.003 17.537-18.108-1.525-2.668-2.668-6.671-2.86-9.149 0-4.384-4.575-5.909-6.671-2.288z"></path>
<path d="M407.539 307.561c-1.143 1.525-2.288 6.671-2.288 11.437 0 7.053 2.668 14.487 12.581 34.883 6.863 14.487 14.677 32.214 17.155 39.648l4.575 13.724-16.774 13.344c-23.446 18.871-40.601 30.308-56.423 37.933-15.249 7.243-33.167 10.293-37.933 6.291-2.288-1.906-0.381-3.813 12.009-12.771 24.59-17.727 44.033-34.883 48.989-43.27 6.863-11.627 6.291-22.874-1.906-43.080-3.621-8.768-6.671-16.202-6.671-16.584s1.335-0.572 2.86-0.572c1.525 0 2.86-0.953 2.86-2.097 0-3.431-16.965-26.305-21.158-28.593-12.199-6.481-12.581 17.347-0.953 44.986 4.003 9.341 8.196 20.396 9.341 24.59l2.288 7.243-12.771 12.009c-6.863 6.671-19.252 16.584-27.258 21.921l-14.677 9.912 1.335-6.481c0.763-3.431 3.431-10.865 5.909-16.584s4.384-10.674 4.003-11.056c-0.381-0.381-4.193 2.668-8.196 6.671-8.578 8.196-14.106 18.68-15.63 29.355l-0.953 7.434-36.408 17.918c-20.015 9.912-48.036 22.683-62.141 28.402-25.352 10.484-25.543 10.484-16.393 10.674 28.211 0.19 69.194-10.293 100.456-25.543l17.155-8.387 2.86 7.053c3.431 8.768 12.009 14.106 22.874 14.296 6.481 0.19 13.344-2.478 33.549-12.581 28.211-14.296 52.801-32.595 64.048-47.464 3.813-5.146 7.624-9.341 8.387-9.341s1.525 2.478 1.525 5.338c0 15.059 11.437 38.886 24.018 49.942 13.724 11.819 38.695 20.968 58.329 20.968 10.293 0 12.962-2.86 12.962-14.106 0-7.816-4.384-11.437-16.202-13.344-12.771-2.288-29.546-7.243-29.546-8.959 0-3.621 16.202-13.152 30.117-17.727 8.006-2.668 35.836-9.149 61.76-14.487 25.924-5.146 49.179-10.293 51.467-11.627 10.865-5.528 19.633-18.68 12.581-18.871-1.335-0.19-35.645 0-76.247 0-40.792 0-73.96-0.19-73.96-0.763 0-1.906 25.924-17.347 35.645-21.158 19.443-7.624 20.968-7.624 23.636 0 1.335 3.621 3.24 6.671 4.003 6.671 2.478 0 7.624-9.341 6.671-12.199-0.763-1.906 1.525-2.86 8.387-3.621 12.39-1.525 16.202-3.813 20.968-13.152 4.003-7.624 4.003-7.816 0.381-12.581-6.481-8.578-25.924-17.918-39.839-19.062-11.056-0.763-12.771-0.381-17.155 3.621-10.674 9.912-11.819 17.347-4.003 25.924 3.050 3.431 3.24 4.384 1.143 5.146-29.164 10.293-55.47 23.065-65.572 31.833-8.006 7.053-12.39 14.677-12.39 21.73v4.765h94.356l-16.584 5.718c-17.918 6.1-39.648 16.393-46.892 22.302-2.478 1.906-5.146 6.291-5.718 9.721l-1.335 6.291-8.768-5.718c-12.009-7.624-16.012-16.774-21.54-49.942-5.909-35.264-9.531-49.179-16.774-63.476-5.718-11.627-24.018-37.361-26.496-37.361-0.572 0-2.288 1.335-3.621 2.86z"></path>
<path d="M43.842 308.133c-3.24 2.097-3.431 12.581-0.572 19.824 1.715 4.765 1.335 5.718-5.528 11.627-7.434 6.291-12.39 9.149-27.068 15.44-10.484 4.384-9.341 7.624 2.288 6.481 11.437-1.143 32.405-11.056 38.505-18.299 2.478-2.86 7.816-6.1 12.009-7.053 6.671-1.715 7.624-2.668 8.196-7.624 0.953-10.484-19.824-25.733-27.83-20.396z"></path>
<path d="M492.364 313.47c-1.715 1.715-2.478 4.575-1.906 6.291 3.24 8.196 3.24 13.534 0.19 13.534-4.003 0-9.149-8.196-8.768-13.724 0.572-6.863 0.19-7.434-3.813-5.338-2.668 1.335-3.813 4.003-3.813 8.578 0 11.819-4.193 16.012-9.721 9.341-1.906-2.288-1.906-4.765-0.381-10.484 1.906-7.434 1.906-7.434-2.097-4.956-6.1 4.193-8.196 13.534-4.384 21.349 4.193 8.768 11.056 10.484 18.68 4.956 3.050-2.288 5.528-3.24 5.528-2.097 0 3.813 9.721 6.1 15.44 3.621 7.434-3.050 8.959-11.246 3.813-20.015-2.478-4.003-3.621-8.387-3.050-10.484 1.525-4.384-1.525-4.765-5.718-0.572z"></path>
<path d="M73.387 344.922c-9.341 3.621-33.358 16.774-49.37 26.877-8.768 5.528-12.581 12.962-6.481 12.962 3.24 0 69.194-32.024 70.719-34.12 1.335-2.288-0.763-7.243-3.431-8.387-1.335-0.572-6.481 0.763-11.437 2.668z"></path>
<path d="M323.095 371.037c-1.906 1.906-3.24 4.956-3.24 6.671 0 4.384-0.953 4.003-6.481-1.525s-11.627-6.1-14.296-1.525c-1.525 2.86 0 5.146 7.624 12.199 7.053 6.481 9.341 9.912 9.341 14.106 0 7.434 2.478 4.193 6.291-8.578 4.384-14.106 6.291-16.774 9.341-13.724 3.24 3.24 8.959 2.86 10.484-0.953s-5.718-10.103-11.819-10.103c-2.288 0-5.528 1.525-7.243 3.431z"></path>
<path d="M17.155 401.154c-13.152 11.246-17.155 23.446-10.674 32.786 6.1 8.768 23.065 3.050 26.496-8.959 1.143-4.003 0.953-4.384-2.097-3.050-2.097 0.763-5.909 1.906-8.768 2.478-4.765 0.763-5.338 0.19-5.338-4.575 0-3.050 2.668-9.341 5.718-14.106 9.149-13.724 7.053-15.249-5.338-4.575z"></path>
<path d="M430.984 451.477c-2.668 1.143-3.813 2.86-3.24 4.384 0.572 1.715-0.572 3.050-2.86 3.813-2.097 0.572-4.956 3.24-6.291 6.1-1.906 4.384-1.525 6.291 2.86 15.059 2.86 5.528 5.146 12.009 5.146 14.487 0 3.621 0.381 3.813 2.86 1.906 3.813-3.24 3.621-11.627-0.381-18.871-4.193-7.053-2.097-9.721 8.387-11.437 6.1-0.953 7.434-2.097 7.816-6.291 0.381-3.431-0.763-5.909-3.813-8.006-4.765-3.431-4.765-3.431-10.484-1.143z"></path>
<path d="M576.045 456.243c-5.528 5.528-4.765 8.768 1.715 7.243 3.621-0.953 3.431-0.381-1.906 4.384-5.718 5.146-7.053 8.006-6.481 13.344 0.381 3.24 9.149 6.481 18.108 6.481 6.863 0 9.912-1.335 20.015-9.531 12.962-10.293 11.246-12.39-3.621-4.765-15.249 7.816-31.452 5.338-16.965-2.478 3.24-1.715 8.578-5.338 11.627-7.816l5.718-4.765-4.193-3.431c-6.481-5.146-18.108-4.575-24.018 1.335z"></path>
<path d="M900.094 471.492c-25.543 8.578-51.276 20.777-51.848 24.59-0.953 4.575 0.953 4.193 36.789-9.341 33.93-12.581 37.17-14.106 37.17-17.537 0-3.621-6.863-3.050-22.111 2.288z"></path>
<path d="M782.292 772.095c-3.813 5.338-3.813 9.341-0.19 14.106 1.525 1.906 2.86 5.528 2.86 7.816v4.384l-656.677 0.19 6.1 5.528c3.431 3.050 12.009 7.434 19.062 9.912l12.962 4.384 309.371 0.572c300.603 0.381 309.181 0.572 309.181 4.003 0 1.906-1.335 6.1-2.86 8.959-3.621 7.053-3.621 10.293 0.19 15.63 3.621 5.146 9.341 5.338 13.534 0.381 2.668-3.24 5.718-3.813 16.774-3.813 8.768 0.19 14.677 1.143 16.965 2.86 4.765 3.621 10.865 3.621 15.63 0 2.288-1.715 8.387-2.668 17.727-2.86 12.771 0 14.296 0.381 17.727 4.956 5.146 6.291 14.677 5.718 18.108-1.143s3.050-27.639-0.763-35.645c-5.718-12.39-12.199-13.915-61.951-13.915-41.173 0-43.461-0.19-43.461-3.621 0-1.906 1.335-4.575 2.86-5.909 3.24-2.668 3.813-11.819 0.953-17.347-2.668-4.956-10.484-4.575-14.106 0.572zM872.835 821.275c2.288 1.335 3.621 4.003 3.621 7.624v5.718h-15.059c-8.959 0-15.821-0.953-16.584-2.097-0.763-1.335-4.193-1.525-9.149-0.763-4.193 0.572-14.106 1.715-21.73 2.097-15.63 1.143-21.349-1.525-21.349-10.103v-4.384h38.314c22.683 0 39.648 0.763 41.936 1.906z"></path>
</svg>
