<svg xmlns="http://www.w3.org/2000/svg" width="1024" height="1024" viewBox="0 0 1024 1024"><path d="M459.687 163.34c-27.27 85.147-51.757 155.27-54.54 155.27-2.225 0-70.677-25.044-152.486-56.21-81.25-30.61-149.146-54.54-150.26-53.426-1.67 1.67 37.288 62.887 86.818 136.904 48.974 74.017 89.043 135.235 89.043 136.348s-62.33 38.957-139.13 84.59C62.888 611.896 0 650.853 0 652.522s70.678 8.905 157.496 16.14c86.26 6.678 159.722 13.357 163.06 14.47 3.897 1.113-2.225 56.765-17.25 166.4l-22.818 164.73 18.365-17.81c10.574-10.016 62.33-64 114.643-119.65 52.87-56.21 97.39-101.288 99.617-100.175 1.67.557 53.426 53.426 114.087 117.426 81.252 85.705 110.748 113.53 111.86 105.74.558-5.565-8.347-79.026-20.034-162.504-14.47-102.4-19.478-153.044-15.583-154.158 3.34-1.114 76.8-7.792 163.617-14.47 86.26-7.236 156.94-14.47 156.94-16.14s-62.33-40.07-139.13-85.704c-76.244-45.635-139.13-83.478-139.13-84.59 0-.558 40.07-62.33 89.042-136.35s87.93-135.79 86.817-136.903c-1.115-1.67-69.01 22.817-150.263 53.426-81.81 31.165-150.26 56.21-152.487 56.21-2.782 0-26.712-68.453-53.425-151.93-26.713-82.923-50.643-153.044-52.313-155.27-2.226-1.67-26.157 66.225-53.426 151.93z"/></svg>