<?xml version="1.0" encoding="utf-8"?>
<!-- Generated by IcoMoon.io -->
<!DOCTYPE svg PUBLIC "-//W3C//DTD SVG 1.1//EN" "http://www.w3.org/Graphics/SVG/1.1/DTD/svg11.dtd">
<svg version="1.1" xmlns="http://www.w3.org/2000/svg" xmlns:xlink="http://www.w3.org/1999/xlink" width="1024" height="1024" viewBox="0 0 1024 1024">
<g id="icomoon-ignore">
</g>
<path d="M437.248 122.88l-70.656 122.88h-151.552c-82.944 0-151.552 2.048-151.552 5.12 0 2.048 32.768 59.392 71.68 126.976 39.936 67.584 71.68 128 71.68 134.144s-31.744 65.536-70.656 132.096c-38.912 67.584-68.608 124.928-65.536 128 4.096 3.072 71.68 6.144 150.528 6.144h145.408l70.656 122.88c38.912 67.584 73.728 122.88 76.8 122.88s37.888-55.296 76.8-122.88l70.656-122.88h145.408c78.848 0 146.432-3.072 149.504-6.144 4.096-3.072-25.6-60.416-64.512-126.976s-70.656-126.976-70.656-133.12c0-6.144 31.744-66.56 70.656-133.12s68.608-123.904 64.512-126.976c-3.072-3.072-70.656-6.144-149.504-6.144h-145.408l-70.656-122.88c-38.912-67.584-73.728-122.88-76.8-122.88s-37.888 55.296-76.8 122.88z"></path>
</svg>
