<svg xmlns="http://www.w3.org/2000/svg" width="1016" height="1024" viewBox="0 0 1016 1024"><path d="M498.834 124.338l-8.224 26.316-58.224 3.29 22.37 15.79c12.17 8.88 22.038 17.762 22.038 20.064s-3.62 14.803-7.894 27.63c-9.21 26.975-9.54 26.975 20.724 4.278l17.763-13.158 10.197 6.908c5.592 3.947 15.79 11.513 22.697 16.776 14.147 10.856 14.475 9.868 5.594-15.79-3.62-10.526-6.58-21.71-6.58-25s9.212-12.5 21.71-21.71l21.71-15.79-57.564-3.29-17.764-52.63-8.553 26.316zm-253.617 69.736l-8.88 26.974-56.25 1.974 21.71 15.46c11.84 8.88 21.71 17.105 21.71 18.75s-2.96 12.83-6.91 25c-3.618 12.17-6.25 22.697-5.59 23.355.986.658 10.525-5.592 22.038-13.816 11.842-8.55 22.04-13.814 24.342-12.5s11.842 8.226 21.382 15.46c9.866 6.91 18.09 12.173 19.077 11.515.658-.987-1.645-9.868-4.934-20.065-10.526-30.593-10.856-29.606 14.145-48.027l22.696-16.447-57.894-1.974-17.763-52.63-8.882 26.973zm507.563 0l-8.224 25.658-58.224 1.974 22.697 16.447c25 18.42 24.67 17.434 14.143 48.026-3.29 10.195-5.592 19.077-4.934 20.063.986.658 9.21-4.605 19.08-11.513 9.537-7.236 19.077-14.144 21.38-15.46s12.5 3.948 24.342 12.5c11.513 8.225 21.052 14.474 22.04 13.817.657-.658-1.975-11.184-5.593-23.355-3.948-12.17-6.91-23.355-6.91-25s9.87-9.868 21.71-18.75l21.71-15.46-56.25-1.974-8.552-25.987c-4.935-14.47-9.212-26.314-9.54-26.314s-4.277 11.513-8.88 25.33zm-274.998 168.09c-33.553 12.172-52.96 33.224-61.842 69.08-4.277 16.775-4.605 23.683-1.645 38.486 1.974 9.868 5.263 18.092 6.908 18.092s2.96-1.315 2.96-3.29c0-5.262 20.065-26.315 29.934-31.577 13.816-6.908 27.96-5.92 33.88 2.632 4.606 6.25 5.264 22.697 5.264 112.83 0 95.064-.656 106.25-5.92 114.143-21.38 32.566-75.656 45.723-114.143 27.63-18.42-8.552-35.197-23.683-43.42-39.473l-5.264-10.197-3.947 16.776c-10.197 44.736-42.763 73.026-87.17 75.987-34.868 2.632-63.816-11.842-87.17-43.42-4.605-6.25-4.605-6.25-4.934 1.973-.328 25.658 21.71 58.224 49.672 73.684 15.79 8.88 20.724 9.868 45.723 9.868 22.37 0 30.592-1.645 41.447-7.237 21.71-11.51 33.223-23.024 43.42-43.42l9.54-19.407 11.842 14.145c41.776 49.67 122.038 44.408 156.907-10.197l8.882-14.144 10.197 15.79c17.762 26.974 46.71 42.763 79.933 43.092 28.29 0 47.697-8.224 69.408-29.934l18.75-18.75 3.948 11.842c2.303 6.58 11.185 19.737 20.396 29.276 55.592 58.882 152.96 27.304 164.802-53.29l1.974-13.157-5.593 8.224c-13.16 18.09-21.053 25.33-37.5 34.21-54.606 29.933-124.67-1.646-138.158-62.17l-3.947-17.765-9.21 14.145c-9.54 15.46-30.264 31.25-48.685 37.5-32.566 11.184-75.657.658-99.013-23.684l-11.513-12.17v-110.2c0-106.58.33-110.526 6.58-115.46 8.223-5.92 26.973-3.947 39.473 4.277 5.263 3.29 13.487 12.5 18.42 20.065l8.882 14.472 3.946-17.105c7.237-29.605-2.632-65.79-24.013-87.828-25-26.317-66.446-36.185-99.998-24.343zm69.736 25.33c15.79 9.21 29.276 26.644 34.21 43.75l3.29 10.525-13.817-6.91c-17.103-8.88-41.774-7.237-52.96 3.29l-7.892 7.565-9.868-7.237c-14.146-10.527-38.158-12.172-53.948-3.948-14.803 7.566-16.118 4.277-6.25-15.13 8.553-16.448 26.316-32.896 41.776-38.816 18.75-6.908 47.368-3.947 65.46 6.908zm-445.393-3.29l-7.237 24.343-57.237 1.974 21.384 15.79c11.842 8.883 21.71 17.107 22.37 18.423.328 1.315-2.96 13.158-7.567 26.644-4.605 13.158-7.894 24.67-7.237 25 .657.658 11.183-6.25 23.354-15.13l22.04-16.12 22.038 16.12c11.842 8.88 22.37 15.79 22.697 15.13.656-.33-2.634-11.842-7.24-25s-8.223-25-8.223-25.987c0-.988 10.526-9.54 23.355-18.422l23.026-16.447-58.553-1.972-7.566-24.342c-4.277-13.487-8.88-24.67-9.868-24.67-1.315 0-5.592 11.183-9.54 24.67zm792.43 0l-7.566 24.343-58.554 1.974 23.026 16.45c12.83 8.88 23.355 17.433 23.355 18.42s-3.62 12.83-8.224 25.987-7.894 24.67-7.237 25c.33.658 10.856-6.25 22.697-15.13l22.04-16.12 22.038 16.12c12.17 8.88 22.698 15.79 23.356 15.13.658-.33-2.632-11.842-7.237-25-4.606-13.487-7.895-25.33-7.567-26.644.658-1.315 10.526-9.54 22.37-18.42l21.38-15.79-57.564-1.975-6.91-24.342c-3.946-13.487-8.223-24.67-9.54-24.67-.985 0-5.59 11.183-9.866 24.67zM61.995 638.48l-8.224 25.328-27.3.987c-14.804.658-26.645 2.302-25.988 3.947.66 1.315 10.198 9.54 21.383 17.763l20.395 14.803-7.894 23.684c-4.605 13.158-8.224 25-8.224 26.644 0 2.302 18.75-10.197 41.118-27.303 1.974-1.315 13.158 4.605 25.658 13.816 12.17 8.88 22.697 16.116 23.355 16.116.988 0-1.973-10.526-6.578-23.684-4.277-12.83-7.894-25.33-7.894-27.303s9.87-10.857 22.04-20.066l22.37-16.118-58.88-3.29-7.568-24.34c-3.948-13.16-7.895-24.672-8.554-25.33-.33-.658-4.605 10.197-9.21 24.342zm874.994-.987l-8.226 26.316-58.88 3.287 22.368 16.118c12.17 9.21 22.04 18.092 22.04 20.065s-3.62 14.474-7.895 27.304c-4.605 13.158-7.566 23.684-6.58 23.684.66 0 11.185-7.237 23.356-16.118 12.5-9.21 23.684-15.13 25.658-13.816 22.37 17.105 41.12 29.605 41.12 27.303 0-1.645-3.62-13.487-8.225-26.644l-7.894-23.684 20.396-14.805c11.184-8.224 20.724-16.447 21.382-17.763.657-1.645-11.185-3.29-25.988-3.947l-26.974-.987-17.763-52.632-7.894 26.316z"/><path d="M458.045 799.663c1.645 21.71 9.21 32.895 29.934 43.092 14.8 7.237 17.103 7.566 31.25 3.947 24.67-6.58 39.8-25 39.8-48.684v-12.5l-5.92 9.868c-3.62 5.263-8.554 11.842-11.185 14.145-4.277 3.62-5.592 2.96-7.237-4.275-3.29-13.158-13.817-21.382-26.645-21.382-13.816 0-24.67 9.54-24.67 21.382 0 13.816-9.212 8.224-21.053-13.158l-5.592-9.868 1.315 17.433zm-148.026 2.303c-10.2 4.277-14.147 10.526-14.147 21.71 0 12.17-9.868 4.934-21.052-15.13l-5.59-9.87 1.314 17.435c.987 10.858 3.947 21.054 7.894 26.318 29.604 39.474 93.42 19.737 92.76-28.618 0-13.488-.328-14.146-3.288-6.91-3.62 9.212-15.79 23.027-20.065 23.027-1.645 0-2.302-.987-1.315-2.632.658-1.315-.658-6.908-2.96-12.5-5.592-13.487-19.408-18.75-33.553-12.83zm377.63-.987c-10.2 3.617-16.45 12.17-16.778 21.71 0 10.854-6.58 7.892-16.447-7.24-9.21-14.144-12.17-10.525-8.553 9.87 4.934 25.657 35.855 44.08 63.158 37.17 24.343-6.25 45.067-37.5 37.5-56.58-2.3-5.59-2.96-5.92-2.96-1.645-.328 3.29-4.604 10.526-9.867 16.447l-9.54 10.526-1.973-10.198c-3.947-16.776-19.08-25.987-34.54-20.065zm-317.764 75.327c-46.052 2.632-131.58 11.513-145.394 15.13-6.58 1.316-7.566 3.948-7.566 18.093v16.448l12.5-1.974c95.065-14.473 244.406-20.724 372.366-15.13 75.657 2.96 157.565 9.867 186.512 15.13l10.856 1.974V909.53c0-19.407 3.62-17.762-59.21-25-98.025-11.183-258.22-14.802-370.063-8.223z"/></svg>