<svg xmlns="http://www.w3.org/2000/svg" width="1024" height="1024" viewBox="0 0 1024 1024"><path d="M68.597 256.003h295.61L511.997-.005l147.805 255.997H955.4L807.62 512l147.793 256.008H659.815L512 1023.995 364.195 768.008H68.597L216.39 512 68.597 256.003zM512 135.643l-69.484 120.36h138.968L512 135.643zm186.97 188.19l69.484 120.337 69.473-120.337H698.97zm69.484 255.997L698.97 700.178h138.958L768.455 579.83zM442.516 768.008L512 888.356l69.484-120.36H442.516zM255.556 444.17l69.484-120.337H186.072l69.484 120.337zM294.722 512l108.64 188.178H620.65L729.286 512l-108.64-188.167H403.362L294.722 512zm-39.166 67.83l-69.484 120.348H325.04L255.556 579.83z"/></svg>