<?xml version="1.0" encoding="utf-8"?>
<!-- Generated by IcoMoon.io -->
<!DOCTYPE svg PUBLIC "-//W3C//DTD SVG 1.1//EN" "http://www.w3.org/Graphics/SVG/1.1/DTD/svg11.dtd">
<svg version="1.1" xmlns="http://www.w3.org/2000/svg" xmlns:xlink="http://www.w3.org/1999/xlink" width="977" height="1024" viewBox="0 0 977 1024">
<g id="icomoon-ignore">
</g>
<path d="M385.287 18.992c-50.325 8.854-120.687 34.948-164.49 61.043-49.859 29.823-129.075 107.64-156.568 153.773-45.665 77.818-63.373 149.578-59.179 239.045 2.796 62.907 12.581 105.311 35.415 156.102 50.325 110.437 155.636 196.175 284.711 231.59 55.917 15.377 148.647 15.377 202.7 0 164.956-46.598 282.382-184.060 294.497-344.822 2.796-34.948-0.466-40.54-14.446-26.095-4.194 3.728-7.455 12.581-7.455 19.105 0 22.833-14.911 69.431-34.016 106.243-38.21 74.090-111.834 131.405-201.768 157.034-29.823 8.388-48.461 10.252-97.389 10.252-75.488-0.466-109.504-7.921-174.741-40.073-41.938-20.969-54.519-29.823-88.535-64.305-43.802-43.802-64.305-75.022-82.943-126.746-11.183-30.755-12.581-40.073-12.581-99.252 0-55.917 1.864-69.431 10.717-95.525 26.095-74.090 87.603-147.248 154.704-184.992 167.751-94.128 369.053-53.121 487.877 98.787 63.373 81.080 87.603 160.762 76.42 254.423-18.173 150.976-95.059 263.277-221.804 325.718-43.336 20.969-103.912 39.608-144.453 44.267-47.996 5.592-44.267-0.466-44.267 68.499v61.043l41.006-2.796c137.929-9.786 294.963-90.4 385.363-198.040 72.226-85.74 108.106-176.139 112.766-283.314 9.32-203.632-95.525-394.215-261.879-476.228-95.525-47.064-214.815-63.839-319.659-44.733z"></path>
<path d="M724.518 355.427c-2.329 3.262-2.796 9.786-0.932 14.446 1.398 5.126 0.466 10.252-2.329 12.115s-4.66-2.796-4.66-11.183c0-20.969-9.32-17.707-9.786 2.796-0.466 13.047-1.398 14.446-2.796 6.058-2.796-14.446-10.717-23.764-10.717-12.581 0 4.194-1.864 7.921-4.66 7.921-2.329 0-4.66-2.329-4.66-4.66 0-2.796-2.329-4.66-5.126-4.66-3.728 0-4.66 6.523-2.796 18.639 3.262 25.163-4.194 28.424-7.921 3.262-2.796-16.775-4.194-18.173-8.388-11.183-2.329 5.126-3.728 14.911-1.864 22.367 1.398 6.989 0.466 14.446-1.864 15.843-2.796 1.864-4.66-2.796-4.66-10.252 0-6.989-1.864-15.843-4.194-19.571-6.523-9.786-10.717 1.864-8.854 23.764 0.932 10.717-0.466 20.037-3.262 20.969-2.329 0.466-4.66-6.058-5.126-14.911 0-9.32-2.796-19.105-6.523-22.367-4.66-4.66-5.592-0.932-3.262 20.969 1.864 20.037 0.932 27.027-4.194 28.89s-6.523-2.329-6.523-18.173c0-11.183-1.864-21.901-4.66-23.298-6.989-4.66-10.717 19.571-5.126 35.88 4.194 11.183 3.728 15.377-0.466 18.639-4.66 2.329-6.989-2.796-8.854-20.037-3.728-26.561-7.455-32.618-13.514-22.833-6.058 9.32-5.592 25.163 0.932 39.608 4.66 9.786 4.194 13.514-2.329 20.037-7.455 6.989-7.921 6.058-8.388-15.377 0-13.047-1.864-27.492-4.194-32.618-3.262-8.854-4.194-8.388-8.854 3.728-2.796 7.455-5.126 15.843-5.592 18.639 0 3.262-2.329 0.466-4.66-6.058-4.66-10.717-5.126-11.183-9.786-2.796s-3.262 44.733 2.796 58.713c1.864 4.194-0.466 9.32-5.592 12.115-7.455 5.126-8.388 4.194-6.523-7.921 2.329-17.241-2.796-46.132-8.388-46.132-7.921 0-10.717 24.231-6.058 47.53 3.262 17.707 3.262 23.764-1.864 27.492-4.66 4.194-6.058 0.466-6.523-19.571 0-26.095-5.592-46.598-9.786-38.676-6.523 11.649-7.921 32.152-3.728 49.393 4.194 14.911 4.194 20.503-0.932 25.163-5.592 5.592-6.523 2.329-6.523-19.105 0-29.356-8.854-44.267-13.98-23.764-1.398 6.989-1.864 23.764 0 37.744 1.864 17.241 0.932 26.095-3.262 29.356-4.66 4.194-6.058-0.466-5.592-22.367 0-14.911-1.864-28.89-3.728-30.755-7.921-8.388-13.047 11.183-10.717 41.006 1.864 17.707 0.932 32.152-1.398 34.016-2.796 1.398-4.66-7.455-4.194-21.435 0-13.047-2.329-26.095-5.126-28.89-4.66-4.66-5.126-4.194-11.649 17.241-1.398 3.262 0 14.446 1.864 24.231 3.262 13.047 2.796 20.037-1.398 23.764-4.194 4.66-5.592-1.398-5.126-27.027 0-17.707-0.932-30.755-2.329-28.89s-5.592 3.728-8.388 4.194c-16.775 1.398-17.241 1.864-11.649 7.455 4.66 4.66 6.989 4.66 10.717-0.932 4.194-5.592 4.194-5.126 1.864 2.329-1.864 5.126-5.126 15.377-6.989 23.298-1.864 7.455-3.728 10.252-4.194 5.592-0.466-4.194-2.329-7.921-5.126-7.921-7.455 0-11.183 24.231-6.058 42.87 3.728 13.514 3.262 18.639-1.398 22.833-4.66 3.728-6.058 0.466-7.455-17.707-1.864-30.755-10.717-24.231-10.717 8.388 0 23.298-1.864 28.424-18.173 48.927-29.356 36.812-29.356 38.21 0 10.717 19.571-19.105 32.618-27.492 45.199-29.356 16.775-3.262 24.231-12.115 9.786-12.115-3.728 0-5.592-2.329-4.194-4.66 1.864-2.796 5.126-3.728 7.455-1.864 7.455 4.194 28.424-2.329 24.697-7.921-1.398-2.796-6.989-3.728-12.115-2.796-6.989 1.864-7.921 1.398-3.728-3.728 2.796-3.262 8.854-5.126 13.98-3.728 11.649 3.262 32.618-1.864 32.618-7.921 0-2.796-6.523-4.66-14.446-4.66s-13.047-1.864-11.183-4.66c1.398-2.329 5.592-3.262 9.32-1.398 4.194 1.398 14.446 0.932 23.298-0.466 19.571-3.728 16.775-13.98-2.796-11.183-10.252 1.864-12.115 0.932-8.388-3.728 3.262-3.728 10.252-5.126 18.639-3.262 18.173 3.262 41.006-2.329 31.686-8.388-3.262-2.329-12.581-4.194-19.571-4.194-7.921 0-12.115-1.864-10.252-5.126 1.864-2.796 8.854-3.262 16.775-1.864 7.455 1.864 20.503 1.398 28.424-0.466 13.514-2.796 13.98-3.728 6.058-6.989-5.126-1.864-15.377-3.728-22.833-3.728-10.717-0.466-12.581-1.864-8.388-6.058 3.728-3.728 9.786-4.194 21.435-0.466 8.854 2.796 22.833 3.262 31.686 1.398l15.377-3.262-13.047-5.592c-7.455-2.796-18.639-5.126-25.629-5.126-8.854 0-10.717-1.398-6.989-5.126s9.32-3.728 20.969 0.466c10.252 3.728 21.435 4.66 29.823 2.329l13.514-3.728-13.98-6.058c-7.455-3.262-19.105-6.058-25.629-6.523-10.252-0.466-10.717-0.932-3.728-5.126 5.592-3.262 11.183-2.796 17.241 0.466 5.126 2.329 18.173 4.66 29.356 4.66 19.571-0.466 20.037-0.466 8.388-6.989-6.523-3.728-19.105-6.523-27.958-6.989-14.446 0-15.377-0.932-8.854-6.989 6.523-6.523 8.854-6.523 24.231 0 18.173 7.455 45.199 9.32 45.199 3.262 0-6.523-22.367-14.911-38.676-14.911-13.047 0-13.98-0.932-7.455-6.989 6.523-6.523 8.388-6.523 20.969 0 14.446 7.455 43.802 9.786 43.802 3.262 0-6.058-21.901-14.911-35.88-14.911-9.786 0-10.717-0.932-6.058-6.989 5.126-6.058 7.455-6.058 19.571 0.466 7.455 3.728 21.435 6.523 30.755 5.592l17.241-1.398-14.911-8.388c-8.388-4.194-19.571-7.921-25.163-7.921-8.388 0-8.854-0.932-4.194-6.989 5.126-6.523 6.989-6.523 13.514-0.466 7.455 6.523 17.707 8.854 36.812 7.921 15.377-0.932 8.388-8.854-13.514-14.446-10.252-2.796-17.241-6.989-15.843-9.32s8.388-0.932 15.377 2.796c17.241 8.854 35.415 8.854 31.686-0.466-1.864-5.126 0.932-6.989 10.252-6.989 9.786 0 11.183-0.932 5.592-4.66-5.592-3.262-3.728-4.66 6.989-4.66s12.581-1.398 6.989-4.66c-6.058-3.728-5.592-4.66 1.864-4.66 6.523 0 7.455-1.398 3.262-6.523s-2.796-5.592 6.523-3.728c15.377 2.796 14.911-6.523-0.466-10.252-6.989-1.864-11.183-4.194-10.252-5.592 1.398-0.932 8.388 0 15.377 2.796 9.32 3.262 14.446 3.728 18.173 0 3.262-3.262 2.796-4.66-1.864-4.66-6.058 0-6.058-0.932 0-4.66 5.592-3.728 5.126-4.66-3.262-4.66-7.455 0-9.32-2.329-7.455-9.32 3.728-13.98-2.796-11.183-8.854 3.262l-5.126 13.047-2.796-16.309c-1.864-10.717-4.194-14.446-6.523-10.252z"></path>
<path d="M182.588 379.192c1.398 2.329-1.864 5.592-7.921 7.455-9.786 2.796-9.32 3.262 4.194 8.388 7.921 3.262 13.514 8.388 12.581 11.649-1.864 4.194 0.932 4.66 11.183 0.466 10.252-3.728 12.115-3.728 7.455 0.932-10.717 10.717-6.523 14.911 6.058 6.523 13.514-8.388 20.037-6.989 8.854 2.329-11.649 9.32-7.921 15.843 4.66 7.455 16.775-11.183 18.639-8.854 3.728 4.66-12.581 11.183-12.581 11.649-1.864 8.388 7.455-1.864 9.786-1.398 7.921 2.329-2.329 3.262 0.466 5.126 6.523 5.126 5.592 0 8.388 1.864 6.989 4.66-1.864 2.796 2.796 4.66 11.183 4.66 7.455 0 15.377-2.329 16.775-4.66 1.398-2.796 6.058-4.66 9.786-4.66s6.523 1.864 6.523 4.66c0 2.329-4.194 4.66-8.854 4.66s-13.514 4.194-19.571 9.32l-11.183 8.854 14.446 0.466c7.921 0 20.037-4.194 26.561-9.32 10.252-7.921 12.115-8.388 17.241-2.329 4.66 5.592 4.194 6.989-3.728 6.989-5.126 0-13.98 4.194-20.037 9.32l-11.183 8.854 13.98 0.466c7.921 0 19.105-3.262 24.697-7.455 6.989-5.126 12.581-5.592 18.173-2.329 6.989 3.728 6.523 4.66-5.592 7.921-25.163 5.592-35.415 20.503-14.446 20.503 6.058 0 16.309-4.194 22.367-9.32 10.252-7.921 12.581-8.388 20.503-2.329 8.388 6.523 8.388 6.523-3.262 6.989-6.989 0-17.241 4.194-23.298 9.32l-11.183 8.854 15.843 0.466c8.854 0 19.571-3.262 24.231-7.455s11.649-6.523 15.843-5.126c10.717 4.194 8.388 12.581-3.262 12.581-13.98 0.466-29.356 11.649-22.367 16.309 6.989 4.194 25.629-0.932 34.016-9.32 6.058-5.592 7.921-5.592 15.377 0 8.388 6.523 8.388 6.523-3.262 6.989-6.523 0-15.843 3.262-20.969 6.989-8.854 6.523-8.854 6.523 0.466 7.455 17.241 1.864 26.561-0.466 39.142-9.32 11.649-8.388 12.115-10.252 9.786-43.802s-6.058-45.665-12.115-39.142c-1.398 1.398-2.796 14.446-2.329 28.89 0 15.377-1.864 24.697-4.194 23.298-2.796-1.864-4.66-13.98-4.66-27.958 0-27.027-3.262-39.608-10.252-39.608-2.796 0-3.728 11.649-2.796 27.492 0.932 18.639-0.466 26.561-3.728 25.163-3.262-0.932-5.126-13.047-4.66-29.356 0.466-14.911-1.398-28.89-3.262-30.755-6.989-7.455-13.047 9.786-10.252 30.289 1.864 17.241 1.398 19.571-4.66 14.446-4.66-3.728-6.058-11.183-4.194-24.697 2.329-19.571-3.728-36.346-10.717-29.823-1.864 2.329-3.728 11.649-3.728 21.435 0 11.183-1.864 17.241-4.66 15.843-2.796-0.932-5.126-11.183-5.126-22.367 0.466-11.649-1.398-20.037-4.194-19.571-2.329 0.466-4.66 7.921-4.66 16.309 0 17.241-9.32 17.707-9.786 0.466-0.466-22.833-1.864-27.958-6.523-25.163-2.329 1.398-4.66 7.921-4.66 14.446 0 6.058-1.864 11.183-4.194 11.183s-4.194-6.523-4.194-13.98c0.466-7.921-1.864-16.775-4.66-19.571-4.194-4.194-5.592-1.864-5.592 9.786 0 8.854-1.864 13.98-4.66 12.115s-4.66-5.592-4.194-8.388c1.398-12.581-0.932-21.901-5.126-21.901-2.329 0-4.66 5.592-4.66 12.115 0 6.989-1.864 10.717-4.66 8.854s-3.728-6.523-2.796-10.717c1.398-4.66 0.466-11.183-1.864-14.911-3.728-5.592-4.66-5.592-6.989 0.932-1.864 4.66-1.864 10.252 0 13.047 1.398 2.329 0.466 4.66-1.864 4.66-2.796 0-5.126-5.126-5.126-11.183 0-16.309-9.32-20.037-9.786-4.194-0.932 12.581-0.932 12.581-2.796 1.398-3.262-17.241-10.717-22.833-10.717-7.921 0 6.989-2.329 12.581-5.126 12.581s-3.728-3.728-1.864-8.854c1.398-5.126 0.466-10.252-2.329-12.115-2.796-1.398-4.66 1.398-4.66 6.523v9.786l-9.32-9.32c-9.32-9.32-21.435-13.047-16.775-5.126z"></path>
<path d="M547.447 580.494c-1.864 6.058-3.262 18.173-3.262 26.561 0 9.32-1.864 14.446-4.66 12.581s-3.262-10.717-1.864-21.435c2.796-16.775 2.329-18.173-7.455-18.173-8.388 0-9.786 1.864-8.388 10.717 1.864 9.32 0.466 10.717-8.854 8.854-12.581-2.329-13.514 1.864-2.796 13.98 6.989 7.921 6.523 8.388-9.32 8.388-9.786 0-17.241 1.864-17.241 4.194 0 6.058 20.503 8.854 32.618 4.194 7.921-2.796 13.047-1.864 18.173 3.262 6.523 6.523 6.523 7.455 0.466 6.989-14.911-2.329-23.764 0-20.503 5.126 1.864 3.262 9.786 4.194 18.639 2.796s16.775-0.466 18.173 1.864c1.864 2.329-1.398 4.194-6.523 4.194-5.592 0-9.786 1.864-9.786 4.66 0 4.66 9.32 6.989 25.163 5.126 5.126-0.466 14.446 4.194 20.969 10.252 24.697 21.901 30.289 23.764 13.047 3.728-14.446-17.707-17.241-24.231-17.241-42.87 0-24.697-3.262-36.812-10.252-36.812-2.796 0-3.728 9.786-2.796 22.833 0.932 17.241 0 21.901-4.194 18.639-3.262-3.262-4.66-13.514-2.796-29.356 2.796-27.492-4.194-49.859-9.32-30.289z"></path>
</svg>
