<?xml version="1.0" encoding="UTF-8" standalone="no"?>
<svg
   xmlns:svg="http://www.w3.org/2000/svg"
   xmlns="http://www.w3.org/2000/svg"
   version="1.0"
   width="820" height="1062" viewBox="-10 0 820 1062">
  <g>
    <g
       transform="matrix(6.09194,0,0,6.09194,-1093.808,-446.9886)"
       id="g1314">
      <path
         d="M 199.32444,114.65618 L 218.94055,114.65618 L 224.99998,96.000328 L 231.0594,114.65618 L 250.67551,114.65618 L 234.80803,126.18448 L 240.86746,144.84033 L 224.99998,133.31202 L 209.1325,144.84033 L 215.19192,126.18448 L 199.32444,114.65618 z "
         style="fill:#f9d616;fill-opacity:1;fill-rule:evenodd;stroke:none;stroke-width:1pt;stroke-linecap:butt;stroke-linejoin:miter;stroke-opacity:1"
         id="path2203" />
      <path
         d="M 302.62435,142.35494 C 303.12516,147.43953 303.12516,152.56101 302.62435,157.6456 L 287.69659,156.17534 C 288.10106,152.06855 288.10106,147.93196 287.69659,143.82518 L 302.62435,142.35494 M 299.6413,172.64248 C 298.15817,177.53166 296.19828,182.26331 293.78981,186.76922 L 280.56098,179.69826 C 282.50628,176.05888 284.0893,172.23717 285.28718,168.28821 L 299.6413,172.64248 M 285.29477,199.48295 C 282.05352,203.43239 278.43209,207.05385 274.48262,210.29507 L 264.96672,198.69993 C 268.15668,196.08201 271.08168,193.15698 273.6996,189.96705 L 285.29477,199.48295 M 261.76889,218.79011 C 257.26298,221.19858 252.53136,223.1585 247.64215,224.6416 L 243.28788,210.28751 C 247.23686,209.0896 251.05855,207.50658 254.69794,205.56131 L 261.76889,218.79011 M 232.6453,227.62468 C 227.5607,228.12546 222.4392,228.12546 217.35461,227.62468 L 218.82487,212.6969 C 222.93166,213.10139 227.06825,213.10139 231.17503,212.6969 L 232.6453,227.62468 M 202.35775,224.6416 C 197.46857,223.1585 192.73692,221.19858 188.23102,218.79011 L 195.30197,205.56131 C 198.94135,207.50658 202.76306,209.0896 206.71202,210.28751 L 202.35775,224.6416 M 247.64215,75.358912 C 252.53136,76.84204 257.26298,78.801952 261.76889,81.2104 L 254.69794,94.439224 C 251.05855,92.493928 247.23686,90.910936 243.28788,89.713024 L 247.64215,75.358912 M 274.48262,89.70544 C 278.43209,92.946688 282.05352,96.56812 285.29477,100.51758 L 273.6996,110.03349 C 271.08168,106.84353 268.15668,103.91853 264.96672,101.30061 L 274.48262,89.70544 M 293.78981,113.23132 C 296.19828,117.73722 298.15817,122.46887 299.6413,127.35806 L 285.28718,131.71233 C 284.0893,127.76337 282.50628,123.94166 280.56098,120.30227 L 293.78981,113.23132 z "
         style="fill:#f9d616;fill-opacity:1;fill-rule:evenodd;stroke:none;stroke-width:0.3125;stroke-linecap:butt;stroke-linejoin:miter;stroke-miterlimit:4;stroke-opacity:1"
         id="path6107" />
      <g
         transform="matrix(2.4,0,0,2.4,-299.3956,-1325.062)"
         id="g14254">
        <path
           d="M 241.65927,645.80341 L 244.69762,642.24025 C 246.29689,643.78788 248.45037,645.31349 250.01225,646.69965 C 251.57413,648.0858 252.77081,649.23816 253.73945,650.81285 C 255.1591,653.12072 253.56493,655.7345 251.35436,654.2003 C 250.15892,653.37063 249.40778,651.13089 247.57645,649.27748 C 246.22005,648.12278 245.15135,646.91227 241.74213,646.32821 C 241.57845,646.30017 241.53057,645.95434 241.65927,645.80341 z "
           style="fill:#f9d616;fill-opacity:1;fill-rule:evenodd;stroke:none;stroke-width:0.25pt;stroke-linecap:butt;stroke-linejoin:miter;stroke-opacity:1"
           id="path12385" />
        <path
           d="M 246.45448,644.77716 C 246.45479,644.98248 246.34543,645.17234 246.16767,645.27509 C 245.98991,645.37784 245.7708,645.37784 245.59304,645.27509 C 245.41528,645.17234 245.30592,644.98248 245.30623,644.77716 C 245.30592,644.57184 245.41528,644.38198 245.59304,644.27923 C 245.7708,644.17648 245.98991,644.17648 246.16767,644.27923 C 246.34543,644.38198 246.45479,644.57184 246.45448,644.77716 L 246.45448,644.77716 z "
           transform="matrix(0.730769,0,0,0.730769,66.06607,173.5497)"
           style="fill:#000000;fill-opacity:1;fill-rule:nonzero;stroke:none;stroke-width:0.625;stroke-linecap:butt;stroke-linejoin:miter;stroke-miterlimit:4;stroke-opacity:1"
           id="path13009" />
        <path
           d="M 246.45448,644.77716 C 246.45479,644.98248 246.34543,645.17234 246.16767,645.27509 C 245.98991,645.37784 245.7708,645.37784 245.59304,645.27509 C 245.41528,645.17234 245.30592,644.98248 245.30623,644.77716 C 245.30592,644.57184 245.41528,644.38198 245.59304,644.27923 C 245.7708,644.17648 245.98991,644.17648 246.16767,644.27923 C 246.34543,644.38198 246.45479,644.57184 246.45448,644.77716 L 246.45448,644.77716 z "
           transform="matrix(0.730769,0,0,0.730769,69.15756,176.2437)"
           style="fill:#000000;fill-opacity:1;fill-rule:nonzero;stroke:none;stroke-width:0.625;stroke-linecap:butt;stroke-linejoin:miter;stroke-miterlimit:4;stroke-opacity:1"
           id="path13631" />
        <path
           d="M 246.45448,644.77716 C 246.45479,644.98248 246.34543,645.17234 246.16767,645.27509 C 245.98991,645.37784 245.7708,645.37784 245.59304,645.27509 C 245.41528,645.17234 245.30592,644.98248 245.30623,644.77716 C 245.30592,644.57184 245.41528,644.38198 245.59304,644.27923 C 245.7708,644.17648 245.98991,644.17648 246.16767,644.27923 C 246.34543,644.38198 246.45479,644.57184 246.45448,644.77716 L 246.45448,644.77716 z "
           transform="matrix(0.730769,0,0,0.730769,71.87362,179.004)"
           style="fill:#000000;fill-opacity:1;fill-rule:nonzero;stroke:none;stroke-width:0.625;stroke-linecap:butt;stroke-linejoin:miter;stroke-miterlimit:4;stroke-opacity:1"
           id="path13632" />
      </g>
      <path
         d="M 232.5,78.781 L 231.075,92.131 C 260.47298,95.214208 283.5,119.82086 283.5,150.031 C 283.50002,182.32295 257.292,208.531 225,208.531 C 210.92054,208.53098 198.19836,203.3273 188.1,195.031 L 179.55,205.456 C 191.97622,215.65838 207.67944,222.03102 225,222.031 C 264.744,222.031 297,189.77505 297,150.031 C 297,112.86014 268.66694,82.590208 232.5,78.781 z "
         style="fill:#f9d616;fill-opacity:1;fill-rule:nonzero;stroke:none;stroke-width:1.25;stroke-linecap:butt;stroke-linejoin:miter;stroke-miterlimit:4;stroke-opacity:1"
         id="path9224" />
      <path
         d="M 279.66324,223.6894 C 253.62799,206.37539 237.07238,197.02622 212.12131,182.83938 C 202.31974,177.26634 187.0985,163.25747 199.1052,139.81914 C 199.86106,155.20638 260.67394,197.4423 286.3703,215.80679 L 279.66324,223.6894 z "
         style="fill:#f9d616;fill-opacity:1;fill-rule:evenodd;stroke:none;stroke-width:0.25pt;stroke-linecap:butt;stroke-linejoin:miter;stroke-opacity:1"
         id="path9277" />
      <path
         d="M 216.08561,167.51949 C 236.13137,186.41034 261.37565,201.82127 283.89761,218.85496"
         style="fill:none;fill-opacity:0.75;fill-rule:evenodd;stroke:#000000;stroke-width:1.5;stroke-linecap:round;stroke-linejoin:miter;stroke-miterlimit:4;stroke-opacity:1"
         id="path11763" />
    </g>
  </g>
</svg>
