<?xml version="1.0" encoding="utf-8"?>
<!-- Generated by IcoMoon.io -->
<!DOCTYPE svg PUBLIC "-//W3C//DTD SVG 1.1//EN" "http://www.w3.org/Graphics/SVG/1.1/DTD/svg11.dtd">
<svg version="1.1" xmlns="http://www.w3.org/2000/svg" xmlns:xlink="http://www.w3.org/1999/xlink" width="1024" height="1024" viewBox="0 0 1024 1024"><g id="icomoon-ignore">
</g>
<path d="M643.989 29.547c4.625 33.445 16.367 55.862 43.409 82.901 14.232 14.232 24.906 25.973 23.483 25.973-5.337 0-25.262-14.944-49.456-36.647-34.514-30.955-43.409-33.801-76.141-23.839-24.55 7.472-55.862 9.962-63.332 5.337-8.895-5.337 1.779 9.607 12.809 17.79 6.76 4.981 12.097 10.674 12.097 12.809 0 4.981-18.857 3.914-33.445-2.135-17.078-7.116-16.367-1.779 2.135 13.876 30.243 26.329 40.561 28.82 101.047 27.752 50.168-1.067 55.505-0.712 79.699 7.828 14.232 4.981 27.397 10.318 29.176 12.097 4.981 4.981-35.936 8.895-58.351 6.049l-18.857-2.491 9.962 10.674c27.041 28.464 65.467 37.715 108.876 25.973 14.232-3.558 28.108-6.049 30.599-5.337 5.693 2.491 26.329 29.887 47.677 64.401 16.367 26.329 17.434 29.531 10.674 29.531-12.809 0-20.281-6.76-32.378-29.176-14.588-27.397-37.003-51.947-42.34-46.61-6.404 6.404-7.828 31.31-3.202 50.525 5.693 24.194 27.752 57.641 55.505 83.97 22.060 20.992 22.771 22.060 22.771 39.494 0 26.685 11.741 67.246 29.176 101.047 13.876 27.752 15.299 32.735 16.367 60.486l1.067 30.243-11.030-12.453c-18.502-20.992-34.868-78.276-29.531-103.895 2.135-9.962 1.779-10.674-5.337-6.76-12.097 6.404-21.348 20.992-25.973 41.273-3.914 17.79-3.558 21.348 4.981 46.967 12.453 36.293 12.809 61.909 0.712 81.122-6.404 10.674-8.539 19.213-8.895 34.157 0 23.483-7.472 47.321-19.569 61.909l-8.895 10.674 4.27-53.37-28.82 30.243c-27.752 29.176-39.138 47.321-51.947 82.901-7.116 20.281-19.925 36.293-34.868 43.763-6.049 3.202-31.666 11.030-57.285 17.434s-60.843 17.434-78.276 24.55c-17.79 7.116-33.445 12.809-35.224 12.809-4.625 0 0-43.409 6.76-66.18 8.895-28.82 17.79-37.359 39.851-39.138 34.514-2.491 70.094-24.194 81.122-50.168 5.337-12.097 6.049-37.715 1.779-48.746-2.135-6.049-3.202-5.693-7.116 3.914-5.337 12.809-23.839 31.31-34.868 34.868-4.625 1.067-8.183 1.423-8.183 0.356 0-0.712 7.472-9.962 16.367-20.636 20.636-23.483 33.445-50.168 33.445-68.669 0-22.771-4.625-25.618-15.299-9.251-11.030 16.367-31.31 37.359-41.984 43.052-6.76 3.914-7.116 3.558-2.135-6.049 18.146-35.58 6.404-55.862-20.281-35.224-16.723 12.453-29.887 40.205-39.138 81.122-4.27 19.925-9.251 34.514-10.318 32.378-1.067-1.779-5.693-22.415-9.607-45.898-4.27-23.127-10.674-51.947-14.232-63.332-12.453-37.359-7.828-54.793 16.367-62.622 9.607-3.202 17.79-3.202 35.936 0 59.774 11.386 104.249-10.318 104.249-50.525v-14.232l-10.674 9.251c-6.049 4.981-16.723 10.674-24.194 12.809-16.011 4.27-49.456 4.625-51.947 0.712-1.067-1.779 3.202-7.828 8.895-13.52 38.072-35.936 47.677-77.564 23.483-100.337l-8.183-7.828-3.914 15.299c-6.049 21.348-23.127 46.61-40.561 59.42-14.232 9.962-15.655 10.318-18.857 4.625-2.135-3.558-3.558-22.060-3.558-40.917 0-27.752-0.712-33.801-4.625-30.955-4.981 4.625-23.483 51.235-29.887 75.431-2.135 9.251-4.625 16.367-5.337 15.655-2.491-2.135 6.049-64.044 11.741-86.815 7.828-31.31 14.232-35.58 43.052-28.108 40.917 10.674 72.939 5.693 94.288-14.944 11.386-10.674 19.213-35.224 13.52-40.917-2.491-2.491-3.914-2.491-3.914-0.356 0 7.116-28.108 19.569-40.917 18.502l-12.809-1.067 20.992-15.299c24.906-17.79 36.293-36.293 36.293-57.995 0-14.232-4.981-28.82-7.828-24.55-17.79 24.194-23.483 29.887-33.445 34.157-6.404 2.846-13.52 4.981-15.299 4.981-6.049 0 10.674-42.34 21.348-53.726 5.693-6.049 10.318-12.097 10.318-12.809 0-4.981-37.715 3.202-48.033 9.962-13.165 9.251-32.378 35.936-35.936 50.168-3.558 15.299-6.76 9.607-13.876-23.839l-6.404-30.599 9.607-18.502c18.857-37.715 6.404-74.718-28.82-85.749-6.76-2.135-8.539-0.712-10.318 7.116-1.423 5.693-1.067 19.213 0.712 30.599 2.135 11.386 3.202 20.636 2.846 20.636s-7.472-3.202-16.011-7.116c-19.213-8.539-45.898-9.251-62.265-1.423-12.097 5.693-12.097 6.049-6.049 12.809 14.588 16.011 37.359 21.704 61.909 15.655 18.857-4.981 20.281-4.27 12.097 7.472-7.472 10.318-21.348 12.809-43.409 7.116-10.318-2.846-18.857-4.27-18.857-3.202s4.27 7.472 9.251 13.876c13.876 18.146 28.82 25.973 49.812 25.973 17.79 0 18.146 0 22.060 13.876 8.539 27.397 5.693 50.525-9.962 81.478-7.828 15.655-16.723 30.243-19.569 32.735-4.625 3.914-5.337 1.423-5.337-18.146 0-16.367-2.491-27.752-8.539-40.561-10.674-22.415-29.176-41.63-39.138-40.205-10.674 1.423-11.741 22.771-2.135 41.984 4.27 8.183 6.76 15.655 6.049 16.723-3.202 3.202-31.666-35.936-41.63-56.928-7.116-14.232-10.674-18.857-12.097-14.588-6.404 17.078 2.846 78.633 15.655 99.981 8.895 15.299 8.895 18.857 0.356 18.857-3.914 0-13.52-7.472-21.348-17.078l-14.588-16.723 2.135 12.453c11.030 66.536 32.378 92.152 74.006 87.884 9.962-1.067 20.992-2.846 24.55-4.27 5.337-2.135 6.049 0.356 6.049 28.82 0 17.434 1.067 54.793 2.135 83.257l2.135 51.591-9.962-12.453c-28.82-36.647-80.056-79.343-86.815-72.583-5.693 5.693 4.625 34.514 19.213 54.793 7.116 9.607 12.809 18.502 12.809 19.569 0 3.202-28.82-12.453-50.525-27.397-18.857-12.453-20.636-13.165-20.636-6.404 0 22.771 25.262 54.437 61.909 78.633 19.569 12.809 20.281 13.876 10.674 13.876-13.876-0.356-38.782-11.741-57.285-27.041l-15.299-12.453v13.52c0 18.146 15.299 48.746 30.599 60.13 23.839 18.502 63.332 23.839 101.047 14.232 10.674-2.846 20.281-4.625 21.704-3.914 2.491 1.779 12.097 179.324 9.251 181.815-1.067 1.067-12.453-2.135-24.906-7.472-12.809-4.981-33.445-10.674-45.898-12.809-61.909-9.607-117.059-59.064-155.486-138.407-8.183-16.367-14.588-32.378-14.588-35.224 0-12.453-6.76 2.491-7.828 17.434l-1.067 16.011-4.981-10.674c-19.925-42.696-36.647-76.141-42.696-83.614l-7.116-8.895 2.135 39.138c2.135 41.984-0.712 45.542-11.030 14.588-7.828-24.55-7.116-44.475 2.846-66.536 14.588-32.378 14.588-39.851 0.712-92.865-7.116-26.685-12.809-51.947-12.809-56.216 0-14.232-3.202-6.049-13.876 36.293-5.693 22.415-12.809 45.542-16.011 51.235-3.914 6.404-5.337 7.472-4.27 3.202 0.712-3.914 2.846-17.434 3.914-30.243 3.558-34.868 8.183-51.947 20.992-81.835 13.52-30.955 17.79-50.525 13.52-65.823l-3.202-10.674-7.472 17.078c-4.27 9.251-10.674 21.348-14.944 26.329l-7.116 9.251v-11.386c0-25.618 32.735-68.669 72.227-95.71 29.887-19.925 47.677-59.42 38.072-83.97l-3.914-10.318-10.674 10.318c-6.049 5.693-20.992 23.127-32.735 38.426-11.741 15.655-22.060 26.685-22.771 24.55-2.135-6.049 15.655-43.052 28.108-58.707 25.618-32.378 59.064-47.677 116.348-52.658 41.273-3.914 63.332-10.318 73.652-21.704 6.76-7.472 6.404-7.472-5.693-5.337-27.397 4.625-56.928 3.914-56.928-1.423 0-9.251 24.194-15.655 70.094-18.146 53.014-2.846 73.296-9.607 87.172-28.82l7.828-11.030-10.674 2.846c-33.089 8.895-70.804 11.030-90.373 5.693-8.895-2.491-8.895-2.491-1.423-6.76 3.914-2.135 32.735-11.386 63.688-20.281 31.31-8.895 64.401-20.636 73.652-25.618 15.655-8.539 16.723-9.962 11.741-14.944-4.27-4.625-13.52-5.693-41.984-5.693-43.763 0-76.141 9.607-134.138 39.494l-37.359 19.569 16.367-17.078c21.704-22.771 42.34-48.033 42.34-51.591 0-4.981-15.299-2.846-30.243 3.914-32.022 14.588-86.459 69.381-122.039 123.108-8.895 13.52-24.194 32.022-33.801 40.917-9.607 8.539-22.415 23.127-28.108 32.022s-9.607 12.809-8.539 9.251c4.981-14.588 27.397-131.291 25.618-132.714-2.491-2.491-24.194 11.386-32.735 20.992-27.041 30.243-36.293 66.89-40.917 164.736-4.27 88.238-9.607 116.702-9.962 55.149-0.712-51.235-12.453-110.299-22.060-110.299-5.693 0-13.52 16.367-19.569 40.917-7.828 33.089-7.828 127.733 0 179.68 10.318 67.246 10.674 64.757-3.558 35.58-7.116-14.588-14.588-34.514-17.078-44.119-4.981-19.569-6.049-18.857-14.232 8.183-17.434 59.42 9.251 132.359 85.749 232.338 8.539 11.030 15.299 20.992 15.299 22.415 0 1.067-7.472-3.202-16.723-9.251-24.194-16.723-66.18-57.641-88.951-87.884-11.030-14.232-20.281-25.262-20.636-24.906-0.712 0.712 0.356 10.318 2.135 21.704 4.27 25.618 16.723 57.285 30.955 77.92 16.723 24.55 56.928 59.774 92.509 81.122 59.774 35.936 76.141 46.61 74.718 48.033-0.712 0.712-15.655-3.914-33.089-10.674-38.782-14.944-73.652-17.078-87.528-5.693l-8.539 6.76 16.011 4.27c56.216 14.232 84.68 27.752 111.365 51.947 46.61 41.984 111.365 62.265 228.426 71.16 24.55 2.135 29.887 3.202 23.127 5.693-21.348 7.828-42.34 31.666-47.677 53.37l-2.135 9.962h192.133l-2.135-9.607c-5.337-22.771-25.973-46.61-44.831-53.014l-8.183-2.846 8.895-2.491c4.981-1.423 16.723-2.491 25.973-2.846 29.887-0.712 95-11.386 143.388-23.483 78.633-19.925 149.437-51.591 179.68-80.412l12.097-11.741-11.741-2.491c-6.404-1.067-24.55 0-40.561 2.491-15.655 2.846-29.531 4.625-30.243 3.914-0.712-1.067 9.607-8.183 23.127-16.011 59.064-35.224 115.28-84.68 142.677-125.598 20.636-30.599 28.82-55.505 28.82-86.105v-25.618l-10.674 20.636c-14.232 28.108-30.955 50.525-55.862 74.006-19.569 18.502-40.917 35.224-45.188 35.224-1.067 0 13.52-22.771 32.378-50.879 69.381-102.47 83.257-157.62 51.947-203.52l-9.607-13.876-6.404 25.973c-6.76 28.108-18.502 51.235-31.666 62.622-7.116 6.404-7.828 6.404-5.693 0.712 8.183-22.060 24.55-79.343 29.176-101.404 16.011-77.564 7.828-141.965-24.194-186.44l-11.386-16.367v48.746c0 37.715-1.423 50.525-5.693 58.707l-5.693 10.318-2.491-28.108c-6.404-72.227-21.348-131.291-40.917-158.688-8.539-12.097-37.359-30.955-41.63-27.041-0.712 1.067 2.491 8.895 7.116 17.434 9.962 18.146 19.925 62.265 19.925 89.307v18.857l-12.809-21.704c-13.165-22.415-30.243-42.696-49.456-58.351-5.693-4.981-17.79-20.281-26.685-33.801-18.857-29.887-70.804-82.901-103.539-106.028-13.165-9.251-24.906-16.723-26.329-16.723s-1.779 7.116-0.712 15.655z"></path>
</svg>
