<?xml version="1.0" encoding="utf-8"?>
<!-- Generated by IcoMoon.io -->
<!DOCTYPE svg PUBLIC "-//W3C//DTD SVG 1.1//EN" "http://www.w3.org/Graphics/SVG/1.1/DTD/svg11.dtd">
<svg version="1.1" xmlns="http://www.w3.org/2000/svg" xmlns:xlink="http://www.w3.org/1999/xlink" width="1024" height="1024" viewBox="0 0 1024 1024"><g id="icomoon-ignore">
</g>
<path d="M452.842 4.251c-71.503 11.065-120.019 26.387-177.902 56.181-134.918 68.948-232.381 197.48-265.152 349.844-5.959 26.387-7.661 54.052-7.661 102.146 0 94.485 13.62 153.217 56.181 235.358 68.948 134.918 197.48 232.381 349.844 265.152 50.222 11.065 154.070 11.065 204.288 0 201.311-43.41 354.954-197.48 398.364-398.364 11.065-50.222 11.065-154.070 0-204.288-42.988-198.756-193.223-351.546-389.851-396.236-35.327-8.087-139.171-14.046-168.112-9.789zM549.455 78.309c8.936 15.322 22.13 16.597 36.176 3.404l9.789-8.936 30.643 8.087c27.239 7.661 31.070 9.789 33.621 20.854 5.532 19.152 23.835 25.537 37.878 12.767 5.959-5.532 9.789-4.257 35.327 11.065 26.387 15.748 28.515 18.299 28.515 31.919 0 18.299 16.175 28.515 30.643 19.152 8.087-5.106 11.065-2.978 33.198 18.726 22.556 22.13 24.258 25.537 20.428 34.474-7.661 16.597 1.702 31.496 19.579 31.496 13.62 0 16.175 2.128 31.919 28.515 15.322 25.537 16.597 29.368 11.065 35.327-12.767 14.046-6.385 32.345 12.767 37.878 11.065 2.555 13.193 6.385 20.854 33.621l8.087 31.070-9.363 8.514c-12.767 11.918-10.638 29.791 5.106 37.029 11.065 5.532 11.491 6.808 11.491 38.304 0 31.919-0.426 32.772-12.767 40.006-15.322 8.514-17.024 25.111-4.257 36.176 10.638 8.936 10.638 11.065 0 44.69-7.234 24.258-9.789 27.666-22.13 31.070-11.065 3.404-14.469 6.808-15.322 16.175-0.853 6.808 1.276 15.322 5.106 19.579 5.959 6.385 5.106 9.789-10.638 35.749-15.748 26.387-18.299 28.515-31.919 28.515-17.877 0-27.239 14.895-19.579 31.496 3.83 8.936 2.128 12.344-19.579 33.621-21.707 20.854-25.537 22.983-34.047 18.726-15.748-7.234-30.643 2.128-30.643 20.005 0 13.62-2.128 16.175-28.515 31.919-25.96 15.748-29.368 16.597-35.749 10.638-4.257-3.83-12.767-5.959-19.579-5.106-9.363 0.853-12.767 4.257-16.175 15.322-3.404 12.344-6.808 14.895-31.070 22.13-33.621 10.638-35.749 10.638-44.69 0-11.065-12.767-27.666-11.065-36.176 4.257-7.234 12.344-8.087 12.767-40.006 12.767-31.496 0-32.772-0.426-38.304-11.918-7.234-15.322-25.111-17.45-37.029-4.683l-8.514 9.363-31.070-8.087c-27.239-7.661-31.070-9.789-33.621-20.854-5.532-19.152-23.835-25.537-37.878-12.767-5.959 5.532-9.789 4.257-35.327-11.065-26.387-15.748-28.515-18.299-28.515-31.919 0-17.877-14.895-27.239-31.496-19.579-8.936 3.83-12.344 2.128-34.474-20.428-21.707-22.13-23.835-25.111-18.726-33.198 8.936-14.469-0.426-29.791-20.005-31.496-14.046-1.276-17.024-3.83-31.919-28.515s-15.748-28.089-10.216-34.474c12.767-14.046 6.385-32.345-12.767-37.878-11.065-2.555-13.193-6.385-20.854-33.621l-8.087-30.643 8.936-9.789c13.193-14.046 11.918-27.239-3.404-36.176-12.344-7.234-12.767-8.087-12.767-40.006 0-31.496 0.426-32.772 11.918-38.304 15.322-7.234 17.45-25.111 4.683-37.029l-9.363-8.514 8.087-31.070c7.661-27.239 9.789-31.070 20.854-33.621 19.152-5.532 25.537-23.835 12.767-37.878-5.532-6.385-4.683-9.789 10.216-34.474 14.469-23.835 18.299-27.666 32.345-29.791 21.281-3.404 28.515-15.748 19.579-33.198-3.404-5.959 0.426-12.344 20.005-31.496 18.299-18.299 25.96-22.983 30.643-20.005 16.175 10.216 30.217 2.128 33.621-19.152 2.128-14.046 5.959-17.877 29.791-32.345 24.685-14.895 28.089-15.748 34.474-10.216 14.046 12.767 32.345 6.385 37.878-12.767 2.555-11.065 6.385-13.193 33.621-20.854l31.070-8.087 8.514 9.363c11.918 12.767 29.791 10.638 37.029-5.106 5.532-11.065 6.808-11.491 38.304-11.491 31.919 0 32.772 0.426 40.006 12.767z"></path>
<path d="M401.344 112.356c1.276 5.959 12.767 61.287 25.537 123.427 17.024 81.715 27.666 122.574 38.731 148.534 14.046 33.621 16.175 47.241 7.234 47.241-2.128 0-11.491-17.877-20.428-39.58-10.638-25.537-39.157-74.054-81.715-139.171-36.176-54.902-67.246-102.146-69.801-104.274-2.128-2.555 20.005 44.69 49.796 104.274 36.602 73.205 62.989 120.445 81.715 145.556 24.258 32.772 29.791 45.965 19.152 45.965-1.702 0-15.322-15.748-30.643-35.327-23.409-30.217-87.673-91.077-197.054-185.989l-22.13-19.152 19.152 22.13c94.908 109.38 155.772 173.645 186.415 197.054 19.152 15.322 34.9 28.941 34.9 30.643 0 10.638-13.193 5.106-45.965-19.152-25.111-18.726-72.352-45.112-145.556-81.715-59.585-29.791-106.399-51.924-104.274-49.796 2.555 2.555 49.369 33.621 104.274 69.801 65.117 42.561 113.637 71.076 139.597 81.715 21.281 8.936 39.157 18.299 39.157 20.428 0 8.936-13.62 6.808-47.241-7.234-25.96-11.065-66.819-21.707-148.534-38.731-62.14-12.767-117.468-24.258-123.427-25.537-5.959-0.853 42.135 16.175 106.826 38.304 92.783 31.496 126.404 40.859 160.452 45.112 37.029 4.683 43.41 6.808 43.41 13.193 0 8.514 3.83 8.514-61.713 0.426-27.239-3.404-257.492 7.234-257.492 11.918 0 1.702 52.35 5.532 116.188 8.936 94.908 5.106 123 5.106 156.195 0.853 22.13-2.978 41.708-5.106 43.837-5.532 1.702 0 2.978 3.404 2.978 7.661 0 6.808-5.959 8.936-43.41 13.62-34.047 4.257-67.672 13.62-160.452 45.112-64.691 22.13-112.784 39.157-106.826 37.878 126.404-23.409 228.973-47.667 266.854-62.14 39.58-15.748 52.35-17.877 52.35-8.514 0 2.128-17.877 11.065-39.157 20.005-25.96 10.638-74.48 39.157-139.597 81.715-54.902 36.176-101.72 67.246-104.274 69.801-2.128 2.128 44.69-20.005 104.274-49.796 73.205-36.602 120.445-62.989 145.556-81.715 32.345-23.835 45.965-29.791 45.965-19.152 0 1.702-15.748 15.322-35.327 30.217-30.217 23.835-91.077 88.526-185.989 197.48l-19.152 22.13 22.13-19.152c111.935-97.463 173.222-155.772 197.054-186.415 15.322-19.152 28.941-34.9 30.643-34.9 10.638 0 5.106 13.193-19.152 45.965-18.726 25.111-45.112 72.352-81.715 145.556-29.791 59.585-51.924 106.399-49.796 104.274 2.555-2.555 33.621-49.369 69.801-104.274 42.561-65.117 71.076-113.637 81.715-139.597 8.936-21.281 18.299-39.157 20.428-39.157 8.936 0 6.808 12.767-7.234 46.392-12.767 30.643-45.965 170.241-64.264 272.813-0.853 5.959 16.175-42.135 38.304-106.826 31.496-92.783 40.859-126.404 45.112-160.452 4.683-37.029 6.808-43.41 13.193-43.41 8.514 0 8.514-3.83 0.426 61.713-3.404 27.239 7.234 257.492 11.918 257.492 1.702 0 5.532-52.35 8.936-116.188 5.106-94.908 5.106-123 0.853-156.195-2.978-22.13-5.106-41.708-5.532-43.837 0-1.702 3.404-2.978 7.661-2.978 6.808 0 8.936 5.959 13.62 43.41 4.257 34.047 13.62 67.672 45.112 160.452 22.13 64.691 39.157 112.784 37.878 106.826-23.409-126.404-47.667-228.973-62.14-266.854-15.748-39.58-17.877-52.35-8.514-52.35 2.128 0 11.065 17.877 20.005 39.157 10.638 25.96 39.157 74.48 81.715 139.597 36.176 54.902 67.246 101.72 69.801 104.274 2.128 2.128-20.005-44.69-49.796-104.274-36.602-73.205-62.989-120.445-81.715-145.556-23.835-32.345-29.791-45.965-19.152-45.965 1.702 0 15.322 15.748 30.217 35.327 23.835 30.217 88.526 91.077 197.48 185.989l22.13 19.152-19.152-22.13c-97.463-111.509-155.772-173.645-185.989-197.48-19.579-14.895-35.327-28.515-35.327-30.217 0-10.638 13.62-4.683 45.965 19.152 25.111 18.726 72.352 45.112 145.556 81.715 59.585 29.791 106.826 51.924 104.274 49.796-2.128-2.555-49.369-33.621-104.274-69.801-65.117-42.561-113.637-71.076-139.171-81.715-21.707-8.936-39.58-17.877-39.58-20.005 0-9.363 12.767-7.234 52.35 8.514 37.878 14.469 140.45 38.731 266.854 62.14 5.959 1.276-42.135-15.748-106.826-37.878-92.783-31.496-126.404-40.859-160.452-45.112-37.451-4.683-43.41-6.808-43.41-13.62 0-4.257 1.276-7.661 3.404-7.661 1.702 0.426 21.281 2.555 43.41 5.532 33.198 4.257 61.287 4.257 156.621-0.853 63.415-3.404 115.766-7.234 115.766-8.936 0-4.683-230.252-15.322-257.492-11.918-65.544 8.087-61.713 8.087-61.713-0.426 0-6.385 6.385-8.514 43.41-13.193 34.047-4.257 67.672-13.62 160.452-45.112 64.691-22.13 112.784-39.157 106.826-38.304-102.569 18.299-242.17 51.498-272.813 64.264-33.621 14.046-46.392 16.175-46.392 7.234 0-2.128 17.877-11.491 39.157-20.428 25.96-10.638 74.48-39.157 139.597-81.715 54.902-36.176 102.146-67.246 104.274-69.801 2.555-2.128-44.69 20.005-104.274 49.796-73.205 36.602-120.445 62.989-145.556 81.715-32.772 24.258-45.965 29.791-45.965 19.152 0-1.702 15.748-15.322 35.327-30.643 30.217-23.835 88.526-85.122 185.989-197.054l19.152-22.13-22.13 19.152c-108.954 94.908-173.645 155.772-197.48 185.989-14.895 19.579-28.515 35.327-30.217 35.327-10.638 0-4.683-13.62 19.152-45.965 18.726-25.111 45.112-72.352 81.715-145.556 29.791-59.585 51.924-106.826 49.796-104.274-2.555 2.128-33.621 49.369-69.801 104.274-42.561 65.117-71.076 113.637-81.715 139.171-8.936 21.707-17.877 39.58-20.005 39.58-9.363 0-7.234-12.767 8.514-52.35 14.469-37.878 38.731-140.45 62.14-266.854 1.276-5.959-15.748 42.135-37.878 106.826-31.496 92.783-40.859 126.404-45.112 160.452-4.683 37.451-6.808 43.41-13.62 43.41-4.257 0-7.661-1.276-7.661-3.404 0.426-1.702 2.555-21.281 5.532-43.41 4.257-33.198 4.257-61.287-0.853-156.621-3.404-63.415-7.234-115.766-8.936-115.766-4.683 0-15.322 230.252-11.918 257.492 8.087 65.544 8.087 61.713-0.426 61.713-6.385 0-8.514-6.385-13.193-43.41-4.257-34.047-13.62-67.672-45.112-160.452-22.13-64.691-39.157-112.784-38.304-106.826z"></path>
</svg>
