<?xml version="1.0" encoding="utf-8"?>
<!-- Generated by IcoMoon.io -->
<!DOCTYPE svg PUBLIC "-//W3C//DTD SVG 1.1//EN" "http://www.w3.org/Graphics/SVG/1.1/DTD/svg11.dtd">
<svg version="1.1" xmlns="http://www.w3.org/2000/svg" xmlns:xlink="http://www.w3.org/1999/xlink" width="1024" height="1024" viewBox="0 0 1024 1024"><g id="icomoon-ignore">
</g>
<path d="M495.592 16.139l-13.989 14.529 7.534 113c9.686 137.751 9.686 126.453 0.539 126.453-8.61 0-9.147-2.152-25.29-126.453-5.919-47.352-11.838-86.632-12.377-87.171-0.539-1.076-6.458 3.767-12.913 10.762l-11.838 12.377 18.832 93.629c10.225 51.119 18.832 95.242 18.832 97.396s-6.458 5.382-14.529 7.534c-8.071 1.615-27.981 9.686-43.586 17.22-17.756 8.61-30.672 11.838-32.824 8.61-1.615-3.228-25.829-39.819-53.81-81.789-48.428-72.643-51.119-75.87-68.876-75.87h-18.295l65.648 86.095c45.737 59.729 64.033 88.247 60.266 92.014s-29.596-22.062-82.867-83.404c-76.946-88.786-77.485-88.786-100.085-89.323h-23.138v22.599c0.539 23.138 0.539 23.675 89.323 100.624 61.342 53.271 87.171 79.1 83.404 82.867s-32.285-14.529-92.014-60.266l-86.095-65.648v18.295c0 17.756 3.228 20.447 75.87 68.876 41.97 27.981 78.561 52.195 81.789 53.81 3.228 2.152 0 15.068-8.61 32.824-7.534 15.604-15.604 35.515-17.22 43.586-2.152 8.071-5.382 14.529-7.534 14.529s-46.277-8.61-97.396-18.832l-93.629-18.832-12.377 11.838c-6.995 6.458-11.838 12.377-10.762 12.913 0.539 0.539 39.819 6.458 87.171 12.377 125.914 16.68 126.453 16.68 126.453 25.29 0 9.147 11.301 9.147-126.453-0.539l-113-7.534-15.604 15.604c-16.144 15.604-16.144 15.604-5.919 27.442 5.919 5.919 14.529 13.453 18.832 15.604 4.843 2.691 55.423 1.076 113-2.691 131.833-9.686 129.142-9.686 129.142-0.539 0 8.61-0.539 8.61-126.453 25.29-47.352 5.919-86.632 11.838-87.171 12.377-1.076 0.539 3.767 6.458 10.762 12.913l12.377 11.838 93.629-18.832c51.119-10.225 95.242-18.832 97.396-18.832s5.382 6.458 7.534 14.529c1.615 8.071 9.686 27.981 17.22 43.586 8.61 17.756 11.838 30.672 8.61 32.824-3.228 1.615-39.819 25.829-81.789 53.81-72.643 48.428-75.87 51.119-75.87 68.876v18.295l86.095-65.648c59.729-45.737 88.247-64.033 92.014-60.266s-22.062 29.596-83.404 82.867c-88.786 76.946-88.786 77.485-89.323 100.085v23.138h23.138c22.599-0.539 23.138-0.539 100.085-89.323 53.271-61.342 79.1-87.171 82.867-83.404s-11.838 27.981-50.58 78.561c-30.672 40.358-60.266 79.1-65.648 86.632l-10.225 12.913h18.832c17.756 0 20.447-2.691 68.876-75.87 27.981-41.97 52.195-78.561 53.81-81.789 2.152-3.228 15.068 0 32.824 8.61 15.604 7.534 35.515 15.604 43.586 17.22 8.071 2.152 14.529 5.382 14.529 7.534s-8.61 46.277-18.832 97.396l-18.832 93.629 11.838 12.377c6.458 6.995 12.377 11.838 12.913 10.762 0.539-0.539 6.458-39.819 12.377-87.171 16.144-124.299 16.68-126.453 25.29-126.453 9.147 0 9.147-7.534-0.539 126.453-3.767 59.19-5.382 110.846-2.691 115.689 2.152 4.304 9.147 12.377 14.529 17.22 9.686 9.147 11.301 8.61 27.442-8.071l16.68-17.22-7.534-104.927c-9.686-131.833-9.686-129.142-0.539-129.142 8.61 0 8.61 0.539 25.29 126.453 5.919 47.352 11.838 86.632 12.377 87.171 0.539 1.076 6.458-3.767 12.913-10.762l11.838-12.377-18.832-93.629c-10.225-51.119-18.832-95.242-18.832-97.396s6.458-5.382 14.529-7.534c8.071-1.615 27.981-9.686 43.586-17.22 17.756-8.61 30.672-11.838 32.824-8.61 1.615 3.228 25.829 39.819 53.81 81.789 48.428 72.643 51.119 75.87 68.876 75.87h18.295l-65.648-86.095c-45.737-59.729-64.033-88.247-60.266-92.014s29.596 22.062 82.867 83.404c76.946 88.786 77.485 88.786 100.624 89.323h22.599v-23.138c-0.539-22.599-0.539-23.138-89.323-100.085-61.342-53.271-87.171-79.1-83.404-82.867s32.285 14.529 92.014 60.266l86.095 65.648v-18.295c0-17.756-3.228-20.447-75.87-68.876-41.97-27.981-78.561-52.195-81.789-53.81-3.228-2.152 0-15.068 8.61-32.824 7.534-15.604 15.604-35.515 17.22-43.586 2.152-8.071 5.382-14.529 7.534-14.529s46.277 8.61 97.396 18.832l93.629 18.832 12.377-11.838c6.995-6.458 11.838-12.377 10.762-12.913-0.539-0.539-39.819-6.458-87.171-12.377-125.914-16.68-126.453-16.68-126.453-25.29 0-9.147-2.691-9.147 129.142 0.539l104.927 7.534 17.22-16.68c16.68-16.144 17.22-17.756 8.071-27.442-4.843-5.382-12.913-12.377-17.22-14.529-4.843-2.691-56.499-1.076-115.689 2.691-133.984 9.686-126.453 9.686-126.453 0.539 0-8.61 2.152-9.147 126.453-25.29 47.352-5.919 86.632-11.838 87.171-12.377 1.076-0.539-3.767-6.458-10.762-12.913l-12.377-11.838-93.629 18.832c-51.119 10.225-95.242 18.832-97.396 18.832s-5.382-6.458-7.534-14.529c-1.615-8.071-9.686-27.981-17.22-43.586-8.61-17.756-11.838-30.672-8.61-32.824 3.228-1.615 39.819-25.829 81.789-53.81 73.182-48.428 75.87-51.119 75.87-68.876v-18.832l-12.913 10.225c-7.534 5.382-46.277 34.976-86.632 65.648-50.58 38.743-74.794 54.347-78.561 50.58s22.062-29.596 83.404-82.867c88.786-76.946 88.786-77.485 89.323-100.624v-22.599h-22.599c-23.138 0.539-23.675 0.539-100.624 89.323-53.271 61.342-79.1 87.171-82.867 83.404s14.529-32.285 60.266-92.014l65.648-86.095h-18.295c-17.756 0-20.447 3.228-68.876 75.87-27.981 41.97-52.195 78.561-53.81 81.789-2.152 3.228-15.068 0-32.824-8.61-15.604-7.534-35.515-15.604-43.586-17.22-8.071-2.152-14.529-5.382-14.529-7.534s8.61-46.277 18.832-97.396l18.832-93.629-11.838-12.377c-6.458-6.995-12.377-11.838-12.913-10.762-0.539 0.539-6.458 39.819-12.377 87.171-16.68 125.914-16.68 126.453-25.29 126.453-4.304 0-7.534-4.304-7.534-9.686 0-11.838 9.686-149.589 13.453-193.174 2.691-29.596 1.615-34.439-11.301-49.504-7.534-9.147-15.604-16.68-17.756-16.68s-10.225 6.458-18.295 15.068z"></path>
</svg>
