<?xml version="1.0" encoding="UTF-8" standalone="no"?>
<svg
   xmlns:dc="http://purl.org/dc/elements/1.1/"
   xmlns:cc="http://creativecommons.org/ns#"
   xmlns:rdf="http://www.w3.org/1999/02/22-rdf-syntax-ns#"
   xmlns:svg="http://www.w3.org/2000/svg"
   xmlns="http://www.w3.org/2000/svg"
   xmlns:sodipodi="http://sodipodi.sourceforge.net/DTD/sodipodi-0.dtd"
   xmlns:inkscape="http://www.inkscape.org/namespaces/inkscape"
   width="500"
   height="500"
   viewBox="-350 -250 700 500"
   id="svg2"
   sodipodi:version="0.32"
   inkscape:version="0.48.0 r9654"
   sodipodi:docname="Albanian_Eagle.svg"
   inkscape:output_extension="org.inkscape.output.svg.inkscape"
   version="1.0">
  <metadata
     id="metadata14">
    <rdf:RDF>
      <cc:Work
         rdf:about="">
        <dc:format>image/svg+xml</dc:format>
        <dc:type
           rdf:resource="http://purl.org/dc/dcmitype/StillImage" />
      </cc:Work>
    </rdf:RDF>
  </metadata>
  <defs
     id="defs12">
    <style
       id="style6"
       type="text/css">
   
    .fil0 {fill:#ED323D;fill-rule:nonzero}
    .fil1 {fill:black;fill-rule:nonzero}
   
  </style>
  </defs>
  <sodipodi:namedview
     inkscape:window-height="712"
     inkscape:window-width="1024"
     inkscape:pageshadow="2"
     inkscape:pageopacity="0.0"
     guidetolerance="10.0"
     gridtolerance="10.0"
     objecttolerance="10.0"
     borderopacity="1.0"
     bordercolor="#666666"
     pagecolor="#ffffff"
     id="base"
     inkscape:zoom="0.63871872"
     inkscape:cx="511.68781"
     inkscape:cy="328.08502"
     inkscape:window-x="-4"
     inkscape:window-y="-4"
     inkscape:current-layer="svg2"
     inkscape:document-units="cm"
     width="500px"
     height="500px"
     units="cm"
     showgrid="false"
     inkscape:window-maximized="1" />
  <title
     id="title4">Flag of Albania</title>
  <g
     style="fill-rule:evenodd"
     id="g2996"
     transform="matrix(201.6564,0,0,201.64894,-783.57964,-558.30937)">
    <g
       transform="matrix(2.6398763,0,0,2.6358507,0.2337429,0.10212981)"
       id="g12">
    <path
   style="fill:#000000;fill-rule:nonzero"
   d="m 636,103.0625 c -3.64403,-0.0166 -6.75686,1.15714 -8.71875,4.28125 -8.83284,-0.49035 -19.46058,-1.00206 -17.5,9.9375 1.75816,-0.16251 2.7045,-1.16415 3.25,-2.28125 0.77929,-1.59511 3.42083,-1.85882 5.90625,-0.96875 2.16681,0.77431 3.91171,1.92715 2.3125,3.84375 -0.81731,0.97785 -4.00817,1.4572 -5.96875,0.96875 -1.96248,-0.4875 -5.59803,-1.07338 -7.71875,-1.3125 -1.43028,-0.16344 -4.25386,-1.94155 -5.5625,-4.46875 -1.30674,-2.53197 -4.65414,-5.57819 -6.78125,-3.78125 -2.12618,1.79604 0.40592,4.84056 2.53125,6.71875 2.1288,1.87812 6.46297,4.21875 8.75,4.21875 3.02878,0 5.97956,0.73299 7.53125,1.0625 0.73415,5.76442 8.3383,8.38127 14.71875,8.21875 6.3757,-0.16251 14.79596,2.93678 22.5625,9.34375 10.05928,8.29826 17.16455,35.71875 0.15625,35.71875 -10.62687,0 -8.9827,-10.61445 -8.65625,-16.65625 0.3255,-6.04088 -2.96135,-12.57706 -10.15625,-15.1875 -7.1949,-2.61229 -21.91228,-7.64836 -26,-9.9375 -1.63461,-1.14035 -3.36163,2.89132 -3.59375,5.21875 -0.1665,1.63354 -1.9968,1.76914 -7.1875,0.15625 -14.7193,-4.57268 -28.12359,-12.41452 -34.5,-24.5 -6.37843,-12.08174 -18.41181,-0.19651 -12.4375,9.96875 7.19783,12.24426 31.23015,22.19775 46.4375,24.15625 7.06779,0.90976 7.01864,9.37199 0.34375,10.3125 -13.90083,1.96139 -27.52544,1.68777 -36,-9.3125 -6.5421,-8.4916 -12.96295,-0.86354 -10.125,5.875 6.05011,14.36903 26.57095,20.43284 46.59375,10.78125 4.74337,-2.28734 9.82324,-1.90804 5.71875,3.75 -10.30238,14.2065 -23.99604,16.39794 -41.1875,5.875 -5.06981,-3.10076 -9.01321,-2.61757 -10.15625,-0.65625 -2.01285,3.44166 -2.89428,6.55786 2.96875,10.78125 12.91866,9.30599 27.85894,8.6437 39.875,2.4375 4.74429,-2.44884 13.43422,-4.40542 5.75,5.71875 -7.68702,10.12509 -27.33225,15.33993 -35.34375,9.625 -8.01442,-5.71586 -17.97218,-0.47477 -11.59375,8.34375 6.37748,8.81662 19.60617,6.54731 25.65625,3.28125 6.05196,-3.26701 15.3867,-7.70398 19.3125,-9.5 3.92402,-1.79794 5.75969,1.27828 1.3125,6.375 -9.97683,11.43171 -20.26524,21.03999 -34.1875,16.5 -8.01254,-2.61137 -15.37801,-2.95352 -13.25,6.84375 2.12523,9.79539 18.63536,10.46301 26.8125,5.5625 8.17904,-4.89771 15.52951,-10.45137 20.4375,-15.1875 4.90526,-4.73518 9.88803,-4.54695 4.4375,3.4375 -12.26378,17.96011 -22.75919,31.10201 -40.25,27.75 -16.18971,-3.10356 -12.15368,6.59348 -8.65625,9.625 9.975,8.65308 27.47327,6.38178 48.40625,-19.25 1.63224,-2.00338 4.3761,-1.42565 2.9375,2.28125 -9.31831,24.00247 -24.86046,39.50553 -39.90625,35.75 -7.82546,-1.95475 -15.4349,2.39853 -7.5,9.3125 8.99564,7.83773 25.35128,4.90616 37.125,-8.15625 11.77469,-13.06336 18.94622,-22.38157 21.5625,-27.28125 2.61538,-4.89683 6.55431,-5.05668 6.0625,1.3125 -0.48943,6.36692 -5.22075,18.79162 -13.5625,22.875 -4.3158,2.11369 -8.17424,6.84565 0,10.4375 8.179,3.59208 17.8075,-10.93017 25.65625,-32.15625 0.92422,-2.49373 6.33303,-3.12001 6.21875,1.625 -0.16367,6.69548 -3.43392,12.23386 -7.03125,15.5 -3.59852,3.26614 -0.77801,8.73366 4.09375,6.53125 6.86774,-3.10269 11.21413,-7.65903 13.90625,-14.53125 1.47305,-3.75458 4.78665,-5.05079 2.9375,0.8125 -5.5591,17.63329 -17.99241,26.15072 -34.34375,34.3125 2.45263,2.44889 4.66637,5.13873 6.875,7.34375 -10.05737,5.14331 -20.62867,8.57042 -28.96875,12 -6.62443,-4.40933 -12.4957,-6.86555 -15.4375,-11.03125 -0.98029,-5.63176 -7.86248,-8.07294 -12.28125,-5.625 -7.60192,-2.93924 -12.97953,-2.22661 -13.46875,4.875 4.41504,-0.7354 8.09252,-1.44161 11.28125,1.5 1.46854,3.42958 6.11713,5.12729 10.53125,3.65625 4.90704,2.93829 9.08852,5.88616 12.03125,7.84375 -9.32021,-0.24197 -16.18576,-0.73006 -21.09375,-1.21875 -4.65731,-4.65296 -9.06525,-4.65091 -12.5,-1.46875 -5.64226,-1.22409 -10.05894,1.38252 -11.53125,6.28125 4.25227,-0.48869 8.15567,-1.9708 10.9375,-0.5 2.28893,4.24493 8.66048,4.41187 12.75,1.3125 C 575.74503,330.1775 587.84595,330 590.625,330 c -4.08672,2.44889 -8.98584,5.40609 -11.4375,6.875 -9.64853,-1.95949 -14.87352,1.78893 -14.21875,8.8125 -2.28893,3.59208 -2.12568,8.65396 0.65625,10.9375 0.65004,-2.93829 2.27267,-6.69051 4.5625,-8.8125 5.88733,1.14106 10.13876,-0.81148 11.9375,-7.34375 3.75932,-2.44889 8.66349,-5.56859 10.625,-6.875 1.96438,-1.30475 3.54512,-2.80307 8.03125,-0.8125 4.41606,1.96186 8.50962,3.5943 11.125,5.0625 1.47305,5.71408 7.02743,6.05245 10.625,3.4375 2.29036,1.30475 4.25315,3.58236 5.5625,6.03125 2.12404,-3.75648 0.96557,-8.82025 -3.125,-10.125 -1.47068,-4.41028 -6.67813,-5.87199 -10.4375,-3.75 -3.10742,-1.30475 -7.53847,-3.43465 -9.5,-4.25 6.37736,-2.28449 22.55655,-8.30111 28.28125,-10.75 5.39636,4.08338 11.45894,7.986 15.875,6.84375 0.65337,-3.91898 2.68419,-7.12803 5.40625,-12.71875 4.33362,-8.89979 9.71202,-17.22979 14.125,-22.375 4.41701,-5.14426 8.89953,-2.2214 8.59375,4.875 -0.73415,17.14389 -13.41819,42.8034 -32.0625,43.78125 -6.3738,0.33923 -8.88538,1.64375 -5.375,6.375 3.27017,4.40838 13.38994,4.9763 19.03125,0.8125 5.64131,-4.16546 7.61369,-3.92895 6.46875,1.625 -1.14518,5.55158 -7.54824,7.66385 -12.28125,8 -6.86846,0.49106 -14.69105,2.93426 -8.3125,8.8125 6.37926,5.87563 16.8443,2.59683 24.53125,-6.21875 2.66598,-3.0607 4.75328,-3.90608 4.5625,1 -0.3255,8.48963 -5.39258,13.889 -10.625,15.03125 -5.23361,1.14106 -10.46664,2.50044 -9,5.53125 2.45453,5.06123 10.64184,5.8852 15.21875,3.4375 4.58238,-2.44984 9.48561,-7.03766 10.46875,-9.8125 0.98124,-2.77579 2.9735,-1.18296 2.4375,2.625 -1.1428,8.16463 -6.875,7.99178 -6.875,14.6875 0,6.69453 5.5875,13.24447 12.125,20.59375 6.54581,-7.34928 12.09375,-13.89922 12.09375,-20.59375 0,-6.69548 -5.73101,-6.52287 -6.875,-14.6875 -0.53457,-3.80677 1.4887,-5.40079 2.46875,-2.625 0.97887,2.77484 5.88542,7.36266 10.46875,9.8125 4.57406,2.44794 12.73202,1.62278 15.1875,-3.4375 1.46355,-3.03081 -3.76948,-4.38995 -9,-5.53125 -5.23432,-1.14343 -10.2995,-6.54139 -10.625,-15.03125 -0.19176,-4.90513 1.9242,-4.05975 4.59375,-1 7.68339,8.81558 18.15389,12.09438 24.53125,6.21875 6.37831,-5.87824 -1.47862,-8.32025 -8.34375,-8.8125 -4.73396,-0.33686 -11.13441,-2.44866 -12.28125,-8 -1.14518,-5.55324 0.8272,-5.78999 6.46875,-1.625 5.64131,4.16261 15.79518,3.5947 19.0625,-0.8125 3.51228,-4.73243 0.96755,-6.03695 -5.40625,-6.375 -18.64407,-0.97737 -31.33096,-26.63736 -32.0625,-43.78125 -0.30411,-7.09711 4.17388,-10.01926 8.59375,-4.875 4.41131,5.14521 9.82168,13.47521 14.15625,22.375 2.72015,5.59072 4.71925,8.79977 5.375,12.71875 4.41511,1.14343 10.47864,-2.76061 15.875,-6.84375 5.72732,2.44889 21.90365,8.46551 28.28125,10.75 -1.96011,0.81606 -6.36418,2.94525 -9.46875,4.25 -3.76127,-2.12081 -8.99451,-0.66123 -10.46875,3.75 -4.08677,1.30475 -5.24833,6.36875 -3.125,10.125 1.31149,-2.44889 3.27072,-4.72555 5.5625,-6.03125 3.59852,2.61519 9.18391,2.27658 10.65625,-3.4375 2.61253,-1.46843 6.67792,-3.10111 11.09375,-5.0625 4.4852,-1.99033 6.06615,-0.49225 8.03125,0.8125 1.96248,1.30712 6.86017,4.42635 10.625,6.875 1.7938,6.53203 6.0529,8.48505 11.9375,7.34375 2.29273,2.12081 3.91127,5.87445 4.5625,8.8125 2.78478,-2.28449 2.94874,-7.34565 0.65625,-10.9375 0.65575,-7.02238 -4.57312,-10.77199 -14.21875,-8.8125 -2.45453,-1.46843 -7.34717,-4.42635 -11.4375,-6.875 2.77908,0 14.88365,0.17653 21.09375,0.34375 4.09033,3.09984 10.46297,2.93291 12.75,-1.3125 2.77908,-1.4708 6.71924,0.0113 10.96875,0.5 -1.4683,-4.89873 -5.88994,-7.50558 -11.53125,-6.28125 -3.43577,-3.18287 -7.87118,-3.18492 -12.53125,1.46875 -4.90336,0.48869 -11.77456,0.97678 -21.09375,1.21875 2.94183,-1.95712 7.12219,-4.9057 12.03125,-7.84375 4.41606,1.4708 9.06176,-0.22738 10.53125,-3.65625 3.19058,-2.94113 6.89549,-2.2354 11.3125,-1.5 -0.48943,-7.10185 -5.89716,-7.814 -13.5,-4.875 -4.41606,-2.44794 -11.29621,-0.007 -12.28125,5.625 -2.93992,4.16546 -8.8159,6.62192 -15.4375,11.03125 -8.34365,-3.42958 -18.88108,-6.85645 -28.9375,-12 2.20482,-2.20621 4.39397,-4.89486 6.84375,-7.34375 -16.34778,-8.16178 -28.75245,-16.67945 -34.3125,-34.3125 -1.85082,-5.86448 1.4654,-4.56827 2.9375,-0.8125 2.69473,6.87198 7.00821,11.42856 13.875,14.53125 4.87437,2.20146 7.69227,-3.26535 4.09375,-6.53125 -3.59757,-3.26614 -6.8685,-8.80428 -7.03125,-15.5 -0.11692,-4.74453 5.29857,-4.11825 6.21875,-1.625 7.8516,21.22608 17.5104,35.74833 25.6875,32.15625 8.17615,-3.59208 4.3177,-8.325 0,-10.4375 -8.33984,-4.08338 -13.10075,-16.50831 -13.59375,-22.875 -0.48943,-6.36963 3.44641,-6.20957 6.0625,-1.3125 2.61823,4.89968 9.81885,14.21789 21.59375,27.28125 11.77372,13.06241 28.13131,15.99422 37.125,8.15625 7.93666,-6.91421 0.29445,-11.26725 -7.53125,-9.3125 -15.04674,3.75553 -30.58516,-11.74814 -39.90625,-35.75 -1.43979,-3.7069 1.30526,-4.28458 2.9375,-2.28125 20.9311,25.63161 38.43607,27.90314 48.40625,19.25 3.49921,-3.03152 7.53448,-12.72864 -8.65625,-9.625 -17.49367,3.35201 -27.95584,-9.78967 -40.21875,-27.75 -5.45243,-7.98445 -0.50162,-8.17268 4.40625,-3.4375 4.90336,4.73613 12.26207,10.28979 20.4375,15.1875 8.1771,4.90051 24.68347,4.23289 26.8125,-5.5625 2.12404,-9.79727 -5.23637,-9.45512 -13.25,-6.84375 -13.92057,4.53999 -24.18108,-5.06831 -34.15625,-16.5 -4.45147,-5.09665 -2.61247,-8.17289 1.3125,-6.375 3.92307,1.79604 13.2339,6.23299 19.28125,9.5 6.05281,3.26606 19.31014,5.53537 25.6875,-3.28125 6.3776,-8.81847 -3.6154,-14.02836 -11.625,-8.3125 -8.01435,5.71493 -27.6284,0.46886 -35.3125,-9.65625 -7.6879,-10.12417 0.97814,-8.16759 5.71875,-5.71875 12.01891,6.20618 26.98854,6.86849 39.90625,-2.4375 5.86298,-4.22337 4.95035,-7.33959 2.9375,-10.78125 -1.14518,-1.96139 -5.08824,-2.44449 -10.15625,0.65625 -17.19241,10.52297 -30.88707,8.33153 -41.1875,-5.875 -4.1091,-5.65795 0.97576,-6.03729 5.71875,-3.75 20.02399,9.65156 40.54284,3.58775 46.59375,-10.78125 2.8399,-6.73854 -3.58489,-14.3666 -10.125,-5.875 -8.47646,11.00022 -22.07075,11.27382 -35.96875,9.3125 -6.67316,-0.9406 -6.75529,-9.40283 0.3125,-10.3125 15.20569,-1.95854 39.24165,-11.91201 46.4375,-24.15625 5.97536,-10.16525 -6.02414,-22.05049 -12.40625,-9.96875 -6.37736,12.08548 -19.81024,19.92732 -34.53125,24.5 -5.19132,1.6129 -7.02475,1.4773 -7.1875,-0.15625 -0.23571,-2.32743 -1.9589,-6.35912 -3.59375,-5.21875 -4.08677,2.28924 -18.8032,7.32521 -26,9.9375 -7.19585,2.61042 -10.4505,9.14662 -10.125,15.1875 0.3255,6.0418 1.94413,16.65625 -8.6875,16.65625 -17.00542,0 -9.87363,-27.42056 0.1875,-35.71875 7.76559,-6.40699 16.18419,-9.50627 22.5625,-9.34375 6.37665,0.16251 13.98151,-2.45433 14.71875,-8.21875 1.54908,-0.32974 4.47122,-1.0625 7.5,-1.0625 2.28798,0 6.62002,-2.34048 8.75,-4.21875 2.12404,-1.87812 4.65553,-4.92273 2.53125,-6.71875 -2.1288,-1.79699 -5.47451,1.24938 -6.78125,3.78125 -1.30911,2.52729 -4.13126,4.3053 -5.5625,4.46875 -2.11929,0.23912 -5.75627,0.825 -7.71875,1.3125 -1.96486,0.48845 -5.15121,0.009 -5.96875,-0.96875 -1.5966,-1.91655 0.17575,-3.06949 2.34375,-3.84375 2.48447,-0.89007 5.09571,-0.62636 5.875,0.96875 0.54408,1.1171 1.52547,2.11875 3.28125,2.28125 1.96248,-10.93951 -8.66787,-10.42785 -17.5,-9.9375 -5.23432,-8.330946 -18.80368,-2.62796 -28.125,1.78125 -4.41606,0.98449 -11.95843,0.47824 -15.71875,-1.15625 -3.76032,-1.63259 -3.58846,0.35926 -2.28125,2.15625 1.30911,1.79509 6.03752,5.0437 8,5.53125 1.96248,0.49225 1.30724,1.464 0.65625,2.28125 -2.0694,2.58148 -6.68822,5.08123 -8.8125,5.40625 -2.12404,0.3288 -2.79834,1.3087 -1.65625,2.125 1.1428,0.8163 2.80051,1.789 4.4375,2.28125 1.63699,0.4875 1.44999,1.13275 0.46875,2.4375 -2.02663,2.69354 -7.36127,5.39125 -9.15625,5.0625 -1.79855,-0.32595 -1.93224,0.6515 -1.28125,1.46875 0.65575,0.81725 3.09476,1.96875 4.40625,1.96875 1.30674,0 1.40778,0.23983 0.3125,1.625 -1.18557,1.50283 -3.82753,4.74244 -6.1875,4.0625 -3.19058,-0.91996 -4.01249,-0.0969 -3.03125,1.25 2.30936,3.17454 2.20785,4.54944 -2.375,5.3125 -4.57501,-0.76316 -4.71585,-2.13786 -2.40625,-5.3125 0.98124,-1.34674 0.18695,-2.16996 -3,-1.25 -2.36163,0.67989 -5.03342,-2.55976 -6.21875,-4.0625 -1.09528,-1.38517 -0.96299,-1.625 0.34375,-1.625 1.31149,0 3.75407,-1.1515 4.40625,-1.96875 0.65575,-0.81725 0.48605,-1.7947 -1.3125,-1.46875 -1.79855,0.3288 -7.13294,-2.36891 -9.15625,-5.0625 -0.97887,-1.30475 -1.13461,-1.95 0.5,-2.4375 1.63461,-0.49225 3.26321,-1.46495 4.40625,-2.28125 1.1428,-0.8163 0.5038,-1.7962 -1.625,-2.125 -2.12404,-0.325 -6.77483,-2.82477 -8.84375,-5.40625 -0.65575,-0.81725 -1.30623,-1.789 0.65625,-2.28125 1.96486,-0.4875 6.69136,-3.73616 8,-5.53125 1.30674,-1.79699 1.47978,-3.78872 -2.28125,-2.15625 -3.76032,1.63449 -11.27144,2.14074 -15.6875,1.15625 C 649.58057,106.36923 642.07338,103.09012 636,103.0625 z M 639.09375,113 c 1.68463,0.0115 3.50671,0.50501 5.1875,1.34375 2.28656,1.1469 1.4548,3.1015 -0.34375,3.59375 -1.79879,0.49035 -5.22647,0.50285 -7.84375,-0.3125 -2.61445,-0.8172 -2.13173,-3.1159 0.15625,-4.09375 0.85871,-0.3674 1.83297,-0.53815 2.84375,-0.53125 z m 97.03125,0 c 1.0105,-0.007 1.98442,0.16385 2.84375,0.53125 2.28798,0.97785 2.77353,3.27655 0.15625,4.09375 -2.61728,0.81535 -6.04401,0.80285 -7.84375,0.3125 -1.79855,-0.49225 -2.63078,-2.44685 -0.34375,-3.59375 1.68198,-0.83874 3.50334,-1.33225 5.1875,-1.34375 z"
   transform="matrix(0.00420895,0,0,0.00421538,-1.5095382,-0.06913489)"
   id="_148172456"
   inkscape:connector-curvature="0" />

    
    
   </g>
  </g>
</svg>
