<svg xmlns="http://www.w3.org/2000/svg" width="1024" height="1024" viewBox="0 0 1024 1024"><path d="M23.323 516.43L264.33 727.458l-17.77 71.078 238.795-22.21L474.245 1024h73.306l-11.11-245.45 241.008 19.995-17.768-71.078 241.005-211.026q-19.996-11.66-58.863-36.09l38.316-162.71q-134.385 26.656-136.057 26.656-4.992 0-40.54-71.64l-136.61 130.5 40.54-274.88-83.855 36.094L513.11 0 400.376 164.37l-83.855-36.093 41.094 274.88L220.45 272.655q-40.54 72.193-42.755 71.64L41.638 317.64l40.54 162.708q-19.434 12.774-58.863 36.093z"/></svg>