<?xml version="1.0" encoding="utf-8"?>
<!-- Generated by IcoMoon.io -->
<!DOCTYPE svg PUBLIC "-//W3C//DTD SVG 1.1//EN" "http://www.w3.org/Graphics/SVG/1.1/DTD/svg11.dtd">
<svg version="1.1" xmlns="http://www.w3.org/2000/svg" xmlns:xlink="http://www.w3.org/1999/xlink" width="1024" height="1024" viewBox="0 0 1024 1024"><g id="icomoon-ignore">
</g>
<path d="M23.323 516.431l241.006 211.026-17.768 71.078 238.794-22.21-11.11 247.675h73.306l-11.11-245.451 241.006 19.996-17.768-71.078 241.006-211.026q-19.996-11.662-58.863-36.093l38.316-162.708q-134.385 26.655-136.057 26.655-4.994 0-40.54-71.64l-136.611 130.502 40.54-274.88-83.855 36.093-110.506-164.37-112.732 164.37-83.855-36.093 41.093 274.88-137.166-130.502q-40.54 72.193-42.754 71.64l-136.057-26.655 40.54 162.708q-19.434 12.774-58.863 36.093z"></path>
</svg>
