<svg xmlns="http://www.w3.org/2000/svg" width="1015" height="1024" viewBox="0 0 1015 1024"><path d="M745.987 442.866c7.02-11.263 15.426 15.62 44.3 35.636 13.443 9.138 22.807 33.49 22.895 49.512.442 11.005-1.223 21.983.006 32.628.774 6.735 7.802 21.684 2.997 25.506-12.708 9.436-29.16 30.863-36.792 38.256-6.598 5.777-12.313-29.824-17.268-45.758-5.308-17.074-2.93-37.482-17.648-53.26-10.43-10.652-36.744-21.134-33.79-25.88l35.297-56.64z"/><path d="M762.125 578.646c-5.308-17.074-2.93-37.482-17.648-53.26-10.43-10.652-36.744-21.134-33.79-25.88l35.3-56.64c7.02-11.264 15.425 15.62 44.3 35.635 13.442 9.14 22.806 33.49 22.894 49.514z"/><path d="M747.876 529.58c2.19-5.034 5.033-9.686 9.007-14.186s8.674-8.28 13.866-10.123c5.014-1.844 10.12-4.27 13.686-8.7 1.783-2.216 3.322-5.013 4.088-8.347.71-3.09.53-6.637.005-10.946.624.453 1.127.73 1.77 1.18 13.443 9.138 22.844 33.526 22.933 49.548.178 4.426-.066 9.037-.244 13.435-.996 2.757-1.71 5.14-3.134 6.81-1.854 2.177-4.058 3.616-6.4 4.617-4.685 2.003-10.095 2.416-15.11 4.262-5.193 1.84-10.535 6.01-15.112 11.01-4.362 4.764-7.722 10.23-9.955 15.095-.378-1.378-.877-3.432-1.245-4.617-6.693-18.08-5.65-36.41-14.162-49.036zm245.916-1.77c-.37 1.955 4.923 4.846 6.18 3.344 5.695-6.814 13.148-20.192 14.676-28.29.448-2.356-7.137-5.023-8.758-3.087-5.33 6.38-10.498 19.526-12.1 28.033zM281.585 942.73c-5.67 20.015-89.32-18.866-98.66-39.008 47.865 25.336 99.803 20.037 98.66 39.01zM17.12 533.896c4.18 4.972 11.23 1.64 4.807-5.088-5.257-5.437-3.527-7.152-6.73-13.776-3.167-7.402-3.003-11.485-6.827-16.773-3.38-5.02-8.467.1-5.06 4.322 4.277 4.994 3.097 8.676 5.712 13.506 4.834 8.265 3.655 12.605 8.097 17.808zM375.224 794.23c14.247 11.66 23.493 24.97 27.803 42.174 4.495 16.025 10.814 28.803 20.086 43.207-15.105-10.29-24.6-24.284-29.352-41.15-4.17-16.578-9.092-28.97-18.535-44.23zm266.7 0c-14.564 11.728-24.014 25.118-28.42 42.422-4.594 16.118-11.054 28.973-20.532 43.46 15.44-10.35 25.146-24.428 30.002-41.395 4.264-16.674 9.296-29.137 18.95-44.488zm-17.894-.002c-15.613 12.25-30.332 26.158-34.738 43.46-4.594 16.12-7.37 28.457-17.898 44.495 16.49-10.35 23.038-25.986 27.895-42.952 4.262-16.666 14.036-29.13 24.74-45.002zm-176.46 66.607c5.23 9.855 11.242 24.86 22.135 22.114.172-7.546-11.757-12.774-22.136-22.116zm16.217 3.338c21.157 8.664 39.427 6.524 41.703 19.81-19.848 2.14-27.106-6.004-41.703-19.81zm103.746-2.053c-5.304 9.292-11.396 23.436-22.438 20.848-.174-7.112 11.917-12.04 22.438-20.847zm-14.84 2.825c-21.466 8.222-40 6.19-42.31 18.798 20.136 2.03 27.5-5.697 42.31-18.798zm19.62-30.087c.42-3.01-1.633-5.635-4.1-6.426-4.8-1.804-9.58-3.272-14.343-4.628-5.412-1.283-8.44 2.594-8.46 5.14-.027 4.24-.224 7.842 0 11.055.294 4 1.055 4.297 3.587 4.89 4.054.685 9.25 1.382 13.32 4.114 3.228 1.988 6.33.415 7.944-3.08 1.045-2.673 1.616-7.902 2.055-11.068zm-58.316.002c-.375-3.01 1.207-5.892 3.41-6.682 4.29-1.804 8.562-2.245 13.07-2.06 5.004-.08 6.263 1.053 6.28 3.6.025 4.24.2 8.355 0 11.567-.262 4.003-.175 4.3-2.437 4.892-3.62.685-9.798.87-13.437 3.6-2.883 1.99-6.17.416-6.33-3.337.07-2.83-.163-8.413-.556-11.58zm-70.804-.773c-.422-3.01 1.64-5.635 4.118-6.426 4.826-1.802 9.63-3.27 14.414-4.626 5.437-1.283 8.48 2.594 8.5 5.14.027 4.24.226 7.842 0 11.055-.295 4.002-1.06 4.3-3.603 4.89-4.072.686-9.29 1.383-13.383 4.115-3.242 1.988-6.36.415-7.98-3.08-1.048-2.673-1.622-7.902-2.063-11.068zm58.592.003c.377-3.01-1.212-5.893-3.427-6.683-4.31-1.804-8.6-2.245-13.13-2.06-5.027-.08-6.293 1.053-6.31 3.6-.024 4.24-.2 8.355 0 11.567.264 4.003.177 4.3 2.45 4.892 3.637.685 9.842.87 13.5 3.6 2.896 1.99 6.198.416 6.358-3.337-.07-2.833.165-8.415.56-11.58zm-229.69-396.75c-7.02-11.263-15.427 15.62-44.3 35.636-13.444 9.138-22.808 33.49-22.896 49.512-.444 11.005 1.22 21.983-.008 32.628-.774 6.735-7.802 21.684-2.997 25.506 12.708 9.436 29.16 30.863 36.792 38.256 6.598 5.777 12.313-29.824 17.268-45.758 5.308-17.074 2.93-37.482 17.648-53.26 10.43-10.652 36.744-21.134 33.79-25.88l-35.297-56.64z"/><path d="M255.954 573.12c5.308-17.074 2.93-37.482 17.648-53.26 10.43-10.652 36.744-21.134 33.79-25.88l-35.3-56.64c-7.02-11.264-15.425 15.62-44.3 35.635-13.442 9.138-22.806 33.49-22.894 49.512z"/><path d="M270.205 524.056c-2.19-5.035-5.033-9.687-9.007-14.187s-8.674-8.28-13.866-10.125c-5.016-1.846-10.12-4.27-13.688-8.702-1.783-2.216-3.322-5.013-4.088-8.347-.71-3.09-.53-6.637-.005-10.946-.623.454-1.126.732-1.77 1.18-13.442 9.14-22.843 33.527-22.932 49.55-.178 4.425.066 9.036.244 13.434.996 2.758 1.71 5.14 3.134 6.81 1.854 2.178 4.058 3.617 6.4 4.618 4.685 2.003 10.095 2.416 15.11 4.262 5.193 1.843 10.535 6.012 15.112 11.01 4.362 4.766 7.722 10.233 9.955 15.097.378-1.376.877-3.43 1.245-4.615 6.693-18.078 5.65-36.408 14.162-49.035zm-6.67-97.704l5.1-3.272 97.927 164.765-5.094 3.272-97.934-164.765z"/><path d="M274.093 419.807v.012c0 6.225-5.052 11.273-11.286 11.273s-11.286-5.047-11.286-11.275V419.792c0-6.227 5.054-11.275 11.288-11.275s11.286 5.046 11.286 11.274v.014zm480.555 9.475l-5.098-3.387-97.876 170.532 5.09 3.387 97.884-170.532z"/><path d="M744.096 422.508v.01c0 6.445 5.05 11.67 11.28 11.67s11.282-5.225 11.282-11.67v-.02c0-6.444-5.05-11.67-11.28-11.67s-11.282 5.226-11.282 11.67v.01zM357.812 287.425h39.683v9.093h-39.683v-9.093zm0 17.232h39.683v75.96h-39.683v-75.96zm-2.392-27.627l44.02.257c1.72-14.912-13.18-31.02-21.878-30.857-8.6.415-22.485 16.287-22.142 30.6zm263.064 10.652h39.683v9.093h-39.683v-9.093zm0 17.232h39.683v75.96h-39.683v-75.96zm-2.394-27.624l44.02.255c1.72-14.912-13.18-31.02-21.877-30.857-8.6.415-22.485 16.287-22.142 30.6z"/><path d="M324.79 393.533l25.232 27.776 314.066.512 25.747-27.776-80.32-1.027-39.13-27.263-126.145-.514-36.555 28.29H324.79zm128.556-42.885l108.45-.112c14.683-7.755 19.264-32.522 19.19-46.38-.204-40.936-28.863-60.568-57.628-61.615-4.31-.216-9.312-3.567-10.45-7.49-2.835-8.887-2.104-32.03-5.207-31.713-2.76-.04-1.95 22.654-4.407 30.988-1.35 4.147-6.016 8.236-10.67 8.473-35.802 1.784-58.893 27.894-57.99 61.358.606 22.127 3.182 35.34 18.715 46.492z"/><path d="M453.346 350.648l108.45-.112c14.683-7.755 19.264-32.522 19.19-46.38-.204-40.936-28.863-60.568-57.628-61.615-4.31-.216-9.312-3.567-10.45-7.49-2.835-8.887-2.104-31.51-5.207-31.713-2.24.218-1.95 22.654-4.407 30.988-1.35 4.147-6.016 8.236-10.67 8.473-35.802 1.784-58.893 27.894-57.99 61.358.606 22.127 3.182 35.34 18.715 46.492z"/><path d="M446.552 314.577c2.735 13.49 9.24 11.422 8.758 4.892-1.602-20.84.086-41.36 18.53-55.04 5.846-4.28-.685-8.23-5.66-6.17-15.684 6.59-25.213 36.8-21.628 56.316z"/><path d="M464.83 323.06c2.734 13.49 13.904 12.905 11.847 4.122-4.184-16.82-3.52-41.358 11.32-51.95 5.86-4.26-.685-8.23-5.66-6.17-15.684 6.59-21.094 34.485-17.51 54zm104.55-7.968c-2.738 13.49-9.25 11.422-8.77 4.892 1.604-20.837-.085-41.358-18.55-55.038-5.85-4.28.688-8.23 5.668-6.17 15.7 6.59 25.24 36.802 21.65 56.316z"/><path d="M551.088 323.576c-2.737 13.49-13.92 12.904-11.86 4.12 4.188-16.82 3.522-41.357-11.334-51.95-5.865-4.258.687-8.228 5.667-6.168 15.7 6.59 21.12 34.484 17.53 53.998zM274.85 747.928h465.957l-41.708-33.95H316.55l-41.7 33.95zm80.833-305.53h44.28v61.207h-44.28v-61.208zm2.574 96.184h42.734v12.86H358.26v-12.86zm-4.117 80.24h47.88v26.746h-47.88v-26.746zm5.87-91.717h38.585l7.65-12.725H353.09l6.92 12.725zm298.166 11.475h-42.012v12.86h42.012v-12.86zm.774 22.634h-42.785v47.835h42.785v-47.837zm2.76 57.608h-47.074v26.746h47.075v-26.746zM412.066 480.185l.362-33.457h26.578c-10.438 8.605-20.146 19.032-26.94 33.457zm191.408 0l-.356-33.457h-26.13c10.264 8.605 19.807 19.032 26.486 33.457zM362.636 566.87h31.407v39.092h-31.407V566.87z"/><path d="M382.716 583.073h11.07v6.43h-11.07v-6.43zm-19.306 0h10.81v6.43h-10.81v-6.43zm10.81-15.688h8.496v15.946h-8.495v-15.944zm0 21.86h8.496v16.974h-8.495v-16.976zm247.91-22.632h31.407v39.092H622.13v-39.092z"/><path d="M642.21 582.815h11.07v6.43h-11.07v-6.43zm-19.308 0h10.812v6.43h-10.812v-6.43z"/><path d="M633.714 567.128h8.495v15.946h-8.497v-15.946zm0 21.86h8.495v16.974h-8.497v-16.974zM362.55 493.924c.262 7.156 8.375 3.964 8.375.362 0-11.04.145-22.976-.296-30.79-.055-5.762 13.74-4.32 13.66-.77.052 9.322.157 22.106.21 33.015-.1 5.315 8.91 4.854 8.785 0-.053-12.184-.06-29.894 0-38.86.08-11.547-30.347-11.297-30.584-.256.014 9.065-.164 25.293-.15 37.302zm260.524 1.286c.263 7.156 8.376 3.964 8.376.362 0-11.04.145-22.976-.296-30.79-.053-5.762 13.74-4.32 13.66-.77.054 9.322.16 22.106.212 33.015-.1 5.313 8.646 4.852 8.527 0-.053-12.443.198-29.896.257-38.862.08-11.547-30.347-11.297-30.584-.256.013 9.063-.165 25.29-.152 37.3z"/><path d="M488.53 620.367l8.494 25.458h19.302l-15.44-25.465-12.356.007zm-10.808 25.458l4.89 25.2 22.65.257-8.238-25.465-19.302.007zm38.354.256l15.704 24.947h32.18l-25.227-25.208-22.657.262zm-189.99 57.094c17.075-15.86 27.976-29.402 28.062-48.862h41.7c.087 10.89 4.034 17.4 10.044 16.974l42.222-.256-.257-24.945H417.22l-.007-136.055c-1.114-48.093 58.526-76.124 82.902-75.868l-144.94-.256v-4.372H659.98l.258 4.372-146.996.256c43.593.086 85.637 41.325 85.986 76.13v38.574h-5.667l-.255-38.06c0-38.065-47.988-73.642-86.5-72.53-33.3.956-84.95 32.668-84.437 72.274v11.83l79.033.514-.77 13.628 12.41 7.914 24.75 7.88-.36 20.442 17.726 5.22.152 20.423 21.266 9.118v21.14l13.49 8.302-.62 21.467 18.28 12.857h-43.25l27.033 30.093h-39.902l-19.83-30.093H505.52l11.842 29.83-28.054-.256-6.702-29.573H448.37l.258 31.884-122.54.005zm122.285-82.557v25.2h29.354l-5.93-25.2H448.37z"/><path d="M449.92 576.122h18.278v41.92H449.92v-41.92z"/><path d="M424.1 620.995h17.84l-.113-30.844c-.23-13.406 11.815-26.92 17.582-27.37 6.39-.24 15.814 12.655 16.13 26.317l.257 31.998 18.927-.04v-79.42l-70.625.377v78.983zm73.716.128l22.65.77 40.417 35.75v-21.088l-13.642-9.77v-16.722l-19.82-11.31v-18.005l-19.31-6.426v-24.438l-9.787-7.972-.507 79.212zm95.746-52.2h5.407v38.835h-5.41v-38.834zM199.446 175.567c1.964 30.68-7.565 47.52-23.83 44.958-4.48-17.02 5.714-28.434 23.83-44.958zm-35.706 67.98c-14.458-7.348-4.026-63.446 1.523-86.96 4.105 30.29 10.972 73.344-1.522 86.96z"/><path d="M168.913 246.178c24.303 8.446 43.546-17.703 50.05-47.987-20.06 27.66-52.705 27.69-50.05 47.99zm-18.45 28.316c-19.004-5.017-7.557-64.532-4.104-88.337 4.176 24.59 17.277 80.193 4.103 88.337zm6.485-1.836c1.06-20.527 21.543-14.596 35.678-25.55-2.306 10.256-11 28.433-35.678 25.55zm-23.275 27.482c-18.834-5.074-7.512-69.126-8.58-95.5 5.522 22.787 23.006 89.326 8.58 95.5zm8.817-2.76c15.427 5.01 35.862-5.003 37.47-23.357-13.284 9.006-34.497 2.12-37.47 23.358z"/><path d="M119.613 328.414c-18.01 1.435-9.95-53.115-9.937-103.92 6.616 47.486 24.64 90.957 9.937 103.92z"/><path d="M125.86 325.947c12.165 6.096 33.958-3.647 40.18-24.175-21.978 9.546-36.675.218-40.18 24.175zm141.405-121.993c-3.202 26.61-14.09 42.094-30.354 39.534-4.48-17.02 8.707-27.894 30.356-39.534zm-43.025 68.324c27.018 3.832 36.75-16.887 54.94-43.372-25.49 18.428-55.968 22.26-54.94 43.372z"/><path d="M216.548 269.204c-14.728-17.657-.494-39.83 10.762-58.732-2.42 28.118 7.17 43.76-10.762 58.732zm-6.53 29.17c-1.66-17.267 27.79-21.106 41.108-30.704-4.482 9.98-11.27 36.848-41.108 30.705z"/><path d="M203.87 298.764c-20.364-2.304-11.91-36.848 2.687-56.045-6.148 26.49 10.755 44.91-2.688 56.043z"/><path d="M188.502 327.547c-23.177-10.238-8.323-39.277.39-56.42-3.717 22.515 14.853 39.66-.39 56.42z"/><path d="M193.114 324.86c12.165 15.867 35.862-4.732 40.726-28.79-20.62 17.15-35.856 14.333-40.726 28.79zm599.748-52.963c-.89-26.104-29.068-20.35-53.4-41.845 6.663 22.647 30.223 50.284 53.4 41.845z"/><path d="M805.93 298.375c-26.637 2.048-31.375-11.258-41.88-28.4 18.188 11.77 42.518 4.35 41.88 28.4z"/><path d="M823.604 326.777c-26.637 6.268-35.217-7.802-41.88-31.47 21.642 19.83 33.682 10.488 41.88 31.47zm-72.62-120.142c3.077 13.825 3.85 41.08 28.435 35.703 3.583-25.333-17.038-26.486-28.438-35.703zm47.644 62.187c16.52-11.39 3.842-36.21-11.526-57.96 5.766 23.674-6.913 45.418 11.526 57.96zm13.84 30.323c-12.687-10.37 3.07-32.628-2.307-54.887 9.99 14.07 25.36 47.724 2.308 54.887z"/><path d="M827.446 326.394c18.57-.256 10.248-36.973.764-53.734 2.564 20.218-13.7 43.497-.764 53.734zM816.11 175.777c3.335 15.366-3.103 45.71 21.484 45.472 10.28-17.363-11.632-33.69-21.483-45.474z"/><path d="M853.015 244.29c15.493-10.613 1.53-45.465-3.288-84.704-3.756 34.99-12.06 73.196 3.288 84.704z"/><path d="M844.68 246.995c1.943-19.158-28.292-23.43-49.017-48.783 5.37 20.33 20.693 50.028 49.016 48.783zm20.703 29.83c-16.29-14.74 3.065-57.06 3.868-89.865 2.526 30.27 15.838 84.5-3.866 89.865zm-9.265-4.25c-23.81 1.528-30.09-15.893-32.87-25.833 12.783 9.204 32.995 4.865 32.87 25.833zm23.88 26.272c18.306-.77 11.53-70.147 8.994-92.05-1.812 23.305-20.903 83.617-8.995 92.05zm-8.004-1.252c-15.823 2.41-31.87-6.775-36.212-22.47 13.66 5.94 36.25 1.232 36.212 22.47z"/><path d="M894.724 327.643c19.598 7.972 12.567-82.49 10.03-103.368-1.812 26.65-25.022 92.103-10.03 103.368z"/><path d="M890.14 327.654c-19.692 2.923-34.19-9.085-39.824-25.55 20.1 7.484 35.745 4.825 39.823 25.55zm-14.218 107.302c2.425-23.628-15.69-66.592-2.834-89.496 1.753-3.146-3.85-11.5-7.466-6.432-5.654 8.09-11.466 31.146-13.898 22.634-2.577-9.257-2.972-25.63-11.328-28.81-5.33-1.862-12.87-3.08-10.814 5.15 2.043 7.913 6.616 18.84 1.55 19.545-2.94.428-11.408-10.77-18.538-15.945-5.746-4.615-14.32 2.607-5.918 9.513 27.31 22.246 53.768 32.26 69.248 83.84z"/><path d="M944.505 419.182c6.67-6.99 4.742-9.665-5.122-9.777-7.825-.494-23.328 4.813-29.212.514-5.39-3.933-3.244-20.6-5.64-28.29-1.04-4.287-4.032-11.015-10.754-.515-19.886 31.99-44.723 70.39-55.34 108.015-5.805 21.088-2.906 55.032 19.47 73.038l15.886-46.295c7.55-22.008 48.187-74.82 70.715-96.692zm22.29-57.527c-8.96 28.79-14.345 52.385-1.41 55.163 13.827-2.396 7.817-30.212 1.41-55.163zm-.933 80.782c14.74 7.82 30.63-29.718 27.33-59.284-7.428 25.34-32.43 40.99-27.33 59.284z"/><path d="M960.43 441.704c2.286-20.468-6.128-19.928-17.153-39.488 1.167 22.094 6.676 40.62 17.153 39.488zm4.845 29.962c17.206 4.88 36.924-36.045 36.186-66.29-7.16 33.478-44.506 46.855-36.184 66.29z"/><path d="M959.634 470.96c6.9-15.86-7.176-13.924-16.515-42.345-3.093 29.415 1.395 42.84 16.513 42.345zm4.992 30.846c22.326 3.838 33.84-45.406 44.93-68.988-21.958 30.916-48.265 48.132-44.93 68.988z"/><path d="M959.44 500.106c6.523-18.157-11.922-17.143-21.636-44.28 1.542 34.417 6.016 46.833 21.635 44.28zm6.42 31.27c14.115 1.02 39.5-38.363 40.047-62.69-12.06 26.79-49.912 44.538-40.048 62.69z"/><path d="M955.416 526.812c5.872-18.94-10.524-19.065-17.8-40.284-.514 31.99 4.482 42.84 17.8 40.284zm.51 34.168c24.896 4.353 31.27-28.433 45.957-61.785-14.492 26.545-47.23 41.443-45.958 61.786z"/><path d="M954.13 556.435c8.072-17.13-10.63-17.143-20.608-42.74-.514 36.216 5.76 46.834 20.607 42.74zm-90.423 31.535c-21.866.106-26.137-30.857-26.137-39.087 10.763 2.054 30.242 21.6 26.137 39.087zM907.37 447.3c-8.963 28.79-12.548 42.61-.383 51.82 15.882-8.83 6.788-26.867.382-51.82zm-4.996 75.23c6.662-21.24-9.734-26.354-18.44-50.284-.895 31.607 3.586 54.76 18.44 50.284z"/><path d="M908.907 527.134c11.658 4.477 25.998-22.515 18.063-49.515-8.198 24.31-28.31 30.19-18.063 49.513zm-12.295 24.18c11.276-17.4-6.662-18.295-15.743-42.6-.516 31.99 2.423 45.156 15.74 42.6z"/><path d="M896.61 581.25c8.586-19.697-10.117-17.142-21.122-41.45-.514 36.217 5.503 44.005 21.12 41.45zm8.453-28.78c9.74.25 28.686-16.762 23.058-38-8.196 17.788-31.38 15.99-23.056 38z"/><path d="M902.374 578.18c15.89 3.326 27.922-20.974 26.136-37.61-12.43 15.484-29.47 16.754-26.136 37.61z"/><path d="M1001.892 537.48c1.948-2.534 7.542.067 6.145 6.176-1.298 8.27-13.445 50.72-34.32 65.32-14.89 10.772-93.14 28.12-128.614 35.486-19.524 3.944-35.875 13.72-48.684 29.323 5.297-20.402 9.554-35.518 16.394-54.004 6.65-16.246 24.273-34.02 42.525-34.976 33.9-1.224 77.777-4.12 109.66-18.005 16.454-6.9 26.304-16.22 36.89-29.317z"/><path d="M953.993 637.668c3.58-14.3-.982-18.902 2.926-41.292-21.485 28.783-13.406 42.424-2.928 41.292z"/><path d="M956.335 641.227c14.227 3.964 51.224-28.428 52.305-52.595-10.003 17.367-59.975 36.104-52.305 52.595zM933.12 662.55c9.734-5.313 6.985-27.81-1.838-35.4-1.805 21.957-15.078 34.867 1.838 35.4z"/><path d="M943.136 668.656c17.206 5.392 36.667-25.754 50.86-39.283-16.177 13.93-65.1 20.62-50.86 39.283zm-23.66 15.5c12.048-7.888.805-23.445-.04-54.176-12.1 22.213-14.563 52.608.04 54.175z"/><path d="M921.767 692.06c6.142 8.224 51.6-20.098 62.96-41.086-38.827 28.85-73.082 24.998-62.96 41.087zm-4.547 25.608c11.157-8.124-9.602-29.488-13.91-58.165.256 34.932-4.535 61.49 13.91 58.165z"/><path d="M929.362 708.05c5.595 8.987 40.278-14.798 55.23-40.69-22.99 20.11-61.655 25.497-55.23 40.69zm-35.472 39.154c12.568-2.225 10.84-33.977 1.253-59.83-10.814 31.22-15.6 62.9-1.252 59.83z"/><path d="M925.442 729.91c4.336 5.135 55.46-30.653 54.723-45.202-16.178 23.187-70.25 27.822-54.723 45.202zm-59.35 46.92c17.338-7.103 9.187-35.15 12.6-65.374-13.648 29.533-29.767 59.18-12.6 65.374z"/><path d="M898.517 752.57c2.76 9.5 44.397-8.118 64.496-37.1-24.277 18.83-71.43 21.39-64.496 37.1z"/><path d="M871.643 781.345c8.97 14.905 60.608-12.39 68.107-38-16.692 22.16-74.368 18.816-68.107 38z"/><path d="M895.325 792.917c9.483 1.02 31.52-17.02 37.727-26.426-17.72 8.785-41.675 20.88-37.727 26.428zm-77.79-110.825c11.28 1.633 26.036-19.06 16.184-40.028-4.9 20.928-37.736 36.157-16.187 40.028zm24.175-12.407c8.713 4.88 30.75-18.552 27.95-33.885-12.317 19.592-37.043 25.247-27.95 33.885z"/><path d="M815.967 704.15c8.46 8.223 50.058-33.99 62.447-53.175-35.994 30.646-72.826 38.368-62.447 53.175zm-9.91 25.245c6.623 10.013 34.353-20.198 51.883-45.32-22.222 21.908-59.856 31.928-51.883 45.32z"/><path d="M808.845 705.324c6.78-17.894-4.455-20.745-9.536-42.99-10.038 12.298-8.91 46.315 9.534 42.99zm-11.07 24.688c13.478-3.752-8.316-26.656-12.882-42.99-2.056 30.047-1.7 45.03 12.883 42.99zm-13.125 21.604c12.442-4.523-7.03-15.86-9.02-40.936-6.182 9.217-9.424 44.26 9.02 40.936z"/><path d="M766.054 756.934c7.927-4.286 4.665-24.727-7.506-27.427-2.834 16.038-2.465 27.663 7.506 27.427z"/><path d="M923.06 793.544c3.13-.603 7.422-1.672 3.518 3.217-31.177 38.557-40.198 49.18-85.662 43.757-45.922-6.068-56.86-18.537-89.013-36.65-17.175-10.113-42.288-12.36-61.32-6.092-8.863 2.912-14.223 3.088-7.872-3.297 6.357-6.376 13.864-15.052 21.68-21.026 17.118-13.193 46.154-18.914 69.85-14.666 33.513 5.276 61.204 26.696 94.295 34.787 17.387 3.985 36.458 3.384 54.525-.025zm-262.58 67.82c-5.756.723-9.403 11.994-12.237 4.364-4.806-12.357-1.44-22.187 3.96-21.1 6.376 1.718 17.16 16.17 8.278 16.735z"/><path d="M723.52 811.094c16.296 4.234 20.53-14.53 22.127-28.166-14.692 3.163-30.09 11.668-22.126 28.166zm-6.51 16.648c2.87 12.982 34.754-.4 40.95-18.58-22.667 13.21-45.028-1.182-40.95 18.58z"/><path d="M705.598 827.097c14.563 2.408 6.456-20.388 5.616-42.878-8.155 18.335-19.798 40.924-5.616 42.876zm-18.393 21.57c15.857 1.98 5.796-28.57 1.487-49.1-5.206 19.026-16.673 47.427-1.487 49.1z"/><path d="M696.592 849.367c1.927 17.284 34.712-2.07 53.79-12.692-25.2 3.903-56.62-4.268-53.79 12.692zm-18.02 24.173c1.928 17.285 34.713-2.07 53.79-12.69-25.2 3.902-56.62-4.27-53.79 12.69z"/><path d="M670.213 872.845c15.083.436 3.996-32.427-.314-52.96-5.208 19.028-15.13 52.317.312 52.96zm-13.008 21.01c1.927 17.284 31.885.248 50.445-11.66-25.458 5.443-53.275-5.3-50.445 11.66zm168.567-28.98c8.97 14.897 42.07-10.85 60.127-24.117-25.96 8.012-66.39 4.93-60.13 24.116z"/><path d="M791.992 880.36c3.227 17.09 59.078 2.988 67.036-9.68-25.677 10.87-70.1-5.08-67.036 9.68z"/><path d="M765.687 893.41c1.683 9.37 44.41 5.815 66.01-1.454-23.362 2.903-70.356-13.565-66.01 1.454z"/><path d="M743.372 904.578c.14 8.603 49.813 13.53 66.525-.42-33.398 4.952-69.843-20.255-66.525.42z"/><path d="M704.11 912.618c-1.923 11.947 52.124 9.415 69.095 3.43-29.017-2.236-66.493-21.022-69.096-3.43z"/><path d="M703.28 901.746c12.185 11.165 43.51-38.708 53.707-60.678-24.104 25.11-67.604 50.915-53.707 60.678z"/><path d="M738.83 893.32c14.5 9.622 27.81-25.586 35.172-51.42-13.806 22.28-49.063 36.77-35.172 51.42z"/><path d="M766.877 883.65c14.5 9.622 22.666-22.243 26.168-42.166-9.945 17.142-40.06 27.518-26.168 42.166z"/><path d="M794.022 866.7c14.5 9.623 32.704-17.098 28.485-43.446-5.566 27.17-42.376 28.8-28.485 43.447zm-55.044 74.988c7.143 18.17 82.263-15.886 94.856-38.606-24.133 20.376-101.848 17.604-94.856 38.606zM140.144 436.5c-2.38-23.63 15.407-66.593 2.782-89.497-1.72-3.146 3.78-11.5 7.33-6.432 5.552 8.093 11.26 31.148 13.648 22.636 2.53-9.257 2.918-25.63 11.123-28.81 5.235-1.862 12.637-3.08 10.618 5.15-2.006 7.913-6.496 18.84-1.52 19.545 2.885.43 11.2-10.77 18.2-15.944 5.643-4.615 14.062 2.607 5.812 9.513-26.814 22.245-52.794 32.26-67.993 83.84zM91.972 792.09c-3.146-.604-7.457-1.673-3.535 3.216 31.327 38.555 40.39 49.18 86.073 43.755 46.143-6.066 57.13-18.535 89.44-36.65 17.256-10.11 42.49-12.357 61.615-6.09 8.904 2.91 14.29 3.088 7.91-3.297-6.387-6.376-13.93-15.052-21.783-21.026-17.2-13.194-46.375-18.915-70.186-14.667-33.674 5.275-61.498 26.695-94.747 34.786-17.47 3.984-36.635 3.383-54.79-.026zM355.617 861c5.826.724 9.516 11.995 12.382 4.365 4.862-12.357 1.454-22.187-4.01-21.1-6.45 1.718-17.364 16.17-8.375 16.735z"/><path d="M342.632 871.504c15.625 3.553 15.41-34.047-.55-49.985 7.028 24.15-11.742 46.226.55 49.983zm-6.06-.337c1.03 17.87-43.903-2.335-55.45-16.236 26.55 11.27 54.14 1.943 55.45 16.238zm-19.695-25.507c1.607 17.313-38.966 2.092-50.96-11.428 26.645 8.598 49.187-2.816 50.96 11.43zm7.478 2.442c15.625 3.553 13.094-35.335-2.093-48.7 7.288 25.952-10.2 44.942 2.093 48.7zm-16.475-23.66c15.626 3.553 6.66-29.93-4.923-43.302 1.88 24.412-5.82 41.344 4.924 43.302zm-8.252-.13c1.61 17.828-29.955 4.14-42.205-12.722 26.384 8.603 40.433-1.522 42.205 12.723zm-8.598-13.518c10.237-7.354-.623-26.8-20.107-25.597 1.906 11.745 8.638 32.403 20.107 25.597zm76.96 80.6c1.03 17.87-43.908 8.98-58.025-10.06 28.347 5.35 56.716-4.236 58.025 10.06zM152.797 585.915c21.97.106 25.747-29.316 25.747-37.546-10.814 2.054-29.866 20.06-25.747 37.546zm36.68 273.528c1.61 17.827-47.455-1.777-59.706-18.642 26.386 8.603 57.934 4.397 59.707 18.642zm30.07 7.614c10.238-7.354-10.66-26.288-27.31-30.74 1.906 11.745 15.84 37.547 27.31 30.74zm3.135 12.332c1.096 16.028-52.61 7.237-66.66-7.572 46.212 8.345 65.147-6.156 66.66 7.572z"/><path d="M247.818 890.083c5.96 14.888-45.588 11.255-63.685 2.6 29.243-.255 59.586-12.97 63.685-2.6z"/><path d="M271.932 900.95c5.706 13.343-41.982 13.055-65.225 5.68 30.788-.253 59.582-18.88 65.225-5.68zm34.674 7.166c8.445 15.786-41.857 17.324-58.18 9.55 29.084-3.996 50.983-21.975 58.18-9.55zM247.7 881.1c-16.003 10.082-15.145-19.642-27.874-40.227 20 18.195 38.72 30.614 27.875 40.227z"/><path d="M276.078 891.783c-13.424 11.88-24.156-28.91-36.374-51.797 19.75 21.79 48.76 41.93 36.374 51.797zm37.482 11.363c-11.37 13.165-44.24-38.676-56.195-65.687 18.2 21.023 65.236 54.53 56.194 65.685zm-300.8-367.12c-1.957-2.535-7.578.066-6.175 6.175 1.305 8.27 13.51 50.72 34.485 65.323 14.96 10.77 93.584 28.118 129.23 35.485 19.618 3.944 36.047 13.72 48.917 29.323-5.325-20.4-9.602-35.517-16.475-54.003-6.682-16.248-24.39-34.023-42.73-34.978-34.063-1.225-78.15-4.12-110.183-18.006-16.537-6.9-26.434-16.22-37.07-29.316z"/><path d="M208 704.03c10.74 7.9 22.594-20.413 8.95-47.328-.428 25.908-21.04 34.603-8.95 47.327z"/><path d="M218.297 730c14.854 4.557 19.505-21.696 9.723-42.694 1.632 22.56-23.353 36.15-9.723 42.695z"/><path d="M229.616 750.824c14.345 7.135 19.775-19.387 9.465-39.082 1.127 25.126-20.52 32.533-9.463 39.082z"/><path d="M223.718 752.445c-5.684 16.975-38.652-14.634-44.208-31.824 20.462 20.31 48.305 18.067 44.208 31.826z"/><path d="M208.787 726.472c-6.46 16.972-47.917-26.726-57.08-47.767 20.462 20.31 61.696 35.807 57.08 47.767z"/><path d="M200.55 701.008c-6.458 19.29-51.525-32.123-64.288-50.343 21.496 20.053 69.156 36.327 64.288 50.343zm-1.433-19.05c15.868-3.084-.9-16.286-20.35-37.744-.91 22.594 2.8 38.39 20.35 37.744z"/><path d="M172.347 669.097c6.852-7.455-6.567-10.63-23.186-29.26-2.45 12.564 15.416 35.565 23.188 29.26zm76.83 83.783c8.685 5.076 14.628-12.7 3.806-28.795-2.476 17.41-11.767 22.247-3.805 28.795zM60.533 640.707c-18.438 11.044-47.726-33.02-55.536-51.15 16.178 20.807 59.018 39.812 55.536 51.15z"/><path d="M76.233 666.42c-10.203 11.3-42.317-19.39-53.477-34.945 17.213 14.89 57.988 16.663 53.477 34.946z"/><path d="M93.715 689.436c-3.367 15.436-50.232-19.262-61.19-35.687 20.205 19.02 64.26 17.3 61.19 35.685z"/><path d="M86.51 706.146c-7.23 13.898-45.348-20.537-54.498-38.504 23.29 20.304 60.398 24.758 54.498 38.504zM66.927 638.44c12.028-12.67 6.905-18.607-1.864-38.574-4.793 20.503-12.022 28.687 1.864 38.573zm15.957 23.92c21.814.96.21-25.558-4.948-47.83 1.897 25.384-5.59 45.396 4.948 47.83z"/><path d="M96.79 683.45c15.118-3.412 10.757-24.782-.83-50.662 2.407 27.962-12.8 44.117.83 50.663zm-5.132 42.25c-5.684 16.974-48.69-22.35-55.53-37.23 21.748 18.252 59.37 24.5 55.53 37.23z"/><path d="M117.396 752.184c-6.453 16.984-51.518-17.453-65.307-36.195 27.15 21.34 68.64 19.356 65.305 36.193z"/><path d="M143.655 778.93c-7.224 23.664-54.352-14.112-68.4-32.594 29.986 22.876 72.24 15.755 68.4 32.595zm-44.29-60.76c12.8 6.617 17.97-29.67 10.75-55.29.096 27.96-25.67 48.745-10.75 55.29z"/><path d="M121.244 746.97c15.377 4.562 10.503-34.55-2.637-59.92-1.703 25.136-13.053 49.005 2.637 59.92zm27.286 27.003c17.178.96 5.358-33.528-8.813-52.978 2.412 25.388-5.587 50.033 8.812 52.978zm-30.1 14.73c-5.165 8.743-17.797-7.426-38.54-19.225 18.656 4.874 40.833 11.124 38.54 19.225zm-9.86-290.677c16.035-11.85 3.803-34.017 0-55.097-5.16 19.992-18.74 46.23 0 55.095zm-.538 29.58c-24.087-2.89-20.462-34.01-21.187-53.735 7.242 26.777 26.986 31.3 21.187 53.736zm3.802-4.07c20.377-1.18 19.296-24.34 20.383-47.77-10.326 21.536-22.557 24.88-20.383 47.77z"/><path d="M111.023 552.307c-15.85 1.264-24.087-14.293-27.71-38.54 15.03 22.344 28.705 15.38 27.71 38.54zm5.7-1.897c20.377 2.622 17.12-21.08 16.304-38.546-6.247 16.65-22.82 21.896-16.304 38.547z"/><path d="M84.94 540.365c1.628 15.47 11.414 42.068 27.17 36.097 6.517-19-13.86-22.8-27.17-36.097z"/><path d="M117 578.094c-7.064-13.57 16.027-20.363 20.916-38 2.807 25.24.455 41.8-20.916 38zM51.275 417.29c12.686-13.647 1.483-35.3-2.32-56.38-5.16 19.994-14.103 46.486 2.32 56.38zm-.402 25.406c-22.28 2.258-27.67-43.01-29.94-62.477 7.243 26.773 32.904 39.012 29.94 62.475zm4.587-.408c15.742-8.124 12.085-25.623 17.035-38.77-10.584 16.136-20.238 18.447-17.036 38.77z"/><path d="M51.083 471.895c-23.308 1.995-37.194-48.158-37.92-67.883 7.243 26.775 40.634 41.33 37.92 67.883zm4.423-.73c21.918-5.037 19.296-19.197 16.007-42.114-6.978 23.084-19.21 18.19-16.007 42.116z"/><path d="M50.774 500.857c-25.63 4.345-23.83-36.157-44.18-65.538 17.603 21.823 49.294 49.32 44.18 65.536zm5.792-1.382c19.348.56 21.24-28.54 20.165-40.344-4.447 11.76-27.195 22.925-20.163 40.346z"/><path d="M10.733 469.638c9.608 31.16 23.256 62.385 40.04 60.015 8.06-17.716-15.92-19.974-40.04-60.015z"/><path d="M56.843 525.116c-7.064-13.57 16.027-20.363 20.916-38 2.805 25.24.453 41.8-20.918 38zM17.35 505.244c13.72 28.072 19.908 60.33 38.748 55.644 7.03-21.83-20.805-26.4-38.75-55.644z"/><path d="M60.007 555.58c-8.092-14.85 15-20.105 20.66-40.573 3.065 26.788.198 45.913-20.66 40.574zm39.505-190.01c13.523 3.653 27.704-11.514 22.79-34.215-15.455 3.845-22.545 17.86-22.79 34.215zM56.25 354.21c1.18 6.385 8.954 6.964 6.694-2.055-1.885-7.32-2.207-12.824 0-18.776 3.025-7.46 2.017-20.16-.257-25.46-2.293-5.596-9.89-2.317-6.695 2.06 3.52 5.076 3.703 15.636 1.285 20.568-3.183 7.28-2.32 16.945-1.028 23.66zm46.74-24.28c-1.283 9.975-9.733 10.88-7.277-3.207 2.048-11.434 2.4-20.03 0-29.325-3.287-11.65-2.19-31.484.28-39.762 2.49-8.74 10.748-3.62 7.275 3.218-3.824 7.927-4.025 24.42-1.396 32.122 3.46 11.372 2.52 26.467 1.117 36.955zm62.97 99.667c-5.223 7.678-13.55 3.22-8.833-9.105 3.984-8.534 4.412-19.11 8.85-25.35 6.206-9.46 16.718-17.344 22.686-23.065 6.165-6.095 11.283-.222 5.63 5.002-6.866 6.86-14.313 15.403-18.453 21.872-7.72 12.57-4.32 22.597-9.88 30.644zm-86.8-39.737c-.62 10.837 8.11 13.464 7.723-2.254-.395-16.41-12.02-31.423-4.89-56.403 3.75-12.22 3.816-34.616 1.542-46.52-1.997-11.805-10.405-4.09-7.21 5.102 3.52 10.66-.658 31.105-3.347 41.39-8.073 29.944 6.656 44.528 6.18 58.685zm50.5 279.693c13.458 6.61 23.673 23.12 24.344 36.57 1.14 15.48 3.374 28.547 10.333 39.548-11.078-3.08-16.383-20.716-17.958-37.61-1.597-17.486-11.027-25.07-16.72-38.507zm28.034 32.37c9.312 17.17 22.333 23.72 23 36.463 1.127 14.664 2.242 15.413 6.22 29.834-10.96-2.92-13.72-3.874-16.68-25.817-1.826-15.42-14.182-26.297-12.54-40.48zm508.186 287.5c.258 6.51 1.036 11.746 4.898 16.974-22.485-9-54.23-4.18-75.943 5.92-9.687 4.62-21.404-5.28-10.043-14.662 16.158-13.082 53.543-5.662 81.09-8.23zm-317.214-.34c19.612-.2 51.936.09 60.33.21 12.614.18 22.585 8.36 27.738 15.813 3 4.2 1.628 16.34-15.348 9.33-24.693-9.948-50.934-18.35-75.376-8.237 2.26-5.36 2.972-10.983 2.655-17.12zM369.3 869.814c-6.822-2.936-14.742-.112-21.846 7.36-23.87 23.365-51.876 46.132-74.48 63.84-8.435 7.322-17.054 20.455 18.927 33.583 1.307.494 27.535 10.205 44.155 10.823 6.788-.19 6.768 9.936 5.51 12.636-2.867 5.392-.79 7.452-6.583 12.64-6.035 5.09.647 11.68 5.392 7.203 20.258-17.57 53.108-6.328 84.766 3.956 7.48 2.068 21.167 1.488 21.048-8.822.132-11.232 8.277-19.17 13.26-19.46 12.922 2.238 76.78 2.95 96.45.56 11.466-1.488 12.16 15.695 18.294 22.47 4.23 4.49 20.514 5.68 31.678.756 22.07-10.245 55.7-10.245 69.405-.455 5.634 4.286 10.083.81 6.88-3.542-4.125-5.952-4.033-8.71-6.082-13.41-5.145-10.46-1.04-13.022 4.357-13.78 60.977-7.853 80.437-28.637 61.794-45.583-24.072-21.093-50.874-42.3-73.965-67.224-6.26-6.61-10.4-9.263-23.428-3.85-39.836 18.123-90.402 31.337-139.886 32.304-46.044.395-109.354-20.882-135.64-32.002zm422.13-115.96c2.762 9.5 40.793-7.86 60.122-45.84-25.312 27.57-66.282 27.3-60.12 45.84z"/><path d="M854.792 696.116c-11.58 16.08-27.038 27.72-27.734 40.463-1.182 14.662-2.35 15.41-6.516 29.832 11.483-2.92 14.372-3.874 17.474-25.817 1.913-15.42 18.498-30.295 16.777-44.48z"/><path d="M873.605 673.926c-14.097 6.61-17.3 17.558-17.86 31.113-.275 15.693-4.258 27.82-11.55 38.82 14.52 2.01 17.163-20.717 18.813-37.61 1.67-17.487 4.632-18.89 10.597-32.326zm39.378-344.718c1.26 9.974 9.58 10.878 7.16-3.208-2.015-11.434-2.36-20.03 0-29.325 3.236-11.65 2.158-31.484-.273-39.762-2.453-8.74-10.58-3.62-7.16 3.218 3.763 7.93 3.96 24.42 1.373 32.124-3.405 11.372-2.48 26.467-1.1 36.955zm23.453 59.928c.61 10.838-7.984 13.465-7.602-2.253.39-16.41 11.83-31.423 4.813-56.403-3.69-12.22-3.755-34.616-1.518-46.52 1.963-11.805 10.24-4.09 7.094 5.102-3.464 10.66.65 31.105 3.295 41.39 7.944 29.944-6.55 44.528-6.085 58.685zm22.55-35.654c-1.16 6.386-8.814 6.965-6.59-2.054 1.856-7.32 2.173-12.824 0-18.776-2.976-7.46-1.984-20.16.253-25.458 2.255-5.596 9.734-2.317 6.59 2.06-3.466 5.076-3.647 15.636-1.266 20.568 3.132 7.282 2.283 16.946 1.012 23.66zm-46.873 12.48c-11.252 4.773-25.794-27.176-15.045-33.17 8.333-2.094 27.41 27.094 15.045 33.17zm-63.11 63.232c5.04 7.678 13.077 3.22 8.524-9.105-3.844-8.536-4.257-19.11-8.538-25.35-5.99-9.46-16.134-17.346-21.89-23.067-5.95-6.095-10.89-.222-5.434 5.002 6.624 6.863 13.81 15.405 17.805 21.874 7.45 12.57 4.17 22.596 9.534 30.643zm-13.897 8.228c5.04 7.678 15.336 2.982 7.493-7.563-6.43-8.536-15.59-15.51-16.264-24.324-.534-11.18-6.872-28.14-12.63-33.862-5.95-6.095-12.82 2.48-6.462 6.543 7.146 4.806 11.788 24.56 11.632 32.162.24 11.03 10.865 18.994 16.228 27.043zM392.728 794.228c15.275 12.18 29.674 26.005 33.984 43.207 4.495 16.025 7.21 28.29 17.51 44.235-16.132-10.29-22.538-25.833-27.29-42.7-4.17-16.57-13.732-28.96-24.204-44.742zm223.287-139.943l46.084.007c.17 17.4 10.377 36.09 24.71 46.802h-88.305c13.82-12.515 17.595-27.348 17.51-46.808zM341.338 41.045c-.375-7.597 11.414-8.18 10.063 2.27-1.724 13.02 24.596 45.973 26.777 66.293 1.463 13.627-8.013 25.555-17.398 32.978-11.507 8.904-29.2 7.68-37.478 2.572-5.008-4.028-9.574-17.82-5.825-23.278 1.324-1.837 7.322 20.242 20.528 20.155 17.97-.116 32.528-13.602 33.062-25.63.923-20.95-29.398-54.06-29.727-75.36zm52.595 51.738c2.972-2.122 7.717 7.142 4.37 9.456-2.788 1.852-8.232-6.887-4.37-9.458zm7.967-18.79c-1.503.73-4.488-.305-3.6-1.58 4.205-6 13.168-15.033 19.665-18.185 1.997-.97 5.49 2.552 4.283 4.277-3.888 5.55-13.35 12.096-20.35 15.49zm69.48-55.063c1.667-3.478 11.677-7.41 14.226-9.76 2.36-2.412 3.486 2.043 2.478 4.145-1.668 3.475-10.307 9.344-14.096 9.5-2.037.085-3.617-1.786-2.61-3.887zm23.768 1.11c2.168-6.104 9.16-15.355 13.97-18.4 2.472-1.563 6.908-.334 6.077 2.005-1.838 5.178-10.392 14.225-16.145 18.487-1.746 1.553-4.402-.68-3.9-2.094zM474.76 35.315c-1.45.724-.667 3.81.73 4.276 2.972.99 8.383 1.184 10.833-.17 3.56-2.19 1.937-15.672-2.827-8.47-3.196 4.444-5.53 3.017-8.74 4.366zM434.54 66.25c-7.27-5.655 1.957-13.58 9.555-8.046 14.8 11.155-22.083 53.887-42.15 73.86-3.67 3.913-6.892-5.94-2.186-10.183 14.384-12.19 27.854-26.754 37.22-41.8 1.803-2.898 3.53-9.14-2.44-13.83zm84.253-36.755c.903-5.413-8.765.113-8.942-7.06-.09-3.798 10.566-6.463 15.02-2.095 7.526 7.627 1.9 20.49-10.616 21.302-10.432.46-27.836 14.797-25.187 17.81 3.012 3.722 30.063 6.18 45.794 3.72 9.74-1.366 7.698 7.337-2.28 8.514-9.64 1.11-17.496.08-26.504 2.91-10.603 3.027-15.23 17.245-21.12 22.55-1.312.923-4.85-4.66-3.507-6.76 4.243-6.63 11.01-16.78 18.46-19.685 4.696-1.9-12.958-2.5-18.59-4.105-4.47-1.345-3.17-7.018-1.458-10.184 2.274-4.932 18.915-21.58 25.623-21.31 6.3.268 12.686-1.564 13.31-5.604zm28.053 1.455c3.13-2.758 4.73-7.375 8.013-10.184 1.797-1.8 4.67.357 4.19 4.702-.403 3.422-5.003 6.37-8.093 8.942-2.518 1.883-5.444-2.184-4.112-3.46zm35.686-12.71c4.66-.515 5.82 8.47.724 9.925-3.09 1.03-5.793-9.396-.724-9.926zm-11.776 27.773c-.073 7.736 3.75 7.024 11.045 6.76 7.08-.266 13.307.183 13.28-6.804-.033-7.244-4.014-13.58-5.18-8.65-1.03 4.63-1.845 12.21-4.54 8.905-2.545-2.838-1.537-3.46-5.913 1.198-2.425 2.567-2.702-1.244-4.158-3.637-1.016-1.417-4.53 1.145-4.535 2.226zm-50.85 39.495c-1.74 10.238-.144 24.572 5.1 24.733 6.485.213 19.903-22.38 26.255-34.1 3.81-6.54 10.354-7.684 7.626-.86-4.132 10.528-3.763 33.05-.132 39.67 1.95 3.566 16.35-3.27 18.676-8.347 4.23-9.23.79-26.24 2.272-36.63.72-6.82 6.965-8.246 6.636-1.924-.62 11.31-1.693 32.045-.896 41.463.474 5.414 15.968 13.403 18.46-2.99 1.31-10.32 6.628-20.495-.258-31.927-4.27-7.148 6.267-6.252 11.948 3.513 3.974 6.644-3.348 17.642-3.09 26.143.658 13.078-9.523 20.508-16.91 20.663-6.604.133-10.907-7.97-16.318-8.083-6.003-.382-12.172 9.33-17.134 8.986-19.23-1.313-9.048-29.394-14.907-29.738-6.517-.382-14.2 27.523-22.228 26.527-7.915-.95-16.105-22.744-12.81-31.964 2.978-8.58 8.592-10.59 7.71-5.136z"/><path d="M613.03 41.222c-9.384-5.718.593-20.59 5.18-15.365 8.857 10.597 17.786 35.75 24.027 37.827 3.954 1.317 3.77-18.59 6.557-27.642 1.8-6.686 9.89-4.504 8.343 4.064-.527 2.86-10.57 35.387-9.8 36.674 6.96 13.898 13.845 28.003 18.2 42.92 1.8 6.43-5.93 2.1-6.853.763-4.936-7.37-13.576-35.557-13.576-34.27-3.974 19.827-4.91 25.68-9.127 42.53-1.283 5.4-9.237 4.416-7.444-5.092 1.726-7.814 13.1-46.25 12.462-47.363-8.942-15.77-17.12-28.244-27.968-35.043z"/><path d="M629.946 132.704c-2.617-.296-6.676 5.814 6.353 8.215 17.41 3.146 36.467-2.71 42.306-19.768 6.69-20.316 11.11-39.55 14.604-46.806 4.364-8.457 9.945-7.775 5.827-20.118-2.906-8.886-8.33-6.205-9.47-1.456-3.045 12.95-14.597 54.845-18.2 62.56-6.802 14.08-20.51 19.65-41.42 17.372z"/><path d="M664.814 65.868c-1.865-3.998-6.214-.903-5.437 3.468.46 3.952 3.67 6.1 6.893 5.99 3.816-.133 11.888.127 11.908-6.203.013-4.447-3.486-8.162-6.082-3.255-2.485 4.443-5.68 3.977-7.282 0zm4.37-16.73c-1.338.927-.14 5.872 1.456 5.82 5.687-.19 13.746-2.004 18.063-5.006 1.265-.878.738-3.867-1.06-3.806-5.484.183-14.21.04-18.46 2.99zm48.31 12.452c4.118-6.43 15.48-7.083 11.394 2.096-2.893 6.324-31.177 60.92-35.04 67.866-4.21 7.808-7.657 3.942-4.664-2.14 4.027-7.823 27.02-65.92 28.31-67.82z"/><path d="M674.923 142.852c-1.205-4.345-7.954-10.77-7.196.852 1.344 21.1 30.36 14.43 39.144 6.932 7.975-7.06 1.057 23.82 11.653 27.123 5.84 1.87 16.83-6.09 22.235-13.097 14.986-19.426 24.52-47.273 38.934-66.452 5.445-7.5-2.978-12.85-6.385-6.884-12.534 20.995-28.1 63.843-45.102 74.97-13.86 8.862-9.753-11.41-10.235-17.5-.607-4.467-6.056-11.04-13.325-5.006-5.08 3.967-12.976 7.193-20.126 6.547-4.146-.23-7.645-.158-9.596-7.487z"/><path d="M726.707 103.694c.152-1.19-6.135-1.73-5.826 4.365.22 4.51 5.623 5.736 6.55 5.09 8.503-6.176-1.803-3.097-.722-9.457zm-12.383 24.734c-1.674.39-3.21 5.73.73 6.032 3.605.256 17.728-1.257 21.63-1.03 2.523-.094 3.485-4.914-1.925-4.657-6.565.328-15.19-1.314-20.437-.345zm93.506-6.278c5.793-21.684 19.823 3.346 7.466 15.69-19.078 18.667-24.824 54.304-55.092 59.67-8.158 1.75-22.518-3.667-26.775-6.69-1.663-1.178 1.072-8.92 6.173-5.14 7.375 5.754 22.604 7.05 30.643.514 17.2-16.867 31.204-39.202 37.583-64.042zm-314.474 48.164c-1.364 1.567-5.535 1.31-5.912 3.51-1.64 8.156 0 12.29-1.8 20.144-1.72 7.518-6.945 7.802-6.59 1.673.475-7.944 7.032-19.162 2.4-19.932-3.085-.724-5.463-4.846-2.273-6.88 6.025-4.174 9.26-3.536 13.4-2.278 1.442.44 1.81 2.56.776 3.765z"/><path d="M489.112 159.668c-7.987 6.978-15.394 9.83-22.742 18.65-3.005 3.615-2.92 8.652-4.712 13.26-1.8 4.892-7.585 5.853-9.377 4.832-2.997-1.97-2.562-11.04-5.91-6.155-2.84 4.497-4.672 10.692-8.87 10.613-3.797-.08-10.96-7.835-7.33-8.21 12.423-1.27 12.27-11.205 16.924-11.857 5.22-.696 5.562 8.205 8.785 6.42 2.53-1.296 3.722-11.665 6.47-14.463 8.423-8.598 15.086-13.14 23.68-19.46 4.35-3.463 7.452 2.785 3.084 6.373zm29.128 26.735c-6.393 1.29-5.305 9.5-3.427 10.52 3.098 1.442 7.89 2.048 9.68-7.394.838-3.88 1.596 19.275 10.103 10.353 4.897-5.405 17.03.98 22.11-5.82 3.636-4.53 4.757-7.69 1.923-14.378-.825-2.035-5.808-1.034-5.524 3.904.25 4.16-2.952 9.295-7.117 8.42-2.024-.37 1.14-10.18-.89-12.84-1.12-1.46-2.82-1.302-3.935.21-1.562 2.12 1.57 11.523-3.566 12.76-6.48 1.495-3.086-6.287-5.827-7.71-8.818-4.443-9.668 1.154-13.536 1.97zm49.912-15.787c4.685-1.316 3.222-1.323 10.597-7.354 2.87-2.172 3.44 4.187 3.134 6.702-.534 4.273-5.614 1.257-7.19 5.017-2.306 4.887-1.37 16.25-2.142 20.88-.527 2.376-4.343 2.17-4.705.295-1.094-5.642.77-11.166.593-18.223-.058-2.395-3.492-6.154-.29-7.313zm-22.022-25.462c-1.135 5.106-1.05 9.313-1.05 12.815.258 2.83 5.438 1.005 5.418.644-.257-4.484.764-10.685-.56-12.414-.72-.932-3.546-2.01-3.81-1.046zM372.58 36.638c2.24.107 8.384 8.057 7.98 10.544-.275 1.173-6.57-.175-8.493-1.8-1.423-1.203-.85-8.81.514-8.744zm-29.614 57.6c-5.614 3.06.89 9.098 5.094 6.546 15.783-10.21 39.468-20.932 44.416-41.156 1.588-6.85 7.96-17.35 14.01-19.692 5.845-2.264 14.333 10.565 19.876.47 3.25-5.77 14.637 3.787 17.385-2.388 3.348-7.457 1.753-11.564 1.89-18.708-.242-4.68-3.82-6.077-6.418 1.5-1.353 3.43.236 6.894-.865 8.684-.837 1.36-3.447 2.678-4.963 1.543-1.397-1.047-.428-3.97-3.776-5.26-1.298-.65-3.38-1.192-4.283.47-3.974 7.08-6.175 13.68-11.737 6.157-4.956-6.48-7.466-17.683-11.098-2.352-1.306 5.41-9.537 13.263-14.393 13.263-6.062 0-4.54-15.948-17.86-13.52-6.846 1.458-6.372 14.546-5.35 19.384 1.68 6.72 21.688 1.892 20.693 6.287-3.42 15.272-24.64 29.788-42.624 38.768zM217.72 166.982c-.85 2.555 2.552 9.493 6.077 10.007 3.46.254 5.226-7.494 4.112-10.01-.825-1.85-9.584-1.81-10.19 0zm18.375 26.913c-2.22-2.39-8.765 4.023-3.473 8.558 2.972 2.403 13.86 5.892 16.837.816 4.03-6.53-3.976-30.247-.43-33.38 2.77-2.45 15.6 15.84 21.93 17.156 14.88 2.06 11.31-25.452 27.343-23.582 10.926 1.455 12.126-12.186 10.603-20.703-1.22-8.172-14.465-19.97-20.554-25.246-8.013-6.664-11.585 4.913-6.557 8.73 6.472 5.177 17.852 15.635 19.664 22.553.855 3.265-7.91 9.757-11.138 8-7.453-4.063-14.386-21.482-20.903-25.46-2.22-1.356-7.685 1.706-5.055 7.14 2.96 5.824 16.027 14.843 16.79 21.057.693 5.668-5.825 17.927-10.1 17.927-4.706 0-16.7-14.812-20.443-21.784-1.87-3.338-8.357-3.016-9.035 1.594-1.074 6.92 1.002 21.562 2.655 30.634 1.31 8.59-4.844 9.026-8.14 5.99zm-22.492-47.23c-1.87 2.114 4.37 6.248 5.608 5.175 2.407-2.08 11.746-12.716 9.946-16.433-1.602-3.315-14.445-10.574-16.535-6.98-3.874 6.22 12.107 9.008 9.603 10.83-1.232.708-5.628 3.74-8.62 7.408zm23.045-46.608s4.014 13.717 7.282 8.002c2.642-3.963-7.282-8.004-7.282-8.004zm6.557 21.823c-1.47.802-5.608 4.078-2.913 5.82 4.264 2.52 15.862 4.515 13.358-3.725-1.522-4.853 17.49.135 12.857-13.006-1.212-3.638-6.946-8.887-9.767-9.628-1.792-.47-7.882 2.865-4.073 4.703 2.78 1.438 11.17 6.363 8.053 9.588-3.54 3.374-6.003-1.514-10.405-.726-2.214.42-.77 6.716-2.017 8.428-.7.955-3.895-2.108-5.094-1.455zM273.4 69.718c-2.4 1.198-6.695 7.695-6.854 10.7-.086 1.602 1.674 3.805 3.045 3.12 2.52-1.255 6.408-7.405 6.55-10.227.094-1.783-1.25-4.334-2.74-3.592zm15.677-1.668c-4.632-5.657 4.916-14.057 9.213-2.732 2.597 7.104 30.274 43.492 35.935 55.837 4.007 8.355-.145 11.806-5.1 5.82-14.017-17.866-25.517-40.136-40.048-58.923zm28.397.727c4.936-5.342 15.012-16.253 12.297-22.337-2.08-5.233-8.203-4.713-9.25-3.506-5.99 7.143 4.256 5.35 2.78 7.79-3.05 5.722-6.09 8.873-7.664 14.372-.37 1.29.95 4.643 1.838 3.68zM746.556 86.66c-3.546-2.87 3.486-16.776 8.244-11.317 13.062 15.1 19.13 64.125 22.906 100.817 0 0-5.872 4.892-5.918 4.114 0-19.546-7.862-79.34-25.233-93.615z"/><path d="M754.537 172.308c2.36-6.563 33.728-59.16 37.846-70.732 2.11-5.58 11.11 9.57 2.32 17.746-7.724 6.944-30.51 44.276-34.763 57.358-1.957 5.906-7.895 3.095-5.404-4.372zM453.645 38.952c-4.224-9.702 6.34-13.292 7.92-6.378 7.343 31.868 24.918 55.996 38.295 77.667 4.027 6.777.797 10.813-8.995 4.58-6.78-4.645-13.668-21.583-17.003-22.25-6.036-1.124-20.48 27.514-50.03 19.34-7.645-2.134-7.138-24.843-7.283-34.873-.325-4.702 4.875-5.945 5.052.47.27 9.248-.013 28.46 11.83 29.105 9.653.54 31.037-13.096 35.545-23.755 4.014-10.96-10.768-32.743-15.335-43.904zm-2.355 767.155c2.76 6.13 6.794 5.86 6.188-.007-1.173-7.51-3.447-17.894-4.73-26.913-.732-7.637-8.634-6.162-6.55 1.817 2.635 8.61 2.082 18.058 5.093 25.103zm23.658.355c-.033 3.108 4.784 2.824 4.738.368-.5-7.815-1.094-18.375 1.088-22.187 1.7-2.976 8.56-.875 14.926-1.455 2.537-.375 2.01-7.347-3.275-6.906-6.234.56-22.67-1.462-23.665 4.358-1.43 10.468 6.478-.626 6.188 25.82zm47.692-30.18c3.987 2.87 3.434 6.604-1.456 5.45-5.826-1.453-9.753-.986-9.674 2.207.086 3.14 2.544 3.75 6.122 7.233 3.427 3.588-2.103 3.002-6.34 10.35-3.61 6.082 3.756 6.886 12.442 4.58 2.214-.63 5.12 3.174-.362 6.302-3.862 2.06-14.624 4.582-17.3-3.22-5.08-13.495 8.508-15.365 2.782-18.96-3.123-1.883-4.25-4.72-3.683-8.486 1.214-8.69 14.17-7.54 17.47-5.46zm17.977 29.758c5.24-9.552 8.85-16.708 10.314-24.818 1.274-7.32 6.54-8.025 7.646-1.817 1.423 8.243 6.148 16.413 11.88 23.898 3.362 4.64-3.4 8.73-6.055 5.115-4.87-6.175-5.073-14.78-7.946-14.72-3.315.066-7.077 9.592-10.617 16.623-1.028 2.043-7.31-.005-5.22-4.277zm-253.35 129.61c-2.537 1.936-2.366 7.742 2.57 9.77 46.03 16.5 90.468 46.986 218.313 45.782 129.07-1.217 174.43-30.968 215.737-44.748 5.503-2.094 10.683-6.353 3.604-12.344-23.21-18.954-48.296-34.188-64.877-57.612-2.94-4.213-10.972-1.823-15.96 0-49.267 17.288-94.785 29.402-142.107 29.316-46.21-.086-94.375-12.798-137.73-30.6-4.15-1.77-10.952.224-14.16 3.338-20.12 20.02-42 39.448-65.387 57.098z"/><path d="M349.312 904.01c-5.542-3.57-8.04 1.073-4.118 5.92 5.087 5.575 13.318 8.932 21.878 11.316 4.996 1.39 15.308-.362 20.6.256 4.118.514 6.445 8.816 13.905 8.486 7.525-.322 12.356-20.317 12.613-30.35.342-6.65-8.857-2.403-7.98.263 2.412 6.61-2.004 21.36-6.695 21.346-3.453-.21-7.157-7.36-12.356-8.23-4.068-.67-10.237.475-14.42.515-12.24.12-17.51-5.977-23.428-9.52z"/><path d="M359.605 898.61c6.53 3.26 12.238-2.574 15.968 1.548 9.53 10.803 21.787-5.174 7.466-4.628-5.795.224-6.697-4.378-16.74-3.35-5.345.684-9.82 4.614-6.695 6.43zm1.55 47.324c-5.16-2.25-6.894 2.646-3.863 5.662 4.257 3.884 21.938 5.432 26.26 2.317 7.15-5.418 1.925-19.652-1.284-23.668-2.004-2.443-8.04-2.627-5.667 3.865.984 3.01 5.373 10.494 1.8 13.884-3.267 3.12-12.31-.007-17.245-2.06zm39.652 4.378c1.134-2.903-1.924-7.907-7.216-2.06-4.367 4.607-.82 24.035 13.136 27.518 13.642 3.344 23.862-1.554 25.74-9 1.298-4.957-6.175-9.262-2.313-13.634 3.222-3.417 9.443.04 12.1-5.4 1.554-3.048 1.68-9.295-6.696-13.377-3.63-1.825-9.918 2.335-9.787 5.403.197 4.22 6.74 1.468 4.375 5.14-1.726 2.8-9.456 1.634-11.835 8.23-1.423 4.193 8.752 11.936 3.348 13.89-4.824 1.667-11.11 2.746-17.51-.77-3.954-2.093-5.634-10.757-3.34-15.944zm-49.182-26.75c-3.242.474-7.717 2.83-7.973 6.69-.198 3.094 2.353 8.452 6.695 4.878 4.482-3.476 1.04-5.122 2.056-3.858 2.234 2.23-1.04 2.416-5.146 7.98-2.86 4.22-8.97 3.54-12.1 2.053-5.403-2.785-3.38-4.568-9.27-7.202-5.886-2.89-9.45 3.89-3.863 6.946 6.175 3.534 16.29 10.597 26.26 5.403 5.926-3.344 12.87-6.393 12.614-13.89-.336-4.873-2.504-9.948-9.272-9zm320.26-2.572c-4.554-3.253-1.766-9.152 4.897-6.947 5.667 2.094 15.078 8.763 15.697 17.493.704 9.546-14.697 16.532-20.59 16.208-10.09-.816-8.29-8.81-.776-8.236 5.826.42 12.982-1.653 13.39-7.716.343-5.26-9.337-8.322-12.62-10.803zm-33.207-23.406c-5.885-5.932 6.432-12.344 10.036-5.14 4.75 9.157 10.405 18.17 14.675 28.288 3.4 8.302-1.063 9.427-3.864 4.885-4.685-7.9-11.782-18.474-20.85-28.033zm-28.83 17.75c6.332-2.752 6.174 5.14 3.86 6.69-4.184 2.323-9.787-3.86-3.862-6.69zm18.792-6.944c6.333-2.753 6.175 5.14 3.862 6.688-4.184 2.324-9.787-3.858-3.862-6.69z"/><path d="M432.207 919.448c-9.503-6.063 1.93-15.11 8.494-8.23 9.405 9.593 18.395 30.614 25.49 38.58 6.75 7.83 1.313-21.224 3.35-29.835 1.39-4.786 5.133-4.114 5.146.514.033 11.837-1.792 35.92 1.285 37.81 5.76 3.27 4.72 8.61 9.523 7.715 5.153-1.224 4.382-2.575 9.015-2.83 4.593 0 4.75 4.6 10.043 3.857 3.375-.443 4.39-4.26 8.49-4.38 3.735-.316 2.13 7.926-.25 9.263-3.883 2.18-15.97-2.37-19.566-2.054-4.283.11-11.994 4.08-16.738 2.31-5.793-2.068-4.508-9.4-8.494-8.23-4.514 1.04-3.663 9.25-14.41 11.83-5.036 1.147-6.73-3.37-4.12-6.43 4.673-4.99 14.084-8.974 12.614-13.63-4.356-12.97-17.517-28.59-29.866-36.26zm82.64 1.797c4.565 15.01 4.342 34.97 6.952 48.613 1.283 5.366 6.424.586 5.923-3.6-2.023-14.65-2.913-32.63-6.695-46.553-1.57-4.82-7.928-3.884-6.182 1.54zm12.613 3.865c-1.206-6.26 4.79-6.847 5.666-3.095 3.09 12.08 2.695 39.724 8.752 40.64 10.45 1.19 25.108-.97 38.104-3.602 6.393-1.27 7.704-5.892 7.466-7.723-1.225-7.427 5.713-6.84 7.466 1.034.942 4.108-.923 11.475-8.752 13.115-15.295 2.95-36.35 7.496-48.403 4.883-10.56-2.23-7.12-29.46-10.303-45.255z"/><path d="M544.454 935.907c.263-7.92 6.214-9.085 6.175-2.317.163 16.202 19.15 11.995 23.175 5.92 2.972-4.74.797-6.782-2.063-12.088-3.56-6.867 3.974-8.802 7.21-2.83 2.418 4.272 4.098 17.893-.258 21.35-6.03 4.773-22.326 7.117-29.352 1.797-3.73-2.57-5.18-7.494-4.89-11.83zm-8.236-21.093c.843 5.075 14.67 3.344 14.156-.514-.474-3.318-14.926-2.575-14.156.514zm18.02 4.116c.54 5.114 9.49 3.606 9.007-.257-.474-4.088-9.522-4.892-9.008.256zm27.03-6.17c-4.54-6.27 4.296-6.663 7.21-2.055 7.537 11.258 12.506 29.41 19.82 41.66 3.11 5.648 7.005.6 7.466-.77.488-1.455-2.366-3.686-2.57-8.743-.362-3.93 7.684-8.816 13.384-5.14 5.33 3.587.968 6.767 3.603 8.742 2.51 1.883 8.85.698 9.788-.514 2.814-4.418-1.022-1.83-4.897-4.378-4.48-3.206-1.79-17.097 7.467-11.317 5.51 3.186 7.13 13.37 5.145 19.032-1.753 5.247-10.972 7.03-15.96 5.92-5.622-1.712-10.163-8.467-9.01-6.69 2.782 4.562-.685 9.065-3.347 10.803-6.57 4.12-11.164 6.28-15.96-.514-8.502-12.72-13.18-34.175-22.143-46.038z"/></svg>