<?xml version="1.0" encoding="utf-8"?>
<!-- Generated by IcoMoon.io -->
<!DOCTYPE svg PUBLIC "-//W3C//DTD SVG 1.1//EN" "http://www.w3.org/Graphics/SVG/1.1/DTD/svg11.dtd">
<svg version="1.1" xmlns="http://www.w3.org/2000/svg" xmlns:xlink="http://www.w3.org/1999/xlink" width="1015" height="1024" viewBox="0 0 1015 1024"><g id="icomoon-ignore">
</g>
<path d="M745.987 442.866c7.020-11.263 15.426 15.621 44.301 35.636 13.442 9.138 22.806 33.49 22.894 49.512 0.442 11.005-1.223 21.983 0.006 32.628 0.774 6.735 7.802 21.684 2.997 25.506-12.708 9.436-29.16 30.863-36.792 38.256-6.598 5.777-12.313-29.824-17.268-45.758-5.308-17.074-2.929-37.482-17.648-53.26-10.431-10.652-36.744-21.134-33.789-25.88l35.296-56.641z"></path>
<path d="M762.125 578.646c-5.308-17.074-2.929-37.482-17.648-53.26-10.431-10.652-36.744-21.134-33.789-25.88l35.298-56.641c7.020-11.263 15.426 15.621 44.301 35.636 13.442 9.138 22.806 33.49 22.894 49.512z"></path>
<path d="M747.876 529.581c2.191-5.035 5.033-9.687 9.007-14.187s8.674-8.28 13.866-10.123c5.016-1.846 10.121-4.27 13.688-8.702 1.783-2.216 3.322-5.013 4.088-8.347 0.71-3.090 0.53-6.637 0.005-10.946 0.625 0.453 1.128 0.731 1.772 1.18 13.442 9.138 22.843 33.526 22.932 49.548 0.178 4.426-0.066 9.037-0.244 13.435-0.995 2.758-1.71 5.14-3.133 6.811-1.854 2.177-4.058 3.616-6.4 4.617-4.685 2.003-10.095 2.416-15.111 4.262-5.192 1.843-10.534 6.012-15.111 11.011-4.362 4.765-7.722 10.232-9.955 15.096-0.377-1.378-0.876-3.432-1.244-4.617-6.693-18.078-5.649-36.408-14.162-49.035z"></path>
<path d="M993.792 527.81c-0.369 1.955 4.923 4.846 6.181 3.344 5.694-6.814 13.147-20.192 14.675-28.289 0.448-2.357-7.137-5.024-8.758-3.088-5.331 6.38-10.498 19.526-12.099 28.033z"></path>
<path d="M281.585 942.731c-5.67 20.014-89.321-18.867-98.659-39.009 47.864 25.336 99.802 20.037 98.659 39.009z"></path>
<path d="M17.12 533.896c4.181 4.972 11.231 1.641 4.807-5.088-5.257-5.437-3.527-7.152-6.73-13.776-3.167-7.402-3.003-11.485-6.827-16.773-3.381-5.017-8.467 0.101-5.060 4.324 4.277 4.994 3.097 8.676 5.712 13.506 4.834 8.266 3.655 12.606 8.097 17.809z"></path>
<path d="M375.224 794.23c14.247 11.66 23.493 24.971 27.803 42.174 4.495 16.025 10.814 28.803 20.086 43.207-15.105-10.29-24.601-24.286-29.352-41.153-4.171-16.577-9.094-28.968-18.537-44.228z"></path>
<path d="M641.924 794.23c-14.564 11.728-24.014 25.118-28.42 42.422-4.594 16.118-11.054 28.973-20.532 43.461 15.439-10.35 25.146-24.429 30.002-41.396 4.264-16.674 9.296-29.137 18.949-44.488z"></path>
<path d="M624.031 794.228c-15.614 12.251-30.333 26.158-34.739 43.461-4.594 16.118-7.37 28.456-17.898 44.494 16.49-10.35 23.038-25.986 27.895-42.952 4.264-16.668 14.038-29.131 24.741-45.004z"></path>
<path d="M447.569 860.835c5.232 9.855 11.243 24.859 22.136 22.114 0.172-7.544-11.757-12.772-22.136-22.114z"></path>
<path d="M463.787 864.173c21.157 8.664 39.427 6.524 41.703 19.81-19.848 2.14-27.106-6.004-41.703-19.81z"></path>
<path d="M567.533 862.121c-5.304 9.291-11.396 23.435-22.438 20.847-0.174-7.112 11.917-12.040 22.438-20.847z"></path>
<path d="M552.692 864.945c-21.465 8.222-40.001 6.191-42.31 18.798 20.137 2.031 27.501-5.697 42.31-18.798z"></path>
<path d="M572.314 834.858c0.42-3.009-1.634-5.635-4.099-6.426-4.801-1.804-9.583-3.272-14.345-4.628-5.412-1.283-8.441 2.594-8.461 5.141-0.026 4.24-0.223 7.841 0 11.054 0.295 4.003 1.056 4.299 3.588 4.892 4.054 0.685 9.249 1.382 13.321 4.114 3.227 1.988 6.33 0.415 7.943-3.081 1.043-2.672 1.614-7.901 2.053-11.067z"></path>
<path d="M513.997 834.86c-0.375-3.009 1.207-5.892 3.411-6.682 4.289-1.804 8.561-2.245 13.068-2.061 5.005-0.079 6.264 1.054 6.282 3.601 0.024 4.24 0.2 8.355 0 11.567-0.263 4.003-0.176 4.299-2.438 4.892-3.621 0.685-9.798 0.869-13.437 3.601-2.883 1.988-6.17 0.415-6.329-3.338 0.070-2.831-0.164-8.413-0.557-11.58z"></path>
<path d="M443.193 834.087c-0.422-3.009 1.641-5.635 4.118-6.426 4.824-1.804 9.628-3.272 14.412-4.628 5.437-1.283 8.481 2.594 8.501 5.141 0.026 4.24 0.225 7.841 0 11.054-0.296 4.003-1.061 4.299-3.604 4.892-4.073 0.685-9.292 1.382-13.384 4.114-3.242 1.988-6.36 0.415-7.98-3.081-1.048-2.672-1.622-7.901-2.063-11.067z"></path>
<path d="M501.785 834.089c0.377-3.009-1.212-5.892-3.427-6.682-4.31-1.804-8.601-2.245-13.129-2.061-5.028-0.079-6.294 1.054-6.311 3.601-0.024 4.24-0.201 8.355 0 11.567 0.264 4.003 0.177 4.299 2.449 4.892 3.638 0.685 9.843 0.869 13.5 3.601 2.897 1.988 6.199 0.415 6.359-3.338-0.071-2.831 0.165-8.413 0.559-11.58z"></path>
<path d="M272.094 437.34c-7.020-11.263-15.426 15.621-44.301 35.636-13.442 9.138-22.806 33.49-22.894 49.512-0.442 11.005 1.223 21.983-0.006 32.628-0.774 6.735-7.802 21.684-2.997 25.506 12.708 9.436 29.16 30.863 36.792 38.256 6.598 5.777 12.313-29.824 17.268-45.758 5.308-17.074 2.929-37.482 17.648-53.26 10.431-10.652 36.744-21.134 33.789-25.88l-35.296-56.641z"></path>
<path d="M255.954 573.12c5.308-17.074 2.929-37.482 17.648-53.26 10.431-10.652 36.744-21.134 33.789-25.88l-35.298-56.641c-7.020-11.263-15.426 15.621-44.301 35.636-13.442 9.138-22.806 33.49-22.894 49.512z"></path>
<path d="M270.205 524.056c-2.191-5.035-5.033-9.687-9.007-14.187s-8.674-8.28-13.866-10.123c-5.016-1.846-10.121-4.27-13.688-8.702-1.783-2.216-3.322-5.013-4.088-8.347-0.71-3.090-0.53-6.637-0.005-10.946-0.625 0.453-1.128 0.731-1.772 1.18-13.442 9.138-22.843 33.526-22.932 49.548-0.178 4.426 0.066 9.037 0.244 13.435 0.995 2.758 1.71 5.14 3.133 6.811 1.854 2.177 4.058 3.616 6.4 4.617 4.685 2.003 10.095 2.416 15.111 4.262 5.192 1.843 10.534 6.012 15.111 11.011 4.362 4.765 7.722 10.232 9.955 15.096 0.377-1.378 0.876-3.432 1.244-4.617 6.693-18.078 5.649-36.408 14.162-49.035z"></path>
<path d="M263.535 426.352l5.1-3.272 97.927 164.765-5.094 3.272-97.934-164.765z"></path>
<path d="M274.093 419.807c0 0.004 0 0.008 0 0.012 0 6.227-5.052 11.275-11.286 11.275s-11.286-5.047-11.286-11.275c0-0.004 0-0.009 0-0.013s0-0.007 0-0.012c0-6.227 5.052-11.275 11.286-11.275s11.286 5.047 11.286 11.275c0 0.004 0 0.009 0 0.013z"></path>
<path d="M754.648 429.282l-5.098-3.387-97.876 170.532 5.091 3.387 97.883-170.532z"></path>
<path d="M744.096 422.508c0 0.003 0 0.006 0 0.010 0 6.445 5.050 11.67 11.281 11.67s11.281-5.225 11.281-11.67c0-0.003 0-0.007 0-0.010s0-0.006 0-0.009c0-6.445-5.050-11.67-11.281-11.67s-11.281 5.225-11.281 11.67c0 0.003 0 0.007 0 0.010z"></path>
<path d="M357.812 287.425h39.683v9.093h-39.683v-9.093z"></path>
<path d="M357.812 304.657h39.683v75.96h-39.683v-75.96z"></path>
<path d="M355.419 277.031l44.021 0.256c1.72-14.912-13.18-31.021-21.878-30.857-8.6 0.415-22.485 16.287-22.142 30.6z"></path>
<path d="M618.484 287.682h39.683v9.093h-39.683v-9.093z"></path>
<path d="M618.484 304.914h39.683v75.96h-39.683v-75.96z"></path>
<path d="M616.090 277.289l44.021 0.256c1.72-14.912-13.18-31.021-21.878-30.857-8.6 0.415-22.485 16.287-22.142 30.6z"></path>
<path d="M324.789 393.533l25.233 27.776 314.066 0.514 25.747-27.776-80.319-1.027-39.131-27.262-126.145-0.514-36.555 28.289h-82.895z"></path>
<path d="M453.346 350.648l108.451-0.112c14.682-7.755 19.263-32.522 19.19-46.38-0.205-40.936-28.864-60.568-57.629-61.615-4.31-0.218-9.312-3.569-10.451-7.492-2.834-8.887-2.103-32.028-5.206-31.713-2.761-0.040-1.951 22.654-4.409 30.988-1.351 4.147-6.016 8.236-10.669 8.473-35.803 1.784-58.894 27.894-57.992 61.358 0.607 22.127 3.183 35.34 18.716 46.492z"></path>
<path d="M453.346 350.648l108.451-0.112c14.682-7.755 19.263-32.522 19.19-46.38-0.205-40.936-28.864-60.568-57.629-61.615-4.31-0.218-9.312-3.569-10.451-7.492-2.834-8.887-2.103-31.508-5.206-31.713-2.24 0.218-1.951 22.654-4.409 30.988-1.351 4.147-6.016 8.236-10.669 8.473-35.803 1.784-58.894 27.894-57.992 61.358 0.607 22.127 3.183 35.34 18.716 46.492z"></path>
<path d="M446.552 314.577c2.735 13.49 9.239 11.422 8.758 4.892-1.602-20.837 0.086-41.358 18.531-55.038 5.845-4.279-0.686-8.229-5.661-6.169-15.684 6.59-25.213 36.801-21.628 56.315z"></path>
<path d="M464.829 323.061c2.735 13.49 13.905 12.904 11.848 4.121-4.184-16.821-3.519-41.358 11.321-51.95 5.859-4.259-0.686-8.229-5.661-6.169-15.684 6.59-21.094 34.484-17.51 53.998z"></path>
<path d="M569.379 315.092c-2.737 13.49-9.249 11.422-8.768 4.892 1.603-20.837-0.086-41.358-18.55-55.038-5.852-4.279 0.687-8.229 5.667-6.169 15.7 6.59 25.24 36.801 21.651 56.315z"></path>
<path d="M551.088 323.576c-2.737 13.49-13.92 12.904-11.861 4.121 4.189-16.821 3.523-41.358-11.333-51.95-5.865-4.259 0.687-8.229 5.667-6.169 15.7 6.59 21.117 34.484 17.528 53.998z"></path>
<path d="M274.85 747.928h465.957l-41.708-33.951h-382.548l-41.701 33.951z"></path>
<path d="M355.683 442.397h44.279v61.208h-44.279v-61.208z"></path>
<path d="M358.257 538.582h42.734v12.859h-42.734v-12.859z"></path>
<path d="M354.139 618.822h47.882v26.746h-47.882v-26.746z"></path>
<path d="M360.010 527.105h38.585l7.651-12.725h-53.155l6.92 12.725z"></path>
<path d="M658.176 538.581h-42.012v12.859h42.012v-12.859z"></path>
<path d="M658.95 561.214h-42.785v47.835h42.785v-47.835z"></path>
<path d="M661.711 618.822h-47.075v26.746h47.075v-26.746z"></path>
<path d="M412.066 480.185l0.362-33.457h26.578c-10.438 8.605-20.146 19.032-26.94 33.457z"></path>
<path d="M603.474 480.185l-0.356-33.457h-26.129c10.263 8.605 19.806 19.032 26.485 33.457z"></path>
<path d="M362.636 566.87h31.407v39.092h-31.407v-39.092z"></path>
<path d="M382.716 583.073h11.070v6.43h-11.070v-6.43z"></path>
<path d="M363.409 583.073h10.812v6.43h-10.812v-6.43z"></path>
<path d="M374.221 567.385h8.495v15.946h-8.495v-15.946z"></path>
<path d="M374.221 589.245h8.495v16.974h-8.495v-16.974z"></path>
<path d="M622.13 566.613h31.407v39.092h-31.407v-39.092z"></path>
<path d="M642.21 582.815h11.070v6.43h-11.070v-6.43z"></path>
<path d="M622.902 582.815h10.812v6.43h-10.812v-6.43z"></path>
<path d="M633.714 567.128h8.495v15.946h-8.495v-15.946z"></path>
<path d="M633.714 588.988h8.495v16.974h-8.495v-16.974z"></path>
<path d="M362.549 493.924c0.263 7.156 8.376 3.964 8.376 0.362 0-11.040 0.145-22.976-0.296-30.791-0.053-5.761 13.74-4.319 13.661-0.77 0.053 9.323 0.158 22.107 0.211 33.016-0.099 5.313 8.909 4.852 8.785 0-0.053-12.186-0.059-29.896 0-38.862 0.079-11.547-30.347-11.297-30.584-0.256 0.013 9.065-0.165 25.293-0.152 37.302z"></path>
<path d="M623.074 495.21c0.263 7.156 8.376 3.964 8.376 0.362 0-11.040 0.145-22.976-0.296-30.791-0.053-5.761 13.74-4.319 13.661-0.77 0.053 9.323 0.158 22.107 0.211 33.016-0.099 5.313 8.646 4.852 8.527 0-0.053-12.443 0.198-29.896 0.257-38.862 0.079-11.547-30.347-11.297-30.584-0.256 0.013 9.065-0.165 25.293-0.152 37.302z"></path>
<path d="M488.53 620.367l8.494 25.458h19.302l-15.44-25.465-12.356 0.007zM477.722 645.825l4.89 25.201 22.65 0.256-8.238-25.465-19.302 0.007zM516.076 646.081l15.704 24.945h32.179l-25.226-25.208-22.657 0.263zM326.087 703.173c17.074-15.86 27.975-29.402 28.061-48.862h41.701c0.086 10.889 4.033 17.4 10.043 16.973l42.222-0.256-0.257-24.945h-30.637l-0.007-136.055c-1.114-48.093 58.526-76.124 82.902-75.868l-144.94-0.256v-4.372h304.806l0.257 4.372-146.996 0.256c43.593 0.086 85.637 41.325 85.986 76.131v38.573h-5.667l-0.257-38.059c0-38.066-47.988-73.643-86.5-72.53-33.3 0.955-84.951 32.667-84.437 72.273v11.83l79.033 0.514-0.771 13.628 12.409 7.914 24.752 7.881-0.362 20.441 17.727 5.221 0.152 20.422 21.266 9.118v21.14l13.49 8.302-0.62 21.468 18.281 12.857h-43.25l27.032 30.093h-39.902l-19.83-30.093h-26.254l11.842 29.83-28.054-0.256-6.702-29.573h-34.235l0.257 31.884-122.541 0.007zM448.371 620.616v25.201h29.352l-5.931-25.201h-23.421z"></path>
<path d="M449.92 576.122h18.278v41.921h-18.278v-41.921z"></path>
<path d="M424.1 620.995h17.839l-0.112-30.844c-0.231-13.408 11.815-26.923 17.582-27.373 6.393-0.241 15.816 12.656 16.132 26.318l0.257 31.998 18.927-0.040v-79.419l-70.625 0.376v78.982z"></path>
<path d="M497.816 621.123l22.65 0.77 40.417 35.749v-21.087l-13.642-9.77v-16.722l-19.823-11.31v-18.005l-19.309-6.426v-24.438l-9.787-7.972-0.507 79.212z"></path>
<path d="M593.562 568.924h5.407v38.834h-5.407v-38.834z"></path>
<path d="M199.446 175.566c1.964 30.679-7.565 47.52-23.829 44.958-4.482-17.019 5.713-28.434 23.829-44.958z"></path>
<path d="M163.741 243.545c-14.459-7.347-4.027-63.445 1.522-86.961 4.105 30.291 10.972 73.346-1.522 86.961z"></path>
<path d="M168.913 246.178c24.303 8.446 43.546-17.703 50.051-47.987-20.060 27.657-52.706 27.69-50.051 47.987z"></path>
<path d="M150.464 274.494c-19.005-5.017-7.558-64.532-4.105-88.337 4.178 24.59 17.279 80.193 4.105 88.337z"></path>
<path d="M156.948 272.658c1.061-20.527 21.543-14.596 35.678-25.551-2.306 10.257-10.999 28.434-35.678 25.551z"></path>
<path d="M133.673 300.141c-18.834-5.075-7.512-69.127-8.58-95.5 5.522 22.786 23.006 89.325 8.58 95.5z"></path>
<path d="M142.49 297.381c15.427 5.010 35.862-5.004 37.471-23.358-13.285 9.006-34.498 2.12-37.471 23.358z"></path>
<path d="M119.613 328.414c-18.010 1.435-9.951-53.115-9.937-103.921 6.616 47.487 24.64 90.958 9.937 103.921z"></path>
<path d="M125.86 325.947c12.165 6.096 33.958-3.647 40.179-24.175-21.977 9.546-36.674 0.218-40.179 24.175z"></path>
<path d="M267.265 203.954c-3.202 26.611-14.090 42.094-30.354 39.534-4.482-17.019 8.705-27.894 30.354-39.534z"></path>
<path d="M224.239 272.278c27.019 3.832 36.752-16.887 54.941-43.372-25.49 18.428-55.968 22.259-54.941 43.372z"></path>
<path d="M216.548 269.204c-14.728-17.657-0.494-39.83 10.762-58.732-2.419 28.118 7.17 43.761-10.762 58.732z"></path>
<path d="M210.018 298.375c-1.661-17.268 27.79-21.107 41.108-30.705-4.482 9.98-11.269 36.848-41.108 30.705z"></path>
<path d="M203.869 298.764c-20.363-2.304-11.908-36.848 2.688-56.045-6.148 26.492 10.755 44.912-2.688 56.045z"></path>
<path d="M188.502 327.547c-23.177-10.238-8.323-39.277 0.389-56.42-3.716 22.515 14.854 39.659-0.389 56.42z"></path>
<path d="M193.114 324.861c12.165 15.866 35.862-4.733 40.726-28.79-20.62 17.15-35.856 14.332-40.726 28.79z"></path>
<path d="M792.862 271.897c-0.89-26.104-29.068-20.35-53.399-41.845 6.662 22.647 30.222 50.284 53.399 41.845z"></path>
<path d="M805.93 298.375c-26.637 2.048-31.375-11.258-41.88-28.401 18.188 11.771 42.518 4.352 41.88 28.401z"></path>
<path d="M823.604 326.777c-26.637 6.268-35.217-7.802-41.88-31.469 21.642 19.83 33.682 10.487 41.88 31.469z"></path>
<path d="M750.983 206.635c3.078 13.825 3.849 41.081 28.436 35.703 3.585-25.333-17.036-26.486-28.436-35.703z"></path>
<path d="M798.628 268.822c16.521-11.389 3.842-36.21-11.526-57.961 5.766 23.675-6.913 45.419 11.526 57.961z"></path>
<path d="M812.467 299.145c-12.686-10.369 3.071-32.628-2.306-54.887 9.99 14.069 25.358 47.724 2.306 54.887z"></path>
<path d="M827.446 326.394c18.57-0.256 10.248-36.973 0.764-53.734 2.564 20.218-13.7 43.497-0.764 53.734z"></path>
<path d="M816.111 175.777c3.334 15.366-3.104 45.709 21.483 45.472 10.281-17.361-11.632-33.688-21.483-45.472z"></path>
<path d="M853.015 244.29c15.493-10.613 1.529-45.465-3.288-84.704-3.756 34.991-12.060 73.196 3.288 84.704z"></path>
<path d="M844.679 246.995c1.944-19.158-28.291-23.43-49.016-48.783 5.371 20.33 20.693 50.028 49.016 48.783z"></path>
<path d="M865.383 276.825c-16.29-14.74 3.065-57.059 3.868-89.865 2.524 30.271 15.836 84.499-3.868 89.865z"></path>
<path d="M856.118 272.575c-23.809 1.528-30.090-15.893-32.871-25.833 12.784 9.204 32.996 4.865 32.871 25.833z"></path>
<path d="M879.997 298.847c18.307-0.77 11.532-70.147 8.995-92.050-1.812 23.305-20.903 83.617-8.995 92.050z"></path>
<path d="M871.994 297.595c-15.823 2.41-31.87-6.775-36.212-22.469 13.661 5.939 36.251 1.231 36.212 22.469z"></path>
<path d="M894.724 327.643c19.598 7.972 12.567-82.491 10.030-103.368-1.812 26.649-25.022 92.103-10.030 103.368z"></path>
<path d="M890.139 327.654c-19.691 2.923-34.189-9.085-39.823-25.551 20.099 7.485 35.745 4.826 39.823 25.551z"></path>
<path d="M875.922 434.956c2.425-23.628-15.69-66.592-2.834-89.496 1.753-3.146-3.849-11.501-7.466-6.432-5.654 8.091-11.466 31.146-13.898 22.634-2.577-9.257-2.972-25.63-11.328-28.809-5.331-1.863-12.87-3.081-10.814 5.148 2.043 7.914 6.616 18.842 1.549 19.546-2.939 0.428-11.407-10.771-18.537-15.945-5.746-4.615-14.32 2.607-5.918 9.513 27.309 22.246 53.768 32.259 69.248 83.84z"></path>
<path d="M944.505 419.182c6.67-6.991 4.742-9.665-5.122-9.777-7.825-0.494-23.328 4.813-29.212 0.514-5.391-3.931-3.246-20.6-5.64-28.289-1.043-4.286-4.034-11.014-10.756-0.514-19.886 31.989-44.723 70.39-55.341 108.015-5.804 21.087-2.905 55.031 19.472 73.037l15.885-46.295c7.549-22.008 48.186-74.821 70.714-96.692z"></path>
<path d="M966.796 361.655c-8.962 28.79-14.346 52.385-1.41 55.163 13.826-2.396 7.816-30.212 1.41-55.163z"></path>
<path d="M965.862 442.437c14.741 7.821 30.63-29.718 27.329-59.284-7.427 25.34-32.429 40.989-27.329 59.284z"></path>
<path d="M960.43 441.704c2.286-20.468-6.128-19.928-17.153-39.488 1.167 22.094 6.676 40.62 17.153 39.488z"></path>
<path d="M965.275 471.666c17.206 4.879 36.924-36.045 36.186-66.289-7.163 33.477-44.508 46.854-36.186 66.289z"></path>
<path d="M959.634 470.96c6.9-15.86-7.176-13.924-16.515-42.345-3.091 29.415 1.397 42.839 16.515 42.345z"></path>
<path d="M964.626 501.806c22.326 3.838 33.84-45.406 44.93-68.988-21.958 30.916-48.265 48.132-44.93 68.988z"></path>
<path d="M959.439 500.106c6.524-18.157-11.921-17.143-21.635-44.281 1.542 34.418 6.016 46.834 21.635 44.281z"></path>
<path d="M965.859 531.375c14.116 1.021 39.501-38.362 40.048-62.688-12.060 26.788-49.912 44.537-40.048 62.688z"></path>
<path d="M955.416 526.812c5.872-18.941-10.524-19.065-17.8-40.284-0.514 31.989 4.482 42.839 17.8 40.284z"></path>
<path d="M955.925 560.981c24.897 4.352 31.27-28.434 45.958-61.786-14.492 26.545-47.231 41.443-45.958 61.786z"></path>
<path d="M954.129 556.435c8.073-17.13-10.63-17.143-20.607-42.74-0.514 36.216 5.76 46.834 20.607 42.74z"></path>
<path d="M863.707 587.97c-21.866 0.106-26.137-30.857-26.137-39.087 10.763 2.054 30.242 21.6 26.137 39.087z"></path>
<path d="M907.369 447.301c-8.962 28.79-12.547 42.608-0.382 51.819 15.882-8.829 6.788-26.867 0.382-51.819z"></path>
<path d="M902.374 522.53c6.662-21.239-9.734-26.354-18.439-50.284-0.896 31.607 3.585 54.761 18.439 50.284z"></path>
<path d="M908.907 527.134c11.658 4.477 25.998-22.515 18.063-49.515-8.198 24.312-28.311 30.192-18.063 49.515z"></path>
<path d="M896.612 551.315c11.276-17.4-6.662-18.296-15.743-42.601-0.514 31.989 2.425 45.156 15.743 42.601z"></path>
<path d="M896.609 581.251c8.587-19.698-10.116-17.143-21.121-41.45-0.514 36.216 5.503 44.004 21.121 41.45z"></path>
<path d="M905.063 552.469c9.74 0.25 28.686-16.761 23.058-38-8.198 17.789-31.382 15.992-23.058 38z"></path>
<path d="M902.374 578.181c15.889 3.325 27.922-20.975 26.136-37.612-12.429 15.485-29.471 16.755-26.136 37.612z"></path>
<path d="M1001.892 537.481c1.948-2.535 7.542 0.066 6.145 6.175-1.298 8.269-13.445 50.719-34.321 65.321-14.888 10.771-93.138 28.118-128.613 35.485-19.524 3.944-35.875 13.72-48.684 29.323 5.299-20.402 9.556-35.518 16.396-54.004 6.65-16.248 24.273-34.023 42.525-34.978 33.901-1.224 77.778-4.121 109.659-18.005 16.456-6.9 26.306-16.221 36.892-29.316z"></path>
<path d="M953.993 637.668c3.579-14.299-0.982-18.902 2.926-41.292-21.483 28.783-13.404 42.424-2.926 41.292z"></path>
<path d="M956.335 641.227c14.227 3.964 51.224-28.428 52.305-52.595-10.003 17.367-59.975 36.104-52.305 52.595z"></path>
<path d="M933.12 662.55c9.734-5.313 6.985-27.809-1.838-35.399-1.805 21.956-15.078 34.866 1.838 35.399z"></path>
<path d="M943.136 668.656c17.206 5.392 36.667-25.754 50.861-39.283-16.178 13.931-65.102 20.619-50.861 39.283z"></path>
<path d="M919.477 684.155c12.047-7.887 0.804-23.444-0.040-54.175-12.099 22.213-14.564 52.608 0.040 54.175z"></path>
<path d="M921.767 692.061c6.142 8.223 51.6-20.099 62.961-41.087-38.828 28.849-73.083 24.998-62.961 41.087z"></path>
<path d="M917.22 717.668c11.157-8.124-9.602-29.488-13.911-58.165 0.257 34.932-4.534 61.49 13.911 58.165z"></path>
<path d="M929.362 708.051c5.595 8.986 40.278-14.799 55.231-40.692-22.992 20.112-61.656 25.498-55.231 40.692z"></path>
<path d="M893.891 747.204c12.567-2.225 10.84-33.977 1.252-59.83-10.814 31.219-15.599 62.899-1.252 59.83z"></path>
<path d="M925.442 729.91c4.336 5.135 55.461-30.653 54.723-45.202-16.178 23.187-70.25 27.822-54.723 45.202z"></path>
<path d="M866.092 776.83c17.338-7.103 9.187-35.149 12.6-65.374-13.648 29.533-29.767 59.179-12.6 65.374z"></path>
<path d="M898.517 752.569c2.761 9.5 44.397-8.117 64.496-37.098-24.277 18.829-71.429 21.389-64.496 37.098z"></path>
<path d="M871.643 781.345c8.969 14.905 60.608-12.39 68.107-38-16.692 22.16-74.368 18.816-68.107 38z"></path>
<path d="M895.325 792.917c9.483 1.021 31.52-17.019 37.727-26.426-17.72 8.783-41.675 20.877-37.727 26.426z"></path>
<path d="M817.534 682.092c11.282 1.633 26.037-19.059 16.185-40.028-4.897 20.928-37.734 36.157-16.185 40.028z"></path>
<path d="M841.711 669.685c8.712 4.879 30.749-18.552 27.948-33.885-12.316 19.592-37.042 25.247-27.948 33.885z"></path>
<path d="M815.967 704.15c8.461 8.223 50.058-33.99 62.447-53.175-35.994 30.646-72.826 38.368-62.447 53.175z"></path>
<path d="M806.057 729.395c6.623 10.013 34.353-20.198 51.883-45.321-22.222 21.909-59.856 31.929-51.883 45.321z"></path>
<path d="M808.845 705.324c6.781-17.894-4.455-20.745-9.536-42.99-10.036 12.298-8.909 46.315 9.536 42.99z"></path>
<path d="M797.776 730.012c13.477-3.752-8.317-26.656-12.883-42.99-2.056 30.047-1.7 45.031 12.883 42.99z"></path>
<path d="M784.65 751.616c12.442-4.523-7.031-15.86-9.021-40.936-6.181 9.217-9.423 44.261 9.021 40.936z"></path>
<path d="M766.054 756.934c7.927-4.286 4.665-24.727-7.506-27.427-2.834 16.038-2.465 27.663 7.506 27.427z"></path>
<path d="M923.060 793.544c3.131-0.603 7.422-1.672 3.518 3.217-31.177 38.555-40.198 49.179-85.662 43.755-45.922-6.068-56.859-18.537-89.013-36.65-17.175-10.113-42.288-12.359-61.321-6.092-8.862 2.912-14.222 3.088-7.871-3.297 6.355-6.376 13.862-15.052 21.678-21.026 17.118-13.194 46.154-18.915 69.85-14.667 33.513 5.276 61.204 26.696 94.295 34.787 17.387 3.984 36.458 3.383 54.525-0.026z"></path>
<path d="M660.481 861.363c-5.757 0.724-9.404 11.995-12.238 4.365-4.806-12.357-1.439-22.187 3.96-21.1 6.376 1.718 17.161 16.169 8.278 16.735z"></path>
<path d="M723.521 811.094c16.295 4.234 20.529-14.531 22.126-28.166-14.692 3.163-30.089 11.668-22.126 28.166z"></path>
<path d="M717.010 827.742c2.871 12.982 34.754-0.4 40.949-18.579-22.666 13.21-45.027-1.183-40.949 18.579z"></path>
<path d="M705.598 827.097c14.563 2.408 6.456-20.388 5.616-42.878-8.155 18.337-19.798 40.926-5.616 42.878z"></path>
<path d="M687.205 848.666c15.857 1.981 5.796-28.569 1.487-49.101-5.206 19.028-16.673 47.429-1.487 49.101z"></path>
<path d="M696.592 849.367c1.927 17.284 34.712-2.070 53.79-12.692-25.2 3.903-56.62-4.268-53.79 12.692z"></path>
<path d="M678.573 873.541c1.927 17.284 34.712-2.070 53.79-12.692-25.2 3.903-56.62-4.268-53.79 12.692z"></path>
<path d="M670.213 872.845c15.083 0.436 3.996-32.427-0.314-52.96-5.206 19.028-15.129 52.317 0.314 52.96z"></path>
<path d="M657.205 893.855c1.927 17.284 31.885 0.248 50.445-11.661-25.458 5.444-53.275-5.298-50.445 11.661z"></path>
<path d="M825.772 864.874c8.969 14.898 42.070-10.849 60.127-24.116-25.958 8.012-66.388 4.931-60.127 24.116z"></path>
<path d="M791.992 880.36c3.227 17.089 59.078 2.988 67.036-9.681-25.677 10.87-70.101-5.080-67.036 9.681z"></path>
<path d="M765.687 893.41c1.683 9.37 44.409 5.815 66.009-1.454-23.361 2.903-70.355-13.565-66.009 1.454z"></path>
<path d="M743.372 904.578c0.141 8.603 49.813 13.53 66.525-0.42-33.398 4.952-69.843-20.255-66.525 0.42z"></path>
<path d="M704.109 912.618c-1.922 11.947 52.125 9.415 69.096 3.431-29.017-2.237-66.493-21.023-69.096-3.431z"></path>
<path d="M703.28 901.746c12.185 11.165 43.51-38.708 53.707-60.678-24.104 25.111-67.604 50.915-53.707 60.678z"></path>
<path d="M738.83 893.32c14.501 9.622 27.81-25.586 35.172-51.421-13.806 22.282-49.063 36.772-35.172 51.421z"></path>
<path d="M766.877 883.65c14.501 9.622 22.666-22.243 26.168-42.166-9.945 17.142-40.060 27.518-26.168 42.166z"></path>
<path d="M794.022 866.701c14.501 9.622 32.704-17.099 28.485-43.447-5.566 27.17-42.376 28.799-28.485 43.447z"></path>
<path d="M738.978 941.688c7.143 18.17 82.263-15.886 94.856-38.606-24.133 20.376-101.848 17.604-94.856 38.606z"></path>
<path d="M140.144 436.499c-2.381-23.628 15.407-66.592 2.782-89.496-1.721-3.146 3.779-11.501 7.331-6.432 5.551 8.091 11.259 31.146 13.647 22.634 2.53-9.257 2.918-25.63 11.123-28.809 5.235-1.863 12.637-3.081 10.618 5.148-2.006 7.914-6.496 18.842-1.521 19.546 2.886 0.428 11.201-10.771 18.202-15.945 5.642-4.615 14.061 2.607 5.811 9.513-26.814 22.246-52.794 32.259-67.993 83.84z"></path>
<path d="M91.972 792.089c-3.146-0.603-7.457-1.672-3.535 3.217 31.327 38.555 40.391 49.179 86.073 43.755 46.143-6.068 57.131-18.537 89.439-36.65 17.257-10.113 42.49-12.359 61.616-6.092 8.904 2.912 14.29 3.088 7.909-3.297-6.386-6.376-13.928-15.052-21.782-21.026-17.201-13.194-46.375-18.915-70.186-14.667-33.674 5.276-61.498 26.696-94.747 34.787-17.47 3.984-36.633 3.383-54.787-0.026z"></path>
<path d="M355.617 861c5.826 0.724 9.516 11.995 12.382 4.365 4.864-12.357 1.456-22.187-4.007-21.1-6.452 1.718-17.365 16.169-8.376 16.735z"></path>
<path d="M342.632 871.504c15.625 3.553 15.411-34.047-0.549-49.985 7.027 24.152-11.743 46.228 0.549 49.985z"></path>
<path d="M336.572 871.167c1.031 17.87-43.903-2.335-55.449-16.236 26.548 11.268 54.14 1.941 55.449 16.236z"></path>
<path d="M316.877 845.661c1.607 17.312-38.966 2.091-50.959-11.429 26.644 8.598 49.186-2.816 50.959 11.429z"></path>
<path d="M324.355 848.102c15.625 3.553 13.094-35.335-2.093-48.7 7.288 25.952-10.199 44.942 2.093 48.7z"></path>
<path d="M307.881 824.442c15.625 3.553 6.658-29.931-4.924-43.302 1.881 24.412-5.82 41.344 4.924 43.302z"></path>
<path d="M299.628 824.313c1.61 17.827-29.955 4.141-42.205-12.723 26.384 8.603 40.433-1.522 42.205 12.723z"></path>
<path d="M291.030 810.794c10.237-7.354-0.623-26.801-20.107-25.597 1.906 11.745 8.638 32.403 20.107 25.597z"></path>
<path d="M367.99 891.393c1.031 17.87-43.908 8.981-58.025-10.060 28.347 5.352 56.716-4.235 58.025 10.060z"></path>
<path d="M152.797 585.916c21.971 0.106 25.747-29.316 25.747-37.546-10.814 2.054-29.866 20.060-25.747 37.546z"></path>
<path d="M189.476 859.444c1.61 17.827-47.454-1.777-59.705-18.642 26.384 8.603 57.932 4.397 59.705 18.642z"></path>
<path d="M219.548 867.058c10.237-7.354-10.662-26.288-27.311-30.74 1.906 11.745 15.842 37.547 27.311 30.74z"></path>
<path d="M222.682 879.39c1.096 16.028-52.611 7.237-66.659-7.572 46.211 8.345 65.146-6.156 66.659 7.572z"></path>
<path d="M247.818 890.083c5.961 14.888-45.588 11.255-63.685 2.599 29.243-0.254 59.586-12.969 63.685-2.599z"></path>
<path d="M271.932 900.951c5.706 13.342-41.982 13.054-65.225 5.678 30.788-0.252 59.582-18.88 65.225-5.678z"></path>
<path d="M306.606 908.116c8.445 15.786-41.857 17.324-58.18 9.551 29.084-3.997 50.983-21.976 58.18-9.551z"></path>
<path d="M247.701 881.1c-16.004 10.082-15.146-19.642-27.875-40.227 19.999 18.195 38.721 30.614 27.875 40.227z"></path>
<path d="M276.078 891.783c-13.424 11.881-24.156-28.91-36.374-51.797 19.751 21.79 48.761 41.93 36.374 51.797z"></path>
<path d="M313.559 903.146c-11.368 13.165-44.239-38.676-56.194-65.687 18.2 21.025 65.236 54.53 56.194 65.687z"></path>
<path d="M12.76 536.026c-1.957-2.535-7.578 0.066-6.175 6.175 1.305 8.269 13.51 50.719 34.485 65.321 14.959 10.771 93.584 28.118 129.23 35.485 19.618 3.944 36.047 13.72 48.917 29.323-5.325-20.402-9.602-35.518-16.475-54.004-6.682-16.248-24.389-34.023-42.729-34.978-34.064-1.224-78.15-4.121-110.184-18.005-16.535-6.9-26.432-16.221-37.069-29.316z"></path>
<path d="M208 704.029c10.74 7.901 22.594-20.412 8.95-47.327-0.428 25.908-21.040 34.603-8.95 47.327z"></path>
<path d="M218.297 730.001c14.854 4.556 19.505-21.697 9.723-42.695 1.632 22.561-23.353 36.149-9.723 42.695z"></path>
<path d="M229.616 750.824c14.345 7.135 19.775-19.387 9.465-39.082 1.125 25.126-20.522 32.533-9.465 39.082z"></path>
<path d="M223.718 752.445c-5.684 16.975-38.652-14.634-44.208-31.824 20.462 20.309 48.305 18.065 44.208 31.824z"></path>
<path d="M208.787 726.472c-6.46 16.972-47.917-26.726-57.080-47.767 20.462 20.309 61.696 35.807 57.080 47.767z"></path>
<path d="M200.55 701.008c-6.458 19.289-51.525-32.123-64.288-50.343 21.496 20.053 69.156 36.327 64.288 50.343z"></path>
<path d="M199.117 681.958c15.868-3.084-0.901-16.286-20.351-37.744-0.909 22.594 2.802 38.391 20.351 37.744z"></path>
<path d="M172.347 669.097c6.852-7.455-6.567-10.63-23.186-29.26-2.452 12.564 15.414 35.565 23.186 29.26z"></path>
<path d="M249.178 752.88c8.684 5.076 14.627-12.7 3.805-28.795-2.476 17.411-11.767 22.247-3.805 28.795z"></path>
<path d="M60.532 640.707c-18.438 11.044-47.726-33.021-55.536-51.15 16.178 20.807 59.018 39.812 55.536 51.15z"></path>
<path d="M76.233 666.421c-10.203 11.3-42.317-19.391-53.477-34.946 17.213 14.891 57.988 16.663 53.477 34.946z"></path>
<path d="M93.715 689.436c-3.367 15.436-50.232-19.262-61.189-35.687 20.204 19.022 64.258 17.303 61.189 35.687z"></path>
<path d="M86.51 706.146c-7.23 13.898-45.348-20.537-54.498-38.504 23.289 20.304 60.398 24.758 54.498 38.504z"></path>
<path d="M66.927 638.439c12.028-12.669 6.905-18.606-1.864-38.573-4.793 20.503-12.022 28.687 1.864 38.573z"></path>
<path d="M82.884 662.361c21.814 0.96 0.211-25.559-4.948-47.831 1.897 25.384-5.591 45.396 4.948 47.831z"></path>
<path d="M96.79 683.451c15.118-3.413 10.757-24.783-0.831-50.663 2.408 27.962-12.799 44.117 0.831 50.663z"></path>
<path d="M91.658 725.699c-5.684 16.975-48.691-22.349-55.531-37.228 21.749 18.251 59.372 24.499 55.531 37.228z"></path>
<path d="M117.396 752.184c-6.453 16.984-51.518-17.453-65.307-36.195 27.152 21.34 68.64 19.358 65.307 36.195z"></path>
<path d="M143.655 778.931c-7.224 23.663-54.352-14.113-68.4-32.595 29.986 22.876 72.241 15.755 68.4 32.595z"></path>
<path d="M99.364 718.169c12.801 6.618 17.971-29.669 10.75-55.289 0.097 27.96-25.671 48.745-10.75 55.289z"></path>
<path d="M121.244 746.969c15.377 4.563 10.503-34.55-2.637-59.919-1.703 25.136-13.053 49.005 2.637 59.919z"></path>
<path d="M148.529 773.973c17.179 0.961 5.359-33.528-8.812-52.978 2.412 25.388-5.587 50.033 8.812 52.978z"></path>
<path d="M118.429 788.703c-5.164 8.743-17.796-7.426-38.538-19.225 18.655 4.874 40.832 11.124 38.538 19.225z"></path>
<path d="M108.571 498.026c16.034-11.85 3.802-34.017 0-55.097-5.16 19.994-18.742 46.23 0 55.097z"></path>
<path d="M108.032 527.605c-24.087-2.89-20.462-34.010-21.187-53.734 7.242 26.775 26.986 31.298 21.187 53.734z"></path>
<path d="M111.834 523.537c20.377-1.179 19.296-24.339 20.383-47.769-10.326 21.534-22.557 24.879-20.383 47.769z"></path>
<path d="M111.023 552.307c-15.849 1.264-24.087-14.293-27.711-38.54 15.032 22.344 28.706 15.379 27.711 38.54z"></path>
<path d="M116.723 550.411c20.377 2.621 17.12-21.080 16.304-38.547-6.247 16.649-22.821 21.896-16.304 38.547z"></path>
<path d="M84.94 540.365c1.628 15.471 11.414 42.068 27.17 36.097 6.517-19-13.859-22.799-27.17-36.097z"></path>
<path d="M117 578.094c-7.064-13.569 16.027-20.363 20.916-38 2.807 25.241 0.455 41.799-20.916 38z"></path>
<path d="M51.275 417.291c12.686-13.648 1.483-35.3-2.32-56.381-5.16 19.994-14.103 46.486 2.32 56.381z"></path>
<path d="M50.873 442.696c-22.281 2.258-27.671-43.009-29.939-62.477 7.242 26.775 32.903 39.014 29.939 62.477z"></path>
<path d="M55.459 442.288c15.743-8.124 12.086-25.623 17.036-38.77-10.584 16.136-20.238 18.447-17.036 38.77z"></path>
<path d="M51.083 471.895c-23.308 1.995-37.194-48.158-37.919-67.883 7.242 26.775 40.633 41.331 37.919 67.883z"></path>
<path d="M55.506 471.165c21.918-5.037 19.296-19.197 16.007-42.114-6.978 23.082-19.21 18.19-16.007 42.114z"></path>
<path d="M50.774 500.857c-25.629 4.345-23.829-36.157-44.179-65.538 17.602 21.825 49.293 49.323 44.179 65.538z"></path>
<path d="M56.566 499.475c19.348 0.56 21.24-28.54 20.165-40.344-4.449 11.759-27.197 22.923-20.165 40.344z"></path>
<path d="M10.733 469.638c9.608 31.16 23.256 62.385 40.041 60.015 8.059-17.716-15.922-19.974-40.041-60.015z"></path>
<path d="M56.843 525.116c-7.064-13.569 16.027-20.363 20.916-38 2.807 25.241 0.455 41.799-20.916 38z"></path>
<path d="M17.349 505.244c13.72 28.072 19.909 60.331 38.749 55.644 7.031-21.831-20.805-26.4-38.749-55.644z"></path>
<path d="M60.007 555.581c-8.092-14.852 14.999-20.106 20.66-40.574 3.065 26.788 0.198 45.913-20.66 40.574z"></path>
<path d="M99.512 365.57c13.523 3.653 27.704-11.514 22.789-34.215-15.454 3.845-22.544 17.861-22.789 34.215z"></path>
<path d="M56.249 354.209c1.18 6.386 8.955 6.965 6.695-2.054-1.885-7.321-2.207-12.824 0-18.776 3.025-7.459 2.017-20.159-0.257-25.458-2.293-5.596-9.891-2.317-6.695 2.061 3.519 5.075 3.703 15.635 1.285 20.567-3.183 7.282-2.32 16.946-1.028 23.661z"></path>
<path d="M102.989 329.931c-1.282 9.974-9.732 10.878-7.276-3.208 2.048-11.434 2.399-20.030 0-29.325-3.287-11.65-2.191-31.484 0.279-39.762 2.492-8.74 10.749-3.619 7.276 3.218-3.824 7.927-4.025 24.42-1.396 32.122 3.459 11.372 2.521 26.467 1.117 36.955z"></path>
<path d="M165.961 429.597c-5.224 7.678-13.552 3.221-8.834-9.105 3.984-8.534 4.412-19.11 8.85-25.35 6.206-9.459 16.718-17.344 22.686-23.065 6.165-6.095 11.283-0.222 5.63 5.002-6.866 6.863-14.313 15.405-18.453 21.874-7.719 12.569-4.321 22.597-9.879 30.644z"></path>
<path d="M79.159 389.859c-0.62 10.838 8.112 13.465 7.724-2.253-0.395-16.41-12.020-31.423-4.89-56.403 3.75-12.221 3.816-34.616 1.542-46.519-1.997-11.806-10.405-4.092-7.209 5.101 3.519 10.659-0.659 31.105-3.348 41.39-8.073 29.944 6.656 44.528 6.181 58.685z"></path>
<path d="M129.661 669.553c13.457 6.61 23.672 23.121 24.343 36.571 1.14 15.478 3.374 28.546 10.333 39.547-11.078-3.081-16.383-20.718-17.958-37.612-1.595-17.486-11.025-25.070-16.719-38.507z"></path>
<path d="M157.694 701.922c9.312 17.172 22.333 23.721 22.999 36.464 1.128 14.664 2.243 15.413 6.221 29.834-10.961-2.919-13.719-3.874-16.68-25.817-1.826-15.419-14.182-26.297-12.54-40.481z"></path>
<path d="M665.881 989.424c0.257 6.511 1.035 11.745 4.897 16.973-22.485-8.999-54.229-4.18-75.943 5.919-9.687 4.621-21.404-5.28-10.043-14.661 16.158-13.082 53.543-5.662 81.090-8.229zM348.666 989.082c19.612-0.198 51.936 0.092 60.331 0.211 12.613 0.178 22.584 8.361 27.737 15.813 2.999 4.2 1.628 16.34-15.348 9.329-24.693-9.947-50.934-18.348-75.376-8.236 2.26-5.359 2.972-10.981 2.655-17.117zM369.299 869.815c-6.821-2.936-14.741-0.112-21.845 7.361-23.869 23.364-51.876 46.131-74.48 63.84-8.435 7.321-17.054 20.454 18.927 33.582 1.305 0.494 27.533 10.205 44.153 10.823 6.788-0.191 6.768 9.934 5.51 12.634-2.867 5.392-0.79 7.452-6.583 12.641-6.036 5.089 0.646 11.679 5.391 7.202 20.258-17.571 53.108-6.327 84.766 3.957 7.479 2.068 21.167 1.488 21.048-8.822 0.132-11.232 8.277-19.171 13.259-19.46 12.923 2.238 76.78 2.95 96.451 0.56 11.466-1.488 12.159 15.695 18.294 22.469 4.231 4.49 20.514 5.681 31.678 0.757 22.070-10.244 55.699-10.244 69.405-0.454 5.634 4.286 10.083 0.809 6.88-3.542-4.125-5.952-4.033-8.71-6.082-13.41-5.146-10.461-1.041-13.022 4.356-13.779 60.977-7.854 80.437-28.638 61.794-45.584-24.073-21.093-50.875-42.299-73.966-67.224-6.261-6.61-10.399-9.263-23.427-3.851-39.836 18.124-90.402 31.338-139.886 32.305-46.044 0.395-109.354-20.882-135.641-32.002z"></path>
<path d="M791.431 753.854c2.761 9.5 40.792-7.861 60.121-45.841-25.312 27.572-66.282 27.302-60.121 45.841z"></path>
<path d="M854.792 696.116c-11.579 16.081-27.038 27.719-27.734 40.463-1.182 14.664-2.35 15.413-6.516 29.834 11.483-2.919 14.372-3.874 17.474-25.817 1.913-15.419 18.498-30.295 16.777-44.479z"></path>
<path d="M873.605 673.926c-14.097 6.61-17.3 17.558-17.859 31.113-0.276 15.695-4.259 27.822-11.55 38.823 14.518 2.008 17.162-20.718 18.812-37.612 1.671-17.486 4.632-18.888 10.597-32.325z"></path>
<path d="M912.983 329.208c1.261 9.974 9.579 10.878 7.161-3.208-2.016-11.434-2.361-20.030 0-29.325 3.235-11.65 2.157-31.484-0.274-39.762-2.453-8.74-10.58-3.619-7.161 3.218 3.764 7.927 3.962 24.42 1.374 32.122-3.405 11.372-2.481 26.467-1.1 36.955z"></path>
<path d="M936.436 389.136c0.61 10.838-7.984 13.465-7.602-2.253 0.389-16.41 11.831-31.423 4.813-56.403-3.69-12.221-3.755-34.616-1.518-46.519 1.965-11.806 10.242-4.092 7.096 5.101-3.464 10.659 0.649 31.105 3.295 41.39 7.945 29.944-6.551 44.528-6.084 58.685z"></path>
<path d="M958.987 353.482c-1.161 6.386-8.815 6.965-6.59-2.054 1.855-7.321 2.172-12.824 0-18.776-2.977-7.459-1.985-20.159 0.252-25.458 2.257-5.596 9.736-2.317 6.59 2.061-3.464 5.075-3.645 15.635-1.264 20.567 3.132 7.282 2.283 16.946 1.012 23.661z"></path>
<path d="M912.113 365.963c-11.252 4.772-25.794-27.177-15.045-33.17 8.333-2.095 27.41 27.093 15.045 33.17z"></path>
<path d="M849.004 429.194c5.040 7.678 13.076 3.221 8.523-9.105-3.844-8.534-4.257-19.109-8.538-25.35-5.989-9.459-16.132-17.344-21.889-23.065-5.95-6.095-10.888-0.222-5.433 5.002 6.624 6.863 13.811 15.405 17.805 21.874 7.448 12.569 4.169 22.597 9.533 30.644z"></path>
<path d="M835.106 437.422c5.040 7.678 15.336 2.982 7.493-7.563-6.427-8.534-15.587-15.507-16.262-24.322-0.534-11.18-6.872-28.141-12.629-33.862-5.95-6.095-12.822 2.479-6.463 6.543 7.146 4.806 11.788 24.561 11.632 32.162 0.241 11.029 10.865 18.995 16.228 27.044z"></path>
<path d="M392.728 794.228c15.275 12.18 29.674 26.005 33.984 43.207 4.495 16.025 7.209 28.289 17.51 44.235-16.132-10.29-22.538-25.833-27.289-42.7-4.171-16.57-13.733-28.961-24.205-44.742z"></path>
<path d="M616.015 654.285l46.084 0.007c0.172 17.4 10.379 36.091 24.713 46.802h-88.306c13.819-12.515 17.595-27.348 17.51-46.808z"></path>
<path d="M341.338 41.046c-0.375-7.598 11.414-8.179 10.063 2.27-1.726 13.018 24.594 45.972 26.775 66.292 1.463 13.627-8.013 25.555-17.398 32.978-11.506 8.904-29.2 7.68-37.477 2.572-5.009-4.028-9.575-17.819-5.826-23.278 1.324-1.837 7.322 20.242 20.528 20.155 17.971-0.116 32.528-13.602 33.062-25.631 0.923-20.949-29.398-54.059-29.727-75.36z"></path>
<path d="M393.933 92.783c2.972-2.122 7.717 7.142 4.369 9.456-2.787 1.854-8.231-6.885-4.369-9.456z"></path>
<path d="M401.9 73.994c-1.503 0.728-4.488-0.306-3.599-1.58 4.204-6 13.167-15.034 19.664-18.186 1.997-0.969 5.49 2.552 4.283 4.277-3.888 5.549-13.351 12.096-20.35 15.49z"></path>
<path d="M471.379 18.929c1.668-3.477 11.678-7.408 14.227-9.758 2.359-2.413 3.486 2.042 2.478 4.144-1.668 3.475-10.307 9.344-14.096 9.5-2.037 0.085-3.617-1.786-2.61-3.887z"></path>
<path d="M495.148 20.039c2.168-6.103 9.16-15.354 13.971-18.4 2.471-1.562 6.907-0.333 6.076 2.006-1.838 5.178-10.392 14.225-16.145 18.487-1.746 1.553-4.402-0.68-3.901-2.094z"></path>
<path d="M474.759 35.315c-1.45 0.724-0.666 3.81 0.731 4.276 2.972 0.989 8.383 1.182 10.833-0.17 3.559-2.191 1.937-15.674-2.827-8.471-3.196 4.443-5.529 3.016-8.739 4.365z"></path>
<path d="M434.54 66.25c-7.269-5.655 1.957-13.579 9.555-8.046 14.801 11.155-22.083 53.887-42.149 73.861-3.67 3.912-6.893-5.941-2.187-10.184 14.386-12.191 27.856-26.756 37.22-41.803 1.805-2.897 3.533-9.141-2.438-13.828z"></path>
<path d="M518.793 29.495c0.903-5.413-8.765 0.113-8.942-7.061-0.092-3.797 10.564-6.462 15.019-2.094 7.525 7.627 1.898 20.491-10.617 21.302-10.432 0.46-27.836 14.797-25.187 17.811 3.012 3.721 30.063 6.179 45.794 3.718 9.74-1.365 7.697 7.338-2.28 8.515-9.641 1.11-17.497 0.081-26.505 2.91-10.603 3.027-15.229 17.245-21.121 22.551-1.311 0.922-4.85-4.661-3.506-6.761 4.244-6.631 11.012-16.78 18.459-19.685 4.698-1.901-12.956-2.501-18.59-4.107-4.468-1.345-3.169-7.018-1.456-10.184 2.273-4.933 18.914-21.581 25.622-21.309 6.3 0.266 12.686-1.566 13.311-5.606z"></path>
<path d="M546.846 30.95c3.13-2.758 4.731-7.375 8.013-10.184 1.799-1.8 4.672 0.357 4.191 4.702-0.402 3.422-5.002 6.37-8.092 8.942-2.518 1.883-5.444-2.184-4.112-3.461z"></path>
<path d="M582.532 18.239c4.659-0.514 5.819 8.471 0.724 9.926-3.091 1.029-5.793-9.396-0.724-9.926z"></path>
<path d="M570.756 46.013c-0.073 7.736 3.75 7.024 11.045 6.76 7.077-0.266 13.305 0.183 13.278-6.804-0.033-7.242-4.014-13.577-5.18-8.649-1.028 4.629-1.845 12.21-4.541 8.906-2.544-2.838-1.536-3.46-5.912 1.198-2.425 2.567-2.702-1.244-4.158-3.637-1.015-1.417-4.528 1.145-4.534 2.226z"></path>
<path d="M519.907 85.508c-1.739 10.238-0.145 24.572 5.1 24.733 6.484 0.211 19.902-22.382 26.254-34.102 3.809-6.54 10.352-7.684 7.624-0.86-4.132 10.528-3.763 33.052-0.132 39.671 1.951 3.565 16.35-3.269 18.676-8.348 4.231-9.229 0.79-26.241 2.273-36.63 0.719-6.821 6.965-8.246 6.636-1.924-0.62 11.31-1.693 32.046-0.896 41.464 0.474 5.414 15.968 13.403 18.459-2.991 1.311-10.319 6.629-20.494-0.257-31.926-4.27-7.148 6.267-6.252 11.948 3.513 3.974 6.645-3.348 17.643-3.091 26.144 0.659 13.078-9.522 20.508-16.91 20.663-6.603 0.133-10.906-7.97-16.317-8.083-6.003-0.382-12.172 9.331-17.134 8.986-19.23-1.312-9.048-29.393-14.907-29.737-6.517-0.383-14.201 27.522-22.228 26.526-7.915-0.949-16.105-22.743-12.811-31.963 2.979-8.579 8.593-10.59 7.71-5.136z"></path>
<path d="M613.030 41.222c-9.384-5.718 0.593-20.589 5.18-15.365 8.857 10.597 17.786 35.75 24.027 37.827 3.954 1.317 3.769-18.591 6.557-27.642 1.799-6.686 9.891-4.504 8.343 4.064-0.527 2.86-10.57 35.387-9.8 36.674 6.96 13.898 13.845 28.003 18.201 42.919 1.799 6.43-5.931 2.1-6.854 0.764-4.936-7.371-13.576-35.557-13.576-34.271-3.974 19.828-4.91 25.681-9.127 42.53-1.285 5.401-9.239 4.417-7.446-5.091 1.726-7.816 13.101-46.251 12.462-47.365-8.942-15.77-17.12-28.244-27.968-35.043z"></path>
<path d="M629.946 132.704c-2.617-0.296-6.676 5.814 6.353 8.215 17.411 3.148 36.469-2.709 42.308-19.766 6.689-20.316 11.111-39.549 14.604-46.806 4.363-8.457 9.944-7.775 5.826-20.118-2.906-8.885-8.33-6.204-9.47-1.455-3.045 12.95-14.597 54.845-18.201 62.561-6.801 14.079-20.508 19.648-41.418 17.371z"></path>
<path d="M664.814 65.868c-1.865-3.998-6.214-0.903-5.437 3.468 0.461 3.952 3.67 6.099 6.893 5.989 3.816-0.132 11.888 0.128 11.908-6.202 0.013-4.447-3.486-8.162-6.082-3.255-2.485 4.443-5.68 3.977-7.282 0z"></path>
<path d="M669.184 49.137c-1.338 0.928-0.139 5.873 1.456 5.819 5.687-0.19 13.746-2.002 18.063-5.004 1.265-0.878 0.738-3.867-1.061-3.806-5.483 0.183-14.208 0.039-18.459 2.991z"></path>
<path d="M717.494 61.591c4.118-6.43 15.48-7.084 11.394 2.095-2.893 6.324-31.177 60.921-35.039 67.866-4.211 7.808-7.658 3.942-4.665-2.139 4.027-7.824 27.019-65.92 28.311-67.821z"></path>
<path d="M674.923 142.852c-1.205-4.345-7.954-10.77-7.196 0.852 1.344 21.099 30.36 14.43 39.144 6.932 7.973-7.060 1.055 23.819 11.651 27.123 5.839 1.87 16.831-6.089 22.235-13.095 14.986-19.426 24.521-47.273 38.934-66.452 5.444-7.499-2.979-12.852-6.386-6.885-12.534 20.995-28.099 63.843-45.102 74.97-13.859 8.862-9.753-11.409-10.235-17.499-0.607-4.468-6.056-11.040-13.325-5.007-5.080 3.966-12.976 7.192-20.126 6.546-4.145-0.231-7.644-0.158-9.595-7.487z"></path>
<path d="M726.707 103.694c0.152-1.191-6.135-1.731-5.826 4.365 0.218 4.513 5.621 5.738 6.55 5.092 8.501-6.176-1.805-3.097-0.724-9.457z"></path>
<path d="M714.324 128.428c-1.674 0.391-3.209 5.73 0.731 6.032 3.604 0.256 17.727-1.257 21.628-1.029 2.524-0.095 3.486-4.915-1.924-4.658-6.563 0.328-15.19-1.314-20.435-0.345z"></path>
<path d="M807.83 122.151c5.793-21.685 19.823 3.345 7.466 15.689-19.078 18.667-24.824 54.304-55.092 59.67-8.158 1.751-22.518-3.667-26.775-6.689-1.661-1.179 1.074-8.92 6.175-5.141 7.375 5.754 22.604 7.051 30.643 0.514 17.2-16.867 31.204-39.202 37.583-64.042z"></path>
<path d="M493.356 170.314c-1.364 1.567-5.535 1.31-5.912 3.509-1.641 8.157 0 12.291-1.799 20.145-1.72 7.518-6.946 7.802-6.59 1.673 0.474-7.946 7.031-19.164 2.399-19.934-3.085-0.724-5.463-4.846-2.273-6.88 6.023-4.174 9.259-3.536 13.397-2.278 1.443 0.441 1.812 2.561 0.777 3.766z"></path>
<path d="M489.112 159.668c-7.987 6.978-15.394 9.83-22.742 18.651-3.005 3.614-2.919 8.651-4.712 13.259-1.799 4.892-7.585 5.853-9.377 4.832-2.999-1.969-2.564-11.040-5.912-6.155-2.84 4.497-4.672 10.692-8.871 10.613-3.796-0.079-10.959-7.835-7.328-8.21 12.422-1.27 12.27-11.205 16.923-11.857 5.219-0.698 5.562 8.203 8.785 6.419 2.531-1.297 3.723-11.666 6.472-14.464 8.422-8.598 15.085-13.141 23.678-19.46 4.349-3.463 7.453 2.785 3.085 6.373z"></path>
<path d="M518.24 186.403c-6.393 1.29-5.305 9.5-3.427 10.52 3.098 1.442 7.889 2.048 9.681-7.394 0.837-3.878 1.595 19.277 10.102 10.355 4.897-5.405 17.029 0.981 22.109-5.82 3.637-4.53 4.758-7.69 1.924-14.378-0.823-2.035-5.806-1.034-5.522 3.904 0.25 4.16-2.952 9.296-7.117 8.42-2.023-0.368 1.14-10.178-0.89-12.838-1.121-1.462-2.82-1.303-3.934 0.211-1.562 2.12 1.569 11.521-3.566 12.758-6.478 1.495-3.085-6.287-5.826-7.709-8.818-4.444-9.668 1.153-13.536 1.969z"></path>
<path d="M568.152 170.616c4.685-1.316 3.222-1.323 10.597-7.354 2.873-2.172 3.44 4.187 3.136 6.702-0.534 4.273-5.614 1.257-7.19 5.017-2.306 4.885-1.371 16.248-2.142 20.877-0.527 2.377-4.343 2.172-4.705 0.296-1.094-5.642 0.771-11.166 0.593-18.223-0.059-2.396-3.493-6.155-0.29-7.314z"></path>
<path d="M546.129 145.154c-1.134 5.106-1.048 9.313-1.048 12.815 0.257 2.831 5.437 1.007 5.417 0.646-0.257-4.484 0.764-10.685-0.56-12.414-0.719-0.933-3.546-2.011-3.809-1.047z"></path>
<path d="M372.581 36.638c2.24 0.107 8.383 8.057 7.98 10.544-0.276 1.173-6.57-0.175-8.494-1.8-1.423-1.203-0.85-8.809 0.514-8.744zM342.966 94.238c-5.614 3.060 0.89 9.098 5.094 6.546 15.783-10.209 39.468-20.932 44.416-41.156 1.588-6.85 7.96-17.349 14.010-19.692 5.845-2.264 14.333 10.565 19.876 0.47 3.249-5.77 14.637 3.787 17.385-2.388 3.348-7.457 1.753-11.564 1.891-18.708-0.243-4.679-3.822-6.077-6.419 1.499-1.351 3.431 0.238 6.895-0.863 8.685-0.837 1.361-3.447 2.678-4.963 1.543-1.397-1.047-0.428-3.97-3.776-5.261-1.298-0.65-3.381-1.191-4.283 0.47-3.974 7.080-6.175 13.681-11.737 6.158-4.956-6.48-7.466-17.683-11.098-2.352-1.305 5.411-9.536 13.263-14.392 13.263-6.062 0-4.541-15.948-17.859-13.521-6.847 1.459-6.373 14.547-5.351 19.385 1.68 6.723 21.688 1.894 20.693 6.289-3.42 15.272-24.64 29.788-42.624 38.768z"></path>
<path d="M217.721 166.982c-0.85 2.555 2.551 9.493 6.076 10.007 3.46 0.256 5.226-7.492 4.112-10.007-0.823-1.85-9.582-1.81-10.188 0z"></path>
<path d="M236.095 193.895c-2.22-2.39-8.765 4.023-3.473 8.558 2.972 2.403 13.859 5.892 16.837 0.816 4.033-6.53-3.974-30.245-0.428-33.378 2.768-2.449 15.599 15.84 21.931 17.156 14.88 2.061 11.308-25.452 27.342-23.582 10.926 1.455 12.126-12.186 10.603-20.703-1.219-8.173-14.465-19.97-20.554-25.247-8.013-6.664-11.585 4.913-6.557 8.73 6.472 5.177 17.852 15.635 19.664 22.553 0.856 3.265-7.908 9.757-11.137 7.999-7.453-4.062-14.386-21.481-20.903-25.46-2.22-1.355-7.684 1.707-5.054 7.142 2.959 5.823 16.027 14.842 16.791 21.056 0.692 5.668-5.826 17.927-10.102 17.927-4.705 0-16.699-14.813-20.442-21.785-1.871-3.338-8.357-3.016-9.035 1.594-1.074 6.92 1.002 21.561 2.655 30.633 1.311 8.591-4.844 9.026-8.139 5.991z"></path>
<path d="M213.603 146.665c-1.871 2.114 4.369 6.248 5.608 5.175 2.405-2.081 11.744-12.716 9.944-16.433-1.602-3.315-14.445-10.574-16.535-6.979-3.875 6.22 12.106 9.007 9.602 10.83-1.232 0.707-5.628 3.739-8.62 7.407z"></path>
<path d="M236.648 100.057c0 0 4.014 13.717 7.282 8.002 2.642-3.961-7.282-8.002-7.282-8.002z"></path>
<path d="M243.205 121.88c-1.47 0.802-5.608 4.078-2.913 5.82 4.264 2.52 15.862 4.515 13.358-3.725-1.522-4.853 17.49 0.135 12.857-13.006-1.212-3.636-6.946-8.885-9.767-9.626-1.792-0.471-7.882 2.865-4.073 4.703 2.781 1.438 11.17 6.363 8.053 9.588-3.539 3.374-6.003-1.514-10.405-0.726-2.214 0.421-0.771 6.716-2.017 8.428-0.699 0.955-3.895-2.108-5.094-1.455z"></path>
<path d="M273.4 69.718c-2.399 1.198-6.695 7.695-6.854 10.699-0.086 1.603 1.674 3.806 3.045 3.122 2.518-1.256 6.406-7.406 6.55-10.228 0.092-1.785-1.252-4.336-2.741-3.594z"></path>
<path d="M289.077 68.051c-4.632-5.658 4.916-14.058 9.213-2.733 2.597 7.104 30.274 43.492 35.935 55.837 4.007 8.355-0.145 11.806-5.1 5.82-14.017-17.866-25.517-40.136-40.048-58.923z"></path>
<path d="M317.474 68.777c4.936-5.342 15.012-16.253 12.297-22.337-2.083-5.233-8.205-4.713-9.253-3.506-5.991 7.143 4.257 5.351 2.781 7.79-3.052 5.722-6.089 8.873-7.664 14.372-0.369 1.289 0.949 4.643 1.838 3.68z"></path>
<path d="M746.556 86.659c-3.546-2.869 3.486-16.775 8.244-11.316 13.062 15.1 19.131 64.125 22.906 100.817 0 0-5.872 4.892-5.918 4.114 0-19.546-7.862-79.341-25.233-93.615z"></path>
<path d="M754.537 172.308c2.359-6.563 33.728-59.159 37.846-70.732 2.109-5.58 11.111 9.57 2.32 17.746-7.724 6.944-30.511 44.276-34.763 57.358-1.957 5.906-7.895 3.095-5.404-4.372z"></path>
<path d="M453.645 38.952c-4.224-9.702 6.34-13.292 7.921-6.378 7.342 31.868 24.917 55.996 38.294 77.667 4.027 6.775 0.797 10.811-8.995 4.577-6.781-4.644-13.668-21.582-17.003-22.25-6.036-1.123-20.481 27.515-50.031 19.341-7.644-2.134-7.137-24.843-7.282-34.873-0.323-4.702 4.877-5.945 5.054 0.47 0.27 9.248-0.013 28.459 11.829 29.105 9.654 0.539 31.038-13.097 35.546-23.756 4.014-10.959-10.768-32.743-15.335-43.904z"></path>
<path d="M451.29 806.107c2.761 6.129 6.794 5.86 6.188-0.007-1.173-7.511-3.447-17.894-4.731-26.913-0.731-7.637-8.633-6.162-6.55 1.817 2.636 8.611 2.083 18.058 5.094 25.103z"></path>
<path d="M474.948 806.462c-0.033 3.108 4.784 2.824 4.738 0.368-0.501-7.815-1.094-18.375 1.088-22.187 1.7-2.976 8.56-0.875 14.926-1.455 2.537-0.375 2.010-7.347-3.275-6.906-6.234 0.56-22.67-1.462-23.665 4.358-1.43 10.468 6.478-0.626 6.188 25.82z"></path>
<path d="M522.64 776.283c3.987 2.87 3.434 6.603-1.456 5.451-5.826-1.455-9.753-0.988-9.674 2.205 0.086 3.14 2.544 3.752 6.122 7.235 3.427 3.588-2.103 3.002-6.34 10.349-3.611 6.083 3.756 6.887 12.442 4.582 2.214-0.632 5.12 3.173-0.362 6.301-3.862 2.061-14.624 4.582-17.299-3.219-5.080-13.496 8.507-15.366 2.781-18.961-3.123-1.883-4.25-4.72-3.683-8.486 1.212-8.69 14.168-7.538 17.47-5.458z"></path>
<path d="M540.617 806.041c5.239-9.553 8.851-16.709 10.314-24.819 1.272-7.321 6.537-8.025 7.644-1.817 1.423 8.243 6.148 16.413 11.881 23.898 3.361 4.641-3.401 8.73-6.056 5.115-4.87-6.175-5.074-14.78-7.947-14.72-3.315 0.066-7.077 9.592-10.617 16.623-1.028 2.041-7.309-0.007-5.219-4.279z"></path>
<path d="M287.267 935.65c-2.537 1.936-2.366 7.742 2.57 9.77 46.031 16.499 90.468 46.986 218.313 45.782 129.071-1.217 174.431-30.968 215.737-44.748 5.503-2.094 10.683-6.353 3.604-12.344-23.21-18.954-48.298-34.188-64.879-57.612-2.939-4.213-10.972-1.823-15.961 0-49.266 17.288-94.784 29.402-142.106 29.316-46.209-0.086-94.375-12.798-137.73-30.6-4.151-1.771-10.952 0.224-14.161 3.338-20.119 20.020-41.998 39.448-65.386 57.098z"></path>
<path d="M349.312 904.010c-5.542-3.569-8.040 1.073-4.118 5.919 5.087 5.576 13.318 8.933 21.878 11.317 4.996 1.389 15.308-0.362 20.6 0.256 4.118 0.514 6.445 8.816 13.905 8.486 7.525-0.322 12.356-20.317 12.613-30.35 0.342-6.649-8.857-2.403-7.98 0.263 2.412 6.61-2.004 21.357-6.695 21.344-3.453-0.211-7.157-7.361-12.356-8.229-4.066-0.672-10.235 0.474-14.419 0.514-12.238 0.119-17.51-5.978-23.427-9.52z"></path>
<path d="M359.605 898.611c6.53 3.259 12.238-2.575 15.968 1.547 9.529 10.803 21.787-5.174 7.466-4.628-5.793 0.224-6.695-4.378-16.738-3.351-5.345 0.685-9.82 4.615-6.695 6.432z"></path>
<path d="M361.154 945.934c-5.16-2.251-6.893 2.646-3.862 5.662 4.257 3.884 21.938 5.432 26.261 2.317 7.15-5.418 1.924-19.652-1.285-23.668-2.004-2.443-8.040-2.627-5.667 3.865 0.982 3.009 5.371 10.494 1.799 13.884-3.268 3.12-12.31-0.007-17.246-2.061z"></path>
<path d="M400.807 950.312c1.134-2.903-1.924-7.907-7.216-2.061-4.369 4.608-0.823 24.036 13.134 27.519 13.642 3.344 23.862-1.554 25.74-8.999 1.298-4.958-6.175-9.263-2.313-13.635 3.222-3.417 9.443 0.040 12.099-5.399 1.555-3.049 1.68-9.296-6.695-13.378-3.631-1.823-9.918 2.337-9.787 5.405 0.198 4.22 6.742 1.468 4.376 5.141-1.726 2.798-9.456 1.633-11.835 8.229-1.423 4.193 8.752 11.936 3.348 13.891-4.824 1.666-11.111 2.745-17.51-0.77-3.954-2.094-5.634-10.758-3.341-15.945z"></path>
<path d="M351.625 923.562c-3.242 0.474-7.717 2.831-7.973 6.689-0.198 3.095 2.353 8.453 6.695 4.879 4.482-3.476 1.041-5.122 2.056-3.858 2.234 2.231-1.041 2.416-5.146 7.979-2.86 4.22-8.969 3.542-12.099 2.054-5.404-2.785-3.381-4.568-9.272-7.202-5.885-2.89-9.45 3.891-3.862 6.946 6.175 3.536 16.29 10.599 26.261 5.405 5.925-3.344 12.87-6.393 12.613-13.891-0.336-4.872-2.504-9.947-9.272-8.999z"></path>
<path d="M671.885 920.989c-4.554-3.252-1.766-9.151 4.897-6.946 5.667 2.094 15.078 8.763 15.697 17.493 0.706 9.546-14.695 16.532-20.587 16.208-10.089-0.816-8.29-8.809-0.777-8.236 5.826 0.421 12.982-1.653 13.391-7.716 0.342-5.26-9.338-8.322-12.62-10.803z"></path>
<path d="M638.678 897.584c-5.885-5.932 6.432-12.344 10.036-5.141 4.751 9.158 10.405 18.17 14.675 28.289 3.401 8.302-1.061 9.427-3.862 4.885-4.685-7.901-11.782-18.474-20.851-28.033z"></path>
<path d="M609.847 915.334c6.333-2.752 6.175 5.141 3.862 6.689-4.184 2.324-9.787-3.858-3.862-6.689z"></path>
<path d="M628.64 908.389c6.333-2.752 6.175 5.141 3.862 6.689-4.184 2.324-9.787-3.858-3.862-6.689z"></path>
<path d="M432.207 919.448c-9.503-6.063 1.931-15.11 8.494-8.229 9.403 9.592 18.393 30.613 25.49 38.58 6.748 7.828 1.311-21.225 3.348-29.836 1.39-4.786 5.133-4.114 5.146 0.514 0.033 11.837-1.792 35.919 1.285 37.809 5.76 3.272 4.718 8.611 9.522 7.716 5.153-1.224 4.382-2.575 9.015-2.831 4.593 0 4.751 4.601 10.043 3.858 3.374-0.441 4.389-4.259 8.488-4.378 3.736-0.316 2.129 7.926-0.25 9.263-3.882 2.179-15.968-2.37-19.565-2.054-4.283 0.112-11.994 4.081-16.738 2.311-5.793-2.068-4.508-9.401-8.494-8.229-4.515 1.040-3.664 9.25-14.412 11.83-5.035 1.146-6.728-3.371-4.118-6.432 4.672-4.991 14.083-8.973 12.613-13.628-4.356-12.969-17.517-28.592-29.866-36.261z"></path>
<path d="M514.846 921.245c4.566 15.011 4.343 34.971 6.953 48.613 1.285 5.366 6.426 0.586 5.925-3.601-2.023-14.648-2.913-32.628-6.695-46.552-1.569-4.819-7.927-3.884-6.181 1.541z"></path>
<path d="M527.459 925.11c-1.205-6.261 4.791-6.847 5.667-3.095 3.091 12.081 2.695 39.724 8.752 40.639 10.451 1.192 25.108-0.968 38.104-3.601 6.393-1.27 7.704-5.892 7.466-7.723-1.225-7.427 5.713-6.84 7.466 1.034 0.942 4.108-0.923 11.475-8.752 13.115-15.295 2.95-36.35 7.498-48.403 4.885-10.557-2.231-7.117-29.461-10.301-45.255z"></path>
<path d="M544.454 935.907c0.263-7.92 6.214-9.085 6.175-2.317 0.165 16.202 19.15 11.995 23.177 5.919 2.972-4.74 0.797-6.781-2.063-12.087-3.559-6.867 3.974-8.802 7.209-2.831 2.419 4.273 4.099 17.894-0.257 21.351-6.029 4.773-22.326 7.117-29.352 1.797-3.73-2.568-5.18-7.492-4.89-11.83z"></path>
<path d="M536.218 914.814c0.843 5.075 14.669 3.344 14.156-0.514-0.474-3.318-14.926-2.575-14.156 0.514z"></path>
<path d="M554.237 918.929c0.541 5.115 9.489 3.607 9.008-0.256-0.474-4.088-9.522-4.892-9.008 0.256z"></path>
<path d="M581.267 912.759c-4.541-6.268 4.297-6.662 7.209-2.054 7.539 11.258 12.508 29.409 19.823 41.66 3.111 5.648 7.005 0.599 7.466-0.77 0.488-1.455-2.366-3.686-2.57-8.743-0.362-3.931 7.684-8.816 13.384-5.141 5.331 3.588 0.969 6.768 3.604 8.743 2.511 1.883 8.851 0.698 9.787-0.514 2.814-4.418-1.022-1.83-4.897-4.378-4.482-3.206-1.792-17.097 7.466-11.317 5.51 3.186 7.13 13.371 5.146 19.032-1.753 5.247-10.972 7.031-15.961 5.919-5.621-1.711-10.162-8.466-9.008-6.689 2.781 4.562-0.686 9.065-3.348 10.803-6.57 4.121-11.164 6.281-15.961-0.514-8.501-12.72-13.18-34.175-22.142-46.038z"></path>
</svg>
