<?xml version="1.0" encoding="utf-8"?>
<!-- Generated by IcoMoon.io -->
<!DOCTYPE svg PUBLIC "-//W3C//DTD SVG 1.1//EN" "http://www.w3.org/Graphics/SVG/1.1/DTD/svg11.dtd">
<svg version="1.1" xmlns="http://www.w3.org/2000/svg" xmlns:xlink="http://www.w3.org/1999/xlink" width="791" height="1024" viewBox="0 0 791 1024"><g id="icomoon-ignore">
</g>
<path d="M118.109 232.070h115.912l35.805-110.238 35.805 110.238h115.912l-93.761 68.121 35.805 110.238-93.761-68.121-93.761 68.121 35.805-110.238-93.761-68.121zM728.511 395.743c2.96 30.045 2.96 60.308 0 90.353l-88.208-8.688c2.39-24.267 2.39-48.71 0-72.977l88.208-8.688zM710.885 574.713c-8.764 28.89-20.345 56.849-34.576 83.475l-78.17-41.783c11.495-21.506 20.849-44.088 27.928-67.422l84.819 25.73zM626.11 733.313c-19.153 23.337-40.552 44.736-63.889 63.889l-56.23-68.516c18.85-15.47 36.133-32.753 51.603-51.603l68.517 56.23zM487.096 847.4c-26.626 14.231-54.585 25.813-83.475 34.576l-25.73-84.818c23.334-7.078 45.917-16.433 67.422-27.928l41.782 78.169zM315.003 899.604c-30.045 2.96-60.308 2.96-90.353 0l8.688-88.208c24.267 2.39 48.71 2.39 72.977 0l8.688 88.208zM136.033 881.976c-28.89-8.764-56.849-20.345-83.475-34.576l41.782-78.169c21.506 11.494 44.088 20.849 67.422 27.928l-25.73 84.818zM403.62-0.138c28.89 8.764 56.849 20.345 83.475 34.576l-41.782 78.17c-21.506-11.495-44.088-20.849-67.422-27.928l25.73-84.818zM562.221 84.636c23.337 19.153 44.736 40.552 63.889 63.889l-68.517 56.23c-15.47-18.85-32.753-36.133-51.603-51.603l56.23-68.517zM676.307 223.651c14.231 26.625 25.813 54.585 34.576 83.475l-84.819 25.73c-7.078-23.334-16.433-45.917-27.928-67.422l78.17-41.782zM598.289 883.304l43.089-50.532c22.681 21.948 53.22 43.584 75.37 63.241s39.121 36.001 52.858 58.332c20.133 32.729-2.475 69.797-33.825 48.040-16.954-11.766-27.606-43.529-53.577-69.813-19.236-16.375-34.392-33.543-82.74-41.825-2.321-0.397-3-5.302-1.175-7.442zM662.222 868.121c0.003 2.128-1.13 4.095-2.973 5.161s-4.113 1.065-5.955 0c-1.842-1.065-2.976-3.032-2.973-5.161-0.003-2.128 1.13-4.095 2.973-5.161s4.113-1.065 5.955 0c1.842 1.065 2.976 3.032 2.973 5.161v0zM706.065 906.327c0.003 2.128-1.13 4.095-2.973 5.161s-4.113 1.065-5.955 0c-1.842-1.065-2.976-3.032-2.973-5.161-0.003-2.128 1.13-4.095 2.973-5.161s4.113-1.065 5.955 0c1.842 1.065 2.976 3.032 2.973 5.161v0zM744.583 945.472c0.003 2.128-1.13 4.095-2.973 5.161s-4.113 1.065-5.955 0c-1.842-1.065-2.976-3.032-2.973-5.161-0.003-2.128 1.13-4.095 2.973-5.161s4.113-1.065 5.955 0c1.842 1.065 2.976 3.032 2.973 5.161v0zM314.144 20.083l-8.42 78.885c173.714 18.219 309.78 163.62 309.78 342.132 0 190.814-154.864 345.678-345.678 345.678-83.196 0-158.372-30.748-218.043-79.771l-50.522 61.602c73.427 60.286 166.217 97.942 268.566 97.942 234.849 0 425.45-190.601 425.45-425.45 0-219.643-167.42-398.51-381.132-421.018zM592.833 876.35c-153.843-102.309-251.67-157.553-399.107-241.383-57.918-32.931-147.86-115.71-76.912-254.208 4.467 90.924 363.811 340.497 515.652 449.013l-39.632 46.578z"></path>
</svg>
