<svg xmlns="http://www.w3.org/2000/svg" width="791" height="1024" viewBox="0 0 791 1024"><path d="M118.11 232.07h115.91l35.806-110.238L305.63 232.07h115.913l-93.76 68.12 35.804 110.24-93.76-68.122-93.762 68.12L211.87 300.19l-93.76-68.12zm610.4 163.673c2.96 30.045 2.96 60.308 0 90.353l-88.207-8.688c2.39-24.267 2.39-48.71 0-72.977l88.208-8.685zm-17.625 178.97c-8.764 28.89-20.345 56.85-34.576 83.475l-78.17-41.783c11.492-21.506 20.846-44.088 27.925-67.422l84.82 25.73zm-84.775 158.6c-19.153 23.337-40.552 44.736-63.89 63.89l-56.23-68.517c18.85-15.47 36.134-32.753 51.604-51.603l68.517 56.23zM487.096 847.4c-26.626 14.23-54.585 25.813-83.475 34.576l-25.73-84.818c23.337-7.078 45.92-16.433 67.425-27.928l41.782 78.17zm-172.093 52.204c-30.045 2.96-60.308 2.96-90.353 0l8.688-88.208c24.267 2.39 48.71 2.39 72.977 0l8.688 88.208zm-178.97-17.628c-28.89-8.764-56.85-20.345-83.475-34.576l41.782-78.17c21.506 11.495 44.088 20.85 67.422 27.93l-25.73 84.817zM403.62-.138c28.89 8.764 56.85 20.345 83.475 34.576l-41.782 78.17c-21.506-11.495-44.088-20.85-67.422-27.928L403.62-.138zm158.6 84.774c23.338 19.153 44.737 40.552 63.89 63.89l-68.517 56.23c-15.47-18.85-32.753-36.134-51.603-51.604l56.23-68.517zM676.308 223.65c14.23 26.626 25.813 54.586 34.576 83.476l-84.82 25.73c-7.077-23.334-16.432-45.917-27.927-67.422l78.17-41.782zM598.29 883.305l43.088-50.532c22.68 21.948 53.22 43.584 75.37 63.24s39.12 36.002 52.858 58.333c20.133 32.73-2.475 69.797-33.825 48.04-16.95-11.766-27.603-43.53-53.574-69.813-19.236-16.375-34.392-33.543-82.74-41.825-2.32-.397-3-5.302-1.175-7.442zm63.932-15.183c.003 2.13-1.13 4.096-2.973 5.162s-4.116 1.065-5.958 0c-1.842-1.065-2.976-3.032-2.973-5.16-.003-2.13 1.13-4.096 2.973-5.162s4.113-1.065 5.955 0c1.84 1.065 2.974 3.032 2.97 5.16zm43.843 38.207c.003 2.126-1.13 4.093-2.973 5.16s-4.113 1.064-5.955 0c-1.842-1.066-2.976-3.03-2.973-5.16-.003-2.13 1.13-4.097 2.973-5.16s4.113-1.068 5.955 0c1.842 1.062 2.976 3.03 2.973 5.16zm38.518 39.143c.003 2.128-1.13 4.095-2.973 5.16s-4.113 1.066-5.955 0c-1.842-1.064-2.976-3.03-2.973-5.16-.003-2.128 1.13-4.095 2.973-5.16s4.113-1.066 5.955 0c1.842 1.064 2.976 3.03 2.973 5.16zm-430.44-925.39l-8.42 78.886c173.715 18.22 309.78 163.62 309.78 342.13 0 190.815-154.863 345.68-345.677 345.68-83.196 0-158.372-30.75-218.043-79.77L1.26 768.61c73.43 60.287 166.22 97.943 268.568 97.943 234.85 0 425.45-190.6 425.45-425.45 0-219.642-167.42-398.51-381.132-421.017zm278.69 856.268C438.99 774.04 341.163 718.798 193.726 634.968c-57.918-32.93-147.86-115.71-76.912-254.208 4.467 90.92 363.81 340.494 515.652 449.01l-39.632 46.58z"/></svg>