<svg xmlns="http://www.w3.org/2000/svg" width="1024" height="1024" viewBox="0 0 1024 1024"><path d="M683.436 11.728c11.944-.054 22.147 3.793 28.578 14.032 28.952-1.607 63.786-3.284 57.36 32.57-5.763-.532-8.865-3.815-10.653-7.476-2.552-5.228-11.21-6.092-19.357-3.175-7.102 2.536-12.82 6.314-7.58 12.596 2.68 3.205 13.138 4.776 19.564 3.175 6.432-1.597 18.35-3.517 25.3-4.3 4.688-.537 13.943-6.365 18.232-14.648 4.282-8.3 15.254-18.283 22.226-12.393 6.97 5.886-1.33 15.864-8.297 22.02-6.98 6.156-21.185 13.827-28.68 13.827-9.928 0-19.6 2.402-24.686 3.482-2.406 18.892-27.33 27.47-48.244 26.937-20.9-.533-48.498 9.626-73.954 30.625-32.97 27.198-56.26 117.072-.512 117.072 34.832 0 29.443-34.79 28.373-54.592-1.067-19.8 9.706-41.223 33.29-49.778 23.582-8.562 71.82-25.068 85.22-32.57 5.358-3.74 11.018 9.476 11.78 17.104.545 5.353 6.544 5.798 23.558.51 48.246-14.986 92.18-40.69 113.08-80.3 20.908-39.6 60.35-.644 40.768 32.674-23.592 40.132-102.364 72.755-152.21 79.174-23.165 2.982-23.004 30.718-1.126 33.8 45.563 6.43 90.22 5.532 117.998-30.523 21.443-27.832 42.49-2.83 33.187 19.256-19.83 47.096-87.092 66.97-152.72 35.337-15.548-7.497-32.2-6.254-18.745 12.29 33.768 46.564 78.652 53.747 135 19.257 16.618-10.163 29.544-8.58 33.29-2.15 6.598 11.28 9.487 21.493-9.73 35.336-42.345 30.502-91.315 28.332-130.7 7.99-15.55-8.026-44.034-14.44-18.847 18.744 25.196 33.186 89.587 50.278 115.847 31.547 26.27-18.732 58.908-1.554 38 27.35-20.903 28.896-64.262 21.46-84.093 10.754-19.837-10.708-50.433-25.25-63.3-31.137-12.863-5.893-18.88 4.19-4.303 20.895 32.703 37.47 66.426 68.962 112.06 54.08 26.262-8.558 50.404-9.68 43.43 22.432-6.967 32.105-61.08 34.294-87.885 18.232-26.81-16.053-50.9-34.255-66.988-49.778-16.078-15.52-32.41-14.903-14.545 11.267 40.198 58.866 74.6 101.94 131.93 90.953 53.064-10.172 39.835 21.61 28.372 31.547-32.695 28.36-90.05 20.917-158.662-63.094-5.35-6.566-14.344-4.673-9.628 7.477 30.543 78.67 81.486 129.483 130.8 117.174 25.65-6.406 50.592 7.86 24.584 30.524-29.485 25.69-83.094 16.08-121.685-26.733-38.593-42.815-62.1-73.357-70.675-89.416-8.572-16.05-21.483-16.574-19.87 4.302 1.603 20.868 17.11 61.59 44.453 74.975 14.147 6.93 26.794 22.438 0 34.21-26.807 11.774-58.367-35.824-84.093-105.394-3.03-8.173-20.758-10.226-20.383 5.326.537 21.946 11.256 40.1 23.047 50.804 11.796 10.705 2.55 28.625-13.417 21.407-22.51-10.168-36.758-25.102-45.582-47.627-4.827-12.306-15.69-16.554-9.627 2.663 18.22 57.794 58.974 85.71 112.57 112.462-8.04 8.025-15.296 16.842-22.535 24.07 32.965 16.857 67.615 28.09 94.95 39.33 21.714-14.452 40.958-22.502 50.6-36.156 3.214-18.46 25.772-26.46 40.255-18.436 24.917-9.634 42.543-7.298 44.147 15.978-14.47-2.41-26.525-4.725-36.977 4.916-4.813 11.24-20.05 16.805-34.518 11.984-16.084 9.63-29.79 19.292-39.435 25.71 30.55-.794 53.052-2.394 69.14-3.996 15.264-15.25 29.712-15.244 40.97-4.814 18.494-4.012 32.97 4.53 37.796 20.587-13.938-1.602-26.732-6.46-35.85-1.64-7.502 13.914-28.387 14.46-41.79 4.303-20.368-.545-60.03-1.127-69.14-1.127 13.395 8.026 29.453 17.72 37.49 22.533 31.624-6.422 48.75 5.863 46.604 28.884 7.502 11.773 6.967 28.364-2.15 35.85-2.132-9.632-7.45-21.93-14.956-28.885-19.296 3.74-33.23-2.66-39.127-24.07-12.322-8.025-28.396-18.25-34.826-22.532-6.44-4.276-11.62-9.187-26.323-2.663-14.475 6.43-27.892 11.78-36.465 16.593-4.828 18.728-23.034 19.837-34.826 11.267-7.507 4.276-13.94 11.742-18.232 19.768-6.962-12.312-3.165-28.91 10.243-33.186 4.82-14.456 21.89-19.247 34.21-12.29 10.186-4.278 24.71-11.26 31.14-13.93-20.904-7.49-73.935-27.21-92.7-35.236-17.687 13.384-37.558 26.175-52.033 22.43-2.142-12.844-8.798-23.362-17.72-41.686-14.204-29.17-31.833-56.472-46.298-73.336-14.478-16.86-29.17-7.28-28.168 15.978 2.406 56.19 43.98 140.292 105.092 143.497 20.892 1.112 29.124 5.388 17.618 20.895-10.72 14.45-43.888 16.31-62.38 2.663-18.49-13.653-24.955-12.878-21.202 5.326 3.754 18.196 24.74 25.12 40.254 26.22 22.513 1.61 48.153 9.618 27.246 28.885-20.91 19.258-55.21 8.51-80.406-20.383-8.738-10.03-15.58-12.802-14.955 3.28 1.068 27.825 17.676 45.522 34.827 49.265 17.154 3.74 34.307 8.195 29.5 18.13-8.046 16.588-34.882 19.288-49.884 11.266-15.02-8.03-31.09-23.066-34.314-32.16-3.217-9.098-9.747-3.877-7.99 8.604 3.746 26.76 22.534 26.194 22.534 48.14 0 21.942-18.314 43.41-39.742 67.498-21.455-24.088-39.64-45.556-39.64-67.498 0-21.945 18.785-21.38 22.534-48.14 1.752-12.477-4.88-17.702-8.092-8.604-3.208 9.095-19.29 24.132-34.314 32.16-14.992 8.024-41.732 5.32-49.78-11.266-4.797-9.934 12.355-14.388 29.5-18.13 17.156-3.747 33.758-21.44 34.825-49.265.63-16.078-6.308-13.307-15.058-3.28-25.184 28.895-59.503 39.64-80.406 20.384-20.906-19.266 4.846-27.27 27.348-28.884 15.517-1.104 36.495-8.026 40.254-26.22 3.754-18.202-2.71-18.978-21.203-5.327-18.49 13.643-51.77 11.782-62.48-2.663-11.512-15.51-3.17-19.787 17.72-20.895 61.11-3.203 102.694-87.306 105.092-143.497.997-23.26-13.68-32.84-28.168-15.978-14.46 16.864-32.194 44.166-46.4 73.336-8.917 18.324-15.47 28.842-17.62 41.687-14.47 3.748-34.345-9.048-52.033-22.43-18.773 8.025-71.794 27.746-92.698 35.233 6.424 2.675 20.86 9.653 31.035 13.93 12.328-6.95 29.48-2.167 34.314 12.29 13.394 4.277 17.202 20.875 10.242 33.187-4.3-8.026-10.72-15.488-18.232-19.768-11.795 8.572-30.102 7.462-34.928-11.267-8.563-4.813-21.888-10.164-36.362-16.593-14.7-6.523-19.883-1.613-26.324 2.663-6.43 4.284-22.485 14.508-34.825 22.533-5.88 21.41-19.84 27.812-39.127 24.07-7.515 6.952-12.82 19.255-14.955 28.885-9.128-7.488-9.665-24.076-2.15-35.85-2.15-23.016 14.988-35.305 46.604-28.883 8.045-4.813 24.082-14.508 37.49-22.533-9.11 0-48.785.578-69.14 1.126-13.407 10.16-34.295 9.613-41.79-4.302-9.11-4.82-22.025.037-35.953 1.64 4.812-16.057 19.305-24.6 37.795-20.588 11.26-10.432 25.798-10.44 41.073 4.814 16.072 1.602 38.594 3.2 69.14 3.995-9.643-6.415-23.346-16.08-39.436-25.71-14.475 4.822-29.702-.744-34.518-11.983-10.46-9.64-22.602-7.327-37.08-4.916 1.604-23.277 19.33-25.61 44.25-15.978 14.474-8.023 37.025-.023 40.253 18.436 9.636 13.653 28.896 21.704 50.6 36.156 27.348-11.24 61.887-22.473 94.85-39.33-7.228-7.232-14.403-16.044-22.433-24.07 53.583-26.752 94.242-54.67 112.467-112.464 6.067-19.22-4.802-14.973-9.627-2.663-8.834 22.524-22.972 37.458-45.48 47.628-15.976 7.216-25.212-10.7-13.417-21.406 11.792-10.705 22.513-28.857 23.046-50.803.382-15.55-17.368-13.497-20.384-5.325-25.735 69.57-57.394 117.17-84.196 105.394-26.8-11.773-14.152-27.286 0-34.21 27.336-13.384 42.94-54.108 44.556-74.975 1.604-20.878-11.296-20.353-19.87-4.303-8.583 16.06-32.184 46.6-70.78 89.417-38.59 42.813-92.205 52.423-121.684 26.733-26.014-22.662-.965-36.93 24.685-30.523 49.32 12.31 100.25-38.506 130.8-117.174 4.72-12.15-4.278-14.043-9.628-7.477-68.606 84.01-125.983 91.454-158.662 63.093-11.47-9.936-24.696-41.72 28.373-31.547 57.34 10.986 91.632-32.088 131.827-90.954 17.872-26.17 1.644-26.787-14.442-11.267-16.072 15.522-40.192 33.725-66.988 49.777-26.802 16.062-80.905 13.874-87.884-18.232-6.962-32.11 17.163-30.99 43.43-22.43 45.628 14.88 79.26-16.613 111.954-54.08 14.59-16.706 8.563-26.788-4.302-20.896-12.86 5.886-43.377 20.43-63.198 31.136-19.84 10.705-63.293 18.143-84.196-10.755-20.903-28.902 11.85-45.98 38.104-27.244 26.27 18.73 90.558 1.537 115.744-31.65 25.2-33.182-3.206-26.77-18.744-18.743-39.395 20.34-88.46 22.512-130.8-7.99-19.218-13.84-16.227-24.055-9.63-35.336 3.755-6.43 16.68-8.012 33.29 2.15 56.352 34.49 101.24 27.308 135-19.255 13.47-18.545-3.197-19.79-18.743-12.292-65.632 31.634-132.887 11.76-152.72-35.337-9.308-22.085 11.75-47.087 33.187-19.255 27.783 36.054 72.342 36.95 117.895 30.523 21.873-3.082 22.142-30.82-1.024-33.8-49.84-6.42-128.623-39.042-152.21-79.173-19.59-33.32 19.742-72.277 40.66-32.677 20.904 39.61 64.933 65.314 113.185 80.3 17.016 5.287 23.025 4.843 23.56-.51.772-7.63 6.42-20.844 11.778-17.106 13.395 7.503 61.632 24.01 85.22 32.57 23.587 8.557 34.255 29.98 33.188 49.78-1.067 19.802-6.372 54.59 28.475 54.59 55.74 0 32.362-89.873-.616-117.07-25.453-21-53.047-31.16-73.953-30.626-20.9.533-45.826-8.044-48.243-26.938-5.077-1.08-14.655-3.482-24.583-3.482-7.5 0-21.7-7.67-28.68-13.827-6.962-6.154-15.26-16.133-8.297-22.02 6.978-5.89 17.944 4.096 22.227 12.394 4.29 8.283 13.54 14.11 18.232 14.647 6.946.785 18.867 2.705 25.3 4.303 6.44 1.6 16.884.03 19.564-3.175 5.232-6.282-.577-10.06-7.683-12.598-8.143-2.918-16.702-2.054-19.257 3.174-1.783 3.66-5 6.944-10.755 7.477-6.432-35.853 28.41-34.176 57.36-32.57 17.157-27.304 61.633-8.612 92.186 5.84 14.477 3.226 39.198 1.566 51.524-3.79 12.325-5.35 11.762 1.177 7.477 7.066-4.29 5.884-19.79 16.53-26.22 18.13-6.433 1.612-4.286 4.797-2.15 7.476 6.78 8.462 21.92 16.655 28.883 17.72 6.962 1.08 9.172 4.29 5.43 6.966-3.747 2.676-9.18 5.864-14.546 7.477-5.366 1.598-4.753 3.713-1.536 7.99 6.644 8.827 24.13 17.67 30.013 16.592 5.895-1.068 6.333 2.135 4.2 4.814-2.15 2.68-10.144 6.453-14.442 6.453-4.282 0-4.613.786-1.023 5.326 3.886 4.925 12.546 15.543 20.28 13.314 10.46-3.015 13.153-.318 9.937 4.097-7.57 10.406-7.237 14.91 7.785 17.413 14.995-2.5 15.456-7.007 7.886-17.412-3.216-4.413-.613-7.11 9.833-4.096 7.74 2.228 16.497-8.39 20.382-13.315 3.59-4.54 3.157-5.327-1.126-5.327-4.3 0-12.305-3.774-14.442-6.453-2.15-2.68-1.593-5.883 4.302-4.815 5.895 1.078 23.38-7.764 30.012-16.593 3.208-4.276 3.72-6.39-1.64-7.99-5.357-1.612-10.695-4.8-14.44-7.476s-1.652-5.887 5.325-6.965c6.963-1.063 22.207-9.256 28.988-17.72 2.15-2.677 4.28-5.862-2.15-7.475-6.44-1.598-21.932-12.246-26.222-18.13-4.283-5.89-4.85-12.417 7.477-7.066 12.325 5.356 36.945 7.015 51.42 3.79 19.094-9.033 43.7-19.78 63.607-19.87zm-10.14 32.57c-5.522.04-11.494 1.656-17.003 4.405-7.495 3.76-4.768 10.165 1.127 11.78 5.896 1.606 17.13 1.647 25.71-1.025 8.57-2.678 6.987-10.213-.512-13.418-2.815-1.204-6.008-1.764-9.32-1.74zm-318.04 0c-3.313-.022-6.505.538-9.322 1.742-7.5 3.205-9.09 10.74-.512 13.418 8.58 2.672 19.81 2.63 25.71 1.024 5.895-1.613 8.623-8.02 1.127-11.78-5.515-2.748-11.485-4.366-17.005-4.403z"/></svg>