<svg version="1" xmlns="http://www.w3.org/2000/svg" width="400" height="200" viewBox="0 0 300.000000 150.000000"><path d="M142.4 39.5c-5.1 27.1-7.2 36.1-8 35.2-.6-.7-10-14.8-20.9-31.5-10.9-16.6-20-30.1-20.2-29.9-.1.2 3.1 16.7 7.2 36.7 4.2 19.9 7.4 36.4 7.2 36.6-.2.2-13.1-8.3-28.8-18.9C63.3 57 49.2 47.5 47.5 46.4l-3-1.9 1.9 3c1.1 1.6 10.6 15.8 21.3 31.4 10.6 15.7 19.1 28.6 18.9 28.8-.2.2-16.7-3-36.6-7.2-20-4.1-36.5-7.3-36.7-7.2-.2.2 13.3 9.3 29.9 20.2 16.7 10.9 30.8 20.3 31.5 20.9.9.8-8.2 2.9-35.5 8.1l-36.7 7 73.7.3c40.6.1 107 .1 147.5 0l73.8-.3-36.7-7c-27.3-5.2-36.4-7.3-35.5-8.1.7-.6 14.8-10 31.5-20.9 16.6-10.9 30.1-20 29.9-20.2-.2-.1-16.7 3.1-36.7 7.2-19.9 4.2-36.4 7.4-36.6 7.2-.2-.2 8.4-13.3 19.1-29 10.7-15.8 20.2-29.9 21.2-31.4l1.8-2.8-3 1.9c-1.6 1.1-15.8 10.6-31.4 21.3-15.7 10.6-28.6 19.1-28.8 18.9-.2-.2 3-16.7 7.1-36.7 4.2-19.9 7.4-36.4 7.2-36.6-.1-.2-9.2 13.3-20.1 29.9-10.9 16.7-20.3 30.9-20.9 31.5-.8.9-2.9-8.1-8.1-35.2C153.7 19.4 150.3 3 150 3c-.3 0-3.7 16.4-7.6 36.5z"/></svg>