<?xml version="1.0" encoding="utf-8"?>
<!-- Generated by IcoMoon.io -->
<!DOCTYPE svg PUBLIC "-//W3C//DTD SVG 1.1//EN" "http://www.w3.org/Graphics/SVG/1.1/DTD/svg11.dtd">
<svg version="1.1" xmlns="http://www.w3.org/2000/svg" xmlns:xlink="http://www.w3.org/1999/xlink" width="1024" height="1024" viewBox="0 0 1024 1024"><g id="icomoon-ignore">
</g>
<path d="M485.619 126.697c-17.703 94.069-24.993 125.31-27.769 122.186-2.083-2.43-34.712-51.374-72.548-109.342-37.836-57.622-69.424-104.483-70.118-103.788-0.347 0.694 10.761 57.969 24.993 127.393 14.579 69.077 25.687 126.351 24.993 127.045s-45.472-28.811-99.97-65.605c-54.151-37.142-103.094-70.118-108.995-73.936l-10.414-6.595 6.595 10.414c3.818 5.554 36.795 54.845 73.936 108.995 36.795 54.498 66.3 99.276 65.605 99.97s-57.969-10.414-127.045-24.993c-69.424-14.232-126.698-25.34-127.393-24.993-0.694 0.694 46.167 32.282 103.788 70.118 57.969 37.836 106.912 70.465 109.342 72.548 3.124 2.777-28.464 10.066-123.227 28.117l-127.393 24.298 255.826 1.041c140.93 0.347 371.417 0.347 512 0l256.174-1.041-127.393-24.298c-94.763-18.050-126.351-25.34-123.227-28.117 2.43-2.083 51.374-34.712 109.342-72.548 57.622-37.836 104.483-69.424 103.788-70.118-0.694-0.347-57.969 10.761-127.393 24.993-69.077 14.579-126.351 25.687-127.045 24.993s29.158-46.167 66.3-100.664c37.142-54.845 70.118-103.788 73.589-108.995l6.248-9.719-10.414 6.595c-5.554 3.818-54.845 36.795-108.995 73.936-54.498 36.795-99.276 66.3-99.97 65.605s10.414-57.969 24.645-127.393c14.579-69.077 25.687-126.351 24.993-127.045-0.347-0.694-31.935 46.167-69.771 103.788-37.836 57.969-70.465 107.26-72.548 109.342-2.777 3.124-10.066-28.117-28.117-122.186-13.19-69.771-24.993-126.698-26.034-126.698s-12.844 56.927-26.381 126.698z"></path>
</svg>
