<svg version="1" xmlns="http://www.w3.org/2000/svg" width="1200" height="600" viewBox="0 0 900.000000 450.000000"><path d="M17 3.5c0 2.8-.4 3.5-2 3.5-1.7 0-2 .7-2 4s-.3 4-2 4c-1.6 0-2 .7-2 3.5 0 3.1-.3 3.5-2.5 3.5S4 22.4 4 25.5c0 2.8-.4 3.5-2 3.5-1.7 0-2 .7-2 4s.3 4 2 4c1.6 0 2 .7 2 3.5 0 3.1.3 3.5 2.5 3.5 2.3 0 2.5.4 2.5 4 0 3.3.3 4 2 4 1.6 0 2 .7 2 3.5s.4 3.5 2 3.5 2 .7 2 3.4c0 2.8.4 3.5 2.3 3.8 1.8.2 2.3 1 2.5 4 .3 3 .7 3.8 2.3 3.8 1.6 0 1.9-.7 1.9-4s.3-4 2-4c1.6 0 2-.7 2-3.5 0-3.1.3-3.5 2.5-3.5s2.5-.4 2.5-3.5c0-2.8.4-3.5 2-3.5 1.7 0 2-.7 2-4s.3-4 2-4c1.6 0 2-.7 2-3.5 0-3.1.3-3.5 2.6-3.5 2.3 0 2.5-.3 2.2-3.8-.2-3-.7-3.8-2.5-4-1.9-.3-2.3-1-2.3-3.8 0-2.7-.4-3.4-2-3.4s-2-.7-2-3.5-.4-3.5-1.9-3.5c-1.6 0-2-.8-2.3-3.8-.2-3-.7-3.8-2.5-4-1.9-.3-2.3-1-2.3-3.8V0H17v3.5zm9 15c0 2.8.4 3.5 1.9 3.5 1.6 0 2 .8 2.3 3.7.2 3.1.7 3.9 2.6 4.1 1.8.3 2.2 1 2.2 3.8 0 3-.3 3.4-2.5 3.4s-2.5.4-2.5 3.5c0 2.8-.4 3.5-2 3.5-1.7 0-2 .7-2 4s-.3 4-2 4-2-.7-2-4c0-3.6-.2-4-2.5-4-2.2 0-2.5-.4-2.5-3.5 0-2.8-.4-3.5-2-3.5s-2-.7-2-3.5.4-3.5 2-3.5c1.7 0 2-.7 2-4 0-3.6.3-4 2.5-4s2.5-.4 2.5-3.5c0-2.8.4-3.5 2-3.5s2 .7 2 3.5zM70 3.4c0 2.8-.4 3.5-2.2 3.8-1.9.2-2.4 1-2.6 4-.3 3-.7 3.8-2.3 3.8-1.5 0-1.9.7-1.9 3.5s-.4 3.5-2 3.5-2 .7-2 3.4c0 2.8-.4 3.5-2.2 3.8-1.9.2-2.4 1-2.6 4-.3 3.5-.1 3.8 2.2 3.8 2.3 0 2.6.4 2.6 3.5 0 2.8.4 3.5 2 3.5 1.7 0 2 .7 2 4s.3 4 2 4c1.6 0 2 .7 2 3.5 0 3.1.3 3.5 2.5 3.5s2.5.4 2.5 3.5c0 2.8.4 3.5 2 3.5 1.7 0 2 .7 2 4s.3 4 1.9 4c1.6 0 2-.8 2.3-3.8.2-3 .7-3.8 2.6-4 1.8-.3 2.2-1 2.2-3.8 0-2.7.4-3.4 2-3.4s2-.7 2-3.5.4-3.5 2-3.5c1.7 0 2-.7 2-4 0-3.6.3-4 2.5-4s2.5-.4 2.5-3.5c0-2.8.4-3.5 2-3.5s2-.7 2-3.6c0-2.7-.5-3.7-2-4.1-1.5-.4-2-1.4-2-3.9 0-3-.3-3.4-2.5-3.4s-2.5-.4-2.5-3.5c0-2.8-.4-3.5-2-3.5-1.7 0-2-.7-2-4s-.3-4-2-4c-1.6 0-2-.7-2-3.5V0H70v3.4zm8 15.1c0 3.1.3 3.5 2.5 3.5 2.3 0 2.5.4 2.5 4 0 3.3.3 4 2 4 1.6 0 2 .7 2 3.5s-.4 3.5-2 3.5-2 .7-2 3.5c0 3.1-.3 3.5-2.5 3.5s-2.5.4-2.5 4c0 3.3-.3 4-2 4s-2-.7-2-4-.3-4-2-4c-1.6 0-2-.7-2-3.5 0-3.1-.3-3.5-2.5-3.5s-2.5-.4-2.5-3.4c0-2.8.4-3.5 2.3-3.8 1.8-.2 2.3-1 2.5-4.1.3-2.9.7-3.7 2.3-3.7 1.5 0 1.9-.7 1.9-3.5s.4-3.5 2-3.5 2 .7 2 3.5zM9 70c0 3.6-.2 4-2.5 4-2.2 0-2.5.4-2.5 3.5 0 2.8-.4 3.5-2 3.5-1.7 0-2 .7-2 4s.3 4 2 4c1.6 0 2 .7 2 3.5 0 3.1.3 3.5 2.5 3.5s2.5.4 2.5 3.5c0 2.8.4 3.5 2 3.5s2-.7 2-3.5.4-3.5 2-3.5 2-.7 2-3.4c0-2.8.4-3.5 2.3-3.8 1.8-.2 2.3-1 2.5-4.1.3-3.4.1-3.7-2.2-3.7-2.3 0-2.6-.4-2.6-3.5 0-2.8-.4-3.5-2-3.5-1.7 0-2-.7-2-4s-.3-4-2-4-2 .7-2 4zM35 70c0 3.6-.2 4-2.5 4-2.2 0-2.5.4-2.5 3.5 0 2.8-.4 3.5-2 3.5s-2 .7-2 3.6c0 2.7.5 3.7 2 4.1 1.5.4 2 1.4 2 3.9 0 3 .3 3.4 2.5 3.4s2.5.4 2.5 3.5c0 2.8.4 3.5 2 3.5s2-.7 2-3.5.4-3.5 2-3.5 2-.7 2-3.4c0-2.8.4-3.5 2.3-3.8 1.8-.2 2.3-1 2.5-4.1.3-3.4.1-3.7-2.2-3.7-2.3 0-2.6-.4-2.6-3.5 0-2.8-.4-3.5-2-3.5-1.7 0-2-.7-2-4s-.3-4-2-4-2 .7-2 4zM61 70c0 3.3-.3 4-2 4-1.6 0-2 .7-2 3.5 0 3.1-.3 3.5-2.6 3.5-2.3 0-2.5.3-2.2 3.7.2 3.1.7 3.9 2.6 4.1 1.8.3 2.2 1 2.2 3.8 0 2.7.4 3.4 2 3.4s2 .7 2 3.5.4 3.5 2 3.5 2-.7 2-3.5c0-3.1.3-3.5 2.5-3.5s2.5-.4 2.5-3.4c0-2.5.5-3.5 2-3.9 1.5-.4 2-1.4 2-4.1 0-2.9-.4-3.6-2-3.6s-2-.7-2-3.5c0-3.1-.3-3.5-2.5-3.5s-2.5-.4-2.5-4c0-3.3-.3-4-2-4s-2 .7-2 4zM87 70c0 3.3-.3 4-2 4-1.6 0-2 .7-2 3.5 0 3.1-.3 3.5-2.6 3.5-2.3 0-2.5.3-2.2 3.7.2 3.1.7 3.9 2.6 4.1 1.8.3 2.2 1 2.2 3.8 0 2.7.4 3.4 2 3.4s2 .7 2 3.5.4 3.5 2 3.5 2-.7 2-3.5c0-3.1.3-3.5 2.5-3.5s2.5-.4 2.5-3.5c0-2.8.4-3.5 2-3.5 1.7 0 2-.7 2-4s-.3-4-2-4c-1.6 0-2-.7-2-3.5 0-3.1-.3-3.5-2.5-3.5s-2.5-.4-2.5-4c0-3.3-.3-4-2-4s-2 .7-2 4z"/><path d="M22 99.4c0 2.8-.4 3.5-2.2 3.8-1.9.2-2.4 1-2.6 4-.3 3-.7 3.8-2.3 3.8-1.5 0-1.9.7-1.9 3.5s-.4 3.5-2 3.5-2 .7-2 3.4c0 2.8-.4 3.5-2.2 3.8-1.9.2-2.4 1-2.6 4-.3 3-.7 3.8-2.3 3.8-1.7 0-1.9.7-1.9 7.5s.2 7.5 2 7.5c1.6 0 2 .7 2 3.5 0 3.1.3 3.5 2.5 3.5s2.5.4 2.5 3.5c0 2.8.4 3.5 2 3.5 1.7 0 2 .7 2 4s.3 4 1.9 4c1.6 0 2-.8 2.3-3.8.2-3 .7-3.8 2.6-4 1.8-.3 2.2-1 2.2-3.8 0-2.7.4-3.4 2-3.4s2-.7 2-3.4c0-3.4-.1-3.5-4.2-3.8-4.2-.3-4.3-.4-4.6-4.1l-.3-3.7h13l.3 3.7c.2 3.1.7 3.9 2.6 4.1 1.8.3 2.2 1 2.2 3.8 0 2.7.4 3.4 2 3.4s2 .7 2 3.5-.4 3.5-2 3.5c-1.7 0-2 .7-2 4 0 3.6-.2 4-2.5 4-2.2 0-2.5.4-2.5 3.5 0 2.8-.4 3.5-2 3.5s-2 .7-2 3.5-.4 3.5-2 3.5c-1.7 0-2 .7-2 4 0 3.6-.2 4-2.5 4-2.2 0-2.5.4-2.5 3.5 0 2.8-.4 3.5-2 3.5s-2-.7-2-3.5-.4-3.5-1.9-3.5c-1.6 0-2-.8-2.3-3.8-.2-3-.7-3.8-2.5-4-1.9-.3-2.3-1-2.3-3.8 0-2.7-.4-3.4-2-3.4-1.9 0-2 .7-2 11 0 10.2.1 11 1.9 11 1.6 0 2 .8 2.3 3.7.2 3.1.7 3.9 2.6 4.1 1.8.3 2.2 1 2.2 3.8 0 2.7.4 3.4 2 3.4s2 .7 2 3.5.4 3.5 2 3.5c1.7 0 2 .7 2 4s-.3 4-2 4c-1.6 0-2 .7-2 3.5s-.4 3.5-2 3.5-2 .7-2 3.4c0 2.8-.4 3.5-2.3 3.8-1.8.2-2.3 1-2.5 4-.3 3-.7 3.8-2.3 3.8-1.8 0-1.9.8-1.9 11 0 10.3.1 11 2 11 1.6 0 2-.7 2-3.4 0-2.8.4-3.5 2.3-3.8 1.8-.2 2.3-1 2.5-4.1.3-2.9.7-3.7 2.3-3.7 1.5 0 1.9-.7 1.9-3.5s.4-3.5 2-3.5 2 .7 2 3.5c0 3.1.3 3.5 2.5 3.5 2.3 0 2.5.4 2.5 4 0 3.3.3 4 2 4 1.6 0 2 .7 2 3.5s.4 3.5 2 3.5 2 .7 2 3.5c0 3.1.3 3.5 2.5 3.5 2.3 0 2.5.4 2.5 4 0 3.3.3 4 2 4 1.6 0 2 .7 2 3.5s-.4 3.5-2 3.5-2 .7-2 3.4c0 2.8-.4 3.5-2.2 3.8-1.9.2-2.4 1-2.6 4l-.3 3.8h-13l.3-3.8c.3-3.6.4-3.7 4.6-4 4.1-.3 4.2-.4 4.2-3.8 0-2.7-.4-3.4-2-3.4s-2-.7-2-3.4c0-2.8-.4-3.5-2.2-3.8-1.9-.2-2.4-1-2.6-4.1-.3-2.9-.7-3.7-2.3-3.7-1.6 0-1.9.7-1.9 4s-.3 4-2 4c-1.6 0-2 .7-2 3.5 0 3.1-.3 3.5-2.5 3.5s-2.5.4-2.5 3.5c0 2.8-.4 3.5-2 3.5-1.8 0-2 .7-2 7.5s.2 7.5 1.9 7.5c1.6 0 2 .8 2.3 3.7.2 3.1.7 3.9 2.6 4.1 1.8.3 2.2 1 2.2 3.8 0 2.7.4 3.4 2 3.4s2 .7 2 3.5.4 3.5 1.9 3.5c1.6 0 2 .8 2.3 3.7.2 3.1.7 3.9 2.6 4.1 1.8.3 2.2 1 2.2 3.8 0 2.7.4 3.4 2 3.4s2-.7 2-3.5.4-3.5 1.9-3.5c1.6 0 2-.8 2.3-3.8.2-3 .7-3.8 2.6-4 1.8-.3 2.2-1 2.2-3.8 0-2.7.4-3.4 2-3.4s2-.7 2-3.5.4-3.5 1.9-3.5c1.6 0 2-.8 2.3-3.8.2-3 .7-3.8 2.6-4 1.8-.3 2.2-1 2.2-3.8 0-2.7.4-3.4 2-3.4s2 .7 2 3.4c0 2.8.4 3.5 2.3 3.8 1.8.2 2.3 1 2.5 4 .3 3 .7 3.8 2.3 3.8 1.5 0 1.9.7 1.9 3.5s.4 3.5 2 3.5 2 .7 2 3.4c0 2.8.4 3.5 2.3 3.8 1.8.2 2.3 1 2.5 4 .3 3 .7 3.8 2.3 3.8 1.5 0 1.9.7 1.9 3.5s.4 3.5 2 3.5 2-.7 2-3.4c0-2.8.4-3.5 2.3-3.8 1.8-.2 2.3-1 2.5-4.1.3-2.9.7-3.7 2.3-3.7 1.5 0 1.9-.7 1.9-3.5s.4-3.5 2-3.5 2-.7 2-3.4c0-2.8.4-3.5 2.3-3.8 1.8-.2 2.3-1 2.5-4.1.3-2.9.7-3.7 2.3-3.7 1.7 0 1.9-.7 1.9-7.5s-.2-7.5-2-7.5c-1.6 0-2-.7-2-3.5 0-3.1-.3-3.5-2.5-3.5s-2.5-.4-2.5-3.5c0-2.8-.4-3.5-2-3.5-1.7 0-2-.7-2-4s-.3-4-1.9-4c-1.6 0-2 .8-2.3 3.7-.2 3.1-.7 3.9-2.5 4.1-1.9.3-2.3 1-2.3 3.8 0 2.7-.4 3.4-2 3.4s-2 .7-2 3.4c0 3.4.1 3.5 4.3 3.8 4.1.3 4.2.4 4.2 3.8v3.5l-6.2.3-6.2.3-.3-3.8c-.2-3.1-.7-3.9-2.5-4.1-1.9-.3-2.3-1-2.3-3.8 0-2.7-.4-3.4-2-3.4s-2-.7-2-3.5.4-3.5 2-3.5c1.7 0 2-.7 2-4 0-3.6.3-4 2.5-4s2.5-.4 2.5-3.5c0-2.8.4-3.5 2-3.5s2-.7 2-3.5.4-3.5 2-3.5c1.7 0 2-.7 2-4 0-3.6.3-4 2.5-4s2.5-.4 2.5-3.5c0-2.8.4-3.5 2-3.5s2 .7 2 3.5.4 3.5 1.9 3.5c1.6 0 2 .8 2.3 3.7.2 3.1.7 3.9 2.6 4.1 1.8.3 2.2 1 2.2 3.8 0 2.7.4 3.4 2 3.4 1.9 0 2-.7 2-11 0-10.2-.1-11-1.9-11-1.6 0-2-.8-2.3-3.8-.2-3-.7-3.8-2.5-4-1.9-.3-2.3-1-2.3-3.8 0-2.7-.4-3.4-2-3.4s-2-.7-2-3.5-.4-3.5-2-3.5c-1.7 0-2-.7-2-4s.3-4 2-4c1.6 0 2-.7 2-3.5s.4-3.5 2-3.5 2-.7 2-3.4c0-2.8.4-3.5 2.3-3.8 1.8-.2 2.3-1 2.5-4.1.3-2.9.7-3.7 2.3-3.7 1.8 0 1.9-.8 1.9-11 0-10.3-.1-11-2-11-1.6 0-2 .7-2 3.4 0 2.8-.4 3.5-2.2 3.8-1.9.2-2.4 1-2.6 4-.3 3-.7 3.8-2.3 3.8-1.5 0-1.9.7-1.9 3.5s-.4 3.5-2 3.5-2-.7-2-3.5c0-3.1-.3-3.5-2.5-3.5s-2.5-.4-2.5-4c0-3.3-.3-4-2-4-1.6 0-2-.7-2-3.5s-.4-3.5-2-3.5-2-.7-2-3.5c0-3.1-.3-3.5-2.5-3.5s-2.5-.4-2.5-4c0-3.3-.3-4-2-4-1.6 0-2-.7-2-3.5s.4-3.5 2-3.5 2-.7 2-3.4c0-2.8.4-3.5 2.3-3.8 1.8-.2 2.3-1 2.5-4.1l.3-3.7h13l-.3 3.7c-.3 3.7-.4 3.8-4.5 4.1-4.2.3-4.3.4-4.3 3.8 0 2.7.4 3.4 2 3.4s2 .7 2 3.4c0 2.8.4 3.5 2.3 3.8 1.8.2 2.3 1 2.5 4 .3 3 .7 3.8 2.3 3.8 1.6 0 1.9-.7 1.9-4s.3-4 2-4c1.6 0 2-.7 2-3.5 0-3.1.3-3.5 2.5-3.5s2.5-.4 2.5-3.5c0-2.8.4-3.5 2-3.5 1.8 0 2-.7 2-7.5s-.2-7.5-1.9-7.5c-1.6 0-2-.8-2.3-3.8-.2-3-.7-3.8-2.5-4-1.9-.3-2.3-1-2.3-3.8 0-2.7-.4-3.4-2-3.4s-2-.7-2-3.5-.4-3.5-1.9-3.5c-1.6 0-2-.8-2.3-3.8-.2-3-.7-3.8-2.5-4-1.9-.3-2.3-1-2.3-3.8 0-2.7-.4-3.4-2-3.4s-2 .7-2 3.5-.4 3.5-1.9 3.5c-1.6 0-2 .8-2.3 3.7-.2 3.1-.7 3.9-2.5 4.1-1.9.3-2.3 1-2.3 3.8 0 2.7-.4 3.4-2 3.4s-2 .7-2 3.5-.4 3.5-1.9 3.5c-1.6 0-2 .8-2.3 3.7-.2 3.1-.7 3.9-2.5 4.1-1.9.3-2.3 1-2.3 3.8 0 2.7-.4 3.4-2 3.4s-2-.7-2-3.4c0-2.8-.4-3.5-2.2-3.8-1.9-.2-2.4-1-2.6-4.1-.3-2.9-.7-3.7-2.3-3.7-1.5 0-1.9-.7-1.9-3.5s-.4-3.5-2-3.5-2-.7-2-3.4c0-2.8-.4-3.5-2.2-3.8-1.9-.2-2.4-1-2.6-4.1-.3-2.9-.7-3.7-2.3-3.7-1.5 0-1.9-.7-1.9-3.5s-.4-3.5-2-3.5-2 .7-2 3.4zm30 74c0 2.8.4 3.5 2.3 3.8 1.7.2 2.3 1.1 2.5 3.4.2 2.2.9 3.4 2.3 3.7 1.4.4 1.9 1.4 1.9 4.1 0 2.9.4 3.6 2 3.6s2 .7 2 3.4c0 2.8.4 3.5 2.3 3.8 1.8.2 2.3 1 2.5 4 .3 3 .7 3.8 2.3 3.8 1.8 0 1.9.9 1.9 18s-.1 18-1.9 18c-1.6 0-2 .8-2.3 3.7-.2 3.1-.7 3.9-2.5 4.1-1.9.3-2.3 1-2.3 3.8 0 2.7-.4 3.4-2 3.4s-2 .7-2 3.6c0 2.7-.5 3.7-1.9 4.1-1.4.3-2.1 1.5-2.3 3.7-.2 2.3-.8 3.2-2.5 3.4-1.9.3-2.3 1-2.3 3.8 0 2.7-.4 3.4-2 3.4s-2-.7-2-3.4c0-2.8-.4-3.5-2.2-3.8-1.8-.2-2.4-1.1-2.6-3.4-.2-2.2-.9-3.4-2.3-3.7-1.4-.4-1.9-1.4-1.9-4.1 0-2.9-.4-3.6-2-3.6s-2-.7-2-3.4c0-2.8-.4-3.5-2.2-3.8-1.9-.2-2.4-1-2.6-4.1-.3-2.9-.7-3.7-2.3-3.7-1.8 0-1.9-.9-1.9-18s.1-18 1.9-18c1.6 0 2-.8 2.3-3.8.2-3 .7-3.8 2.6-4 1.8-.3 2.2-1 2.2-3.8 0-2.7.4-3.4 2-3.4 1.7 0 2-.7 2-4s.3-4 2-4c1.6 0 2-.7 2-3.5 0-3.1.3-3.5 2.5-3.5s2.5-.4 2.5-3.5c0-2.8.4-3.5 2-3.5s2 .7 2 3.4z"/><path d="M39 206.5c0 6.8.2 7.5 2 7.5 1.6 0 2 .7 2 3.5 0 3.1.3 3.5 2.5 3.5 2.3 0 2.5.4 2.5 4s-.2 4-2.5 4c-2.2 0-2.5.4-2.5 3.5 0 2.8-.4 3.5-2 3.5-1.8 0-2 .7-2 7.5s.2 7.5 1.9 7.5c1.6 0 2-.8 2.3-3.8.2-3 .7-3.8 2.6-4 1.8-.3 2.2-1 2.2-3.8 0-2.7.4-3.4 2-3.4s2 .7 2 3.4c0 2.8.4 3.5 2.3 3.8 1.8.2 2.3 1 2.5 4 .3 3 .7 3.8 2.3 3.8 1.7 0 1.9-.7 1.9-7.5s-.2-7.5-2-7.5c-1.6 0-2-.7-2-3.5 0-3.1-.3-3.5-2.5-3.5s-2.5-.4-2.5-4 .3-4 2.5-4 2.5-.4 2.5-3.5c0-2.8.4-3.5 2-3.5 1.8 0 2-.7 2-7.5s-.2-7.5-1.9-7.5c-1.6 0-2 .8-2.3 3.7-.2 3.1-.7 3.9-2.5 4.1-1.9.3-2.3 1-2.3 3.8 0 2.7-.4 3.4-2 3.4s-2-.7-2-3.4c0-2.8-.4-3.5-2.2-3.8-1.9-.2-2.4-1-2.6-4.1-.3-2.9-.7-3.7-2.3-3.7-1.7 0-1.9.7-1.9 7.5zM9 350.5c0 3.1-.3 3.5-2.5 3.5s-2.5.4-2.5 3.5c0 2.8-.4 3.5-2 3.5-1.7 0-2 .7-2 4s.3 4 2 4c1.6 0 2 .7 2 3.5 0 3.1.3 3.5 2.5 3.5 2.3 0 2.5.4 2.5 4 0 3.3.3 4 2 4s2-.7 2-4 .3-4 2-4c1.6 0 2-.7 2-3.5 0-3.1.3-3.5 2.6-3.5 2.3 0 2.5-.3 2.2-3.8-.2-3-.7-3.8-2.5-4-1.9-.3-2.3-1-2.3-3.8 0-2.7-.4-3.4-2-3.4s-2-.7-2-3.5-.4-3.5-2-3.5-2 .7-2 3.5zM35 350.5c0 3.1-.3 3.5-2.5 3.5s-2.5.4-2.5 3.4c0 2.5-.5 3.5-2 3.9-1.5.4-2 1.4-2 4.1 0 2.9.4 3.6 2 3.6s2 .7 2 3.5c0 3.1.3 3.5 2.5 3.5 2.3 0 2.5.4 2.5 4 0 3.3.3 4 2 4s2-.7 2-4 .3-4 2-4c1.6 0 2-.7 2-3.5 0-3.1.3-3.5 2.6-3.5 2.3 0 2.5-.3 2.2-3.8-.2-3-.7-3.8-2.5-4-1.9-.3-2.3-1-2.3-3.8 0-2.7-.4-3.4-2-3.4s-2-.7-2-3.5-.4-3.5-2-3.5-2 .7-2 3.5zM61 350.5c0 2.8-.4 3.5-2 3.5s-2 .7-2 3.4c0 2.8-.4 3.5-2.2 3.8-1.9.2-2.4 1-2.6 4-.3 3.5-.1 3.8 2.2 3.8 2.3 0 2.6.4 2.6 3.5 0 2.8.4 3.5 2 3.5 1.7 0 2 .7 2 4s.3 4 2 4 2-.7 2-4c0-3.6.3-4 2.5-4s2.5-.4 2.5-3.5c0-2.8.4-3.5 2-3.5s2-.7 2-3.6c0-2.7-.5-3.7-2-4.1-1.5-.4-2-1.4-2-3.9 0-3-.3-3.4-2.5-3.4s-2.5-.4-2.5-3.5c0-2.8-.4-3.5-2-3.5s-2 .7-2 3.5zM87 350.5c0 2.8-.4 3.5-2 3.5s-2 .7-2 3.4c0 2.8-.4 3.5-2.2 3.8-1.9.2-2.4 1-2.6 4-.3 3.5-.1 3.8 2.2 3.8 2.3 0 2.6.4 2.6 3.5 0 2.8.4 3.5 2 3.5 1.7 0 2 .7 2 4s.3 4 2 4 2-.7 2-4c0-3.6.3-4 2.5-4s2.5-.4 2.5-3.5c0-2.8.4-3.5 2-3.5 1.7 0 2-.7 2-4s-.3-4-2-4c-1.6 0-2-.7-2-3.5 0-3.1-.3-3.5-2.5-3.5s-2.5-.4-2.5-3.5c0-2.8-.4-3.5-2-3.5s-2 .7-2 3.5zM21.8 379.7c-.2 3.1-.7 3.9-2.5 4.1-1.9.3-2.3 1-2.3 3.8 0 2.7-.4 3.4-2 3.4s-2 .7-2 3.5-.4 3.5-2 3.5c-1.7 0-2 .7-2 4 0 3.6-.2 4-2.5 4-2.2 0-2.5.4-2.5 3.5 0 2.8-.4 3.5-2 3.5s-2 .7-2 3.5.4 3.5 2 3.5c1.7 0 2 .7 2 4 0 3.6.3 4 2.5 4s2.5.4 2.5 3.5c0 2.8.4 3.5 2 3.5 1.7 0 2 .7 2 4s.3 4 2 4c1.6 0 2 .7 2 3.5v3.5h13v-3.4c0-2.8.4-3.5 2.3-3.8 1.8-.2 2.3-1 2.5-4.1.3-2.9.7-3.7 2.3-3.7 1.5 0 1.9-.7 1.9-3.5s.4-3.5 1.9-3.5c1.6 0 2-.8 2.3-3.7.2-3.1.7-3.9 2.6-4.1 1.8-.3 2.2-1 2.2-3.8 0-3-.3-3.4-2.5-3.4s-2.5-.4-2.5-3.5c0-2.8-.4-3.5-2-3.5-1.7 0-2-.7-2-4s-.3-4-2-4c-1.6 0-2-.7-2-3.5 0-3.1-.3-3.5-2.5-3.5s-2.5-.4-2.5-3.5c0-2.8-.4-3.5-2-3.5-1.7 0-2-.7-2-4s-.3-4-1.9-4c-1.6 0-2 .8-2.3 3.7zM26 402c0 3.3.3 4 2 4 1.6 0 2 .7 2 3.5 0 3.1.3 3.5 2.5 3.5s2.5.4 2.5 3.4c0 2.8-.4 3.5-2.2 3.8-1.9.2-2.4 1-2.6 4-.3 3-.7 3.8-2.3 3.8-1.5 0-1.9.7-1.9 3.5s-.4 3.5-2 3.5-2-.7-2-3.5c0-3.1-.3-3.5-2.5-3.5s-2.5-.4-2.5-4c0-3.3-.3-4-2-4-1.6 0-2-.7-2-3.5s.4-3.5 2-3.5 2-.7 2-3.5c0-3.1.3-3.5 2.5-3.5 2.3 0 2.5-.4 2.5-4 0-3.3.3-4 2-4s2 .7 2 4zM74 380c0 3.3-.3 4-2 4-1.6 0-2 .7-2 3.5 0 3.1-.3 3.5-2.5 3.5s-2.5.4-2.5 3.5c0 2.8-.4 3.5-2 3.5-1.7 0-2 .7-2 4s-.3 4-2 4c-1.6 0-2 .7-2 3.5 0 3.1-.3 3.5-2.5 3.5s-2.5.4-2.5 3.4c0 2.8.4 3.5 2.3 3.8 1.8.2 2.3 1 2.5 4.1.3 2.9.7 3.7 2.3 3.7 1.5 0 1.9.7 1.9 3.5s.4 3.5 1.9 3.5c1.6 0 2 .8 2.3 3.7.2 3.1.7 3.9 2.6 4.1 1.8.3 2.2 1 2.2 3.8v3.4h13v-3.5c0-2.8.4-3.5 2-3.5 1.7 0 2-.7 2-4s.3-4 2-4c1.6 0 2-.7 2-3.5 0-3.1.3-3.5 2.5-3.5 2.3 0 2.5-.4 2.5-4 0-3.3.3-4 2-4 1.6 0 2-.7 2-3.5s-.4-3.5-2-3.5-2-.7-2-3.5c0-3.1-.3-3.5-2.5-3.5s-2.5-.4-2.5-4c0-3.3-.3-4-2-4-1.6 0-2-.7-2-3.5s-.4-3.5-2-3.5-2-.7-2-3.4c0-2.8-.4-3.5-2.2-3.8-1.9-.2-2.4-1-2.6-4.1-.3-2.9-.7-3.7-2.3-3.7-1.6 0-1.9.7-1.9 4zm4 22c0 3.6.3 4 2.5 4s2.5.4 2.5 3.5c0 2.8.4 3.5 2 3.5s2 .7 2 3.5-.4 3.5-2 3.5c-1.7 0-2 .7-2 4 0 3.6-.2 4-2.5 4-2.2 0-2.5.4-2.5 3.5 0 2.8-.4 3.5-2 3.5s-2-.7-2-3.5-.4-3.5-1.9-3.5c-1.6 0-2-.8-2.3-3.8-.2-3-.7-3.8-2.5-4-1.9-.3-2.3-1-2.3-3.8 0-3 .3-3.4 2.5-3.4s2.5-.4 2.5-3.5c0-2.8.4-3.5 2-3.5 1.7 0 2-.7 2-4s.3-4 2-4 2 .7 2 4z"/></svg>