<?xml version="1.0" encoding="utf-8"?>
<!-- Generated by IcoMoon.io -->
<!DOCTYPE svg PUBLIC "-//W3C//DTD SVG 1.1//EN" "http://www.w3.org/Graphics/SVG/1.1/DTD/svg11.dtd">
<svg version="1.1" xmlns="http://www.w3.org/2000/svg" xmlns:xlink="http://www.w3.org/1999/xlink" width="1024" height="1024" viewBox="0 0 1024 1024"><g id="icomoon-ignore">
</g>
<path d="M38.687 7.965c0 6.372-0.91 7.964-4.551 7.964-3.868 0-4.551 1.593-4.551 9.102s-0.683 9.102-4.551 9.102c-3.641 0-4.551 1.593-4.551 7.964 0 7.054-0.683 7.964-5.689 7.964s-5.689 0.91-5.689 7.964c0 6.372-0.91 7.964-4.551 7.964-3.868 0-4.551 1.593-4.551 9.102s0.683 9.102 4.551 9.102c3.641 0 4.551 1.593 4.551 7.964 0 7.054 0.683 7.964 5.689 7.964 5.234 0 5.689 0.91 5.689 9.102 0 7.509 0.683 9.102 4.551 9.102 3.641 0 4.551 1.593 4.551 7.964s0.91 7.964 4.551 7.964 4.551 1.593 4.551 7.737c0 6.372 0.91 7.964 5.234 8.647 4.096 0.455 5.234 2.276 5.689 9.102 0.683 6.827 1.593 8.647 5.234 8.647s4.324-1.593 4.324-9.102 0.683-9.102 4.551-9.102c3.641 0 4.551-1.593 4.551-7.964 0-7.054 0.683-7.964 5.689-7.964s5.689-0.91 5.689-7.964c0-6.372 0.91-7.964 4.551-7.964 3.868 0 4.551-1.593 4.551-9.102s0.683-9.102 4.551-9.102c3.641 0 4.551-1.593 4.551-7.964 0-7.054 0.683-7.964 5.916-7.964s5.689-0.683 5.006-8.647c-0.455-6.827-1.593-8.647-5.689-9.102-4.324-0.683-5.234-2.276-5.234-8.647 0-6.144-0.91-7.737-4.551-7.737s-4.551-1.593-4.551-7.964-0.91-7.964-4.324-7.964c-3.641 0-4.551-1.82-5.234-8.647-0.455-6.827-1.593-8.647-5.689-9.102-4.324-0.683-5.234-2.276-5.234-8.647v-7.737h-29.582v7.964zM59.167 42.099c0 6.372 0.91 7.964 4.324 7.964 3.641 0 4.551 1.82 5.234 8.42 0.455 7.054 1.593 8.875 5.916 9.33 4.096 0.683 5.006 2.276 5.006 8.647 0 6.827-0.683 7.737-5.689 7.737s-5.689 0.91-5.689 7.964c0 6.372-0.91 7.964-4.551 7.964-3.868 0-4.551 1.593-4.551 9.102s-0.683 9.102-4.551 9.102-4.551-1.593-4.551-9.102c0-8.192-0.455-9.102-5.689-9.102-5.006 0-5.689-0.91-5.689-7.964 0-6.372-0.91-7.964-4.551-7.964s-4.551-1.593-4.551-7.964 0.91-7.964 4.551-7.964c3.868 0 4.551-1.593 4.551-9.102 0-8.192 0.683-9.102 5.689-9.102s5.689-0.91 5.689-7.964c0-6.372 0.91-7.964 4.551-7.964s4.551 1.593 4.551 7.964zM159.292 7.738c0 6.372-0.91 7.964-5.006 8.647-4.324 0.455-5.461 2.276-5.916 9.102-0.683 6.827-1.593 8.647-5.234 8.647-3.413 0-4.324 1.593-4.324 7.964s-0.91 7.964-4.551 7.964-4.551 1.593-4.551 7.737c0 6.372-0.91 7.964-5.006 8.647-4.324 0.455-5.461 2.276-5.916 9.102-0.683 7.964-0.228 8.647 5.006 8.647s5.916 0.91 5.916 7.964c0 6.372 0.91 7.964 4.551 7.964 3.868 0 4.551 1.593 4.551 9.102s0.683 9.102 4.551 9.102c3.641 0 4.551 1.593 4.551 7.964 0 7.054 0.683 7.964 5.689 7.964s5.689 0.91 5.689 7.964c0 6.372 0.91 7.964 4.551 7.964 3.868 0 4.551 1.593 4.551 9.102s0.683 9.102 4.324 9.102c3.641 0 4.551-1.82 5.234-8.647 0.455-6.827 1.593-8.647 5.916-9.102 4.096-0.683 5.006-2.276 5.006-8.647 0-6.144 0.91-7.737 4.551-7.737s4.551-1.593 4.551-7.964 0.91-7.964 4.551-7.964c3.868 0 4.551-1.593 4.551-9.102 0-8.192 0.683-9.102 5.689-9.102s5.689-0.91 5.689-7.964c0-6.372 0.91-7.964 4.551-7.964s4.551-1.593 4.551-8.192c0-6.144-1.138-8.42-4.551-9.33s-4.551-3.186-4.551-8.875c0-6.827-0.683-7.737-5.689-7.737s-5.689-0.91-5.689-7.964c0-6.372-0.91-7.964-4.551-7.964-3.868 0-4.551-1.593-4.551-9.102s-0.683-9.102-4.551-9.102c-3.641 0-4.551-1.593-4.551-7.964v-7.964h-29.582v7.737zM177.496 42.099c0 7.054 0.683 7.964 5.689 7.964 5.234 0 5.689 0.91 5.689 9.102 0 7.509 0.683 9.102 4.551 9.102 3.641 0 4.551 1.593 4.551 7.964s-0.91 7.964-4.551 7.964-4.551 1.593-4.551 7.964c0 7.054-0.683 7.964-5.689 7.964s-5.689 0.91-5.689 9.102c0 7.509-0.683 9.102-4.551 9.102s-4.551-1.593-4.551-9.102-0.683-9.102-4.551-9.102c-3.641 0-4.551-1.593-4.551-7.964 0-7.054-0.683-7.964-5.689-7.964s-5.689-0.91-5.689-7.737c0-6.372 0.91-7.964 5.234-8.647 4.096-0.455 5.234-2.276 5.689-9.33 0.683-6.599 1.593-8.42 5.234-8.42 3.413 0 4.324-1.593 4.324-7.964s0.91-7.964 4.551-7.964 4.551 1.593 4.551 7.964zM20.483 159.29c0 8.192-0.455 9.102-5.689 9.102-5.006 0-5.689 0.91-5.689 7.964 0 6.372-0.91 7.964-4.551 7.964-3.868 0-4.551 1.593-4.551 9.102s0.683 9.102 4.551 9.102c3.641 0 4.551 1.593 4.551 7.964 0 7.054 0.683 7.964 5.689 7.964s5.689 0.91 5.689 7.964c0 6.372 0.91 7.964 4.551 7.964s4.551-1.593 4.551-7.964 0.91-7.964 4.551-7.964 4.551-1.593 4.551-7.737c0-6.372 0.91-7.964 5.234-8.647 4.096-0.455 5.234-2.276 5.689-9.33 0.683-7.737 0.228-8.42-5.006-8.42s-5.916-0.91-5.916-7.964c0-6.372-0.91-7.964-4.551-7.964-3.868 0-4.551-1.593-4.551-9.102s-0.683-9.102-4.551-9.102-4.551 1.593-4.551 9.102zM79.647 159.29c0 8.192-0.455 9.102-5.689 9.102-5.006 0-5.689 0.91-5.689 7.964 0 6.372-0.91 7.964-4.551 7.964s-4.551 1.593-4.551 8.192c0 6.144 1.138 8.42 4.551 9.33s4.551 3.186 4.551 8.875c0 6.827 0.683 7.737 5.689 7.737s5.689 0.91 5.689 7.964c0 6.372 0.91 7.964 4.551 7.964s4.551-1.593 4.551-7.964 0.91-7.964 4.551-7.964 4.551-1.593 4.551-7.737c0-6.372 0.91-7.964 5.234-8.647 4.096-0.455 5.234-2.276 5.689-9.33 0.683-7.737 0.228-8.42-5.006-8.42s-5.916-0.91-5.916-7.964c0-6.372-0.91-7.964-4.551-7.964-3.868 0-4.551-1.593-4.551-9.102s-0.683-9.102-4.551-9.102-4.551 1.593-4.551 9.102zM138.812 159.29c0 7.509-0.683 9.102-4.551 9.102-3.641 0-4.551 1.593-4.551 7.964 0 7.054-0.683 7.964-5.916 7.964s-5.689 0.683-5.006 8.42c0.455 7.054 1.593 8.875 5.916 9.33 4.096 0.683 5.006 2.276 5.006 8.647 0 6.144 0.91 7.737 4.551 7.737s4.551 1.593 4.551 7.964 0.91 7.964 4.551 7.964 4.551-1.593 4.551-7.964c0-7.054 0.683-7.964 5.689-7.964s5.689-0.91 5.689-7.737c0-5.689 1.138-7.964 4.551-8.875s4.551-3.186 4.551-9.33c0-6.599-0.91-8.192-4.551-8.192s-4.551-1.593-4.551-7.964c0-7.054-0.683-7.964-5.689-7.964s-5.689-0.91-5.689-9.102c0-7.509-0.683-9.102-4.551-9.102s-4.551 1.593-4.551 9.102zM197.976 159.29c0 7.509-0.683 9.102-4.551 9.102-3.641 0-4.551 1.593-4.551 7.964 0 7.054-0.683 7.964-5.916 7.964s-5.689 0.683-5.006 8.42c0.455 7.054 1.593 8.875 5.916 9.33 4.096 0.683 5.006 2.276 5.006 8.647 0 6.144 0.91 7.737 4.551 7.737s4.551 1.593 4.551 7.964 0.91 7.964 4.551 7.964 4.551-1.593 4.551-7.964c0-7.054 0.683-7.964 5.689-7.964s5.689-0.91 5.689-7.964c0-6.372 0.91-7.964 4.551-7.964 3.868 0 4.551-1.593 4.551-9.102s-0.683-9.102-4.551-9.102c-3.641 0-4.551-1.593-4.551-7.964 0-7.054-0.683-7.964-5.689-7.964s-5.689-0.91-5.689-9.102c0-7.509-0.683-9.102-4.551-9.102s-4.551 1.593-4.551 9.102z"></path>
<path d="M50.065 226.191c0 6.372-0.91 7.964-5.006 8.647-4.324 0.455-5.461 2.276-5.916 9.102-0.683 6.827-1.593 8.647-5.234 8.647-3.413 0-4.324 1.593-4.324 7.964s-0.91 7.964-4.551 7.964-4.551 1.593-4.551 7.737c0 6.372-0.91 7.964-5.006 8.647-4.324 0.455-5.461 2.276-5.916 9.102-0.683 6.827-1.593 8.647-5.234 8.647-3.868 0-4.324 1.593-4.324 17.067s0.455 17.067 4.551 17.067c3.641 0 4.551 1.593 4.551 7.964 0 7.054 0.683 7.964 5.689 7.964s5.689 0.91 5.689 7.964c0 6.372 0.91 7.964 4.551 7.964 3.868 0 4.551 1.593 4.551 9.102s0.683 9.102 4.324 9.102c3.641 0 4.551-1.82 5.234-8.647 0.455-6.827 1.593-8.647 5.916-9.102 4.096-0.683 5.006-2.276 5.006-8.647 0-6.144 0.91-7.737 4.551-7.737s4.551-1.593 4.551-7.737c0-7.737-0.228-7.964-9.557-8.647-9.557-0.683-9.785-0.91-10.468-9.33l-0.683-8.42h29.582l0.683 8.42c0.455 7.054 1.593 8.875 5.916 9.33 4.096 0.683 5.006 2.276 5.006 8.647 0 6.144 0.91 7.737 4.551 7.737s4.551 1.593 4.551 7.964-0.91 7.964-4.551 7.964c-3.868 0-4.551 1.593-4.551 9.102 0 8.192-0.455 9.102-5.689 9.102-5.006 0-5.689 0.91-5.689 7.964 0 6.372-0.91 7.964-4.551 7.964s-4.551 1.593-4.551 7.964-0.91 7.964-4.551 7.964c-3.868 0-4.551 1.593-4.551 9.102 0 8.192-0.455 9.102-5.689 9.102-5.006 0-5.689 0.91-5.689 7.964 0 6.372-0.91 7.964-4.551 7.964s-4.551-1.593-4.551-7.964-0.91-7.964-4.324-7.964c-3.641 0-4.551-1.82-5.234-8.647-0.455-6.827-1.593-8.647-5.689-9.102-4.324-0.683-5.234-2.276-5.234-8.647 0-6.144-0.91-7.737-4.551-7.737-4.324 0-4.551 1.593-4.551 25.031 0 23.211 0.228 25.031 4.324 25.031 3.641 0 4.551 1.82 5.234 8.42 0.455 7.054 1.593 8.875 5.916 9.33 4.096 0.683 5.006 2.276 5.006 8.647 0 6.144 0.91 7.737 4.551 7.737s4.551 1.593 4.551 7.964 0.91 7.964 4.551 7.964c3.868 0 4.551 1.593 4.551 9.102s-0.683 9.102-4.551 9.102c-3.641 0-4.551 1.593-4.551 7.964s-0.91 7.964-4.551 7.964-4.551 1.593-4.551 7.737c0 6.372-0.91 7.964-5.234 8.647-4.096 0.455-5.234 2.276-5.689 9.102-0.683 6.827-1.593 8.647-5.234 8.647-4.096 0-4.324 1.82-4.324 25.031 0 23.438 0.228 25.031 4.551 25.031 3.641 0 4.551-1.593 4.551-7.737 0-6.372 0.91-7.964 5.234-8.647 4.096-0.455 5.234-2.276 5.689-9.33 0.683-6.599 1.593-8.42 5.234-8.42 3.413 0 4.324-1.593 4.324-7.964s0.91-7.964 4.551-7.964 4.551 1.593 4.551 7.964c0 7.054 0.683 7.964 5.689 7.964 5.234 0 5.689 0.91 5.689 9.102 0 7.509 0.683 9.102 4.551 9.102 3.641 0 4.551 1.593 4.551 7.964s0.91 7.964 4.551 7.964 4.551 1.593 4.551 7.964c0 7.054 0.683 7.964 5.689 7.964 5.234 0 5.689 0.91 5.689 9.102 0 7.509 0.683 9.102 4.551 9.102 3.641 0 4.551 1.593 4.551 7.964s-0.91 7.964-4.551 7.964-4.551 1.593-4.551 7.737c0 6.372-0.91 7.964-5.006 8.647-4.324 0.455-5.461 2.276-5.916 9.102l-0.683 8.647h-29.582l0.683-8.647c0.683-8.192 0.91-8.42 10.468-9.102 9.33-0.683 9.557-0.91 9.557-8.647 0-6.144-0.91-7.737-4.551-7.737s-4.551-1.593-4.551-7.737c0-6.372-0.91-7.964-5.006-8.647-4.324-0.455-5.461-2.276-5.916-9.33-0.683-6.599-1.593-8.42-5.234-8.42s-4.324 1.593-4.324 9.102-0.683 9.102-4.551 9.102c-3.641 0-4.551 1.593-4.551 7.964 0 7.054-0.683 7.964-5.689 7.964s-5.689 0.91-5.689 7.964c0 6.372-0.91 7.964-4.551 7.964-4.096 0-4.551 1.593-4.551 17.067s0.455 17.067 4.324 17.067c3.641 0 4.551 1.82 5.234 8.42 0.455 7.054 1.593 8.875 5.916 9.33 4.096 0.683 5.006 2.276 5.006 8.647 0 6.144 0.91 7.737 4.551 7.737s4.551 1.593 4.551 7.964 0.91 7.964 4.324 7.964c3.641 0 4.551 1.82 5.234 8.42 0.455 7.054 1.593 8.875 5.916 9.33 4.096 0.683 5.006 2.276 5.006 8.647 0 6.144 0.91 7.737 4.551 7.737s4.551-1.593 4.551-7.964 0.91-7.964 4.324-7.964c3.641 0 4.551-1.82 5.234-8.647 0.455-6.827 1.593-8.647 5.916-9.102 4.096-0.683 5.006-2.276 5.006-8.647 0-6.144 0.91-7.737 4.551-7.737s4.551-1.593 4.551-7.964 0.91-7.964 4.324-7.964c3.641 0 4.551-1.82 5.234-8.647 0.455-6.827 1.593-8.647 5.916-9.102 4.096-0.683 5.006-2.276 5.006-8.647 0-6.144 0.91-7.737 4.551-7.737s4.551 1.593 4.551 7.737c0 6.372 0.91 7.964 5.234 8.647 4.096 0.455 5.234 2.276 5.689 9.102 0.683 6.827 1.593 8.647 5.234 8.647 3.413 0 4.324 1.593 4.324 7.964s0.91 7.964 4.551 7.964 4.551 1.593 4.551 7.737c0 6.372 0.91 7.964 5.234 8.647 4.096 0.455 5.234 2.276 5.689 9.102 0.683 6.827 1.593 8.647 5.234 8.647 3.413 0 4.324 1.593 4.324 7.964s0.91 7.964 4.551 7.964 4.551-1.593 4.551-7.737c0-6.372 0.91-7.964 5.234-8.647 4.096-0.455 5.234-2.276 5.689-9.33 0.683-6.599 1.593-8.42 5.234-8.42 3.413 0 4.324-1.593 4.324-7.964s0.91-7.964 4.551-7.964 4.551-1.593 4.551-7.737c0-6.372 0.91-7.964 5.234-8.647 4.096-0.455 5.234-2.276 5.689-9.33 0.683-6.599 1.593-8.42 5.234-8.42 3.868 0 4.324-1.593 4.324-17.067s-0.455-17.067-4.551-17.067c-3.641 0-4.551-1.593-4.551-7.964 0-7.054-0.683-7.964-5.689-7.964s-5.689-0.91-5.689-7.964c0-6.372-0.91-7.964-4.551-7.964-3.868 0-4.551-1.593-4.551-9.102s-0.683-9.102-4.324-9.102c-3.641 0-4.551 1.82-5.234 8.42-0.455 7.054-1.593 8.875-5.689 9.33-4.324 0.683-5.234 2.276-5.234 8.647 0 6.144-0.91 7.737-4.551 7.737s-4.551 1.593-4.551 7.737c0 7.737 0.228 7.964 9.785 8.647 9.33 0.683 9.557 0.91 9.557 8.647v7.964l-28.217 1.365-0.683-8.647c-0.455-7.054-1.593-8.875-5.689-9.33-4.324-0.683-5.234-2.276-5.234-8.647 0-6.144-0.91-7.737-4.551-7.737s-4.551-1.593-4.551-7.964 0.91-7.964 4.551-7.964c3.868 0 4.551-1.593 4.551-9.102 0-8.192 0.683-9.102 5.689-9.102s5.689-0.91 5.689-7.964c0-6.372 0.91-7.964 4.551-7.964s4.551-1.593 4.551-7.964 0.91-7.964 4.551-7.964c3.868 0 4.551-1.593 4.551-9.102 0-8.192 0.683-9.102 5.689-9.102s5.689-0.91 5.689-7.964c0-6.372 0.91-7.964 4.551-7.964s4.551 1.593 4.551 7.964 0.91 7.964 4.324 7.964c3.641 0 4.551 1.82 5.234 8.42 0.455 7.054 1.593 8.875 5.916 9.33 4.096 0.683 5.006 2.276 5.006 8.647 0 6.144 0.91 7.737 4.551 7.737 4.324 0 4.551-1.593 4.551-25.031 0-23.211-0.228-25.031-4.324-25.031-3.641 0-4.551-1.82-5.234-8.647-0.455-6.827-1.593-8.647-5.689-9.102-4.324-0.683-5.234-2.276-5.234-8.647 0-6.144-0.91-7.737-4.551-7.737s-4.551-1.593-4.551-7.964-0.91-7.964-4.551-7.964c-3.868 0-4.551-1.593-4.551-9.102s0.683-9.102 4.551-9.102c3.641 0 4.551-1.593 4.551-7.964s0.91-7.964 4.551-7.964 4.551-1.593 4.551-7.737c0-6.372 0.91-7.964 5.234-8.647 4.096-0.455 5.234-2.276 5.689-9.33 0.683-6.599 1.593-8.42 5.234-8.42 4.096 0 4.324-1.82 4.324-25.031 0-23.438-0.228-25.031-4.551-25.031-3.641 0-4.551 1.593-4.551 7.737 0 6.372-0.91 7.964-5.006 8.647-4.324 0.455-5.461 2.276-5.916 9.102-0.683 6.827-1.593 8.647-5.234 8.647-3.413 0-4.324 1.593-4.324 7.964s-0.91 7.964-4.551 7.964-4.551-1.593-4.551-7.964c0-7.054-0.683-7.964-5.689-7.964s-5.689-0.91-5.689-9.102c0-7.509-0.683-9.102-4.551-9.102-3.641 0-4.551-1.593-4.551-7.964s-0.91-7.964-4.551-7.964-4.551-1.593-4.551-7.964c0-7.054-0.683-7.964-5.689-7.964s-5.689-0.91-5.689-9.102c0-7.509-0.683-9.102-4.551-9.102-3.641 0-4.551-1.593-4.551-7.964s0.91-7.964 4.551-7.964 4.551-1.593 4.551-7.737c0-6.372 0.91-7.964 5.234-8.647 4.096-0.455 5.234-2.276 5.689-9.33l0.683-8.42h29.582l-0.683 8.42c-0.683 8.42-0.91 8.647-10.24 9.33-9.557 0.683-9.785 0.91-9.785 8.647 0 6.144 0.91 7.737 4.551 7.737s4.551 1.593 4.551 7.737c0 6.372 0.91 7.964 5.234 8.647 4.096 0.455 5.234 2.276 5.689 9.102 0.683 6.827 1.593 8.647 5.234 8.647s4.324-1.593 4.324-9.102 0.683-9.102 4.551-9.102c3.641 0 4.551-1.593 4.551-7.964 0-7.054 0.683-7.964 5.689-7.964s5.689-0.91 5.689-7.964c0-6.372 0.91-7.964 4.551-7.964 4.096 0 4.551-1.593 4.551-17.067s-0.455-17.067-4.324-17.067c-3.641 0-4.551-1.82-5.234-8.647-0.455-6.827-1.593-8.647-5.689-9.102-4.324-0.683-5.234-2.276-5.234-8.647 0-6.144-0.91-7.737-4.551-7.737s-4.551-1.593-4.551-7.964-0.91-7.964-4.324-7.964c-3.641 0-4.551-1.82-5.234-8.647-0.455-6.827-1.593-8.647-5.689-9.102-4.324-0.683-5.234-2.276-5.234-8.647 0-6.144-0.91-7.737-4.551-7.737s-4.551 1.593-4.551 7.964-0.91 7.964-4.324 7.964c-3.641 0-4.551 1.82-5.234 8.42-0.455 7.054-1.593 8.875-5.689 9.33-4.324 0.683-5.234 2.276-5.234 8.647 0 6.144-0.91 7.737-4.551 7.737s-4.551 1.593-4.551 7.964-0.91 7.964-4.324 7.964c-3.641 0-4.551 1.82-5.234 8.42-0.455 7.054-1.593 8.875-5.689 9.33-4.324 0.683-5.234 2.276-5.234 8.647 0 6.144-0.91 7.737-4.551 7.737s-4.551-1.593-4.551-7.737c0-6.372-0.91-7.964-5.006-8.647-4.324-0.455-5.461-2.276-5.916-9.33-0.683-6.599-1.593-8.42-5.234-8.42-3.413 0-4.324-1.593-4.324-7.964s-0.91-7.964-4.551-7.964-4.551-1.593-4.551-7.737c0-6.372-0.91-7.964-5.006-8.647-4.324-0.455-5.461-2.276-5.916-9.33-0.683-6.599-1.593-8.42-5.234-8.42-3.413 0-4.324-1.593-4.324-7.964s-0.91-7.964-4.551-7.964-4.551 1.593-4.551 7.737zM118.332 394.583c0 6.372 0.91 7.964 5.234 8.647 3.868 0.455 5.234 2.503 5.689 7.737 0.455 5.006 2.048 7.737 5.234 8.42 3.186 0.91 4.324 3.186 4.324 9.33 0 6.599 0.91 8.192 4.551 8.192s4.551 1.593 4.551 7.737c0 6.372 0.91 7.964 5.234 8.647 4.096 0.455 5.234 2.276 5.689 9.102 0.683 6.827 1.593 8.647 5.234 8.647 4.096 0 4.324 2.048 4.324 40.96s-0.228 40.96-4.324 40.96c-3.641 0-4.551 1.82-5.234 8.42-0.455 7.054-1.593 8.875-5.689 9.33-4.324 0.683-5.234 2.276-5.234 8.647 0 6.144-0.91 7.737-4.551 7.737s-4.551 1.593-4.551 8.192c0 6.144-1.138 8.42-4.324 9.33-3.186 0.683-4.779 3.413-5.234 8.42-0.455 5.234-1.82 7.282-5.689 7.737-4.324 0.683-5.234 2.276-5.234 8.647 0 6.144-0.91 7.737-4.551 7.737s-4.551-1.593-4.551-7.737c0-6.372-0.91-7.964-5.006-8.647-4.096-0.455-5.461-2.503-5.916-7.737-0.455-5.006-2.048-7.737-5.234-8.42-3.186-0.91-4.324-3.186-4.324-9.33 0-6.599-0.91-8.192-4.551-8.192s-4.551-1.593-4.551-7.737c0-6.372-0.91-7.964-5.006-8.647-4.324-0.455-5.461-2.276-5.916-9.33-0.683-6.599-1.593-8.42-5.234-8.42-4.096 0-4.324-2.048-4.324-40.96s0.228-40.96 4.324-40.96c3.641 0 4.551-1.82 5.234-8.647 0.455-6.827 1.593-8.647 5.916-9.102 4.096-0.683 5.006-2.276 5.006-8.647 0-6.144 0.91-7.737 4.551-7.737 3.868 0 4.551-1.593 4.551-9.102s0.683-9.102 4.551-9.102c3.641 0 4.551-1.593 4.551-7.964 0-7.054 0.683-7.964 5.689-7.964s5.689-0.91 5.689-7.964c0-6.372 0.91-7.964 4.551-7.964s4.551 1.593 4.551 7.737z"></path>
<path d="M88.75 469.904c0 15.474 0.455 17.067 4.551 17.067 3.641 0 4.551 1.593 4.551 7.964 0 7.054 0.683 7.964 5.689 7.964 5.234 0 5.689 0.91 5.689 9.102s-0.455 9.102-5.689 9.102c-5.006 0-5.689 0.91-5.689 7.964 0 6.372-0.91 7.964-4.551 7.964-4.096 0-4.551 1.593-4.551 17.067s0.455 17.067 4.324 17.067c3.641 0 4.551-1.82 5.234-8.647 0.455-6.827 1.593-8.647 5.916-9.102 4.096-0.683 5.006-2.276 5.006-8.647 0-6.144 0.91-7.737 4.551-7.737s4.551 1.593 4.551 7.737c0 6.372 0.91 7.964 5.234 8.647 4.096 0.455 5.234 2.276 5.689 9.102 0.683 6.827 1.593 8.647 5.234 8.647 3.868 0 4.324-1.593 4.324-17.067s-0.455-17.067-4.551-17.067c-3.641 0-4.551-1.593-4.551-7.964 0-7.054-0.683-7.964-5.689-7.964s-5.689-0.91-5.689-9.102 0.683-9.102 5.689-9.102 5.689-0.91 5.689-7.964c0-6.372 0.91-7.964 4.551-7.964 4.096 0 4.551-1.593 4.551-17.067s-0.455-17.067-4.324-17.067c-3.641 0-4.551 1.82-5.234 8.42-0.455 7.054-1.593 8.875-5.689 9.33-4.324 0.683-5.234 2.276-5.234 8.647 0 6.144-0.91 7.737-4.551 7.737s-4.551-1.593-4.551-7.737c0-6.372-0.91-7.964-5.006-8.647-4.324-0.455-5.461-2.276-5.916-9.33-0.683-6.599-1.593-8.42-5.234-8.42-3.868 0-4.324 1.593-4.324 17.067zM20.483 797.585c0 7.054-0.683 7.964-5.689 7.964s-5.689 0.91-5.689 7.964c0 6.372-0.91 7.964-4.551 7.964-3.868 0-4.551 1.593-4.551 9.102s0.683 9.102 4.551 9.102c3.641 0 4.551 1.593 4.551 7.964 0 7.054 0.683 7.964 5.689 7.964 5.234 0 5.689 0.91 5.689 9.102 0 7.509 0.683 9.102 4.551 9.102s4.551-1.593 4.551-9.102 0.683-9.102 4.551-9.102c3.641 0 4.551-1.593 4.551-7.964 0-7.054 0.683-7.964 5.916-7.964s5.689-0.683 5.006-8.647c-0.455-6.827-1.593-8.647-5.689-9.102-4.324-0.683-5.234-2.276-5.234-8.647 0-6.144-0.91-7.737-4.551-7.737s-4.551-1.593-4.551-7.964-0.91-7.964-4.551-7.964-4.551 1.593-4.551 7.964zM79.647 797.585c0 7.054-0.683 7.964-5.689 7.964s-5.689 0.91-5.689 7.737c0 5.689-1.138 7.964-4.551 8.875s-4.551 3.186-4.551 9.33c0 6.599 0.91 8.192 4.551 8.192s4.551 1.593 4.551 7.964c0 7.054 0.683 7.964 5.689 7.964 5.234 0 5.689 0.91 5.689 9.102 0 7.509 0.683 9.102 4.551 9.102s4.551-1.593 4.551-9.102 0.683-9.102 4.551-9.102c3.641 0 4.551-1.593 4.551-7.964 0-7.054 0.683-7.964 5.916-7.964s5.689-0.683 5.006-8.647c-0.455-6.827-1.593-8.647-5.689-9.102-4.324-0.683-5.234-2.276-5.234-8.647 0-6.144-0.91-7.737-4.551-7.737s-4.551-1.593-4.551-7.964-0.91-7.964-4.551-7.964-4.551 1.593-4.551 7.964zM138.812 797.585c0 6.372-0.91 7.964-4.551 7.964s-4.551 1.593-4.551 7.737c0 6.372-0.91 7.964-5.006 8.647-4.324 0.455-5.461 2.276-5.916 9.102-0.683 7.964-0.228 8.647 5.006 8.647s5.916 0.91 5.916 7.964c0 6.372 0.91 7.964 4.551 7.964 3.868 0 4.551 1.593 4.551 9.102s0.683 9.102 4.551 9.102 4.551-1.593 4.551-9.102c0-8.192 0.683-9.102 5.689-9.102s5.689-0.91 5.689-7.964c0-6.372 0.91-7.964 4.551-7.964s4.551-1.593 4.551-8.192c0-6.144-1.138-8.42-4.551-9.33s-4.551-3.186-4.551-8.875c0-6.827-0.683-7.737-5.689-7.737s-5.689-0.91-5.689-7.964c0-6.372-0.91-7.964-4.551-7.964s-4.551 1.593-4.551 7.964zM197.976 797.585c0 6.372-0.91 7.964-4.551 7.964s-4.551 1.593-4.551 7.737c0 6.372-0.91 7.964-5.006 8.647-4.324 0.455-5.461 2.276-5.916 9.102-0.683 7.964-0.228 8.647 5.006 8.647s5.916 0.91 5.916 7.964c0 6.372 0.91 7.964 4.551 7.964 3.868 0 4.551 1.593 4.551 9.102s0.683 9.102 4.551 9.102 4.551-1.593 4.551-9.102c0-8.192 0.683-9.102 5.689-9.102s5.689-0.91 5.689-7.964c0-6.372 0.91-7.964 4.551-7.964 3.868 0 4.551-1.593 4.551-9.102s-0.683-9.102-4.551-9.102c-3.641 0-4.551-1.593-4.551-7.964 0-7.054-0.683-7.964-5.689-7.964s-5.689-0.91-5.689-7.964c0-6.372-0.91-7.964-4.551-7.964s-4.551 1.593-4.551 7.964zM49.61 864.031c-0.455 7.054-1.593 8.875-5.689 9.33-4.324 0.683-5.234 2.276-5.234 8.647 0 6.144-0.91 7.737-4.551 7.737s-4.551 1.593-4.551 7.964-0.91 7.964-4.551 7.964c-3.868 0-4.551 1.593-4.551 9.102 0 8.192-0.455 9.102-5.689 9.102-5.006 0-5.689 0.91-5.689 7.964 0 6.372-0.91 7.964-4.551 7.964s-4.551 1.593-4.551 7.964 0.91 7.964 4.551 7.964c3.868 0 4.551 1.593 4.551 9.102 0 8.192 0.683 9.102 5.689 9.102s5.689 0.91 5.689 7.964c0 6.372 0.91 7.964 4.551 7.964 3.868 0 4.551 1.593 4.551 9.102s0.683 9.102 4.551 9.102c3.641 0 4.551 1.593 4.551 7.964v7.964h29.582v-7.737c0-6.372 0.91-7.964 5.234-8.647 4.096-0.455 5.234-2.276 5.689-9.33 0.683-6.599 1.593-8.42 5.234-8.42 3.413 0 4.324-1.593 4.324-7.964s0.91-7.964 4.324-7.964c3.641 0 4.551-1.82 5.234-8.42 0.455-7.054 1.593-8.875 5.916-9.33 4.096-0.683 5.006-2.276 5.006-8.647 0-6.827-0.683-7.737-5.689-7.737s-5.689-0.91-5.689-7.964c0-6.372-0.91-7.964-4.551-7.964-3.868 0-4.551-1.593-4.551-9.102s-0.683-9.102-4.551-9.102c-3.641 0-4.551-1.593-4.551-7.964 0-7.054-0.683-7.964-5.689-7.964s-5.689-0.91-5.689-7.964c0-6.372-0.91-7.964-4.551-7.964-3.868 0-4.551-1.593-4.551-9.102s-0.683-9.102-4.324-9.102c-3.641 0-4.551 1.82-5.234 8.42zM59.167 914.776c0 7.509 0.683 9.102 4.551 9.102 3.641 0 4.551 1.593 4.551 7.964 0 7.054 0.683 7.964 5.689 7.964s5.689 0.91 5.689 7.737c0 6.372-0.91 7.964-5.006 8.647-4.324 0.455-5.461 2.276-5.916 9.102-0.683 6.827-1.593 8.647-5.234 8.647-3.413 0-4.324 1.593-4.324 7.964s-0.91 7.964-4.551 7.964-4.551-1.593-4.551-7.964c0-7.054-0.683-7.964-5.689-7.964s-5.689-0.91-5.689-9.102c0-7.509-0.683-9.102-4.551-9.102-3.641 0-4.551-1.593-4.551-7.964s0.91-7.964 4.551-7.964 4.551-1.593 4.551-7.964c0-7.054 0.683-7.964 5.689-7.964 5.234 0 5.689-0.91 5.689-9.102 0-7.509 0.683-9.102 4.551-9.102s4.551 1.593 4.551 9.102zM168.394 864.714c0 7.509-0.683 9.102-4.551 9.102-3.641 0-4.551 1.593-4.551 7.964 0 7.054-0.683 7.964-5.689 7.964s-5.689 0.91-5.689 7.964c0 6.372-0.91 7.964-4.551 7.964-3.868 0-4.551 1.593-4.551 9.102s-0.683 9.102-4.551 9.102c-3.641 0-4.551 1.593-4.551 7.964 0 7.054-0.683 7.964-5.689 7.964s-5.689 0.91-5.689 7.737c0 6.372 0.91 7.964 5.234 8.647 4.096 0.455 5.234 2.276 5.689 9.33 0.683 6.599 1.593 8.42 5.234 8.42 3.413 0 4.324 1.593 4.324 7.964s0.91 7.964 4.324 7.964c3.641 0 4.551 1.82 5.234 8.42 0.455 7.054 1.593 8.875 5.916 9.33 4.096 0.683 5.006 2.276 5.006 8.647v7.737h29.582v-7.964c0-6.372 0.91-7.964 4.551-7.964 3.868 0 4.551-1.593 4.551-9.102s0.683-9.102 4.551-9.102c3.641 0 4.551-1.593 4.551-7.964 0-7.054 0.683-7.964 5.689-7.964 5.234 0 5.689-0.91 5.689-9.102 0-7.509 0.683-9.102 4.551-9.102 3.641 0 4.551-1.593 4.551-7.964s-0.91-7.964-4.551-7.964-4.551-1.593-4.551-7.964c0-7.054-0.683-7.964-5.689-7.964s-5.689-0.91-5.689-9.102c0-7.509-0.683-9.102-4.551-9.102-3.641 0-4.551-1.593-4.551-7.964s-0.91-7.964-4.551-7.964-4.551-1.593-4.551-7.737c0-6.372-0.91-7.964-5.006-8.647-4.324-0.455-5.461-2.276-5.916-9.33-0.683-6.599-1.593-8.42-5.234-8.42s-4.324 1.593-4.324 9.102zM177.496 914.776c0 8.192 0.683 9.102 5.689 9.102s5.689 0.91 5.689 7.964c0 6.372 0.91 7.964 4.551 7.964s4.551 1.593 4.551 7.964-0.91 7.964-4.551 7.964c-3.868 0-4.551 1.593-4.551 9.102 0 8.192-0.455 9.102-5.689 9.102-5.006 0-5.689 0.91-5.689 7.964 0 6.372-0.91 7.964-4.551 7.964s-4.551-1.593-4.551-7.964-0.91-7.964-4.324-7.964c-3.641 0-4.551-1.82-5.234-8.647-0.455-6.827-1.593-8.647-5.689-9.102-4.324-0.683-5.234-2.276-5.234-8.647 0-6.827 0.683-7.737 5.689-7.737s5.689-0.91 5.689-7.964c0-6.372 0.91-7.964 4.551-7.964 3.868 0 4.551-1.593 4.551-9.102s0.683-9.102 4.551-9.102 4.551 1.593 4.551 9.102z"></path>
</svg>
