<?xml version="1.0" encoding="utf-8"?>
<!-- Generated by IcoMoon.io -->
<!DOCTYPE svg PUBLIC "-//W3C//DTD SVG 1.1//EN" "http://www.w3.org/Graphics/SVG/1.1/DTD/svg11.dtd">
<svg version="1.1" xmlns="http://www.w3.org/2000/svg" xmlns:xlink="http://www.w3.org/1999/xlink" width="1024" height="1024" viewBox="0 0 1024 1024"><g id="icomoon-ignore">
</g>
<path d="M483.89 42.667l-23.592 42.165-28.11 6.024c-145.569 29.616-272.063 137.537-321.255 273.569-8.031 22.086-17.067 52.204-20.078 67.765l-6.024 28.11-42.165 23.592c-23.592 13.051-42.667 26.102-42.667 28.11s19.075 15.059 42.667 28.11l42.165 23.592 6.024 28.11c29.616 145.067 138.039 272.063 273.569 321.255 22.086 8.031 52.204 17.067 67.765 20.078l28.11 6.024 23.592 42.165c13.051 23.592 26.102 42.667 28.11 42.667s14.557-19.075 27.608-42.165l24.094-42.165 34.635-8.031c83.325-19.075 153.098-57.725 214.337-118.965s99.89-131.012 118.965-214.337l8.031-34.635 42.165-24.094c23.090-13.051 42.165-25.6 42.165-27.608s-19.075-15.059-42.667-28.11l-42.165-23.592-6.024-28.11c-29.616-145.067-138.039-272.063-273.569-321.255-22.086-8.031-52.204-17.067-67.765-20.078l-28.11-6.024-23.592-42.165c-13.051-23.592-26.102-42.667-28.11-42.667s-15.059 19.075-28.11 42.667zM627.451 155.608c62.745 21.082 100.392 44.674 148.58 92.863 39.153 39.153 49.192 52.204 68.769 92.863 28.11 59.231 38.651 104.91 38.651 170.667s-10.541 111.435-38.651 170.667c-19.576 40.659-29.616 54.212-68.769 93.365s-52.706 49.192-93.365 68.769c-59.231 28.11-104.91 38.651-170.667 38.651s-111.435-10.541-170.667-38.651c-40.659-19.576-53.71-29.616-92.863-68.769-48.69-49.192-72.282-86.839-93.867-151.090-10.039-30.62-11.545-44.674-11.545-112.941s1.506-82.322 11.545-112.941c21.584-64.753 44.674-101.898 93.867-150.588 48.69-48.69 87.843-73.286 148.078-92.361 47.184-14.557 50.698-15.059 128-13.051 56.22 1.004 76.8 3.514 102.902 12.549z"></path>
</svg>
