<?xml version="1.0" encoding="utf-8"?>
<!-- Generated by IcoMoon.io -->
<!DOCTYPE svg PUBLIC "-//W3C//DTD SVG 1.1//EN" "http://www.w3.org/Graphics/SVG/1.1/DTD/svg11.dtd">
<svg version="1.1" xmlns="http://www.w3.org/2000/svg" xmlns:xlink="http://www.w3.org/1999/xlink" width="1024" height="1024" viewBox="0 0 1024 1024"><g id="icomoon-ignore">
</g>
<path d="M503.735 19.718c-40.706 111.939-74.838 175.331-124.66 232.359-5.725 6.571-8.48 11.025-6.36 10.176 9.329-3.391 47.277-10.176 64.873-11.449l19.292-1.271-0.424 198.016-0.636 197.802-55.122 8.269c-52.153 7.845-55.122 8.056-57.666 4.451-1.484-2.12-2.756-7.631-2.756-12.509 0-12.509-5.725-56.606-11.872-93.283-15.901-92.859-50.246-216.672-73.143-264.16-9.116-18.869-12.509-28.197-11.449-31.377 1.696-5.725 3.816-5.725 26.501 1.909 26.925 8.905 28.41 8.48 14.841-5.511-14.629-14.841-46.217-39.010-70.598-53.637-37.526-22.685-86.923-42.19-128.9-51.093-24.17-5.089-27.35-5.089-27.35-0.849 0 1.909 9.965 19.292 21.836 38.586 116.393 187.627 174.27 357.232 183.811 538.71 1.060 21.625 2.12 41.13 2.12 43.462 0 3.391 1.271 3.605 15.476 2.331 8.269-0.849 43.886-6.149 78.867-11.872 34.981-5.936 71.022-11.236 80.138-11.872l16.325-1.271v278.365h110.244v-278.365l16.536 1.271c8.905 0.636 44.946 5.936 79.927 11.872 34.981 5.725 70.387 11.025 78.654 11.872l15.265 1.484 1.271-27.35c3.391-69.114 9.116-115.755 21.625-173.635 26.501-124.66 79.927-250.38 163.457-385.005 11.872-19.292 21.836-36.677 21.836-38.586 0-4.24-3.18-4.24-27.35 0.849-41.977 8.905-91.374 28.41-128.9 51.093-24.381 14.629-55.971 38.797-70.598 53.637-13.569 13.992-12.085 14.416 14.841 5.511 22.685-7.631 24.805-7.631 26.501-1.909 1.060 3.18-2.12 11.872-10.6 29.257-22.685 46.217-59.151 177.237-73.991 266.28-6.36 37.526-11.872 81.198-11.872 93.283 0 4.876-1.271 10.389-2.756 12.509-2.545 3.605-5.511 3.391-57.666-4.451l-55.122-8.269-0.636-197.802-0.424-198.016 19.292 1.271c17.596 1.271 55.546 8.056 64.873 11.449 2.12 0.849-0.636-3.605-6.36-10.176-49.822-57.031-83.954-120.42-124.66-232.359-4.029-10.812-7.631-19.716-8.269-19.716s-4.24 8.905-8.269 19.716z"></path>
</svg>
