<?xml version="1.0" encoding="utf-8"?>
<!-- Generated by IcoMoon.io -->
<!DOCTYPE svg PUBLIC "-//W3C//DTD SVG 1.1//EN" "http://www.w3.org/Graphics/SVG/1.1/DTD/svg11.dtd">
<svg version="1.1" xmlns="http://www.w3.org/2000/svg" xmlns:xlink="http://www.w3.org/1999/xlink" width="1024" height="1024" viewBox="0 0 1024 1024"><g id="icomoon-ignore">
</g>
<path d="M508.379 65.625c-4.048 2.983-4.048 3.196-0.425 7.031 3.196 3.622 3.622 9.801 3.622 54.545v50.497h12.784v-49.005l21.519 10.866c11.931 5.753 21.946 10.44 22.159 10.013 0.425-0.425-4.475-7.67-10.866-15.981-6.393-8.523-11.506-15.766-11.506-16.406 0-0.425 7.883-3.622 17.471-6.818l17.471-5.753-28.764-14.488c-20.881-10.44-27.486-14.701-24.716-15.766 5.113-2.13 4.475-8.948-1.065-10.44-7.883-1.918-13.423-1.492-17.684 1.705z"></path>
<path d="M472.584 170.241c-11.293 3.835-11.931 4.9-5.327 10.653 8.31 7.245 26.421 10.228 54.971 9.163 20.881-0.64 26.421-1.705 36.86-6.605 7.458-3.41 12.145-6.818 11.718-8.31-1.278-3.835-15.766-7.67-29.829-7.883l-12.145-0.213-0.64 6.818c-0.64 6.818-1.065 7.031-10.653 7.67l-10.228 0.64v-15.128h-13.211c-7.458 0.213-17.046 1.492-21.519 3.196z"></path>
<path d="M564.842 184.516c-27.059 13.211-77.769 13.423-97.585 0.425-2.77-1.918-5.54-2.983-5.966-2.343-0.425 0.425-1.918 6.393-3.196 13.423-2.343 14.063-9.375 37.074-14.276 46.662l-2.983 6.393 7.031-6.393c4.048-3.622 9.588-8.31 12.145-10.653l5.113-4.261 7.883 9.375 8.096 9.375 8.096-8.736c4.261-4.9 9.163-8.948 10.44-8.948 1.492 0 5.753 3.41 9.801 7.458l7.245 7.458 17.684-17.258 17.898 20.028 16.619-16.193 10.228 7.458c5.54 4.048 11.293 7.883 12.784 8.736s-1.278-6.393-5.753-16.193c-4.9-10.44-9.588-24.716-11.080-33.664l-2.77-15.766-7.458 3.622z"></path>
<path d="M507.314 267.4v23.651l-8.736-7.883c-13.636-12.358-25.569-16.619-48.58-17.684-32.387-1.492-50.070 4.048-80.965 24.929-40.27 27.272-59.020 33.452-96.733 31.534l-25.142-1.278 4.9 8.523c6.818 12.358 21.094 24.716 30.256 26.634 16.406 2.983 31.107-0.213 56.676-11.931 15.128-7.031 28.339-11.718 34.942-12.358 12.784-1.278 11.931 2.557-1.065 4.688-4.9 0.852-20.028 6.605-33.664 12.784s-28.764 12.358-33.664 13.849c-10.44 2.77-10.866 3.835-4.9 11.506 10.653 13.636 30.469 12.571 53.693-2.557 20.028-13.211 25.781-15.981 40.909-20.454 16.619-4.9 20.454-1.065 4.048 4.048-16.193 5.113-30.682 12.571-46.875 24.076-14.488 10.44-15.128 12.784-3.835 19.816 13.849 8.523 30.894 4.688 49.858-11.506 17.258-14.488 35.157-25.354 40.057-24.289 2.983 0.64 1.705 1.918-4.688 5.327-10.013 5.327-28.339 18.751-39.844 29.404-7.031 6.605-7.883 8.31-5.753 11.931 3.835 7.458 15.981 11.080 27.059 8.31 15.766-3.835 24.076-9.375 45.81-30.042 21.306-20.028 27.912-23.864 16.406-9.375-11.080 14.063-7.245 26.421 7.458 23.651 8.523-1.705 8.948-0.425 4.048 10.228-4.9 10.013-2.557 20.668 5.966 27.912l6.605 5.753 5.113-6.605c6.393-8.096 11.718-8.31 17.471-1.065 5.327 6.818 11.506 5.327 17.471-4.048 5.113-8.736 5.113-15.766-0.213-24.503-5.753-9.163-5.54-9.588 3.41-7.883 5.753 1.065 8.736 0.425 11.718-2.343 5.753-5.113 5.113-11.718-2.343-21.094-11.931-14.915-6.393-12.358 13.423 6.605 22.799 21.733 37.287 30.469 53.268 32.174 10.013 1.065 11.931 0.425 18.111-4.688 3.835-3.196 6.818-6.818 6.605-8.096 0-4.261-43.679-36.86-53.693-40.482-1.492-0.425-1.705-1.705-0.852-2.77 2.557-2.77 21.733 8.096 39.844 22.586 18.324 14.701 26.421 17.898 39.844 16.406 9.163-1.065 19.816-8.096 19.816-12.998 0-2.557-27.699-21.733-39.844-27.699-3.835-1.918-11.506-4.688-17.258-6.178-11.080-2.77-13.849-7.245-3.835-6.178 8.31 0.64 40.057 15.766 50.070 23.651 14.915 11.718 37.074 12.784 48.366 2.13 7.883-7.245 6.605-11.293-4.475-14.276-5.113-1.278-19.176-6.818-30.894-12.145s-25.994-10.866-31.534-12.145c-14.701-3.622-16.406-6.818-2.983-5.327 7.245 0.852 20.241 5.54 35.157 12.358 37.712 17.471 56.888 16.833 75.212-2.77 7.245-7.458 14.701-20.668 12.998-22.372-0.64-0.64-6.818 0.213-13.636 1.492-18.324 3.835-44.318 1.278-64.133-6.393-9.163-3.41-26.634-12.998-38.992-21.094-26.634-17.684-37.712-22.372-60.511-25.781-28.124-4.261-52.841 1.278-67.329 14.701l-8.31 8.096v-22.159c0-11.931-0.64-21.946-1.492-21.946-1.065 0-3.622 1.492-5.753 3.196-3.622 2.77-4.688 2.77-9.163 0l-4.9-3.196v23.651z"></path>
<path d="M747.654 392.257c12.784 25.142 21.733 68.394 21.733 105.681 0 79.474-24.929 139.985-79.047 192.4-32.599 31.534-65.838 49.858-116.334 63.921-49.218 13.849-92.045 11.931-143.395-5.966-100.781-35.157-171.519-132.315-176.207-241.618-1.705-37.074 6.605-81.392 20.028-108.451l3.196-6.393-6.818 6.393c-3.622 3.41-11.080 12.998-16.406 20.881-38.992 58.593-47.727 153.834-21.733 238.848 28.124 91.832 98.011 163.209 188.778 192.826 33.877 10.866 55.823 13.636 99.29 12.358 41.335-1.278 62.641-4.688 94.175-15.128 71.804-24.076 134.232-81.605 168.324-155.326 39.205-84.8 37.712-190.483-3.622-263.138-12.358-21.306-26.207-40.057-31.96-43.253-4.048-2.13-4.048-1.918 0 5.966z"></path>
<path d="M2.983 393.962c-2.983 8.096 5.54 65.624 13.636 91.62 7.031 21.946 9.375 25.354 37.927 53.268 18.751 18.324 24.503 25.354 26.421 31.96 1.492 5.327 2.343 31.321 2.343 68.608v59.871l14.701 5.753c12.784 5.113 17.046 5.753 30.682 4.9 9.163-0.64 19.176-2.77 24.076-5.113l8.31-4.048 0.64-30.894c0.425-17.046 0-57.315-0.64-89.488l-1.492-58.593-14.915-13.849c-23.437-21.733-38.139-36.435-48.793-48.58-7.245-8.31-11.080-11.080-15.554-11.080-9.588 0-9.375 5.753 1.705 26.207 9.588 17.684 16.193 36.86 16.193 46.235 0 5.966-1.492 5.327-10.44-3.622-4.261-4.261-14.915-11.718-23.651-16.619-13.636-7.67-16.406-10.228-18.751-17.258-1.705-4.688-4.475-12.358-6.178-17.471-1.705-4.9-6.393-13.849-10.44-19.602-5.966-8.736-7.245-12.358-7.245-22.159 0-13.423-2.557-21.519-8.948-28.551-5.327-5.54-7.67-5.966-9.588-1.492z"></path>
<path d="M1015.054 395.453c-6.605 7.031-9.163 15.128-9.163 28.551 0 9.801-1.278 13.423-7.245 22.159-4.048 5.753-8.736 14.701-10.44 19.602-1.705 5.113-4.475 12.784-6.178 17.471-2.343 7.031-5.113 9.588-18.751 17.258-8.736 4.9-19.389 12.358-23.651 16.619-8.948 8.948-10.44 9.588-10.44 3.622 0-9.375 6.605-28.551 16.193-46.235 11.080-20.454 11.293-26.207 1.705-26.207-4.475 0-8.31 2.77-15.554 11.080-5.327 6.178-16.406 17.471-24.289 25.142-8.096 7.67-20.241 19.176-27.059 25.569l-12.358 11.718-1.492 54.333c-0.64 29.829-1.065 70.099-0.64 89.488l0.64 35.157 8.31 4.048c4.9 2.343 14.915 4.475 24.076 5.113 13.636 0.852 17.898 0.213 30.682-4.9l14.701-5.753v-59.871c0-36.86 0.852-63.281 2.343-68.608 1.918-6.605 7.67-13.636 26.421-31.96 13.211-12.998 25.994-26.421 28.339-30.042 9.588-14.063 21.519-67.116 22.372-99.076 0.425-18.963-1.278-21.946-8.523-14.276z"></path>
<path d="M23.864 394.815c-2.13 1.278-2.557 3.835-1.492 7.883 0.852 3.41 2.343 12.358 3.196 20.028 1.278 10.866 3.196 16.406 9.163 25.142 4.261 6.393 9.375 17.684 11.506 25.354 3.41 12.784 4.688 14.488 13.211 19.602 5.327 2.983 15.128 9.163 21.733 13.423l12.358 7.67-1.918-6.393c-2.343-8.31-9.375-15.981-19.389-21.094-4.688-2.343-8.096-5.753-8.096-7.883 0-5.113-11.931-28.124-17.898-34.517-3.835-4.048-5.327-8.948-6.393-20.241-1.492-14.488-6.605-28.977-10.866-30.256-1.065-0.213-3.41 0.213-5.113 1.278z"></path>
<path d="M994.386 397.583c-4.048 6.178-7.458 21.519-7.67 32.812 0 6.393-1.278 10.013-5.113 13.423-5.54 5.327-18.324 29.617-18.324 35.157 0 1.705-3.622 5.113-7.883 7.458-10.228 5.113-17.258 12.784-19.602 21.094l-1.918 6.393 12.358-7.67c6.605-4.261 16.406-10.44 21.733-13.423 8.736-5.113 9.801-6.818 13.211-20.028 2.343-7.67 7.67-19.816 12.145-26.634 6.818-10.013 8.31-14.063 8.31-22.586 0-5.54 1.065-13.211 2.557-17.046 1.918-5.54 1.918-7.67-0.213-10.228-3.835-4.688-5.966-4.261-9.588 1.278z"></path>
<path d="M41.975 401.206c-0.852 1.065-0.425 6.178 0.852 11.293 1.065 5.113 2.13 12.358 2.13 16.406 0 4.475 2.13 9.375 5.753 13.849 5.54 6.393 17.684 30.042 17.684 34.304 0 1.065 4.048 4.475 8.948 7.245l8.948 5.113-4.9-7.245c-2.557-4.048-8.523-15.128-12.998-24.716-6.605-13.636-8.523-20.241-8.523-28.764 0-7.67-1.492-14.063-4.9-19.816-4.688-8.31-10.44-11.718-12.998-7.67z"></path>
<path d="M976.702 401.846c-5.753 7.031-9.163 17.258-9.163 27.059 0 8.096-2.13 14.915-9.163 29.404-4.9 10.228-10.866 21.519-13.211 24.929l-4.048 6.178 8.948-5.113c4.9-2.77 8.948-6.178 8.948-7.245 0-4.048 12.145-27.699 17.471-34.091 4.9-5.966 6.818-14.063 8.736-37.287 0.425-5.753-4.9-8.31-8.523-3.835z"></path>
<path d="M511.789 440.41c-1.278 1.705-2.983 5.966-3.622 9.588-1.705 8.096-4.9 8.523-11.293 1.705-4.688-5.113-15.981-8.736-19.602-6.393-1.065 0.64 0.852 4.475 4.261 8.523 16.406 18.536 17.898 30.469 7.458 61.576-6.605 19.816-7.458 25.354-6.605 36.435 1.065 13.211 5.327 22.799 11.718 25.354 2.343 0.852 5.753-1.278 10.653-7.245 4.048-4.9 8.523-8.736 10.228-8.736s6.178 4.261 9.801 9.588c3.835 5.327 7.458 9.588 8.096 9.588s4.048-2.983 7.67-6.605c5.753-5.966 6.178-7.883 7.031-24.503 0.64-15.554-0.213-20.668-6.178-38.565-8.096-24.929-7.458-33.664 3.41-49.858 4.048-5.966 7.245-11.718 7.245-12.784 0-4.475-13.849-1.705-19.389 3.622-7.245 6.818-12.571 5.54-12.571-2.983 0-7.883-4.688-12.571-8.31-8.31z"></path>
<path d="M508.593 574.43c-1.705 2.77-3.622 7.031-4.475 9.588-1.705 6.178-2.77 6.178-11.718-0.425-7.031-5.113-17.046-7.245-17.046-3.622 0 1.065 1.918 3.622 4.048 5.54 5.54 5.113 8.523 20.028 6.393 32.599-0.852 5.54-4.688 18.324-8.523 28.339-5.753 15.128-6.818 21.306-7.031 37.5-0.213 17.898 0.213 20.028 6.178 29.829 6.605 10.44 13.849 14.915 13.849 8.31 0-7.031 20.881-39.417 25.354-39.417 3.196 0 17.684 23.011 21.519 33.877l3.622 10.653 6.393-6.818c3.622-3.835 7.458-8.736 8.736-11.080 7.031-14.063 4.475-38.352-7.031-66.264-3.835-9.375-7.67-20.454-8.523-24.716-1.918-10.228 2.13-23.864 9.801-32.599l6.605-7.458h-5.327c-2.77 0-9.375 3.196-14.488 7.245-10.228 8.096-12.571 8.096-12.571-0.425 0-6.818-5.327-15.341-9.588-15.341-1.705 0-4.475 2.13-6.178 4.688z"></path>
<path d="M508.806 698.009c-11.718 15.766-12.784 18.324-11.293 28.339 2.13 13.211-3.41 12.571-20.881-2.557-4.688-3.835-10.013-7.031-11.931-7.031-2.13 0-8.096-2.343-13.636-5.327-11.718-6.178-12.145-4.261-3.622 10.866 7.67 13.423 18.751 23.224 34.304 30.469 10.228 4.9 14.276 5.54 34.091 5.54 20.241-0.213 23.437-0.64 33.664-5.966 6.178-3.196 14.915-9.588 19.389-14.063 8.31-8.31 20.668-27.272 18.963-28.977s-28.551 10.013-35.795 15.766c-4.048 3.41-10.653 7.67-14.701 9.588l-7.245 3.835 1.492-9.801c1.278-8.31 0.64-11.506-4.261-20.454-3.196-5.753-7.458-12.145-9.375-13.849-3.622-3.196-4.261-2.983-9.163 3.622z"></path>
<path d="M78.41 705.467c-6.178 5.966 5.54 17.898 22.372 23.011 21.094 6.178 49.858 2.13 60.511-8.523 11.293-11.293 4.048-16.619-12.571-9.375-16.406 7.245-37.287 6.818-51.988-0.852-11.293-5.753-15.766-6.818-18.324-4.261z"></path>
<path d="M930.252 709.94c-14.063 7.458-35.157 7.883-51.563 0.64-11.718-5.113-17.684-4.9-17.684 0.852 0 9.801 22.586 20.241 43.679 20.241 22.372 0 46.875-11.931 45.383-22.159-0.852-6.393-7.458-6.393-19.816 0.425z"></path>
<path d="M71.592 726.134c-5.327 3.835-3.196 10.013 5.113 15.554 11.293 7.67 23.011 10.228 46.023 10.228 25.142-0.213 44.318-6.178 48.366-15.128 4.261-9.375-0.425-10.866-16.833-5.54-28.551 8.948-47.727 8.096-71.164-3.835-6.393-3.41-8.31-3.622-11.506-1.278z"></path>
<path d="M946.233 726.561c-2.983 1.492-11.931 4.9-19.816 7.458-17.046 5.327-30.042 4.688-53.268-2.77-10.44-3.41-14.915-4.048-16.619-2.343-4.688 4.688 0.425 11.718 12.571 17.258 10.653 4.9 14.915 5.753 34.517 5.753 12.358 0 26.207-1.278 31.107-2.557 18.751-5.753 30.042-18.751 20.668-23.651-2.77-1.492-5.54-1.278-9.163 0.852z"></path>
<path d="M62.429 749.997c-2.983 5.966-1.065 8.948 8.736 14.063 14.488 7.245 28.977 10.228 51.775 10.228 31.321 0 58.381-8.948 58.381-19.389 0-6.393-5.113-7.031-19.602-1.918-8.523 2.983-20.881 5.113-33.664 5.753-18.111 1.065-21.946 0.64-36.222-4.688-23.011-8.096-26.846-8.736-29.404-4.048z"></path>
<path d="M940.907 752.555c-11.293 5.113-15.554 5.753-36.222 5.753-19.176 0-26.207-0.852-37.927-4.9-15.341-5.327-20.668-5.113-20.668 1.278 0 10.866 26.207 19.602 58.381 19.602 23.011 0 37.287-2.983 51.988-10.44 7.883-4.048 9.163-5.54 8.523-10.44-0.852-7.883-7.883-8.096-24.076-0.852z"></path>
<path d="M249.929 771.517c-11.506 5.54-16.406 14.488-16.406 29.617 0 10.44 1.065 14.488 5.966 21.733 7.883 11.931 7.245 13.636-2.983 10.013-18.324-6.605-40.482-2.983-50.070 7.67-6.818 7.458-7.883 13.423-4.048 22.159 1.705 4.475 3.196 9.163 3.196 10.44s-4.9 4.475-10.653 7.245c-5.966 2.77-12.145 7.245-14.063 10.013-3.622 5.753-6.605 22.372-4.048 22.372 1.065 0 7.67-2.343 14.915-5.327 33.452-13.211 62.856-7.031 100.568 21.733 25.994 19.602 47.94 24.929 62.641 14.915 5.966-3.835 7.67-6.818 9.163-15.341 1.065-5.966 2.343-11.080 2.557-11.506 0.425-0.425 4.475 1.705 8.948 4.688 23.437 15.341 55.398 27.699 91.193 34.942 25.569 5.113 88.85 5.113 119.104-0.213 46.875-7.883 78.835-18.751 104.403-35.582 8.948-5.753 16.619-10.44 17.471-10.44 0.64 0 0.64 3.835-0.213 8.523-2.557 16.833 7.458 25.994 28.339 25.994 12.145-0.213 20.454-4.048 34.304-15.341 24.716-20.241 43.253-27.699 69.674-27.699 13.849 0 21.733 1.278 34.091 5.54 8.736 2.983 16.406 4.9 17.046 4.261s0.425-5.327-0.213-10.653c-1.918-12.145-9.163-20.028-20.454-21.733-4.688-0.852-9.163-2.343-9.801-3.196-0.64-1.065 0.852-5.113 3.196-9.163 5.327-8.523 5.753-19.816 1.065-26.421-8.096-11.718-30.894-16.406-50.070-10.653-4.688 1.278-8.948 1.705-9.588 1.065-0.852-0.64 0.64-4.475 3.196-8.523 13.211-21.306-2.13-50.497-26.421-50.497-10.228 0-18.751 5.113-42.4 25.781-42.187 36.647-95.028 63.281-148.934 74.574-29.404 6.393-85.653 7.031-112.074 1.278-57.954-12.571-103.338-35.795-148.934-76.492-33.877-30.042-43.040-34.091-59.659-25.781z"></path>
</svg>
