<?xml version="1.0" encoding="utf-8"?>
<!-- Generated by IcoMoon.io -->
<!DOCTYPE svg PUBLIC "-//W3C//DTD SVG 1.1//EN" "http://www.w3.org/Graphics/SVG/1.1/DTD/svg11.dtd">
<svg version="1.1" xmlns="http://www.w3.org/2000/svg" xmlns:xlink="http://www.w3.org/1999/xlink" width="1024" height="1024" viewBox="0 0 1024 1024"><g id="icomoon-ignore">
</g>
<path d="M566.958 94.44c-6.949 6.949-4.105 17.056 15.477 57.486 12.002 24.636 20.214 45.799 21.163 54.958s4.422 18.319 9.159 24.005c8.213 10.108 23.057 37.586 23.057 42.956 0 8.529 27.795 49.274 49.274 72.646 24.005 25.901 24.636 27.48 24.005 55.274-0.632 18.951-8.213 73.279-11.055 76.437-5.37 6.949-22.426 4.738-30.638-3.791-11.371-12.002-50.853-38.535-78.017-52.116-39.166-19.584-80.227-31.585-195.83-57.486-18.635-4.422-32.532-0.316-32.532 9.159 0 7.896 61.592 67.276 97.915 94.44 28.427 21.163 49.59 34.428 110.233 68.856 28.743 16.425 64.75 44.22 91.282 70.435 15.16 15.477 16.425 17.688 16.425 31.585 0 19.584-4.422 35.060-17.056 62.539-5.685 12.002-12.95 28.111-16.109 35.376-7.264 17.056-18.004 26.848-60.012 53.695-103.285 66.329-172.773 94.756-259.947 107.074-47.378 6.633-184.142 4.105-253.316-4.422-25.268-3.475-47.694-5.37-49.904-4.422-20.531 7.264 61.592 31.902 138.344 41.693 38.219 4.422 125.395 3.791 163.297-1.579 60.012-8.529 120.025-27.164 163.612-50.537 16.109-8.843 36.956-16.425 57.486-21.477 26.531-6.633 38.219-11.687 67.909-29.374 77.384-46.115 115.287-63.487 190.459-88.439 39.482-12.95 78.964-26.848 87.807-30.953 9.159-4.422 24.636-9.159 34.744-11.055 24.952-4.422 34.428-9.476 40.114-21.477 3.475-6.949 8.213-10.739 16.425-13.266 6.317-1.895 14.213-6.949 17.372-11.055 3.159-3.791 9.792-8.213 14.53-9.476 10.739-2.526 11.371-12.318 0.947-21.794-29.374-26.848-66.962-36.956-94.124-24.952-11.687 5.054-17.056 5.685-29.059 3.475-7.896-1.579-17.372-4.105-20.531-6.001-22.426-11.687-35.060-56.538-46.115-162.665-10.423-98.862-13.897-111.181-45.167-153.189-30.638-41.061-144.030-150.347-185.091-178.141-13.266-8.843-20.847-10.108-26.531-4.422z"></path>
</svg>
