<?xml version="1.0" encoding="utf-8"?>
<!-- Generated by IcoMoon.io -->
<!DOCTYPE svg PUBLIC "-//W3C//DTD SVG 1.1//EN" "http://www.w3.org/Graphics/SVG/1.1/DTD/svg11.dtd">
<svg version="1.1" xmlns="http://www.w3.org/2000/svg" xmlns:xlink="http://www.w3.org/1999/xlink" width="1024" height="1024" viewBox="0 0 1024 1024"><g id="icomoon-ignore">
</g>
<path d="M841.421 79.024c-2.886 2.163-5.053 11.547-5.053 20.204 0 7.939-9.38 25.979-20.927 39.69-20.204 24.535-21.649 24.535-31.751 11.547-16.596-22.371-33.918-10.102-33.918 25.257 0 27.421-4.331 33.918-46.184 74.327-75.771 73.608-185.461 119.792-283.6 119.792-33.918 0-46.906-2.886-49.792-10.824-5.772-13.71-49.070-25.979-75.049-20.927-36.082 7.939-77.935-25.257-137.11-107.523l-25.257-35.359-15.877 19.485c-24.535 28.143-20.927 46.906 15.877 82.988 32.473 31.751 37.526 47.628 28.143 85.151-2.886 10.824-11.547 18.041-24.535 20.927-22.371 4.331-36.082 27.421-36.082 60.616 0 23.812-18.763 45.461-56.286 65.669-32.473 17.318-44.020 44.743-26.702 63.502 19.485 21.649 34.637 18.041 60.616-14.433l23.094-28.865h165.976l23.812 25.257c24.535 25.979 62.783 34.637 72.886 17.318 6.494-9.38 46.184-1.445 62.783 12.988 6.494 5.772 35.359 13.71 64.947 17.318 55.567 6.494 82.265 20.927 97.42 50.514 14.433 28.143 10.824 145.049-7.216 255.457-2.163 9.38 67.833 23.812 119.792 24.535l41.134 0.722v-64.947c0-52.678 2.886-71.441 15.155-95.976 23.094-44.020 33.918-108.967 30.31-172.47l-4.331-55.567 25.257-10.102c18.041-7.216 31.751-21.649 46.906-49.070 26.702-46.184 42.576-62.061 98.865-95.976 23.094-13.71 48.351-36.082 56.286-48.351 7.216-12.269 12.988-23.094 11.547-23.812s-14.433-6.494-29.588-13.71c-26.702-11.547-27.421-13.71-21.649-36.082 6.494-25.979 5.772-78.657-1.445-151.543-4.331-40.412-7.216-48.351-18.763-48.351-7.939 0-13.71 2.886-13.71 7.216 0 3.608-12.988 7.216-28.865 7.216-20.927 0-30.31-3.608-36.082-14.433-7.939-14.433-22.371-18.763-31.029-9.38z"></path>
</svg>
