<?xml version="1.0" encoding="utf-8"?>
<!-- Generated by IcoMoon.io -->
<!DOCTYPE svg PUBLIC "-//W3C//DTD SVG 1.1//EN" "http://www.w3.org/Graphics/SVG/1.1/DTD/svg11.dtd">
<svg version="1.1" xmlns="http://www.w3.org/2000/svg" xmlns:xlink="http://www.w3.org/1999/xlink" width="1024" height="1024" viewBox="0 0 1024 1024"><g id="icomoon-ignore">
</g>
<path d="M456.508 3.21c-25.197 1.608-32.168 4.288-39.138 15.013-10.722 16.621-6.434 31.631 8.579 26.805s30.559 5.362 36.993 25.197c8.579 26.271-1.071 75.057-24.126 121.7l-19.301 39.138-28.414-2.146c-18.763-1.608-43.964-10.187-74.523-24.663-63.264-31.096-91.141-36.993-117.412-26.271-13.938 5.896-22.517 14.475-27.88 26.271-5.362 12.867-10.722 104.008-20.909 336.689-7.505 174.777-12.867 319.531-11.259 320.606 1.608 1.608 8.042-2.146 15.013-8.042 6.434-5.896 50.397-45.035 97.040-87.924 47.18-42.355 84.173-73.449 82.565-69.161s-10.722 35.922-19.838 69.698l-17.155 61.656h-26.271c-31.096 0-44.498 10.722-44.498 34.313 0 12.33-4.825 19.838-23.589 33.239-20.909 15.547-21.98 18.229-15.013 26.271 4.288 4.825 8.042 11.259 8.042 14.475s3.754 8.579 8.042 12.33c4.288 3.754 8.042 10.722 8.042 16.084 0 15.547 17.155 25.734 59.51 34.313 123.846 25.197 357.598 25.197 481.444 0 42.355-8.579 59.51-18.763 59.51-34.313 0-5.362 3.754-12.33 8.042-16.084s8.042-9.113 8.042-12.33c0-3.217 3.754-9.65 8.042-14.475 6.971-8.042 5.896-10.722-15.013-26.271-18.763-13.404-23.589-20.909-23.589-33.239 0-23.589-13.404-34.313-44.498-34.313h-26.271l-18.763-67.015c-10.187-36.456-17.692-67.552-17.155-68.089 1.071-1.071 43.426 36.993 94.895 84.173s95.432 85.782 98.111 85.782c2.146 0 2.68-23.589 1.071-52.54-1.608-28.414-8.042-172.634-14.475-320.068-8.042-194.077-12.867-272.888-18.229-285.755-5.362-11.796-13.938-20.372-27.88-26.271-26.271-10.722-54.148-4.825-117.412 26.271-30.022 14.475-55.756 23.055-73.986 24.663-26.805 2.146-28.414 1.608-34.313-12.867-12.33-32.705-17.155-60.047-17.692-106.691 0-63.264-6.971-83.099-33.239-95.966-22.517-10.722-45.572-13.404-91.141-10.187zM480.633 31.627c24.126 15.013 27.343 15.547 38.064 8.042 14.475-10.187 38.064-10.187 46.643 0 3.754 4.825 8.042 35.384 10.722 76.131 2.68 49.323 6.971 76.665 15.013 97.574 6.434 16.084 10.722 30.559 9.65 31.631-1.608 1.071-7.505-1.071-13.938-4.288-15.013-8.042-26.271-35.384-30.559-75.057-1.608-18.229-5.362-33.776-8.042-35.384-10.187-6.434 6.434 78.811 20.372 106.153 9.113 17.155 3.754 18.763-19.301 6.971-15.013-7.505-16.084-10.722-16.621-39.138 0-16.621-2.68-42.889-4.825-57.365-3.754-19.838-4.288-11.796-2.68 33.239 2.146 48.789 1.071 60.581-5.896 66.481-6.434 5.362-9.65 4.825-16.084-1.608-6.971-6.434-7.505-12.33-2.68-28.951 3.217-11.796 6.971-39.138 8.042-61.119 3.217-44.498-3.217-23.589-10.187 33.776-2.68 23.589-7.505 35.384-18.763 48.252-8.579 9.65-16.621 15.547-18.763 13.404s2.146-18.763 9.65-37.53c14.475-36.456 26.271-90.070 19.838-90.070-2.146 0-5.896 11.259-8.042 25.197-6.434 43.964-23.055 81.49-40.21 90.070-25.197 12.867-27.343 9.65-10.722-17.155 22.517-35.384 36.456-75.594 40.747-116.341 2.68-24.663 5.896-35.384 10.722-35.384 12.33 0 8.579-8.579-11.259-26.271-20.372-17.692-33.776-20.909-44.498-10.187-4.825 4.825-6.434 4.825-6.434-1.608 0-20.909 25.197-20.909 60.047 0.537zM308.536 207.475c24.663 11.796 52.54 23.589 61.119 25.197 9.113 2.146 21.98 4.288 28.414 5.896 10.722 2.146 11.796 3.754 6.434 10.187-8.579 10.187-2.146 10.187 25.197 0.537l21.446-7.505-2.68 13.404c-2.68 15.013-1.608 14.475 26.271-4.288 13.938-9.65 14.475-9.65 23.589 0.537 9.65 10.722 9.65 10.722 21.98-0.537 10.722-10.187 12.867-10.187 24.663-3.217 19.838 12.867 36.456 16.084 36.456 8.042 0-5.362 5.362-6.971 19.301-5.362 13.404 1.608 18.763 0.537 16.084-3.217-3.754-5.896 0-6.971 38.601-14.475 8.042-1.608 34.313-12.867 58.439-25.197 81.49-40.21 125.454-34.313 137.784 18.763l3.754 15.013-17.155-8.579c-9.113-4.825-18.229-7.505-19.838-5.362-2.68 2.68 7.505 288.972 18.763 522.725 2.146 50.397 1.608 65.407-3.217 61.119-4.288-3.754-10.187-96.503-19.301-288.972-6.971-155.476-13.938-283.613-15.013-284.684s-9.65 4.825-19.301 12.867l-17.692 14.475 8.579 198.368c4.825 108.833 9.65 222.494 11.796 251.979 2.68 50.397 2.146 53.077-5.896 44.498-8.042-7.505-10.722-37.53-19.301-227.853-5.362-120.092-10.722-226.245-11.259-235.895l-1.608-16.621-28.951 24.663 7.505 179.068c10.187 232.145 10.187 233.753 0.537 224.103-5.896-6.434-9.113-39.138-13.404-142.075-3.217-73.986-7.505-159.23-9.113-190.327l-3.217-56.293h-40.747c-45.035 0-108.833-16.621-130.279-33.776-11.796-10.187-12.33-10.187-40.21 4.825-36.993 19.301-102.937 33.776-136.175 30.022l-25.734-3.217-3.217 54.685c-1.608 30.022-5.896 117.412-9.113 194.077-4.288 107.225-7.505 141.001-13.404 147.434-9.65 9.65-9.65 3.754 0.537-229.462l7.505-179.068-14.475-12.33-14.475-12.867-1.608 14.475c-0.537 8.042-5.896 114.195-11.259 235.895-8.579 194.077-11.259 223.028-19.301 230.536-8.579 8.579-8.579 5.896-5.896-47.18 2.146-31.096 6.971-144.217 11.796-251.979l8.042-195.686-17.155-14.475c-9.65-8.042-18.229-13.938-19.838-12.867-1.071 1.071-7.505 129.742-14.475 285.221-9.113 190.861-15.013 284.684-19.301 288.438-4.825 4.288-5.362-10.722-3.217-61.119 11.259-237.504 21.446-520.579 18.763-523.262-1.608-1.608-11.259 1.071-20.909 5.896-16.084 8.579-17.155 8.579-13.404 0 1.608-4.825 3.217-12.33 3.217-16.621s6.434-13.938 13.938-21.98c20.372-20.372 61.656-16.084 120.629 13.404zM538.535 297.011c29.488 15.013 84.173 29.488 111.516 29.488h17.155v28.414c0 39.672-17.692 105.616-41.281 153.868-13.938 28.951-19.301 46.106-18.229 60.047 1.071 11.259-1.071 20.372-4.288 20.372-9.113 0-12.33-10.722-5.362-19.301 3.217-4.288 5.362-8.579 4.288-10.187-1.608-1.071-13.938 12.33-27.343 29.488-13.938 17.155-33.776 38.064-44.498 46.106l-19.301 14.475-19.838-16.084c-10.722-8.579-30.559-29.488-43.964-46.106-13.404-16.084-25.197-28.951-26.271-27.343-1.071 1.071 1.071 5.362 4.288 9.65 6.971 8.579 3.754 19.301-5.362 19.301-3.217 0-5.362-9.113-4.288-20.372 1.071-13.938-4.288-31.096-18.229-60.047-23.589-48.252-41.281-114.195-41.281-153.868v-28.414h17.692c24.126 0 76.131-13.938 108.299-29.488 15.013-6.971 27.343-12.867 28.414-12.867 0.537-0.537 13.404 5.362 27.88 12.867zM404.505 545.236c9.65 36.456 6.971 56.293-10.722 73.449-13.938 13.404-17.155 14.475-21.446 8.042-4.288-6.971-5.362-6.971-5.362 0.537 0 15.547 6.971 15.547 27.343-1.071l20.909-16.621 0.537 20.909c0.537 25.197 6.971 43.426 12.33 34.847 2.146-3.217 1.071-10.722-2.146-16.621-8.042-15.547-6.434-46.643 3.217-54.148 6.971-5.896 10.187-5.362 19.301 4.288l11.259 11.259-13.938 18.763c-16.084 20.372-18.763 29.488-6.971 19.301 6.971-5.362 9.65-1.608 16.621 23.589 8.579 28.951 8.579 29.488-3.754 48.252-6.971 10.722-13.938 19.301-16.084 19.301s-5.362-13.404-6.971-29.488c-2.146-16.084-5.362-29.488-7.505-29.488-1.608 0-9.65 7.505-17.692 17.155l-13.938 17.155-6.434-23.055-5.896-23.589-18.763 18.229c-21.446 20.909-21.98 18.229-5.896-33.239 6.971-21.98 18.229-60.581 25.197-86.316 6.434-25.734 13.938-45.572 16.621-43.964 2.68 1.071 6.971 11.259 10.187 22.517zM641.472 636.914c8.579 6.434 10.187 5.362 14.475-5.362 3.754-11.259 5.896-8.042 16.084 25.197 5.896 20.909 11.259 40.21 11.259 42.889 0 2.146-8.042-3.754-18.229-13.404l-18.763-18.229-5.896 23.589-6.434 23.055-13.938-17.155c-8.042-9.65-16.084-17.155-17.692-17.155-2.146 0-5.362 13.404-7.505 29.488-1.608 16.084-4.825 29.488-6.971 29.488s-9.113-8.579-16.084-19.301c-12.33-18.763-12.33-19.301-3.754-49.323l9.113-30.559 11.259 15.547c10.187 13.938 11.259 14.475 15.013 5.362 2.146-5.362 4.288-19.838 4.288-31.096l0.537-20.909 12.33 10.187c6.434 5.896 16.084 13.938 20.909 17.692zM380.38 707.149c4.288 20.372 9.65 20.372 25.197-1.071l12.33-17.692 3.217 16.084c6.971 31.631 4.825 52.54-6.971 71.306l-11.796 19.301-7.505-22.517c-3.754-12.33-9.113-22.517-11.259-22.517s-8.579 8.579-14.475 18.763c-5.362 10.187-11.259 18.763-13.404 18.763s-7.505-15.013-11.796-33.776l-8.579-33.239 16.621-17.155c18.763-19.301 23.589-18.763 28.414 3.754zM671.497 702.857l16.621 17.692-8.579 33.239c-4.288 18.763-9.65 33.776-11.796 33.776s-8.042-8.579-13.404-18.763c-5.896-10.187-12.33-18.763-14.475-18.763s-7.505 10.187-11.259 22.517l-7.505 22.517-11.796-19.301c-11.796-18.763-13.938-39.672-6.971-71.306l3.217-16.084 12.33 17.692c16.084 21.98 21.446 21.446 25.734-1.608 1.608-10.187 4.825-18.763 6.971-18.763s11.259 8.042 20.909 17.155zM391.101 782.205c5.362 23.589 11.796 24.126 24.663 2.68 12.867-21.98 18.229-18.763 23.589 14.475 5.362 31.096-1.071 52.54-15.547 52.54-9.65 0-14.475-4.825-20.372-20.372l-7.505-19.838-9.113 17.155c-5.362 9.65-11.259 17.692-13.938 17.692s-6.971-10.187-10.187-22.517c-5.362-19.838-4.288-25.197 4.825-40.21 13.404-21.98 19.301-22.517 23.589-1.608zM624.317 800.969c2.68-1.608 5.896-10.187 8.042-18.763 4.288-20.909 10.187-20.372 23.589 1.608 9.113 15.013 10.187 20.372 4.825 40.21-3.217 12.33-7.505 22.517-10.187 22.517s-8.579-8.042-13.938-17.692l-9.113-17.155-7.505 19.838c-5.896 15.013-10.722 20.372-19.838 20.372-18.229 0-23.589-27.343-12.867-66.481l5.896-20.372 12.867 19.301c7.505 10.722 15.547 18.229 18.229 16.621zM339.096 884.605c6.434 2.68 14.475 11.259 17.692 19.301l5.362 14.475 6.434-12.867c6.434-12.867 9.113-13.404 54.148-13.404 42.355 0 48.789 1.608 61.119 12.33 10.187 10.187 14.475 11.259 17.692 5.362 2.68-3.754 4.825-10.187 4.825-13.938 0-3.217 2.68-6.434 5.362-6.434 3.217 0 5.362 3.217 5.362 6.434 0 3.754 2.146 10.187 4.825 13.938 3.217 5.896 7.505 4.825 17.692-5.362 12.33-10.722 18.763-12.33 61.119-12.33 44.498 0 47.714 0.537 53.614 12.867l6.434 12.33 7.505-15.013c5.896-13.404 12.867-17.155 52.54-26.805 50.931-12.33 57.902-11.796 64.873 6.434 2.146 6.971 8.042 12.867 12.33 12.867 11.796 0 23.589 22.517 18.763 35.922-2.146 5.896-6.434 12.867-9.65 15.013-3.217 1.608-5.896 8.042-5.896 13.404 0 5.896-4.825 12.867-10.722 16.084-20.372 10.722-89.532 20.909-184.427 26.805-138.858 8.579-332.936-5.362-373.145-26.805-5.896-3.217-10.722-10.187-10.722-16.084 0-5.362-2.68-11.796-5.896-13.404-3.217-2.146-7.505-9.113-9.65-15.013-4.825-13.404 6.971-35.922 18.763-35.922 4.288 0 10.187-5.896 12.867-12.867s7.505-13.938 11.259-15.013c7.505-2.68 68.623 9.65 89.532 17.692z"></path>
<path d="M464.55 313.628c-18.763 6.971-48.252 15.013-66.481 18.229-17.692 2.68-33.239 5.896-34.313 6.971-4.288 4.288 9.113 83.099 19.838 116.341 17.692 54.148 46.643 100.791 88.998 144.755l39.138 40.21 39.672-41.281c43.426-45.572 70.769-90.070 88.461-143.683 10.187-32.705 24.663-112.050 20.372-115.804-1.071-1.071-20.909-5.362-44.498-9.65-23.055-4.288-46.106-8.579-50.397-9.65-4.288-1.608-6.434-1.608-3.754-0.537 2.146 1.608 3.754 61.119 3.754 132.425v129.742l-54.148 53.077-28.951-30.559-29.488-30.022v-248.228l24.126-10.187c13.404-5.896 24.126-11.796 24.126-13.404s-0.537-2.146-1.071-2.146c-1.071 0.537-16.621 6.434-35.384 13.404z"></path>
</svg>
