<svg xmlns="http://www.w3.org/2000/svg" width="1024" height="1024" viewBox="0 0 1024 1024"><path d="M456.508 3.21C431.31 4.818 424.34 7.498 417.37 18.223c-10.722 16.62-6.434 31.63 8.58 26.805s30.558 5.362 36.992 25.197c8.58 26.27-1.07 75.057-24.126 121.7l-19.3 39.138-28.415-2.146c-18.76-1.608-43.962-10.187-74.52-24.663-63.265-31.096-91.14-36.993-117.413-26.27-13.938 5.895-22.517 14.474-27.88 26.27-5.362 12.867-10.722 104.008-20.91 336.69-7.504 174.776-12.866 319.53-11.258 320.605 1.607 1.606 8.04-2.148 15.012-8.044 6.435-5.896 50.398-45.035 97.04-87.924 47.18-42.355 84.174-73.45 82.566-69.16s-10.722 35.92-19.838 69.697l-17.155 61.655h-26.27c-31.097 0-44.5 10.722-44.5 34.313 0 12.33-4.824 19.837-23.588 33.238-20.91 15.547-21.98 18.23-15.013 26.27 4.288 4.826 8.042 11.26 8.042 14.476s3.754 8.58 8.042 12.33c4.288 3.754 8.042 10.722 8.042 16.084 0 15.547 17.155 25.734 59.51 34.313 123.846 25.197 357.598 25.197 481.444 0 42.355-8.58 59.51-18.763 59.51-34.313 0-5.362 3.754-12.33 8.042-16.084s8.042-9.113 8.042-12.33c0-3.217 3.754-9.65 8.042-14.475 6.97-8.043 5.896-10.723-15.013-26.272-18.763-13.404-23.59-20.91-23.59-33.24 0-23.588-13.403-34.312-44.497-34.312h-26.27l-18.764-67.015c-10.187-36.456-17.692-67.55-17.155-68.09 1.07-1.07 43.426 36.994 94.895 84.174s95.432 85.782 98.11 85.782c2.147 0 2.68-23.59 1.072-52.54-1.608-28.414-8.042-172.634-14.475-320.068-8.04-194.078-12.866-272.89-18.228-285.756-5.362-11.796-13.938-20.372-27.88-26.27-26.27-10.723-54.148-4.826-117.412 26.27-30.022 14.475-55.756 23.055-73.986 24.663-26.805 2.146-28.414 1.608-34.313-12.867-12.33-32.705-17.154-60.047-17.69-106.69 0-63.265-6.972-83.1-33.24-95.967C525.133 2.68 502.078 0 456.51 3.217zm24.125 28.417c24.126 15.013 27.343 15.547 38.064 8.042 14.475-10.19 38.064-10.19 46.643 0 3.754 4.823 8.042 35.382 10.722 76.13 2.68 49.322 6.97 76.664 15.013 97.573 6.434 16.084 10.722 30.56 9.65 31.63-1.608 1.072-7.505-1.07-13.938-4.287-15.013-8.042-26.27-35.384-30.56-75.057-1.607-18.23-5.36-33.777-8.04-35.385-10.188-6.434 6.433 78.81 20.37 106.153 9.114 17.154 3.755 18.762-19.3 6.97-15.013-7.505-16.084-10.722-16.62-39.138 0-16.62-2.68-42.89-4.826-57.365-3.752-19.838-4.286-11.796-2.68 33.24 2.148 48.788 1.073 60.58-5.894 66.48-6.434 5.362-9.65 4.825-16.084-1.608-6.97-6.435-7.504-12.33-2.68-28.952 3.218-11.796 6.972-39.138 8.043-61.12 3.217-44.497-3.217-23.588-10.187 33.777-2.68 23.59-7.505 35.384-18.763 48.252-8.58 9.65-16.62 15.547-18.763 13.404s2.146-18.762 9.65-37.53c14.475-36.455 26.27-90.07 19.838-90.07-2.146 0-5.896 11.26-8.042 25.198-6.434 43.964-23.055 81.49-40.21 90.07-25.197 12.867-27.343 9.65-10.722-17.155 22.517-35.383 36.456-75.593 40.747-116.34 2.68-24.663 5.897-35.384 10.723-35.384 12.33 0 8.58-8.58-11.26-26.27-20.37-17.693-33.775-20.91-44.497-10.188-4.826 4.825-6.435 4.825-6.435-1.608 0-20.91 25.197-20.91 60.047.537zM308.536 207.475c24.663 11.796 52.54 23.59 61.12 25.197 9.112 2.146 21.98 4.288 28.413 5.896 10.72 2.146 11.794 3.754 6.432 10.187-8.58 10.187-2.146 10.187 25.197.537l21.445-7.505-2.68 13.404c-2.68 15.015-1.608 14.477 26.27-4.286 13.94-9.65 14.476-9.65 23.59.537 9.65 10.723 9.65 10.723 21.98-.536 10.722-10.187 12.867-10.187 24.663-3.217 19.837 12.867 36.455 16.084 36.455 8.042 0-5.363 5.362-6.97 19.3-5.363 13.405 1.608 18.764.537 16.085-3.217-3.754-5.897 0-6.972 38.6-14.476 8.043-1.608 34.314-12.867 58.44-25.197 81.49-40.21 125.454-34.313 137.784 18.763l3.754 15.013-17.155-8.58c-9.112-4.824-18.23-7.504-19.837-5.36-2.68 2.68 7.505 288.97 18.763 522.724 2.146 50.397 1.608 65.407-3.217 61.12-4.288-3.755-10.187-96.504-19.3-288.973-6.97-155.476-13.94-283.613-15.014-284.684s-9.65 4.825-19.3 12.867l-17.693 14.475 8.58 198.368c4.824 108.833 9.65 222.494 11.795 251.98 2.68 50.396 2.145 53.076-5.897 44.497-8.04-7.505-10.72-37.53-19.3-227.853-5.362-120.092-10.722-226.245-11.26-235.895l-1.607-16.623-28.95 24.663 7.504 179.07c10.186 232.144 10.186 233.752.536 224.102-5.896-6.434-9.113-39.138-13.404-142.075-3.218-73.986-7.506-159.23-9.114-190.327l-3.218-56.293H657.55c-45.034 0-108.832-16.62-130.28-33.776-11.794-10.185-12.33-10.185-40.21 4.827-36.99 19.3-102.935 33.776-136.173 30.022l-25.733-3.218-3.217 54.686c-1.608 30.022-5.896 117.412-9.113 194.077-4.288 107.225-7.505 141-13.404 147.434-9.65 9.65-9.65 3.753.537-229.463l7.505-179.068-14.475-12.33-14.475-12.868-1.608 14.475c-.537 8.042-5.896 114.195-11.26 235.895-8.578 194.077-11.258 223.028-19.3 230.536-8.58 8.58-8.58 5.896-5.896-47.18 2.147-31.096 6.972-144.217 11.797-251.98l8.042-195.685-17.156-14.474c-9.65-8.043-18.23-13.94-19.837-12.868-1.07 1.07-7.505 129.74-14.475 285.22-9.112 190.86-15.012 284.684-19.3 288.438-4.825 4.288-5.362-10.722-3.217-61.12 11.26-237.503 21.447-520.578 18.764-523.26-1.608-1.61-11.26 1.07-20.91 5.895-16.083 8.58-17.154 8.58-13.403 0 1.61-4.825 3.218-12.33 3.218-16.62s6.434-13.94 13.938-21.98c20.372-20.373 61.656-16.085 120.63 13.403zm230 89.536c29.487 15.015 84.172 29.49 111.515 29.49h17.157v28.414c0 39.672-17.692 105.616-41.28 153.868-13.94 28.952-19.302 46.107-18.23 60.048 1.07 11.26-1.07 20.372-4.288 20.372-9.114 0-12.33-10.722-5.363-19.3 3.217-4.29 5.362-8.58 4.288-10.188-1.608-1.07-13.938 12.33-27.343 29.488-13.937 17.155-33.775 38.064-44.497 46.106l-19.3 14.475-19.84-16.083c-10.72-8.58-30.558-29.488-43.963-46.106-13.404-16.083-25.197-28.95-26.27-27.342-1.072 1.07 1.07 5.362 4.287 9.65 6.97 8.58 3.753 19.3-5.363 19.3-3.217 0-5.362-9.112-4.288-20.37 1.07-13.94-4.29-31.097-18.23-60.048-23.59-48.252-41.28-114.195-41.28-153.868v-28.414h17.69c24.126 0 76.13-13.938 108.3-29.488 15.012-6.97 27.342-12.867 28.413-12.867.537-.537 13.404 5.362 27.88 12.867zm-134.03 248.227c9.65 36.456 6.97 56.293-10.723 73.45-13.938 13.403-17.155 14.474-21.446 8.04-4.288-6.97-5.362-6.97-5.362.538 0 15.547 6.97 15.547 27.343-1.07l20.91-16.622.536 20.91c.537 25.196 6.97 43.425 12.33 34.846 2.146-3.218 1.07-10.723-2.146-16.62-8.042-15.55-6.434-46.645 3.217-54.15 6.97-5.896 10.187-5.36 19.3 4.29l11.26 11.257-13.938 18.763c-16.084 20.37-18.763 29.487-6.97 19.3 6.97-5.362 9.65-1.608 16.62 23.59 8.58 28.95 8.58 29.487-3.754 48.25-6.97 10.723-13.938 19.302-16.084 19.302s-5.364-13.404-6.973-29.488c-2.146-16.084-5.362-29.488-7.505-29.488-1.608 0-9.65 7.505-17.692 17.155l-13.937 17.157-6.434-23.055-5.898-23.588-18.763 18.23c-21.447 20.908-21.98 18.228-5.897-33.24 6.97-21.98 18.23-60.58 25.197-86.316 6.435-25.734 13.94-45.572 16.622-43.964 2.68 1.07 6.97 11.26 10.187 22.517zm236.966 91.678c8.58 6.434 10.187 5.362 14.475-5.362 3.754-11.26 5.896-8.042 16.084 25.197 5.898 20.908 11.26 40.21 11.26 42.888 0 2.146-8.04-3.754-18.23-13.404l-18.76-18.23-5.897 23.59-6.434 23.055-13.94-17.157c-8.04-9.65-16.083-17.155-17.69-17.155-2.147 0-5.363 13.403-7.506 29.487-1.608 16.084-4.825 29.488-6.97 29.488s-9.114-8.58-16.085-19.3c-12.33-18.764-12.33-19.302-3.755-49.324l9.113-30.56 11.26 15.548c10.186 13.937 11.258 14.474 15.012 5.36 2.145-5.36 4.287-19.837 4.287-31.095l.537-20.91 12.33 10.188c6.434 5.897 16.084 13.94 20.91 17.693zM380.38 707.15c4.288 20.37 9.65 20.37 25.197-1.072l12.33-17.692 3.217 16.084c6.97 31.63 4.825 52.54-6.97 71.306l-11.797 19.3-7.505-22.516c-3.754-12.33-9.113-22.517-11.26-22.517s-8.578 8.58-14.474 18.763c-5.362 10.187-11.26 18.763-13.404 18.763s-7.505-15.015-11.796-33.778l-8.58-33.24L351.96 703.4c18.763-19.302 23.59-18.764 28.414 3.753zm291.117-4.293l16.62 17.692-8.578 33.237c-4.29 18.763-9.65 33.776-11.798 33.776s-8.042-8.58-13.404-18.763c-5.897-10.186-12.33-18.762-14.476-18.762s-7.505 10.187-11.26 22.517l-7.504 22.517-11.796-19.3c-11.796-18.764-13.938-39.673-6.97-71.307l3.216-16.084 12.33 17.694c16.084 21.98 21.446 21.446 25.734-1.608 1.608-10.187 4.825-18.763 6.97-18.763s11.26 8.042 20.91 17.155zM391.1 782.205c5.363 23.59 11.797 24.126 24.664 2.68 12.867-21.98 18.23-18.763 23.59 14.475 5.36 31.096-1.072 52.54-15.548 52.54-9.65 0-14.475-4.825-20.372-20.372l-7.505-19.838-9.115 17.155c-5.362 9.65-11.26 17.692-13.938 17.692s-6.97-10.187-10.187-22.517c-5.36-19.838-4.287-25.197 4.826-40.21 13.404-21.98 19.3-22.517 23.59-1.608zm233.217 18.764c2.68-1.61 5.896-10.19 8.042-18.765 4.286-20.91 10.185-20.372 23.587 1.608 9.113 15.013 10.187 20.372 4.825 40.21-3.217 12.33-7.505 22.517-10.187 22.517s-8.58-8.04-13.938-17.69l-9.113-17.156-7.505 19.838c-5.897 15.013-10.723 20.372-19.84 20.372-18.23 0-23.59-27.343-12.866-66.48l5.896-20.373 12.868 19.303c7.505 10.722 15.547 18.23 18.23 16.62zm-285.22 83.634c6.433 2.68 14.474 11.26 17.69 19.3l5.363 14.476 6.434-12.866c6.434-12.867 9.113-13.404 54.148-13.404 42.355 0 48.79 1.608 61.12 12.33 10.186 10.187 14.474 11.26 17.69 5.362 2.68-3.754 4.826-10.187 4.826-13.938 0-3.217 2.68-6.434 5.362-6.434 3.217 0 5.362 3.217 5.362 6.434 0 3.754 2.146 10.187 4.825 13.938 3.217 5.896 7.505 4.825 17.692-5.362 12.33-10.722 18.76-12.33 61.117-12.33 44.498 0 47.714.537 53.614 12.867l6.435 12.33 7.505-15.013c5.897-13.404 12.868-17.155 52.54-26.805 50.932-12.33 57.903-11.798 64.874 6.432 2.146 6.97 8.042 12.867 12.33 12.867 11.796 0 23.59 22.516 18.763 35.92-2.146 5.897-6.434 12.868-9.65 15.014-3.217 1.608-5.896 8.042-5.896 13.404 0 5.895-4.823 12.866-10.72 16.083-20.372 10.723-89.532 20.91-184.427 26.806-138.858 8.58-332.936-5.362-373.145-26.805-5.896-3.216-10.722-10.186-10.722-16.083 0-5.363-2.68-11.797-5.896-13.405-3.218-2.146-7.506-9.113-9.65-15.013-4.826-13.405 6.97-35.923 18.762-35.923 4.288 0 10.187-5.896 12.867-12.867s7.503-13.938 11.257-15.013c7.505-2.68 68.623 9.65 89.532 17.692z"/><path d="M464.55 313.628c-18.763 6.97-48.252 15.013-66.48 18.23-17.693 2.68-33.24 5.895-34.314 6.97-4.288 4.288 9.113 83.1 19.838 116.34 17.692 54.15 46.643 100.792 88.998 144.756l39.138 40.21 39.672-41.28c43.426-45.573 70.77-90.07 88.46-143.684 10.188-32.705 24.664-112.05 20.373-115.804-1.07-1.07-20.91-5.362-44.498-9.65-23.055-4.288-46.106-8.58-50.397-9.65-4.288-1.608-6.434-1.608-3.754-.537 2.146 1.606 3.754 61.117 3.754 132.423v129.742l-54.148 53.077-28.95-30.56-29.49-30.02v-248.23l24.127-10.186c13.402-5.896 24.124-11.796 24.124-13.404s-.537-2.146-1.07-2.146c-1.072.537-16.622 6.434-35.385 13.404z"/></svg>