<?xml version="1.0" encoding="utf-8"?>
<!-- Generated by IcoMoon.io -->
<!DOCTYPE svg PUBLIC "-//W3C//DTD SVG 1.1//EN" "http://www.w3.org/Graphics/SVG/1.1/DTD/svg11.dtd">
<svg version="1.1" xmlns="http://www.w3.org/2000/svg" xmlns:xlink="http://www.w3.org/1999/xlink" width="1024" height="1024" viewBox="0 0 1024 1024"><g id="icomoon-ignore">
</g>
<path d="M504.184 30.179l-9.163 29.641 43.117 134.199c24.253 73.836 45.271 137.971 46.889 142.822 2.694 7.007-4.851 8.085-58.745 8.085h-61.979l-5.929 16.708c-3.234 9.701-5.929 19.402-5.929 21.558 0 2.694 89.466 4.851 199.41 4.851h199.41l28.025-20.48 28.025-19.94-137.431-1.616-137.431-1.078-56.050-172.463c-30.719-94.855-57.128-172.463-59.285-172.463-1.616 0-7.545 13.474-12.935 30.181z"></path>
<path d="M207.763 91.079c-4.312 6.467 158.452 227.975 165.456 225.281 3.772-1.078 5.929-5.929 5.929-10.779-1.078-12.935-153.061-219.352-161.146-219.352-4.312 0-8.623 2.156-10.239 4.851z"></path>
<path d="M730.543 194.559c-71.68 97.549-85.693 123.42-68.446 123.42 5.929 0 161.684-211.808 163.84-222.047 0.538-3.772-2.694-7.007-7.545-8.085-6.467-1.616-32.876 30.719-87.848 106.712z"></path>
<path d="M481.010 102.398c-3.234 7.545-22.096 65.213-42.039 127.73l-36.648 114.797-189.171 1.078-188.633 1.616 29.641 19.94 29.103 20.48h149.829c128.808 0 149.289 1.078 149.289 8.085 0 4.312-7.545 31.259-16.708 59.823l-16.708 52.278 15.63 12.395c8.085 7.007 16.168 12.395 17.786 12.935 1.616 0 30.719-85.153 64.673-188.633l61.441-188.633-11.317-33.954c-10.239-31.259-11.317-32.338-16.168-19.94z"></path>
<path d="M821.625 429.001c-61.979 46.349-117.491 85.693-122.342 88.926-8.085 4.312-11.317-2.694-28.025-52.818l-18.324-58.206-22.096-1.616c-12.395-1.078-22.096 0-22.096 2.156s27.487 87.31 60.363 189.709l60.901 185.937 26.409 21.018c14.552 11.317 27.487 19.94 28.565 18.324 1.078-1.078-16.168-58.745-38.804-127.73-32.876-100.783-39.342-126.652-33.954-131.503 3.772-3.772 70.064-51.74 147.132-107.79 77.071-55.512 142.282-103.478 145.516-105.634 2.694-2.694-11.317-4.851-32.338-4.312l-37.726 0.538-113.179 82.997z"></path>
<path d="M112.909 407.982c0.538 2.694 47.967 38.266 105.634 79.765s106.174 77.071 107.25 78.687c1.616 2.156-23.175 81.921-53.894 177.314-31.259 95.933-55.512 175.158-54.972 176.236 1.078 0.538 14.014-7.545 28.565-18.324l26.947-19.94 45.271-139.588c24.791-76.531 46.889-140.128 49.584-141.744 2.156-1.616 25.331 12.935 51.2 32.338 34.492 25.331 49.584 33.416 55.512 29.641 14.552-8.623 29.103-21.018 26.409-23.175-1.078-1.078-74.374-54.434-162.224-118.569l-160.606-116.413h-32.338c-17.786 0-32.338 1.616-32.338 3.772z"></path>
<path d="M478.315 678.535l-160.068 116.413-11.317 31.798c-5.929 17.786-9.701 32.876-9.163 33.954 1.078 0.538 49.043-32.876 106.174-74.374 57.668-42.039 106.712-77.071 109.946-78.147s72.758 46.349 153.601 105.634c81.381 58.745 148.751 106.712 149.829 105.634s-3.772-16.708-10.239-34.492l-12.395-32.876-113.179-81.921c-61.979-44.733-116.413-84.615-120.185-87.848-4.851-4.851 3.772-14.014 42.039-40.961 26.409-18.864 48.505-38.266 48.505-43.117-0.538-4.312-3.234-14.552-7.007-22.096l-6.467-14.014-160.068 116.413z"></path>
<path d="M158.718 611.165c-147.672 48.505-137.971 44.193-134.199 54.434 1.616 4.312 5.929 8.085 8.623 8.085 3.234 0 62.519-18.324 131.503-41.499 104.018-33.954 126.114-42.577 126.114-51.2 0-5.389-3.234-9.701-6.467-9.163-3.772 0-60.363 17.786-125.576 39.342z"></path>
<path d="M743.479 580.984c0 8.623 22.096 17.246 126.114 51.2 68.986 23.175 128.27 41.499 131.503 41.499 11.857 0 11.317-16.708-0.538-21.018-19.94-7.545-250.072-81.381-253.844-81.381-1.616 0-3.234 4.312-3.234 9.701z"></path>
<path d="M506.34 883.873c0 136.353 0.538 140.128 10.779 140.128s10.779-3.772 10.779-140.128c0-136.353-0.538-140.128-10.779-140.128s-10.779 3.772-10.779 140.128z"></path>
</svg>
