<svg xmlns="http://www.w3.org/2000/svg" width="1024" height="1024" viewBox="0 0 1024 1024"><path d="M335.193 28.96c9.65 51.77 29.835 211.472 35.974 283.42l6.144 69.32-82.48-6.143C216.735 370.292 43 347.48 15.794 339.583c-11.41-3.512-13.162 20.18-13.162 176.37 0 175.49 0 179.882 17.548 175.49 27.204-7.017 211.47-29.834 288.685-36.852l68.442-6.142-5.265 64.93c-7.896 85.117-30.71 270.258-36.852 293.076-4.386 17.548 0 17.548 175.49 17.548 157.065 0 179.883-1.752 176.37-13.16-7.896-23.693-29.834-195.677-35.973-279.035l-6.144-80.725h21.06c34.22 0 244.812 25.445 300.093 35.1 28.956 5.265 52.648 8.776 53.527 7.018 1.753-1.753-.88-42.118-4.386-90.38-2.632-48.263-2.632-127.235 0-175.492 3.512-48.262 6.144-88.622 6.144-89.5-.88-.88-21.06 2.63-44.75 7.017-62.3 12.283-257.095 34.22-297.46 34.22h-34.22l6.143-81.603c6.144-82.483 28.077-251.83 36.853-280.787 4.386-14.04 1.753-15.794-14.04-10.53-24.572 7.897-299.215 7.897-324.664 0C330.8 0 329.922 1.757 335.187 28.955z"/></svg>