<?xml version="1.0" encoding="utf-8"?>
<!-- Generated by IcoMoon.io -->
<!DOCTYPE svg PUBLIC "-//W3C//DTD SVG 1.1//EN" "http://www.w3.org/Graphics/SVG/1.1/DTD/svg11.dtd">
<svg version="1.1" xmlns="http://www.w3.org/2000/svg" xmlns:xlink="http://www.w3.org/1999/xlink" width="1024" height="1024" viewBox="0 0 1024 1024"><g id="icomoon-ignore">
</g>
<path d="M335.193 28.961c9.65 51.769 29.835 211.471 35.974 283.419l6.144 69.321-82.483-6.144c-78.093-5.265-251.83-28.077-279.034-35.974-11.409-3.512-13.162 20.18-13.162 176.37 0 175.491 0 179.882 17.548 175.491 27.203-7.018 211.471-29.835 288.684-36.853l68.442-6.144-5.265 64.931c-7.897 85.116-30.71 270.257-36.853 293.075-4.386 17.548 0 17.548 175.491 17.548 157.064 0 179.882-1.753 176.37-13.162-7.897-23.692-29.835-195.676-35.974-279.034l-6.144-80.725h21.059c34.221 0 244.812 25.445 300.093 35.1 28.956 5.265 52.648 8.776 53.527 7.018 1.753-1.753-0.879-42.118-4.386-90.381-2.632-48.262-2.632-127.234 0-175.491 3.512-48.262 6.144-88.622 6.144-89.501-0.879-0.879-21.059 2.632-44.751 7.018-62.298 12.283-257.095 34.221-297.46 34.221h-34.221l6.144-81.604c6.144-82.483 28.077-251.83 36.853-280.787 4.386-14.041 1.753-15.794-14.041-10.53-24.571 7.897-299.214 7.897-324.663 0-18.427-6.144-19.306-4.386-14.041 22.812z"></path>
</svg>
