<?xml version="1.0" encoding="utf-8"?>
<!-- Generated by IcoMoon.io -->
<!DOCTYPE svg PUBLIC "-//W3C//DTD SVG 1.1//EN" "http://www.w3.org/Graphics/SVG/1.1/DTD/svg11.dtd">
<svg version="1.1" xmlns="http://www.w3.org/2000/svg" xmlns:xlink="http://www.w3.org/1999/xlink" width="1024" height="1024" viewBox="0 0 1024 1024"><g id="icomoon-ignore">
</g>
<path d="M540.338 6.896c-113.044 20.389-201.201 105.249-225.79 217.994-5.996 26.686-6.597 81.56-1.499 105.549 15.593 71.965 61.17 132.236 131.935 175.114l16.192 9.895-14.693-15.293c-19.49-20.389-35.682-47.376-45.279-76.763-6.896-20.69-7.796-29.385-8.096-62.969-0.3-32.983 0.9-42.58 6.896-61.471 10.196-32.983 22.189-55.472 27.586-52.175 1.499 0.9-1.499 9.595-6.597 19.79-27.886 55.174-27.586 132.536 0.599 185.31 9.895 18.891 34.782 51.275 40.781 53.074 1.799 0.9-0.9-6.597-5.996-16.192-8.996-16.192-9.595-19.191-9.595-47.376 0-26.388 0.9-32.084 8.096-47.376 11.095-23.689 33.883-46.477 59.97-60.87 50.975-27.287 79.161-77.362 76.763-135.533-0.9-24.288-1.799-28.187-15.892-55.773-13.493-26.987-14.992-32.084-16.192-53.375-0.9-20.69 0-25.488 6.896-39.581 7.497-15.293 20.69-29.686 37.782-41.38 7.196-5.097 6.896-5.097-16.493-5.097-13.193 0.3-34.484 2.1-47.376 4.498zM479.168 184.709c15.892-6.297 17.092-4.498 8.096 12.293l-5.397 10.494 21.589 26.388-16.791-2.1-16.493-2.1-9.296 14.093-8.996 14.093-2.1-13.493c-2.699-17.991-3.598-18.891-20.69-23.689l-14.992-4.197 28.187-14.992v-32.685l11.394 10.795 11.095 10.795 14.393-5.698z"></path>
<path d="M20.091 266.569c-20.091 65.069-17.691 134.335 6.896 194.606 17.392 43.479 57.572 93.855 96.253 121.441 25.188 17.991 63.869 35.982 93.855 43.479 21.289 5.397 31.485 6.297 65.968 5.097 36.283-1.2 44.079-2.398 70.466-11.394 31.184-10.494 70.765-33.584 96.554-56.073l14.693-12.894-19.49 8.695c-28.486 12.293-48.576 16.493-82.459 16.192-48.276 0-89.656-14.093-128.938-43.778-23.689-17.691-35.982-30.886-31.785-33.584 1.799-0.9 12.293 6.297 23.689 16.493 35.383 32.685 90.856 53.974 139.132 53.974 25.488 0 56.372-6.896 79.462-17.691 18.59-8.996 26.087-14.992 11.095-9.296-13.193 5.097-50.676 3.598-67.167-2.699-41.68-15.892-69.865-53.074-77.663-102.55-4.498-27.287-16.493-49.175-39.581-72.265-34.782-35.083-75.263-49.476-116.643-41.38-62.969 12.594-102.85-6.297-121.441-57.872l-6.896-18.59-5.996 20.091zM175.116 425.791l6.896 7.796 14.693-5.698c8.096-3.298 14.693-5.397 14.693-4.798 0 0.9-2.699 7.497-5.698 14.992l-5.996 13.493 8.996 11.095c4.798 5.996 8.695 11.694 8.695 12.594 0 0.599-6.597 0.599-14.992-0.599l-14.992-2.1-17.392 28.187-3.598-16.791c-3.298-15.892-3.598-16.791-14.393-18.59-19.191-2.999-20.091-5.996-5.097-13.794l14.093-7.196-1.499-15.593c-1.499-14.093-1.2-15.593 3.298-13.193 2.699 1.499 8.396 6.297 12.293 10.196z"></path>
<path d="M692.664 273.166c-56.672 12.894-112.445 47.376-144.529 89.357-23.088 29.986-45.878 79.161-53.375 116.344-2.1 8.996-0.3 7.497 13.193-12.894 26.087-38.681 63.869-67.167 109.747-82.161 20.69-6.896 29.086-8.096 62.969-8.096 39.581-0.3 55.472 1.799 55.472 7.497 0 2.1-6.297 2.1-18.59 0.599-69.567-8.996-130.436 10.494-176.615 56.073-19.191 18.891-41.68 50.676-41.68 58.472 0 1.2 5.996-4.197 13.493-11.995 7.497-7.497 21.289-17.392 30.886-21.89 14.992-7.196 20.69-8.096 47.078-8.096 27.586 0 31.785 0.9 50.075 9.595 11.694 5.397 28.187 17.092 39.28 27.287 27.287 25.488 48.276 35.083 84.258 39.581 24.887 2.999 56.073-1.499 76.463-10.494 10.494-4.798 25.188-15.892 39.28-29.686 27.287-26.388 33.883-30.585 56.973-36.582 26.686-6.896 51.275-0.599 77.062 18.891l9.895 7.497-4.798-15.892c-7.497-26.686-29.986-68.667-49.776-93.554-34.484-43.778-88.157-79.462-143.331-95.354-28.786-8.096-105.549-10.795-133.436-4.498zM796.413 378.716c6.896-2.699 13.193-4.197 14.093-3.298s-0.599 6.297-3.298 11.995c-6.597 13.794-6.297 17.392 1.2 24.288 3.298 2.999 7.497 7.796 8.695 10.494 2.398 3.899 0.599 4.498-13.193 3.298-15.593-1.2-15.593-1.2-24.288 11.694l-8.996 13.193-2.699-15.593c-2.398-14.693-3.298-15.892-13.493-18.891-5.996-1.499-12.594-2.999-14.393-2.999-7.196 0-3.899-4.498 8.096-11.394 11.694-6.597 11.995-7.196 11.995-23.689v-17.092l23.689 23.088 12.594-5.097z"></path>
<path d="M530.743 520.245c-3.899 0.9 0.599 2.699 12.894 5.397 54.274 11.095 107.647 53.974 137.034 109.446 15.593 29.986 28.187 83.659 19.49 83.659-1.499 0-3.598-2.999-4.197-6.896-0.9-3.598-2.999-15.293-5.097-26.087s-9.895-31.785-17.092-46.477c-28.486-56.973-89.357-101.951-145.429-107.947l-15.593-1.499 11.095 4.197c48.576 18.891 76.763 69.865 68.367 123.839-1.799 11.095-7.796 30.285-13.493 42.279-19.191 40.781-20.091 78.861-2.999 120.842 14.093 35.383 32.983 54.274 68.367 69.865 49.175 21.589 72.265 68.966 56.372 114.843-2.999 8.695-4.498 15.892-3.598 15.892 5.097 0 44.379-32.983 59.672-49.776 95.654-106.148 95.654-271.668-0.3-374.817-48.276-51.874-114.843-79.462-189.507-78.861-16.493 0.3-32.685 1.2-35.982 2.1zM710.656 741.239c7.497-2.699 14.693-4.498 15.293-3.598 0.9 0.9-1.2 7.196-4.798 14.093l-6.297 12.293 9.296 11.394c4.798 6.597 8.996 11.995 8.996 12.594s-7.196 0.9-15.593 0.3c-15.593-0.9-15.892-0.9-23.389 11.095-7.796 13.193-9.895 12.293-13.193-6.297-1.799-10.494-3.298-11.694-15.593-14.693-7.196-1.799-13.794-4.498-14.693-5.397-0.599-1.2 5.097-5.097 12.594-8.996l13.493-6.597-4.197-34.183 12.293 11.694 11.995 11.694 13.794-5.397z"></path>
<path d="M490.562 564.925c-0.599 48.877-44.978 95.354-98.052 102.55-10.494 1.499-29.086 1.2-45.279-0.599-20.99-2.398-31.485-2.1-44.079 0.599-41.38 9.296-85.458 41.979-101.65 75.263-4.498 9.595-9.296 26.686-11.394 40.48-8.396 61.471-35.982 90.856-87.257 93.855l-23.389 1.499 15.593 11.694c21.589 16.192 71.366 39.881 96.852 45.878 95.953 23.389 194.904-3.298 264.772-71.366 35.682-34.782 54.873-66.267 68.066-112.145 14.393-49.776 12.594-104.65-5.698-156.824-11.995-34.183-13.193-34.183-13.193-1.2 0 78.562-42.879 150.227-111.846 187.109-17.691 9.296-23.689 11.095-23.689 6.297 0-1.799 9.895-8.096 21.89-14.393 14.693-7.497 29.385-18.891 45.878-35.383 19.79-19.79 26.686-29.086 38.082-52.475 17.092-35.083 24.589-69.266 22.189-100.45-1.2-11.995-3.298-24.887-4.798-28.786-2.398-5.996-2.999-4.798-2.999 8.396zM315.448 767.326l10.196 9.895 13.794-5.097c7.796-2.699 14.693-4.498 15.293-3.899 0.599 0.3-1.799 6.597-5.397 13.493l-6.297 12.594 10.795 13.193 11.095 13.193-16.493-1.799-16.493-2.1-8.396 12.594c-8.996 13.794-11.095 12.894-14.393-5.996-1.799-10.196-2.999-11.095-17.691-14.992l-15.593-4.197 14.693-8.695 14.693-8.396-1.799-14.693c-0.9-8.096-0.9-14.693 0-14.693 1.2 0 6.597 4.498 11.995 9.595z"></path>
</svg>
