<?xml version="1.0" encoding="utf-8"?>
<!-- Generated by IcoMoon.io -->
<!DOCTYPE svg PUBLIC "-//W3C//DTD SVG 1.1//EN" "http://www.w3.org/Graphics/SVG/1.1/DTD/svg11.dtd">
<svg version="1.1" xmlns="http://www.w3.org/2000/svg" xmlns:xlink="http://www.w3.org/1999/xlink" width="1009" height="1024" viewBox="0 0 1009 1024"><g id="icomoon-ignore">
</g>
<path d="M357.375 28.873c-7.953 33.302 11.929 73.563 44.237 89.467 30.817 14.414 63.622 8.45 89.467-15.905l13.421-12.923 13.917 12.923c25.349 24.356 58.154 30.32 88.971 15.905 32.308-15.905 52.19-56.166 44.237-89.467l-3.48-13.421-8.45 16.899c-4.473 8.946-15.905 21.87-25.349 27.834-32.308 21.87-86.485 10.438-100.9-20.876-6.959-15.408-10.935-15.408-17.894 0-14.414 31.314-68.592 42.746-100.9 20.876-9.444-5.964-20.876-18.888-25.349-27.834l-8.45-16.899-3.48 13.421z"></path>
<path d="M259.954 133.253c-119.291 41.255-208.758 136.19-248.522 261.445-9.941 32.308-11.432 47.219-11.432 109.35 0.497 68.095 0.994 74.557 16.403 119.291 28.331 82.509 77.539 150.604 142.154 195.835 53.183 37.775 56.663 37.775 30.817 1.491-31.811-44.237-65.113-116.805-78.533-170.486-15.905-63.124-15.905-173.965 0-238.084 23.361-94.935 90.959-203.291 162.533-261.445 17.894-14.414 32.308-26.84 32.308-27.834 0-3.48-14.414-0.497-45.728 10.438z"></path>
<path d="M703.317 122.815c0 0.994 14.414 13.421 32.308 27.834 71.575 58.154 139.172 166.51 162.533 261.445 15.905 64.118 15.905 174.959 0 238.084-13.421 53.681-46.722 126.249-78.533 170.486-25.847 36.284-22.367 36.284 30.817-1.491 64.615-45.231 113.823-113.326 142.154-195.835 15.408-44.734 15.905-51.196 16.403-119.291 0-62.131-1.491-77.041-11.432-109.35-39.764-126.249-130.226-221.184-250.51-261.445-33.302-11.432-43.739-13.917-43.739-10.438z"></path>
<path d="M488.097 136.732c-4.473 2.485-17.894 6.462-29.822 8.45l-20.876 3.976 1.491 64.118c0.994 35.787 4.971 175.456 8.946 310.653 8.45 294.25 8.45 298.227 1.988 298.227-8.946 0-87.48-81.516-108.852-113.823-31.314-46.225-63.124-116.309-76.048-167.504-8.946-36.284-10.935-58.154-10.935-121.278 0-98.415 10.438-144.64 51.692-226.652l28.829-57.657-22.367 21.87c-51.692 50.201-103.385 139.172-122.273 210.249-51.196 190.368 32.805 407.079 196.332 507.979 15.905 9.941 28.829 19.385 28.829 21.372 0 9.444-104.876 29.325-160.546 30.32l-25.847 0.497 37.278 9.941c39.266 10.438 152.095 14.912 180.427 7.455 10.935-2.982 13.421-1.988 13.421 4.971 0.497 4.971 10.438 19.881 22.367 33.799l22.367 24.852 22.367-24.852c11.929-13.917 21.87-28.829 22.367-33.799 0-6.959 2.485-7.953 13.917-4.971 27.834 7.455 140.663 2.982 179.929-7.455l37.278-9.941-25.847-0.497c-55.669-0.994-160.546-20.876-160.546-30.32 0-1.988 12.923-11.432 28.829-21.372 163.030-100.403 247.528-318.605 196.83-507.979-19.385-71.077-71.077-160.048-122.769-210.249l-22.367-21.87 28.829 57.657c41.255 82.012 51.692 128.237 51.692 226.652 0 63.124-1.988 84.994-10.935 121.278-12.923 51.196-44.734 121.278-76.048 167.504-21.372 32.308-99.906 113.823-108.852 113.823-6.462 0-6.462-2.485 2.485-303.196 3.976-138.178 7.455-277.847 8.45-310.653l1.491-59.149-20.876-3.976c-11.432-1.988-25.349-5.964-30.817-8.45-11.929-6.462-20.379-6.462-31.811 0z"></path>
</svg>
