<svg xmlns="http://www.w3.org/2000/svg" width="1009" height="1024" viewBox="0 0 1009 1024"><path d="M357.375 28.873c-7.953 33.302 11.93 73.563 44.237 89.467 30.817 14.414 63.622 8.45 89.467-15.905l13.42-12.923 13.916 12.923c25.35 24.356 58.154 30.32 88.97 15.905 32.31-15.905 52.19-56.166 44.238-89.467l-3.48-13.42-8.45 16.898c-4.473 8.948-15.905 21.87-25.35 27.836-32.307 21.87-86.484 10.438-100.9-20.876-6.958-15.41-10.934-15.41-17.893 0-14.413 31.313-68.59 42.745-100.9 20.875-9.443-5.964-20.875-18.888-25.35-27.834l-8.45-16.897-3.48 13.42zm-97.42 104.38c-119.29 41.255-208.76 136.19-248.523 261.445C1.492 427.006 0 441.918 0 504.048c.497 68.095.994 74.557 16.403 119.29 28.33 82.51 77.54 150.605 142.154 195.836 53.183 37.775 56.663 37.775 30.817 1.49-31.81-44.236-65.113-116.804-78.533-170.485-15.903-63.126-15.903-173.967 0-238.086 23.363-94.935 90.96-203.29 162.535-261.445 17.894-14.415 32.308-26.84 32.308-27.835 0-3.48-14.414-.497-45.728 10.438zm443.362-10.438c0 .994 14.414 13.42 32.308 27.834C807.2 208.8 874.797 317.16 898.158 412.092c15.905 64.118 15.905 174.96 0 238.084-13.42 53.68-46.722 126.25-78.533 170.486-25.847 36.284-22.367 36.284 30.817-1.49 64.615-45.232 113.823-113.327 142.154-195.836 15.408-44.734 15.905-51.196 16.403-119.29 0-62.132-1.493-77.042-11.434-109.35-39.764-126.25-130.226-221.185-250.51-261.446-33.302-11.43-43.74-13.916-43.74-10.437z"/><path d="M488.097 136.732c-4.473 2.485-17.894 6.462-29.822 8.45l-20.876 3.976 1.49 64.118c.993 35.787 4.97 175.456 8.945 310.653 8.45 294.25 8.45 298.225 1.988 298.225-8.946 0-87.48-81.516-108.852-113.823-31.313-46.225-63.123-116.31-76.047-167.504-8.946-36.285-10.935-58.155-10.935-121.28 0-98.414 10.437-144.64 51.69-226.65l28.83-57.658-22.367 21.87c-51.69 50.2-103.384 139.172-122.272 210.25-51.196 190.367 32.805 407.078 196.332 507.978 15.905 9.94 28.83 19.385 28.83 21.372 0 9.444-104.877 29.325-160.547 30.32l-25.847.497 37.278 9.94c39.266 10.438 152.095 14.912 180.427 7.455 10.936-2.982 13.42-1.988 13.42 4.97.5 4.972 10.44 19.882 22.37 33.8l22.367 24.852 22.367-24.852c11.93-13.917 21.87-28.83 22.367-33.8 0-6.958 2.486-7.952 13.918-4.97 27.833 7.455 140.662 2.982 179.928-7.455l37.278-9.94-25.847-.498c-55.67-.995-160.547-20.877-160.547-30.32 0-1.99 12.923-11.433 28.83-21.373 163.03-100.403 247.527-318.605 196.83-507.98-19.386-71.076-71.078-160.047-122.77-210.248l-22.367-21.87 28.83 57.656c41.254 82.01 51.69 128.236 51.69 226.65 0 63.125-1.987 84.995-10.934 121.28-12.924 51.195-44.735 121.277-76.05 167.503-21.37 32.307-99.905 113.822-108.85 113.822-6.463 0-6.463-2.485 2.484-303.196 3.976-138.178 7.455-277.847 8.45-310.653l1.49-59.15-20.875-3.975c-11.433-1.988-25.35-5.964-30.818-8.45-11.93-6.462-20.38-6.462-31.81 0z"/></svg>