<?xml version="1.0" encoding="utf-8"?>
<!-- Generated by IcoMoon.io -->
<!DOCTYPE svg PUBLIC "-//W3C//DTD SVG 1.1//EN" "http://www.w3.org/Graphics/SVG/1.1/DTD/svg11.dtd">
<svg version="1.1" xmlns="http://www.w3.org/2000/svg" xmlns:xlink="http://www.w3.org/1999/xlink" width="1024" height="1024" viewBox="0 0 1024 1024"><g id="icomoon-ignore">
</g>
<path d="M0.001 350.815v28.444h483.555v-56.889h-483.555v28.444z"></path>
<path d="M540.444 350.815v28.444h483.555v-56.889h-483.555v28.444z"></path>
<path d="M0.001 455.111v28.444h701.629v-56.889h-701.629v28.444z"></path>
<path d="M755.673 432.355c-3.792 3.792-6.637 29.392-6.637 57.837v50.252h-208.592v161.185h161.185v-28.444c0-28.444-0.948-28.444-52.148-28.444-49.303 0-52.148-0.948-52.148-23.704 0-23.704 0.948-23.704 75.852-23.704h75.852v104.296h274.963v-274.963h-56.889v218.074h-47.407v-218.074h-56.889v218.074h-23.704c-22.756 0-22.756 0-25.6-107.141-2.844-106.192-2.844-106.192-26.548-109.037-13.274-1.896-27.496 0-31.289 3.792z"></path>
<path d="M0.001 621.037v80.592h28.444c28.444 0 28.444-0.948 28.444-52.148v-52.148h151.703v104.296h274.963v-161.185h-161.185v28.444c0 28.444 0.948 28.444 52.148 28.444 49.303 0 52.148 0.948 52.148 23.704 0 23.704-0.948 23.704-75.852 23.704h-75.852v-104.296h-274.963v80.592z"></path>
</svg>
