<svg xmlns="http://www.w3.org/2000/svg" width="1022" height="1024" viewBox="0 0 1022 1024"><path d="M507.748 487.12l.848 133.723 44.668.848c31.946.567 44.386-.28 44.386-2.542 0-3.392-20.073-67.85-21.77-70.112-.282-.565-3.957 2.262-7.632 6.22-7.068 7.633-13.853 9.33-22.617 5.937-3.956-1.414-4.52-11.308-4.52-80.007 0-72.94.282-78.594 5.653-87.358 7.35-12.156 7.35-13.287-3.392-17.81-4.805-1.98-14.983-7.917-22.616-13.006l-13.57-9.328.565 133.44zm422.935-129.763c-.848 1.696-.848 62.196 0 134.287l1.13 130.612h45.235c35.056 0 44.95-.848 43.82-3.675-.565-1.694-5.937-18.09-11.874-35.902-5.654-17.81-10.743-32.795-11.308-33.36-.283-.565-4.24 2.544-8.2 6.502-5.088 5.088-9.894 7.067-15.266 6.5l-7.633-.847-.848-81.42c-.567-78.312-.567-81.987 5.087-89.62l5.937-8.2-13.853-7.067c-7.632-3.958-17.81-10.178-22.616-14.136-5.654-5.09-8.764-6.22-9.612-3.675zM288.08 439.06l-79.158 81.986v29.12l104.038.847c66.72.283 106.017-.283 109.41-2.262 3.957-2.26 5.653-6.5 6.22-17.526s1.978-15.267 5.37-15.832c3.676-.564 5.09 2.545 6.503 13.57 1.13 7.917 1.13 18.66 0 24.032l-1.696 9.895H167.93v-26.86c0-30.815-3.11-35.622-16.397-23.465-4.24 3.958-11.874 9.895-17.245 13.57-9.612 6.785-9.612 6.785-3.675 10.743 4.523 3.11 6.22 7.068 6.22 14.984v11.026h-64.74l-5.938-8.48c-3.958-5.373-5.654-11.592-5.09-17.246.566-5.09-.564-9.612-2.26-10.178-3.393-1.13-37.884 26.292-37.884 30.25 0 1.13 3.677 6.22 8.2 11.026 15.268 16.397 18.943 55.694 6.503 72.94-3.392 4.522-11.59 11.59-18.942 15.266C.284 665.23 0 670.32 16.116 670.32c27.706 0 49.474-14.137 57.39-37.32l3.11-9.328 402.58-1.414-.848-57.673c-.848-66.154-.565-65.024-29.12-80.29l-14.417-7.916L417 486.555c-17.246 9.895-25.445 18.942-25.728 28.837 0 4.806-5.372 5.09-69.547 5.09h-69.547l51.736-54c58.52-60.782 65.59-67.284 80.007-69.546 5.656-.848 10.18-1.98 10.18-2.827 0-.564-4.523-4.805-9.895-9.61-5.937-5.373-10.46-12.157-11.59-18.377-.85-5.372-2.545-9.612-3.676-9.33-.85 0-37.32 37.036-80.856 82.27zm585.213-52.867l-16.963 16.68 1.13 80.007.85 80.007h-20.356V421.25l-10.46 11.025c-5.937 5.937-13.287 12.44-16.397 14.136-5.372 2.83-5.654 6.787-7.068 58.806-1.133 48.91-1.98 55.977-6.22 58.804-3.677 2.26-6.504 2.26-9.897 0-4.523-2.828-5.09-8.765-5.937-47.497-.283-25.727-1.696-44.103-3.392-44.103-4.523 0-36.47 23.748-36.47 27.14-.283 1.98 1.696 3.958 3.958 5.09 2.544.847 4.24 5.37 4.24 11.59v9.895H736.18c-17.81 0-31.098 5.372-39.297 15.832-5.653 7.068-5.936 10.46-5.37 43.255l.847 35.622 98.383.848c77.18.565 98.666 0 99.514-2.827.848-1.98 1.13-59.087.848-126.654l-.848-122.977-16.963 16.963zm-46.083 1.414c-5.936 13.287-13.57 16.114-23.747 8.48l-8.48-6.22-8.482 10.18c-9.61 11.873-19.505 13.286-26.007 3.957-3.675-5.09-4.523-5.372-5.937-1.414-7.633 19.224 19.224 26.857 37.035 10.178 5.09-4.806 7.634-5.372 15.833-3.11 18.942 5.372 34.49-7.916 29.12-24.596-2.545-8.2-5.09-7.35-9.33 2.544z"/></svg>