<?xml version="1.0" encoding="utf-8"?>
<!-- Generated by IcoMoon.io -->
<!DOCTYPE svg PUBLIC "-//W3C//DTD SVG 1.1//EN" "http://www.w3.org/Graphics/SVG/1.1/DTD/svg11.dtd">
<svg version="1.1" xmlns="http://www.w3.org/2000/svg" xmlns:xlink="http://www.w3.org/1999/xlink" width="1022" height="1024" viewBox="0 0 1022 1024"><g id="icomoon-ignore">
</g>
<path d="M507.748 487.121l0.848 133.722 44.668 0.848c31.946 0.565 44.386-0.283 44.386-2.544 0-3.392-20.073-67.851-21.769-70.112-0.283-0.565-3.958 2.262-7.633 6.22-7.068 7.633-13.853 9.329-22.617 5.937-3.958-1.414-4.523-11.308-4.523-80.007 0-72.939 0.283-78.594 5.654-87.358 7.35-12.156 7.35-13.287-3.392-17.811-4.806-1.979-14.984-7.916-22.617-13.005l-13.57-9.329 0.565 133.44z"></path>
<path d="M930.683 357.357c-0.848 1.696-0.848 62.196 0 134.287l1.131 130.612h45.234c35.056 0 44.951-0.848 43.82-3.675-0.565-1.696-5.937-18.093-11.874-35.904-5.654-17.811-10.743-32.795-11.308-33.36-0.283-0.565-4.241 2.544-8.199 6.502-5.089 5.089-9.895 7.068-15.267 6.502l-7.633-0.848-0.848-81.421c-0.565-78.311-0.565-81.986 5.089-89.619l5.937-8.199-13.853-7.068c-7.633-3.958-17.811-10.178-22.617-14.136-5.654-5.089-8.764-6.22-9.612-3.675z"></path>
<path d="M288.081 439.060l-79.159 81.986v29.119l104.038 0.848c66.72 0.283 106.017-0.283 109.409-2.262 3.958-2.262 5.654-6.502 6.22-17.528s1.979-15.267 5.372-15.832c3.675-0.565 5.089 2.544 6.502 13.57 1.131 7.916 1.131 18.659 0 24.031l-1.696 9.895h-270.837v-26.857c0-30.815-3.11-35.622-16.397-23.465-4.241 3.958-11.874 9.895-17.245 13.57-9.612 6.785-9.612 6.785-3.675 10.743 4.523 3.11 6.22 7.068 6.22 14.984v11.026h-64.741l-5.937-8.481c-3.958-5.372-5.654-11.591-5.089-17.245 0.565-5.089-0.565-9.612-2.262-10.178-3.392-1.131-37.883 26.292-37.883 30.25 0 1.131 3.675 6.22 8.199 11.026 15.267 16.397 18.942 55.694 6.502 72.939-3.392 4.523-11.591 11.591-18.942 15.267-16.397 8.764-16.68 13.853-0.565 13.853 27.706 0 49.474-14.136 57.39-37.318l3.11-9.329 402.58-1.414-0.848-57.673c-0.848-66.154-0.565-65.024-29.119-80.29l-14.418-7.916-17.811 10.178c-17.245 9.895-25.444 18.942-25.727 28.837 0 4.806-5.372 5.089-69.547 5.089h-69.547l51.736-53.998c58.521-60.783 65.589-67.285 80.007-69.547 5.654-0.848 10.178-1.979 10.178-2.827 0-0.565-4.523-4.806-9.895-9.612-5.937-5.372-10.46-12.156-11.591-18.376-0.848-5.372-2.544-9.612-3.675-9.329-0.848 0-37.318 37.035-80.855 82.269z"></path>
<path d="M873.293 386.193l-16.963 16.68 1.131 80.007 0.848 80.007h-20.355v-141.638l-10.46 11.026c-5.937 5.937-13.287 12.439-16.397 14.136-5.372 2.827-5.654 6.785-7.068 58.804-1.131 48.909-1.979 55.977-6.22 58.804-3.675 2.262-6.502 2.262-9.895 0-4.523-2.827-5.089-8.764-5.937-47.496-0.283-25.727-1.696-44.103-3.392-44.103-4.523 0-36.47 23.748-36.47 27.14-0.283 1.979 1.696 3.958 3.958 5.089 2.544 0.848 4.241 5.372 4.241 11.591v9.895h-14.136c-17.811 0-31.098 5.372-39.297 15.832-5.654 7.068-5.937 10.46-5.372 43.255l0.848 35.622 98.383 0.848c77.18 0.565 98.666 0 99.514-2.827 0.848-1.979 1.131-59.087 0.848-126.654l-0.848-122.979-16.963 16.963z"></path>
<path d="M827.211 387.607c-5.937 13.287-13.57 16.114-23.748 8.481l-8.481-6.22-8.481 10.178c-9.612 11.874-19.507 13.287-26.009 3.958-3.675-5.089-4.523-5.372-5.937-1.414-7.633 19.224 19.224 26.857 37.035 10.178 5.089-4.806 7.633-5.372 15.832-3.11 18.942 5.372 34.491-7.916 29.119-24.596-2.544-8.199-5.089-7.35-9.329 2.544z"></path>
</svg>
