<?xml version="1.0" encoding="utf-8"?>
<!-- Generated by IcoMoon.io -->
<!DOCTYPE svg PUBLIC "-//W3C//DTD SVG 1.1//EN" "http://www.w3.org/Graphics/SVG/1.1/DTD/svg11.dtd">
<svg version="1.1" xmlns="http://www.w3.org/2000/svg" xmlns:xlink="http://www.w3.org/1999/xlink" width="1024" height="1024" viewBox="0 0 1024 1024"><g id="icomoon-ignore">
</g>
<path d="M18.117 13.25c3.084 10.022 3.084 18.116-0.385 30.835-6.167 22.741-5.782 32.762 1.541 43.169 3.084 4.625 3.854 8.479 1.928 8.479-2.313 0-4.24 2.698-4.24 5.782s1.928 5.782 3.854 5.782c2.313 0 1.156 4.24-2.313 10.022-5.782 8.479-6.167 12.334-1.541 37.002 3.854 20.042 4.24 29.679 1.156 38.158-2.313 6.167-3.084 11.178-1.541 11.178 5.396 0 15.803-13.876 15.803-20.429 0-3.469 1.928-6.553 3.854-6.553 2.313 0 3.854-2.313 3.469-5.010-1.156-10.022 0.771-13.876 8.094-16.188 9.636-3.084 14.261-19.272 7.709-26.98-9.636-11.563-25.054-4.625-20.429 8.865 1.541 3.854 3.084 3.854 7.323 0.385 7.323-6.167 11.563-1.541 5.396 6.167-7.323 8.865-20.042 0.385-18.501-12.334s10.407-18.501 23.511-15.032c17.73 4.24 13.876 21.585-18.501 87.495-30.835 63.212-34.304 79.014-21.199 92.12 4.24 4.24 9.25 7.709 11.178 7.709s-1.541 5.010-7.709 11.178c-6.938 7.323-11.178 15.417-11.178 22.355 0 5.782 13.104 38.543 28.908 72.076s28.908 65.91 28.908 71.691c0 14.647-9.25 21.585-22.355 16.96-8.479-3.084-10.407-6.167-10.407-16.96 0-10.022 1.928-13.876 7.323-14.647 8.479-1.928 15.803 4.625 11.948 10.792-1.928 3.084-3.854 3.084-7.709 0-3.469-3.084-5.396-2.698-6.553 0.771-3.854 9.636 0.771 13.876 11.563 11.178 13.876-3.854 15.032-23.511 1.928-29.293-7.709-3.469-10.792-9.25-9.25-18.501 0-1.541-1.156-2.698-3.084-2.698s-4.24-5.010-5.396-11.178c-1.541-6.553-5.782-13.491-10.022-15.417-6.938-3.854-6.938-3.469-3.084 6.938 3.084 8.479 2.698 18.116-1.156 38.158-2.698 15.803-3.469 30.064-1.541 34.304 4.625 10.792 5.010 28.908 0.385 38.543-2.698 6.553-2.698 16.573 1.156 36.231 3.854 20.429 4.24 30.064 1.156 38.543-3.854 10.407-3.854 10.792 3.084 6.938 4.24-1.928 8.479-8.865 10.022-15.417 1.156-6.167 3.469-11.178 5.396-11.178s3.084-1.156 3.084-3.084c-1.541-8.865 1.541-14.647 9.25-18.116 13.104-5.782 11.948-25.439-1.928-29.293-10.407-2.698-15.032 1.541-11.948 11.178 1.541 3.469 3.084 3.854 6.938 0.771 3.469-3.084 5.782-3.084 7.709 0 3.469 5.782-1.156 11.563-9.636 11.563-8.094 0-14.261-15.032-10.407-25.054 3.084-7.709 20.814-11.563 27.751-5.782 10.407 8.865 6.167 25.054-23.126 87.108-15.803 33.533-28.908 66.295-28.908 72.076 0 7.323 3.854 15.032 11.948 22.355s10.022 11.178 6.167 11.178c-8.865 0-18.116 15.032-18.116 28.908 0 6.938 11.948 36.617 28.908 70.92 28.523 57.816 33.533 75.16 24.283 84.411-5.782 5.782-19.657 5.782-25.439 0-6.553-6.553-5.782-20.429 1.541-26.21 4.625-4.24 6.938-3.854 11.948 1.156 7.709 7.323 3.854 13.491-4.24 6.938-3.854-3.469-5.782-3.469-6.938 0.385-5.010 13.491 10.407 20.429 20.042 8.865 6.553-7.709 1.928-23.897-7.709-26.98-7.323-2.313-9.25-6.167-8.094-16.573 0.385-2.313-1.156-4.625-3.469-4.625-1.928 0-3.854-3.469-3.854-7.323 0-7.709-9.25-19.657-15.417-19.657-1.541 0-1.156 5.010 1.156 11.178 3.084 8.479 2.698 18.116-1.156 38.158-4.625 24.668-4.24 28.523 1.541 37.002 3.469 5.782 4.625 10.022 2.313 10.022-1.928 0-3.854 2.698-3.854 5.782s1.928 5.782 3.854 5.782c2.313 0 1.156 4.24-2.313 10.022-5.782 8.479-6.167 12.719-1.541 35.846 3.469 19.657 3.854 29.679 0.771 38.543-2.313 6.553-2.698 11.948-0.771 11.948 5.782 0 15.417-11.948 15.417-19.657 0-3.854 1.541-7.323 3.854-7.323 1.928 0 2.698-2.313 1.541-5.396s0.771-7.709 4.24-10.407c15.417-13.491 17.73-16.573 16.573-23.897-1.541-10.792-18.886-20.042-23.126-12.334-4.24 7.323 0.771 20.042 5.010 12.719 2.313-3.854 4.24-3.854 7.709-0.385 3.854 3.854 3.469 5.396-1.541 7.323-10.022 3.854-18.116-1.156-18.116-11.178 0-12.334 8.479-18.886 21.97-17.345 15.032 1.541 16.188 17.73 3.084 46.637-10.792 24.668-11.948 31.605-5.010 35.846s42.398 5.010 50.493 0.771c8.865-4.625 8.479-10.407-3.084-36.617-13.104-28.908-11.948-45.096 3.084-46.637 13.491-1.541 21.97 5.010 21.97 17.345 0 10.022-8.094 15.032-18.116 11.178-5.010-1.928-5.396-3.469-1.541-7.323 3.469-3.469 5.396-3.469 7.709 0.385 4.24 7.323 9.25-5.396 5.010-12.719-4.24-7.709-21.585 1.541-23.126 12.334-1.156 7.323 1.156 10.407 16.573 23.897 3.469 2.698 5.396 7.323 4.24 10.407s-0.385 5.396 1.541 5.396c2.313 0 3.854 3.469 3.854 7.323 0 7.709 9.636 19.657 15.417 19.657 1.928 0 1.541-5.396-0.771-11.948-3.084-8.865-2.698-18.886 0.771-38.543 4.625-23.126 4.24-27.366-1.541-35.846-3.469-5.782-4.625-10.022-2.313-10.022 1.928 0 3.854-2.698 3.854-5.782s-1.928-5.782-3.854-5.782c-2.313 0-1.156-4.24 2.313-10.022 5.782-8.479 6.167-12.334 1.541-37.002-3.854-20.042-4.24-29.679-1.156-38.158 2.313-6.167 2.698-11.178 1.156-11.178-6.167 0-15.417 11.948-15.417 19.657 0 3.854-1.928 7.323-3.854 7.323-2.313 0-3.854 2.313-3.469 4.625 1.156 10.407-0.771 14.261-8.094 16.573-9.636 3.084-14.261 19.272-7.709 26.98 9.636 11.563 26.98 3.084 19.272-9.25-1.928-3.469-3.854-3.854-5.396-0.771-3.854 6.167-10.022 5.396-10.022-1.156 0-7.323 11.563-11.178 17.73-5.782 11.948 9.636 3.854 30.449-11.948 30.449-26.21-0.385-24.283-16.188 11.178-88.651 16.573-33.533 29.293-64.753 29.293-71.306 0-13.876-9.25-28.908-18.116-28.908-3.854 0-1.928-3.854 6.167-11.178s11.948-14.647 11.948-22.355c0-5.782-12.334-37.002-27.366-68.607-34.304-72.848-35.461-76.702-26.98-87.108 5.396-6.553 9.25-7.709 17.345-5.782 11.948 3.084 15.803 10.022 12.334 23.511-2.313 9.636-15.032 13.491-19.657 5.782-3.854-6.553 1.928-12.719 7.709-7.709 3.469 3.084 5.396 2.698 6.938-1.156 3.854-10.022-2.698-15.032-14.261-10.407-8.479 3.084-10.407 5.782-9.25 14.647 0.771 6.167 4.625 11.948 9.636 14.261 7.709 3.469 10.792 9.25 9.25 18.116 0 1.928 1.156 3.084 3.084 3.084s4.24 4.625 5.010 10.022c0.771 5.782 5.396 13.104 10.407 16.573 8.865 5.782 9.25 5.782 5.010-2.313-5.782-10.407-5.782-26.21-0.385-50.493 2.698-11.178 3.084-22.355 1.541-26.21-5.010-11.178-5.396-29.293-0.771-39.315 2.698-6.167 2.698-13.876-0.385-28.137-5.782-24.668-5.782-40.086 0-50.878 4.24-8.094 3.854-8.094-5.010-2.313-5.010 3.469-9.636 10.792-10.407 16.573-0.771 5.396-3.084 10.022-5.010 10.022-2.313 0-2.698 1.928-1.541 3.854 1.156 2.313-3.084 8.865-9.636 15.032-15.032 13.491-14.647 27.366 0.771 31.605 10.407 2.698 15.032-1.541 11.948-11.178-1.541-3.469-3.084-3.854-6.938-0.771-5.782 4.625-11.563-1.156-7.709-7.709 4.24-6.553 16.573-4.24 19.272 3.854 6.553 20.814-16.188 35.846-29.293 19.657-8.865-10.792-7.323-14.647 26.98-87.108 15.032-31.992 27.366-62.826 27.366-68.607 0-6.938-4.24-15.032-11.178-22.355-6.167-6.167-9.636-11.178-7.709-11.178s6.938-3.469 11.178-7.709c13.491-13.491 9.636-28.908-21.585-92.505-35.461-72.462-37.387-88.265-10.792-88.651 16.188 0 23.897 23.126 10.407 30.064-8.479 4.625-16.573 1.928-16.573-5.396 0-6.553 6.167-7.323 10.022-1.156 1.541 3.084 3.469 2.698 5.396-0.771 7.709-12.334-9.636-20.814-19.272-9.25-6.553 7.709-1.928 23.897 7.709 26.98 7.323 2.313 9.25 6.167 8.094 16.188-0.385 2.698 1.156 5.010 3.469 5.010 1.928 0 3.854 3.084 3.854 6.938 0 6.553 11.178 20.042 16.188 20.042 1.541 0 0.385-5.010-1.928-11.178-3.084-8.479-2.698-18.116 1.156-38.158 4.625-24.668 4.24-28.523-1.541-37.002-3.469-5.782-4.625-10.022-2.313-10.022 1.928 0 3.854-2.698 3.854-5.782s-1.928-5.782-3.854-5.782c-2.313 0-1.156-4.24 2.313-10.022 5.782-8.479 6.167-12.719 1.541-35.846-3.469-19.657-3.854-29.679-0.771-38.543 2.313-6.553 2.698-11.948 0.771-11.948-5.782 0-15.417 11.948-15.417 19.657 0 3.854-1.541 7.323-3.854 7.323-1.928 0-2.698 2.313-1.541 5.396 1.928 5.396-7.709 17.73-14.261 17.73-5.782 0-8.479 18.886-3.469 25.054 5.396 6.553 17.73 7.709 20.814 2.313 1.541-1.928 1.156-6.553 0-10.022-1.928-5.010-3.084-5.396-5.782-1.156-2.313 3.854-4.24 3.854-7.709 0.385-3.854-3.854-3.469-5.396 1.541-7.323 10.022-3.854 18.116 1.156 18.116 11.178 0 12.334-8.479 18.886-21.97 17.345-15.032-1.541-16.188-17.73-3.084-46.637 5.396-12.334 9.636-24.668 9.636-27.751 0-8.479-11.178-12.334-34.304-11.948-28.908 0.385-31.992 6.167-18.116 38.158 13.491 31.605 12.334 46.637-2.698 48.18-13.491 1.541-21.97-5.010-21.97-17.345 0-10.022 8.094-15.032 18.116-11.178 5.010 1.928 5.396 3.469 1.541 7.323-3.469 3.469-5.396 3.469-7.709-0.385-5.010-8.094-9.25 5.782-4.24 13.876 1.928 3.854 3.854 4.625 3.854 1.928s2.313-3.854 5.010-2.698c8.094 3.084 15.417-8.479 12.719-19.657-1.541-5.396-3.854-9.636-5.782-9.636-6.553 0-16.188-12.334-14.261-17.73 1.156-3.084 0.385-5.396-1.541-5.396-2.313 0-3.854-3.469-3.854-7.323 0-7.709-9.25-19.657-15.417-19.657-1.541 0-1.156 6.167 1.156 13.876zM103.299 209.437c26.595 56.659 29.679 72.462 17.345 80.17-9.25 5.782-26.595 0-26.595-8.865 0-10.022 8.094-13.876 13.491-6.553 3.854 5.396 5.010 5.396 10.792-1.541 6.167-6.938 6.167-7.709 0-15.032-3.854-4.24-7.709-5.782-8.865-3.854-1.541 2.313-8.094 5.782-15.032 7.709l-12.334 3.469 1.156-18.116c1.156-15.417 2.313-18.116 10.022-19.272 11.178-1.541 10.792-7.709-0.385-12.719-6.553-3.084-8.865-6.553-7.709-12.334 0.771-4.625-1.156-11.948-4.24-16.188l-6.167-7.709-6.167 7.709c-3.084 4.24-5.010 11.563-4.24 16.188 1.156 5.782-1.156 9.25-7.709 12.334-11.178 5.010-11.563 11.178 0 12.719 7.323 1.156 8.479 3.854 9.636 19.272l1.156 18.116-12.334-3.469c-6.938-1.928-13.491-5.396-15.032-7.709-1.156-1.928-5.010-0.385-8.865 3.854-6.167 7.323-6.167 8.094 0 15.032 5.782 6.938 6.938 6.938 10.792 1.541 5.396-7.323 13.491-3.469 13.491 6.553 0 8.865-17.345 14.647-26.595 8.865-12.719-8.094-9.25-23.897 17.345-80.557 14.261-30.449 27.366-55.503 28.523-55.503s14.261 25.054 28.523 55.888zM48.182 323.141c8.865 5.010 10.022 19.272 1.541 19.272-3.469 0-6.938-2.698-8.094-5.782-1.928-4.625-3.469-4.24-9.25 2.698-6.167 7.709-6.167 9.25-1.156 17.345 5.010 7.323 6.553 8.094 10.407 3.469 2.313-2.698 8.865-6.167 15.032-7.709 10.022-2.313 10.407-1.928 10.407 14.647 0 16.96-6.938 25.054-16.188 19.272-2.313-1.541-3.469-0.385-2.313 2.698s5.010 6.938 9.25 9.25c4.24 2.313 6.938 6.938 6.167 11.563-0.385 4.24 1.541 11.178 5.010 15.417 5.782 7.709 5.782 7.709 11.563 0 3.469-4.24 5.396-11.178 5.010-15.417-0.771-4.625 1.928-9.25 6.167-11.563s8.094-6.167 9.25-9.25c1.156-3.084 0-4.24-2.313-2.698-9.25 5.782-16.188-2.313-16.188-19.272 0-16.573 0.385-16.96 10.792-14.647 5.782 1.541 12.334 5.010 14.647 7.709 3.854 4.625 5.396 3.854 10.407-3.469 5.010-8.094 5.010-9.636-1.156-17.345-5.782-6.938-7.323-7.323-9.25-2.698-3.084 8.479-13.876 6.938-13.876-1.928 0-4.625 3.854-9.636 9.25-11.948 13.104-6.167 25.439 1.156 25.439 15.417 0 10.407-49.336 123.34-53.962 123.725-4.24 0-53.962-113.318-53.962-123.34 0-15.803 12.719-23.126 27.366-15.417zM102.913 618.001c28.137 60.899 31.22 76.702 16.573 83.254-11.563 5.396-25.439-1.156-25.439-11.948 0-8.865 10.792-10.407 13.876-1.928 1.928 4.625 3.469 4.24 9.25-2.698 6.167-7.709 6.167-9.25 1.156-17.345-5.010-7.323-6.553-8.094-10.407-3.469-2.313 2.698-8.865 6.167-14.647 7.709-10.407 2.313-10.792 1.928-10.792-14.647 0-16.96 6.938-25.054 16.188-19.272 2.313 1.541 3.469 0.385 2.313-2.698s-5.010-7.323-9.25-9.25c-4.24-2.313-6.938-6.938-6.167-11.563 0.385-4.24-1.541-11.178-5.010-15.417-5.782-7.709-5.782-7.709-11.563 0-3.469 4.24-5.396 11.178-5.010 15.417 0.771 4.625-1.928 9.25-6.167 11.563-4.24 1.928-8.094 6.167-9.25 9.25s0 4.24 2.313 2.698c9.25-5.782 16.188 2.313 16.188 19.272 0 16.573-0.385 16.96-10.407 14.647-6.167-1.541-12.719-5.010-15.032-7.709-3.854-4.625-5.396-3.854-10.407 3.469-5.010 8.094-5.010 9.636 1.156 17.345 5.782 6.938 7.323 7.323 9.25 2.698 3.084-8.479 13.876-6.938 13.876 1.928 0 10.792-13.876 17.345-25.439 11.948-6.553-3.084-9.25-7.323-9.25-15.417 0-10.407 49.336-123.725 53.962-123.725 1.156 0.385 13.491 25.439 28.137 55.888zM49.338 734.017c6.553 2.698 8.479 15.032 2.698 18.886-1.928 1.156-6.167-0.385-9.25-3.469-4.625-4.625-6.167-4.625-11.563 1.928-6.167 6.938-6.167 7.709 0 15.032 3.854 4.24 7.709 5.782 8.865 3.854 1.541-2.313 8.094-5.782 15.032-7.709l12.334-3.469-1.156 18.116c-1.156 15.417-2.313 18.116-9.636 19.272-11.563 1.541-11.178 7.709 0 12.719 6.553 3.084 8.865 6.553 7.709 12.334-0.771 4.625 1.156 11.948 4.24 16.188l6.167 7.709 6.167-7.709c3.084-4.24 5.010-11.563 4.24-16.188-1.156-5.782 1.156-9.25 7.709-12.334 11.178-5.010 11.563-11.178 0.385-12.719-7.709-1.156-8.865-3.854-10.022-19.272l-1.156-18.116 12.334 3.469c6.938 1.928 13.491 5.396 15.032 7.709 1.156 1.928 5.010 0.385 8.865-3.854 6.167-7.323 6.167-8.479-0.385-15.803-6.553-6.553-8.094-6.938-12.334-1.541-5.782 6.938-11.563 4.24-11.563-5.782 0-8.865 17.345-14.647 26.595-8.865 12.334 7.709 9.25 23.511-17.345 80.17-14.261 30.835-27.366 55.888-28.523 55.888-4.625 0-53.962-109.849-53.962-119.871 0-15.803 11.948-22.741 28.523-16.573z"></path>
</svg>
