<?xml version="1.0" encoding="utf-8"?>
<!-- Generated by IcoMoon.io -->
<!DOCTYPE svg PUBLIC "-//W3C//DTD SVG 1.1//EN" "http://www.w3.org/Graphics/SVG/1.1/DTD/svg11.dtd">
<svg version="1.1" xmlns="http://www.w3.org/2000/svg" xmlns:xlink="http://www.w3.org/1999/xlink" width="1027" height="1024" viewBox="0 0 1027 1024"><g id="icomoon-ignore">
</g>
<path d="M506.743 65.367c-9.785 39.375-10.251 51.024-2.796 59.179 13.746 14.678 29.589 2.097 27.259-21.901-1.165-12.814-12.115-59.179-15.144-64.77-1.165-1.864-5.126 10.019-9.32 27.492z"></path>
<path d="M445.235 52.553c-0.932 6.058-1.631 24.23-1.631 40.074v29.124l7.921 7.921c9.32 9.32 10.484 9.552 18.406 3.261 12.814-10.019 9.552-26.327-13.979-73.39l-9.32-18.173-1.398 11.184z"></path>
<path d="M575.008 59.542c-22.6 43.801-26.56 61.974-16.076 72.459 6.99 6.99 13.514 6.058 21.435-2.796 7.455-8.155 8.387-17.707 6.058-55.218l-1.864-33.084-9.552 18.639z"></path>
<path d="M380.698 67.23c0 7.455 6.756 50.791 9.552 62.673 3.029 11.184 13.28 21.668 21.668 21.668 7.921 0 13.746-7.689 13.746-18.173 0-9.785-5.126-19.105-27.026-48.228-18.173-24.23-17.94-23.997-17.94-17.94z"></path>
<path d="M631.157 86.335c-20.27 27.492-26.794 39.141-26.794 48.228 0 9.785 6.058 17.008 13.979 17.008 10.484 0 18.173-8.387 21.901-24.464 4.194-16.542 10.95-62.207 9.552-63.605-0.466-0.466-8.854 9.785-18.639 22.833z"></path>
<path d="M320.122 97.519c0 3.961 13.746 42.17 21.201 58.246 5.359 11.882 8.155 15.144 14.678 17.94 4.66 1.864 9.32 3.495 10.717 3.495 4.893 0 11.649-9.552 11.649-16.775 0-10.019-8.155-21.201-29.822-40.54-26.794-23.765-28.424-25.162-28.424-22.366z"></path>
<path d="M685.443 117.089c-29.356 27.026-33.317 32.152-33.317 44.034 0 22.6 24.23 20.969 36.113-2.33 5.359-10.484 23.531-63.139 21.901-63.139-0.699 0-11.649 9.785-24.696 21.435z"></path>
<path d="M273.291 152.969c14.911 26.327 32.618 51.257 38.676 54.053 7.455 3.495 13.979 3.495 20.036 0.466 3.261-1.864 4.426-4.893 4.426-12.115 0-8.155-1.398-10.95-8.854-18.173-8.387-7.689-47.296-32.385-57.547-36.346-3.728-1.398-3.029 0.466 3.261 12.115z"></path>
<path d="M735.535 155.299c-38.443 23.065-46.364 32.152-41.239 47.296 1.864 4.893 3.961 6.29 11.649 6.756 15.144 1.165 21.901-5.825 47.063-49.16 6.756-11.184 11.184-20.27 10.019-20.27-0.932 0-13.514 6.99-27.492 15.377z"></path>
<path d="M492.531 156.231c-97.621 9.552-178.467 79.215-204.095 175.904-5.359 20.036-6.29 27.959-6.29 57.081s0.932 37.045 6.29 57.081c11.184 42.636 31.453 78.284 61.741 108.571 90.399 90.165 233.917 91.796 325.947 3.495 32.385-30.987 51.257-62.44 65.003-107.406 5.825-19.338 6.29-23.997 6.29-61.741 0-37.511-0.466-42.404-6.29-61.741-13.047-43.335-34.715-78.982-66.168-108.571-28.424-26.794-58.014-43.801-94.359-54.286-16.542-4.66-62.906-11.649-69.196-10.484-0.699 0.233-9.32 1.165-18.871 2.097z"></path>
<path d="M224.131 194.674c5.126 9.552 46.597 51.024 53.586 54.053 15.377 6.29 27.959-1.398 24.93-15.377-2.796-12.581-11.649-18.173-53.121-32.618-19.338-6.756-26.794-8.387-25.395-6.058z"></path>
<path d="M773.977 203.993c-33.55 12.581-40.54 16.309-44.966 25.861-4.66 9.785-4.426 11.649 1.165 17.241 6.058 6.058 17.008 6.058 26.794 0 6.29-3.961 36.579-35.414 47.529-49.626 4.66-6.058 0.699-5.126-30.521 6.524z"></path>
<path d="M196.64 258.745c18.406 16.542 51.49 37.744 60.576 38.909 24.696 3.495 28.89-23.065 5.126-32.618-4.893-1.864-20.27-5.126-34.249-7.455-14.212-2.097-28.657-4.194-32.618-4.893l-6.99-1.165 8.155 7.223z"></path>
<path d="M801.237 258.512c-12.814 2.33-27.259 5.359-32.152 6.99-15.377 5.126-22.833 20.736-13.746 28.89 6.29 5.825 15.377 6.99 23.997 3.261 7.689-3.261 39.84-25.395 54.519-37.511l6.99-5.825h-8.155c-4.426 0-18.639 2.097-31.453 4.194z"></path>
<path d="M190.348 316.293c-10.717 0.466-19.338 1.631-19.338 2.796 0 2.33 48.694 25.629 61.509 29.356 25.395 7.455 41.705-14.678 20.969-28.191-6.524-4.426-27.259-5.591-63.139-3.961z"></path>
<path d="M780.268 319.088c-5.359 2.33-11.416 8.854-13.514 14.911-2.097 5.825 10.019 17.94 17.707 17.94 8.155 0 22.6-5.359 51.49-19.338l25.395-12.115-11.416-1.631c-16.309-2.097-64.071-1.864-69.663 0.233z"></path>
<path d="M194.775 378.499c-17.008 4.194-31.453 8.387-32.152 8.854-1.864 2.097 60.344 16.775 71.76 16.775 22.134 0.466 31.453-20.736 13.28-30.055-9.32-4.893-17.94-4.194-52.888 4.426z"></path>
<path d="M786.093 373.374c-22.366 8.387-16.542 32.152 7.921 32.152 10.484 0 66.634-13.047 69.663-16.076 1.165-1.165-11.416-5.126-27.959-9.086-38.909-9.086-42.636-9.785-49.626-6.99z"></path>
<path d="M60.342 427.659c-7.223 6.99-7.455 17.474-1.165 46.597 6.29 28.424 14.678 52.655 25.629 74.322 7.921 16.076 8.387 17.707 3.261 12.814-3.029-3.029-12.115-14.911-20.036-26.56-22.366-32.618-33.783-47.063-38.909-48.461-5.825-1.398-16.542 6.29-16.542 12.115 0 9.32 35.414 65.469 62.207 98.553l14.911 18.639-9.785-5.591c-5.359-2.796-21.435-17.707-35.646-32.851-19.804-20.736-27.259-27.259-31.686-27.259-8.854 0-12.581 3.261-10.95 10.019 2.563 9.785 67.566 81.545 84.341 92.961 18.639 12.349 3.261 10.95-18.406-1.864-15.144-9.086-27.026-12.581-27.026-8.155 0 14.911 40.772 47.529 77.351 62.207 6.29 2.33 11.184 5.359 11.184 6.29 0 1.165-10.484 1.165-23.299 0.466-20.036-1.631-23.299-1.165-23.299 1.864 0 5.359 17.474 12.581 40.54 16.542 29.124 5.126 29.822 6.99 4.66 12.115-8.62 1.864-16.309 3.961-17.008 4.426-3.961 4.194 21.668 12.581 39.375 13.047l8.155 0.233-10.95 4.66c-6.29 2.563-11.184 6.058-11.184 7.689 0 3.495 13.746 9.086 33.783 13.746l13.979 3.261-10.95 2.796c-6.29 1.631-11.184 3.495-11.184 4.426 0 0.699 22.833 11.184 50.558 23.299 54.519 23.531 86.205 32.851 108.804 32.618h14.212l-20.969-5.825c-23.997-6.524-79.681-28.191-99.951-38.909-11.649-6.29-13.047-7.689-9.552-9.785 7.455-4.426 15.144-10.717 15.144-12.581 0-1.165-4.66-2.563-10.484-3.261-5.825-0.932-15.843-3.728-22.366-6.524l-11.649-5.126 7.455-6.29c8.387-6.99 8.387-6.99-8.854-12.581-13.28-4.426-15.377-8.155-7.689-14.678 6.29-5.591 5.825-7.223-2.796-9.552-6.99-1.631-7.689-2.796-8.387-11.184-0.699-8.854-1.165-9.552-10.717-12.115-5.591-1.398-15.61-6.99-22.6-12.581l-12.581-10.019 20.036-1.398-15.377-16.542c-8.387-9.086-15.144-17.241-15.144-18.406s4.66-2.097 10.484-2.097c8.387 0 10.484-0.699 10.484-4.194-0.233-5.825-10.019-28.89-16.076-37.511l-5.126-7.223h6.058c3.261 0 7.921 0.932 10.251 2.33 3.495 1.631 4.66 0.932 6.99-3.728 2.097-4.893 3.261-5.359 7.455-3.029 10.251 5.359 45.899 43.569 61.974 66.168 24.696 34.948 50.558 57.547 76.186 66.168 20.969 7.455 27.026 11.649 51.257 36.113 13.979 13.746 27.959 25.629 34.482 28.89 10.484 5.126 28.89 8.155 83.875 14.212 23.065 2.563 45.899 9.552 50.791 15.377 1.631 1.864 3.728 3.495 4.66 3.495 1.631 0 13.979-29.124 13.979-32.851 0-0.699-10.251-2.097-22.6-2.796-99.019-5.591-204.561-59.179-269.797-137.229-42.404-50.325-72.925-110.901-85.971-170.080-4.194-18.871-7.689-23.997-14.911-21.901-10.019 3.261-11.649 15.61-6.524 50.325 1.864 12.115 3.029 22.6 2.33 23.065-2.796 2.796-15.61-33.783-21.901-62.906-9.785-44.734-14.212-51.024-26.794-38.21z"></path>
<path d="M950.581 426.96c-1.864 3.029-6.524 20.503-10.717 38.909-6.29 29.124-19.105 65.702-21.901 62.906-0.699-0.466 0.466-10.95 2.33-23.065 5.126-34.715 3.495-47.063-6.524-50.325-7.223-2.097-10.717 3.029-14.911 21.901-20.969 95.058-82.71 185.456-165.186 240.907-52.421 35.181-104.844 54.985-171.477 64.77-17.474 2.563-32.152 5.825-35.646 8.155-3.261 2.33-11.416 10.717-17.707 18.639-14.212 17.707-39.375 41.705-49.626 46.83-3.961 2.097-19.338 9.086-34.016 15.144-28.89 12.349-35.181 16.542-35.181 23.997 0 3.261-2.33 6.058-6.756 7.921-3.728 1.631-8.387 6.524-10.717 11.184-3.261 6.756-3.261 9.552-0.932 16.542 2.33 7.455 3.029 7.921 5.126 3.961 3.961-7.223 11.649-10.95 10.251-5.126-0.233 1.631 1.165 2.563 3.029 2.097 27.026-7.223 34.249-7.921 97.854-8.387 78.516-0.699 74.090-0.233 70.361-3.961-1.631-1.631-13.047-3.029-31.22-3.261-15.843-0.233-31.22-1.631-34.482-2.796s-11.882-1.631-19.105-0.932c-7.455 0.466-13.514 0.233-13.514-0.699s2.097-4.194 4.66-7.455c3.261-4.426 3.961-6.756 2.33-8.854-1.864-2.097-0.466-4.66 4.66-9.086l7.455-6.058h-7.921c-4.194 0.233-13.514 2.097-20.503 4.66-17.008 6.058-25.395 5.825-11.649-0.233 14.911-6.524 53.82-33.55 70.595-48.927 7.921-7.223 17.94-14.678 21.901-17.008 10.95-5.591 49.16-15.377 60.11-15.377 5.126 0 23.765-2.563 41.705-5.591 25.629-4.426 32.851-6.29 34.715-9.785 7.689-14.212 34.016-32.152 92.961-63.605l41.005-22.134 6.756-13.979c9.785-20.969 45.665-56.849 66.401-66.634 11.649-5.591 18.173-6.99 26.095-6.524l10.484 0.699-4.194 12.349c-2.33 6.756-7.455 16.309-11.649 21.435-3.961 4.893-7.223 9.552-7.223 10.019 0 1.165 15.144-1.864 23.997-4.426 8.155-2.563 3.961 8.155-8.854 21.901l-12.814 13.979 8.155 1.398c4.426 0.932 8.155 2.33 8.155 3.261s-10.484 8.387-23.299 16.542c-12.814 8.155-23.299 15.843-23.299 16.542 0 0.932 2.33 2.563 5.359 3.261 4.66 1.398 3.961 2.097-6.524 7.455-16.076 8.387-20.503 12.581-17.241 16.309 3.728 4.426 1.165 6.99-11.416 11.649-14.678 5.359-16.076 6.99-11.416 12.115 3.495 3.961 3.728 4.893 0.699 7.223-2.097 1.631-7.689 3.495-12.814 4.194-8.62 1.165-9.086 1.631-6.99 6.99 3.495 9.552 2.796 10.95-15.843 23.299-31.22 20.736-57.315 30.754-79.914 30.987-6.058 0-7.223 0.699-4.66 2.33 8.387 5.359 63.372-0.233 88.535-8.854s60.576-29.356 56.615-33.084c-0.932-0.932-6.756-3.495-12.814-5.825-6.29-2.33-11.184-4.893-11.184-6.058 0-1.864 14.445-5.126 40.772-9.086 9.086-1.398 17.94-3.495 19.571-4.426 5.359-3.495 0.466-6.99-11.649-8.62-14.445-1.864-12.581-3.961 7.223-7.689 32.385-6.29 47.529-18.871 22.833-18.871-6.756 0-14.911-0.699-17.94-1.631-4.66-1.165-3.728-1.864 6.756-4.66 6.756-1.631 20.969-6.524 31.22-10.717 14.911-5.825 18.871-8.387 18.871-12.115 0-4.194-1.398-4.66-12.814-4.194-6.99 0.466-14.212 0.233-16.076-0.466s8.387-8.854 24.464-19.571c37.278-24.696 54.519-42.636 54.519-56.382 0-4.66-14.212-0.699-29.124 7.921-21.901 13.047-37.278 14.678-18.639 2.097 16.775-11.416 81.778-83.176 84.341-92.961 1.631-6.756-2.097-10.019-10.95-10.019-4.426 0-11.882 6.524-31.686 27.259-14.212 15.144-30.288 30.055-35.646 32.851l-9.785 5.591 14.911-18.639c26.794-33.084 62.207-89.234 62.207-98.553 0-5.825-10.717-13.514-16.542-12.115-5.126 1.398-16.542 15.843-38.909 48.461-7.921 11.649-17.008 23.531-20.036 26.56-5.126 4.893-4.66 3.261 3.261-12.814 10.95-21.668 19.338-45.899 25.629-74.322 6.29-29.124 6.058-39.607-1.165-46.597-6.99-7.223-11.649-7.455-16.076-0.699z"></path>
<path d="M228.092 428.591c-6.29 2.33-22.6 9.32-35.88 15.61-29.356 13.746-28.424 14.445 21.201 14.678 33.084 0.233 34.249 0 41.005-5.591 9.32-7.689 10.484-13.979 4.426-20.969-6.99-7.921-16.775-9.086-30.754-3.728z"></path>
<path d="M775.142 428.824c-12.349 5.126-11.416 19.804 2.097 27.959 6.29 3.961 11.416 4.66 29.822 4.426 12.115-0.233 29.589-0.932 38.443-1.864l16.309-1.398-11.649-6.29c-21.901-11.416-56.382-25.162-63.139-24.93-3.728 0-9.086 0.932-11.882 2.097z"></path>
<path d="M239.508 484.974c-14.911 9.32-49.859 35.414-49.859 37.278 0 0.699 2.33 1.165 5.359 0.699 2.796-0.466 16.076-2.563 29.589-4.426 32.618-4.893 41.239-7.689 47.995-15.843 17.008-20.036-7.921-33.55-33.084-17.707z"></path>
<path d="M758.134 480.78c-4.194 2.097-6.058 5.126-6.524 10.484-1.165 10.717 8.854 20.036 25.162 23.531 19.105 4.194 60.809 10.019 61.974 8.854 0.699-0.466-8.155-7.921-19.338-16.309-40.306-29.589-48.228-33.084-61.275-26.56z"></path>
<path d="M277.020 526.678c-8.387 3.261-58.014 55.916-52.888 55.916 4.426 0 50.325-16.775 61.741-22.366 8.155-4.194 12.349-8.155 14.678-13.746 4.194-10.484 4.194-11.882-1.398-17.474-4.893-4.893-13.979-5.825-22.134-2.33z"></path>
<path d="M734.137 527.144c-12.581 4.426-9.552 24.23 4.893 32.618 7.689 4.426 65.935 25.629 67.1 24.464 1.398-1.398-41.937-49.16-48.228-53.121-7.921-5.359-16.309-6.524-23.765-3.961z"></path>
<path d="M307.773 570.945c-5.825 4.66-22.6 29.356-36.811 54.751l-7.689 13.746 8.62-5.126c4.66-2.796 12.581-7.455 17.474-10.251 36.346-21.435 47.063-31.453 47.063-44.734 0-12.581-16.775-17.707-28.657-8.387z"></path>
<path d="M696.859 569.78c-2.33 2.097-3.961 7.455-3.961 12.115 0 6.99 1.864 10.251 10.019 17.94 9.785 9.32 57.78 39.375 59.644 37.278 1.631-1.631-28.424-49.859-37.045-59.644-9.552-10.717-22.366-14.212-28.657-7.689z"></path>
<path d="M353.438 603.564c-4.194 2.33-9.552 8.387-11.882 13.28-6.756 13.047-23.997 63.605-21.901 63.605 1.165 0 13.514-10.95 27.725-24.464 31.453-29.822 36.811-41.471 24.93-53.586-4.893-4.66-10.019-4.426-18.871 1.165z"></path>
<path d="M653.291 605.66c-3.495 6.99-2.796 17.008 2.097 24.93 5.591 9.086 52.189 51.49 53.121 48.461 0.466-1.398-4.194-16.076-10.251-32.618-12.581-34.948-20.503-45.199-34.249-45.199-5.825 0-8.854 1.398-10.717 4.426z"></path>
<path d="M401.201 628.026c-9.32 5.126-14.678 23.997-21.435 75.72l-1.398 10.484 8.155-9.086c4.66-5.126 14.678-18.871 22.833-30.288 12.814-18.871 14.445-22.366 14.445-32.385 0-16.542-8.62-21.901-22.6-14.445z"></path>
<path d="M609.257 628.726c-7.921 6.29-7.455 20.736 0.932 33.55 16.775 25.861 37.278 51.49 37.976 47.762 1.165-5.591-6.058-50.325-10.251-64.304-5.126-17.94-18.173-25.629-28.657-17.008z"></path>
<path d="M449.428 646.433c-7.689 7.921-9.086 18.173-6.756 55.684l2.097 33.084 9.785-18.871c20.969-40.54 25.861-59.411 17.94-70.361-4.893-6.99-15.843-6.756-23.065 0.466z"></path>
<path d="M557.068 645.035c-9.785 10.717-6.29 26.327 15.377 69.196l10.484 20.969 1.631-15.144c0.932-8.387 1.165-27.026 0.699-41.239-0.699-23.765-1.165-26.56-6.29-31.919-6.756-7.223-16.542-7.921-21.901-1.864z"></path>
<path d="M506.976 646.899c-4.66 2.097-9.785 13.979-9.785 22.366 0 8.155 12.581 62.906 15.843 68.731 2.33 4.194 17.008-52.421 17.474-67.799 0.699-16.542-11.184-28.191-23.531-23.299z"></path>
<path d="M674.259 882.447c-14.678 1.398-18.639 3.029-18.639 7.455 0 5.126-6.99 11.882-12.581 11.882-3.261 0-3.961 1.165-2.796 5.591s-0.233 6.99-5.825 11.649c-12.349 10.484-27.026 13.28-81.778 15.61-74.555 3.029-95.99 8.854-106.707 30.055-5.825 11.184-5.825 13.047-0.233 14.678 6.058 1.398 20.503-3.961 32.152-12.115l10.019-7.223v10.484c0 15.61 7.455 15.144 24.23-0.699l11.184-10.95-1.165 9.32c-3.029 19.338 8.155 19.804 26.095 0.932 10.717-11.184 11.184-11.416 10.019-4.893-2.563 18.173 11.416 22.366 25.395 7.455 9.552-10.019 11.416-10.95 11.416-6.29 0 4.194 7.455 10.95 12.349 10.95 1.864 0 7.223-4.426 11.882-9.785l8.387-9.552 4.893 6.058c6.756 8.854 12.814 7.921 24.464-3.961l10.251-10.019 3.495 5.359c2.097 3.029 5.591 5.591 7.921 5.591 5.359 0 15.843-11.882 17.94-20.036 1.631-6.756 5.359-6.99 15.377-0.932 15.61 9.552 25.162 4.426 28.657-14.678 1.165-6.29 2.563-8.155 4.426-6.524 1.398 1.165 7.455 3.495 13.28 4.893 18.639 4.66 33.084-4.893 36.346-24.23l1.398-8.387h-12.115c-6.756 0-27.026-1.631-45.199-3.495-43.102-4.426-54.519-5.126-64.537-4.194z"></path>
</svg>
