<svg xmlns="http://www.w3.org/2000/svg" width="1027" height="1024" viewBox="0 0 1027 1024"><path d="M506.743 65.367c-9.785 39.375-10.25 51.024-2.796 59.18 13.746 14.677 29.59 2.096 27.26-21.902-1.166-12.814-12.116-59.18-15.145-64.77-1.165-1.864-5.126 10.02-9.32 27.492zm-61.508-12.814c-.932 6.058-1.63 24.23-1.63 40.074v29.124l7.92 7.923c9.32 9.32 10.484 9.552 18.406 3.26 12.816-10.018 9.554-26.326-13.977-73.39l-9.32-18.172-1.398 11.185zm129.773 6.99c-22.6 43.8-26.56 61.973-16.076 72.46 6.99 6.99 13.514 6.056 21.435-2.798 7.455-8.155 8.387-17.707 6.058-55.218l-1.864-33.084-9.55 18.64zm-194.31 7.687c0 7.455 6.756 50.79 9.552 62.673 3.03 11.184 13.28 21.668 21.668 21.668 7.92 0 13.746-7.687 13.746-18.17 0-9.786-5.126-19.106-27.026-48.23-18.173-24.23-17.94-23.996-17.94-17.94zm250.46 19.105c-20.27 27.492-26.795 39.14-26.795 48.228 0 9.785 6.058 17.008 13.98 17.008 10.483 0 18.172-8.385 21.9-24.462 4.194-16.542 10.95-62.207 9.552-63.605-.466-.466-8.854 9.785-18.64 22.833zM320.12 97.52c0 3.96 13.746 42.17 21.2 58.245 5.36 11.882 8.156 15.144 14.68 17.94 4.66 1.864 9.32 3.495 10.716 3.495 4.893 0 11.65-9.552 11.65-16.775 0-10.02-8.156-21.2-29.823-40.54C321.75 96.12 320.12 94.723 320.12 97.52zm365.32 19.57c-29.355 27.025-33.316 32.15-33.316 44.033 0 22.6 24.23 20.97 36.113-2.33 5.357-10.484 23.53-63.14 21.9-63.14-.7 0-11.65 9.786-24.697 21.436zM273.29 152.97c14.912 26.326 32.62 51.256 38.677 54.052 7.455 3.495 13.98 3.495 20.036.466 3.26-1.864 4.426-4.893 4.426-12.115 0-8.155-1.4-10.95-8.856-18.173-8.387-7.69-47.296-32.385-57.547-36.346-3.728-1.398-3.03.466 3.26 12.115zm462.245 2.33c-38.443 23.064-46.364 32.15-41.24 47.295 1.865 4.893 3.962 6.29 11.65 6.756 15.144 1.167 21.9-5.823 47.063-49.16 6.756-11.182 11.184-20.27 10.02-20.27-.933 0-13.515 6.99-27.493 15.38zm-243.005.93c-97.62 9.553-178.466 79.216-204.094 175.905-5.36 20.036-6.29 27.96-6.29 57.08s.932 37.046 6.29 57.082c11.184 42.636 31.453 78.284 61.74 108.57 90.4 90.166 233.918 91.797 325.948 3.496 32.385-30.987 51.257-62.44 65.003-107.406 5.825-19.338 6.29-23.997 6.29-61.74 0-37.512-.466-42.405-6.29-61.742-13.047-43.335-34.715-78.982-66.168-108.57-28.426-26.795-58.016-43.802-94.36-54.287-16.543-4.66-62.907-11.65-69.197-10.484-.7.233-9.32 1.165-18.87 2.097zm-268.4 38.444c5.127 9.552 46.598 51.024 53.587 54.053 15.377 6.29 27.96-1.398 24.93-15.377-2.796-12.58-11.65-18.173-53.12-32.618-19.34-6.756-26.795-8.387-25.396-6.058zm549.847 9.32c-33.55 12.58-40.54 16.31-44.966 25.86-4.66 9.785-4.424 11.65 1.167 17.24 6.058 6.06 17.008 6.06 26.794 0 6.29-3.96 36.58-35.413 47.53-49.625 4.66-6.06.7-5.128-30.52 6.522zm-577.337 54.75c18.406 16.543 51.49 37.745 60.576 38.91 24.696 3.495 28.89-23.065 5.126-32.62-4.893-1.862-20.27-5.124-34.25-7.453-14.21-2.095-28.656-4.192-32.617-4.89l-6.99-1.166 8.155 7.223zm604.597-.232c-12.814 2.33-27.26 5.36-32.152 6.99-15.377 5.126-22.833 20.736-13.746 28.89 6.29 5.825 15.375 6.99 23.995 3.26 7.69-3.26 39.84-25.394 54.52-37.51l6.99-5.825h-8.156c-4.427 0-18.64 2.097-31.454 4.194zm-610.89 57.78c-10.716.467-19.337 1.63-19.337 2.797 0 2.33 48.694 25.627 61.51 29.354 25.394 7.455 41.704-14.678 20.968-28.19-6.524-4.427-27.26-5.592-63.14-3.962zm589.92 2.796c-5.36 2.33-11.415 8.854-13.513 14.91-2.097 5.826 10.02 17.94 17.707 17.94 8.157 0 22.6-5.358 51.49-19.337l25.397-12.113-11.416-1.63c-16.31-2.098-64.07-1.865-69.662.232zM194.776 378.5c-17.008 4.193-31.453 8.386-32.152 8.853-1.864 2.097 60.344 16.775 71.76 16.775 22.134.466 31.453-20.736 13.28-30.055-9.32-4.893-17.94-4.194-52.888 4.426zm591.318-5.126c-22.366 8.387-16.542 32.152 7.92 32.152 10.485 0 66.635-13.047 69.664-16.076 1.165-1.165-11.416-5.126-27.96-9.086-38.908-9.086-42.635-9.785-49.625-6.99zM60.343 427.66c-7.224 6.99-7.456 17.473-1.166 46.596 6.29 28.424 14.678 52.655 25.63 74.322 7.92 16.076 8.386 17.707 3.26 12.814-3.03-3.03-12.115-14.91-20.036-26.56-22.364-32.618-33.78-47.063-38.907-48.46-5.825-1.4-16.542 6.29-16.542 12.114 0 9.32 35.415 65.47 62.208 98.553l14.91 18.637-9.784-5.59c-5.36-2.797-21.435-17.708-35.646-32.852-19.804-20.736-27.26-27.26-31.686-27.26-8.853 0-12.58 3.262-10.95 10.02 2.564 9.785 67.567 81.545 84.342 92.96 18.64 12.35 3.26 10.95-18.406-1.863-15.144-9.086-27.026-12.58-27.026-8.155 0 14.91 40.772 47.53 77.35 62.207 6.29 2.33 11.185 5.36 11.185 6.29 0 1.165-10.484 1.165-23.3.466-20.035-1.63-23.298-1.164-23.298 1.865 0 5.36 17.473 12.58 40.54 16.542 29.123 5.126 29.82 6.99 4.66 12.115-8.62 1.864-16.31 3.96-17.01 4.426-3.96 4.194 21.668 12.58 39.375 13.047l8.155.233-10.95 4.66c-6.29 2.563-11.185 6.058-11.185 7.69 0 3.494 13.746 9.085 33.783 13.745l13.98 3.26-10.95 2.797c-6.29 1.63-11.185 3.495-11.185 4.426 0 .7 22.833 11.184 50.558 23.3 54.52 23.53 86.207 32.85 108.806 32.617h14.212l-20.97-5.825c-23.996-6.524-79.68-28.19-99.95-38.91-11.65-6.29-13.047-7.688-9.552-9.784 7.455-4.426 15.144-10.717 15.144-12.58 0-1.166-4.66-2.564-10.485-3.262-5.825-.932-15.843-3.728-22.366-6.524l-11.65-5.126 7.454-6.29c8.387-6.99 8.387-6.99-8.854-12.58-13.28-4.427-15.376-8.156-7.688-14.68 6.29-5.59 5.825-7.222-2.796-9.55-6.99-1.632-7.69-2.797-8.387-11.185-.7-8.854-1.167-9.552-10.72-12.115-5.59-1.398-15.61-6.99-22.6-12.58l-12.58-10.02 20.036-1.398-15.377-16.542c-8.388-9.086-15.145-17.24-15.145-18.406s4.66-2.097 10.484-2.097c8.386 0 10.483-.7 10.483-4.196-.233-5.825-10.02-28.89-16.076-37.51l-5.126-7.224h6.06c3.26 0 7.92.933 10.25 2.33 3.495 1.632 4.66.933 6.99-3.727 2.097-4.893 3.26-5.36 7.455-3.03 10.25 5.36 45.9 43.57 61.974 66.17 24.695 34.947 50.557 57.546 76.185 66.167 20.97 7.455 27.026 11.65 51.257 36.113 13.98 13.746 27.96 25.63 34.482 28.89 10.484 5.126 28.89 8.155 83.875 14.212 23.064 2.563 45.9 9.552 50.79 15.377 1.63 1.864 3.73 3.495 4.66 3.495 1.63 0 13.98-29.124 13.98-32.85 0-.7-10.25-2.098-22.6-2.797-99.02-5.59-204.56-59.18-269.798-137.23-42.404-50.324-72.925-110.9-85.97-170.08-4.195-18.87-7.69-23.996-14.912-21.9-10.018 3.26-11.648 15.61-6.523 50.325 1.864 12.115 3.03 22.6 2.33 23.065-2.796 2.796-15.61-33.783-21.9-62.906-9.786-44.734-14.213-51.024-26.795-38.21z"/><path d="M950.58 426.96c-1.863 3.03-6.523 20.503-10.716 38.91-6.29 29.123-19.105 65.7-21.9 62.905-.7-.466.465-10.95 2.33-23.065 5.125-34.715 3.494-47.063-6.525-50.325-7.225-2.097-10.72 3.03-14.913 21.9-20.97 95.06-82.71 185.457-165.186 240.908-52.42 35.18-104.843 54.985-171.476 64.77-17.474 2.563-32.152 5.825-35.646 8.155-3.262 2.33-11.417 10.717-17.708 18.64-14.212 17.706-39.375 41.704-49.626 46.83-3.96 2.096-19.338 9.085-34.016 15.143-28.89 12.35-35.18 16.544-35.18 24 0 3.26-2.33 6.057-6.757 7.92-3.727 1.63-8.386 6.524-10.716 11.184-3.26 6.756-3.26 9.552-.932 16.542 2.33 7.455 3.03 7.92 5.126 3.96 3.96-7.222 11.65-10.95 10.25-5.125-.232 1.63 1.166 2.564 3.03 2.098 27.026-7.223 34.25-7.92 97.854-8.387 78.516-.7 74.09-.232 70.36-3.96-1.63-1.63-13.046-3.03-31.22-3.26-15.842-.234-31.22-1.63-34.48-2.797s-11.883-1.63-19.106-.932c-7.455.467-13.514.234-13.514-.7s2.097-4.192 4.66-7.453c3.26-4.426 3.96-6.756 2.33-8.854-1.864-2.097-.466-4.66 4.66-9.086l7.455-6.058h-7.922c-4.194.232-13.514 2.096-20.503 4.66-17.008 6.057-25.395 5.824-11.65-.234 14.912-6.524 53.82-33.55 70.596-48.927 7.922-7.224 17.94-14.68 21.902-17.01 10.95-5.59 49.16-15.376 60.11-15.376 5.126 0 23.765-2.563 41.705-5.59 25.63-4.427 32.85-6.29 34.715-9.786 7.69-14.212 34.016-32.152 92.96-63.605l41.006-22.134 6.756-13.98c9.785-20.97 45.665-56.85 66.4-66.634 11.65-5.59 18.174-6.99 26.096-6.524l10.484.7-4.194 12.35c-2.33 6.755-7.455 16.308-11.65 21.434-3.96 4.893-7.222 9.552-7.222 10.02 0 1.164 15.144-1.865 23.997-4.427 8.155-2.564 3.96 8.154-8.854 21.9l-12.814 13.98 8.155 1.397c4.427.932 8.156 2.33 8.156 3.26s-10.484 8.388-23.3 16.543c-12.813 8.155-23.298 15.843-23.298 16.542 0 .932 2.33 2.563 5.358 3.26 4.66 1.4 3.96 2.098-6.524 7.456-16.076 8.387-20.503 12.58-17.24 16.31 3.727 4.425 1.164 6.99-11.417 11.648-14.678 5.36-16.076 6.99-11.416 12.115 3.495 3.96 3.73 4.893.7 7.223-2.098 1.63-7.69 3.495-12.815 4.194-8.62 1.165-9.086 1.63-6.99 6.99 3.495 9.552 2.796 10.95-15.843 23.3-31.22 20.735-57.315 30.753-79.914 30.986-6.06 0-7.224.7-4.66 2.33 8.386 5.36 63.37-.233 88.534-8.854S849 816.98 845.04 813.253c-.933-.932-6.757-3.495-12.815-5.825-6.29-2.33-11.184-4.895-11.184-6.06 0-1.864 14.447-5.126 40.774-9.086 9.086-1.398 17.94-3.495 19.57-4.426 5.36-3.496.467-6.99-11.648-8.62-14.445-1.865-12.58-3.962 7.223-7.69 32.384-6.29 47.53-18.87 22.832-18.87-6.755 0-14.91-.7-17.94-1.632-4.66-1.165-3.727-1.864 6.757-4.66 6.755-1.63 20.97-6.524 31.22-10.717 14.91-5.825 18.87-8.387 18.87-12.115 0-4.194-1.398-4.66-12.814-4.194-6.99.467-14.212.234-16.076-.465s8.387-8.854 24.464-19.57c37.278-24.697 54.52-42.637 54.52-56.383 0-4.66-14.213-.7-29.125 7.92-21.9 13.048-37.28 14.68-18.64 2.098 16.775-11.415 81.78-83.175 84.34-92.96 1.63-6.756-2.097-10.02-10.95-10.02-4.426 0-11.882 6.525-31.686 27.26-14.212 15.144-30.288 30.055-35.646 32.85l-9.785 5.592 14.91-18.64c26.795-33.083 62.208-89.233 62.208-98.552 0-5.825-10.716-13.514-16.54-12.115-5.127 1.398-16.543 15.843-38.91 48.46-7.92 11.65-17.008 23.532-20.036 26.56-5.126 4.894-4.66 3.262 3.26-12.813 10.95-21.668 19.34-45.9 25.63-74.322 6.29-29.124 6.058-39.607-1.165-46.597-6.99-7.223-11.65-7.455-16.077-.7zm-722.488 1.63c-6.29 2.33-22.6 9.32-35.88 15.61-29.356 13.747-28.424 14.446 21.2 14.68 33.085.232 34.25 0 41.006-5.592 9.32-7.69 10.484-13.98 4.426-20.97-6.99-7.92-16.775-9.085-30.754-3.727zm547.05.234c-12.35 5.126-11.416 19.804 2.097 27.96 6.29 3.96 11.414 4.66 29.82 4.425 12.115-.235 29.59-.934 38.443-1.866l16.31-1.398-11.65-6.29c-21.9-11.416-56.382-25.162-63.14-24.93-3.727 0-9.085.932-11.88 2.097zm-535.634 56.15c-14.91 9.32-49.86 35.414-49.86 37.278 0 .7 2.33 1.165 5.36.7 2.796-.467 16.076-2.564 29.59-4.427 32.617-4.893 41.238-7.69 47.994-15.843 17.008-20.036-7.92-33.55-33.084-17.707z"/><path d="M758.134 480.78c-4.194 2.097-6.058 5.126-6.524 10.484-1.165 10.717 8.854 20.036 25.162 23.53 19.105 4.195 60.81 10.02 61.974 8.855.7-.468-8.155-7.923-19.338-16.31-40.306-29.59-48.228-33.085-61.275-26.56zM277.02 526.678c-8.387 3.26-58.014 55.916-52.888 55.916 4.426 0 50.325-16.775 61.74-22.366 8.156-4.194 12.35-8.155 14.68-13.746 4.193-10.484 4.193-11.882-1.4-17.474-4.892-4.893-13.978-5.825-22.133-2.33zm457.117.466c-12.58 4.426-9.552 24.23 4.893 32.618 7.69 4.426 65.935 25.63 67.1 24.464 1.398-1.398-41.937-49.16-48.228-53.12-7.92-5.36-16.31-6.525-23.765-3.962zm-426.364 43.8c-5.825 4.66-22.6 29.357-36.81 54.75l-7.69 13.748 8.62-5.126c4.66-2.796 12.58-7.455 17.474-10.25 36.346-21.436 47.063-31.454 47.063-44.735 0-12.58-16.775-17.705-28.657-8.385zm389.087-1.164c-2.33 2.097-3.962 7.455-3.962 12.115 0 6.99 1.864 10.25 10.02 17.94 9.784 9.32 57.78 39.375 59.643 37.278 1.633-1.63-28.422-49.86-37.043-59.644-9.552-10.72-22.366-14.214-28.657-7.69zm-343.422 33.784c-4.194 2.33-9.552 8.387-11.882 13.28-6.756 13.047-23.997 63.605-21.9 63.605 1.164 0 13.513-10.95 27.724-24.466 31.453-29.822 36.81-41.47 24.93-53.586-4.893-4.66-10.02-4.427-18.87 1.164zm299.852 2.096c-3.494 6.99-2.795 17.008 2.098 24.93 5.59 9.086 52.19 51.49 53.12 48.46.467-1.397-4.193-16.075-10.25-32.617-12.58-34.948-20.503-45.2-34.25-45.2-5.824 0-8.853 1.4-10.716 4.427zM401.2 628.026c-9.32 5.126-14.677 23.997-21.434 75.72l-1.398 10.484 8.155-9.086c4.66-5.126 14.678-18.87 22.833-30.288 12.814-18.87 14.445-22.366 14.445-32.385 0-16.54-8.62-21.9-22.6-14.443zm208.057.7c-7.92 6.29-7.455 20.736.932 33.55 16.773 25.86 37.276 51.49 37.974 47.762 1.165-5.59-6.058-50.325-10.25-64.304-5.127-17.94-18.174-25.63-28.658-17.008zm-159.83 17.707c-7.69 7.92-9.085 18.173-6.755 55.684l2.097 33.084 9.783-18.87c20.97-40.54 25.86-59.41 17.94-70.36-4.893-6.99-15.843-6.756-23.065.466zm107.64-1.398c-9.784 10.717-6.29 26.327 15.378 69.196l10.484 20.97 1.63-15.143c.93-8.387 1.164-27.026.7-41.24-.7-23.764-1.167-26.56-6.29-31.918-6.758-7.224-16.544-7.92-21.903-1.865zm-50.09 1.865c-4.66 2.096-9.786 13.978-9.786 22.365 0 8.155 12.583 62.906 15.845 68.73 2.33 4.195 17.008-52.42 17.474-67.798.7-16.542-11.185-28.19-23.53-23.3zM674.26 882.447c-14.68 1.398-18.64 3.03-18.64 7.455 0 5.126-6.99 11.882-12.58 11.882-3.262 0-3.962 1.165-2.797 5.59s-.233 6.99-5.825 11.65c-12.35 10.484-27.026 13.28-81.778 15.61-74.555 3.03-95.99 8.854-106.707 30.055-5.825 11.182-5.825 13.045-.233 14.676 6.058 1.398 20.503-3.96 32.152-12.115l10.02-7.222v10.483c0 15.61 7.454 15.145 24.23-.7l11.183-10.95-1.165 9.32c-3.03 19.34 8.155 19.806 26.095.934 10.717-11.184 11.184-11.416 10.02-4.893-2.564 18.174 11.415 22.367 25.394 7.456 9.55-10.02 11.414-10.95 11.414-6.29 0 4.194 7.455 10.95 12.35 10.95 1.863 0 7.222-4.426 11.88-9.785l8.388-9.55 4.893 6.06c6.756 8.852 12.814 7.92 24.464-3.963l10.25-10.02 3.495 5.36c2.097 3.03 5.59 5.59 7.92 5.59 5.36 0 15.844-11.88 17.94-20.035 1.632-6.756 5.36-6.99 15.378-.932 15.61 9.553 25.162 4.427 28.657-14.677 1.166-6.29 2.564-8.155 4.427-6.524 1.398 1.163 7.455 3.493 13.28 4.89 18.64 4.66 33.084-4.892 36.346-24.23l1.398-8.386h-12.113c-6.756 0-27.026-1.63-45.2-3.495-43.1-4.427-54.518-5.127-64.536-4.195z"/></svg>