<?xml version="1.0" encoding="utf-8"?>
<!-- Generated by IcoMoon.io -->
<!DOCTYPE svg PUBLIC "-//W3C//DTD SVG 1.1//EN" "http://www.w3.org/Graphics/SVG/1.1/DTD/svg11.dtd">
<svg version="1.1" xmlns="http://www.w3.org/2000/svg" xmlns:xlink="http://www.w3.org/1999/xlink" width="1024" height="1024" viewBox="0 0 1024 1024"><g id="icomoon-ignore">
</g>
<path d="M513.191 19.008c2.138 25.659-1.9 58.209-13.305 109.052-5.227 23.284-10.217 48.943-10.929 57.021l-1.663 14.493-2.851-16.631c-1.663-9.265-4.752-33.737-6.89-54.645-4.277-43.241-9.503-65.811-21.145-88.62-7.603-14.968-27.085-39.677-24.234-30.649 9.265 29.461 11.167 65.098 7.603 145.403l-2.138 49.893-6.89-20.195c-3.802-11.167-10.217-33.499-14.017-49.656-8.078-32.074-16.869-55.358-27.085-71.513-7.127-11.404-31.599-38.014-34.687-38.014-0.95 0 0.95 6.177 4.277 13.542 10.217 23.284 16.869 55.12 22.095 106.677 2.851 27.322 5.94 53.932 7.127 59.159s2.138 10.454 2.138 11.879c0 5.227-17.107-28.035-29.699-57.733-21.145-49.656-37.064-72.939-63.198-92.183-17.107-12.355-20.907-13.305-14.017-2.851 17.582 26.847 28.035 53.694 43.241 111.903 6.415 24.472 13.305 48.468 15.205 53.219s3.088 9.028 2.613 9.503c-1.425 1.425-26.61-33.737-42.528-59.871-23.521-38.251-52.744-65.811-83.393-78.403l-9.028-3.802 6.415 7.84c25.659 31.599 38.727 54.407 60.822 105.488 6.415 15.443 16.156 36.113 21.145 45.854l9.265 17.819-16.631-16.631c-9.265-9.028-25.422-26.372-36.113-38.727-32.312-37.301-60.109-57.258-91.946-65.574-7.127-1.9-13.067-3.088-13.305-2.851-0.475 0.238 5.227 5.465 12.355 11.167 7.127 5.94 18.769 17.582 26.134 26.134 12.592 14.968 18.294 22.809 56.308 80.78 9.979 14.968 19.957 29.936 22.333 33.262 5.465 7.365-15.68-7.127-43.479-29.699-31.362-26.134-46.567-37.064-61.298-44.429-15.443-7.84-45.379-16.156-58.209-16.156h-8.315l13.305 8.078c30.174 18.057 50.131 36.589 96.46 89.57 13.305 15.205 27.085 29.461 30.411 31.837 3.327 2.138 5.702 4.514 4.99 4.99-1.663 1.663-31.837-13.78-61.535-31.599-30.411-18.294-53.219-28.272-75.078-32.787-18.294-4.039-40.389-4.514-45.616-1.188-3.088 1.9-3.088 2.375 0 2.375 6.415 0 46.567 21.145 64.148 33.737 9.742 6.89 31.124 23.759 47.517 37.539 16.394 13.542 34.45 27.56 40.152 31.362 5.94 3.564 9.979 6.652 9.028 6.652-4.277 0-44.191-13.78-69.613-23.996-15.918-6.415-36.113-13.305-45.141-15.443-19.72-4.752-55.12-5.227-69.85-0.95l-10.692 3.088 20.907 5.465c25.184 6.89 47.517 16.394 73.651 31.599 50.131 28.986 70.088 40.152 77.216 43.003 4.277 1.663 7.365 3.327 6.89 3.802-1.425 1.425-53.694-7.84-75.315-13.305-28.035-7.127-70.088-9.028-89.57-4.039-8.078 2.138-18.769 5.702-23.759 7.84l-9.028 4.039 19.244 1.9c29.699 2.851 56.783 10.217 100.262 27.322 21.858 8.79 47.279 18.294 56.308 21.382l16.631 5.702-43.954-1.9c-24.234-0.95-54.407-1.425-66.999-1.188-32.074 0.475-65.098 9.979-81.492 23.284-4.514 3.564-3.564 3.564 14.255 2.375 25.184-2.138 58.209 1.9 104.538 12.355 20.907 4.752 46.567 9.742 57.021 11.167l19.007 2.851-27.322 4.039c-14.968 2.138-39.677 4.99-54.645 6.415-32.549 3.088-56.308 9.028-77.928 19.957-14.968 7.603-39.677 27.085-30.649 24.234 29.461-9.265 65.098-11.167 145.403-7.603l49.893 2.138-20.195 6.89c-11.167 3.802-33.499 10.217-49.656 14.017-32.074 8.078-55.358 16.869-71.513 27.085-11.404 7.127-38.014 31.599-38.014 34.687 0 0.95 6.177-0.95 13.78-4.277 23.046-10.217 54.883-16.869 106.439-22.095 27.322-2.851 53.932-5.94 59.159-7.127s10.692-2.375 11.879-2.375c5.227 0-25.659 16.156-57.971 30.174-52.269 22.809-72.464 36.589-92.183 63.198-12.117 16.869-12.83 20.432-2.375 13.78 26.61-17.582 53.457-28.035 111.665-43.241 24.472-6.415 48.468-13.305 53.219-15.205s9.028-3.088 9.503-2.613c1.425 1.425-33.737 26.61-59.871 42.528-38.251 23.521-65.811 52.744-78.403 83.393l-3.802 9.028 7.84-6.415c31.599-25.659 54.407-38.727 105.488-60.822 15.443-6.415 36.113-16.156 45.854-21.145l17.819-9.265-16.631 16.631c-9.028 9.265-26.372 25.422-38.727 36.113-37.301 32.312-57.258 60.109-65.574 91.946-1.9 7.127-3.088 13.067-2.851 13.305 0.238 0.475 5.465-5.227 11.167-12.355 5.94-7.127 17.582-18.769 26.134-26.134 14.968-12.592 22.809-18.294 80.78-56.308 14.968-9.979 29.936-19.957 33.262-22.333 7.365-5.465-7.127 15.68-29.699 43.479-26.134 31.362-37.064 46.567-44.429 61.298-7.84 15.443-16.156 45.379-16.156 58.209v8.315l8.553-14.255c17.582-29.461 31.599-44.666 80.78-87.907 19.72-17.344 37.776-34.45 39.914-37.776 2.375-3.564 4.752-5.94 5.227-5.227 1.663 1.663-13.78 31.837-29.936 58.684-18.532 30.649-24.709 43.479-30.649 62.961-5.702 18.294-8.79 47.042-6.415 57.258 1.663 5.94 2.375 5.227 9.503-11.404 13.542-30.886 25.897-49.181 66.524-98.123 13.067-15.68 26.61-33.262 30.411-38.964 3.564-5.94 6.652-9.979 6.652-9.265 0 4.277-11.642 38.251-22.809 66.286-6.89 17.819-14.493 39.677-16.631 48.706-4.752 19.72-5.227 55.12-0.95 69.85l3.088 10.692 5.465-20.907c6.89-25.184 16.394-47.517 31.599-73.651 28.986-50.131 40.152-70.088 43.003-77.216 1.663-4.277 3.327-7.365 3.802-6.89 1.425 1.425-7.84 53.694-13.305 75.315-7.127 28.035-9.028 70.088-4.039 89.57 2.138 8.078 5.702 18.769 7.84 23.759l4.039 9.028 1.9-19.244c2.851-29.699 10.217-56.783 27.322-100.262 8.79-21.858 18.294-47.279 21.382-56.308l5.702-16.631-1.9 43.954c-0.95 24.234-1.425 54.407-1.188 66.999 0.475 32.074 9.979 65.098 23.284 81.492 3.564 4.514 3.564 3.564 2.375-14.255-2.138-25.184 1.9-58.209 12.355-104.538 4.752-20.907 9.742-46.567 11.167-57.021l2.851-19.007 4.039 27.322c2.138 14.968 4.99 39.677 6.415 54.645 3.088 32.549 9.028 56.308 19.957 77.928 7.603 14.968 27.085 39.677 24.234 30.649-9.265-29.461-11.167-65.098-7.603-145.403l2.138-49.893 6.89 20.195c3.802 11.167 10.217 33.499 14.017 49.656 8.078 32.074 16.869 55.358 27.085 71.513 7.127 11.404 31.599 38.014 34.687 38.014 0.95 0-0.95-6.177-4.277-13.78-10.217-23.046-16.869-54.883-22.095-106.439-2.851-27.322-5.94-53.932-7.127-59.159s-2.138-10.692-2.138-11.879c0-5.227 17.107 28.035 29.699 57.733 21.145 49.656 37.064 72.939 63.198 92.183 17.107 12.355 20.907 13.305 14.017 2.613-17.582-26.61-28.035-53.457-43.241-111.665-6.415-24.472-13.305-48.468-15.205-53.219s-3.088-9.028-2.613-9.503c1.425-1.425 26.61 33.737 42.528 59.871 23.521 38.251 52.744 65.811 83.393 78.403l9.028 3.802-6.415-7.84c-25.659-31.599-38.727-54.407-60.822-105.488-6.415-15.443-16.156-36.113-21.145-45.854l-9.265-17.819 16.631 16.631c9.265 9.028 25.422 26.372 36.113 38.727 32.312 37.301 60.109 57.258 91.946 65.574 7.127 1.9 13.067 3.088 13.305 2.851 0.475-0.238-5.227-5.465-12.355-11.167-7.127-5.94-18.769-17.582-26.134-26.134-12.592-14.968-18.294-22.809-56.308-80.78-9.979-14.968-19.957-29.936-22.333-33.262-5.465-7.365 15.68 7.127 43.479 29.699 31.362 26.134 46.567 37.064 61.298 44.429 15.443 7.84 45.379 16.156 58.209 16.156h8.315l-13.305-8.078c-30.174-18.057-50.131-36.589-96.46-89.57-13.305-15.205-27.085-29.461-30.411-31.837-3.327-2.138-5.702-4.514-4.99-4.99 1.663-1.663 31.837 13.78 58.684 29.936 30.649 18.532 43.479 24.709 62.961 30.649 18.294 5.702 47.042 8.79 57.258 6.415 5.94-1.663 5.227-2.375-11.404-9.503-30.886-13.542-49.181-25.897-98.123-66.524-15.68-13.067-33.262-26.61-38.964-30.411-5.94-3.564-9.979-6.652-9.265-6.652 4.277 0 38.251 11.642 66.286 22.809 17.819 6.89 39.677 14.493 48.706 16.631 19.72 4.752 55.12 5.227 69.85 0.95l10.692-3.088-20.907-5.465c-25.184-6.89-47.517-16.394-73.651-31.599-50.131-28.986-70.088-40.152-77.216-43.003-4.277-1.663-7.365-3.327-6.89-3.802 1.425-1.425 53.694 7.84 75.315 13.305 28.035 7.127 70.088 9.028 89.57 4.039 8.078-2.138 18.769-5.702 23.759-7.84l9.028-4.039-19.244-1.9c-29.699-2.851-56.783-10.217-100.262-27.322-21.858-8.79-47.042-18.294-56.308-21.382l-16.631-5.702 43.954 1.9c24.234 0.95 54.407 1.425 66.999 1.188 32.074-0.475 65.098-9.979 81.492-23.284 4.514-3.564 3.564-3.564-14.255-2.375-25.659 2.138-58.209-1.9-109.052-13.305-23.284-5.227-48.943-10.217-57.021-10.929l-14.493-1.663 16.631-2.851c9.265-1.663 33.737-4.752 54.645-6.89 43.241-4.277 65.811-9.503 88.62-21.145 14.968-7.603 39.677-27.085 30.649-24.234-29.461 9.265-65.098 11.167-145.403 7.603l-49.893-2.138 20.195-6.89c11.167-3.802 33.499-10.217 49.656-14.017 32.074-8.078 55.358-16.869 71.513-27.085 11.404-7.127 38.014-31.599 38.014-34.687 0-0.95-6.177 0.95-13.542 4.277-23.284 10.217-55.12 16.869-106.677 22.095-27.322 2.851-53.932 5.94-59.159 7.127s-10.454 2.375-11.879 2.375c-5.227 0 25.659-16.156 57.971-30.174 52.269-22.809 72.464-36.589 92.183-63.198 12.117-16.869 12.83-20.432 2.613-13.78-26.847 17.582-53.694 28.035-111.903 43.241-24.472 6.415-48.468 13.305-53.219 15.205s-9.028 3.088-9.503 2.613c-1.425-1.425 33.737-26.61 59.871-42.528 38.251-23.521 65.811-52.744 78.403-83.393l3.802-9.028-7.84 6.415c-31.599 25.659-54.407 38.727-105.488 60.822-15.443 6.415-36.113 16.156-45.854 21.145l-17.819 9.265 16.631-16.631c9.028-9.265 26.372-25.422 38.727-36.113 37.301-32.312 57.258-60.109 65.574-91.946 1.9-7.127 3.088-13.067 2.851-13.305-0.238-0.475-5.465 5.227-11.167 12.355-5.94 7.127-17.582 18.769-26.134 26.134-14.968 12.592-22.809 18.294-80.78 56.308-14.968 9.979-29.936 19.957-33.262 22.333-7.365 5.465 7.127-15.68 29.699-43.479 26.134-31.362 37.064-46.567 44.429-61.298 7.84-15.443 16.156-45.379 16.156-58.209v-8.315l-8.078 13.305c-18.057 30.174-36.589 50.131-89.57 96.46-15.205 13.305-29.461 27.085-31.837 30.411-2.138 3.327-4.514 5.702-4.99 4.99-1.663-1.663 13.78-31.837 31.599-61.535 18.294-30.411 28.272-53.219 32.787-75.078 4.039-18.294 4.514-40.389 1.188-45.616-1.9-3.088-2.375-3.088-2.375 0 0 6.415-21.145 46.567-33.737 64.148-6.89 9.742-23.759 31.124-37.539 47.517-13.542 16.394-27.56 34.45-31.362 40.152-3.564 5.94-6.652 9.979-6.652 9.028 0-4.277 13.78-44.191 23.996-69.613 6.415-15.918 13.305-36.113 15.443-45.141 4.752-19.72 5.227-55.12 0.95-69.85l-3.088-10.692-5.465 20.907c-6.89 25.184-16.394 47.517-31.599 73.651-28.986 50.131-40.152 70.088-43.003 77.216-1.663 4.277-3.327 7.365-3.802 6.89-1.425-1.425 7.84-53.694 13.305-75.315 7.127-28.035 9.028-70.088 4.039-89.57-2.138-8.078-5.702-18.769-7.84-23.759l-4.039-9.028-1.9 19.244c-2.851 29.699-10.217 56.783-27.322 100.262-8.79 21.858-18.294 47.042-21.382 56.308l-5.702 16.631 1.9-43.954c0.95-24.234 1.425-54.407 1.188-66.999-0.475-32.074-9.979-65.098-23.284-81.492-3.564-4.514-3.564-3.564-2.375 14.255zM574.964 211.453c120.694 26.847 211.689 118.318 238.061 239.249 5.94 27.797 5.94 94.797 0 122.594-16.869 76.503-61.298 144.69-123.307 188.881-33.024 23.521-80.305 43.716-121.882 51.794-24.947 4.99-92.183 4.277-117.13-0.95-76.265-16.631-144.69-61.298-188.881-123.307-23.521-33.024-43.716-80.305-51.794-121.882-4.277-22.095-4.277-89.57 0-111.665 25.422-129.722 127.346-227.607 258.018-248.278 20.195-3.088 86.957-0.95 106.914 3.564z"></path>
<path d="M462.11 243.527c-29.461 6.177-58.446 17.582-81.017 31.599l-19.957 12.117 26.134 2.851c42.528 4.514 96.698 17.582 117.842 28.51 5.702 2.851 8.553 2.375 28.986-4.99 38.727-13.78 91.946-24.947 120.694-24.947h10.454l-5.94-4.752c-9.742-7.84-46.804-26.134-64.861-32.312-38.727-13.305-93.134-16.631-132.336-8.078z"></path>
<path d="M336.665 308.388c-2.851 3.088-5.227 6.177-5.227 6.89s9.265 1.9 20.907 2.851c27.085 2.138 59.871 9.028 89.333 19.007l23.759 8.315 9.265-5.465 9.265-5.702-19.957-7.127c-31.837-11.404-68.188-19.244-107.864-23.046-12.83-1.188-14.73-0.713-19.482 4.277z"></path>
<path d="M654.555 305.538c-27.322 3.088-53.219 9.028-80.78 17.819-33.024 10.692-33.737 11.167-22.333 17.107l9.265 4.752 27.56-9.265c28.747-9.503 75.078-18.769 95.035-18.769 13.067 0 14.017-1.663 6.177-9.028-5.94-5.702-7.603-5.702-34.925-2.613z"></path>
<path d="M311.718 335.711c-4.514 4.752-4.277 4.99 4.752 6.415 33.024 4.99 64.623 12.117 85.768 19.244l24.472 8.315 7.365-4.514c8.078-5.227 9.742-4.277-21.382-14.968-23.759-8.078-57.258-15.443-80.066-17.582-14.968-1.425-17.107-1.188-20.907 3.088z"></path>
<path d="M673.561 334.998c-31.599 5.465-80.305 19.482-86.243 24.947-0.95 0.95 0.95 3.564 4.514 5.94 6.415 4.039 6.89 4.039 31.837-4.514 26.372-8.79 66.524-18.057 79.353-18.057 10.692 0 14.968-3.327 11.167-8.078-3.802-4.514-15.443-4.514-40.627-0.238z"></path>
<path d="M721.079 356.856c-27.085 3.564-93.609 22.333-99.073 27.797-0.713 0.713 9.979 12.117 23.521 25.659 46.329 45.616 84.343 104.538 104.3 161.558 1.663 4.99 3.802 8.315 4.752 7.127 5.465-5.465 12.117-42.053 13.305-72.464 1.9-49.181-5.227-84.818-26.134-127.109-10.692-21.858-12.355-23.521-20.67-22.571z"></path>
<path d="M290.097 367.547c-28.986 49.656-40.864 118.555-29.699 172.963 4.514 21.858 9.979 40.627 11.642 38.727 0.95-0.95 4.039-8.315 7.127-16.156 22.571-58.446 60.584-114.754 106.202-157.995 11.167-10.454 19.957-19.482 19.482-19.957-1.425-1.188-32.549-12.355-46.092-16.631-14.73-4.752-46.804-10.929-55.833-10.929-5.702 0-8.078 1.9-12.83 9.979z"></path>
<path d="M413.168 419.817c-50.131 48.468-84.343 103.112-105.25 167.261-14.017 43.003-14.017 42.766-2.138 59.159l9.979 14.017 5.465-26.134c15.443-74.127 50.368-139.463 104.063-195.533l27.085-28.035-9.503-5.227-9.503-5.465-20.195 19.957z"></path>
<path d="M581.616 405.323c-4.277 2.851-7.84 5.227-7.84 5.702s7.127 7.603 15.68 15.918c57.258 54.645 99.549 130.672 114.992 206.225 2.613 12.83 4.752 23.996 4.752 24.947 0 1.9 8.79-8.553 16.156-19.244l4.99-7.365-5.702-21.62c-15.68-58.684-43.716-112.379-83.63-160.133-14.493-17.344-47.042-49.418-50.368-49.418-0.713 0-4.99 2.375-9.028 4.99z"></path>
<path d="M468.524 436.21c-4.752 3.802-16.869 16.869-26.847 28.986-51.794 61.773-82.68 132.811-90.758 209.076l-1.9 18.532 9.503 6.89c5.227 4.039 10.217 7.127 10.929 7.127 0.95 0 2.375-9.028 3.327-20.195 6.177-82.68 43.003-166.31 99.311-225.707 16.394-17.344 18.532-20.67 15.918-23.996-6.652-7.84-10.454-8.078-19.482-0.713z"></path>
<path d="M540.038 434.547l-6.415 5.702 4.99 4.277c10.692 9.503 39.439 43.954 50.606 60.347 35.876 53.694 56.308 110.952 63.198 176.289 1.188 13.542 2.851 24.709 3.327 25.184s5.227-2.138 10.454-5.702c11.167-8.078 11.642-11.404 6.415-43.954-12.83-78.166-47.517-148.966-100.737-204.324-12.355-13.067-23.046-23.521-23.996-23.521-0.713 0-4.277 2.613-7.84 5.702z"></path>
<path d="M501.311 471.848c-57.258 61.060-89.808 139.701-95.272 229.984l-1.663 25.422 11.879 5.227c34.45 14.73 81.967 21.858 119.981 17.582 26.61-2.851 54.169-9.503 71.751-16.869l10.929-4.752v-23.284c0-81.017-35.876-170.112-94.085-233.309l-11.642-12.592-11.879 12.592z"></path>
</svg>
