<?xml version="1.0" encoding="utf-8"?>
<!-- Generated by IcoMoon.io -->
<!DOCTYPE svg PUBLIC "-//W3C//DTD SVG 1.1//EN" "http://www.w3.org/Graphics/SVG/1.1/DTD/svg11.dtd">
<svg version="1.1" xmlns="http://www.w3.org/2000/svg" xmlns:xlink="http://www.w3.org/1999/xlink" width="1024" height="1024" viewBox="0 0 1024 1024"><g id="icomoon-ignore">
</g>
<path d="M504.54 12.93c-1.407 2.814-3.377 8.444-4.222 12.385-1.126 4.222-6.474 10.977-11.822 14.919-6.193 4.785-12.947 14.355-18.014 25.052-6.756 15.481-21.955 32.932-28.147 32.932-1.407 0-5.63 4.785-9.57 10.696-5.348 8.444-10.696 12.103-23.643 16.889-21.673 7.881-37.718 24.77-32.088 34.059 1.407 2.252 5.067 1.407 13.51-3.096 9.852-5.348 12.947-5.911 27.585-3.377l16.607 2.533 4.785 22.518c6.756 32.088 3.096 35.466-23.080 21.11-8.444-4.503-16.889-8.444-18.859-8.444s-12.103 5.067-22.236 11.259l-18.577 11.259 12.385 5.348 12.103 5.63-13.792 6.193c-7.881 3.377-17.452 6.193-21.673 6.474-9.007 0.281-9.57 2.252-3.377 11.54 4.222 6.474 4.222 7.037-0.563 8.726-16.326 5.911-40.532 18.014-40.532 20.266 0 1.689 10.414 4.222 23.362 6.193 19.703 2.814 25.614 2.814 39.969-0.844 9.289-2.533 23.643-5.348 31.525-6.474 14.355-1.689 14.919-1.689 17.733 5.911 4.503 11.54 9.852 48.976 7.319 51.228-0.844 1.126-5.63-0.281-9.852-2.814-9.007-5.348-24.207-6.474-27.022-1.97-3.096 4.785-18.296 3.096-29.836-3.377-13.51-7.6-22.799-4.222-29.836 10.414-5.348 11.259-9.852 12.103-21.955 4.222-11.54-7.6-20.829-7.037-29.836 1.689-4.222 3.94-13.792 10.414-21.392 14.073-9.007 4.222-11.54 6.474-7.6 6.756 9.57 0 23.925 5.911 22.799 9.57-1.407 4.222-18.014 9.852-30.68 9.852-7.6 0.281-19.422 5.348-42.784 18.577-37.718 21.673-41.376 25.052-33.777 30.962 8.163 6.193 12.385 5.067 14.355-4.503 1.97-10.414 7.6-13.229 14.637-7.037 6.193 5.63 11.259 5.63 18.296 0.281 3.096-2.533 11.54-4.222 19.14-4.222 8.444 0 18.296-2.252 25.333-5.911 10.977-5.63 12.103-5.63 23.080-1.407 10.977 4.503 11.822 4.222 19.422-1.407 5.067-3.659 10.414-5.348 14.073-4.222 35.747 9.007 40.813 11.259 42.502 18.859 0.844 4.222 2.252 10.977 3.377 15.2 1.97 7.881 1.689 7.881-8.726 6.193-9.007-1.407-11.259-0.563-18.296 6.756-7.6 8.444-8.163 8.444-14.919 4.222-9.289-6.193-18.577-3.659-35.185 9.852-7.037 6.193-15.2 10.977-17.452 10.977-2.533 0-10.414-3.659-17.733-8.444l-13.229-8.444-3.377 7.037-3.096 7.037-4.222-5.911c-3.94-5.911-4.222-5.63-17.452 7.319l-13.229 13.229-5.63-7.6-5.348-7.6-10.414 16.044c-11.259 16.889-17.17 21.11-22.518 15.763-5.63-5.63-10.696-3.377-30.399 12.666-16.889 13.792-24.77 21.673-16.889 16.607 2.814-1.689 60.798-12.666 67.272-12.666 5.911 0-36.029 34.059-48.695 39.688l-11.259 5.067 12.103 1.97c14.919 2.252 16.326 4.785 9.289 14.637-4.503 6.474-7.319 7.881-14.355 6.756-5.911-0.844-11.822 0.844-19.14 5.911-5.63 3.94-15.481 7.881-21.673 9.007-18.296 3.096-26.74 8.726-26.74 18.296 0 11.259 9.289 14.073 19.422 5.911 3.94-3.377 12.666-8.726 19.14-11.54 9.57-4.503 13.229-5.067 19.703-2.533 4.503 1.689 12.666 2.252 19.14 1.126 6.193-1.126 16.326-2.533 22.236-3.096 6.193-0.563 16.607-3.096 23.362-5.63 12.666-5.067 20.547-2.533 20.547 6.474 0 3.096 3.659 3.377 19.14 1.97 15.763-1.689 19.985-3.096 24.77-9.289 5.911-6.756 6.756-7.037 16.326-3.659 9.007 3.377 11.259 3.096 17.17-0.563 3.659-2.533 7.6-4.503 8.444-4.503 0.563 0 7.319 8.726 14.355 19.422 12.385 18.859 12.666 19.985 8.444 26.177-2.533 3.377-4.503 10.133-4.503 14.919 0 9.57-4.222 15.481-11.54 15.481-2.533 0-10.696 2.533-18.014 5.911-11.259 5.067-15.2 5.348-25.052 3.096-21.392-5.63-24.77-5.911-31.525-3.377-3.94 1.689-6.756 5.067-6.756 8.163 0 7.319-7.6 13.51-11.822 9.289-5.348-5.348-7.6-3.94-10.133 5.63-2.533 10.133-9.007 14.637-28.429 19.422-6.756 1.689-15.2 6.193-18.577 9.852-3.94 4.222-7.319 5.911-8.444 3.94-0.844-1.407-11.822-2.814-25.333-2.814-23.362 0-23.925 0.281-33.495 9.852-11.259 11.259-14.637 10.977-30.68-3.377-5.63-5.067-11.54-9.289-12.947-9.289-3.659 0-14.355 13.792-14.355 18.296 0 1.97 4.222 4.222 9.289 5.067 4.785 0.563 16.889 4.222 26.459 7.881 14.637 5.63 18.296 6.193 23.925 3.096 6.193-3.377 8.444-2.533 25.896 9.007 24.207 16.326 31.243 16.607 45.036 1.689 11.822-12.947 14.637-13.51 29.836-5.63s21.11 7.037 36.873-4.503c12.385-9.007 14.355-9.57 23.362-7.037 9.007 2.252 11.259 1.689 21.673-6.193 6.474-5.067 14.073-10.696 16.607-12.666 4.503-3.096 5.348-2.252 8.163 9.852 4.785 18.296 14.355 34.059 29.273 48.132 16.326 14.637 44.755 29.273 53.48 27.303 3.377-1.126 10.133 0.281 14.637 2.533 4.785 2.533 11.822 4.503 15.763 4.503 10.696 0 20.547 9.007 27.866 25.614 5.067 12.385 5.911 18.577 5.067 39.125-0.844 21.392-1.689 25.333-8.444 33.213-3.94 4.785-8.163 12.666-9.289 17.452-1.407 6.193-3.94 9.007-9.852 10.414-4.222 1.407-12.666 8.163-18.577 15.763-10.696 13.51-19.703 18.577-56.013 32.088-13.51 5.067-18.296 8.726-18.296 14.355 0 3.377 4.503 3.94 31.806 1.97 20.547-1.126 32.932-3.377 36.029-5.911 5.911-5.348 9.289-5.067 15.2 1.689 6.756 7.319 36.31 8.163 44.192 1.126 3.94-3.94 5.63-4.222 9.289-1.126s5.63 2.533 11.259-2.814l7.037-6.474 5.911 7.319c7.319 9.57 12.947 9.57 17.17 0.844l3.096-7.037 4.785 5.911c3.94 5.067 5.63 5.348 10.977 2.533 4.785-2.533 8.444-2.814 14.919-0.563 16.044 5.63 48.976 1.407 56.013-7.037 5.911-7.037 23.080-4.785 31.525 3.94 7.319 7.6 8.726 7.881 22.799 5.911 8.163-1.126 17.733-3.377 21.392-5.348 4.785-2.533 7.881-2.252 15.763 1.407 5.348 2.533 17.733 4.503 28.429 4.785 29.273 0.844 36.592-3.377 31.525-17.17-2.252-5.348-3.377-5.911-6.756-3.096-4.785 3.94-13.51-1.126-40.251-23.925-11.822-10.133-16.326-12.385-21.955-10.977-8.726 2.252-18.014-5.348-18.014-14.919 0-6.756-9.57-27.866-21.673-47.006-6.474-10.133-7.037-12.666-5.067-32.369 3.659-38.843 13.792-54.888 45.036-71.494 21.11-11.259 46.725-32.088 50.102-41.376 1.407-3.659 2.252-3.659 5.348 0.563 1.97 2.533 5.63 8.444 8.444 12.947 7.037 12.947 15.481 16.889 41.376 19.703 22.518 2.252 23.925 1.97 31.806-4.503l7.881-6.756 18.296 9.289c15.481 8.163 18.859 9.007 23.080 5.911 13.792-9.57 17.733-10.133 31.243-5.067 40.532 15.763 84.724 20.547 106.116 11.822 5.067-2.252 11.822-3.377 14.637-2.814s9.57-1.407 14.919-4.785l9.852-6.193-9.007-3.096c-4.785-1.689-9.852-3.94-10.977-5.348-1.126-1.126-8.163-1.97-15.481-1.97-16.326 0-27.022-3.659-36.592-12.947l-7.037-6.756-9.289 11.259c-4.785 6.193-10.133 11.259-11.259 11.259-1.407 0-5.067-7.881-8.726-17.17l-6.193-17.452-15.763 1.689c-13.51 1.407-16.889 0.844-21.955-3.94s-7.319-5.348-11.822-2.814c-9.57 5.067-13.792 3.659-22.236-8.163-6.756-9.57-9.007-10.977-15.481-9.57-6.474 1.126-9.852-0.563-19.14-10.133-8.163-8.444-12.947-11.259-16.326-9.852-9.57 3.94-12.947 2.533-22.236-10.696l-9.852-13.229h7.319c3.94 0 11.54 1.97 16.889 4.503 7.319 3.659 11.54 3.94 17.733 1.97 6.474-2.533 9.289-1.97 14.637 2.252 5.067 4.222 7.6 4.785 10.414 2.252 5.63-4.503 24.77-1.407 43.629 7.319 8.726 3.94 33.495 11.54 54.606 17.17 34.059 8.726 40.251 9.57 50.946 7.037 6.756-1.689 20.829-3.096 31.525-3.096 12.103 0 21.11-1.407 24.77-3.94 8.726-6.756 1.126-10.696-24.77-12.947-12.947-1.126-28.992-4.222-36.029-6.474-7.037-2.533-19.703-6.474-28.147-8.726-8.444-2.533-17.452-5.911-19.703-7.319-6.193-4.222 1.407-9.289 26.177-16.889 11.259-3.659 21.392-7.319 22.518-8.444s-7.881-5.348-20.547-9.57l-22.799-7.319-10.977 8.726c-10.696 8.444-11.54 8.726-16.326 4.503-6.474-5.911-18.296-6.193-23.080-0.844-2.533 3.377-4.785 3.659-10.133 1.126-7.037-3.377-10.133-1.689-13.229 7.319-1.689 5.067-7.319-1.407-14.073-16.326-8.444-18.014-22.236-28.429-42.784-32.369-9.289-1.689-16.044-5.067-20.266-9.852-9.289-10.977-26.459-10.414-34.622 1.407-5.63 7.881-7.319 8.444-17.17 6.756-11.259-1.97-13.51-1.126-39.969 14.073-7.319 4.222-14.073 7.037-14.919 6.193-1.97-1.689 10.133-81.346 12.666-84.161 1.126-1.407 9.57-3.096 18.859-3.94 15.2-1.689 18.577-0.844 34.059 7.037 9.57 4.785 18.014 9.852 19.14 11.54 2.814 4.785 6.474 3.096 8.163-3.94 2.814-10.977 9.57-10.977 27.303-0.563 17.17 10.133 19.422 9.57 19.422-5.067 0-6.193 0.563-6.474 16.326-3.94 8.726 1.126 21.955 4.222 29.273 6.474s21.11 4.222 30.962 4.222c11.54 0 21.955 1.97 29.836 5.63 14.073 6.193 14.073 5.911 0.563-11.822-9.289-12.666-10.696-13.229-23.362-13.51-15.2 0-19.422-1.97-37.999-16.044-11.54-8.726-14.355-9.57-25.052-8.163-11.54 1.407-12.385 1.126-18.577-8.163-4.785-7.6-7.6-9.289-12.666-7.881-9.57 2.252-18.577-1.126-31.525-11.822s-18.577-12.103-27.022-5.63c-8.726 6.756-15.2 5.348-15.481-3.659 0-7.6-0.281-7.6-3.096-1.407-4.222 8.726-12.385 8.163-18.014-1.407-2.533-4.222-8.444-13.229-12.947-19.985s-7.6-12.666-7.037-13.51c0.844-0.563 10.696 3.377 21.955 9.007 19.14 9.852 21.11 10.133 30.962 7.037 5.911-1.97 14.637-2.814 19.703-1.689 7.319 1.407 9.852 0.563 13.229-4.222 3.94-5.63 5.911-5.911 26.459-4.503 17.17 1.407 21.955 1.126 21.955-1.97 0-2.533 4.503-3.659 15.481-3.659 12.385 0 16.326 1.126 21.392 6.474 7.037 7.6 10.977 8.726 10.977 2.814 0-4.503-16.326-19.422-27.585-25.333-4.222-1.97-13.51-4.503-20.829-5.63s-13.792-3.659-14.637-5.911c-0.844-2.252-5.067-4.222-9.289-4.222-10.977 0-14.637-3.096-23.080-18.577-8.444-15.763-16.607-18.577-31.243-10.977-11.54 5.911-20.829 3.659-28.71-7.037-6.193-8.444-14.355-10.977-17.733-5.63-3.096 5.067-9.852 2.814-11.54-3.94-0.844-3.94-3.94-9.007-6.756-11.54-4.785-4.503-5.911-4.503-14.355-0.281-5.067 2.533-9.852 4.503-10.977 4.503-1.407 0 18.577-63.332 21.11-66.991 0.281-0.281 11.259 1.97 24.207 5.067 49.539 11.822 78.531 2.533 43.91-14.355-8.726-4.222-15.2-10.696-22.799-22.518-5.911-9.289-12.103-17.452-13.51-18.296-1.407-1.126-12.947 3.096-25.052 8.726-12.385 5.911-23.362 9.852-24.207 8.726-2.533-2.533 3.377-13.792 13.229-25.052 9.289-10.696 9.289-16.044 0-16.044-2.814 0-7.037-2.252-9.007-5.067-5.63-7.881-10.133-9.57-16.044-6.474-3.94 2.252-6.193 1.97-9.007-1.407-8.163-9.852-13.229-10.133-34.059-1.126-21.392 9.007-28.992 10.133-31.806 5.63-1.689-2.814 2.252-29.273 7.319-48.132l2.533-10.133 14.637 3.659c8.163 2.252 23.925 3.94 34.903 3.94h20.266l-17.452-18.014c-9.289-9.852-21.673-20.266-27.022-22.799-5.348-2.814-12.666-7.6-16.044-10.696-7.6-6.756-23.643-38.28-31.806-62.488-8.726-25.333-23.925-37.718-30.399-24.77zM528.747 167.459l-0.844 27.303-12.666 3.659c-6.756 1.97-12.947 3.096-13.51 2.533-0.844-0.563 1.407-13.229 4.785-27.585 4.785-21.11 7.319-27.022 12.385-29.555 3.377-1.689 7.319-3.096 8.444-3.096 1.126-0.281 1.689 11.822 1.407 26.74zM481.46 147.474c9.289 4.785 9.57 6.756 6.474 38.562-1.407 17.733-2.252 19.14-8.163 19.14-3.659 0-7.881-2.252-9.289-5.067-4.503-8.444-14.637-51.228-12.947-54.043 2.533-4.222 14.637-3.377 23.925 1.407zM520.303 283.144c-0.844 12.103-1.97 24.489-1.97 27.585-0.281 5.067-1.97 5.63-13.51 5.63l-13.51-0.281-1.97-15.481c-4.503-37.999-4.222-38.28 20.266-38.843l12.947-0.281-2.252 21.673zM467.105 283.707c3.096 9.007 5.911 20.547 5.911 25.614 0 8.163-0.563 9.007-6.756 7.319-5.067-1.126-9.289 0.281-15.481 5.63l-8.726 7.319v-9.57c0-5.067-2.252-17.733-5.067-28.147l-5.348-18.577 11.54-2.814c6.474-1.407 12.947-2.814 14.637-3.096 1.689 0 5.911 7.037 9.289 16.326zM575.472 284.27c-0.281 3.659-2.252 16.607-4.222 28.429-4.222 24.207-7.037 26.459-21.11 17.17-7.037-4.503-7.319-5.348-5.348-23.080 0.844-10.133 2.252-22.518 3.096-27.303l1.689-8.726 12.947 3.377c11.259 3.096 13.229 4.503 12.947 10.133zM634.3 280.893c1.97 1.97-15.2 54.888-18.859 58.546-0.563 0.563-5.067-0.844-9.852-3.377-10.133-5.067-10.977-12.103-5.63-43.065l3.096-18.014 14.637 1.689c7.881 1.126 15.481 3.096 16.607 4.222zM460.349 408.4c0.844 5.067 1.97 16.889 2.252 26.177l0.563 16.889-14.919-0.281c-8.444-0.281-16.044-1.689-17.452-2.814-1.126-1.407-3.096-9.57-3.94-18.014l-1.689-15.481 11.822-7.6c16.326-10.414 21.392-10.133 23.362 1.126zM509.607 410.37c6.756 5.067 8.726 10.696 12.666 37.718l1.689 13.51-12.947-10.133c-7.319-5.348-15.481-9.852-18.577-9.852-6.474 0-7.037-1.689-9.289-23.643l-1.689-16.326 10.414 1.689c5.911 1.126 13.792 4.222 17.733 7.037zM568.153 416.844c8.726 5.348 9.007 6.193 9.007 23.643v18.014l-11.259 5.63c-16.044 8.163-18.859 7.319-20.829-6.474-6.474-46.725-5.911-51.509 6.193-48.413 4.222 0.844 11.822 4.503 16.889 7.6zM628.67 423.599c22.518 5.63 22.518 5.63 15.2 13.51-3.377 3.659-9.007 9.852-12.666 14.073-3.659 3.94-11.259 8.444-16.889 10.133-18.577 5.067-18.859 4.785-19.422-17.17-0.281-11.259 0-21.392 0.844-22.518 2.252-3.659 13.792-3.096 32.932 1.97zM633.456 561.803c0 15.763-4.222 50.946-7.037 60.235-1.126 3.377-4.785 4.503-14.355 4.222l-12.947-0.281 1.689-12.385c0.844-6.756 1.689-24.207 1.689-38.562v-26.177l13.51-1.126c7.319-0.563 14.073-1.126 15.481-1.407 1.126-0.281 1.97 6.756 1.97 15.481zM578.005 575.876c1.97 36.029-0.281 49.821-8.444 50.946-3.377 0.563-9.852-1.126-14.637-3.659-10.133-5.067-10.414-8.726-4.222-35.185 9.007-39.406 9.007-39.406 17.733-39.406h7.881l1.689 27.303zM523.399 559.552c6.193 4.785 6.756 6.474 4.785 21.673-3.096 26.459-4.222 28.71-17.452 35.466-6.756 3.377-12.947 5.348-13.792 4.785-2.533-2.533-9.852-34.903-9.852-43.347 0.281-6.756 2.533-9.852 12.103-16.044 14.073-9.289 15.481-9.289 24.207-2.533zM443.742 570.81c1.407 1.407 6.193 3.096 10.696 3.659 8.163 0.844 8.444 1.407 13.229 26.177 7.6 38.843 3.94 44.192-21.955 32.651-13.229-6.193-16.326-13.51-19.422-46.162l-1.97-18.859h8.444c4.503 0 9.289 1.126 10.977 2.533zM337.908 574.751c0 1.126 14.355 1.126 31.806 0.281l32.088-1.97 1.689 13.51c1.126 7.319 1.97 20.547 1.97 29.555 0 15.763 0 15.763-7.6 14.919-4.503-0.563-12.385 1.407-17.733 4.222-9.57 5.348-9.852 5.348-22.236-1.126-14.073-7.6-19.985-8.444-25.333-3.377-3.096 2.814-3.94 2.814-5.067 0.281-0.563-1.97-8.726-15.2-17.733-29.555-9.57-15.481-15.2-27.022-13.51-27.866 4.222-2.533 41.658-1.689 41.658 1.126zM601.086 725.902c1.97 3.377-12.666 53.48-15.763 53.48-4.222 0-17.17-25.333-18.577-36.029-1.407-10.414-1.126-11.259 9.289-15.481 12.666-5.067 22.518-5.911 25.052-1.97zM659.070 747.294c2.252 2.814 0 7.037-9.007 16.607-12.103 13.229-27.303 25.333-29.273 23.643-1.126-1.407 3.659-47.006 5.911-54.043 1.407-4.503 2.814-4.222 15.481 2.533 7.6 4.222 15.2 9.289 16.889 11.259zM380.411 745.605c7.037 0 7.6 1.126 9.289 16.044 0.844 9.007 2.533 22.518 3.377 30.399 1.689 13.792 1.689 14.073-3.659 9.007-3.096-2.533-8.163-4.785-11.54-4.785-7.881 0-10.696-6.193-13.229-26.74-1.126-9.289-2.533-19.422-3.377-22.236-1.126-4.503-0.281-5.067 5.067-3.659 3.659 1.126 10.133 1.97 14.073 1.97z"></path>
</svg>
