<svg xmlns="http://www.w3.org/2000/svg" width="912" height="1024" viewBox="0 0 912 1024"><path d="M435.795 11.056c-9.53 6.48-24.78 13.344-33.93 15.63C327.143 46.513 276.82 117.422 276.82 202.82c0 51.086 22.112 139.152 54.136 217.686l15.63 36.98-16.01 20.206c-37.742 47.655-120.852 158.213-163.17 216.542L122.04 757.52l-19.062-6.863c-10.293-4.194-19.062-7.244-19.825-7.244-1.525 0-77.01 153.258-77.01 156.308 0 3.813 88.828 41.937 131.526 57.186 152.112 52.992 319.474 67.097 480.355 40.03 45.75-8.006 113.99-25.543 156.307-40.03 42.698-15.25 131.526-53.373 131.526-57.185 0-3.05-75.486-156.306-77.01-156.306-.764 0-9.532 3.05-19.826 7.245l-19.062 6.86-45.367-63.284c-42.317-58.33-125.427-168.888-163.17-216.542l-16.01-20.206 15.63-36.98c32.025-78.535 54.137-166.6 54.137-217.686 0-85.397-50.323-156.307-125.045-176.13-9.15-2.288-24.78-9.15-34.693-15.632C465.15 4.956 456.382 0 455.238 0c-.763 0-9.53 4.956-19.443 11.056zM394.24 235.223l-31.64 31.642h51.466v113.61l-17.537 19.442c-9.533 10.675-19.064 19.443-20.588 19.443-5.337 0-33.55-76.628-43.842-118.564-4.955-21.35-11.055-52.23-13.343-68.623-11.056-79.68 24.78-146.394 88.828-165.456l16.01-4.575 1.144 70.53.76 70.91-31.26 31.64zm136.483-157.07c47.655 27.83 71.672 86.923 62.523 154.02-2.287 16.394-8.387 47.274-13.344 68.624-10.293 41.936-38.505 118.564-43.842 118.564-1.525 0-11.056-8.767-20.586-19.44l-17.537-19.444v-113.61h51.467L486.5 203.964v-142.2l14.488 3.81c7.624 1.907 20.968 7.625 29.736 12.582zm-345.018 739.6c26.306 8.77 28.974 10.675 33.55 23.255 2.668 7.244 4.193 14.105 3.43 14.487-2.287 1.906-49.942 17.537-50.704 16.393-.38-.38-4.954-12.962-9.53-27.45-4.955-14.867-9.53-28.973-10.674-31.64-2.287-6.482.763-6.1 33.93 4.955zm521.912 19.062c2.67 5.337 4.194 9.912 3.43 10.675s-10.674 8.387-21.73 17.537c-11.056 9.15-22.112 15.63-24.78 14.487-2.287-.763-10.293-9.53-16.774-19.062l-12.58-17.156 29.735-7.624c38.124-9.912 36.6-9.912 42.698 1.143zM332.1 864.263c3.81 6.862 6.1 13.344 5.336 13.725-4.194 3.05-43.08 17.92-47.273 17.92-2.67 0-7.624-6.482-10.675-14.488-3.43-7.624-8.387-20.206-11.437-27.45l-6.1-13.724 31.644 5.718c29.736 4.956 32.024 6.1 38.505 18.3zm266.1-4.193c4.194 5.336 6.48 10.292 5.718 10.674-5.337 4.575-57.185 33.167-57.948 32.024-.763-.38-7.624-10.675-15.25-22.112l-13.725-20.968 33.167-4.194c18.68-2.287 35.455-4.575 37.36-4.575 2.288-.383 6.863 3.81 10.676 9.15zm-123.902 6.1c2.287 2.286 4.575 6.1 4.575 8.768 0 5.718-72.053 34.31-76.247 30.118-1.525-1.906-8.387-13.344-15.25-25.543l-12.58-22.492 47.272 2.67c25.924 1.526 49.56 4.576 52.23 6.48zm270.677 19.823l15.63 20.206-27.448 8.385c-15.25 4.194-30.12 8.006-33.55 8.006-5.718 0-21.35-18.3-17.92-20.585.764-.38 11.057-8.77 23.256-18.68 12.58-9.912 22.874-17.92 23.637-17.92.38 0 8.006 9.15 16.393 20.587zm-497.13 20.97c5.336 13.343 9.53 24.78 8.768 25.923-.763.763-17.156-2.67-36.217-7.244-31.26-7.624-35.074-9.53-38.505-18.68-3.43-10.293-3.43-10.675 23.638-19.825 15.25-5.337 28.593-8.387 29.736-6.862 1.143 1.143 6.862 13.344 12.58 26.686zm388.86 4.572c8.006 10.675 12.962 20.968 11.056 22.492-1.524 1.906-18.3 5.718-37.36 8.387l-34.31 5.337-8.006-11.435-8.387-11.818 29.355-16.01c16.01-9.15 29.736-16.394 30.88-16.394s8.77 8.77 16.774 19.443zm-267.628 15.25c7.623 13.344 13.343 24.78 12.96 25.543-.762.38-17.536-.763-36.98-3.43-36.216-4.195-45.366-8.77-45.366-22.493 0-4.194 8.007-9.912 24.02-16.01 12.96-5.338 25.16-9.532 27.45-9.15 1.904.762 9.91 11.817 17.917 25.542zm143.725-1.906c8.77 14.103 15.25 25.922 14.487 27.065-1.144.763-22.113 2.67-47.274 3.812l-45.368 2.287-8.387-12.962c-4.193-7.244-6.86-14.105-5.336-15.63 2.67-2.67 69.004-29.356 73.578-29.737 1.525 0 9.53 11.437 18.3 25.16z"/></svg>