<?xml version="1.0" encoding="utf-8"?>
<!-- Generated by IcoMoon.io -->
<!DOCTYPE svg PUBLIC "-//W3C//DTD SVG 1.1//EN" "http://www.w3.org/Graphics/SVG/1.1/DTD/svg11.dtd">
<svg version="1.1" xmlns="http://www.w3.org/2000/svg" xmlns:xlink="http://www.w3.org/1999/xlink" width="912" height="1024" viewBox="0 0 912 1024"><g id="icomoon-ignore">
</g>
<path d="M435.795 11.056c-9.531 6.481-24.78 13.344-33.93 15.631-74.722 19.825-125.045 90.734-125.045 176.131 0 51.086 22.112 139.152 54.136 217.686l15.631 36.98-16.011 20.206c-37.742 47.655-120.852 158.213-163.169 216.542l-45.367 63.285-19.062-6.862c-10.293-4.194-19.062-7.244-19.825-7.244-1.525 0-77.010 153.257-77.010 156.307 0 3.812 88.828 41.936 131.526 57.185 152.114 52.992 319.476 67.097 480.357 40.030 45.749-8.006 113.989-25.543 156.307-40.030 42.698-15.25 131.526-53.373 131.526-57.185 0-3.050-75.485-156.307-77.010-156.307-0.763 0-9.531 3.050-19.825 7.244l-19.062 6.862-45.367-63.285c-42.317-58.33-125.427-168.888-163.169-216.542l-16.011-20.206 15.631-36.98c32.024-78.535 54.136-166.6 54.136-217.686 0-85.397-50.323-156.307-125.045-176.131-9.15-2.287-24.78-9.15-34.693-15.631-10.293-6.1-19.062-11.056-20.206-11.056-0.763 0-9.531 4.956-19.443 11.056zM394.241 235.223l-31.642 31.642h51.467v113.609l-17.537 19.443c-9.531 10.675-19.062 19.443-20.586 19.443-5.337 0-33.549-76.628-43.842-118.564-4.956-21.349-11.056-52.229-13.344-68.623-11.056-79.679 24.78-146.394 88.828-165.456l16.011-4.575 1.143 70.529 0.763 70.91-31.261 31.642zM530.723 78.154c47.655 27.83 71.672 86.922 62.523 154.020-2.287 16.393-8.387 47.273-13.344 68.623-10.293 41.936-38.505 118.564-43.842 118.564-1.525 0-11.056-8.769-20.586-19.443l-17.537-19.443v-113.609h51.467l-62.903-62.903v-142.201l14.487 3.812c7.624 1.906 20.968 7.624 29.736 12.581zM185.705 817.751c26.306 8.769 28.974 10.675 33.549 23.255 2.669 7.244 4.194 14.105 3.431 14.487-2.287 1.906-49.942 17.537-50.704 16.393-0.381-0.381-4.956-12.962-9.531-27.449-4.956-14.868-9.531-28.974-10.675-31.642-2.287-6.481 0.763-6.1 33.93 4.956zM707.617 836.813c2.669 5.337 4.194 9.912 3.431 10.675s-10.675 8.387-21.731 17.537c-11.056 9.15-22.112 15.631-24.78 14.487-2.287-0.763-10.293-9.531-16.774-19.062l-12.581-17.156 29.736-7.624c38.124-9.912 36.599-9.912 42.698 1.143zM332.099 864.263c3.812 6.862 6.1 13.344 5.337 13.725-4.194 3.050-43.080 17.919-47.273 17.919-2.669 0-7.624-6.481-10.675-14.487-3.431-7.624-8.387-20.206-11.437-27.449l-6.1-13.725 31.642 5.718c29.736 4.956 32.024 6.1 38.505 18.299zM598.202 860.069c4.194 5.337 6.481 10.293 5.718 10.675-5.337 4.575-57.185 33.167-57.948 32.024-0.763-0.381-7.624-10.675-15.25-22.112l-13.725-20.968 33.167-4.194c18.68-2.287 35.455-4.575 37.361-4.575 2.287-0.381 6.862 3.812 10.675 9.15zM474.3 866.169c2.287 2.287 4.575 6.1 4.575 8.769 0 5.718-72.053 34.311-76.247 30.118-1.525-1.906-8.387-13.344-15.25-25.543l-12.581-22.492 47.273 2.669c25.924 1.525 49.561 4.575 52.229 6.481zM744.977 885.993l15.631 20.206-27.449 8.387c-15.25 4.194-30.118 8.006-33.549 8.006-5.718 0-21.349-18.299-17.919-20.586 0.763-0.381 11.056-8.769 23.255-18.68 12.581-9.912 22.874-17.919 23.637-17.919 0.381 0 8.006 9.15 16.393 20.586zM247.846 906.962c5.337 13.344 9.531 24.78 8.769 25.924-0.763 0.763-17.156-2.669-36.217-7.244-31.261-7.624-35.074-9.531-38.505-18.68-3.431-10.293-3.431-10.675 23.637-19.825 15.25-5.337 28.593-8.387 29.736-6.862 1.143 1.143 6.862 13.344 12.581 26.686zM636.707 911.535c8.006 10.675 12.962 20.968 11.056 22.492-1.525 1.906-18.299 5.718-37.361 8.387l-34.311 5.337-8.006-11.437-8.387-11.818 29.355-16.011c16.011-9.15 29.736-16.393 30.88-16.393s8.769 8.769 16.774 19.443zM369.079 926.785c7.624 13.344 13.344 24.78 12.962 25.543-0.763 0.381-17.537-0.763-36.98-3.431-36.217-4.194-45.367-8.769-45.367-22.492 0-4.194 8.006-9.912 24.018-16.011 12.962-5.337 25.161-9.531 27.449-9.15 1.906 0.763 9.912 11.818 17.919 25.543zM512.805 924.879c8.769 14.105 15.25 25.924 14.487 27.067-1.143 0.763-22.112 2.669-47.273 3.812l-45.367 2.287-8.387-12.962c-4.194-7.244-6.862-14.105-5.337-15.631 2.669-2.669 69.004-29.355 73.578-29.736 1.525 0 9.531 11.437 18.299 25.161z"></path>
</svg>
