<?xml version="1.0" encoding="utf-8"?>
<!-- Generated by IcoMoon.io -->
<!DOCTYPE svg PUBLIC "-//W3C//DTD SVG 1.1//EN" "http://www.w3.org/Graphics/SVG/1.1/DTD/svg11.dtd">
<svg version="1.1" xmlns="http://www.w3.org/2000/svg" xmlns:xlink="http://www.w3.org/1999/xlink" width="1024" height="1024" viewBox="0 0 1024 1024"><g id="icomoon-ignore">
</g>
<path d="M478.319 76.798c-38.4 49.178-57.938 83.537-71.41 130.695-16.168 55.916-14.82 142.822 2.694 195.37 17.516 51.199 14.147 56.59-4.715 6.737-30.315-81.516-31.664-174.484-3.369-245.221 9.433-24.253 9.433-26.947-6.063-53.895l-16.168-28.295-14.147 33.010c-39.073 90.947-37.727 189.306 4.715 278.906 10.105 21.559 17.516 39.073 16.168 39.073-0.673 0-16.168-10.778-33.685-24.926-50.526-38.4-110.485-63.326-181.222-74.779-35.031-5.39-65.347-8.757-67.367-6.737-2.021 2.694 1.348 11.453 6.737 20.884 9.433 13.474 18.863 16.841 55.241 20.884 67.367 6.737 153.6 41.769 204.799 83.537 10.105 8.085-4.715 3.369-34.358-11.453-66.022-31.664-106.443-41.094-183.244-41.094-59.284 0-93.642 5.39-134.063 21.559l-18.863 6.737 22.232 41.769c43.115 81.516 132.042 149.558 222.317 169.095 39.073 8.757 39.748 8.757 14.147 9.433-51.199 1.348-130.020-28.967-181.222-69.389-18.863-14.82-32.337-20.211-45.812-18.863-26.274 3.369-20.884 12.799 26.947 49.853 78.148 59.284 175.832 82.19 268.127 64.001 60.632-12.799 108.464-34.358 153.6-69.389l31.664-24.926 31.664 24.926c125.978 98.359 296.423 100.38 421.728 5.39 47.833-37.052 53.22-46.485 26.947-49.853-13.474-1.348-26.947 4.042-45.812 18.863-51.199 40.421-130.020 70.737-181.222 69.389-25.601-0.673-24.926-0.673 14.147-9.433 90.274-19.538 179.201-87.578 222.317-169.095l22.232-41.769-18.863-6.737c-40.421-16.168-74.779-21.559-135.411-21.559-74.106 0-129.347 12.799-189.306 43.79-37.727 20.211-41.094 20.884-23.58 6.063 45.812-38.4 134.063-74.106 202.779-80.842 34.358-3.369 44.464-7.412 53.22-20.211 5.39-8.757 10.105-17.516 10.105-20.211 0-6.063-79.494 3.369-121.264 15.495-47.158 12.799-97.011 38.4-132.717 66.695-15.495 12.799-28.967 22.905-30.989 22.905-1.348 0 4.715-14.147 12.799-32.337 44.464-90.274 47.833-194.021 8.757-284.969l-14.82-33.685-16.168 28.295c-15.495 26.947-15.495 29.643-5.39 54.568 17.516 45.137 24.926 112.506 16.841 162.358-6.737 44.464-32.337 122.612-37.727 117.221-1.348-1.348 2.021-13.474 7.412-26.947 26.947-64.001 25.601-163.706-3.369-240.506-14.147-37.052-76.8-127.999-92.295-132.717-4.042-1.348-20.211 12.799-35.706 32.337z"></path>
<path d="M466.192 646.064c-74.106 51.199-107.789 58.611-292.38 61.98l-159.664 2.694 10.778 16.168c10.105 16.168 10.778 16.168 139.453 16.168 70.737 0 150.231-3.369 175.832-6.737 46.485-6.737 113.852-33.685 151.579-60.632l19.538-14.147 36.379 23.58c73.431 47.158 103.747 53.22 281.6 56.59l158.316 2.694 11.453-16.841 10.778-16.841-159.664-2.694c-184.589-3.369-216.926-10.778-295.075-62.653-24.926-16.841-45.137-29.643-45.812-29.643 0 0.673-19.538 14.147-43.115 30.315z"></path>
<path d="M70.74 783.496c6.063 9.433 876.466 9.433 882.529 0 2.694-4.715-146.189-6.737-441.263-6.737s-443.959 2.021-441.263 6.737z"></path>
<path d="M131.372 837.389c12.126 13.474 20.884 13.474 380.631 13.474s368.505 0 380.631-13.474c12.126-13.474 11.453-13.474-380.631-13.474s-392.758 0-380.631 13.474z"></path>
<path d="M195.37 881.179c0 1.348 12.126 9.433 26.947 16.841 24.926 12.799 39.073 13.474 289.684 13.474s264.758-0.673 289.684-13.474c14.82-7.412 26.947-15.495 26.947-16.841 0-2.021-142.147-3.369-316.633-3.369s-316.633 1.348-316.633 3.369z"></path>
<path d="M339.541 945.853c108.464 35.031 236.464 35.031 344.927 0l39.748-12.799h-424.422l39.748 12.799z"></path>
</svg>
