<svg xmlns="http://www.w3.org/2000/svg" width="1024" height="1024" viewBox="0 0 1024 1024"><path d="M478.32 76.798c-38.4 49.178-57.94 83.537-71.41 130.695-16.17 55.916-14.82 142.822 2.693 195.37 17.516 51.2 14.147 56.59-4.715 6.737-30.315-81.516-31.664-174.484-3.37-245.22 9.434-24.254 9.434-26.948-6.062-53.896L379.288 82.19 365.14 115.2c-39.072 90.946-37.726 189.305 4.716 278.905 10.105 21.56 17.516 39.073 16.168 39.073-.673 0-16.168-10.778-33.685-24.926-50.528-38.4-110.487-63.326-181.224-74.78-35.03-5.39-65.347-8.756-67.367-6.736-2.02 2.694 1.347 11.453 6.736 20.884 9.433 13.474 18.863 16.84 55.24 20.884 67.368 6.737 153.6 41.77 204.8 83.537 10.105 8.087-4.715 3.37-34.358-11.45-66.023-31.665-106.444-41.095-183.245-41.095-59.284 0-93.642 5.39-134.063 21.56L0 427.79l22.23 41.77c43.116 81.515 132.043 149.557 222.318 169.094 39.073 8.757 39.748 8.757 14.147 9.433-51.2 1.348-130.02-28.967-181.222-69.39-18.863-14.82-32.337-20.21-45.812-18.862-26.272 3.37-20.882 12.8 26.95 49.853 78.147 59.284 175.83 82.19 268.126 64 60.632-12.798 108.464-34.357 153.6-69.388L512 579.374l31.663 24.926c125.978 98.36 296.423 100.38 421.728 5.39 47.835-37.052 53.22-46.485 26.95-49.853-13.475-1.348-26.948 4.042-45.813 18.863-51.2 40.42-130.02 70.737-181.222 69.39-25.6-.674-24.926-.674 14.147-9.434 90.275-19.538 179.202-87.578 222.318-169.095l22.23-41.767-18.863-6.737c-40.42-16.168-74.78-21.56-135.41-21.56-74.107 0-129.348 12.8-189.307 43.79-37.727 20.212-41.094 20.885-23.58 6.064 45.812-38.4 134.063-74.107 202.78-80.843 34.357-3.37 44.463-7.412 53.22-20.21 5.39-8.758 10.104-17.517 10.104-20.212 0-6.063-79.494 3.37-121.264 15.495-47.158 12.8-97.01 38.4-132.717 66.695-15.495 12.8-28.967 22.905-30.99 22.905-1.347 0 4.716-14.147 12.8-32.337 44.464-90.274 47.833-194.02 8.757-284.97L644.71 82.19l-16.168 28.294c-15.495 26.947-15.495 29.643-5.39 54.568 17.516 45.137 24.926 112.506 16.84 162.358-6.736 44.464-32.336 122.612-37.726 117.22-1.348-1.347 2.02-13.473 7.412-26.946 26.947-64 25.6-163.706-3.37-240.506-14.146-37.052-76.8-128-92.294-132.717-4.042-1.346-20.21 12.8-35.706 32.34z"/><path d="M466.192 646.064c-74.106 51.2-107.79 58.61-292.38 61.98l-159.664 2.694 10.778 16.168c10.105 16.168 10.778 16.168 139.453 16.168 70.735 0 150.23-3.37 175.83-6.737 46.485-6.737 113.852-33.685 151.58-60.632l19.537-14.147 36.38 23.58c73.43 47.158 103.746 53.22 281.6 56.59l158.315 2.694 11.453-16.84 10.778-16.842-159.664-2.694c-184.59-3.37-216.927-10.778-295.076-62.653-24.926-16.84-45.137-29.643-45.812-29.643 0 .673-19.538 14.147-43.115 30.315zM70.74 783.496c6.063 9.433 876.466 9.433 882.53 0 2.693-4.715-146.19-6.737-441.264-6.737s-443.96 2.02-441.263 6.735zm60.632 53.894c12.126 13.473 20.884 13.473 380.63 13.473s368.506 0 380.632-13.474c12.126-13.476 11.453-13.476-380.63-13.476s-392.76 0-380.632 13.474zm63.998 43.79c0 1.347 12.126 9.432 26.947 16.84 24.926 12.8 39.073 13.474 289.684 13.474s264.76-.673 289.686-13.474c14.82-7.412 26.947-15.495 26.947-16.84 0-2.022-142.147-3.37-316.633-3.37s-316.634 1.348-316.634 3.37zm144.17 64.673c108.465 35.03 236.465 35.03 344.928 0l39.748-12.8H299.794l39.748 12.8z"/></svg>