<?xml version="1.0" encoding="utf-8"?>
<!-- Generated by IcoMoon.io -->
<!DOCTYPE svg PUBLIC "-//W3C//DTD SVG 1.1//EN" "http://www.w3.org/Graphics/SVG/1.1/DTD/svg11.dtd">
<svg version="1.1" xmlns="http://www.w3.org/2000/svg" xmlns:xlink="http://www.w3.org/1999/xlink" width="501" height="1024" viewBox="0 0 501 1024">
<g id="icomoon-ignore">
</g>
<path d="M248.032 9.253c-9.871 10.441-10.63 14.237-6.074 29.043 2.847 9.871 2.088 14.616-4.556 27.714-6.264 12.529-7.023 24.108-2.088 36.256 3.986 10.25 3.986 10.441 0.379 15.185-4.935 6.644-9.301 7.213-14.806 1.898-5.695-5.315-5.695-7.593 0.379-16.894 6.074-9.111 5.125-17.843-2.278-24.866-7.783-7.213-8.922-12.148-4.556-20.88 3.416-6.454 3.416-7.404 0.76-7.404-4.365 0-15.566 11.769-17.084 18.033-0.76 3.416-0.19 8.542 1.898 13.857 3.037 8.353 3.037 8.732-1.898 21.070-15.755 39.293 14.047 80.675 55.998 77.638 39.863-2.847 63.781-41.381 48.595-78.397-4.556-11.199-4.746-11.579-1.709-20.122 2.088-5.505 2.658-10.82 1.898-14.047-1.519-6.264-12.718-18.033-17.084-18.033-2.658 0-2.658 0.949 0.76 7.404 4.365 8.732 3.227 13.667-4.556 20.88-7.593 7.213-8.353 15.755-2.088 25.247 4.746 7.213 5.125 8.353 2.658 12.529-4.556 8.162-8.542 9.301-14.427 4.746-6.264-4.556-6.264-5.695-0.379-27.335 3.986-14.806 4.176-17.274 1.898-26.954-1.519-6.834-5.505-15.376-10.63-22.968-11.199-16.325-11.769-19.362-5.695-31.511 2.658-5.315 4.556-10.25 4.176-10.63s-4.746 3.416-9.491 8.542z"></path>
<path d="M227.722 205.72c-23.348 6.644-40.622 18.982-52.771 37.205-24.677 36.826-19.931 83.522 11.769 114.843 49.734 49.544 131.547 27.714 151.859-40.622 12.529-42.52-12.718-92.254-55.238-108.389-13.667-5.315-42.711-6.834-55.618-3.037z"></path>
<path d="M368.38 336.508c-9.301 19.931-33.219 43.090-55.238 54.099-23.348 11.39-36.826 14.427-62.642 14.427s-39.293-3.037-62.642-14.427c-20.88-10.441-45.178-33.788-55.618-53.72l-6.834-13.288-0.19 11.769c-0.19 49.354 37.205 95.671 91.115 112.565 54.669 17.274 118.829-10.25 145.215-62.642 6.644-13.097 12.339-33.409 13.667-48.785 0.57-7.593 0.76-13.857 0.379-13.667-0.379 0-3.607 6.074-7.213 13.667z"></path>
<path d="M-0.066 749.752v273.346h113.894v-546.69h-113.894v273.346z"></path>
<path d="M139.643 478.115c0.949 0.76 26.196 16.325 56.377 34.168l54.48 32.649 54.669-32.649c29.992-17.843 55.238-33.409 56.377-34.168 0.949-0.949-48.215-1.709-111.046-1.709s-111.995 0.76-110.857 1.709z"></path>
<path d="M387.172 749.752v273.346h113.894v-546.69h-113.894v273.346z"></path>
<path d="M136.606 590.301v22.779h227.788v-45.557h-227.788v22.779z"></path>
<path d="M222.027 638.706c-51.252 14.427-85.231 58.656-85.42 111.046 0 51.252 37.965 99.277 87.698 111.046 25.816 6.074 51.442 2.847 77.448-9.871 18.603-8.922 41.762-31.891 50.683-50.113 17.274-35.117 15.566-77.448-4.556-110.477-13.097-21.64-36.256-40.432-59.984-48.785-15.566-5.695-50.492-7.023-65.868-2.847zM291.502 657.498c10.63 12.529 13.097 19.741 13.097 40.053 0 16.704-0.57 20.311-4.746 28.284-6.834 13.288-15.566 19.362-43.469 30.372-13.667 5.505-28.473 12.529-33.030 15.755-21.261 14.996-24.108 51.062-5.695 72.513 8.542 10.060 2.468 7.783-7.783-2.847-10.441-10.82-14.996-25.057-14.047-44.418 1.519-31.511 11.010-40.622 60.364-59.035 20.501-7.783 32.27-18.413 36.826-33.788 1.709-5.695 3.037-13.097 3.037-16.325 0-11.199-5.505-24.866-13.667-34.358l-8.162-9.111 6.454 3.797c3.416 1.898 8.353 6.074 10.82 9.111zM260.181 669.078c6.644 3.607 13.097 13.288 13.097 19.931 0 10.63-12.339 22.779-23.159 22.779-10.060 0-22.399-12.529-22.399-22.779s12.339-22.779 22.399-22.779c2.468 0 6.834 1.328 10.060 2.847zM259.992 790.185c5.505 2.847 13.288 13.667 13.288 18.792 0 2.088-1.328 6.644-3.037 10.060-8.162 17.274-31.321 17.274-39.483 0-4.176-8.542-3.797-12.529 1.328-20.122 7.023-10.441 17.654-13.857 27.904-8.732z"></path>
<path d="M136.606 909.204v22.779h227.788v-45.557h-227.788v22.779z"></path>
<path d="M193.174 989.119l57.326 34.548 114.843-68.906h-229.686l57.517 34.358z"></path>
</svg>
