<svg xmlns="http://www.w3.org/2000/svg" width="1025" height="1024" viewBox="0 0 1025 1024"><path d="M499.776 608.91c-6.984 8.847-8.614 24.444-5.354 53.312 2.794 26.074 12.804 84.275 16.296 94.52 1.63 5.12 2.095 4.422 4.656-6.985 8.614-39.11 14.667-82.646 15.132-106.392.233-23.048-.233-26.772-4.656-32.592-6.984-9.312-19.556-10.243-26.074-1.862zm-44 2.794c-5.82 9.08-5.355 39.81 1.396 68.21 9.778 41.44 21.884 81.948 23.513 78.69 2.794-5.123 7.217-47.493 8.614-84.742 2.093-51.217-3.494-68.444-21.42-68.444-6.286 0-9.08 1.397-12.106 6.286zm88.232-1.397c-8.148 8.614-10.476 25.376-9.08 63.556 1.397 37.25 5.82 79.62 8.614 84.74.93 1.863 5.122-9.31 10.01-26.77 25.376-91.028 26.307-124.086 3.492-125.948-6.286-.466-9.545.466-13.037 4.423zm-130.836 6.053c-4.656 5.82-5.122 8.38-3.958 23.98.7 9.544 4.656 28.4 8.614 41.67 8.847 29.102 27.47 79.62 30.73 82.88 3.492 3.49.93-121.06-2.794-133.165-6.053-20.72-22.35-28.402-32.592-15.365zm173.672-.466c-3.027 3.26-6.75 10.243-8.38 15.83-3.726 12.107-6.287 136.657-2.795 133.165 3.257-3.26 21.882-53.78 30.73-82.88 3.956-13.27 7.913-32.127 8.612-41.67 1.164-15.6.7-18.16-3.958-23.98-6.52-8.38-16.762-8.38-24.21-.467zm-215.577 8.15c-6.52 6.52-6.053 23.28 1.397 46.56 6.52 20.952 35.62 87.534 41.672 95.915 3.725 5.12 3.958 3.723 2.56-27.24-1.63-37.48-6.518-76.127-11.872-93.587-6.984-23.28-22.35-33.058-33.757-21.65zm257.483 2.326c-11.41 13.736-18.858 52.848-21.42 112.91-1.396 30.964-1.163 32.36 2.562 27.24 6.053-8.382 35.153-74.964 41.672-95.916 7.45-23.28 7.915-40.042 1.397-46.56-6.982-6.985-16.993-6.054-24.21 2.327zm-298.223 10.477c-7.217 6.984-7.45 17.228-.93 36.783 7.68 23.28 54.242 108.72 57.27 105.46 3.258-3.258-11.41-87.766-20.488-116.634-5.356-17.46-16.53-31.43-25.145-31.43-2.794 0-7.682 2.562-10.71 5.82zm339.893 1.863c-9.08 9.08-15.13 26.77-23.28 67.978-6.518 33.757-11.64 70.54-9.777 72.402 3.027 3.26 49.587-82.18 57.27-105.46 6.52-19.557 6.286-29.8-.93-36.784-7.683-7.915-14.202-7.217-23.28 1.862zm-380.168 12.338c-6.984 4.89-6.75 20.952.233 38.18 10.01 23.98 64.952 106.392 66.35 99.408.93-4.89-9.78-49.587-19.79-83.11-14.9-49.355-29.566-66.583-46.794-54.477zm422.772.698c-8.614 6.75-16.995 24.21-25.84 53.778-10.01 33.524-20.72 78.222-19.79 83.11 1.397 6.985 56.34-75.428 66.35-99.407 6.983-17.228 7.216-33.29.232-38.18s-13.968-4.656-20.952.7zM251.84 670.603c-11.41 9.08-7.45 26.54 12.338 55.873 11.64 17.228 53.312 69.376 60.063 75.43 6.52 5.586 6.52 4.422-1.63-20.72-29.797-94.054-50.517-126.414-70.77-110.583zm504.486-2.328c-6.286 2.56-16.296 14.434-22.815 27.704-9.08 17.924-38.41 100.57-38.644 108.252 0 3.958 10.243-6.984 32.825-35.153 38.414-48.19 50.75-68.678 50.985-84.974 0-6.52-1.397-9.778-6.053-13.27-6.75-5.354-8.846-5.587-16.295-2.56zm-543.133 25.842c-8.38 7.915-5.82 21.884 7.682 41.206 10.942 16.063 55.408 64.952 73.1 80.783l10.01 8.847-4.888-12.57c-17.693-44.932-37.48-86.14-49.587-103.133-13.968-19.323-26.307-24.444-36.318-15.132zm576.424-.467c-15.598 10.244-38.413 52.382-64.487 118.73l-4.89 12.572 10.01-8.847c17.694-15.83 62.16-64.72 73.102-80.783 13.503-19.323 16.063-33.29 7.682-41.206-6.52-6.053-12.804-6.286-21.418-.466zM178.04 719.492c-11.873 11.873-3.027 30.265 30.265 62.857 22.582 22.347 59.598 54.707 67.28 59.363 3.493 2.095-20.253-45.164-37.015-73.1-28.402-47.726-47.027-62.625-60.53-49.123zm645.566-.232c-8.847 5.587-22.116 22.582-37.947 49.354-16.764 27.937-40.51 75.196-37.018 73.1 7.682-4.655 44.7-37.015 67.28-59.364 33.292-32.592 42.14-50.984 30.266-62.857-5.82-5.82-13.038-5.82-22.583-.233z"/><path d="M148.707 745.334c-2.794 1.397-6.286 5.122-7.682 8.38-3.958 8.382 3.725 23.98 19.323 38.88 22.35 21.417 92.19 74.03 92.19 69.375 0-1.166-7.914-14.67-17.692-29.8-46.095-72.17-69.143-95.218-86.138-86.837zm709.587 1.396c-14.434 6.984-38.18 36.783-71.238 89.164-8.38 13.27-15.365 24.91-15.365 26.307 0 4.425 70.076-48.42 92.193-69.607 15.598-14.9 23.28-30.497 19.323-38.878-2.328-5.122-10.942-10.942-15.598-10.942-.93 0-5.122 1.862-9.312 3.958zm-745.44 34.92c-8.147 10.477-2.56 22.583 19.324 40.974 13.037 10.942 44.7 32.592 69.143 47.027 8.383 4.89 18.86 10.944 23.28 13.737l8.15 4.89-4.423-6.985c-8.38-13.27-32.825-44.232-52.847-67.745-31.197-36.318-50.985-46.56-62.625-31.894zm767.324.932c-14.667 9.778-64.72 68.21-84.275 98.71l-4.423 6.983 8.148-4.89c4.423-2.793 14.9-8.846 23.28-13.734 50.984-30.263 88.233-60.294 91.725-74.263 2.328-9.545-4.656-18.624-15.132-19.556-5.82-.465-10.94 1.398-19.32 6.75zm-400.656 18.392c-40.74 4.423-84.508 17.228-120.825 35.386-64.952 32.592-122.222 91.492-153.884 158.307-5.82 12.106-10.476 22.815-10.476 23.746 0 .7 142.942 1.397 317.778 1.397s317.778-.7 317.778-1.397c0-.93-4.656-11.64-10.476-23.746-32.127-67.513-88.7-125.482-155.513-159.238-24.444-12.108-67.513-26.31-93.587-30.73-27.238-4.658-67.28-6.288-90.794-3.727zm-392.51 11.174c-12.803 10.476-3.26 28.17 25.144 46.794 19.323 12.804 95.915 52.614 97.545 50.75 1.63-1.63-35.617-42.602-62.39-68.21-32.36-31.196-48.19-38.878-60.295-29.333zm824.594.932c-5.82 2.794-21.418 15.598-34.92 28.635-26.54 25.376-63.79 66.35-62.16 67.98 1.63 1.86 78.222-37.948 97.545-50.752 28.404-18.624 37.95-36.318 25.145-46.794-6.984-5.59-13.037-5.356-25.61.93zM68.622 844.508c-7.217 2.56-11.64 8.614-11.64 16.063 0 15.6 32.825 36.55 97.778 62.16 41.206 16.064 41.206 16.064 17.46-6.983-51.217-50.053-89.397-76.127-103.598-71.238zm872.318 1.862c-4.89 1.63-14.434 6.752-20.952 11.176C899.268 871.28 827.565 936 832.918 936c3.726 0 47.028-16.994 71.938-28.17 43.767-19.788 62.39-33.99 62.39-47.724 0-12.804-11.872-19.09-26.306-13.735zM38.59 888.508c-2.794 3.492-4.89 7.45-4.89 9.08 0 6.52 11.41 18.857 24.445 25.84 12.34 6.985 93.587 35.387 111.746 39.112 6.986 1.397 6.753 1.397-3.49-8.148-14.2-13.037-60.53-47.492-77.757-57.968-26.074-15.83-41.905-18.16-50.053-7.915zm918.18-3.258c-16.062 5.82-74.03 46.327-98.94 69.142-10.244 9.545-10.477 9.545-3.493 8.148 18.16-3.725 99.408-32.127 111.746-39.11 13.037-6.985 24.444-19.324 24.444-25.842 0-1.63-2.095-5.587-4.89-9.08-5.353-6.75-15.83-7.915-28.867-3.26zM27.648 922.498c-4.89 1.164-8.38 4.19-10.243 8.614-6.52 16.296 12.57 29.8 60.995 43.07 32.825 9.08 77.524 18.39 81.48 17.227 4.89-1.63-74.73-52.85-97.544-62.626-15.365-6.52-26.307-8.614-34.688-6.286zm937.272 4.89c-24.212 10.242-105.927 62.16-100.572 64.02 3.958 1.164 48.656-8.148 81.48-17.228 35.62-9.778 55.41-19.79 60.53-30.497 3.492-7.217 3.492-8.148-1.164-14.2-6.52-8.615-22.35-9.546-40.275-2.096zM8.558 964.402c-6.053 3.027-8.614 10.71-6.52 19.323 1.63 6.75 16.064 15.598 33.99 20.72 16.763 4.89 75.197 14.667 98.943 16.53l18.626 1.63-13.968-8.615c-20.72-12.802-80.085-42.136-96.38-47.723-15.366-5.122-26.54-5.82-34.69-1.862zm970.33 2.793c-16.996 6.053-72.87 33.757-94.287 46.56-16.527 10.01-15.363 10.244 25.61 4.89 60.53-7.915 94.985-16.995 106.858-27.937 8.148-7.45 8.148-17.928 0-24.213s-19.09-6.053-38.18.7z"/></svg>