<?xml version="1.0" encoding="utf-8"?>
<!-- Generated by IcoMoon.io -->
<!DOCTYPE svg PUBLIC "-//W3C//DTD SVG 1.1//EN" "http://www.w3.org/Graphics/SVG/1.1/DTD/svg11.dtd">
<svg version="1.1" xmlns="http://www.w3.org/2000/svg" xmlns:xlink="http://www.w3.org/1999/xlink" width="1029" height="1024" viewBox="0 0 1029 1024"><g id="icomoon-ignore">
</g>
<path d="M601.483 15.808c-50.139 27.554-98.020 74.531-118.797 116.99-13.552 26.651-14.455 31.619-13.099 67.754 2.71 69.563 1.806 79.5-5.872 93.954-4.968 10.39-10.84 14.905-18.068 14.905-12.648 0-51.946-25.295-70.916-45.621-13.099-14.002-13.552-14.455-43.815-10.84-41.556 4.968-71.369 4.968-97.115 1.356-28.457-4.518-23.939 0.903 13.552 16.714 16.714 6.775 37.040 18.068 44.266 24.844 7.678 6.324 27.101 18.52 44.266 26.651 35.684 17.164 47.428 31.167 40.2 47.88-7.227 15.358-23.939 14.455-62.335-2.71-42.459-19.423-79.5-22.585-107.053-9.034-29.813 14.455-68.207 55.558-96.211 102.988-45.621 77.241-54.205 105.245-23.036 74.531 10.39-10.39 20.779-18.971 22.585-18.971s0.453 7.227-3.162 15.809c-8.131 19.423-3.613 19.874 22.133 2.259s29.36-17.164 26.198 3.162l-2.71 16.714 14.002-10.39c7.678-5.421 15.358-11.743 16.714-14.002 6.775-10.84 9.937-2.71 5.872 13.552-2.71 10.39-3.613 19.874-1.806 21.23 1.356 1.356 13.552-7.678 27.101-20.326 13.552-13.099 26.198-23.489 28.004-23.489s1.806 9.034 0.453 20.326c-1.806 11.293-1.356 20.326 0.453 20.326s13.552-10.39 25.748-22.585c12.196-12.648 23.939-22.585 25.748-22.585s3.613 10.39 3.613 23.489v23.036l11.293-10.39c5.872-5.421 16.261-18.068 23.036-27.554 6.775-9.937 13.552-17.617 15.358-17.617s4.518 11.743 5.421 26.198c4.065 41.556 18.52 69.11 55.108 103.439 41.106 39.297 68.207 60.527 72.272 56.914 1.356-1.356 2.71-9.937 2.71-18.068v-15.358l25.295 20.326c29.813 24.392 35.232 25.748 31.167 7.227-1.806-7.678-1.356-13.552 0-13.552 1.806 0 17.617 13.552 34.781 29.813 43.362 40.653 92.146 70.916 138.673 85.371l10.84 3.162-12.196-21.23c-6.324-12.196-11.293-22.585-10.39-23.489 1.356-0.903 7.227 0.453 14.002 3.162 21.682 8.131 21.23 4.968-4.065-32.070-13.552-19.874-24.844-37.943-24.844-39.75 0-2.259 5.421-2.71 12.196-1.356 14.455 2.71 15.358 4.968-22.133-44.266-24.844-32.070-27.554-42.459-10.39-37.943l11.293 2.71-9.034-26.198c-4.968-14.002-8.131-27.101-6.775-28.457 1.806-1.356 17.164 4.968 35.232 14.455 29.36 14.905 32.975 15.809 37.943 9.034 5.421-6.775 6.324-6.775 15.809 1.356 48.331 40.653 88.984 80.403 112.473 108.86 26.651 33.878 27.554 34.781 24.392 55.108-7.227 48.784-46.525 100.729-91.243 121.056-22.133 10.39-28.91 11.293-63.689 9.486-21.682-1.356-43.362-3.613-48.331-5.421-7.227-2.71-6.324-1.356 3.162 7.678 6.775 6.324 23.939 15.809 38.394 21.23 33.426 12.648 62.786 10.39 102.536-8.583 44.718-21.682 67.754-50.139 87.178-108.86 1.356-4.065 6.324 3.613 11.293 18.068 6.775 18.068 9.486 37.040 9.937 67.754 0.453 40.2-0.453 45.171-14.455 73.175-23.939 48.331-63.689 70.916-129.637 72.723-24.844 0.903-28.457 1.806-22.133 6.324 21.23 15.809 87.178 13.099 121.506-4.518 52.849-26.651 80.403-76.337 80.403-145.447 0-46.977-9.034-76.788-37.040-124.218-12.196-20.779-18.52-37.040-20.779-56.011-4.518-40.2-14.002-67.304-33.426-96.211-18.068-26.651-20.326-35.684-5.872-22.585 8.131 7.227 18.971 10.39 18.971 5.421 0-1.356-3.162-9.937-6.775-18.971s-6.324-17.164-4.968-18.068c0.903-0.903 10.84 5.421 22.585 14.455 25.295 18.971 31.167 19.874 27.101 3.162-4.968-20.326-24.392-70.013-31.619-81.306-6.775-10.39-6.775-10.84 2.259-7.678 5.421 1.356 9.486 1.356 9.486-0.453 0-5.421-48.331-75.434-62.786-91.243-16.714-18.068-16.714-18.971-3.613-18.971 8.583-0.453 7.678-2.71-10.39-18.971-20.779-18.971-64.592-50.139-76.788-54.655-4.518-1.356 0-4.968 12.648-10.39 10.39-4.065 18.971-9.486 18.971-11.293 0-8.583-61.883-23.036-99.373-23.036-36.135-0.453-51.946 3.162-97.115 21.23-4.968 1.806 2.71-7.678 17.164-21.682 14.002-14.002 25.748-27.101 25.748-29.813 0-2.259-4.518-7.678-9.937-11.743l-10.39-7.227 14.905-12.196c17.164-14.455 18.52-23.489 3.162-23.489-13.552 0-14.002-5.872-1.806-23.036 10.84-15.358 8.583-26.651-4.968-26.651-9.937 0-9.937-3.162-0.903-26.651 1.806-4.518-0.453-5.872-9.486-4.065-6.775 1.356-12.196 1.356-12.196 0.453s5.421-11.743 11.743-24.392c16.714-33.426 13.552-37.943-15.809-22.133zM768.16 537.521c26.198 13.099 34.329 14.002 40.2 3.613 3.613-7.227 4.968-6.775 13.552 3.162 21.23 25.295 42.009 60.076 52.849 88.533l11.293 30.716-44.718-43.362c-24.844-23.489-58.721-52.849-74.982-64.592s-28.91-23.036-27.101-25.295c3.162-5.421 3.613-5.421 28.91 7.227z"></path>
</svg>
