<svg xmlns="http://www.w3.org/2000/svg" width="1029" height="1024" viewBox="0 0 1029 1024"><path d="M601.483 15.808c-50.14 27.554-98.02 74.53-118.797 116.99-13.552 26.65-14.455 31.62-13.1 67.754 2.71 69.563 1.807 79.5-5.87 93.954-4.97 10.39-10.84 14.905-18.07 14.905-12.647 0-51.945-25.293-70.915-45.62-13.097-14-13.55-14.454-43.813-10.84-41.556 4.97-71.37 4.97-97.115 1.357-28.456-4.518-23.938.903 13.553 16.714 16.714 6.776 37.04 18.07 44.266 24.845 7.678 6.324 27.1 18.52 44.266 26.65 35.684 17.165 47.428 31.168 40.2 47.88-7.227 15.36-23.94 14.456-62.335-2.71-42.46-19.422-79.5-22.584-107.052-9.033-29.813 14.456-68.207 55.56-96.21 102.99-45.622 77.24-54.206 105.244-23.037 74.53 10.39-10.39 20.78-18.97 22.586-18.97s.453 7.226-3.162 15.808c-8.13 19.423-3.613 19.874 22.133 2.26s29.36-17.165 26.198 3.16l-2.71 16.715 14.002-10.39c7.678-5.42 15.358-11.743 16.714-14.002 6.776-10.84 9.938-2.71 5.873 13.553-2.71 10.39-3.613 19.874-1.806 21.23 1.356 1.356 13.552-7.678 27.1-20.326 13.553-13.1 26.2-23.49 28.005-23.49s1.807 9.035.454 20.327c-1.806 11.293-1.356 20.326.453 20.326s13.55-10.39 25.747-22.585c12.196-12.648 23.94-22.585 25.748-22.585s3.613 10.39 3.613 23.49v23.035l11.293-10.39c5.87-5.42 16.26-18.068 23.036-27.554 6.775-9.936 13.552-17.616 15.358-17.616s4.518 11.743 5.42 26.198c4.066 41.556 18.52 69.11 55.11 103.44 41.105 39.296 68.206 60.526 72.27 56.913 1.357-1.357 2.71-9.938 2.71-18.07v-15.36l25.296 20.325c29.812 24.392 35.23 25.748 31.166 7.227-1.806-7.678-1.356-13.552 0-13.552 1.806 0 17.617 13.552 34.78 29.813 43.363 40.653 92.147 70.916 138.674 85.37l10.84 3.163-12.196-21.23c-6.324-12.196-11.293-22.585-10.39-23.49 1.356-.902 7.227.454 14.002 3.163 21.682 8.13 21.23 4.966-4.065-32.07-13.55-19.876-24.842-37.945-24.842-39.75 0-2.26 5.42-2.71 12.196-1.358 14.455 2.71 15.358 4.968-22.133-44.266-24.843-32.07-27.553-42.46-10.39-37.943l11.294 2.71-9.034-26.198c-4.97-14.002-8.132-27.1-6.776-28.457 1.806-1.357 17.164 4.967 35.232 14.454 29.36 14.905 32.975 15.81 37.943 9.034 5.42-6.775 6.322-6.775 15.807 1.356 48.33 40.653 88.984 80.403 112.473 108.86 26.652 33.878 27.555 34.78 24.393 55.108-7.227 48.784-46.525 100.73-91.243 121.056-22.133 10.39-28.91 11.293-63.69 9.486-21.68-1.356-43.36-3.613-48.33-5.42-7.227-2.71-6.324-1.357 3.162 7.677 6.775 6.324 23.94 15.81 38.394 21.23 33.426 12.65 62.786 10.39 102.536-8.583 44.718-21.682 67.754-50.14 87.178-108.86 1.356-4.065 6.324 3.613 11.293 18.068 6.775 18.068 9.486 37.04 9.937 67.754.453 40.2-.453 45.17-14.455 73.174-23.94 48.33-63.69 70.916-129.637 72.723-24.844.903-28.457 1.806-22.133 6.324 21.23 15.81 87.178 13.1 121.506-4.517 52.85-26.65 80.405-76.337 80.405-145.447 0-46.977-9.034-76.788-37.04-124.218-12.196-20.78-18.52-37.04-20.78-56.012-4.517-40.2-14-67.304-33.425-96.21-18.07-26.652-20.327-35.685-5.873-22.586 8.13 7.227 18.97 10.39 18.97 5.42 0-1.355-3.16-9.936-6.774-18.97s-6.324-17.164-4.968-18.068c.903-.903 10.84 5.42 22.585 14.455 25.295 18.97 31.167 19.873 27.1 3.16-4.967-20.325-24.39-70.012-31.618-81.305-6.775-10.39-6.775-10.84 2.26-7.678 5.42 1.356 9.485 1.356 9.485-.453 0-5.42-48.33-75.433-62.786-91.242-16.712-18.067-16.712-18.97-3.61-18.97 8.582-.453 7.677-2.71-10.39-18.97-20.78-18.972-64.593-50.14-76.79-54.656-4.517-1.356 0-4.968 12.65-10.39 10.39-4.065 18.97-9.486 18.97-11.293 0-8.583-61.883-23.036-99.373-23.036-36.135-.453-51.946 3.162-97.115 21.23-4.967 1.806 2.71-7.678 17.165-21.682 14.002-14.002 25.748-27.1 25.748-29.813 0-2.26-4.518-7.68-9.937-11.744l-10.39-7.227 14.905-12.197c17.165-14.455 18.52-23.49 3.163-23.49-13.552 0-14.002-5.87-1.806-23.035 10.84-15.36 8.583-26.652-4.968-26.652-9.938 0-9.938-3.162-.904-26.65 1.806-4.52-.453-5.873-9.486-4.066-6.775 1.356-12.196 1.356-12.196.453s5.42-11.743 11.743-24.392C634.01 4.518 630.85 0 601.486 15.81zM768.16 537.52c26.198 13.1 34.33 14.003 40.2 3.614 3.613-7.227 4.968-6.775 13.552 3.162 21.23 25.295 42.01 60.076 52.85 88.533l11.292 30.714-44.718-43.362c-24.844-23.49-58.72-52.85-74.982-64.592s-28.91-23.035-27.1-25.294c3.16-5.42 3.612-5.42 28.91 7.227z"/></svg>