<?xml version="1.0" encoding="utf-8"?>
<!-- Generated by IcoMoon.io -->
<!DOCTYPE svg PUBLIC "-//W3C//DTD SVG 1.1//EN" "http://www.w3.org/Graphics/SVG/1.1/DTD/svg11.dtd">
<svg version="1.1" xmlns="http://www.w3.org/2000/svg" xmlns:xlink="http://www.w3.org/1999/xlink" width="1024" height="1024" viewBox="0 0 1024 1024"><g id="icomoon-ignore">
</g>
<path d="M459.687 163.339c-27.27 85.148-51.757 155.27-54.539 155.27-2.226 0-70.678-25.043-152.487-56.209-81.252-30.609-149.148-54.539-150.261-53.426-1.67 1.67 37.287 62.887 86.817 136.904 48.974 74.017 89.043 135.235 89.043 136.348s-62.33 38.957-139.13 84.591c-76.243 45.078-139.13 84.035-139.13 85.704s70.678 8.904 157.496 16.139c86.261 6.678 159.722 13.357 163.061 14.47 3.896 1.113-2.226 56.765-17.252 166.4l-22.817 164.73 18.365-17.809c10.574-10.017 62.33-64 114.643-119.652 52.87-56.209 97.391-101.287 99.617-100.174 1.67 0.557 53.426 53.426 114.087 117.426 81.252 85.704 110.748 113.53 111.861 105.739 0.557-5.565-8.348-79.026-20.035-162.504-14.47-102.4-19.478-153.043-15.583-154.157 3.339-1.113 76.8-7.791 163.617-14.47 86.261-7.235 156.939-14.47 156.939-16.139s-62.33-40.070-139.13-85.704c-76.243-45.635-139.13-83.478-139.13-84.591 0-0.557 40.070-62.33 89.043-136.348s87.93-135.791 86.817-136.904c-1.113-1.67-69.009 22.817-150.261 53.426-81.809 31.165-150.261 56.209-152.487 56.209-2.783 0-26.713-68.452-53.426-151.93-26.713-82.922-50.643-153.043-52.313-155.27-2.226-1.67-26.157 66.226-53.426 151.93z"></path>
</svg>
