<?xml version="1.0" encoding="utf-8"?>
<!-- Generated by IcoMoon.io -->
<!DOCTYPE svg PUBLIC "-//W3C//DTD SVG 1.1//EN" "http://www.w3.org/Graphics/SVG/1.1/DTD/svg11.dtd">
<svg version="1.1" xmlns="http://www.w3.org/2000/svg" xmlns:xlink="http://www.w3.org/1999/xlink" width="1016" height="1024" viewBox="0 0 1016 1024"><g id="icomoon-ignore">
</g>
<path d="M498.834 124.338l-8.224 26.316-58.224 3.289 22.369 15.79c12.171 8.881 22.039 17.763 22.039 20.065s-3.619 14.803-7.894 27.631c-9.211 26.974-9.539 26.974 20.724 4.277l17.763-13.158 10.197 6.908c5.592 3.947 15.79 11.513 22.697 16.776 14.145 10.856 14.473 9.868 5.592-15.79-3.619-10.526-6.579-21.71-6.579-25s9.211-12.5 21.71-21.71l21.71-15.79-57.565-3.289-17.763-52.631-8.553 26.316zM245.217 194.074l-8.881 26.974-56.25 1.974 21.71 15.46c11.842 8.881 21.71 17.105 21.71 18.75s-2.96 12.829-6.908 25c-3.619 12.171-6.25 22.697-5.592 23.355 0.987 0.658 10.526-5.592 22.039-13.816 11.842-8.553 22.039-13.816 24.342-12.5s11.842 8.224 21.382 15.46c9.868 6.908 18.092 12.171 19.079 11.513 0.658-0.987-1.645-9.868-4.934-20.065-10.526-30.592-10.856-29.605 14.145-48.026l22.697-16.447-57.894-1.974-17.763-52.631-8.881 26.974zM752.78 194.074l-8.224 25.658-58.224 1.974 22.697 16.447c25 18.421 24.671 17.434 14.145 48.026-3.289 10.197-5.592 19.079-4.934 20.065 0.987 0.658 9.211-4.605 19.079-11.513 9.539-7.237 19.079-14.145 21.382-15.46s12.5 3.947 24.342 12.5c11.513 8.224 21.052 14.473 22.039 13.816 0.658-0.658-1.974-11.184-5.592-23.355-3.947-12.171-6.908-23.355-6.908-25s9.868-9.868 21.71-18.75l21.71-15.46-56.25-1.974-8.553-25.987c-4.934-14.473-9.211-26.316-9.539-26.316s-4.277 11.513-8.881 25.329zM477.782 362.165c-33.553 12.171-52.96 33.223-61.842 69.078-4.277 16.776-4.605 23.684-1.645 38.487 1.974 9.868 5.263 18.092 6.908 18.092s2.96-1.315 2.96-3.289c0-5.263 20.065-26.316 29.934-31.578 13.816-6.908 27.961-5.921 33.881 2.632 4.605 6.25 5.263 22.697 5.263 112.829 0 95.065-0.658 106.25-5.921 114.144-21.382 32.566-75.657 45.723-114.144 27.631-18.421-8.553-35.197-23.684-43.421-39.474l-5.263-10.197-3.947 16.776c-10.197 44.736-42.763 73.026-87.17 75.987-34.868 2.632-63.816-11.842-87.17-43.421-4.605-6.25-4.605-6.25-4.934 1.974-0.329 25.658 21.71 58.224 49.671 73.684 15.79 8.881 20.724 9.868 45.723 9.868 22.369 0 30.592-1.645 41.447-7.237 21.71-11.513 33.223-23.026 43.421-43.421l9.539-19.408 11.842 14.145c41.776 49.671 122.038 44.408 156.907-10.197l8.881-14.145 10.197 15.79c17.763 26.974 46.711 42.763 79.934 43.092 28.289 0 47.697-8.224 69.408-29.934l18.75-18.75 3.947 11.842c2.302 6.579 11.184 19.737 20.395 29.276 55.592 58.881 152.959 27.303 164.802-53.29l1.974-13.158-5.592 8.224c-13.158 18.092-21.052 25.329-37.5 34.21-54.605 29.934-124.67-1.645-138.157-62.171l-3.947-17.763-9.211 14.145c-9.539 15.46-30.263 31.25-48.684 37.5-32.566 11.184-75.657 0.658-99.013-23.684l-11.513-12.171v-110.197c0-106.578 0.329-110.525 6.579-115.459 8.224-5.921 26.974-3.947 39.474 4.277 5.263 3.289 13.487 12.5 18.421 20.065l8.881 14.473 3.947-17.105c7.237-29.605-2.632-65.789-24.013-87.828-25-26.316-66.447-36.184-99.999-24.342zM547.518 387.494c15.79 9.211 29.276 26.644 34.21 43.749l3.289 10.526-13.816-6.908c-17.105-8.881-41.776-7.237-52.96 3.289l-7.894 7.566-9.868-7.237c-14.145-10.526-38.157-12.171-53.947-3.947-14.803 7.566-16.118 4.277-6.25-15.131 8.553-16.447 26.316-32.895 41.776-38.815 18.75-6.908 47.368-3.947 65.46 6.908zM102.125 384.205l-7.237 24.342-57.237 1.974 21.382 15.79c11.842 8.881 21.71 17.105 22.369 18.421 0.329 1.315-2.96 13.158-7.566 26.644-4.605 13.158-7.894 24.671-7.237 25 0.658 0.658 11.184-6.25 23.355-15.131l22.039-16.118 22.039 16.118c11.842 8.881 22.369 15.79 22.697 15.131 0.658-0.329-2.632-11.842-7.237-25s-8.224-25-8.224-25.987c0-0.987 10.526-9.539 23.355-18.421l23.026-16.447-58.552-1.974-7.566-24.342c-4.277-13.487-8.881-24.671-9.868-24.671-1.315 0-5.592 11.184-9.539 24.671zM894.555 384.205l-7.566 24.342-58.552 1.974 23.026 16.447c12.829 8.881 23.355 17.434 23.355 18.421s-3.619 12.829-8.224 25.987-7.894 24.671-7.237 25c0.329 0.658 10.856-6.25 22.697-15.131l22.039-16.118 22.039 16.118c12.171 8.881 22.697 15.79 23.355 15.131 0.658-0.329-2.632-11.842-7.237-25-4.605-13.487-7.894-25.329-7.566-26.644 0.658-1.315 10.526-9.539 22.369-18.421l21.382-15.79-57.565-1.974-6.908-24.342c-3.947-13.487-8.224-24.671-9.539-24.671-0.987 0-5.592 11.184-9.868 24.671zM61.995 638.479l-8.224 25.329-27.303 0.987c-14.803 0.658-26.644 2.302-25.987 3.947 0.658 1.315 10.197 9.539 21.382 17.763l20.395 14.803-7.894 23.684c-4.605 13.158-8.224 25-8.224 26.644 0 2.302 18.75-10.197 41.118-27.303 1.974-1.315 13.158 4.605 25.658 13.816 12.171 8.881 22.697 16.118 23.355 16.118 0.987 0-1.974-10.526-6.579-23.684-4.277-12.829-7.894-25.329-7.894-27.303s9.868-10.856 22.039-20.065l22.369-16.118-58.881-3.289-7.566-24.342c-3.947-13.158-7.894-24.671-8.553-25.329-0.329-0.658-4.605 10.197-9.211 24.342zM936.989 637.493l-8.224 26.316-58.881 3.289 22.369 16.118c12.171 9.211 22.039 18.092 22.039 20.065s-3.619 14.473-7.894 27.303c-4.605 13.158-7.566 23.684-6.579 23.684 0.658 0 11.184-7.237 23.355-16.118 12.5-9.211 23.684-15.131 25.658-13.816 22.369 17.105 41.118 29.605 41.118 27.303 0-1.645-3.619-13.487-8.224-26.644l-7.894-23.684 20.395-14.803c11.184-8.224 20.724-16.447 21.382-17.763 0.658-1.645-11.184-3.289-25.987-3.947l-26.974-0.987-17.763-52.631-7.894 26.316z"></path>
<path d="M458.045 799.663c1.645 21.71 9.211 32.895 29.934 43.092 14.803 7.237 17.105 7.566 31.25 3.947 24.671-6.579 39.802-25 39.802-48.684v-12.5l-5.921 9.868c-3.619 5.263-8.553 11.842-11.184 14.145-4.277 3.619-5.592 2.96-7.237-4.277-3.289-13.158-13.816-21.382-26.644-21.382-13.816 0-24.671 9.539-24.671 21.382 0 13.816-9.211 8.224-21.052-13.158l-5.592-9.868 1.315 17.434zM310.019 801.966c-10.197 4.277-14.145 10.526-14.145 21.71 0 12.171-9.868 4.934-21.052-15.131l-5.592-9.868 1.315 17.434c0.987 10.856 3.947 21.052 7.894 26.316 29.605 39.474 93.42 19.737 92.762-28.618 0-13.487-0.329-14.145-3.289-6.908-3.619 9.211-15.79 23.026-20.065 23.026-1.645 0-2.302-0.987-1.315-2.632 0.658-1.315-0.658-6.908-2.96-12.5-5.592-13.487-19.408-18.75-33.553-12.829zM687.649 800.979c-10.197 3.619-16.447 12.171-16.776 21.71 0 10.856-6.579 7.894-16.447-7.237-9.211-14.145-12.171-10.526-8.553 9.868 4.934 25.658 35.855 44.079 63.158 37.17 24.342-6.25 45.066-37.5 37.5-56.579-2.302-5.592-2.96-5.921-2.96-1.645-0.329 3.289-4.605 10.526-9.868 16.447l-9.539 10.526-1.974-10.197c-3.947-16.776-19.079-25.987-34.54-20.065zM369.887 876.308c-46.052 2.632-131.579 11.513-145.394 15.131-6.579 1.315-7.566 3.947-7.566 18.092v16.447l12.5-1.974c95.065-14.473 244.406-20.724 372.366-15.131 75.657 2.96 157.565 9.868 186.512 15.131l10.856 1.974v-16.447c0-19.408 3.619-17.763-59.21-25-98.026-11.184-258.222-14.803-370.064-8.224z"></path>
</svg>
