<?xml version="1.0" encoding="utf-8"?>
<!-- Generated by IcoMoon.io -->
<!DOCTYPE svg PUBLIC "-//W3C//DTD SVG 1.1//EN" "http://www.w3.org/Graphics/SVG/1.1/DTD/svg11.dtd">
<svg version="1.1" xmlns="http://www.w3.org/2000/svg" xmlns:xlink="http://www.w3.org/1999/xlink" width="1024" height="1024" viewBox="0 0 1024 1024"><g id="icomoon-ignore">
</g>
<path d="M463.157 174.43c-27.189 12.443-53.457 41.476-60.832 66.824-5.992 18.894-7.374 61.294-2.765 66.362 1.844 1.383 8.295-1.383 14.746-5.992 6.913-5.53 18.435-9.216 29.495-9.216 14.746 0 21.659 3.227 34.564 16.129l16.129 16.129-1.844 79.267c-1.383 76.502-1.844 80.649-14.287 105.994-22.582 46.086-66.824 76.961-116.595 81.108-41.476 3.227-66.362-1.844-95.857-19.817l-25.807-15.67-8.757 17.511c-11.981 22.582-46.086 53.919-73.275 65.9-34.102 15.208-91.71 14.287-126.273-1.844-30.416-14.287-31.798-11.981-15.67 22.121 29.954 64.98 120.743 76.961 186.182 25.348 22.582-17.973 47.006-57.146 47.006-75.119 0-5.992 7.834-0.462 26.73 18.894 21.659 22.121 31.798 29.033 53.457 35.025 68.665 19.817 145.629-26.73 173.739-105.073 7.374-20.276 11.522-21.659 15.67-4.148 3.686 18.894 36.408 66.824 54.381 80.188 41.476 31.798 79.726 41.015 121.202 29.033 21.659-5.992 31.798-12.905 53.457-35.025 18.894-19.356 26.73-24.886 26.73-18.894 0 17.973 24.424 57.146 47.006 75.119 65.441 51.616 156.227 39.632 186.182-25.348 16.129-34.102 14.746-36.408-15.208-22.121-35.025 16.129-92.63 17.052-126.732 1.844-27.189-11.981-61.294-43.321-73.275-65.9l-8.757-17.511-25.807 15.67c-75.119 45.162-174.2 16.591-212.45-61.294-12.443-24.886-12.905-29.954-14.287-102.308-1.383-64.518-0.462-78.343 5.992-90.327 13.364-25.348 50.233-33.181 72.354-15.67 6.451 4.609 12.905 7.374 14.746 5.992 1.383-1.383 2.765-14.287 2.765-28.572 0-84.797-87.1-140.558-164.061-104.612zM547.954 199.775c20.738 10.599 35.484 25.807 41.938 43.321 7.374 18.894 6.913 19.817-13.364 20.276-20.738 0.921-34.102 6.913-51.616 23.503l-12.905 11.981-12.443-11.981c-17.973-16.591-31.337-22.582-52.075-23.503-20.276-0.462-21.2-1.844-11.981-23.041 17.511-41.476 72.354-61.294 112.448-40.556z"></path>
<path d="M500.948 652.79c-4.148 5.992-9.216 17.511-11.981 25.348-4.148 11.522-8.757 15.208-25.807 19.356-11.060 2.765-20.276 6.913-20.276 8.757 0 5.068 27.651 30.878 40.094 37.329 25.807 13.364 80.649-2.765 93.551-27.651 6.913-12.443 2.303-17.511-17.511-20.738-14.746-2.765-18.435-5.992-28.572-26.268-13.364-27.651-19.817-30.878-29.495-16.129z"></path>
<path d="M257.158 677.214c-4.148 9.216-7.834 21.659-7.834 27.651 0 8.757-4.609 12.905-21.2 20.738-18.435 7.834-20.738 10.14-15.208 16.591 10.14 12.443 42.859 26.268 61.753 26.268 24.886 0 45.624-11.522 62.214-34.564 16.129-22.121 13.364-26.73-17.052-26.73-12.905 0-19.817-1.844-19.817-5.992 0-6.451-26.73-40.094-31.798-40.094-1.844 0-6.913 7.374-11.060 16.129z"></path>
<path d="M741.049 674.911c-6.451 7.374-12.905 17.511-14.746 22.582-1.844 5.992-8.295 9.216-23.503 11.060-26.268 2.765-28.113 4.609-17.973 19.817 29.495 45.162 78.805 54.381 117.516 22.121 16.591-13.825 13.364-21.2-11.981-29.495-11.981-4.148-15.67-7.834-15.67-16.129 0-12.443-13.825-43.78-18.894-43.78-1.844 0-8.757 5.992-14.746 13.825z"></path>
<path d="M380.666 776.757c-78.343 7.374-248.396 41.015-258.074 51.154-2.765 2.765 11.060 50.692 15.67 55.763 1.844 1.844 18.894-0.462 37.79-5.53 108.759-29.954 212.45-43.321 335.958-43.321s227.199 13.364 335.958 43.321c18.894 5.068 35.484 7.374 37.329 5.53 4.609-5.068 18.435-53.457 16.129-56.223-1.383-0.921-24.424-7.374-51.616-14.746-60.37-15.208-147.47-29.954-215.677-36.408-58.988-5.53-193.556-5.068-253.467 0.462z"></path>
</svg>
