<svg xmlns="http://www.w3.org/2000/svg" width="1024" height="1024" viewBox="0 0 1024 1024"><path d="M482.02 104.705c-15.223 57.197-28.14 106.55-29.06 109.78-.922 3.69 15.684 5.074 59.04 5.074 41.977 0 59.966-1.848 59.042-5.537C553.974 145.756 513.845 0 512.002 0c-1.385 0-14.76 47.05-29.982 104.705zm-226.942-33.21c1.384 5.073 15.684 57.197 31.365 116.238l28.597 107.014 18.91-15.684c18.912-15.222 71.496-43.82 80.723-43.82 2.768 0 5.073-1.383 5.073-3.688 0-1.846-37.362-40.592-83.49-86.257s-82.564-78.876-81.18-73.803zm430.817 75.186c-44.743 44.745-81.643 83.49-81.643 85.334s2.305 3.23 5.073 3.23c9.224 0 55.814 23.986 76.108 40.13 11.532 8.765 22.14 14.76 23.524 13.838 2.768-2.767 61.35-221.404 59.965-223.25-.922-.462-38.284 35.516-83.027 80.722zM145.297 336.26c45.665 46.126 84.41 83.488 86.257 83.488 2.305 0 3.69-2.305 3.69-5.073 0-9.686 28.596-61.808 44.28-81.18 9.224-11.07 14.76-19.836 13.376-19.836-2.305 0-167.438-43.36-221.405-58.12-5.073-1.385 28.138 34.594 73.803 80.72zm302.127-75.187c-91.33 23.986-163.287 96.403-186.81 188.657-34.596 136.073 51.2 278.603 189.115 313.657 135.61 34.595 278.6-51.662 313.655-189.116 34.595-136.07-51.2-278.14-189.116-313.655-34.133-8.765-93.177-8.303-126.847.462zm397.606 22.603c-59.04 16.143-108.857 29.98-109.78 31.365-1.385 1.386 4.613 11.994 13.375 23.526 16.143 20.295 40.13 66.884 40.13 76.108 0 2.768 1.384 5.073 3.69 5.073 1.845 0 40.59-37.362 86.256-83.027s80.724-83.028 78.416-82.566c-2.768 0-53.046 13.376-112.086 29.522zm-739.862 197.88C47.048 496.78 0 510.616 0 512c0 1.846 150.832 43.36 214.487 59.04 3.69.923 5.073-15.683 5.073-59.04 0-39.668-1.384-59.965-4.614-59.503-2.768.462-52.122 13.376-109.78 29.06zM804.44 512c0 43.36 1.385 59.965 5.074 59.04C873.168 555.358 1024 513.845 1024 512s-150.83-43.36-214.486-59.04c-3.69-.923-5.073 15.683-5.073 59.04zM145.298 687.74c-45.665 46.128-78.876 82.566-73.803 80.723 5.073-1.384 57.197-15.222 116.238-30.905l106.55-28.597-17.067-21.217c-9.224-11.992-23.062-35.516-30.443-52.584-7.84-16.606-14.76-30.906-16.143-30.906s-39.67 37.362-85.333 83.49zm643.46-78.413c0 9.224-27.676 60.886-42.435 79.338-7.38 9.686-12.916 18.91-11.532 19.835 1.847 2.305 219.1 61.808 224.636 61.808 1.384 0-35.057-37.362-80.722-83.027s-84.41-83.025-86.257-83.025c-2.305 0-3.69 2.305-3.69 5.073zm-502.314 226.94c-15.684 59.042-29.98 111.166-31.365 116.24s35.056-28.14 81.18-73.804c46.127-45.665 83.49-83.95 83.49-85.332s-14.3-8.3-30.906-16.14c-17.068-7.38-40.592-21.22-52.584-30.906l-21.22-16.605-28.597 106.55zm410.062-95.943c-7.84 9.686-53.968 36.44-75.646 44.28-9.225 3.23-16.606 7.382-16.606 8.766s37.362 39.668 83.49 85.332c46.126 45.665 82.564 78.876 81.18 73.803s-14.3-53.046-28.597-106.09c-32.29-120.388-29.98-113.007-34.132-113.007-2.305 0-6.457 3.23-9.686 6.92zm-243.546 69.19C468.642 873.168 510.155 1024 512 1024s43.36-150.83 59.04-214.486c.923-3.69-15.683-5.073-59.04-5.073s-59.965 1.386-59.04 5.075z"/></svg>