<?xml version="1.0" encoding="utf-8"?>
<!-- Generated by IcoMoon.io -->
<!DOCTYPE svg PUBLIC "-//W3C//DTD SVG 1.1//EN" "http://www.w3.org/Graphics/SVG/1.1/DTD/svg11.dtd">
<svg version="1.1" xmlns="http://www.w3.org/2000/svg" xmlns:xlink="http://www.w3.org/1999/xlink" width="1024" height="1024" viewBox="0 0 1024 1024"><g id="icomoon-ignore">
</g>
<path d="M511.832 24.188l-120.609 372.409-391.223 0.336 316.304 230.131-120.609 372.746c81.514-59.783 229.126-166.929 316.304-230.131l316.64 229.963-120.944-372.409 316.304-230.467h-390.887l-121.281-372.578zM511.832 279.181l38.467 117.418-76.599 0.168 38.131-117.586zM365.522 475.381l-23.517 73.071-99.948-72.734 123.464-0.336zM448.168 475.381h127.664l39.476 121.617-103.307 75.254-103.307-75.254 39.476-121.617zM658.478 475.381h123.297l-99.611 73.071-23.686-73.071zM383.16 675.948l62.152 44.85-99.948 72.734 37.796-117.586zM641.176 675.948l37.796 117.586-99.78-72.567v-0.168l61.984-44.85z"></path>
</svg>
