<svg xmlns="http://www.w3.org/2000/svg" width="1024" height="1024" viewBox="0 0 1024 1024"><path d="M511.832 24.188l-120.61 372.41L0 396.932l316.304 230.13-120.61 372.747C277.21 940.026 424.822 832.88 512 769.68l316.64 229.96-120.945-372.41L1024 396.767H633.11L511.832 24.187zm0 254.993L550.3 396.6l-76.6.167 38.13-117.586zm-146.31 196.2l-23.517 73.073-99.948-72.734 123.464-.337zm82.646 0h127.664L615.308 597 512 672.252l-103.306-75.254L448.17 475.38zm210.31 0h123.297l-99.61 73.073-23.687-73.07zM383.16 675.95l62.152 44.85-99.948 72.734 37.796-117.586zm258.016 0l37.796 117.586-99.78-72.567v-.17l61.984-44.85z"/></svg>