<svg xmlns:dc="http://purl.org/dc/elements/1.1/" xmlns:cc="http://creativecommons.org/ns#" xmlns:rdf="http://www.w3.org/1999/02/22-rdf-syntax-ns#" xmlns:svg="http://www.w3.org/2000/svg" xmlns="http://www.w3.org/2000/svg" xmlns:sodipodi="http://sodipodi.sourceforge.net/DTD/sodipodi-0.dtd" xmlns:inkscape="http://www.inkscape.org/namespaces/inkscape" version="1.1" x="0px" y="0px" viewBox="0 0 100 100" enable-background="new 0 0 100 100" xml:space="preserve"><path d="M 49.985235,7.1259845 39.384842,39.857283 5,39.886809 32.800196,60.113189 22.199803,92.874015 C 29.364147,87.619579 42.337796,78.202562 49.999999,72.647637 L 77.829721,92.859246 67.199802,60.127953 95,39.872047 l -34.355316,0 L 49.985235,7.1259845 z m 0,22.4114165 3.380906,10.319882 -6.732284,0.01474 3.351378,-10.334646 z m -12.859252,17.244094 -2.066929,6.422245 -8.784448,-6.392718 10.851377,-0.02953 z m 7.26378,0 11.220472,0 3.469488,10.688977 -9.079724,6.614172 -9.079724,-6.614172 3.469488,-10.688977 z m 18.484252,0 10.836614,0 -8.754921,6.422245 -2.081693,-6.422245 z m -24.197834,17.627953 5.462598,3.941929 -8.784448,6.392717 3.32185,-10.334646 z m 22.677165,0 3.32185,10.334646 -8.769685,-6.377954 0,-0.01474 5.447835,-3.941929 z" style="" fill="#000000"></path></svg>