<svg xmlns="http://www.w3.org/2000/svg" xmlns:xlink="http://www.w3.org/1999/xlink" version="1.1" x="0px" y="0px" viewBox="0 0 100 100" enable-background="new 0 0 100 100" xml:space="preserve"><path d="M9.255,26.476h27.164L50,2.951l13.582,23.524h27.163L77.165,50l13.581,23.525H63.583L50,97.048L36.418,73.525H9.255  L22.836,50L9.255,26.476 M50,15.416l-6.385,11.06h12.77L50,15.416 M67.181,32.709l6.385,11.058l6.384-11.058H67.181 M73.566,56.233  l-6.385,11.059H79.95L73.566,56.233 M43.615,73.525L50,84.584l6.385-11.06H43.615 M26.435,43.767l6.385-11.058H20.05L26.435,43.767   M30.034,50l9.983,17.292h19.967L69.967,50l-9.983-17.291H40.017L30.034,50 M26.435,56.233L20.05,67.292h12.77L26.435,56.233"></path></svg>